# MagicaVoxel @ Ephtracy

# group
g 2x2first-3

# material
mtllib 2x2first-3.mtl
usemtl palette

# normals
vn -1 0 0
vn 1 0 0
vn 0 0 1
vn 0 0 -1
vn 0 -1 0
vn 0 1 0

# texcoords
vt 0.396484 0.5
vt 0.560547 0.5
vt 0.974609 0.5
vt 0.978516 0.5

# verts
v -63 0 63
v -63 0 -63
v -63 5 63
v -63 5 11
v -63 5 10
v -63 5 -61
v -63 5 -63
v -63 80 11
v -63 80 10
v -63 80 -61
v -63 80 -63
v -40 5 11
v -40 5 10
v -40 37 11
v -40 37 10
v -20 5 63
v -20 5 11
v -20 5 10
v -20 5 -61
v -20 80 63
v -20 80 11
v -20 80 10
v -20 80 -61
v 22 26 63
v 22 26 -32
v 22 32 -21
v 22 32 -32
v 22 39 -11
v 22 39 -21
v 22 46 -0
v 22 46 -11
v 22 53 10
v 22 53 -0
v 22 60 21
v 22 60 10
v 22 67 31
v 22 67 21
v 22 74 42
v 22 74 31
v 22 80 63
v 22 80 42
v 61 5 63
v 61 5 -61
v 61 25 -11
v 61 25 -32
v 61 32 -0
v 61 32 -11
v 61 32 -21
v 61 32 -32
v 61 39 10
v 61 39 -0
v 61 39 -11
v 61 39 -21
v 61 46 21
v 61 46 10
v 61 46 -0
v 61 46 -11
v 61 53 31
v 61 53 21
v 61 53 10
v 61 53 -0
v 61 60 42
v 61 60 31
v 61 60 21
v 61 60 10
v 61 67 52
v 61 67 42
v 61 67 31
v 61 67 21
v 61 74 63
v 61 74 52
v 61 74 42
v 61 74 31
v 61 80 42
v 61 80 -61
v -54 5 11
v -54 5 10
v -54 37 11
v -54 37 10
v -19 26 63
v -19 26 -61
v -19 80 63
v -19 80 -61
v 60 5 63
v 60 5 -32
v 60 5 -61
v 60 25 63
v 60 25 -11
v 60 25 -32
v 60 26 -32
v 60 26 -61
v 60 32 -0
v 60 32 -11
v 60 39 10
v 60 39 -0
v 60 46 21
v 60 46 10
v 60 53 31
v 60 53 21
v 60 60 42
v 60 60 31
v 60 67 52
v 60 67 42
v 60 74 63
v 60 74 52
v 63 0 63
v 63 0 -63
v 63 5 63
v 63 5 -63
v 63 80 63
v 63 80 -63
v -63 0 63
v -63 5 63
v -20 5 63
v -20 80 63
v -19 0 63
v -19 5 63
v -19 26 63
v -19 80 63
v 22 0 63
v 22 5 63
v 22 25 63
v 22 26 63
v 22 80 63
v 60 5 63
v 60 25 63
v 60 74 63
v 61 5 63
v 61 74 63
v 61 80 63
v 63 0 63
v 63 5 63
v 63 80 63
v 60 67 52
v 60 74 52
v 61 67 52
v 61 74 52
v 60 60 42
v 60 67 42
v 61 60 42
v 61 67 42
v 60 53 31
v 60 60 31
v 61 53 31
v 61 60 31
v 60 46 21
v 60 53 21
v 61 46 21
v 61 53 21
v -63 5 11
v -63 80 11
v -54 5 11
v -54 37 11
v -40 5 11
v -40 37 11
v -20 5 11
v -20 80 11
v 60 39 10
v 60 46 10
v 61 39 10
v 61 46 10
v 60 32 -0
v 60 39 -0
v 61 32 -0
v 61 39 -0
v 60 25 -11
v 60 32 -11
v 61 25 -11
v 61 32 -11
v -63 5 -61
v -63 80 -61
v -20 5 -61
v -20 80 -61
v -19 26 -61
v -19 80 -61
v 60 5 -61
v 60 26 -61
v 61 5 -61
v 61 80 -61
v 22 74 42
v 22 80 42
v 61 74 42
v 61 80 42
v 22 67 31
v 22 74 31
v 61 67 31
v 61 74 31
v 22 60 21
v 22 67 21
v 61 60 21
v 61 67 21
v -63 5 10
v -63 80 10
v -54 5 10
v -54 37 10
v -40 5 10
v -40 37 10
v -20 5 10
v -20 80 10
v 22 53 10
v 22 60 10
v 61 53 10
v 61 60 10
v 22 46 -0
v 22 53 -0
v 61 46 -0
v 61 53 -0
v 22 39 -11
v 22 46 -11
v 61 39 -11
v 61 46 -11
v 22 32 -21
v 22 39 -21
v 61 32 -21
v 61 39 -21
v 22 26 -32
v 22 32 -32
v 60 25 -32
v 60 26 -32
v 61 25 -32
v 61 32 -32
v -63 0 -63
v -63 5 -63
v -63 80 -63
v 63 0 -63
v 63 5 -63
v 63 80 -63
v -63 0 63
v -19 0 63
v 22 0 63
v 63 0 63
v -2 0 48
v 3 0 48
v -2 0 47
v 3 0 47
v 4 0 11
v 10 0 11
v 4 0 9
v 10 0 9
v -5 0 6
v -3 0 6
v -5 0 4
v -3 0 4
v -8 0 -8
v -7 0 -8
v 7 0 -9
v 11 0 -9
v 7 0 -15
v 11 0 -15
v -8 0 -20
v -7 0 -20
v -10 0 -30
v -8 0 -30
v 11 0 -32
v 15 0 -32
v 22 0 -32
v 60 0 -32
v 11 0 -34
v 15 0 -34
v -10 0 -36
v -8 0 -36
v 3 0 -51
v 7 0 -51
v 43 0 -51
v 49 0 -51
v 3 0 -53
v 7 0 -53
v 13 0 -53
v 21 0 -53
v 43 0 -55
v 49 0 -55
v 13 0 -56
v 21 0 -56
v -19 0 -61
v 60 0 -61
v -63 0 -63
v 63 0 -63
v 60 25 -11
v 61 25 -11
v 60 25 -32
v 61 25 -32
v 60 32 -0
v 61 32 -0
v 60 32 -11
v 61 32 -11
v -54 37 11
v -40 37 11
v -54 37 10
v -40 37 10
v 60 39 10
v 61 39 10
v 60 39 -0
v 61 39 -0
v 60 46 21
v 61 46 21
v 60 46 10
v 61 46 10
v 60 53 31
v 61 53 31
v 60 53 21
v 61 53 21
v 60 60 42
v 61 60 42
v 60 60 31
v 61 60 31
v 60 67 52
v 61 67 52
v 60 67 42
v 61 67 42
v 60 74 63
v 61 74 63
v 60 74 52
v 61 74 52
v -63 5 63
v -20 5 63
v 60 5 63
v 61 5 63
v -63 5 11
v -54 5 11
v -40 5 11
v -20 5 11
v -63 5 10
v -54 5 10
v -40 5 10
v -20 5 10
v 60 5 -32
v -63 5 -61
v -20 5 -61
v 60 5 -61
v 61 5 -61
v -19 26 63
v 22 26 63
v 22 26 -32
v 60 26 -32
v -19 26 -61
v 60 26 -61
v 22 32 -21
v 61 32 -21
v 22 32 -32
v 61 32 -32
v 22 39 -11
v 61 39 -11
v 22 39 -21
v 61 39 -21
v 22 46 -0
v 61 46 -0
v 22 46 -11
v 61 46 -11
v 22 53 10
v 61 53 10
v 22 53 -0
v 61 53 -0
v 22 60 21
v 61 60 21
v 22 60 10
v 61 60 10
v 22 67 31
v 61 67 31
v 22 67 21
v 61 67 21
v 22 74 42
v 61 74 42
v 22 74 31
v 61 74 31
v -20 80 63
v -19 80 63
v 22 80 63
v 61 80 63
v 63 80 63
v 22 80 42
v 61 80 42
v -63 80 11
v -20 80 11
v -63 80 10
v -20 80 10
v -63 80 -61
v -20 80 -61
v -19 80 -61
v 61 80 -61
v -63 80 -63
v 63 80 -63

# faces
f 3/3/1 2/3/1 1/3/1
f 4/3/1 2/3/1 3/3/1
f 5/3/1 2/3/1 4/3/1
f 6/3/1 2/3/1 5/3/1
f 7/3/1 2/3/1 6/3/1
f 8/4/1 5/4/1 4/4/1
f 9/4/1 5/4/1 8/4/1
f 10/4/1 7/4/1 6/4/1
f 11/4/1 7/4/1 10/4/1
f 14/4/1 13/4/1 12/4/1
f 15/4/1 13/4/1 14/4/1
f 20/4/1 17/4/1 16/4/1
f 21/4/1 17/4/1 20/4/1
f 22/4/1 19/4/1 18/4/1
f 23/4/1 19/4/1 22/4/1
f 26/1/1 25/1/1 24/1/1
f 27/1/1 25/1/1 26/1/1
f 28/1/1 26/1/1 24/1/1
f 29/1/1 26/1/1 28/1/1
f 30/1/1 28/1/1 24/1/1
f 31/1/1 28/1/1 30/1/1
f 32/1/1 30/1/1 24/1/1
f 33/1/1 30/1/1 32/1/1
f 34/1/1 32/1/1 24/1/1
f 35/1/1 32/1/1 34/1/1
f 36/1/1 34/1/1 24/1/1
f 37/1/1 34/1/1 36/1/1
f 38/1/1 36/1/1 24/1/1
f 39/1/1 36/1/1 38/1/1
f 40/1/1 38/1/1 24/1/1
f 41/1/1 38/1/1 40/1/1
f 44/4/1 43/4/1 42/4/1
f 45/4/1 43/4/1 44/4/1
f 46/4/1 44/4/1 42/4/1
f 47/4/1 44/4/1 46/4/1
f 49/4/1 43/4/1 45/4/1
f 50/4/1 46/4/1 42/4/1
f 51/4/1 46/4/1 50/4/1
f 53/4/1 49/4/1 48/4/1
f 54/4/1 50/4/1 42/4/1
f 55/4/1 50/4/1 54/4/1
f 57/4/1 53/4/1 52/4/1
f 58/4/1 54/4/1 42/4/1
f 59/4/1 54/4/1 58/4/1
f 61/4/1 57/4/1 56/4/1
f 62/4/1 58/4/1 42/4/1
f 63/4/1 58/4/1 62/4/1
f 65/4/1 61/4/1 60/4/1
f 66/4/1 62/4/1 42/4/1
f 67/4/1 62/4/1 66/4/1
f 69/4/1 65/4/1 64/4/1
f 70/4/1 66/4/1 42/4/1
f 71/4/1 66/4/1 70/4/1
f 73/4/1 69/4/1 68/4/1
f 74/4/1 73/4/1 72/4/1
f 75/4/1 69/4/1 73/4/1
f 75/4/1 73/4/1 74/4/1
f 75/4/1 43/4/1 49/4/1
f 75/4/1 49/4/1 53/4/1
f 75/4/1 53/4/1 57/4/1
f 75/4/1 57/4/1 61/4/1
f 75/4/1 65/4/1 69/4/1
f 75/4/1 61/4/1 65/4/1
f 76/4/2 77/4/2 78/4/2
f 78/4/2 77/4/2 79/4/2
f 80/4/2 81/4/2 82/4/2
f 82/4/2 81/4/2 83/4/2
f 84/4/2 85/4/2 87/4/2
f 87/4/2 85/4/2 88/4/2
f 85/2/2 86/2/2 89/2/2
f 88/4/2 85/4/2 89/4/2
f 89/2/2 86/2/2 90/2/2
f 90/2/2 86/2/2 91/2/2
f 87/1/2 88/1/2 92/1/2
f 92/1/2 88/1/2 93/1/2
f 87/1/2 92/1/2 94/1/2
f 94/1/2 92/1/2 95/1/2
f 87/1/2 94/1/2 96/1/2
f 96/1/2 94/1/2 97/1/2
f 87/1/2 96/1/2 98/1/2
f 98/1/2 96/1/2 99/1/2
f 87/1/2 98/1/2 100/1/2
f 100/1/2 98/1/2 101/1/2
f 87/1/2 100/1/2 102/1/2
f 102/1/2 100/1/2 103/1/2
f 87/1/2 102/1/2 104/1/2
f 104/1/2 102/1/2 105/1/2
f 106/3/2 107/3/2 108/3/2
f 108/3/2 107/3/2 109/3/2
f 108/4/2 109/4/2 110/4/2
f 110/4/2 109/4/2 111/4/2
f 114/3/3 113/3/3 112/3/3
f 116/3/3 114/3/3 112/3/3
f 117/4/3 115/4/3 114/4/3
f 117/3/3 114/3/3 116/3/3
f 118/4/3 115/4/3 117/4/3
f 119/4/3 115/4/3 118/4/3
f 120/2/3 117/2/3 116/2/3
f 120/2/3 118/2/3 117/2/3
f 121/2/3 118/2/3 120/2/3
f 122/2/3 118/2/3 121/2/3
f 123/2/3 118/2/3 122/2/3
f 125/3/3 121/3/3 120/3/3
f 125/4/3 122/4/3 121/4/3
f 126/1/3 124/1/3 123/1/3
f 126/4/3 122/4/3 125/4/3
f 126/1/3 123/1/3 122/1/3
f 127/1/3 124/1/3 126/1/3
f 128/3/3 125/3/3 120/3/3
f 129/1/3 124/1/3 127/1/3
f 130/1/3 124/1/3 129/1/3
f 131/3/3 128/3/3 120/3/3
f 132/4/3 129/4/3 128/4/3
f 132/3/3 128/3/3 131/3/3
f 132/4/3 130/4/3 129/4/3
f 133/4/3 130/4/3 132/4/3
f 136/1/3 135/1/3 134/1/3
f 137/1/3 135/1/3 136/1/3
f 140/1/3 139/1/3 138/1/3
f 141/1/3 139/1/3 140/1/3
f 144/1/3 143/1/3 142/1/3
f 145/1/3 143/1/3 144/1/3
f 148/1/3 147/1/3 146/1/3
f 149/1/3 147/1/3 148/1/3
f 152/4/3 151/4/3 150/4/3
f 153/4/3 151/4/3 152/4/3
f 155/4/3 151/4/3 153/4/3
f 156/4/3 155/4/3 154/4/3
f 157/4/3 151/4/3 155/4/3
f 157/4/3 155/4/3 156/4/3
f 160/1/3 159/1/3 158/1/3
f 161/1/3 159/1/3 160/1/3
f 164/1/3 163/1/3 162/1/3
f 165/1/3 163/1/3 164/1/3
f 168/1/3 167/1/3 166/1/3
f 169/1/3 167/1/3 168/1/3
f 172/4/3 171/4/3 170/4/3
f 173/4/3 171/4/3 172/4/3
f 177/4/3 175/4/3 174/4/3
f 178/4/3 177/4/3 176/4/3
f 179/4/3 175/4/3 177/4/3
f 179/4/3 177/4/3 178/4/3
f 180/1/4 181/1/4 182/1/4
f 182/1/4 181/1/4 183/1/4
f 184/1/4 185/1/4 186/1/4
f 186/1/4 185/1/4 187/1/4
f 188/1/4 189/1/4 190/1/4
f 190/1/4 189/1/4 191/1/4
f 192/4/4 193/4/4 194/4/4
f 194/4/4 193/4/4 195/4/4
f 195/4/4 193/4/4 197/4/4
f 196/4/4 197/4/4 198/4/4
f 197/4/4 193/4/4 199/4/4
f 198/4/4 197/4/4 199/4/4
f 200/1/4 201/1/4 202/1/4
f 202/1/4 201/1/4 203/1/4
f 204/1/4 205/1/4 206/1/4
f 206/1/4 205/1/4 207/1/4
f 208/1/4 209/1/4 210/1/4
f 210/1/4 209/1/4 211/1/4
f 212/1/4 213/1/4 214/1/4
f 214/1/4 213/1/4 215/1/4
f 216/1/4 217/1/4 219/1/4
f 218/1/4 219/1/4 220/1/4
f 219/1/4 217/1/4 221/1/4
f 220/1/4 219/1/4 221/1/4
f 222/3/4 223/3/4 225/3/4
f 223/4/4 224/4/4 226/4/4
f 225/3/4 223/3/4 226/3/4
f 226/4/4 224/4/4 227/4/4
f 232/2/5 230/2/5 229/2/5
f 233/2/5 230/2/5 232/2/5
f 234/2/5 232/2/5 229/2/5
f 234/3/5 233/3/5 232/3/5
f 235/2/5 230/2/5 233/2/5
f 235/3/5 233/3/5 234/3/5
f 236/2/5 235/2/5 234/2/5
f 236/2/5 230/2/5 235/2/5
f 237/2/5 230/2/5 236/2/5
f 238/2/5 236/2/5 234/2/5
f 238/3/5 237/3/5 236/3/5
f 239/2/5 230/2/5 237/2/5
f 239/3/5 237/3/5 238/3/5
f 240/2/5 234/2/5 229/2/5
f 240/2/5 238/2/5 234/2/5
f 240/2/5 239/2/5 238/2/5
f 241/2/5 239/2/5 240/2/5
f 242/2/5 240/2/5 229/2/5
f 242/3/5 241/3/5 240/3/5
f 243/2/5 239/2/5 241/2/5
f 243/3/5 241/3/5 242/3/5
f 244/2/5 242/2/5 229/2/5
f 244/2/5 243/2/5 242/2/5
f 245/2/5 243/2/5 244/2/5
f 246/2/5 239/2/5 243/2/5
f 246/2/5 243/2/5 245/2/5
f 247/2/5 230/2/5 239/2/5
f 247/2/5 239/2/5 246/2/5
f 248/2/5 246/2/5 245/2/5
f 248/3/5 247/3/5 246/3/5
f 249/2/5 230/2/5 247/2/5
f 249/3/5 247/3/5 248/3/5
f 250/3/5 245/3/5 244/3/5
f 250/2/5 244/2/5 229/2/5
f 251/2/5 248/2/5 245/2/5
f 251/3/5 245/3/5 250/3/5
f 251/2/5 249/2/5 248/2/5
f 252/2/5 250/2/5 229/2/5
f 252/2/5 251/2/5 250/2/5
f 253/2/5 251/2/5 252/2/5
f 254/2/5 249/2/5 251/2/5
f 254/2/5 251/2/5 253/2/5
f 254/2/5 230/2/5 249/2/5
f 255/2/5 230/2/5 254/2/5
f 256/3/5 231/3/5 230/3/5
f 256/2/5 230/2/5 255/2/5
f 257/3/5 231/3/5 256/3/5
f 258/3/5 255/3/5 254/3/5
f 258/2/5 254/2/5 253/2/5
f 259/2/5 257/2/5 256/2/5
f 259/3/5 255/3/5 258/3/5
f 259/2/5 256/2/5 255/2/5
f 260/3/5 253/3/5 252/3/5
f 260/2/5 252/2/5 229/2/5
f 261/2/5 259/2/5 258/2/5
f 261/3/5 253/3/5 260/3/5
f 261/2/5 258/2/5 253/2/5
f 262/2/5 261/2/5 260/2/5
f 262/2/5 259/2/5 261/2/5
f 263/2/5 259/2/5 262/2/5
f 264/2/5 257/2/5 259/2/5
f 264/2/5 259/2/5 263/2/5
f 265/2/5 257/2/5 264/2/5
f 266/3/5 263/3/5 262/3/5
f 266/2/5 262/2/5 260/2/5
f 267/2/5 264/2/5 263/2/5
f 267/3/5 263/3/5 266/3/5
f 268/2/5 264/2/5 267/2/5
f 269/2/5 264/2/5 268/2/5
f 270/3/5 265/3/5 264/3/5
f 270/2/5 264/2/5 269/2/5
f 271/2/5 257/2/5 265/2/5
f 271/3/5 265/3/5 270/3/5
f 272/3/5 269/3/5 268/3/5
f 272/2/5 267/2/5 266/2/5
f 272/2/5 268/2/5 267/2/5
f 273/2/5 270/2/5 269/2/5
f 273/3/5 269/3/5 272/3/5
f 273/2/5 271/2/5 270/2/5
f 274/3/5 229/3/5 228/3/5
f 274/2/5 272/2/5 266/2/5
f 274/2/5 273/2/5 272/2/5
f 274/2/5 266/2/5 260/2/5
f 274/2/5 260/2/5 229/2/5
f 275/2/5 271/2/5 273/2/5
f 275/2/5 273/2/5 274/2/5
f 275/3/5 231/3/5 257/3/5
f 275/2/5 257/2/5 271/2/5
f 276/3/5 274/3/5 228/3/5
f 276/3/5 275/3/5 274/3/5
f 277/3/5 231/3/5 275/3/5
f 277/3/5 275/3/5 276/3/5
f 280/1/5 279/1/5 278/1/5
f 281/1/5 279/1/5 280/1/5
f 284/1/5 283/1/5 282/1/5
f 285/1/5 283/1/5 284/1/5
f 288/4/5 287/4/5 286/4/5
f 289/4/5 287/4/5 288/4/5
f 292/1/5 291/1/5 290/1/5
f 293/1/5 291/1/5 292/1/5
f 296/1/5 295/1/5 294/1/5
f 297/1/5 295/1/5 296/1/5
f 300/1/5 299/1/5 298/1/5
f 301/1/5 299/1/5 300/1/5
f 304/1/5 303/1/5 302/1/5
f 305/1/5 303/1/5 304/1/5
f 308/1/5 307/1/5 306/1/5
f 309/1/5 307/1/5 308/1/5
f 312/1/5 311/1/5 310/1/5
f 313/1/5 311/1/5 312/1/5
f 314/3/6 315/3/6 318/3/6
f 318/3/6 315/3/6 319/3/6
f 319/3/6 315/3/6 320/3/6
f 320/3/6 315/3/6 321/3/6
f 319/3/6 320/3/6 323/3/6
f 323/3/6 320/3/6 324/3/6
f 316/3/6 317/3/6 326/3/6
f 324/3/6 325/3/6 327/3/6
f 323/3/6 324/3/6 327/3/6
f 322/3/6 323/3/6 327/3/6
f 327/3/6 325/3/6 328/3/6
f 326/3/6 317/3/6 329/3/6
f 329/3/6 317/3/6 330/3/6
f 331/2/6 332/2/6 333/2/6
f 331/2/6 333/2/6 335/2/6
f 333/2/6 334/2/6 335/2/6
f 335/2/6 334/2/6 336/2/6
f 337/1/6 338/1/6 339/1/6
f 339/1/6 338/1/6 340/1/6
f 341/1/6 342/1/6 343/1/6
f 343/1/6 342/1/6 344/1/6
f 345/1/6 346/1/6 347/1/6
f 347/1/6 346/1/6 348/1/6
f 349/1/6 350/1/6 351/1/6
f 351/1/6 350/1/6 352/1/6
f 353/1/6 354/1/6 355/1/6
f 355/1/6 354/1/6 356/1/6
f 357/1/6 358/1/6 359/1/6
f 359/1/6 358/1/6 360/1/6
f 361/1/6 362/1/6 363/1/6
f 363/1/6 362/1/6 364/1/6
f 367/1/6 368/1/6 370/1/6
f 368/4/6 369/4/6 371/4/6
f 370/1/6 368/1/6 371/1/6
f 365/4/6 366/4/6 373/4/6
f 372/4/6 373/4/6 374/4/6
f 373/4/6 366/4/6 375/4/6
f 374/4/6 373/4/6 375/4/6
f 375/4/6 366/4/6 377/4/6
f 377/4/6 366/4/6 378/4/6
f 371/4/6 369/4/6 379/4/6
f 377/4/6 378/4/6 380/4/6
f 378/4/6 379/4/6 380/4/6
f 376/4/6 377/4/6 380/4/6
f 379/4/6 369/4/6 381/4/6
f 380/4/6 379/4/6 381/4/6
