# MagicaVoxel @ Ephtracy

# group
g 2x2 first (des)-3

# material
mtllib 2x2 first (des)-3.mtl
usemtl palette

# normals
vn -1 0 0
vn 1 0 0
vn 0 0 1
vn 0 0 -1
vn 0 -1 0
vn 0 1 0

# texcoords
vt 0.416016 0.5
vt 0.419922 0.5
vt 0.966797 0.5
vt 0.978516 0.5

# verts
v -63 0 63
v -63 0 -40
v -63 0 -43
v -63 0 -54
v -63 0 -63
v -63 1 -54
v -63 1 -63
v -63 2 -45
v -63 2 -62
v -63 4 62
v -63 4 -40
v -63 4 -43
v -63 4 -45
v -63 4 -62
v -63 4 -63
v -63 5 62
v -63 5 61
v -63 5 -40
v -63 5 -43
v -63 5 -45
v -63 5 -62
v -63 5 -63
v -63 80 63
v -63 80 61
v 59 12 62
v 59 12 61
v 59 17 62
v 59 17 61
v 61 5 61
v 61 5 -63
v 61 9 11
v 61 9 -3
v 61 11 19
v 61 11 11
v 61 15 -10
v 61 15 -49
v 61 18 41
v 61 18 24
v 61 18 19
v 61 18 11
v 61 23 20
v 61 23 12
v 61 25 22
v 61 25 21
v 61 26 24
v 61 26 22
v 61 26 20
v 61 26 12
v 61 29 11
v 61 29 -3
v 61 31 41
v 61 31 38
v 61 32 45
v 61 32 41
v 61 33 21
v 61 33 -10
v 61 36 -39
v 61 36 -49
v 61 37 47
v 61 37 45
v 61 38 42
v 61 38 41
v 61 43 48
v 61 43 47
v 61 45 -39
v 61 45 -43
v 61 47 42
v 61 47 38
v 61 50 48
v 61 50 47
v 61 51 50
v 61 51 48
v 61 51 -39
v 61 51 -43
v 61 55 50
v 61 55 48
v 61 57 47
v 61 57 35
v 61 57 -39
v 61 57 -43
v 61 62 56
v 61 62 35
v 61 62 -43
v 61 62 -51
v 61 80 61
v 61 80 56
v 61 80 -51
v 61 80 -63
v 58 12 62
v 58 12 61
v 58 17 62
v 58 17 61
v 62 7 25
v 62 7 22
v 62 11 25
v 62 11 22
v 62 34 47
v 62 34 45
v 62 34 41
v 62 34 39
v 62 34 38
v 62 37 47
v 62 37 45
v 62 38 42
v 62 38 41
v 62 47 42
v 62 47 38
v 63 0 63
v 63 0 -63
v 63 7 25
v 63 7 22
v 63 8 55
v 63 8 50
v 63 9 55
v 63 9 50
v 63 9 11
v 63 9 -3
v 63 11 25
v 63 11 22
v 63 11 19
v 63 11 11
v 63 12 57
v 63 12 49
v 63 13 63
v 63 13 57
v 63 15 -10
v 63 15 -49
v 63 18 41
v 63 18 24
v 63 18 19
v 63 18 11
v 63 23 20
v 63 23 12
v 63 25 22
v 63 25 21
v 63 26 49
v 63 26 41
v 63 26 24
v 63 26 22
v 63 26 20
v 63 26 12
v 63 29 11
v 63 29 -3
v 63 31 41
v 63 31 39
v 63 31 38
v 63 32 45
v 63 32 41
v 63 33 21
v 63 33 -10
v 63 34 47
v 63 34 45
v 63 34 41
v 63 34 39
v 63 34 38
v 63 36 -39
v 63 36 -49
v 63 41 51
v 63 41 47
v 63 42 56
v 63 42 52
v 63 43 48
v 63 43 47
v 63 45 -39
v 63 45 -43
v 63 49 56
v 63 49 52
v 63 49 51
v 63 50 48
v 63 50 47
v 63 51 50
v 63 51 48
v 63 51 -39
v 63 51 -43
v 63 53 53
v 63 53 52
v 63 55 62
v 63 55 60
v 63 55 50
v 63 55 48
v 63 56 63
v 63 56 62
v 63 57 47
v 63 57 35
v 63 57 -39
v 63 57 -43
v 63 61 60
v 63 61 53
v 63 62 56
v 63 62 35
v 63 62 -43
v 63 62 -51
v 63 80 63
v 63 80 56
v 63 80 -51
v 63 80 -63
v -63 0 63
v -63 80 63
v 11 70 63
v 11 71 63
v 12 12 63
v 12 20 63
v 14 70 63
v 14 71 63
v 16 12 63
v 16 20 63
v 18 25 63
v 18 30 63
v 18 58 63
v 18 62 63
v 19 25 63
v 19 30 63
v 19 37 63
v 19 47 63
v 19 58 63
v 19 62 63
v 23 14 63
v 23 37 63
v 23 38 63
v 23 47 63
v 24 41 63
v 24 43 63
v 26 38 63
v 26 41 63
v 26 43 63
v 26 46 63
v 32 46 63
v 32 56 63
v 33 14 63
v 33 17 63
v 34 6 63
v 34 17 63
v 34 65 63
v 34 66 63
v 35 56 63
v 35 62 63
v 36 65 63
v 36 66 63
v 39 7 63
v 39 17 63
v 39 62 63
v 39 65 63
v 41 8 63
v 41 17 63
v 45 6 63
v 45 7 63
v 47 6 63
v 47 8 63
v 47 64 63
v 47 65 63
v 50 6 63
v 50 8 63
v 51 67 63
v 51 69 63
v 55 56 63
v 55 64 63
v 55 67 63
v 55 69 63
v 56 6 63
v 56 8 63
v 57 61 63
v 57 64 63
v 58 12 63
v 58 17 63
v 59 6 63
v 59 9 63
v 59 12 63
v 59 17 63
v 59 61 63
v 59 64 63
v 60 9 63
v 60 17 63
v 62 13 63
v 62 17 63
v 63 0 63
v 63 13 63
v 63 56 63
v 63 80 63
v 61 51 48
v 61 55 48
v 63 51 48
v 63 55 48
v 61 38 42
v 61 47 42
v 62 38 42
v 62 47 42
v 61 32 41
v 61 38 41
v 62 32 41
v 62 34 41
v 62 38 41
v 63 32 41
v 63 34 41
v 61 18 24
v 61 26 24
v 63 18 24
v 63 26 24
v 62 7 22
v 62 11 22
v 63 7 22
v 63 11 22
v 61 25 21
v 61 33 21
v 63 25 21
v 63 33 21
v 61 23 12
v 61 26 12
v 63 23 12
v 63 26 12
v 61 9 -3
v 61 29 -3
v 63 9 -3
v 63 29 -3
v 61 36 -39
v 61 45 -39
v 61 51 -39
v 61 57 -39
v 63 36 -39
v 63 45 -39
v 63 51 -39
v 63 57 -39
v 61 45 -43
v 61 51 -43
v 61 57 -43
v 61 62 -43
v 63 45 -43
v 63 51 -43
v 63 57 -43
v 63 62 -43
v 61 15 -49
v 61 36 -49
v 63 15 -49
v 63 36 -49
v 61 62 -51
v 61 80 -51
v 63 62 -51
v 63 80 -51
v 58 12 62
v 58 17 62
v 59 12 62
v 59 17 62
v -63 5 61
v -63 80 61
v 58 12 61
v 58 17 61
v 59 12 61
v 59 17 61
v 61 5 61
v 61 80 61
v 61 62 56
v 61 80 56
v 63 62 56
v 63 80 56
v 61 51 50
v 61 55 50
v 63 51 50
v 63 55 50
v 61 43 48
v 61 50 48
v 63 43 48
v 63 50 48
v 61 37 47
v 61 43 47
v 61 50 47
v 61 57 47
v 62 34 47
v 62 37 47
v 62 41 47
v 63 34 47
v 63 41 47
v 63 43 47
v 63 50 47
v 63 57 47
v 61 32 45
v 61 37 45
v 62 32 45
v 62 34 45
v 62 37 45
v 63 32 45
v 63 34 45
v 61 18 41
v 61 31 41
v 62 26 41
v 62 31 41
v 63 18 41
v 63 26 41
v 63 31 41
v 61 31 38
v 61 47 38
v 62 34 38
v 62 47 38
v 63 31 38
v 63 34 38
v 61 57 35
v 61 62 35
v 63 57 35
v 63 62 35
v 62 7 25
v 62 11 25
v 63 7 25
v 63 11 25
v 61 25 22
v 61 26 22
v 63 25 22
v 63 26 22
v 61 23 20
v 61 26 20
v 63 23 20
v 63 26 20
v 61 11 19
v 61 18 19
v 63 11 19
v 63 18 19
v 61 9 11
v 61 11 11
v 61 18 11
v 61 29 11
v 63 9 11
v 63 11 11
v 63 18 11
v 63 29 11
v 61 15 -10
v 61 33 -10
v 63 15 -10
v 63 33 -10
v -63 0 -63
v -63 1 -63
v -63 4 -63
v -63 5 -63
v -59 2 -63
v -59 4 -63
v -59 5 -63
v -46 2 -63
v -46 4 -63
v -44 0 -63
v -44 1 -63
v -39 4 -63
v -39 5 -63
v 61 5 -63
v 61 80 -63
v 62 4 -63
v 62 5 -63
v 63 0 -63
v 63 80 -63
v -63 0 63
v 63 0 63
v -63 0 -40
v -62 0 -40
v -63 0 -43
v -62 0 -43
v -63 0 -54
v -44 0 -54
v -63 0 -63
v -44 0 -63
v 63 0 -63
v 62 11 25
v 63 11 25
v 62 11 22
v 63 11 22
v 58 17 62
v 59 17 62
v 58 17 61
v 59 17 61
v 61 18 19
v 63 18 19
v 61 18 11
v 63 18 11
v 61 26 20
v 63 26 20
v 61 26 12
v 63 26 12
v 61 29 11
v 63 29 11
v 61 29 -3
v 63 29 -3
v 61 31 41
v 62 31 41
v 63 31 41
v 62 31 39
v 63 31 39
v 61 31 38
v 63 31 38
v 61 36 -39
v 63 36 -39
v 61 36 -49
v 63 36 -49
v 61 38 42
v 62 38 42
v 61 38 41
v 62 38 41
v 61 50 48
v 63 50 48
v 61 50 47
v 63 50 47
v 61 51 -39
v 63 51 -39
v 61 51 -43
v 63 51 -43
v 61 55 50
v 63 55 50
v 61 55 48
v 63 55 48
v 61 57 47
v 63 57 47
v 61 57 35
v 63 57 35
v -63 5 61
v 61 5 61
v -54 5 -34
v -50 5 -34
v -54 5 -36
v -50 5 -36
v -61 5 -38
v -54 5 -38
v -61 5 -39
v -54 5 -39
v -63 5 -40
v -62 5 -40
v -63 5 -43
v -62 5 -43
v -60 5 -43
v -45 5 -43
v -63 5 -45
v -60 5 -45
v -43 5 -52
v -41 5 -52
v -46 5 -53
v -45 5 -53
v -43 5 -53
v -41 5 -53
v -35 5 -53
v -31 5 -53
v -41 5 -55
v -40 5 -55
v -41 5 -56
v -40 5 -56
v -46 5 -57
v -39 5 -57
v -35 5 -57
v -31 5 -57
v -63 5 -62
v -59 5 -62
v -63 5 -63
v -59 5 -63
v -39 5 -63
v 61 5 -63
v 62 7 25
v 63 7 25
v 62 7 22
v 63 7 22
v 61 9 11
v 63 9 11
v 61 9 -3
v 63 9 -3
v 61 11 19
v 63 11 19
v 61 11 11
v 63 11 11
v 58 12 62
v 59 12 62
v 58 12 61
v 59 12 61
v 61 15 -10
v 63 15 -10
v 61 15 -49
v 63 15 -49
v 61 18 41
v 63 18 41
v 61 18 24
v 63 18 24
v 61 23 20
v 63 23 20
v 61 23 12
v 63 23 12
v 61 25 22
v 63 25 22
v 61 25 21
v 63 25 21
v 61 26 24
v 63 26 24
v 61 26 22
v 63 26 22
v 61 32 45
v 62 32 45
v 63 32 45
v 61 32 41
v 62 32 41
v 63 32 41
v 61 33 21
v 63 33 21
v 61 33 -10
v 63 33 -10
v 62 34 47
v 63 34 47
v 62 34 45
v 63 34 45
v 62 34 41
v 63 34 41
v 62 34 39
v 63 34 39
v 62 34 38
v 63 34 38
v 61 37 47
v 62 37 47
v 61 37 45
v 62 37 45
v 61 43 48
v 63 43 48
v 61 43 47
v 63 43 47
v 61 45 -39
v 63 45 -39
v 61 45 -43
v 63 45 -43
v 61 47 42
v 62 47 42
v 61 47 38
v 62 47 38
v 61 51 50
v 63 51 50
v 61 51 48
v 63 51 48
v 61 57 -39
v 63 57 -39
v 61 57 -43
v 63 57 -43
v 61 62 56
v 63 62 56
v 61 62 35
v 63 62 35
v 61 62 -43
v 63 62 -43
v 61 62 -51
v 63 62 -51
v -63 80 63
v 63 80 63
v -63 80 61
v 61 80 61
v 61 80 56
v 63 80 56
v 61 80 -51
v 63 80 -51
v 61 80 -63
v 63 80 -63

# faces
f 6/3/1 4/3/1 3/3/1
f 6/1/1 5/1/1 4/1/1
f 7/1/1 5/1/1 6/1/1
f 8/3/1 6/3/1 3/3/1
f 8/3/1 7/3/1 6/3/1
f 9/3/1 7/3/1 8/3/1
f 10/3/1 2/3/1 1/3/1
f 11/1/1 3/1/1 2/1/1
f 11/3/1 2/3/1 10/3/1
f 12/3/1 8/3/1 3/3/1
f 12/1/1 3/1/1 11/1/1
f 13/1/1 9/1/1 8/1/1
f 13/3/1 8/3/1 12/3/1
f 14/3/1 7/3/1 9/3/1
f 14/1/1 9/1/1 13/1/1
f 15/3/1 7/3/1 14/3/1
f 16/3/1 10/3/1 1/3/1
f 16/2/1 11/2/1 10/2/1
f 17/2/1 11/2/1 16/2/1
f 18/1/1 12/1/1 11/1/1
f 18/2/1 11/2/1 17/2/1
f 19/2/1 13/2/1 12/2/1
f 19/1/1 12/1/1 18/1/1
f 20/1/1 14/1/1 13/1/1
f 20/2/1 13/2/1 19/2/1
f 21/2/1 15/2/1 14/2/1
f 21/1/1 14/1/1 20/1/1
f 22/2/1 15/2/1 21/2/1
f 23/3/1 16/3/1 1/3/1
f 23/3/1 17/3/1 16/3/1
f 24/3/1 17/3/1 23/3/1
f 27/3/1 26/3/1 25/3/1
f 28/3/1 26/3/1 27/3/1
f 31/3/1 30/3/1 29/3/1
f 32/3/1 30/3/1 31/3/1
f 33/3/1 31/3/1 29/3/1
f 34/3/1 31/3/1 33/3/1
f 35/3/1 30/3/1 32/3/1
f 36/3/1 30/3/1 35/3/1
f 37/3/1 33/3/1 29/3/1
f 38/3/1 33/3/1 37/3/1
f 39/3/1 33/3/1 38/3/1
f 41/3/1 40/3/1 39/3/1
f 41/3/1 39/3/1 38/3/1
f 42/3/1 40/3/1 41/3/1
f 43/3/1 41/3/1 38/3/1
f 44/3/1 41/3/1 43/3/1
f 45/3/1 43/3/1 38/3/1
f 46/3/1 43/3/1 45/3/1
f 47/3/1 41/3/1 44/3/1
f 48/3/1 40/3/1 42/3/1
f 49/3/1 48/3/1 47/3/1
f 49/3/1 40/3/1 48/3/1
f 50/3/1 35/3/1 32/3/1
f 51/3/1 37/3/1 29/3/1
f 53/3/1 51/3/1 29/3/1
f 53/3/1 52/3/1 51/3/1
f 54/3/1 52/3/1 53/3/1
f 55/3/1 49/3/1 47/3/1
f 55/3/1 50/3/1 49/3/1
f 55/3/1 47/3/1 44/3/1
f 56/3/1 35/3/1 50/3/1
f 56/3/1 50/3/1 55/3/1
f 58/3/1 30/3/1 36/3/1
f 59/3/1 53/3/1 29/3/1
f 60/3/1 53/3/1 59/3/1
f 62/3/1 52/3/1 54/3/1
f 63/3/1 59/3/1 29/3/1
f 64/3/1 59/3/1 63/3/1
f 65/3/1 58/3/1 57/3/1
f 66/3/1 58/3/1 65/3/1
f 67/3/1 62/3/1 61/3/1
f 68/3/1 52/3/1 62/3/1
f 68/3/1 62/3/1 67/3/1
f 69/3/1 63/3/1 29/3/1
f 71/3/1 69/3/1 29/3/1
f 71/3/1 70/3/1 69/3/1
f 72/3/1 70/3/1 71/3/1
f 74/3/1 58/3/1 66/3/1
f 75/3/1 71/3/1 29/3/1
f 76/3/1 70/3/1 72/3/1
f 77/3/1 70/3/1 76/3/1
f 77/3/1 76/3/1 75/3/1
f 79/3/1 74/3/1 73/3/1
f 80/3/1 58/3/1 74/3/1
f 80/3/1 74/3/1 79/3/1
f 81/3/1 78/3/1 77/3/1
f 81/3/1 75/3/1 29/3/1
f 81/3/1 77/3/1 75/3/1
f 82/3/1 78/3/1 81/3/1
f 83/3/1 58/3/1 80/3/1
f 84/3/1 30/3/1 58/3/1
f 84/3/1 58/3/1 83/3/1
f 85/3/1 81/3/1 29/3/1
f 86/3/1 81/3/1 85/3/1
f 87/3/1 30/3/1 84/3/1
f 88/3/1 30/3/1 87/3/1
f 89/3/2 90/3/2 91/3/2
f 91/3/2 90/3/2 92/3/2
f 93/3/2 94/3/2 95/3/2
f 95/3/2 94/3/2 96/3/2
f 97/3/2 98/3/2 102/3/2
f 102/3/2 98/3/2 103/3/2
f 100/3/2 101/3/2 105/3/2
f 99/3/2 100/3/2 105/3/2
f 104/3/2 105/3/2 106/3/2
f 105/3/2 101/3/2 107/3/2
f 106/3/2 105/3/2 107/3/2
f 108/3/2 109/3/2 110/3/2
f 110/3/2 109/3/2 111/3/2
f 108/3/2 110/3/2 112/3/2
f 112/3/2 110/3/2 113/3/2
f 108/3/2 112/3/2 114/3/2
f 112/4/2 113/4/2 114/4/2
f 113/3/2 110/3/2 115/3/2
f 114/4/2 113/4/2 115/4/2
f 111/3/2 109/3/2 116/3/2
f 116/3/2 109/3/2 117/3/2
f 115/3/2 110/3/2 118/3/2
f 114/3/2 115/3/2 118/3/2
f 111/3/2 116/3/2 119/3/2
f 119/3/2 116/3/2 120/3/2
f 120/3/2 116/3/2 121/3/2
f 108/3/2 114/3/2 122/3/2
f 114/3/2 118/3/2 122/3/2
f 119/3/2 120/3/2 122/3/2
f 118/3/2 119/3/2 122/3/2
f 122/3/2 120/3/2 123/3/2
f 108/3/2 122/3/2 124/3/2
f 122/4/2 123/4/2 125/4/2
f 124/3/2 122/3/2 125/3/2
f 117/3/2 109/3/2 126/3/2
f 126/3/2 109/3/2 127/3/2
f 123/3/2 120/3/2 128/3/2
f 128/3/2 120/3/2 129/3/2
f 129/3/2 120/3/2 130/3/2
f 130/3/2 131/3/2 132/3/2
f 129/3/2 130/3/2 132/3/2
f 132/3/2 131/3/2 133/3/2
f 129/3/2 132/3/2 134/3/2
f 134/3/2 132/3/2 135/3/2
f 125/4/2 123/4/2 136/4/2
f 124/4/2 125/4/2 136/4/2
f 123/3/2 128/3/2 136/3/2
f 136/3/2 128/3/2 137/3/2
f 129/3/2 134/3/2 138/3/2
f 138/3/2 134/3/2 139/3/2
f 135/3/2 132/3/2 140/3/2
f 133/3/2 131/3/2 141/3/2
f 140/3/2 141/3/2 142/3/2
f 141/3/2 131/3/2 142/3/2
f 117/3/2 126/3/2 143/3/2
f 136/4/2 137/4/2 144/4/2
f 136/4/2 144/4/2 147/4/2
f 144/4/2 145/4/2 147/4/2
f 147/4/2 145/4/2 148/4/2
f 142/3/2 143/3/2 149/3/2
f 140/3/2 142/3/2 149/3/2
f 135/3/2 140/3/2 149/3/2
f 143/3/2 126/3/2 150/3/2
f 149/3/2 143/3/2 150/3/2
f 136/4/2 147/4/2 151/4/2
f 151/4/2 147/4/2 152/4/2
f 148/4/2 145/4/2 153/4/2
f 145/3/2 146/3/2 154/3/2
f 153/4/2 145/4/2 154/4/2
f 154/3/2 146/3/2 155/3/2
f 127/3/2 109/3/2 157/3/2
f 136/4/2 151/4/2 158/4/2
f 124/4/2 136/4/2 158/4/2
f 158/4/2 151/4/2 159/4/2
f 124/4/2 158/4/2 160/4/2
f 160/4/2 158/4/2 161/4/2
f 158/3/2 159/3/2 162/3/2
f 162/3/2 159/3/2 163/3/2
f 156/3/2 157/3/2 164/3/2
f 164/3/2 157/3/2 165/3/2
f 160/3/2 161/3/2 166/3/2
f 124/4/2 160/4/2 166/4/2
f 161/4/2 158/4/2 167/4/2
f 166/3/2 161/3/2 167/3/2
f 158/3/2 162/3/2 168/3/2
f 167/4/2 158/4/2 168/4/2
f 167/3/2 168/3/2 169/3/2
f 168/3/2 162/3/2 169/3/2
f 167/3/2 169/3/2 171/3/2
f 169/3/2 170/3/2 171/3/2
f 171/3/2 170/3/2 172/3/2
f 165/3/2 157/3/2 174/3/2
f 166/4/2 167/4/2 175/4/2
f 167/3/2 171/3/2 176/3/2
f 175/4/2 167/4/2 176/4/2
f 124/4/2 166/4/2 177/4/2
f 166/4/2 175/4/2 177/4/2
f 177/4/2 175/4/2 178/4/2
f 176/3/2 171/3/2 179/3/2
f 175/3/2 176/3/2 179/3/2
f 172/3/2 170/3/2 180/3/2
f 124/4/2 177/4/2 181/4/2
f 177/3/2 178/3/2 182/3/2
f 181/4/2 177/4/2 182/4/2
f 179/3/2 180/3/2 183/3/2
f 180/3/2 170/3/2 183/3/2
f 173/3/2 174/3/2 185/3/2
f 174/3/2 157/3/2 186/3/2
f 185/3/2 174/3/2 186/3/2
f 178/4/2 175/4/2 187/4/2
f 182/3/2 178/3/2 187/3/2
f 181/3/2 182/3/2 187/3/2
f 183/3/2 184/3/2 188/3/2
f 187/4/2 175/4/2 188/4/2
f 175/3/2 179/3/2 188/3/2
f 179/3/2 183/3/2 188/3/2
f 187/3/2 188/3/2 189/3/2
f 188/3/2 184/3/2 190/3/2
f 189/3/2 188/3/2 190/3/2
f 186/3/2 157/3/2 191/3/2
f 157/3/2 109/3/2 192/3/2
f 191/3/2 157/3/2 192/3/2
f 181/3/2 187/3/2 193/3/2
f 187/3/2 189/3/2 193/3/2
f 193/3/2 189/3/2 194/3/2
f 192/3/2 109/3/2 195/3/2
f 195/3/2 109/3/2 196/3/2
f 199/3/3 198/3/3 197/3/3
f 200/3/3 198/3/3 199/3/3
f 201/3/3 199/3/3 197/3/3
f 202/3/3 199/3/3 201/3/3
f 203/4/3 200/4/3 199/4/3
f 203/3/3 199/3/3 202/3/3
f 204/3/3 198/3/3 200/3/3
f 204/4/3 200/4/3 203/4/3
f 205/4/3 202/4/3 201/4/3
f 205/3/3 201/3/3 197/3/3
f 206/3/3 203/3/3 202/3/3
f 206/4/3 202/4/3 205/4/3
f 206/3/3 204/3/3 203/3/3
f 207/3/3 206/3/3 205/3/3
f 207/3/3 204/3/3 206/3/3
f 208/3/3 204/3/3 207/3/3
f 209/3/3 204/3/3 208/3/3
f 210/3/3 204/3/3 209/3/3
f 211/3/3 207/3/3 205/3/3
f 211/4/3 208/4/3 207/4/3
f 212/3/3 209/3/3 208/3/3
f 212/4/3 208/4/3 211/4/3
f 213/3/3 209/3/3 212/3/3
f 214/3/3 209/3/3 213/3/3
f 215/4/3 210/4/3 209/4/3
f 215/3/3 209/3/3 214/3/3
f 216/3/3 204/3/3 210/3/3
f 216/4/3 210/4/3 215/4/3
f 217/3/3 211/3/3 205/3/3
f 217/3/3 212/3/3 211/3/3
f 217/3/3 213/3/3 212/3/3
f 218/4/3 214/4/3 213/4/3
f 218/3/3 213/3/3 217/3/3
f 219/4/3 214/4/3 218/4/3
f 220/3/3 215/3/3 214/3/3
f 220/4/3 214/4/3 219/4/3
f 220/3/3 216/3/3 215/3/3
f 221/3/3 220/3/3 219/3/3
f 222/3/3 220/3/3 221/3/3
f 223/4/3 219/4/3 218/4/3
f 223/4/3 218/4/3 217/4/3
f 223/3/3 221/3/3 219/3/3
f 224/4/3 222/4/3 221/4/3
f 224/3/3 221/3/3 223/3/3
f 225/3/3 220/3/3 222/3/3
f 225/4/3 222/4/3 224/4/3
f 226/3/3 220/3/3 225/3/3
f 227/4/3 224/4/3 223/4/3
f 227/3/3 220/3/3 226/3/3
f 227/4/3 226/4/3 225/4/3
f 227/4/3 225/4/3 224/4/3
f 228/3/3 216/3/3 220/3/3
f 228/3/3 220/3/3 227/3/3
f 229/4/3 227/4/3 223/4/3
f 229/3/3 217/3/3 205/3/3
f 229/4/3 228/4/3 227/4/3
f 229/4/3 223/4/3 217/4/3
f 230/4/3 228/4/3 229/4/3
f 231/3/3 205/3/3 197/3/3
f 231/3/3 229/3/3 205/3/3
f 231/3/3 230/3/3 229/3/3
f 232/4/3 228/4/3 230/4/3
f 232/3/3 230/3/3 231/3/3
f 233/3/3 216/3/3 228/3/3
f 233/3/3 204/3/3 216/3/3
f 234/3/3 204/3/3 233/3/3
f 235/4/3 228/4/3 232/4/3
f 235/4/3 232/4/3 231/4/3
f 235/3/3 233/3/3 228/3/3
f 236/3/3 233/3/3 235/3/3
f 237/4/3 234/4/3 233/4/3
f 237/3/3 233/3/3 236/3/3
f 238/3/3 204/3/3 234/3/3
f 238/4/3 234/4/3 237/4/3
f 239/4/3 236/4/3 235/4/3
f 239/4/3 235/4/3 231/4/3
f 240/4/3 236/4/3 239/4/3
f 241/3/3 237/3/3 236/3/3
f 241/4/3 236/4/3 240/4/3
f 241/3/3 238/3/3 237/3/3
f 242/3/3 238/3/3 241/3/3
f 243/3/3 240/3/3 239/3/3
f 244/4/3 241/4/3 240/4/3
f 244/3/3 240/3/3 243/3/3
f 244/4/3 242/4/3 241/4/3
f 245/3/3 231/3/3 197/3/3
f 245/4/3 239/4/3 231/4/3
f 246/3/3 243/3/3 239/3/3
f 246/4/3 239/4/3 245/4/3
f 247/3/3 245/3/3 197/3/3
f 247/3/3 246/3/3 245/3/3
f 248/4/3 244/4/3 243/4/3
f 248/3/3 246/3/3 247/3/3
f 248/3/3 243/3/3 246/3/3
f 249/4/3 242/4/3 244/4/3
f 249/4/3 244/4/3 248/4/3
f 250/3/3 238/3/3 242/3/3
f 250/4/3 242/4/3 249/4/3
f 251/4/3 248/4/3 247/4/3
f 251/4/3 249/4/3 248/4/3
f 251/3/3 247/3/3 197/3/3
f 252/4/3 249/4/3 251/4/3
f 253/3/3 238/3/3 250/3/3
f 253/3/3 250/3/3 249/3/3
f 253/3/3 204/3/3 238/3/3
f 254/3/3 204/3/3 253/3/3
f 255/4/3 249/4/3 252/4/3
f 256/3/3 253/3/3 249/3/3
f 256/4/3 249/4/3 255/4/3
f 257/4/3 254/4/3 253/4/3
f 257/3/3 253/3/3 256/3/3
f 258/3/3 204/3/3 254/3/3
f 258/4/3 254/4/3 257/4/3
f 259/3/3 252/3/3 251/3/3
f 259/3/3 251/3/3 197/3/3
f 260/4/3 255/4/3 252/4/3
f 260/3/3 252/3/3 259/3/3
f 261/3/3 257/3/3 256/3/3
f 261/3/3 258/3/3 257/3/3
f 261/3/3 256/3/3 255/3/3
f 262/3/3 258/3/3 261/3/3
f 263/4/3 255/4/3 260/4/3
f 263/4/3 260/4/3 259/4/3
f 264/4/3 255/4/3 263/4/3
f 265/3/3 259/3/3 197/3/3
f 265/4/3 263/4/3 259/4/3
f 266/4/3 263/4/3 265/4/3
f 267/3/3 264/3/3 263/3/3
f 267/4/3 263/4/3 266/4/3
f 268/4/3 255/4/3 264/4/3
f 268/3/3 264/3/3 267/3/3
f 269/4/3 262/4/3 261/4/3
f 269/3/3 261/3/3 255/3/3
f 270/3/3 258/3/3 262/3/3
f 270/4/3 262/4/3 269/4/3
f 271/4/3 267/4/3 266/4/3
f 271/4/3 268/4/3 267/4/3
f 271/3/3 266/3/3 265/3/3
f 272/4/3 255/4/3 268/4/3
f 272/4/3 268/4/3 271/4/3
f 273/3/3 272/3/3 271/3/3
f 274/4/3 255/4/3 272/4/3
f 274/3/3 272/3/3 273/3/3
f 275/3/3 271/3/3 265/3/3
f 275/3/3 265/3/3 197/3/3
f 275/3/3 273/3/3 271/3/3
f 276/4/3 274/4/3 273/4/3
f 276/3/3 273/3/3 275/3/3
f 277/3/3 269/3/3 255/3/3
f 277/4/3 274/4/3 276/4/3
f 277/4/3 255/4/3 274/4/3
f 277/3/3 270/3/3 269/3/3
f 278/3/3 198/3/3 204/3/3
f 278/3/3 270/3/3 277/3/3
f 278/3/3 204/3/3 258/3/3
f 278/3/3 258/3/3 270/3/3
f 281/3/3 280/3/3 279/3/3
f 282/3/3 280/3/3 281/3/3
f 285/3/3 284/3/3 283/3/3
f 286/3/3 284/3/3 285/3/3
f 289/3/3 288/3/3 287/3/3
f 290/3/3 288/3/3 289/3/3
f 291/3/3 288/3/3 290/3/3
f 292/4/3 290/4/3 289/4/3
f 293/4/3 290/4/3 292/4/3
f 296/3/3 295/3/3 294/3/3
f 297/3/3 295/3/3 296/3/3
f 300/3/3 299/3/3 298/3/3
f 301/3/3 299/3/3 300/3/3
f 304/3/3 303/3/3 302/3/3
f 305/3/3 303/3/3 304/3/3
f 308/3/3 307/3/3 306/3/3
f 309/3/3 307/3/3 308/3/3
f 312/3/3 311/3/3 310/3/3
f 313/3/3 311/3/3 312/3/3
f 318/3/3 315/3/3 314/3/3
f 319/3/3 315/3/3 318/3/3
f 320/3/3 317/3/3 316/3/3
f 321/3/3 317/3/3 320/3/3
f 326/3/3 323/3/3 322/3/3
f 327/3/3 323/3/3 326/3/3
f 328/3/3 325/3/3 324/3/3
f 329/3/3 325/3/3 328/3/3
f 332/3/3 331/3/3 330/3/3
f 333/3/3 331/3/3 332/3/3
f 336/3/3 335/3/3 334/3/3
f 337/3/3 335/3/3 336/3/3
f 338/3/4 339/3/4 340/3/4
f 340/3/4 339/3/4 341/3/4
f 342/3/4 343/3/4 344/3/4
f 344/3/4 343/3/4 345/3/4
f 342/3/4 344/3/4 346/3/4
f 345/3/4 343/3/4 347/3/4
f 342/3/4 346/3/4 348/3/4
f 346/3/4 347/3/4 348/3/4
f 347/3/4 343/3/4 349/3/4
f 348/3/4 347/3/4 349/3/4
f 350/3/4 351/3/4 352/3/4
f 352/3/4 351/3/4 353/3/4
f 354/3/4 355/3/4 356/3/4
f 356/3/4 355/3/4 357/3/4
f 358/3/4 359/3/4 360/3/4
f 360/3/4 359/3/4 361/3/4
f 362/3/4 363/3/4 367/3/4
f 367/3/4 363/3/4 368/3/4
f 366/4/4 367/4/4 369/4/4
f 367/4/4 368/4/4 369/4/4
f 368/3/4 363/3/4 370/3/4
f 369/4/4 368/4/4 370/4/4
f 370/3/4 363/3/4 371/3/4
f 364/3/4 365/3/4 372/3/4
f 372/3/4 365/3/4 373/3/4
f 374/3/4 375/3/4 376/3/4
f 376/3/4 375/3/4 377/3/4
f 377/3/4 375/3/4 378/3/4
f 376/4/4 377/4/4 379/4/4
f 379/4/4 377/4/4 380/4/4
f 381/3/4 382/3/4 383/3/4
f 383/3/4 382/3/4 384/3/4
f 381/3/4 383/3/4 385/3/4
f 383/4/4 384/4/4 386/4/4
f 385/3/4 383/3/4 386/3/4
f 386/4/4 384/4/4 387/4/4
f 388/3/4 389/3/4 390/3/4
f 390/3/4 389/3/4 391/3/4
f 388/3/4 390/3/4 392/3/4
f 392/3/4 390/3/4 393/3/4
f 394/3/4 395/3/4 396/3/4
f 396/3/4 395/3/4 397/3/4
f 398/3/4 399/3/4 400/3/4
f 400/3/4 399/3/4 401/3/4
f 402/3/4 403/3/4 404/3/4
f 404/3/4 403/3/4 405/3/4
f 406/3/4 407/3/4 408/3/4
f 408/3/4 407/3/4 409/3/4
f 410/3/4 411/3/4 412/3/4
f 412/3/4 411/3/4 413/3/4
f 414/3/4 415/3/4 418/3/4
f 418/3/4 415/3/4 419/3/4
f 416/3/4 417/3/4 420/3/4
f 420/3/4 417/3/4 421/3/4
f 422/3/4 423/3/4 424/3/4
f 424/3/4 423/3/4 425/3/4
f 427/3/4 428/3/4 430/3/4
f 428/2/4 429/2/4 431/2/4
f 430/3/4 428/3/4 431/3/4
f 431/2/4 429/2/4 432/2/4
f 427/3/4 430/3/4 433/3/4
f 430/1/4 431/1/4 433/1/4
f 431/1/4 432/1/4 433/1/4
f 433/1/4 432/1/4 434/1/4
f 426/1/4 427/1/4 435/1/4
f 427/3/4 433/3/4 436/3/4
f 435/1/4 427/1/4 436/1/4
f 433/3/4 434/3/4 436/3/4
f 434/1/4 432/1/4 437/1/4
f 436/3/4 434/3/4 437/3/4
f 435/3/4 436/3/4 437/3/4
f 437/1/4 432/1/4 438/1/4
f 437/2/4 438/2/4 439/2/4
f 437/2/4 439/2/4 441/2/4
f 435/3/4 437/3/4 441/3/4
f 439/3/4 440/3/4 442/3/4
f 441/2/4 439/2/4 442/2/4
f 435/3/4 441/3/4 443/3/4
f 441/3/4 442/3/4 443/3/4
f 442/3/4 440/3/4 444/3/4
f 443/3/4 442/3/4 444/3/4
f 447/3/5 446/3/5 445/3/5
f 448/3/5 446/3/5 447/3/5
f 449/1/5 448/1/5 447/1/5
f 450/3/5 446/3/5 448/3/5
f 450/1/5 448/1/5 449/1/5
f 451/3/5 450/3/5 449/3/5
f 452/3/5 446/3/5 450/3/5
f 452/3/5 450/3/5 451/3/5
f 453/1/5 452/1/5 451/1/5
f 454/3/5 446/3/5 452/3/5
f 454/1/5 452/1/5 453/1/5
f 455/3/5 446/3/5 454/3/5
f 458/3/5 457/3/5 456/3/5
f 459/3/5 457/3/5 458/3/5
f 462/3/5 461/3/5 460/3/5
f 463/3/5 461/3/5 462/3/5
f 466/3/5 465/3/5 464/3/5
f 467/3/5 465/3/5 466/3/5
f 470/3/5 469/3/5 468/3/5
f 471/3/5 469/3/5 470/3/5
f 474/3/5 473/3/5 472/3/5
f 475/3/5 473/3/5 474/3/5
f 479/3/5 477/3/5 476/3/5
f 479/4/5 478/4/5 477/4/5
f 480/4/5 478/4/5 479/4/5
f 481/3/5 479/3/5 476/3/5
f 481/3/5 480/3/5 479/3/5
f 482/3/5 480/3/5 481/3/5
f 485/3/5 484/3/5 483/3/5
f 486/3/5 484/3/5 485/3/5
f 489/3/5 488/3/5 487/3/5
f 490/3/5 488/3/5 489/3/5
f 493/3/5 492/3/5 491/3/5
f 494/3/5 492/3/5 493/3/5
f 497/3/5 496/3/5 495/3/5
f 498/3/5 496/3/5 497/3/5
f 501/3/5 500/3/5 499/3/5
f 502/3/5 500/3/5 501/3/5
f 505/3/5 504/3/5 503/3/5
f 506/3/5 504/3/5 505/3/5
f 507/2/6 508/2/6 509/2/6
f 509/2/6 508/2/6 510/2/6
f 507/2/6 509/2/6 511/2/6
f 509/1/6 510/1/6 511/1/6
f 510/2/6 508/2/6 512/2/6
f 511/1/6 510/1/6 512/1/6
f 507/2/6 511/2/6 513/2/6
f 511/2/6 512/2/6 513/2/6
f 513/2/6 512/2/6 514/2/6
f 507/2/6 513/2/6 515/2/6
f 513/1/6 514/1/6 515/1/6
f 514/2/6 512/2/6 516/2/6
f 515/1/6 514/1/6 516/1/6
f 507/2/6 515/2/6 517/2/6
f 515/2/6 516/2/6 517/2/6
f 517/2/6 516/2/6 518/2/6
f 517/1/6 518/1/6 519/1/6
f 518/2/6 516/2/6 520/2/6
f 519/1/6 518/1/6 520/1/6
f 520/2/6 516/2/6 521/2/6
f 512/2/6 508/2/6 522/2/6
f 521/2/6 516/2/6 522/2/6
f 516/2/6 512/2/6 522/2/6
f 520/2/6 521/2/6 523/2/6
f 519/2/6 520/2/6 523/2/6
f 521/1/6 522/1/6 524/1/6
f 523/2/6 521/2/6 524/2/6
f 522/2/6 508/2/6 525/2/6
f 525/2/6 508/2/6 526/2/6
f 524/1/6 522/1/6 527/1/6
f 523/1/6 524/1/6 527/1/6
f 522/2/6 525/2/6 528/2/6
f 527/1/6 522/1/6 528/1/6
f 525/1/6 526/1/6 529/1/6
f 528/2/6 525/2/6 529/2/6
f 526/2/6 508/2/6 530/2/6
f 529/1/6 526/1/6 530/1/6
f 530/2/6 508/2/6 531/2/6
f 531/2/6 508/2/6 532/2/6
f 528/2/6 529/2/6 533/2/6
f 527/2/6 528/2/6 533/2/6
f 529/2/6 530/2/6 533/2/6
f 530/2/6 531/2/6 533/2/6
f 533/2/6 531/2/6 534/2/6
f 527/2/6 533/2/6 535/2/6
f 533/1/6 534/1/6 535/1/6
f 534/2/6 531/2/6 536/2/6
f 535/1/6 534/1/6 536/1/6
f 523/1/6 527/1/6 537/1/6
f 527/2/6 535/2/6 537/2/6
f 535/2/6 536/2/6 537/2/6
f 536/2/6 531/2/6 538/2/6
f 537/2/6 536/2/6 538/2/6
f 531/1/6 532/1/6 539/1/6
f 538/2/6 531/2/6 539/2/6
f 532/2/6 508/2/6 540/2/6
f 539/1/6 532/1/6 540/1/6
f 537/1/6 538/1/6 541/1/6
f 523/1/6 537/1/6 541/1/6
f 541/1/6 538/1/6 542/1/6
f 541/2/6 542/2/6 543/2/6
f 542/1/6 538/1/6 544/1/6
f 543/2/6 542/2/6 544/2/6
f 538/2/6 539/2/6 545/2/6
f 544/1/6 538/1/6 545/1/6
f 539/2/6 540/2/6 545/2/6
f 540/2/6 508/2/6 546/2/6
f 545/2/6 540/2/6 546/2/6
f 547/3/6 548/3/6 549/3/6
f 549/3/6 548/3/6 550/3/6
f 551/3/6 552/3/6 553/3/6
f 553/3/6 552/3/6 554/3/6
f 555/3/6 556/3/6 557/3/6
f 557/3/6 556/3/6 558/3/6
f 559/3/6 560/3/6 561/3/6
f 561/3/6 560/3/6 562/3/6
f 563/3/6 564/3/6 565/3/6
f 565/3/6 564/3/6 566/3/6
f 567/3/6 568/3/6 569/3/6
f 569/3/6 568/3/6 570/3/6
f 571/3/6 572/3/6 573/3/6
f 573/3/6 572/3/6 574/3/6
f 575/3/6 576/3/6 577/3/6
f 577/3/6 576/3/6 578/3/6
f 579/3/6 580/3/6 581/3/6
f 581/3/6 580/3/6 582/3/6
f 583/3/6 584/3/6 586/3/6
f 584/4/6 585/4/6 587/4/6
f 586/3/6 584/3/6 587/3/6
f 587/4/6 585/4/6 588/4/6
f 589/3/6 590/3/6 591/3/6
f 591/3/6 590/3/6 592/3/6
f 593/4/6 594/4/6 595/4/6
f 595/4/6 594/4/6 596/4/6
f 597/4/6 598/4/6 599/4/6
f 599/4/6 598/4/6 600/4/6
f 599/3/6 600/3/6 601/3/6
f 601/3/6 600/3/6 602/3/6
f 603/3/6 604/3/6 605/3/6
f 605/3/6 604/3/6 606/3/6
f 607/3/6 608/3/6 609/3/6
f 609/3/6 608/3/6 610/3/6
f 611/3/6 612/3/6 613/3/6
f 613/3/6 612/3/6 614/3/6
f 615/3/6 616/3/6 617/3/6
f 617/3/6 616/3/6 618/3/6
f 619/3/6 620/3/6 621/3/6
f 621/3/6 620/3/6 622/3/6
f 623/3/6 624/3/6 625/3/6
f 625/3/6 624/3/6 626/3/6
f 627/3/6 628/3/6 629/3/6
f 629/3/6 628/3/6 630/3/6
f 631/3/6 632/3/6 633/3/6
f 633/3/6 632/3/6 634/3/6
f 635/3/6 636/3/6 637/3/6
f 637/3/6 636/3/6 638/3/6
f 638/3/6 636/3/6 639/3/6
f 639/3/6 636/3/6 640/3/6
f 641/3/6 642/3/6 643/3/6
f 643/3/6 642/3/6 644/3/6
