# MagicaVoxel @ Ephtracy

# group
g 2x2 first (des)-3-2

# material
mtllib 2x2 first (des)-3-2.mtl
usemtl palette

# normals
vn -1 0 0
vn 1 0 0
vn 0 0 1
vn 0 0 -1
vn 0 -1 0
vn 0 1 0

# texcoords
vt 0.966797 0.5
vt 0.974609 0.5
vt 0.994141 0.5

# verts
v -63 0 63
v -63 0 -62
v -63 0 -63
v -63 1 63
v -63 1 -62
v -63 1 -63
v -63 28 63
v -63 28 -54
v -63 28 -63
v -63 29 63
v -63 29 -54
v -63 29 -63
v 63 0 63
v 63 0 -63
v 63 1 63
v 63 1 -63
v 63 28 63
v 63 28 -63
v 63 29 63
v 63 29 -63
v -63 0 63
v -63 1 63
v -63 28 63
v -63 29 63
v 54 28 63
v 54 29 63
v 57 28 63
v 57 29 63
v 60 28 63
v 60 29 63
v 62 0 63
v 62 1 63
v 63 0 63
v 63 1 63
v 63 28 63
v 63 29 63
v -63 0 -63
v -63 1 -63
v -63 28 -63
v -63 29 -63
v 63 0 -63
v 63 1 -63
v 63 28 -63
v 63 29 -63
v -63 0 63
v 62 0 63
v 63 0 63
v -63 0 -62
v 62 0 -62
v -63 0 -63
v 63 0 -63
v -63 29 63
v 54 29 63
v 57 29 63
v 60 29 63
v 63 29 63
v 57 29 58
v 60 29 58
v 57 29 55
v 60 29 55
v 57 29 30
v 60 29 30
v 57 29 27
v 60 29 27
v 57 29 2
v 60 29 2
v 57 29 -1
v 60 29 -1
v 57 29 -26
v 60 29 -26
v 57 29 -29
v 60 29 -29
v -63 29 -54
v 54 29 -54
v 57 29 -54
v 60 29 -54
v -62 29 -57
v -58 29 -57
v -55 29 -57
v -30 29 -57
v -27 29 -57
v -2 29 -57
v 1 29 -57
v 26 29 -57
v 29 29 -57
v 54 29 -57
v 57 29 -57
v 60 29 -57
v -62 29 -60
v -58 29 -60
v -55 29 -60
v -30 29 -60
v -27 29 -60
v -2 29 -60
v 1 29 -60
v 26 29 -60
v 29 29 -60
v 54 29 -60
v 57 29 -60
v 60 29 -60
v -63 29 -63
v 63 29 -63

# faces
f 4/1/1 2/1/1 1/1/1
f 5/3/1 3/3/1 2/3/1
f 5/1/1 2/1/1 4/1/1
f 6/3/1 3/3/1 5/3/1
f 7/2/1 5/2/1 4/2/1
f 7/2/1 6/2/1 5/2/1
f 8/2/1 6/2/1 7/2/1
f 9/2/1 6/2/1 8/2/1
f 10/1/1 8/1/1 7/1/1
f 11/3/1 9/3/1 8/3/1
f 11/1/1 8/1/1 10/1/1
f 12/3/1 9/3/1 11/3/1
f 13/3/2 14/3/2 15/3/2
f 15/3/2 14/3/2 16/3/2
f 15/2/2 16/2/2 17/2/2
f 17/2/2 16/2/2 18/2/2
f 17/3/2 18/3/2 19/3/2
f 19/3/2 18/3/2 20/3/2
f 25/2/3 23/2/3 22/2/3
f 25/1/3 24/1/3 23/1/3
f 26/1/3 24/1/3 25/1/3
f 27/2/3 25/2/3 22/2/3
f 27/3/3 26/3/3 25/3/3
f 28/3/3 26/3/3 27/3/3
f 29/2/3 27/2/3 22/2/3
f 29/1/3 28/1/3 27/1/3
f 30/1/3 28/1/3 29/1/3
f 31/1/3 22/1/3 21/1/3
f 32/2/3 29/2/3 22/2/3
f 32/1/3 22/1/3 31/1/3
f 33/3/3 32/3/3 31/3/3
f 34/2/3 29/2/3 32/2/3
f 34/3/3 32/3/3 33/3/3
f 35/3/3 30/3/3 29/3/3
f 35/2/3 29/2/3 34/2/3
f 36/3/3 30/3/3 35/3/3
f 37/3/4 38/3/4 41/3/4
f 38/2/4 39/2/4 42/2/4
f 41/3/4 38/3/4 42/3/4
f 39/3/4 40/3/4 43/3/4
f 42/2/4 39/2/4 43/2/4
f 43/3/4 40/3/4 44/3/4
f 48/1/5 46/1/5 45/1/5
f 49/3/5 47/3/5 46/3/5
f 49/1/5 46/1/5 48/1/5
f 50/3/5 49/3/5 48/3/5
f 51/3/5 47/3/5 49/3/5
f 51/3/5 49/3/5 50/3/5
f 53/3/6 54/3/6 57/3/6
f 54/1/6 55/1/6 57/1/6
f 55/3/6 56/3/6 58/3/6
f 57/1/6 55/1/6 58/1/6
f 53/3/6 57/3/6 59/3/6
f 57/3/6 58/3/6 59/3/6
f 58/3/6 56/3/6 60/3/6
f 59/3/6 58/3/6 60/3/6
f 53/3/6 59/3/6 61/3/6
f 59/1/6 60/1/6 61/1/6
f 60/3/6 56/3/6 62/3/6
f 61/1/6 60/1/6 62/1/6
f 53/3/6 61/3/6 63/3/6
f 61/3/6 62/3/6 63/3/6
f 62/3/6 56/3/6 64/3/6
f 63/3/6 62/3/6 64/3/6
f 53/3/6 63/3/6 65/3/6
f 63/1/6 64/1/6 65/1/6
f 64/3/6 56/3/6 66/3/6
f 65/1/6 64/1/6 66/1/6
f 53/3/6 65/3/6 67/3/6
f 65/3/6 66/3/6 67/3/6
f 66/3/6 56/3/6 68/3/6
f 67/3/6 66/3/6 68/3/6
f 53/3/6 67/3/6 69/3/6
f 67/1/6 68/1/6 69/1/6
f 68/3/6 56/3/6 70/3/6
f 69/1/6 68/1/6 70/1/6
f 53/3/6 69/3/6 71/3/6
f 69/3/6 70/3/6 71/3/6
f 70/3/6 56/3/6 72/3/6
f 71/3/6 70/3/6 72/3/6
f 52/1/6 53/1/6 73/1/6
f 53/3/6 71/3/6 74/3/6
f 73/1/6 53/1/6 74/1/6
f 71/1/6 72/1/6 75/1/6
f 74/3/6 71/3/6 75/3/6
f 72/3/6 56/3/6 76/3/6
f 75/1/6 72/1/6 76/1/6
f 74/3/6 75/3/6 77/3/6
f 73/3/6 74/3/6 77/3/6
f 75/3/6 76/3/6 77/3/6
f 77/3/6 76/3/6 78/3/6
f 78/3/6 76/3/6 79/3/6
f 79/3/6 76/3/6 80/3/6
f 80/3/6 76/3/6 81/3/6
f 81/3/6 76/3/6 82/3/6
f 82/3/6 76/3/6 83/3/6
f 83/3/6 76/3/6 84/3/6
f 84/3/6 76/3/6 85/3/6
f 85/3/6 76/3/6 86/3/6
f 86/3/6 76/3/6 87/3/6
f 76/3/6 56/3/6 88/3/6
f 87/3/6 76/3/6 88/3/6
f 73/3/6 77/3/6 89/3/6
f 77/1/6 78/1/6 89/1/6
f 78/3/6 79/3/6 90/3/6
f 89/1/6 78/1/6 90/1/6
f 79/1/6 80/1/6 91/1/6
f 90/3/6 79/3/6 91/3/6
f 80/3/6 81/3/6 92/3/6
f 91/1/6 80/1/6 92/1/6
f 81/1/6 82/1/6 93/1/6
f 92/3/6 81/3/6 93/3/6
f 82/3/6 83/3/6 94/3/6
f 93/1/6 82/1/6 94/1/6
f 83/1/6 84/1/6 95/1/6
f 94/3/6 83/3/6 95/3/6
f 84/3/6 85/3/6 96/3/6
f 95/1/6 84/1/6 96/1/6
f 85/1/6 86/1/6 97/1/6
f 96/3/6 85/3/6 97/3/6
f 86/3/6 87/3/6 98/3/6
f 97/1/6 86/1/6 98/1/6
f 87/1/6 88/1/6 99/1/6
f 98/3/6 87/3/6 99/3/6
f 88/3/6 56/3/6 100/3/6
f 99/1/6 88/1/6 100/1/6
f 96/3/6 97/3/6 101/3/6
f 98/3/6 99/3/6 101/3/6
f 99/3/6 100/3/6 101/3/6
f 95/3/6 96/3/6 101/3/6
f 94/3/6 95/3/6 101/3/6
f 93/3/6 94/3/6 101/3/6
f 92/3/6 93/3/6 101/3/6
f 91/3/6 92/3/6 101/3/6
f 90/3/6 91/3/6 101/3/6
f 89/3/6 90/3/6 101/3/6
f 73/3/6 89/3/6 101/3/6
f 97/3/6 98/3/6 101/3/6
f 100/3/6 56/3/6 102/3/6
f 101/3/6 100/3/6 102/3/6
