# MagicaVoxel @ Ephtracy

# group
g 2x2first (2)-3

# material
mtllib 2x2first (2)-3.mtl
usemtl palette

# normals
vn -1 0 0
vn 1 0 0
vn 0 0 1
vn 0 0 -1
vn 0 -1 0
vn 0 1 0

# texcoords
vt 0.396484 0.5
vt 0.560547 0.5
vt 0.974609 0.5
vt 0.978516 0.5
vt 0.982422 0.5
vt 0.986328 0.5

# verts
v -63 0 63
v -63 0 -63
v -63 5 63
v -63 5 62
v -63 5 53
v -63 5 52
v -63 5 43
v -63 5 42
v -63 5 33
v -63 5 32
v -63 5 23
v -63 5 22
v -63 5 13
v -63 5 12
v -63 5 3
v -63 5 2
v -63 5 -7
v -63 5 -8
v -63 5 -17
v -63 5 -18
v -63 5 -27
v -63 5 -28
v -63 5 -37
v -63 5 -38
v -63 5 -47
v -63 5 -48
v -63 5 -57
v -63 5 -58
v -63 5 -61
v -63 5 -63
v -63 6 63
v -63 6 62
v -63 6 53
v -63 6 52
v -63 6 43
v -63 6 42
v -63 6 33
v -63 6 32
v -63 6 23
v -63 6 22
v -63 6 13
v -63 6 12
v -63 6 11
v -63 6 10
v -63 6 3
v -63 6 2
v -63 6 -7
v -63 6 -8
v -63 6 -17
v -63 6 -18
v -63 6 -27
v -63 6 -28
v -63 6 -37
v -63 6 -38
v -63 6 -47
v -63 6 -48
v -63 6 -57
v -63 6 -58
v -63 6 -61
v -63 80 11
v -63 80 10
v -63 80 -61
v -63 80 -63
v -25 6 11
v -25 6 10
v -25 45 11
v -25 45 10
v -20 6 63
v -20 6 62
v -20 6 53
v -20 6 52
v -20 6 43
v -20 6 42
v -20 6 33
v -20 6 32
v -20 6 23
v -20 6 22
v -20 6 13
v -20 6 12
v -20 6 11
v -20 6 10
v -20 6 3
v -20 6 2
v -20 6 -7
v -20 6 -8
v -20 6 -17
v -20 6 -18
v -20 6 -27
v -20 6 -28
v -20 6 -37
v -20 6 -38
v -20 6 -47
v -20 6 -48
v -20 6 -57
v -20 6 -58
v -20 6 -61
v -20 80 63
v -20 80 11
v -20 80 10
v -20 80 -61
v 22 26 47
v 22 26 -48
v 22 32 -37
v 22 32 -48
v 22 39 -27
v 22 39 -37
v 22 46 -16
v 22 46 -27
v 22 53 -6
v 22 53 -16
v 22 60 5
v 22 60 -6
v 22 67 15
v 22 67 5
v 22 74 26
v 22 74 15
v 22 80 47
v 22 80 26
v 61 5 -58
v 61 5 -61
v 61 6 63
v 61 6 62
v 61 6 53
v 61 6 52
v 61 6 43
v 61 6 42
v 61 6 33
v 61 6 32
v 61 6 23
v 61 6 22
v 61 6 13
v 61 6 12
v 61 6 3
v 61 6 2
v 61 6 -7
v 61 6 -8
v 61 6 -17
v 61 6 -18
v 61 6 -27
v 61 6 -28
v 61 6 -37
v 61 6 -38
v 61 6 -47
v 61 6 -48
v 61 6 -57
v 61 6 -58
v 61 25 -27
v 61 25 -48
v 61 32 -16
v 61 32 -27
v 61 32 -37
v 61 32 -48
v 61 39 -6
v 61 39 -16
v 61 39 -27
v 61 39 -37
v 61 46 5
v 61 46 -6
v 61 46 -16
v 61 46 -27
v 61 53 15
v 61 53 5
v 61 53 -6
v 61 53 -16
v 61 60 26
v 61 60 15
v 61 60 5
v 61 60 -6
v 61 67 36
v 61 67 26
v 61 67 15
v 61 67 5
v 61 74 47
v 61 74 36
v 61 74 26
v 61 74 15
v 61 80 63
v 61 80 47
v 61 80 26
v 61 80 -61
v -55 6 11
v -55 6 10
v -55 45 11
v -55 45 10
v -19 26 63
v -19 26 -61
v -19 80 63
v -19 80 -61
v 60 5 -58
v 60 5 -61
v 60 6 63
v 60 6 62
v 60 6 53
v 60 6 52
v 60 6 43
v 60 6 42
v 60 6 33
v 60 6 32
v 60 6 23
v 60 6 22
v 60 6 13
v 60 6 12
v 60 6 3
v 60 6 2
v 60 6 -7
v 60 6 -8
v 60 6 -17
v 60 6 -18
v 60 6 -27
v 60 6 -28
v 60 6 -32
v 60 6 -37
v 60 6 -38
v 60 6 -47
v 60 6 -48
v 60 6 -57
v 60 6 -58
v 60 25 63
v 60 25 47
v 60 25 -27
v 60 25 -32
v 60 25 -48
v 60 26 63
v 60 26 47
v 60 26 -48
v 60 26 -61
v 60 32 -16
v 60 32 -27
v 60 39 -6
v 60 39 -16
v 60 46 5
v 60 46 -6
v 60 53 15
v 60 53 5
v 60 60 26
v 60 60 15
v 60 67 36
v 60 67 26
v 60 74 47
v 60 74 36
v 63 0 63
v 63 0 -63
v 63 5 63
v 63 5 -63
v 63 80 63
v 63 80 -63
v -63 0 63
v -63 5 63
v -63 6 63
v -20 6 63
v -20 80 63
v -19 1 63
v -19 5 63
v -19 6 63
v -19 26 63
v -19 80 63
v 22 1 63
v 22 5 63
v 22 6 63
v 22 25 63
v 60 6 63
v 60 25 63
v 60 26 63
v 61 5 63
v 61 6 63
v 61 80 63
v 63 0 63
v 63 5 63
v 63 80 63
v 22 26 47
v 22 80 47
v 60 26 47
v 60 74 47
v 61 74 47
v 61 80 47
v 60 67 36
v 60 74 36
v 61 67 36
v 61 74 36
v 60 60 26
v 60 67 26
v 61 60 26
v 61 67 26
v 60 53 15
v 60 60 15
v 61 53 15
v 61 60 15
v -63 6 11
v -63 80 11
v -55 6 11
v -55 45 11
v -25 6 11
v -25 45 11
v -20 6 11
v -20 80 11
v 60 46 5
v 60 53 5
v 61 46 5
v 61 53 5
v 60 39 -6
v 60 46 -6
v 61 39 -6
v 61 46 -6
v 60 32 -16
v 60 39 -16
v 61 32 -16
v 61 39 -16
v 60 25 -27
v 60 32 -27
v 61 25 -27
v 61 32 -27
v -63 6 -61
v -63 80 -61
v -20 6 -61
v -20 80 -61
v -19 26 -61
v -19 80 -61
v 60 5 -61
v 60 26 -61
v 61 5 -61
v 61 80 -61
v 22 74 26
v 22 80 26
v 61 74 26
v 61 80 26
v 22 67 15
v 22 74 15
v 61 67 15
v 61 74 15
v -63 6 10
v -63 80 10
v -55 6 10
v -55 45 10
v -25 6 10
v -25 45 10
v -20 6 10
v -20 80 10
v 22 60 5
v 22 67 5
v 61 60 5
v 61 67 5
v 22 53 -6
v 22 60 -6
v 61 53 -6
v 61 60 -6
v 22 46 -16
v 22 53 -16
v 61 46 -16
v 61 53 -16
v 22 39 -27
v 22 46 -27
v 61 39 -27
v 61 46 -27
v 22 32 -37
v 22 39 -37
v 61 32 -37
v 61 39 -37
v 22 26 -48
v 22 32 -48
v 60 25 -48
v 60 26 -48
v 61 25 -48
v 61 32 -48
v 60 5 -58
v 60 6 -58
v 61 5 -58
v 61 6 -58
v -63 0 -63
v -63 5 -63
v -63 80 -63
v 63 0 -63
v 63 5 -63
v 63 80 -63
v -63 0 63
v 63 0 63
v -63 0 -63
v 63 0 -63
v 60 25 -27
v 61 25 -27
v 60 25 -32
v 60 25 -48
v 61 25 -48
v 60 32 -16
v 61 32 -16
v 60 32 -27
v 61 32 -27
v 60 39 -6
v 61 39 -6
v 60 39 -16
v 61 39 -16
v -55 45 11
v -25 45 11
v -55 45 10
v -25 45 10
v 60 46 5
v 61 46 5
v 60 46 -6
v 61 46 -6
v 60 53 15
v 61 53 15
v 60 53 5
v 61 53 5
v 60 60 26
v 61 60 26
v 60 60 15
v 61 60 15
v 60 67 36
v 61 67 36
v 60 67 26
v 61 67 26
v 60 74 47
v 61 74 47
v 60 74 36
v 61 74 36
v 60 5 -58
v 61 5 -58
v 60 5 -61
v 61 5 -61
v -63 6 63
v -20 6 63
v 60 6 63
v 61 6 63
v -63 6 62
v -20 6 62
v 60 6 62
v 61 6 62
v -63 6 53
v -20 6 53
v 60 6 53
v 61 6 53
v -63 6 52
v -20 6 52
v 60 6 52
v 61 6 52
v -63 6 43
v -20 6 43
v 60 6 43
v 61 6 43
v -63 6 42
v -20 6 42
v 60 6 42
v 61 6 42
v -63 6 33
v -20 6 33
v 60 6 33
v 61 6 33
v -63 6 32
v -20 6 32
v 60 6 32
v 61 6 32
v -63 6 23
v -20 6 23
v 60 6 23
v 61 6 23
v -63 6 22
v -20 6 22
v 60 6 22
v 61 6 22
v -63 6 13
v -20 6 13
v 60 6 13
v 61 6 13
v -63 6 12
v -20 6 12
v 60 6 12
v 61 6 12
v -63 6 11
v -55 6 11
v -25 6 11
v -20 6 11
v -63 6 10
v -55 6 10
v -25 6 10
v -20 6 10
v -63 6 3
v -20 6 3
v 60 6 3
v 61 6 3
v -63 6 2
v -20 6 2
v 60 6 2
v 61 6 2
v -63 6 -7
v -20 6 -7
v 60 6 -7
v 61 6 -7
v -63 6 -8
v -20 6 -8
v 60 6 -8
v 61 6 -8
v -63 6 -17
v -20 6 -17
v 60 6 -17
v 61 6 -17
v -63 6 -18
v -20 6 -18
v 60 6 -18
v 61 6 -18
v -63 6 -27
v -20 6 -27
v 60 6 -27
v 61 6 -27
v -63 6 -28
v -20 6 -28
v 60 6 -28
v 61 6 -28
v 60 6 -32
v -63 6 -37
v -20 6 -37
v 60 6 -37
v 61 6 -37
v -63 6 -38
v -20 6 -38
v 60 6 -38
v 61 6 -38
v -63 6 -47
v -20 6 -47
v 60 6 -47
v 61 6 -47
v -63 6 -48
v -20 6 -48
v 60 6 -48
v 61 6 -48
v -63 6 -57
v -20 6 -57
v 60 6 -57
v 61 6 -57
v -63 6 -58
v -20 6 -58
v 60 6 -58
v 61 6 -58
v -63 6 -61
v -20 6 -61
v -19 26 63
v 60 26 63
v 22 26 47
v 60 26 47
v 22 26 -48
v 60 26 -48
v -19 26 -61
v 60 26 -61
v 22 32 -37
v 61 32 -37
v 22 32 -48
v 61 32 -48
v 22 39 -27
v 61 39 -27
v 22 39 -37
v 61 39 -37
v 22 46 -16
v 61 46 -16
v 22 46 -27
v 61 46 -27
v 22 53 -6
v 61 53 -6
v 22 53 -16
v 61 53 -16
v 22 60 5
v 61 60 5
v 22 60 -6
v 61 60 -6
v 22 67 15
v 61 67 15
v 22 67 5
v 61 67 5
v 22 74 26
v 61 74 26
v 22 74 15
v 61 74 15
v -20 80 63
v -19 80 63
v 61 80 63
v 63 80 63
v 22 80 47
v 61 80 47
v 22 80 26
v 61 80 26
v -63 80 11
v -20 80 11
v -63 80 10
v -20 80 10
v -63 80 -61
v -20 80 -61
v -19 80 -61
v 61 80 -61
v -63 80 -63
v 63 80 -63

# faces
f 3/3/1 2/3/1 1/3/1
f 4/3/1 2/3/1 3/3/1
f 5/3/1 2/3/1 4/3/1
f 6/3/1 2/3/1 5/3/1
f 7/3/1 2/3/1 6/3/1
f 8/3/1 2/3/1 7/3/1
f 9/3/1 2/3/1 8/3/1
f 10/3/1 2/3/1 9/3/1
f 11/3/1 2/3/1 10/3/1
f 12/3/1 2/3/1 11/3/1
f 13/3/1 2/3/1 12/3/1
f 14/3/1 2/3/1 13/3/1
f 15/3/1 2/3/1 14/3/1
f 16/3/1 2/3/1 15/3/1
f 17/3/1 2/3/1 16/3/1
f 18/3/1 2/3/1 17/3/1
f 19/3/1 2/3/1 18/3/1
f 20/3/1 2/3/1 19/3/1
f 21/3/1 2/3/1 20/3/1
f 22/3/1 2/3/1 21/3/1
f 23/3/1 2/3/1 22/3/1
f 24/3/1 2/3/1 23/3/1
f 25/3/1 2/3/1 24/3/1
f 26/3/1 2/3/1 25/3/1
f 27/3/1 2/3/1 26/3/1
f 28/3/1 2/3/1 27/3/1
f 29/3/1 2/3/1 28/3/1
f 30/3/1 2/3/1 29/3/1
f 31/6/1 4/6/1 3/6/1
f 32/5/1 5/5/1 4/5/1
f 32/6/1 4/6/1 31/6/1
f 33/6/1 6/6/1 5/6/1
f 33/5/1 5/5/1 32/5/1
f 34/5/1 7/5/1 6/5/1
f 34/6/1 6/6/1 33/6/1
f 35/6/1 8/6/1 7/6/1
f 35/5/1 7/5/1 34/5/1
f 36/5/1 9/5/1 8/5/1
f 36/6/1 8/6/1 35/6/1
f 37/6/1 10/6/1 9/6/1
f 37/5/1 9/5/1 36/5/1
f 38/5/1 11/5/1 10/5/1
f 38/6/1 10/6/1 37/6/1
f 39/6/1 12/6/1 11/6/1
f 39/5/1 11/5/1 38/5/1
f 40/5/1 13/5/1 12/5/1
f 40/6/1 12/6/1 39/6/1
f 41/6/1 14/6/1 13/6/1
f 41/5/1 13/5/1 40/5/1
f 42/5/1 15/5/1 14/5/1
f 42/6/1 14/6/1 41/6/1
f 43/5/1 15/5/1 42/5/1
f 44/5/1 15/5/1 43/5/1
f 45/6/1 16/6/1 15/6/1
f 45/5/1 15/5/1 44/5/1
f 46/5/1 17/5/1 16/5/1
f 46/6/1 16/6/1 45/6/1
f 47/6/1 18/6/1 17/6/1
f 47/5/1 17/5/1 46/5/1
f 48/5/1 19/5/1 18/5/1
f 48/6/1 18/6/1 47/6/1
f 49/6/1 20/6/1 19/6/1
f 49/5/1 19/5/1 48/5/1
f 50/5/1 21/5/1 20/5/1
f 50/6/1 20/6/1 49/6/1
f 51/6/1 22/6/1 21/6/1
f 51/5/1 21/5/1 50/5/1
f 52/5/1 23/5/1 22/5/1
f 52/6/1 22/6/1 51/6/1
f 53/6/1 24/6/1 23/6/1
f 53/5/1 23/5/1 52/5/1
f 54/5/1 25/5/1 24/5/1
f 54/6/1 24/6/1 53/6/1
f 55/6/1 26/6/1 25/6/1
f 55/5/1 25/5/1 54/5/1
f 56/5/1 27/5/1 26/5/1
f 56/6/1 26/6/1 55/6/1
f 57/6/1 28/6/1 27/6/1
f 57/5/1 27/5/1 56/5/1
f 58/5/1 29/5/1 28/5/1
f 58/6/1 28/6/1 57/6/1
f 59/4/1 30/4/1 29/4/1
f 59/5/1 29/5/1 58/5/1
f 60/4/1 44/4/1 43/4/1
f 61/4/1 44/4/1 60/4/1
f 62/4/1 30/4/1 59/4/1
f 63/4/1 30/4/1 62/4/1
f 66/4/1 65/4/1 64/4/1
f 67/4/1 65/4/1 66/4/1
f 97/4/1 69/4/1 68/4/1
f 97/4/1 70/4/1 69/4/1
f 97/4/1 71/4/1 70/4/1
f 97/4/1 72/4/1 71/4/1
f 97/4/1 73/4/1 72/4/1
f 97/4/1 74/4/1 73/4/1
f 97/4/1 75/4/1 74/4/1
f 97/4/1 76/4/1 75/4/1
f 97/4/1 77/4/1 76/4/1
f 97/4/1 78/4/1 77/4/1
f 97/4/1 79/4/1 78/4/1
f 97/4/1 80/4/1 79/4/1
f 98/4/1 80/4/1 97/4/1
f 99/4/1 96/4/1 95/4/1
f 99/4/1 95/4/1 94/4/1
f 99/4/1 94/4/1 93/4/1
f 99/4/1 84/4/1 83/4/1
f 99/4/1 83/4/1 82/4/1
f 99/4/1 82/4/1 81/4/1
f 99/4/1 85/4/1 84/4/1
f 99/4/1 86/4/1 85/4/1
f 99/4/1 87/4/1 86/4/1
f 99/4/1 88/4/1 87/4/1
f 99/4/1 89/4/1 88/4/1
f 99/4/1 90/4/1 89/4/1
f 99/4/1 91/4/1 90/4/1
f 99/4/1 92/4/1 91/4/1
f 99/4/1 93/4/1 92/4/1
f 100/4/1 96/4/1 99/4/1
f 103/1/1 102/1/1 101/1/1
f 104/1/1 102/1/1 103/1/1
f 105/1/1 103/1/1 101/1/1
f 106/1/1 103/1/1 105/1/1
f 107/1/1 105/1/1 101/1/1
f 108/1/1 105/1/1 107/1/1
f 109/1/1 107/1/1 101/1/1
f 110/1/1 107/1/1 109/1/1
f 111/1/1 109/1/1 101/1/1
f 112/1/1 109/1/1 111/1/1
f 113/1/1 111/1/1 101/1/1
f 114/1/1 111/1/1 113/1/1
f 115/1/1 113/1/1 101/1/1
f 116/1/1 113/1/1 115/1/1
f 117/1/1 115/1/1 101/1/1
f 118/1/1 115/1/1 117/1/1
f 146/4/1 120/4/1 119/4/1
f 147/4/1 145/4/1 144/4/1
f 147/4/1 146/4/1 145/4/1
f 147/4/1 122/4/1 121/4/1
f 147/4/1 123/4/1 122/4/1
f 147/4/1 144/4/1 143/4/1
f 147/4/1 143/4/1 142/4/1
f 147/4/1 142/4/1 141/4/1
f 147/4/1 141/4/1 140/4/1
f 147/4/1 140/4/1 139/4/1
f 147/4/1 139/4/1 138/4/1
f 147/4/1 138/4/1 137/4/1
f 147/4/1 137/4/1 136/4/1
f 147/4/1 136/4/1 135/4/1
f 147/4/1 135/4/1 134/4/1
f 147/4/1 134/4/1 133/4/1
f 147/4/1 133/4/1 132/4/1
f 147/4/1 132/4/1 131/4/1
f 147/4/1 131/4/1 130/4/1
f 147/4/1 130/4/1 129/4/1
f 147/4/1 129/4/1 128/4/1
f 147/4/1 128/4/1 127/4/1
f 147/4/1 127/4/1 126/4/1
f 147/4/1 126/4/1 125/4/1
f 147/4/1 125/4/1 124/4/1
f 147/4/1 124/4/1 123/4/1
f 148/4/1 146/4/1 147/4/1
f 149/4/1 147/4/1 121/4/1
f 150/4/1 147/4/1 149/4/1
f 152/4/1 146/4/1 148/4/1
f 153/4/1 149/4/1 121/4/1
f 154/4/1 149/4/1 153/4/1
f 156/4/1 152/4/1 151/4/1
f 157/4/1 153/4/1 121/4/1
f 158/4/1 153/4/1 157/4/1
f 160/4/1 156/4/1 155/4/1
f 161/4/1 157/4/1 121/4/1
f 162/4/1 157/4/1 161/4/1
f 164/4/1 160/4/1 159/4/1
f 165/4/1 161/4/1 121/4/1
f 166/4/1 161/4/1 165/4/1
f 168/4/1 164/4/1 163/4/1
f 169/4/1 165/4/1 121/4/1
f 170/4/1 165/4/1 169/4/1
f 172/4/1 168/4/1 167/4/1
f 173/4/1 169/4/1 121/4/1
f 174/4/1 169/4/1 173/4/1
f 176/4/1 172/4/1 171/4/1
f 177/4/1 173/4/1 121/4/1
f 178/4/1 173/4/1 177/4/1
f 179/4/1 176/4/1 175/4/1
f 180/4/1 120/4/1 146/4/1
f 180/4/1 176/4/1 179/4/1
f 180/4/1 146/4/1 152/4/1
f 180/4/1 152/4/1 156/4/1
f 180/4/1 156/4/1 160/4/1
f 180/4/1 172/4/1 176/4/1
f 180/4/1 160/4/1 164/4/1
f 180/4/1 168/4/1 172/4/1
f 180/4/1 164/4/1 168/4/1
f 181/4/2 182/4/2 183/4/2
f 183/4/2 182/4/2 184/4/2
f 185/4/2 186/4/2 187/4/2
f 187/4/2 186/4/2 188/4/2
f 189/2/2 190/2/2 217/2/2
f 191/4/2 192/4/2 218/4/2
f 192/4/2 193/4/2 218/4/2
f 193/4/2 194/4/2 218/4/2
f 194/4/2 195/4/2 218/4/2
f 195/4/2 196/4/2 218/4/2
f 196/4/2 197/4/2 218/4/2
f 197/4/2 198/4/2 218/4/2
f 198/4/2 199/4/2 218/4/2
f 210/4/2 211/4/2 218/4/2
f 209/4/2 210/4/2 218/4/2
f 208/4/2 209/4/2 218/4/2
f 207/4/2 208/4/2 218/4/2
f 206/4/2 207/4/2 218/4/2
f 205/4/2 206/4/2 218/4/2
f 204/4/2 205/4/2 218/4/2
f 203/4/2 204/4/2 218/4/2
f 202/4/2 203/4/2 218/4/2
f 201/4/2 202/4/2 218/4/2
f 200/4/2 201/4/2 218/4/2
f 199/4/2 200/4/2 218/4/2
f 218/4/2 211/4/2 219/4/2
f 219/4/2 211/4/2 220/4/2
f 215/2/2 216/2/2 221/2/2
f 220/4/2 211/4/2 221/4/2
f 216/2/2 217/2/2 221/2/2
f 214/2/2 215/2/2 221/2/2
f 213/2/2 214/2/2 221/2/2
f 211/2/2 212/2/2 221/2/2
f 212/2/2 213/2/2 221/2/2
f 221/2/2 217/2/2 222/2/2
f 218/2/2 219/2/2 223/2/2
f 219/1/2 220/1/2 224/1/2
f 223/2/2 219/2/2 224/2/2
f 222/2/2 217/2/2 225/2/2
f 217/2/2 190/2/2 226/2/2
f 225/2/2 217/2/2 226/2/2
f 224/1/2 220/1/2 227/1/2
f 227/1/2 220/1/2 228/1/2
f 224/1/2 227/1/2 229/1/2
f 229/1/2 227/1/2 230/1/2
f 224/1/2 229/1/2 231/1/2
f 231/1/2 229/1/2 232/1/2
f 224/1/2 231/1/2 233/1/2
f 233/1/2 231/1/2 234/1/2
f 224/1/2 233/1/2 235/1/2
f 235/1/2 233/1/2 236/1/2
f 224/1/2 235/1/2 237/1/2
f 237/1/2 235/1/2 238/1/2
f 224/1/2 237/1/2 239/1/2
f 239/1/2 237/1/2 240/1/2
f 241/3/2 242/3/2 243/3/2
f 243/3/2 242/3/2 244/3/2
f 243/4/2 244/4/2 245/4/2
f 245/4/2 244/4/2 246/4/2
f 250/6/3 249/6/3 248/6/3
f 252/3/3 248/3/3 247/3/3
f 253/6/3 250/6/3 248/6/3
f 253/3/3 248/3/3 252/3/3
f 254/4/3 251/4/3 250/4/3
f 254/6/3 250/6/3 253/6/3
f 255/4/3 251/4/3 254/4/3
f 256/4/3 251/4/3 255/4/3
f 257/2/3 253/2/3 252/2/3
f 257/3/3 252/3/3 247/3/3
f 258/6/3 254/6/3 253/6/3
f 258/2/3 253/2/3 257/2/3
f 259/2/3 255/2/3 254/2/3
f 259/6/3 254/6/3 258/6/3
f 260/2/3 255/2/3 259/2/3
f 261/6/3 259/6/3 258/6/3
f 261/4/3 260/4/3 259/4/3
f 262/2/3 255/2/3 260/2/3
f 262/4/3 260/4/3 261/4/3
f 263/2/3 255/2/3 262/2/3
f 264/3/3 258/3/3 257/3/3
f 264/6/3 261/6/3 258/6/3
f 265/6/3 261/6/3 264/6/3
f 267/3/3 257/3/3 247/3/3
f 267/3/3 264/3/3 257/3/3
f 268/4/3 265/4/3 264/4/3
f 268/3/3 264/3/3 267/3/3
f 268/4/3 266/4/3 265/4/3
f 269/4/3 266/4/3 268/4/3
f 272/1/3 271/1/3 270/1/3
f 273/1/3 271/1/3 272/1/3
f 274/1/3 271/1/3 273/1/3
f 275/1/3 271/1/3 274/1/3
f 278/1/3 277/1/3 276/1/3
f 279/1/3 277/1/3 278/1/3
f 282/1/3 281/1/3 280/1/3
f 283/1/3 281/1/3 282/1/3
f 286/1/3 285/1/3 284/1/3
f 287/1/3 285/1/3 286/1/3
f 290/4/3 289/4/3 288/4/3
f 291/4/3 289/4/3 290/4/3
f 293/4/3 289/4/3 291/4/3
f 294/4/3 293/4/3 292/4/3
f 295/4/3 289/4/3 293/4/3
f 295/4/3 293/4/3 294/4/3
f 298/1/3 297/1/3 296/1/3
f 299/1/3 297/1/3 298/1/3
f 302/1/3 301/1/3 300/1/3
f 303/1/3 301/1/3 302/1/3
f 306/1/3 305/1/3 304/1/3
f 307/1/3 305/1/3 306/1/3
f 310/1/3 309/1/3 308/1/3
f 311/1/3 309/1/3 310/1/3
f 314/4/3 313/4/3 312/4/3
f 315/4/3 313/4/3 314/4/3
f 319/4/3 317/4/3 316/4/3
f 320/4/3 319/4/3 318/4/3
f 321/4/3 317/4/3 319/4/3
f 321/4/3 319/4/3 320/4/3
f 322/1/4 323/1/4 324/1/4
f 324/1/4 323/1/4 325/1/4
f 326/1/4 327/1/4 328/1/4
f 328/1/4 327/1/4 329/1/4
f 330/4/4 331/4/4 332/4/4
f 332/4/4 331/4/4 333/4/4
f 333/4/4 331/4/4 335/4/4
f 334/4/4 335/4/4 336/4/4
f 335/4/4 331/4/4 337/4/4
f 336/4/4 335/4/4 337/4/4
f 338/1/4 339/1/4 340/1/4
f 340/1/4 339/1/4 341/1/4
f 342/1/4 343/1/4 344/1/4
f 344/1/4 343/1/4 345/1/4
f 346/1/4 347/1/4 348/1/4
f 348/1/4 347/1/4 349/1/4
f 350/1/4 351/1/4 352/1/4
f 352/1/4 351/1/4 353/1/4
f 354/1/4 355/1/4 356/1/4
f 356/1/4 355/1/4 357/1/4
f 358/1/4 359/1/4 361/1/4
f 360/1/4 361/1/4 362/1/4
f 361/1/4 359/1/4 363/1/4
f 362/1/4 361/1/4 363/1/4
f 364/6/4 365/6/4 366/6/4
f 366/6/4 365/6/4 367/6/4
f 368/3/4 369/3/4 371/3/4
f 369/4/4 370/4/4 372/4/4
f 371/3/4 369/3/4 372/3/4
f 372/4/4 370/4/4 373/4/4
f 376/3/5 375/3/5 374/3/5
f 377/3/5 375/3/5 376/3/5
f 380/1/5 379/1/5 378/1/5
f 381/1/5 379/1/5 380/1/5
f 382/1/5 379/1/5 381/1/5
f 385/1/5 384/1/5 383/1/5
f 386/1/5 384/1/5 385/1/5
f 389/1/5 388/1/5 387/1/5
f 390/1/5 388/1/5 389/1/5
f 393/4/5 392/4/5 391/4/5
f 394/4/5 392/4/5 393/4/5
f 397/1/5 396/1/5 395/1/5
f 398/1/5 396/1/5 397/1/5
f 401/1/5 400/1/5 399/1/5
f 402/1/5 400/1/5 401/1/5
f 405/1/5 404/1/5 403/1/5
f 406/1/5 404/1/5 405/1/5
f 409/1/5 408/1/5 407/1/5
f 410/1/5 408/1/5 409/1/5
f 413/1/5 412/1/5 411/1/5
f 414/1/5 412/1/5 413/1/5
f 415/3/6 416/3/6 417/3/6
f 417/3/6 416/3/6 418/3/6
f 419/6/6 420/6/6 423/6/6
f 423/6/6 420/6/6 424/6/6
f 421/6/6 422/6/6 425/6/6
f 425/6/6 422/6/6 426/6/6
f 423/5/6 424/5/6 427/5/6
f 427/5/6 424/5/6 428/5/6
f 425/5/6 426/5/6 429/5/6
f 429/5/6 426/5/6 430/5/6
f 427/6/6 428/6/6 431/6/6
f 431/6/6 428/6/6 432/6/6
f 429/6/6 430/6/6 433/6/6
f 433/6/6 430/6/6 434/6/6
f 431/5/6 432/5/6 435/5/6
f 435/5/6 432/5/6 436/5/6
f 433/5/6 434/5/6 437/5/6
f 437/5/6 434/5/6 438/5/6
f 435/6/6 436/6/6 439/6/6
f 439/6/6 436/6/6 440/6/6
f 437/6/6 438/6/6 441/6/6
f 441/6/6 438/6/6 442/6/6
f 439/5/6 440/5/6 443/5/6
f 443/5/6 440/5/6 444/5/6
f 441/5/6 442/5/6 445/5/6
f 445/5/6 442/5/6 446/5/6
f 443/6/6 444/6/6 447/6/6
f 447/6/6 444/6/6 448/6/6
f 445/6/6 446/6/6 449/6/6
f 449/6/6 446/6/6 450/6/6
f 447/5/6 448/5/6 451/5/6
f 451/5/6 448/5/6 452/5/6
f 449/5/6 450/5/6 453/5/6
f 453/5/6 450/5/6 454/5/6
f 451/6/6 452/6/6 455/6/6
f 455/6/6 452/6/6 456/6/6
f 453/6/6 454/6/6 457/6/6
f 457/6/6 454/6/6 458/6/6
f 455/5/6 456/5/6 459/5/6
f 459/5/6 456/5/6 460/5/6
f 457/5/6 458/5/6 461/5/6
f 461/5/6 458/5/6 462/5/6
f 459/6/6 460/6/6 463/6/6
f 463/6/6 460/6/6 464/6/6
f 461/6/6 462/6/6 465/6/6
f 465/6/6 462/6/6 466/6/6
f 463/5/6 464/5/6 467/5/6
f 467/5/6 464/5/6 468/5/6
f 468/5/6 464/5/6 469/5/6
f 469/5/6 464/5/6 470/5/6
f 468/5/6 469/5/6 472/5/6
f 472/5/6 469/5/6 473/5/6
f 471/5/6 472/5/6 475/5/6
f 473/5/6 474/5/6 475/5/6
f 472/5/6 473/5/6 475/5/6
f 475/5/6 474/5/6 476/5/6
f 465/5/6 466/5/6 477/5/6
f 477/5/6 466/5/6 478/5/6
f 475/6/6 476/6/6 479/6/6
f 479/6/6 476/6/6 480/6/6
f 477/6/6 478/6/6 481/6/6
f 481/6/6 478/6/6 482/6/6
f 479/5/6 480/5/6 483/5/6
f 483/5/6 480/5/6 484/5/6
f 481/5/6 482/5/6 485/5/6
f 485/5/6 482/5/6 486/5/6
f 483/6/6 484/6/6 487/6/6
f 487/6/6 484/6/6 488/6/6
f 485/6/6 486/6/6 489/6/6
f 489/6/6 486/6/6 490/6/6
f 487/5/6 488/5/6 491/5/6
f 491/5/6 488/5/6 492/5/6
f 489/5/6 490/5/6 493/5/6
f 493/5/6 490/5/6 494/5/6
f 491/6/6 492/6/6 495/6/6
f 495/6/6 492/6/6 496/6/6
f 493/6/6 494/6/6 497/6/6
f 497/6/6 494/6/6 498/6/6
f 495/5/6 496/5/6 499/5/6
f 499/5/6 496/5/6 500/5/6
f 497/5/6 498/5/6 501/5/6
f 501/5/6 498/5/6 502/5/6
f 499/6/6 500/6/6 503/6/6
f 503/6/6 500/6/6 504/6/6
f 501/6/6 502/6/6 505/6/6
f 505/6/6 502/6/6 506/6/6
f 505/5/6 506/5/6 507/5/6
f 503/5/6 504/5/6 508/5/6
f 508/5/6 504/5/6 509/5/6
f 507/5/6 506/5/6 510/5/6
f 510/5/6 506/5/6 511/5/6
f 508/6/6 509/6/6 512/6/6
f 512/6/6 509/6/6 513/6/6
f 510/6/6 511/6/6 514/6/6
f 514/6/6 511/6/6 515/6/6
f 512/5/6 513/5/6 516/5/6
f 516/5/6 513/5/6 517/5/6
f 514/5/6 515/5/6 518/5/6
f 518/5/6 515/5/6 519/5/6
f 516/6/6 517/6/6 520/6/6
f 520/6/6 517/6/6 521/6/6
f 518/6/6 519/6/6 522/6/6
f 522/6/6 519/6/6 523/6/6
f 520/5/6 521/5/6 524/5/6
f 524/5/6 521/5/6 525/5/6
f 522/5/6 523/5/6 526/5/6
f 526/5/6 523/5/6 527/5/6
f 524/6/6 525/6/6 528/6/6
f 528/6/6 525/6/6 529/6/6
f 526/6/6 527/6/6 530/6/6
f 530/6/6 527/6/6 531/6/6
f 528/5/6 529/5/6 532/5/6
f 532/5/6 529/5/6 533/5/6
f 534/2/6 535/2/6 536/2/6
f 536/2/6 535/2/6 537/2/6
f 534/2/6 536/2/6 538/2/6
f 534/2/6 538/2/6 540/2/6
f 538/2/6 539/2/6 540/2/6
f 540/2/6 539/2/6 541/2/6
f 542/1/6 543/1/6 544/1/6
f 544/1/6 543/1/6 545/1/6
f 546/1/6 547/1/6 548/1/6
f 548/1/6 547/1/6 549/1/6
f 550/1/6 551/1/6 552/1/6
f 552/1/6 551/1/6 553/1/6
f 554/1/6 555/1/6 556/1/6
f 556/1/6 555/1/6 557/1/6
f 558/1/6 559/1/6 560/1/6
f 560/1/6 559/1/6 561/1/6
f 562/1/6 563/1/6 564/1/6
f 564/1/6 563/1/6 565/1/6
f 566/1/6 567/1/6 568/1/6
f 568/1/6 567/1/6 569/1/6
f 572/4/6 573/4/6 575/4/6
f 574/1/6 575/1/6 576/1/6
f 575/4/6 573/4/6 577/4/6
f 576/1/6 575/1/6 577/1/6
f 570/4/6 571/4/6 579/4/6
f 578/4/6 579/4/6 580/4/6
f 579/4/6 571/4/6 581/4/6
f 580/4/6 579/4/6 581/4/6
f 581/4/6 571/4/6 583/4/6
f 583/4/6 571/4/6 584/4/6
f 577/4/6 573/4/6 585/4/6
f 583/4/6 584/4/6 586/4/6
f 584/4/6 585/4/6 586/4/6
f 582/4/6 583/4/6 586/4/6
f 585/4/6 573/4/6 587/4/6
f 586/4/6 585/4/6 587/4/6
