# MagicaVoxel @ Ephtracy

# group
g 2x2sec (3)-0

# material
mtllib 2x2sec (3)-0.mtl
usemtl palette

# normals
vn -1 0 0
vn 1 0 0
vn 0 0 1
vn 0 0 -1
vn 0 -1 0
vn 0 1 0

# texcoords
vt 0.396484 0.5
vt 0.560547 0.5
vt 0.873047 0.5
vt 0.978516 0.5

# verts
v -63 0 63
v -63 0 -63
v -63 80 63
v -63 80 -63
v -31 22 -24
v -31 22 -48
v -31 22 -51
v -31 22 -61
v -31 24 -48
v -31 24 -50
v -31 25 -24
v -31 25 -48
v -31 25 -50
v -31 25 -61
v -21 25 -24
v -21 25 -49
v -21 25 -51
v -21 25 -61
v -21 26 -49
v -21 26 -51
v -21 28 -48
v -21 28 -53
v -21 31 -45
v -21 31 -47
v -21 32 -24
v -21 32 -45
v -21 32 -47
v -21 32 -48
v -21 32 -53
v -21 32 -61
v -16 2 63
v -16 2 62
v -16 41 63
v -16 41 62
v -10 32 -24
v -10 32 -47
v -10 32 -58
v -10 32 -61
v -10 39 -24
v -10 39 -47
v -10 39 -58
v -10 39 -61
v 22 32 -6
v 22 32 -24
v 22 39 5
v 22 39 -6
v 22 39 -24
v 22 39 -27
v 22 46 15
v 22 46 5
v 22 46 -16
v 22 46 -27
v 22 53 26
v 22 53 15
v 22 53 -6
v 22 53 -16
v 22 60 37
v 22 60 26
v 22 60 5
v 22 60 -6
v 22 67 62
v 22 67 37
v 22 67 15
v 22 67 5
v 22 74 26
v 22 74 15
v 22 80 62
v 22 80 26
v 61 0 26
v 61 0 -61
v 61 1 26
v 61 2 62
v 61 2 26
v 61 32 -6
v 61 32 -61
v 61 39 5
v 61 39 -6
v 61 39 -27
v 61 39 -61
v 61 46 15
v 61 46 5
v 61 46 -16
v 61 46 -27
v 61 53 26
v 61 53 15
v 61 53 -6
v 61 53 -16
v 61 60 37
v 61 60 26
v 61 60 5
v 61 60 -6
v 61 67 62
v 61 67 37
v 61 67 15
v 61 67 5
v 61 74 26
v 61 74 15
v 61 80 26
v 61 80 -61
v -62 2 62
v -62 2 -3
v -62 8 -3
v -62 8 -13
v -62 15 -13
v -62 15 -24
v -62 22 -24
v -62 22 -61
v -62 80 62
v -62 80 -61
v -46 2 63
v -46 2 62
v -46 41 63
v -46 41 62
v -24 2 -3
v -24 2 -24
v -24 8 -3
v -24 8 -13
v -24 15 -13
v -24 15 -24
v 22 0 26
v 22 0 -24
v 22 0 -61
v 22 1 26
v 22 1 -24
v 22 2 26
v 22 2 -24
v 22 32 -24
v 22 32 -61
v 63 0 63
v 63 0 -63
v 63 80 63
v 63 80 -63
v -63 0 63
v -63 80 63
v -46 1 63
v -46 2 63
v -46 41 63
v -16 1 63
v -16 2 63
v -16 41 63
v 63 0 63
v 63 80 63
v 22 60 37
v 22 67 37
v 61 60 37
v 61 67 37
v 22 53 26
v 22 60 26
v 61 53 26
v 61 60 26
v 22 46 15
v 22 53 15
v 61 46 15
v 61 53 15
v 22 39 5
v 22 46 5
v 61 39 5
v 61 46 5
v -62 2 -3
v -62 8 -3
v -24 2 -3
v -24 8 -3
v 22 32 -6
v 22 39 -6
v 61 32 -6
v 61 39 -6
v -62 8 -13
v -62 15 -13
v -24 8 -13
v -24 15 -13
v -62 15 -24
v -62 22 -24
v -31 22 -24
v -31 25 -24
v -24 2 -24
v -24 15 -24
v -21 25 -24
v -21 32 -24
v -10 32 -24
v -10 39 -24
v 22 2 -24
v 22 32 -24
v 22 39 -24
v -62 22 -61
v -62 80 -61
v -31 22 -61
v -31 25 -61
v -21 25 -61
v -21 32 -61
v -10 32 -61
v -10 39 -61
v -6 39 -61
v -6 41 -61
v -5 49 -61
v -5 51 -61
v -4 49 -61
v -4 51 -61
v -4 52 -61
v -4 53 -61
v -2 41 -61
v -2 47 -61
v -1 47 -61
v -1 49 -61
v -1 52 -61
v -1 53 -61
v 0 49 -61
v 0 51 -61
v 1 49 -61
v 1 51 -61
v 2 44 -61
v 2 47 -61
v 2 50 -61
v 2 53 -61
v 4 44 -61
v 4 47 -61
v 4 49 -61
v 4 50 -61
v 8 50 -61
v 8 53 -61
v 14 45 -61
v 14 50 -61
v 17 39 -61
v 17 42 -61
v 17 44 -61
v 17 45 -61
v 20 39 -61
v 20 42 -61
v 20 44 -61
v 21 39 -61
v 21 42 -61
v 22 0 -61
v 22 32 -61
v 61 0 -61
v 61 32 -61
v 61 39 -61
v 61 80 -61
v -62 2 62
v -62 80 62
v -46 2 62
v -46 41 62
v -16 2 62
v -16 41 62
v 22 67 62
v 22 80 62
v 61 2 62
v 61 67 62
v 22 0 26
v 22 1 26
v 22 2 26
v 22 74 26
v 22 80 26
v 61 0 26
v 61 1 26
v 61 2 26
v 61 74 26
v 61 80 26
v 22 67 15
v 22 74 15
v 61 67 15
v 61 74 15
v 22 60 5
v 22 67 5
v 61 60 5
v 61 67 5
v 22 53 -6
v 22 60 -6
v 61 53 -6
v 61 60 -6
v 22 46 -16
v 22 53 -16
v 61 46 -16
v 61 53 -16
v 22 39 -27
v 22 46 -27
v 61 39 -27
v 61 46 -27
v -63 0 -63
v -63 80 -63
v 63 0 -63
v 63 80 -63
v -63 0 63
v 63 0 63
v 22 0 26
v 61 0 26
v -62 0 -3
v -24 0 -3
v -24 0 -24
v 22 0 -24
v -62 0 -61
v 22 0 -61
v 61 0 -61
v -63 0 -63
v 63 0 -63
v 22 32 -6
v 61 32 -6
v 22 32 -24
v 22 32 -61
v 61 32 -61
v 22 39 5
v 61 39 5
v 22 39 -6
v 61 39 -6
v -46 41 63
v -16 41 63
v -46 41 62
v -16 41 62
v 22 46 15
v 61 46 15
v 22 46 5
v 61 46 5
v 22 53 26
v 61 53 26
v 22 53 15
v 61 53 15
v 22 60 37
v 61 60 37
v 22 60 26
v 61 60 26
v 22 67 62
v 61 67 62
v 22 67 37
v 61 67 37
v -46 2 63
v -16 2 63
v -62 2 62
v -46 2 62
v -16 2 62
v 61 2 62
v 22 2 26
v 61 2 26
v -62 2 -3
v -24 2 -3
v -24 2 -24
v 22 2 -24
v -62 8 -3
v -24 8 -3
v -62 8 -13
v -24 8 -13
v -62 15 -13
v -24 15 -13
v -62 15 -24
v -24 15 -24
v -62 22 -24
v -31 22 -24
v -34 22 -47
v -33 22 -47
v -33 22 -48
v -31 22 -48
v -38 22 -50
v -34 22 -50
v -33 22 -51
v -31 22 -51
v -38 22 -53
v -33 22 -53
v -62 22 -61
v -31 22 -61
v -31 25 -24
v -21 25 -24
v -26 25 -47
v -24 25 -47
v -31 25 -48
v -27 25 -48
v -26 25 -48
v -25 25 -48
v -24 25 -49
v -23 25 -49
v -22 25 -49
v -21 25 -49
v -31 25 -50
v -30 25 -50
v -27 25 -50
v -25 25 -50
v -22 25 -51
v -21 25 -51
v -30 25 -53
v -23 25 -53
v -22 25 -53
v -23 25 -54
v -22 25 -54
v -31 25 -61
v -21 25 -61
v -21 32 -24
v -10 32 -24
v -18 32 -43
v -15 32 -43
v -21 32 -45
v -18 32 -45
v -21 32 -47
v -18 32 -47
v -17 32 -47
v -15 32 -47
v -12 32 -47
v -10 32 -47
v -21 32 -48
v -20 32 -48
v -19 32 -48
v -18 32 -48
v -20 32 -50
v -19 32 -50
v -14 32 -50
v -12 32 -50
v -19 32 -51
v -17 32 -51
v -15 32 -51
v -21 32 -53
v -19 32 -53
v -17 32 -55
v -15 32 -55
v -14 32 -55
v -15 32 -58
v -10 32 -58
v -21 32 -61
v -10 32 -61
v -10 39 -24
v 22 39 -24
v 22 39 -27
v 61 39 -27
v 4 39 -44
v 18 39 -44
v 1 39 -45
v 4 39 -45
v 14 39 -45
v 15 39 -45
v -2 39 -46
v 1 39 -46
v -10 39 -47
v -9 39 -47
v -5 39 -47
v -2 39 -47
v 14 39 -51
v 15 39 -51
v 17 39 -52
v 18 39 -52
v 17 39 -54
v 18 39 -54
v -9 39 -55
v -6 39 -55
v -5 39 -55
v -2 39 -55
v -6 39 -56
v -2 39 -56
v -9 39 -57
v -6 39 -57
v -10 39 -58
v -9 39 -58
v 19 39 -58
v 20 39 -58
v 17 39 -59
v 18 39 -59
v 19 39 -60
v 20 39 -60
v -10 39 -61
v -6 39 -61
v 17 39 -61
v 20 39 -61
v 21 39 -61
v 61 39 -61
v 22 46 -16
v 61 46 -16
v 22 46 -27
v 61 46 -27
v 22 53 -6
v 61 53 -6
v 22 53 -16
v 61 53 -16
v 22 60 5
v 61 60 5
v 22 60 -6
v 61 60 -6
v 22 67 15
v 61 67 15
v 22 67 5
v 61 67 5
v 22 74 26
v 61 74 26
v 22 74 15
v 61 74 15
v -63 80 63
v 63 80 63
v -62 80 62
v 22 80 62
v 61 80 62
v 22 80 26
v 61 80 26
v -62 80 -61
v 61 80 -61
v -63 80 -63
v 63 80 -63

# faces
f 3/4/1 2/4/1 1/4/1
f 4/4/1 2/4/1 3/4/1
f 9/1/1 6/1/1 5/1/1
f 9/1/1 8/1/1 7/1/1
f 9/1/1 7/1/1 6/1/1
f 10/1/1 8/1/1 9/1/1
f 11/1/1 9/1/1 5/1/1
f 12/3/1 10/3/1 9/3/1
f 12/1/1 9/1/1 11/1/1
f 13/1/1 8/1/1 10/1/1
f 13/3/1 10/3/1 12/3/1
f 14/1/1 8/1/1 13/1/1
f 19/1/1 16/1/1 15/1/1
f 19/3/1 17/3/1 16/3/1
f 20/1/1 18/1/1 17/1/1
f 20/3/1 17/3/1 19/3/1
f 21/1/1 19/1/1 15/1/1
f 21/1/1 20/1/1 19/1/1
f 22/1/1 18/1/1 20/1/1
f 22/1/1 20/1/1 21/1/1
f 23/1/1 21/1/1 15/1/1
f 24/1/1 21/1/1 23/1/1
f 25/1/1 23/1/1 15/1/1
f 26/3/1 24/3/1 23/3/1
f 26/1/1 23/1/1 25/1/1
f 27/1/1 21/1/1 24/1/1
f 27/3/1 24/3/1 26/3/1
f 28/3/1 22/3/1 21/3/1
f 28/1/1 21/1/1 27/1/1
f 29/1/1 18/1/1 22/1/1
f 29/3/1 22/3/1 28/3/1
f 30/1/1 18/1/1 29/1/1
f 33/4/1 32/4/1 31/4/1
f 34/4/1 32/4/1 33/4/1
f 39/1/1 36/1/1 35/1/1
f 40/3/1 37/3/1 36/3/1
f 40/1/1 36/1/1 39/1/1
f 41/1/1 38/1/1 37/1/1
f 41/3/1 37/3/1 40/3/1
f 42/1/1 38/1/1 41/1/1
f 46/1/1 44/1/1 43/1/1
f 47/1/1 44/1/1 46/1/1
f 50/1/1 46/1/1 45/1/1
f 50/1/1 48/1/1 47/1/1
f 50/1/1 47/1/1 46/1/1
f 51/1/1 48/1/1 50/1/1
f 52/1/1 48/1/1 51/1/1
f 54/1/1 50/1/1 49/1/1
f 54/1/1 51/1/1 50/1/1
f 55/1/1 51/1/1 54/1/1
f 56/1/1 51/1/1 55/1/1
f 58/1/1 54/1/1 53/1/1
f 58/1/1 55/1/1 54/1/1
f 59/1/1 55/1/1 58/1/1
f 60/1/1 55/1/1 59/1/1
f 62/1/1 58/1/1 57/1/1
f 62/1/1 59/1/1 58/1/1
f 63/1/1 59/1/1 62/1/1
f 64/1/1 59/1/1 63/1/1
f 65/1/1 62/1/1 61/1/1
f 65/1/1 63/1/1 62/1/1
f 66/1/1 63/1/1 65/1/1
f 67/1/1 65/1/1 61/1/1
f 68/1/1 65/1/1 67/1/1
f 71/4/1 70/4/1 69/4/1
f 73/4/1 70/4/1 71/4/1
f 74/4/1 70/4/1 73/4/1
f 74/4/1 73/4/1 72/4/1
f 75/4/1 70/4/1 74/4/1
f 76/4/1 74/4/1 72/4/1
f 77/4/1 74/4/1 76/4/1
f 80/4/1 76/4/1 72/4/1
f 81/4/1 76/4/1 80/4/1
f 83/4/1 79/4/1 78/4/1
f 84/4/1 80/4/1 72/4/1
f 85/4/1 80/4/1 84/4/1
f 87/4/1 83/4/1 82/4/1
f 88/4/1 84/4/1 72/4/1
f 89/4/1 84/4/1 88/4/1
f 91/4/1 87/4/1 86/4/1
f 92/4/1 88/4/1 72/4/1
f 93/4/1 88/4/1 92/4/1
f 95/4/1 91/4/1 90/4/1
f 97/4/1 95/4/1 94/4/1
f 98/4/1 97/4/1 96/4/1
f 99/4/1 91/4/1 95/4/1
f 99/4/1 97/4/1 98/4/1
f 99/4/1 79/4/1 83/4/1
f 99/4/1 95/4/1 97/4/1
f 99/4/1 83/4/1 87/4/1
f 99/4/1 87/4/1 91/4/1
f 100/4/2 101/4/2 102/4/2
f 102/4/2 103/4/2 104/4/2
f 104/4/2 105/4/2 106/4/2
f 100/4/2 102/4/2 108/4/2
f 106/4/2 107/4/2 108/4/2
f 104/4/2 106/4/2 108/4/2
f 102/4/2 104/4/2 108/4/2
f 108/4/2 107/4/2 109/4/2
f 110/4/2 111/4/2 112/4/2
f 112/4/2 111/4/2 113/4/2
f 114/1/2 115/1/2 116/1/2
f 116/1/2 115/1/2 117/1/2
f 117/1/2 115/1/2 118/1/2
f 118/1/2 115/1/2 119/1/2
f 120/4/2 121/4/2 123/4/2
f 121/1/2 122/1/2 124/1/2
f 123/4/2 121/4/2 124/4/2
f 123/2/2 124/2/2 125/2/2
f 124/1/2 122/1/2 126/1/2
f 125/2/2 124/2/2 126/2/2
f 126/1/2 122/1/2 127/1/2
f 127/1/2 122/1/2 128/1/2
f 129/4/2 130/4/2 131/4/2
f 131/4/2 130/4/2 132/4/2
f 135/4/3 134/4/3 133/4/3
f 136/4/3 134/4/3 135/4/3
f 137/4/3 134/4/3 136/4/3
f 138/4/3 135/4/3 133/4/3
f 138/2/3 136/2/3 135/2/3
f 139/2/3 136/2/3 138/2/3
f 140/4/3 134/4/3 137/4/3
f 141/4/3 139/4/3 138/4/3
f 141/4/3 140/4/3 139/4/3
f 141/4/3 138/4/3 133/4/3
f 142/4/3 134/4/3 140/4/3
f 142/4/3 140/4/3 141/4/3
f 145/1/3 144/1/3 143/1/3
f 146/1/3 144/1/3 145/1/3
f 149/1/3 148/1/3 147/1/3
f 150/1/3 148/1/3 149/1/3
f 153/1/3 152/1/3 151/1/3
f 154/1/3 152/1/3 153/1/3
f 157/1/3 156/1/3 155/1/3
f 158/1/3 156/1/3 157/1/3
f 161/1/3 160/1/3 159/1/3
f 162/1/3 160/1/3 161/1/3
f 165/1/3 164/1/3 163/1/3
f 166/1/3 164/1/3 165/1/3
f 169/1/3 168/1/3 167/1/3
f 170/1/3 168/1/3 169/1/3
f 173/1/3 172/1/3 171/1/3
f 176/1/3 173/1/3 171/1/3
f 176/1/3 174/1/3 173/1/3
f 177/1/3 174/1/3 176/1/3
f 177/1/3 176/1/3 175/1/3
f 179/1/3 178/1/3 177/1/3
f 181/1/3 177/1/3 175/1/3
f 181/1/3 180/1/3 179/1/3
f 181/1/3 179/1/3 177/1/3
f 182/1/3 180/1/3 181/1/3
f 183/1/3 180/1/3 182/1/3
f 186/4/3 185/4/3 184/4/3
f 187/4/3 185/4/3 186/4/3
f 188/4/3 185/4/3 187/4/3
f 189/4/3 185/4/3 188/4/3
f 190/4/3 185/4/3 189/4/3
f 191/4/3 185/4/3 190/4/3
f 192/4/3 185/4/3 191/4/3
f 193/4/3 185/4/3 192/4/3
f 194/4/3 185/4/3 193/4/3
f 195/4/3 185/4/3 194/4/3
f 196/4/3 194/4/3 193/4/3
f 196/3/3 195/3/3 194/3/3
f 197/4/3 185/4/3 195/4/3
f 197/3/3 195/3/3 196/3/3
f 198/4/3 185/4/3 197/4/3
f 199/4/3 185/4/3 198/4/3
f 200/3/3 193/3/3 192/3/3
f 200/4/3 196/4/3 193/4/3
f 200/4/3 197/4/3 196/4/3
f 200/4/3 198/4/3 197/4/3
f 201/4/3 198/4/3 200/4/3
f 202/3/3 201/3/3 200/3/3
f 202/4/3 198/4/3 201/4/3
f 203/4/3 198/4/3 202/4/3
f 204/3/3 199/3/3 198/3/3
f 204/4/3 198/4/3 203/4/3
f 205/4/3 185/4/3 199/4/3
f 205/3/3 199/3/3 204/3/3
f 206/4/3 204/4/3 203/4/3
f 206/3/3 203/3/3 202/3/3
f 206/4/3 205/4/3 204/4/3
f 207/4/3 205/4/3 206/4/3
f 208/3/3 206/3/3 202/3/3
f 208/3/3 207/3/3 206/3/3
f 209/4/3 205/4/3 207/4/3
f 209/3/3 207/3/3 208/3/3
f 210/3/3 202/3/3 200/3/3
f 210/3/3 208/3/3 202/3/3
f 211/3/3 208/3/3 210/3/3
f 212/4/3 209/4/3 208/4/3
f 213/4/3 185/4/3 205/4/3
f 213/4/3 209/4/3 212/4/3
f 213/4/3 205/4/3 209/4/3
f 214/4/3 211/4/3 210/4/3
f 214/3/3 210/3/3 200/3/3
f 215/3/3 208/3/3 211/3/3
f 215/4/3 211/4/3 214/4/3
f 216/4/3 212/4/3 208/4/3
f 216/3/3 208/3/3 215/3/3
f 217/3/3 213/3/3 212/3/3
f 217/4/3 212/4/3 216/4/3
f 218/3/3 215/3/3 214/3/3
f 218/3/3 213/3/3 217/3/3
f 218/3/3 217/3/3 216/3/3
f 218/3/3 216/3/3 215/3/3
f 219/4/3 185/4/3 213/4/3
f 219/3/3 213/3/3 218/3/3
f 220/3/3 218/3/3 214/3/3
f 221/4/3 219/4/3 218/4/3
f 221/3/3 218/3/3 220/3/3
f 222/3/3 214/3/3 200/3/3
f 222/3/3 200/3/3 192/3/3
f 222/3/3 220/3/3 214/3/3
f 223/3/3 220/3/3 222/3/3
f 224/3/3 220/3/3 223/3/3
f 225/4/3 221/4/3 220/4/3
f 225/3/3 220/3/3 224/3/3
f 226/4/3 223/4/3 222/4/3
f 227/3/3 224/3/3 223/3/3
f 227/4/3 223/4/3 226/4/3
f 228/4/3 225/4/3 224/4/3
f 228/3/3 224/3/3 227/3/3
f 229/3/3 227/3/3 226/3/3
f 230/4/3 228/4/3 227/4/3
f 230/3/3 227/3/3 229/3/3
f 233/4/3 232/4/3 231/4/3
f 234/4/3 232/4/3 233/4/3
f 235/4/3 230/4/3 229/4/3
f 236/4/3 219/4/3 221/4/3
f 236/4/3 230/4/3 235/4/3
f 236/4/3 185/4/3 219/4/3
f 236/4/3 221/4/3 225/4/3
f 236/4/3 228/4/3 230/4/3
f 236/4/3 225/4/3 228/4/3
f 237/4/4 238/4/4 239/4/4
f 239/4/4 238/4/4 240/4/4
f 240/4/4 238/4/4 242/4/4
f 242/4/4 238/4/4 243/4/4
f 241/4/4 242/4/4 243/4/4
f 243/4/4 238/4/4 244/4/4
f 241/4/4 243/4/4 245/4/4
f 245/4/4 243/4/4 246/4/4
f 247/4/4 248/4/4 252/4/4
f 248/2/4 249/2/4 253/2/4
f 252/4/4 248/4/4 253/4/4
f 253/2/4 249/2/4 254/2/4
f 250/1/4 251/1/4 255/1/4
f 255/1/4 251/1/4 256/1/4
f 257/1/4 258/1/4 259/1/4
f 259/1/4 258/1/4 260/1/4
f 261/1/4 262/1/4 263/1/4
f 263/1/4 262/1/4 264/1/4
f 265/1/4 266/1/4 267/1/4
f 267/1/4 266/1/4 268/1/4
f 269/1/4 270/1/4 271/1/4
f 271/1/4 270/1/4 272/1/4
f 273/1/4 274/1/4 275/1/4
f 275/1/4 274/1/4 276/1/4
f 277/4/4 278/4/4 279/4/4
f 279/4/4 278/4/4 280/4/4
f 283/4/5 282/4/5 281/4/5
f 284/4/5 282/4/5 283/4/5
f 285/4/5 283/4/5 281/4/5
f 286/4/5 283/4/5 285/4/5
f 287/1/5 286/1/5 285/1/5
f 287/4/5 283/4/5 286/4/5
f 288/4/5 283/4/5 287/4/5
f 289/4/5 285/4/5 281/4/5
f 289/1/5 287/1/5 285/1/5
f 289/1/5 288/1/5 287/1/5
f 290/1/5 288/1/5 289/1/5
f 291/4/5 282/4/5 284/4/5
f 292/4/5 290/4/5 289/4/5
f 292/4/5 291/4/5 290/4/5
f 292/4/5 289/4/5 281/4/5
f 293/4/5 282/4/5 291/4/5
f 293/4/5 291/4/5 292/4/5
f 296/1/5 295/1/5 294/1/5
f 297/1/5 295/1/5 296/1/5
f 298/1/5 295/1/5 297/1/5
f 301/1/5 300/1/5 299/1/5
f 302/1/5 300/1/5 301/1/5
f 305/4/5 304/4/5 303/4/5
f 306/4/5 304/4/5 305/4/5
f 309/1/5 308/1/5 307/1/5
f 310/1/5 308/1/5 309/1/5
f 313/1/5 312/1/5 311/1/5
f 314/1/5 312/1/5 313/1/5
f 317/1/5 316/1/5 315/1/5
f 318/1/5 316/1/5 317/1/5
f 321/1/5 320/1/5 319/1/5
f 322/1/5 320/1/5 321/1/5
f 323/2/6 324/2/6 326/2/6
f 326/2/6 324/2/6 327/2/6
f 325/2/6 326/2/6 329/2/6
f 327/2/6 328/2/6 329/2/6
f 326/2/6 327/2/6 329/2/6
f 329/2/6 328/2/6 330/2/6
f 325/2/6 329/2/6 331/2/6
f 331/2/6 329/2/6 332/2/6
f 332/2/6 329/2/6 333/2/6
f 333/2/6 329/2/6 334/2/6
f 335/1/6 336/1/6 337/1/6
f 337/1/6 336/1/6 338/1/6
f 339/1/6 340/1/6 341/1/6
f 341/1/6 340/1/6 342/1/6
f 343/1/6 344/1/6 345/1/6
f 345/1/6 344/1/6 346/1/6
f 345/3/6 346/3/6 347/3/6
f 346/1/6 344/1/6 347/1/6
f 347/1/6 344/1/6 348/1/6
f 343/1/6 345/1/6 349/1/6
f 345/3/6 347/3/6 350/3/6
f 349/1/6 345/1/6 350/1/6
f 347/3/6 348/3/6 350/3/6
f 349/3/6 350/3/6 351/3/6
f 350/3/6 348/3/6 351/3/6
f 351/3/6 348/3/6 352/3/6
f 343/1/6 349/1/6 353/1/6
f 349/3/6 351/3/6 353/3/6
f 351/1/6 352/1/6 354/1/6
f 353/3/6 351/3/6 354/3/6
f 343/1/6 353/1/6 355/1/6
f 353/1/6 354/1/6 355/1/6
f 354/1/6 352/1/6 356/1/6
f 355/1/6 354/1/6 356/1/6
f 357/1/6 358/1/6 359/1/6
f 359/1/6 358/1/6 360/1/6
f 357/1/6 359/1/6 361/1/6
f 361/1/6 359/1/6 362/1/6
f 359/3/6 360/3/6 363/3/6
f 362/1/6 359/1/6 363/1/6
f 363/3/6 360/3/6 364/3/6
f 360/1/6 358/1/6 365/1/6
f 364/3/6 360/3/6 365/3/6
f 365/1/6 358/1/6 366/1/6
f 366/1/6 358/1/6 367/1/6
f 367/1/6 358/1/6 368/1/6
f 361/3/6 362/3/6 369/3/6
f 369/3/6 362/3/6 370/3/6
f 363/1/6 364/1/6 371/1/6
f 370/3/6 362/3/6 371/3/6
f 362/1/6 363/1/6 371/1/6
f 364/3/6 365/3/6 372/3/6
f 371/1/6 364/1/6 372/1/6
f 365/3/6 366/3/6 372/3/6
f 367/3/6 368/3/6 373/3/6
f 366/1/6 367/1/6 373/1/6
f 373/3/6 368/3/6 374/3/6
f 369/1/6 370/1/6 375/1/6
f 370/3/6 371/3/6 375/3/6
f 371/3/6 372/3/6 375/3/6
f 373/1/6 374/1/6 376/1/6
f 375/3/6 372/3/6 376/3/6
f 372/3/6 366/3/6 376/3/6
f 366/1/6 373/1/6 376/1/6
f 376/1/6 374/1/6 377/1/6
f 375/1/6 376/1/6 378/1/6
f 376/3/6 377/3/6 378/3/6
f 377/1/6 374/1/6 379/1/6
f 378/3/6 377/3/6 379/3/6
f 369/1/6 375/1/6 380/1/6
f 375/1/6 378/1/6 380/1/6
f 378/1/6 379/1/6 380/1/6
f 379/1/6 374/1/6 381/1/6
f 380/1/6 379/1/6 381/1/6
f 382/1/6 383/1/6 384/1/6
f 384/1/6 383/1/6 385/1/6
f 382/1/6 384/1/6 386/1/6
f 384/3/6 385/3/6 387/3/6
f 386/1/6 384/1/6 387/1/6
f 386/3/6 387/3/6 388/3/6
f 387/3/6 385/3/6 389/3/6
f 388/3/6 387/3/6 389/3/6
f 389/3/6 385/3/6 390/3/6
f 385/1/6 383/1/6 391/1/6
f 390/3/6 385/3/6 391/3/6
f 391/1/6 383/1/6 392/1/6
f 392/1/6 383/1/6 393/1/6
f 388/1/6 389/1/6 394/1/6
f 394/1/6 389/1/6 395/1/6
f 395/1/6 389/1/6 396/1/6
f 389/3/6 390/3/6 397/3/6
f 396/1/6 389/1/6 397/1/6
f 395/1/6 396/1/6 398/1/6
f 394/3/6 395/3/6 398/3/6
f 396/3/6 397/3/6 399/3/6
f 398/1/6 396/1/6 399/1/6
f 390/1/6 391/1/6 400/1/6
f 391/1/6 392/1/6 400/1/6
f 392/3/6 393/3/6 401/3/6
f 400/1/6 392/1/6 401/1/6
f 399/3/6 397/3/6 402/3/6
f 398/3/6 399/3/6 402/3/6
f 397/3/6 390/3/6 403/3/6
f 402/3/6 397/3/6 403/3/6
f 390/1/6 400/1/6 403/1/6
f 403/1/6 400/1/6 404/1/6
f 398/3/6 402/3/6 405/3/6
f 394/3/6 398/3/6 405/3/6
f 402/1/6 403/1/6 406/1/6
f 405/3/6 402/3/6 406/3/6
f 403/3/6 404/3/6 407/3/6
f 406/1/6 403/1/6 407/1/6
f 405/1/6 406/1/6 407/1/6
f 404/1/6 400/1/6 408/1/6
f 407/3/6 404/3/6 408/3/6
f 400/3/6 401/3/6 409/3/6
f 408/1/6 400/1/6 409/1/6
f 407/1/6 408/1/6 410/1/6
f 408/3/6 409/3/6 410/3/6
f 401/3/6 393/3/6 411/3/6
f 410/3/6 409/3/6 411/3/6
f 409/3/6 401/3/6 411/3/6
f 405/1/6 407/1/6 412/1/6
f 407/1/6 410/1/6 412/1/6
f 410/1/6 411/1/6 412/1/6
f 412/1/6 411/1/6 413/1/6
f 414/1/6 415/1/6 416/1/6
f 414/1/6 416/1/6 418/1/6
f 416/1/6 417/1/6 418/1/6
f 418/1/6 417/1/6 419/1/6
f 414/1/6 418/1/6 420/1/6
f 418/3/6 419/3/6 421/3/6
f 420/1/6 418/1/6 421/1/6
f 421/3/6 419/3/6 422/3/6
f 422/3/6 419/3/6 423/3/6
f 414/1/6 420/1/6 424/1/6
f 420/3/6 421/3/6 425/3/6
f 424/1/6 420/1/6 425/1/6
f 421/3/6 422/3/6 425/3/6
f 414/1/6 424/1/6 426/1/6
f 426/1/6 424/1/6 427/1/6
f 427/1/6 424/1/6 428/1/6
f 424/3/6 425/3/6 429/3/6
f 428/1/6 424/1/6 429/1/6
f 425/3/6 422/3/6 430/3/6
f 429/3/6 425/3/6 430/3/6
f 428/3/6 429/3/6 430/3/6
f 422/1/6 423/1/6 430/1/6
f 423/3/6 419/3/6 431/3/6
f 430/1/6 423/1/6 431/1/6
f 430/3/6 431/3/6 432/3/6
f 431/3/6 419/3/6 432/3/6
f 419/1/6 417/1/6 433/1/6
f 432/3/6 419/3/6 433/3/6
f 430/3/6 432/3/6 434/3/6
f 432/1/6 433/1/6 434/1/6
f 433/1/6 417/1/6 435/1/6
f 434/1/6 433/1/6 435/1/6
f 426/3/6 427/3/6 436/3/6
f 427/1/6 428/1/6 436/1/6
f 436/1/6 428/1/6 437/1/6
f 430/3/6 434/3/6 438/3/6
f 437/1/6 428/1/6 438/1/6
f 428/3/6 430/3/6 438/3/6
f 434/3/6 435/3/6 438/3/6
f 438/3/6 435/3/6 439/3/6
f 436/3/6 437/3/6 440/3/6
f 437/1/6 438/1/6 440/1/6
f 438/1/6 439/1/6 440/1/6
f 439/3/6 435/3/6 441/3/6
f 440/1/6 439/1/6 441/1/6
f 436/3/6 440/3/6 442/3/6
f 426/3/6 436/3/6 442/3/6
f 440/3/6 441/3/6 442/3/6
f 442/3/6 441/3/6 443/3/6
f 426/3/6 442/3/6 444/3/6
f 442/1/6 443/1/6 445/1/6
f 444/3/6 442/3/6 445/3/6
f 435/1/6 417/1/6 446/1/6
f 446/1/6 417/1/6 447/1/6
f 441/3/6 435/3/6 448/3/6
f 443/3/6 441/3/6 448/3/6
f 435/1/6 446/1/6 449/1/6
f 448/3/6 435/3/6 449/3/6
f 446/3/6 447/3/6 450/3/6
f 449/1/6 446/1/6 450/1/6
f 448/1/6 449/1/6 450/1/6
f 447/1/6 417/1/6 451/1/6
f 450/3/6 447/3/6 451/3/6
f 444/1/6 445/1/6 452/1/6
f 445/1/6 443/1/6 453/1/6
f 452/1/6 445/1/6 453/1/6
f 443/3/6 448/3/6 453/3/6
f 448/1/6 450/1/6 454/1/6
f 453/3/6 448/3/6 454/3/6
f 450/1/6 451/1/6 454/1/6
f 451/1/6 417/1/6 455/1/6
f 454/1/6 451/1/6 455/1/6
f 455/1/6 417/1/6 456/1/6
f 456/1/6 417/1/6 457/1/6
f 458/1/6 459/1/6 460/1/6
f 460/1/6 459/1/6 461/1/6
f 462/1/6 463/1/6 464/1/6
f 464/1/6 463/1/6 465/1/6
f 466/1/6 467/1/6 468/1/6
f 468/1/6 467/1/6 469/1/6
f 470/1/6 471/1/6 472/1/6
f 472/1/6 471/1/6 473/1/6
f 474/1/6 475/1/6 476/1/6
f 476/1/6 475/1/6 477/1/6
f 478/4/6 479/4/6 480/4/6
f 480/4/6 479/4/6 481/4/6
f 481/4/6 479/4/6 482/4/6
f 481/1/6 482/1/6 483/1/6
f 482/4/6 479/4/6 484/4/6
f 483/1/6 482/1/6 484/1/6
f 478/4/6 480/4/6 485/4/6
f 484/4/6 479/4/6 486/4/6
f 478/4/6 485/4/6 487/4/6
f 485/4/6 486/4/6 487/4/6
f 486/4/6 479/4/6 488/4/6
f 487/4/6 486/4/6 488/4/6
