# MagicaVoxel @ Ephtracy

# group
g 2x2sec (3)-3

# material
mtllib 2x2sec (3)-3.mtl
usemtl palette

# normals
vn -1 0 0
vn 1 0 0
vn 0 0 1
vn 0 0 -1
vn 0 -1 0
vn 0 1 0

# texcoords
vt 0.978516 0.5
vt 0.982422 0.5

# verts
v -63 0 18
v -63 0 -63
v -63 2 18
v -63 2 6
v -63 2 4
v -63 2 2
v -63 6 3
v -63 6 2
v -63 7 4
v -63 7 3
v -63 11 5
v -63 11 4
v -63 12 5
v -63 12 4
v -63 12 3
v -63 12 2
v -63 14 3
v -63 14 2
v -63 18 18
v -63 18 14
v -63 18 13
v -63 18 6
v -63 19 18
v -63 19 17
v -63 19 8
v -63 19 7
v -63 20 14
v -63 20 13
v -63 22 18
v -63 22 17
v -63 22 8
v -63 22 7
v -63 25 -54
v -63 25 -56
v -63 25 -60
v -63 25 -62
v -63 29 -60
v -63 29 -62
v -63 30 -57
v -63 30 -63
v -63 31 -56
v -63 31 -57
v -63 32 -54
v -63 32 -56
v -63 36 -52
v -63 36 -56
v -63 36 -62
v -63 36 -63
v -63 38 -52
v -63 38 -53
v -63 38 -54
v -63 38 -56
v -63 39 -51
v -63 39 -52
v -63 40 -53
v -63 40 -54
v -63 40 -55
v -63 41 -52
v -63 41 -54
v -63 41 -55
v -63 41 -56
v -63 41 -62
v -63 41 -63
v -63 43 -51
v -63 43 -52
v -63 46 -50
v -63 46 -52
v -63 54 -50
v -63 54 -52
v -63 54 -54
v -63 54 -55
v -63 56 -55
v -63 56 -63
v -63 57 -52
v -63 57 -54
v -63 80 18
v -63 80 -63
v -7 32 18
v -7 32 16
v -7 61 18
v -7 61 17
v -7 61 16
v 52 32 18
v 52 32 16
v 52 61 18
v 52 61 16
v -61 1 16
v -61 1 -63
v -61 2 16
v -61 2 6
v -61 18 16
v -61 18 6
v -61 80 16
v -61 80 -63
v -53 32 18
v -53 32 16
v -53 61 18
v -53 61 16
v 6 32 18
v 6 32 16
v 6 61 18
v 6 61 16
v 63 0 18
v 63 0 16
v 63 0 -63
v 63 1 16
v 63 1 -63
v 63 80 18
v 63 80 16
v -63 0 18
v -63 2 18
v -63 18 18
v -63 19 18
v -63 22 18
v -63 80 18
v -62 18 18
v -62 19 18
v -61 21 18
v -61 22 18
v -55 18 18
v -55 21 18
v -53 32 18
v -53 61 18
v -49 2 18
v -49 4 18
v -49 9 18
v -49 14 18
v -49 17 18
v -49 18 18
v -48 14 18
v -48 17 18
v -46 4 18
v -46 9 18
v -10 61 18
v -10 68 18
v -8 68 18
v -8 70 18
v -7 32 18
v -7 61 18
v -4 70 18
v -4 71 18
v -3 57 18
v -3 61 18
v -3 71 18
v -3 72 18
v 0 71 18
v 0 72 18
v 1 62 18
v 1 64 18
v 2 58 18
v 2 62 18
v 2 64 18
v 3 57 18
v 3 58 18
v 4 69 18
v 4 71 18
v 6 32 18
v 6 61 18
v 6 62 18
v 6 64 18
v 7 64 18
v 7 69 18
v 8 65 18
v 8 68 18
v 9 66 18
v 9 68 18
v 10 65 18
v 10 66 18
v 52 32 18
v 52 61 18
v 63 0 18
v 63 80 18
v -61 1 16
v -61 2 16
v -61 18 16
v -61 80 16
v -53 32 16
v -53 61 16
v -49 2 16
v -49 14 16
v -49 17 16
v -49 18 16
v -48 14 16
v -48 17 16
v -7 32 16
v -7 61 16
v 6 32 16
v 6 61 16
v 52 32 16
v 52 61 16
v 63 1 16
v 63 80 16
v -63 0 -63
v -63 30 -63
v -63 36 -63
v -63 41 -63
v -63 56 -63
v -63 80 -63
v -62 30 -63
v -62 36 -63
v -62 41 -63
v -62 56 -63
v -61 0 -63
v -61 1 -63
v -61 80 -63
v 63 0 -63
v 63 1 -63
v -63 0 18
v 63 0 18
v -61 0 16
v 63 0 16
v -63 0 -63
v -61 0 -63
v 63 0 -63
v -53 61 18
v -10 61 18
v -7 61 18
v 6 61 18
v 52 61 18
v -10 61 17
v -7 61 17
v -53 61 16
v -7 61 16
v 6 61 16
v 52 61 16
v -61 1 16
v 63 1 16
v -61 1 -63
v 63 1 -63
v -53 32 18
v -7 32 18
v 6 32 18
v 52 32 18
v -53 32 16
v -7 32 16
v 6 32 16
v 52 32 16
v -63 80 18
v 63 80 18
v -61 80 16
v 63 80 16
v -63 80 -63
v -61 80 -63

# faces
f 3/1/1 2/1/1 1/1/1
f 4/1/1 2/1/1 3/1/1
f 5/1/1 2/1/1 4/1/1
f 6/1/1 2/1/1 5/1/1
f 7/2/1 6/2/1 5/2/1
f 8/1/1 2/1/1 6/1/1
f 8/2/1 6/2/1 7/2/1
f 9/1/1 5/1/1 4/1/1
f 9/2/1 7/2/1 5/2/1
f 10/1/1 8/1/1 7/1/1
f 10/2/1 7/2/1 9/2/1
f 11/1/1 9/1/1 4/1/1
f 11/1/1 10/1/1 9/1/1
f 12/1/1 10/1/1 11/1/1
f 13/1/1 11/1/1 4/1/1
f 13/2/1 12/2/1 11/2/1
f 14/1/1 10/1/1 12/1/1
f 14/2/1 12/2/1 13/2/1
f 15/1/1 8/1/1 10/1/1
f 15/1/1 10/1/1 14/1/1
f 16/1/1 2/1/1 8/1/1
f 16/1/1 8/1/1 15/1/1
f 17/1/1 15/1/1 14/1/1
f 17/1/1 14/1/1 13/1/1
f 17/2/1 16/2/1 15/2/1
f 18/1/1 2/1/1 16/1/1
f 18/2/1 16/2/1 17/2/1
f 19/2/1 4/2/1 3/2/1
f 20/2/1 4/2/1 19/2/1
f 21/2/1 4/2/1 20/2/1
f 22/1/1 17/1/1 13/1/1
f 22/2/1 4/2/1 21/2/1
f 22/1/1 13/1/1 4/1/1
f 22/1/1 18/1/1 17/1/1
f 23/1/1 20/1/1 19/1/1
f 24/1/1 20/1/1 23/1/1
f 25/1/1 22/1/1 21/1/1
f 26/1/1 22/1/1 25/1/1
f 27/2/1 21/2/1 20/2/1
f 27/1/1 20/1/1 24/1/1
f 28/1/1 25/1/1 21/1/1
f 28/2/1 21/2/1 27/2/1
f 29/2/1 24/2/1 23/2/1
f 30/1/1 27/1/1 24/1/1
f 30/2/1 24/2/1 29/2/1
f 30/1/1 28/1/1 27/1/1
f 31/2/1 26/2/1 25/2/1
f 31/1/1 28/1/1 30/1/1
f 31/1/1 25/1/1 28/1/1
f 32/1/1 22/1/1 26/1/1
f 32/2/1 26/2/1 31/2/1
f 33/1/1 2/1/1 18/1/1
f 33/1/1 22/1/1 32/1/1
f 33/1/1 32/1/1 31/1/1
f 33/1/1 31/1/1 30/1/1
f 33/1/1 18/1/1 22/1/1
f 33/1/1 30/1/1 29/1/1
f 34/1/1 2/1/1 33/1/1
f 35/1/1 2/1/1 34/1/1
f 36/1/1 2/1/1 35/1/1
f 37/1/1 35/1/1 34/1/1
f 37/2/1 36/2/1 35/2/1
f 38/1/1 2/1/1 36/1/1
f 38/2/1 36/2/1 37/2/1
f 39/1/1 37/1/1 34/1/1
f 39/1/1 38/1/1 37/1/1
f 40/1/1 2/1/1 38/1/1
f 40/1/1 38/1/1 39/1/1
f 41/2/1 34/2/1 33/2/1
f 41/1/1 39/1/1 34/1/1
f 42/2/1 40/2/1 39/2/1
f 42/1/1 39/1/1 41/1/1
f 43/1/1 33/1/1 29/1/1
f 43/2/1 41/2/1 33/2/1
f 43/2/1 42/2/1 41/2/1
f 44/2/1 42/2/1 43/2/1
f 45/1/1 43/1/1 29/1/1
f 45/1/1 44/1/1 43/1/1
f 46/2/1 42/2/1 44/2/1
f 46/1/1 44/1/1 45/1/1
f 47/2/1 40/2/1 42/2/1
f 47/2/1 42/2/1 46/2/1
f 48/2/1 40/2/1 47/2/1
f 49/2/1 46/2/1 45/2/1
f 49/1/1 45/1/1 29/1/1
f 49/2/1 47/2/1 46/2/1
f 50/2/1 47/2/1 49/2/1
f 51/2/1 47/2/1 50/2/1
f 52/2/1 47/2/1 51/2/1
f 53/1/1 49/1/1 29/1/1
f 53/1/1 50/1/1 49/1/1
f 54/1/1 50/1/1 53/1/1
f 55/2/1 51/2/1 50/2/1
f 55/1/1 50/1/1 54/1/1
f 56/1/1 52/1/1 51/1/1
f 56/2/1 51/2/1 55/2/1
f 57/1/1 52/1/1 56/1/1
f 58/1/1 55/1/1 54/1/1
f 58/2/1 54/2/1 53/2/1
f 58/1/1 56/1/1 55/1/1
f 59/2/1 57/2/1 56/2/1
f 59/1/1 56/1/1 58/1/1
f 60/1/1 52/1/1 57/1/1
f 60/2/1 57/2/1 59/2/1
f 61/2/1 47/2/1 52/2/1
f 61/1/1 52/1/1 60/1/1
f 62/1/1 48/1/1 47/1/1
f 62/2/1 47/2/1 61/2/1
f 63/1/1 48/1/1 62/1/1
f 64/2/1 61/2/1 60/2/1
f 64/2/1 60/2/1 59/2/1
f 64/2/1 63/2/1 62/2/1
f 64/2/1 62/2/1 61/2/1
f 64/1/1 53/1/1 29/1/1
f 64/2/1 58/2/1 53/2/1
f 64/2/1 59/2/1 58/2/1
f 65/2/1 63/2/1 64/2/1
f 66/1/1 64/1/1 29/1/1
f 66/1/1 65/1/1 64/1/1
f 67/2/1 63/2/1 65/2/1
f 67/1/1 65/1/1 66/1/1
f 68/1/1 66/1/1 29/1/1
f 68/2/1 67/2/1 66/2/1
f 69/2/1 63/2/1 67/2/1
f 69/2/1 67/2/1 68/2/1
f 70/2/1 63/2/1 69/2/1
f 71/2/1 63/2/1 70/2/1
f 72/1/1 71/1/1 70/1/1
f 72/2/1 63/2/1 71/2/1
f 73/2/1 63/2/1 72/2/1
f 74/1/1 69/1/1 68/1/1
f 74/2/1 70/2/1 69/2/1
f 75/1/1 73/1/1 72/1/1
f 75/2/1 70/2/1 74/2/1
f 75/1/1 72/1/1 70/1/1
f 76/1/1 68/1/1 29/1/1
f 76/1/1 74/1/1 68/1/1
f 76/1/1 75/1/1 74/1/1
f 77/1/1 73/1/1 75/1/1
f 77/1/1 75/1/1 76/1/1
f 80/1/1 79/1/1 78/1/1
f 81/1/1 79/1/1 80/1/1
f 82/1/1 79/1/1 81/1/1
f 85/1/1 84/1/1 83/1/1
f 86/1/1 84/1/1 85/1/1
f 87/1/2 88/1/2 89/1/2
f 89/1/2 88/1/2 90/1/2
f 89/2/2 90/2/2 91/2/2
f 90/1/2 88/1/2 92/1/2
f 91/2/2 90/2/2 92/2/2
f 91/1/2 92/1/2 93/1/2
f 92/1/2 88/1/2 94/1/2
f 93/1/2 92/1/2 94/1/2
f 95/1/2 96/1/2 97/1/2
f 97/1/2 96/1/2 98/1/2
f 99/1/2 100/1/2 101/1/2
f 101/1/2 100/1/2 102/1/2
f 103/1/2 104/1/2 106/1/2
f 104/2/2 105/2/2 106/2/2
f 106/2/2 105/2/2 107/2/2
f 103/1/2 106/1/2 108/1/2
f 108/1/2 106/1/2 109/1/2
f 116/2/3 112/2/3 111/2/3
f 116/1/3 113/1/3 112/1/3
f 117/2/3 114/2/3 113/2/3
f 117/1/3 113/1/3 116/1/3
f 118/2/3 117/2/3 116/2/3
f 118/2/3 114/2/3 117/2/3
f 119/1/3 115/1/3 114/1/3
f 119/2/3 114/2/3 118/2/3
f 120/2/3 118/2/3 116/2/3
f 120/2/3 116/2/3 111/2/3
f 121/1/3 119/1/3 118/1/3
f 121/2/3 118/2/3 120/2/3
f 122/1/3 115/1/3 119/1/3
f 122/1/3 119/1/3 121/1/3
f 122/1/3 121/1/3 120/1/3
f 123/1/3 115/1/3 122/1/3
f 124/1/3 111/1/3 110/1/3
f 124/2/3 120/2/3 111/2/3
f 125/2/3 120/2/3 124/2/3
f 126/2/3 120/2/3 125/2/3
f 127/2/3 120/2/3 126/2/3
f 128/2/3 120/2/3 127/2/3
f 129/1/3 122/1/3 120/1/3
f 129/2/3 120/2/3 128/2/3
f 130/2/3 128/2/3 127/2/3
f 130/1/3 127/1/3 126/1/3
f 131/1/3 129/1/3 128/1/3
f 131/2/3 128/2/3 130/2/3
f 132/1/3 125/1/3 124/1/3
f 132/2/3 126/2/3 125/2/3
f 133/1/3 131/1/3 130/1/3
f 133/2/3 126/2/3 132/2/3
f 133/1/3 130/1/3 126/1/3
f 134/1/3 115/1/3 123/1/3
f 135/1/3 115/1/3 134/1/3
f 136/2/3 135/2/3 134/2/3
f 136/1/3 115/1/3 135/1/3
f 137/1/3 115/1/3 136/1/3
f 138/1/3 131/1/3 133/1/3
f 138/1/3 122/1/3 129/1/3
f 138/1/3 129/1/3 131/1/3
f 138/1/3 133/1/3 132/1/3
f 139/2/3 137/2/3 136/2/3
f 139/2/3 136/2/3 134/2/3
f 140/1/3 115/1/3 137/1/3
f 140/2/3 137/2/3 139/2/3
f 141/1/3 115/1/3 140/1/3
f 142/1/3 139/1/3 138/1/3
f 143/2/3 140/2/3 139/2/3
f 143/1/3 139/1/3 142/1/3
f 143/2/3 141/2/3 140/2/3
f 144/1/3 115/1/3 141/1/3
f 144/2/3 141/2/3 143/2/3
f 145/1/3 115/1/3 144/1/3
f 146/2/3 143/2/3 142/2/3
f 146/2/3 144/2/3 143/2/3
f 146/2/3 145/2/3 144/2/3
f 147/1/3 115/1/3 145/1/3
f 147/2/3 145/2/3 146/2/3
f 148/2/3 146/2/3 142/2/3
f 149/2/3 146/2/3 148/2/3
f 150/2/3 148/2/3 142/2/3
f 151/1/3 149/1/3 148/1/3
f 151/2/3 148/2/3 150/2/3
f 152/2/3 146/2/3 149/2/3
f 152/1/3 149/1/3 151/1/3
f 153/1/3 142/1/3 138/1/3
f 153/2/3 150/2/3 142/2/3
f 154/1/3 151/1/3 150/1/3
f 154/2/3 150/2/3 153/2/3
f 155/2/3 146/2/3 152/2/3
f 155/2/3 152/2/3 151/2/3
f 156/1/3 147/1/3 146/1/3
f 156/2/3 146/2/3 155/2/3
f 157/1/3 138/1/3 132/1/3
f 157/1/3 153/1/3 138/1/3
f 157/1/3 154/1/3 153/1/3
f 158/1/3 151/1/3 154/1/3
f 158/1/3 154/1/3 157/1/3
f 159/2/3 155/2/3 151/2/3
f 159/1/3 151/1/3 158/1/3
f 160/2/3 155/2/3 159/2/3
f 161/2/3 155/2/3 160/2/3
f 161/1/3 160/1/3 159/1/3
f 161/1/3 159/1/3 158/1/3
f 162/1/3 156/1/3 155/1/3
f 162/2/3 155/2/3 161/2/3
f 163/1/3 162/1/3 161/1/3
f 164/1/3 162/1/3 163/1/3
f 165/2/3 164/2/3 163/2/3
f 166/1/3 162/1/3 164/1/3
f 166/2/3 164/2/3 165/2/3
f 167/1/3 163/1/3 161/1/3
f 167/2/3 165/2/3 163/2/3
f 168/1/3 166/1/3 165/1/3
f 168/2/3 165/2/3 167/2/3
f 169/1/3 157/1/3 132/1/3
f 170/1/3 161/1/3 158/1/3
f 170/1/3 167/1/3 161/1/3
f 170/1/3 168/1/3 167/1/3
f 171/1/3 124/1/3 110/1/3
f 171/1/3 170/1/3 169/1/3
f 171/1/3 132/1/3 124/1/3
f 171/1/3 169/1/3 132/1/3
f 172/1/3 115/1/3 147/1/3
f 172/1/3 170/1/3 171/1/3
f 172/1/3 147/1/3 156/1/3
f 172/1/3 156/1/3 162/1/3
f 172/1/3 162/1/3 166/1/3
f 172/1/3 166/1/3 168/1/3
f 172/1/3 168/1/3 170/1/3
f 175/1/4 176/1/4 177/1/4
f 177/1/4 176/1/4 178/1/4
f 173/1/4 174/1/4 179/1/4
f 174/2/4 175/2/4 179/2/4
f 179/2/4 175/2/4 180/2/4
f 180/2/4 175/2/4 181/2/4
f 175/1/4 177/1/4 182/1/4
f 181/2/4 175/2/4 182/2/4
f 180/2/4 181/2/4 183/2/4
f 179/1/4 180/1/4 183/1/4
f 181/1/4 182/1/4 184/1/4
f 183/2/4 181/2/4 184/2/4
f 182/1/4 177/1/4 185/1/4
f 184/1/4 182/1/4 185/1/4
f 183/1/4 184/1/4 185/1/4
f 178/1/4 176/1/4 186/1/4
f 183/1/4 185/1/4 187/1/4
f 185/1/4 186/1/4 187/1/4
f 186/1/4 176/1/4 188/1/4
f 187/1/4 186/1/4 188/1/4
f 183/1/4 187/1/4 189/1/4
f 188/1/4 176/1/4 190/1/4
f 183/1/4 189/1/4 191/1/4
f 189/1/4 190/1/4 191/1/4
f 179/1/4 183/1/4 191/1/4
f 173/1/4 179/1/4 191/1/4
f 190/1/4 176/1/4 192/1/4
f 191/1/4 190/1/4 192/1/4
f 193/1/4 194/1/4 199/1/4
f 194/2/4 195/2/4 199/2/4
f 195/1/4 196/1/4 200/1/4
f 199/2/4 195/2/4 200/2/4
f 196/2/4 197/2/4 201/2/4
f 200/1/4 196/1/4 201/1/4
f 197/1/4 198/1/4 202/1/4
f 201/2/4 197/2/4 202/2/4
f 200/1/4 201/1/4 203/1/4
f 199/1/4 200/1/4 203/1/4
f 201/1/4 202/1/4 203/1/4
f 193/1/4 199/1/4 203/1/4
f 203/1/4 202/1/4 204/1/4
f 202/1/4 198/1/4 205/1/4
f 204/1/4 202/1/4 205/1/4
f 203/2/4 204/2/4 206/2/4
f 206/2/4 204/2/4 207/2/4
f 210/1/5 209/1/5 208/1/5
f 211/1/5 209/1/5 210/1/5
f 212/1/5 210/1/5 208/1/5
f 213/2/5 211/2/5 210/2/5
f 213/1/5 210/1/5 212/1/5
f 214/2/5 211/2/5 213/2/5
f 220/1/5 216/1/5 215/1/5
f 220/2/5 217/2/5 216/2/5
f 221/2/5 217/2/5 220/2/5
f 222/1/5 220/1/5 215/1/5
f 222/1/5 221/1/5 220/1/5
f 223/1/5 221/1/5 222/1/5
f 224/1/5 219/1/5 218/1/5
f 225/1/5 219/1/5 224/1/5
f 226/2/6 227/2/6 228/2/6
f 228/2/6 227/2/6 229/2/6
f 230/1/6 231/1/6 234/1/6
f 234/1/6 231/1/6 235/1/6
f 232/1/6 233/1/6 236/1/6
f 236/1/6 233/1/6 237/1/6
f 238/1/6 239/1/6 240/1/6
f 240/1/6 239/1/6 241/1/6
f 238/1/6 240/1/6 242/1/6
f 242/1/6 240/1/6 243/1/6
