# MagicaVoxel @ Ephtracy

# group
g 2x2third (1)-0

# material
mtllib 2x2third (1)-0.mtl
usemtl palette

# normals
vn -1 0 0
vn 1 0 0
vn 0 0 1
vn 0 0 -1
vn 0 -1 0
vn 0 1 0

# texcoords
vt 0.560547 0.5
vt 0.978516 0.5

# verts
v -63 0 63
v -63 0 -63
v -63 80 63
v -63 80 -63
v -16 1 63
v -16 1 62
v -16 41 63
v -16 41 62
v 61 0 26
v 61 0 -61
v 61 1 62
v 61 1 26
v 61 80 62
v 61 80 -61
v -62 1 62
v -62 1 -61
v -62 80 62
v -62 80 -61
v -46 1 63
v -46 1 62
v -46 41 63
v -46 41 62
v 22 0 26
v 22 0 -61
v 22 1 26
v 22 1 -61
v 63 0 63
v 63 0 -63
v 63 80 63
v 63 80 -63
v -63 0 63
v -63 80 63
v -46 0 63
v -46 1 63
v -46 41 63
v -16 0 63
v -16 1 63
v -16 41 63
v 63 0 63
v 63 80 63
v -62 1 -61
v -62 80 -61
v 22 0 -61
v 22 1 -61
v 61 0 -61
v 61 80 -61
v -62 1 62
v -62 80 62
v -46 1 62
v -46 41 62
v -16 1 62
v -16 41 62
v 61 1 62
v 61 80 62
v 22 0 26
v 22 1 26
v 61 0 26
v 61 1 26
v -63 0 -63
v -63 80 -63
v 63 0 -63
v 63 80 -63
v -63 0 63
v -46 0 63
v -16 0 63
v 63 0 63
v -62 0 62
v -46 0 62
v -16 0 62
v 61 0 62
v 22 0 26
v 61 0 26
v -62 0 -61
v 22 0 -61
v 61 0 -61
v -63 0 -63
v 63 0 -63
v -46 41 63
v -16 41 63
v -46 41 62
v -16 41 62
v -46 1 63
v -16 1 63
v -62 1 62
v -46 1 62
v -16 1 62
v 61 1 62
v 22 1 26
v 61 1 26
v -62 1 -61
v 22 1 -61
v -63 80 63
v 63 80 63
v -62 80 62
v 61 80 62
v -62 80 -61
v 61 80 -61
v -63 80 -63
v 63 80 -63

# faces
f 3/2/1 2/2/1 1/2/1
f 4/2/1 2/2/1 3/2/1
f 7/2/1 6/2/1 5/2/1
f 8/2/1 6/2/1 7/2/1
f 12/2/1 10/2/1 9/2/1
f 13/2/1 12/2/1 11/2/1
f 14/2/1 10/2/1 12/2/1
f 14/2/1 12/2/1 13/2/1
f 15/2/2 16/2/2 17/2/2
f 17/2/2 16/2/2 18/2/2
f 19/2/2 20/2/2 21/2/2
f 21/2/2 20/2/2 22/2/2
f 23/1/2 24/1/2 25/1/2
f 25/1/2 24/1/2 26/1/2
f 27/2/2 28/2/2 29/2/2
f 29/2/2 28/2/2 30/2/2
f 33/2/3 32/2/3 31/2/3
f 34/2/3 32/2/3 33/2/3
f 35/2/3 32/2/3 34/2/3
f 36/1/3 34/1/3 33/1/3
f 37/1/3 34/1/3 36/1/3
f 38/2/3 32/2/3 35/2/3
f 39/2/3 37/2/3 36/2/3
f 39/2/3 38/2/3 37/2/3
f 40/2/3 32/2/3 38/2/3
f 40/2/3 38/2/3 39/2/3
f 44/2/3 42/2/3 41/2/3
f 45/2/3 44/2/3 43/2/3
f 46/2/3 42/2/3 44/2/3
f 46/2/3 44/2/3 45/2/3
f 47/2/4 48/2/4 49/2/4
f 49/2/4 48/2/4 50/2/4
f 50/2/4 48/2/4 52/2/4
f 51/2/4 52/2/4 53/2/4
f 52/2/4 48/2/4 54/2/4
f 53/2/4 52/2/4 54/2/4
f 55/1/4 56/1/4 57/1/4
f 57/1/4 56/1/4 58/1/4
f 59/2/4 60/2/4 61/2/4
f 61/2/4 60/2/4 62/2/4
f 67/2/5 64/2/5 63/2/5
f 68/1/5 65/1/5 64/1/5
f 68/2/5 64/2/5 67/2/5
f 69/2/5 66/2/5 65/2/5
f 69/1/5 65/1/5 68/1/5
f 70/2/5 66/2/5 69/2/5
f 71/1/5 68/1/5 67/1/5
f 71/1/5 69/1/5 68/1/5
f 71/1/5 70/1/5 69/1/5
f 72/2/5 66/2/5 70/2/5
f 72/1/5 70/1/5 71/1/5
f 73/1/5 71/1/5 67/1/5
f 73/2/5 67/2/5 63/2/5
f 74/1/5 71/1/5 73/1/5
f 75/2/5 66/2/5 72/2/5
f 76/2/5 74/2/5 73/2/5
f 76/2/5 75/2/5 74/2/5
f 76/2/5 73/2/5 63/2/5
f 77/2/5 66/2/5 75/2/5
f 77/2/5 75/2/5 76/2/5
f 80/2/5 79/2/5 78/2/5
f 81/2/5 79/2/5 80/2/5
f 82/1/6 83/1/6 85/1/6
f 85/1/6 83/1/6 86/1/6
f 84/1/6 85/1/6 88/1/6
f 86/1/6 87/1/6 88/1/6
f 85/1/6 86/1/6 88/1/6
f 88/1/6 87/1/6 89/1/6
f 84/1/6 88/1/6 90/1/6
f 90/1/6 88/1/6 91/1/6
f 92/2/6 93/2/6 94/2/6
f 94/2/6 93/2/6 95/2/6
f 92/2/6 94/2/6 96/2/6
f 95/2/6 93/2/6 97/2/6
f 92/2/6 96/2/6 98/2/6
f 96/2/6 97/2/6 98/2/6
f 97/2/6 93/2/6 99/2/6
f 98/2/6 97/2/6 99/2/6
