# MagicaVoxel @ Ephtracy

# group
g 4x2 first (1)-4

# material
mtllib 4x2 first (1)-4.mtl
usemtl palette

# normals
vn -1 0 0
vn 1 0 0
vn 0 0 1
vn 0 0 -1
vn 0 -1 0
vn 0 1 0

# texcoords
vt 0.873047 0.5
vt 0.962891 0.5
vt 0.966797 0.5
vt 0.970703 0.5
vt 0.974609 0.5
vt 0.982422 0.5
vt 0.990234 0.5
vt 0.994141 0.5

# verts
v -63 0 63
v -63 0 -63
v -63 5 63
v -63 5 9
v -63 80 9
v -63 80 -63
v -55 5 10
v -55 5 9
v -55 64 10
v -55 64 9
v -41 67 10
v -41 67 9
v -41 73 10
v -41 73 9
v -15 5 10
v -15 5 9
v -15 58 10
v -15 58 9
v -2 31 10
v -2 31 9
v -2 41 10
v -2 41 9
v 8 5 10
v 8 5 9
v 8 64 10
v 8 64 9
v 22 67 10
v 22 67 9
v 22 73 10
v 22 73 9
v 48 5 10
v 48 5 9
v 48 58 10
v 48 58 9
v 62 5 8
v 62 5 -61
v 62 79 8
v 62 79 -61
v -62 5 8
v -62 5 -61
v -62 79 8
v -62 79 -61
v -45 5 10
v -45 5 9
v -45 58 10
v -45 58 9
v -19 67 10
v -19 67 9
v -19 73 10
v -19 73 9
v -5 5 10
v -5 5 9
v -5 64 10
v -5 64 9
v 5 31 10
v 5 31 9
v 5 41 10
v 5 41 9
v 18 5 10
v 18 5 9
v 18 58 10
v 18 58 9
v 44 67 10
v 44 67 9
v 44 73 10
v 44 73 9
v 58 5 10
v 58 5 9
v 58 64 10
v 58 64 9
v 63 0 63
v 63 0 -63
v 63 5 63
v 63 5 9
v 63 80 9
v 63 80 -63
v -63 0 63
v -63 5 63
v -43 4 63
v -43 5 63
v -42 3 63
v -42 4 63
v -39 3 63
v -39 4 63
v -33 4 63
v -33 5 63
v -31 4 63
v -31 5 63
v -27 2 63
v -27 4 63
v -25 2 63
v -25 5 63
v 63 0 63
v 63 5 63
v -55 5 10
v -55 64 10
v -45 5 10
v -45 58 10
v -41 67 10
v -41 73 10
v -40 68 10
v -40 72 10
v -20 68 10
v -20 72 10
v -19 67 10
v -19 73 10
v -15 5 10
v -15 58 10
v -11 5 10
v -5 5 10
v -5 64 10
v -2 31 10
v -2 41 10
v -1 34 10
v -1 35 10
v -1 37 10
v -1 38 10
v 0 35 10
v 0 37 10
v 1 34 10
v 1 38 10
v 2 34 10
v 2 38 10
v 3 35 10
v 3 37 10
v 4 34 10
v 4 35 10
v 4 37 10
v 4 38 10
v 5 31 10
v 5 41 10
v 8 5 10
v 8 64 10
v 18 5 10
v 18 58 10
v 22 67 10
v 22 73 10
v 23 68 10
v 23 72 10
v 43 68 10
v 43 72 10
v 44 67 10
v 44 73 10
v 48 5 10
v 48 58 10
v 58 5 10
v 58 64 10
v -63 5 9
v -63 80 9
v -55 5 9
v -55 64 9
v -45 5 9
v -45 58 9
v -41 67 9
v -41 73 9
v -30 5 9
v -30 58 9
v -29 5 9
v -29 58 9
v -19 67 9
v -19 73 9
v -15 5 9
v -15 58 9
v -5 5 9
v -5 64 9
v -2 31 9
v -2 41 9
v 5 31 9
v 5 41 9
v 8 5 9
v 8 64 9
v 18 5 9
v 18 58 9
v 22 67 9
v 22 73 9
v 34 5 9
v 34 58 9
v 35 5 9
v 35 58 9
v 44 67 9
v 44 73 9
v 48 5 9
v 48 58 9
v 58 5 9
v 58 64 9
v 63 5 9
v 63 80 9
v -62 5 -61
v -62 79 -61
v 62 5 -61
v 62 79 -61
v -62 5 8
v -62 79 8
v -45 5 8
v -45 58 8
v -30 5 8
v -30 58 8
v -29 5 8
v -29 58 8
v -15 5 8
v -15 58 8
v 18 5 8
v 18 58 8
v 34 5 8
v 34 58 8
v 35 5 8
v 35 58 8
v 48 5 8
v 48 58 8
v 62 5 8
v 62 79 8
v -63 0 -63
v -63 80 -63
v 63 0 -63
v 63 80 -63
v -63 0 63
v 63 0 63
v -63 0 -63
v 63 0 -63
v -2 31 10
v 5 31 10
v -2 31 9
v 5 31 9
v -45 58 10
v -15 58 10
v 18 58 10
v 48 58 10
v -45 58 9
v -30 58 9
v -29 58 9
v -15 58 9
v 18 58 9
v 34 58 9
v 35 58 9
v 48 58 9
v -41 67 10
v -19 67 10
v 22 67 10
v 44 67 10
v -41 67 9
v -19 67 9
v 22 67 9
v 44 67 9
v -62 79 8
v 62 79 8
v -62 79 -61
v 62 79 -61
v -63 5 63
v -43 5 63
v -33 5 63
v -31 5 63
v -25 5 63
v 63 5 63
v -31 5 62
v -27 5 62
v -25 5 60
v -24 5 60
v -33 5 58
v -32 5 58
v -27 5 56
v -26 5 56
v -24 5 55
v -19 5 55
v -26 5 54
v -24 5 54
v -19 5 43
v -17 5 43
v -43 5 42
v -39 5 42
v -32 5 41
v -26 5 41
v -19 5 41
v -17 5 41
v -48 5 40
v -41 5 40
v -40 5 40
v -39 5 40
v -14 5 40
v -11 5 40
v -32 5 39
v -29 5 39
v -28 5 39
v -26 5 39
v -19 5 39
v -18 5 39
v -46 5 38
v -41 5 38
v -17 5 38
v -14 5 38
v -11 5 38
v -8 5 38
v -46 5 37
v -40 5 37
v -32 5 37
v -29 5 37
v -25 5 37
v -24 5 37
v -18 5 37
v -17 5 37
v -28 5 35
v -25 5 35
v -39 5 34
v -36 5 34
v -8 5 34
v -5 5 34
v -50 5 33
v -48 5 33
v -39 5 33
v -38 5 33
v -29 5 31
v -28 5 31
v -4 5 31
v -1 5 31
v -39 5 30
v -38 5 30
v -36 5 30
v -29 5 30
v -28 5 30
v -46 5 29
v -44 5 29
v -40 5 29
v -39 5 29
v -50 5 28
v -49 5 28
v -48 5 28
v -46 5 28
v -38 5 28
v -35 5 28
v -30 5 28
v -28 5 28
v -5 5 28
v -4 5 28
v -3 5 28
v -1 5 28
v -49 5 27
v -48 5 27
v -45 5 27
v -44 5 27
v -40 5 27
v -35 5 27
v -30 5 27
v -28 5 27
v -51 5 26
v -50 5 26
v -5 5 26
v -3 5 26
v -49 5 25
v -45 5 25
v -50 5 24
v -49 5 24
v -56 5 23
v -53 5 23
v -5 5 22
v -2 5 22
v -53 5 21
v -51 5 21
v -5 5 19
v -2 5 19
v -56 5 17
v -53 5 17
v -53 5 13
v -50 5 13
v -11 5 13
v -5 5 13
v -48 5 12
v -45 5 12
v -50 5 11
v -48 5 11
v -55 5 10
v -45 5 10
v -15 5 10
v -11 5 10
v -5 5 10
v 8 5 10
v 18 5 10
v 48 5 10
v 58 5 10
v -63 5 9
v -55 5 9
v -45 5 9
v -30 5 9
v -29 5 9
v -15 5 9
v -5 5 9
v 8 5 9
v 18 5 9
v 34 5 9
v 35 5 9
v 48 5 9
v 58 5 9
v 63 5 9
v -62 5 8
v -45 5 8
v -30 5 8
v -29 5 8
v -15 5 8
v 18 5 8
v 34 5 8
v 35 5 8
v 48 5 8
v 62 5 8
v -62 5 -61
v 62 5 -61
v -2 41 10
v 5 41 10
v -2 41 9
v 5 41 9
v -55 64 10
v -5 64 10
v 8 64 10
v 58 64 10
v -55 64 9
v -5 64 9
v 8 64 9
v 58 64 9
v -41 73 10
v -19 73 10
v 22 73 10
v 44 73 10
v -41 73 9
v -19 73 9
v 22 73 9
v 44 73 9
v -63 80 9
v 63 80 9
v -63 80 -63
v 63 80 -63

# faces
f 3/3/1 2/3/1 1/3/1
f 4/3/1 2/3/1 3/3/1
f 5/3/1 2/3/1 4/3/1
f 6/3/1 2/3/1 5/3/1
f 9/5/1 8/5/1 7/5/1
f 10/5/1 8/5/1 9/5/1
f 13/4/1 12/4/1 11/4/1
f 14/4/1 12/4/1 13/4/1
f 17/5/1 16/5/1 15/5/1
f 18/5/1 16/5/1 17/5/1
f 21/4/1 20/4/1 19/4/1
f 22/4/1 20/4/1 21/4/1
f 25/5/1 24/5/1 23/5/1
f 26/5/1 24/5/1 25/5/1
f 29/4/1 28/4/1 27/4/1
f 30/4/1 28/4/1 29/4/1
f 33/5/1 32/5/1 31/5/1
f 34/5/1 32/5/1 33/5/1
f 37/3/1 36/3/1 35/3/1
f 38/3/1 36/3/1 37/3/1
f 39/3/2 40/3/2 41/3/2
f 41/3/2 40/3/2 42/3/2
f 43/5/2 44/5/2 45/5/2
f 45/5/2 44/5/2 46/5/2
f 47/4/2 48/4/2 49/4/2
f 49/4/2 48/4/2 50/4/2
f 51/5/2 52/5/2 53/5/2
f 53/5/2 52/5/2 54/5/2
f 55/4/2 56/4/2 57/4/2
f 57/4/2 56/4/2 58/4/2
f 59/5/2 60/5/2 61/5/2
f 61/5/2 60/5/2 62/5/2
f 63/4/2 64/4/2 65/4/2
f 65/4/2 64/4/2 66/4/2
f 67/5/2 68/5/2 69/5/2
f 69/5/2 68/5/2 70/5/2
f 71/3/2 72/3/2 73/3/2
f 73/3/2 72/3/2 74/3/2
f 74/3/2 72/3/2 75/3/2
f 75/3/2 72/3/2 76/3/2
f 79/3/3 78/3/3 77/3/3
f 80/3/3 78/3/3 79/3/3
f 81/3/3 79/3/3 77/3/3
f 82/1/3 80/1/3 79/1/3
f 82/3/3 79/3/3 81/3/3
f 83/3/3 81/3/3 77/3/3
f 83/1/3 82/1/3 81/1/3
f 84/1/3 80/1/3 82/1/3
f 84/1/3 82/1/3 83/1/3
f 85/3/3 84/3/3 83/3/3
f 85/1/3 80/1/3 84/1/3
f 86/1/3 80/1/3 85/1/3
f 87/3/3 85/3/3 83/3/3
f 87/3/3 86/3/3 85/3/3
f 88/3/3 86/3/3 87/3/3
f 89/3/3 83/3/3 77/3/3
f 89/3/3 87/3/3 83/3/3
f 90/1/3 88/1/3 87/1/3
f 90/3/3 87/3/3 89/3/3
f 91/3/3 89/3/3 77/3/3
f 91/1/3 90/1/3 89/1/3
f 92/1/3 88/1/3 90/1/3
f 92/1/3 90/1/3 91/1/3
f 93/3/3 91/3/3 77/3/3
f 93/3/3 92/3/3 91/3/3
f 94/3/3 92/3/3 93/3/3
f 97/5/3 96/5/3 95/5/3
f 98/5/3 96/5/3 97/5/3
f 101/4/3 100/4/3 99/4/3
f 102/4/3 100/4/3 101/4/3
f 103/4/3 101/4/3 99/4/3
f 103/2/3 102/2/3 101/2/3
f 104/4/3 100/4/3 102/4/3
f 104/2/3 102/2/3 103/2/3
f 105/4/3 103/4/3 99/4/3
f 105/4/3 104/4/3 103/4/3
f 106/4/3 100/4/3 104/4/3
f 106/4/3 104/4/3 105/4/3
f 108/5/3 96/5/3 98/5/3
f 109/5/3 108/5/3 107/5/3
f 110/5/3 108/5/3 109/5/3
f 111/5/3 96/5/3 108/5/3
f 111/5/3 108/5/3 110/5/3
f 114/4/3 113/4/3 112/4/3
f 115/4/3 113/4/3 114/4/3
f 116/4/3 113/4/3 115/4/3
f 117/4/3 113/4/3 116/4/3
f 118/3/3 115/3/3 114/3/3
f 118/7/3 116/7/3 115/7/3
f 119/3/3 117/3/3 116/3/3
f 119/7/3 116/7/3 118/7/3
f 120/4/3 114/4/3 112/4/3
f 120/3/3 118/3/3 114/3/3
f 120/3/3 119/3/3 118/3/3
f 121/3/3 117/3/3 119/3/3
f 121/3/3 119/3/3 120/3/3
f 121/4/3 113/4/3 117/4/3
f 122/4/3 120/4/3 112/4/3
f 122/4/3 121/4/3 120/4/3
f 123/4/3 113/4/3 121/4/3
f 123/4/3 121/4/3 122/4/3
f 124/3/3 123/3/3 122/3/3
f 125/3/3 123/3/3 124/3/3
f 126/4/3 122/4/3 112/4/3
f 126/3/3 124/3/3 122/3/3
f 127/7/3 125/7/3 124/7/3
f 127/3/3 124/3/3 126/3/3
f 128/3/3 123/3/3 125/3/3
f 128/7/3 125/7/3 127/7/3
f 129/4/3 113/4/3 123/4/3
f 129/3/3 123/3/3 128/3/3
f 130/4/3 127/4/3 126/4/3
f 130/4/3 128/4/3 127/4/3
f 130/4/3 129/4/3 128/4/3
f 130/4/3 126/4/3 112/4/3
f 131/4/3 113/4/3 129/4/3
f 131/4/3 129/4/3 130/4/3
f 134/5/3 133/5/3 132/5/3
f 135/5/3 133/5/3 134/5/3
f 138/4/3 137/4/3 136/4/3
f 139/4/3 137/4/3 138/4/3
f 140/4/3 138/4/3 136/4/3
f 140/2/3 139/2/3 138/2/3
f 141/4/3 137/4/3 139/4/3
f 141/2/3 139/2/3 140/2/3
f 142/4/3 140/4/3 136/4/3
f 142/4/3 141/4/3 140/4/3
f 143/4/3 137/4/3 141/4/3
f 143/4/3 141/4/3 142/4/3
f 145/5/3 133/5/3 135/5/3
f 146/5/3 145/5/3 144/5/3
f 147/5/3 133/5/3 145/5/3
f 147/5/3 145/5/3 146/5/3
f 150/3/3 149/3/3 148/3/3
f 151/3/3 149/3/3 150/3/3
f 154/3/3 149/3/3 151/3/3
f 155/3/3 149/3/3 154/3/3
f 156/6/3 153/6/3 152/6/3
f 157/6/3 153/6/3 156/6/3
f 158/8/3 157/8/3 156/8/3
f 159/8/3 157/8/3 158/8/3
f 160/3/3 154/3/3 151/3/3
f 161/3/3 149/3/3 155/3/3
f 162/6/3 159/6/3 158/6/3
f 163/6/3 159/6/3 162/6/3
f 165/3/3 160/3/3 151/3/3
f 165/3/3 161/3/3 160/3/3
f 166/3/3 165/3/3 164/3/3
f 167/3/3 165/3/3 166/3/3
f 168/3/3 166/3/3 164/3/3
f 169/3/3 165/3/3 167/3/3
f 170/3/3 168/3/3 164/3/3
f 170/3/3 169/3/3 168/3/3
f 171/3/3 161/3/3 165/3/3
f 171/3/3 169/3/3 170/3/3
f 171/3/3 165/3/3 169/3/3
f 174/3/3 161/3/3 171/3/3
f 175/3/3 149/3/3 161/3/3
f 175/3/3 161/3/3 174/3/3
f 176/6/3 173/6/3 172/6/3
f 177/6/3 173/6/3 176/6/3
f 178/8/3 177/8/3 176/8/3
f 179/8/3 177/8/3 178/8/3
f 180/3/3 174/3/3 171/3/3
f 181/3/3 149/3/3 175/3/3
f 182/6/3 179/6/3 178/6/3
f 183/6/3 179/6/3 182/6/3
f 185/3/3 181/3/3 180/3/3
f 185/3/3 180/3/3 171/3/3
f 186/3/3 185/3/3 184/3/3
f 187/3/3 149/3/3 181/3/3
f 187/3/3 185/3/3 186/3/3
f 187/3/3 181/3/3 185/3/3
f 190/3/3 189/3/3 188/3/3
f 191/3/3 189/3/3 190/3/3
f 192/3/4 193/3/4 194/3/4
f 194/3/4 193/3/4 195/3/4
f 194/6/4 195/6/4 196/6/4
f 195/3/4 193/3/4 197/3/4
f 196/6/4 195/6/4 197/6/4
f 196/8/4 197/8/4 198/8/4
f 197/3/4 193/3/4 199/3/4
f 198/8/4 197/8/4 199/8/4
f 198/6/4 199/6/4 200/6/4
f 199/3/4 193/3/4 201/3/4
f 200/6/4 199/6/4 201/6/4
f 200/3/4 201/3/4 202/3/4
f 201/3/4 193/3/4 203/3/4
f 202/3/4 201/3/4 203/3/4
f 202/6/4 203/6/4 204/6/4
f 203/3/4 193/3/4 205/3/4
f 204/6/4 203/6/4 205/6/4
f 204/8/4 205/8/4 206/8/4
f 205/3/4 193/3/4 207/3/4
f 206/8/4 205/8/4 207/8/4
f 206/6/4 207/6/4 208/6/4
f 207/3/4 193/3/4 209/3/4
f 208/6/4 207/6/4 209/6/4
f 208/3/4 209/3/4 210/3/4
f 209/3/4 193/3/4 211/3/4
f 210/3/4 209/3/4 211/3/4
f 212/3/4 213/3/4 214/3/4
f 214/3/4 213/3/4 215/3/4
f 218/3/5 217/3/5 216/3/5
f 219/3/5 217/3/5 218/3/5
f 222/4/5 221/4/5 220/4/5
f 223/4/5 221/4/5 222/4/5
f 228/5/5 225/5/5 224/5/5
f 229/5/5 225/5/5 228/5/5
f 230/5/5 225/5/5 229/5/5
f 231/5/5 225/5/5 230/5/5
f 232/5/5 227/5/5 226/5/5
f 233/5/5 227/5/5 232/5/5
f 234/5/5 227/5/5 233/5/5
f 235/5/5 227/5/5 234/5/5
f 240/4/5 237/4/5 236/4/5
f 241/4/5 237/4/5 240/4/5
f 242/4/5 239/4/5 238/4/5
f 243/4/5 239/4/5 242/4/5
f 246/3/5 245/3/5 244/3/5
f 247/3/5 245/3/5 246/3/5
f 250/3/6 251/3/6 254/3/6
f 251/1/6 252/1/6 254/1/6
f 254/1/6 252/1/6 255/1/6
f 252/3/6 253/3/6 256/3/6
f 255/1/6 252/1/6 256/1/6
f 256/3/6 253/3/6 257/3/6
f 249/1/6 250/1/6 258/1/6
f 254/3/6 255/3/6 258/3/6
f 250/3/6 254/3/6 258/3/6
f 258/3/6 255/3/6 259/3/6
f 256/1/6 257/1/6 260/1/6
f 259/3/6 255/3/6 260/3/6
f 255/1/6 256/1/6 260/1/6
f 260/1/6 257/1/6 261/1/6
f 257/3/6 253/3/6 262/3/6
f 261/1/6 257/1/6 262/1/6
f 262/3/6 253/3/6 263/3/6
f 260/3/6 261/3/6 264/3/6
f 261/1/6 262/1/6 264/1/6
f 262/1/6 263/1/6 264/1/6
f 264/1/6 263/1/6 265/1/6
f 263/3/6 253/3/6 266/3/6
f 265/1/6 263/1/6 266/1/6
f 266/3/6 253/3/6 267/3/6
f 248/3/6 249/3/6 268/3/6
f 258/1/6 259/1/6 268/1/6
f 249/1/6 258/1/6 268/1/6
f 268/1/6 259/1/6 269/1/6
f 264/3/6 265/3/6 270/3/6
f 269/1/6 259/1/6 270/1/6
f 259/3/6 260/3/6 270/3/6
f 260/3/6 264/3/6 270/3/6
f 270/3/6 265/3/6 271/3/6
f 266/1/6 267/1/6 272/1/6
f 265/1/6 266/1/6 272/1/6
f 267/3/6 253/3/6 273/3/6
f 272/1/6 267/1/6 273/1/6
f 268/3/6 269/3/6 274/3/6
f 248/3/6 268/3/6 274/3/6
f 274/3/6 269/3/6 275/3/6
f 275/3/6 269/3/6 276/3/6
f 270/1/6 271/1/6 277/1/6
f 276/3/6 269/3/6 277/3/6
f 269/1/6 270/1/6 277/1/6
f 273/3/6 253/3/6 278/3/6
f 272/3/6 273/3/6 278/3/6
f 278/3/6 253/3/6 279/3/6
f 277/1/6 271/1/6 280/1/6
f 276/1/6 277/1/6 280/1/6
f 280/1/6 271/1/6 281/1/6
f 281/1/6 271/1/6 282/1/6
f 271/3/6 265/3/6 283/3/6
f 282/1/6 271/1/6 283/1/6
f 265/1/6 272/1/6 284/1/6
f 272/3/6 278/3/6 284/3/6
f 284/3/6 278/3/6 285/3/6
f 274/1/6 275/1/6 286/1/6
f 275/3/6 276/3/6 287/3/6
f 286/1/6 275/1/6 287/1/6
f 285/3/6 278/3/6 288/3/6
f 278/1/6 279/1/6 289/1/6
f 288/3/6 278/3/6 289/3/6
f 279/3/6 253/3/6 290/3/6
f 289/1/6 279/1/6 290/1/6
f 290/3/6 253/3/6 291/3/6
f 274/1/6 286/1/6 292/1/6
f 286/3/6 287/3/6 292/3/6
f 287/3/6 276/3/6 293/3/6
f 292/3/6 287/3/6 293/3/6
f 276/1/6 280/1/6 293/1/6
f 280/3/6 281/3/6 294/3/6
f 293/1/6 280/1/6 294/1/6
f 281/1/6 282/1/6 295/1/6
f 294/3/6 281/3/6 295/3/6
f 283/3/6 265/3/6 296/3/6
f 282/3/6 283/3/6 296/3/6
f 265/1/6 284/1/6 297/1/6
f 296/3/6 265/3/6 297/3/6
f 284/1/6 285/1/6 297/1/6
f 285/3/6 288/3/6 298/3/6
f 297/1/6 285/1/6 298/1/6
f 288/1/6 289/1/6 299/1/6
f 298/3/6 288/3/6 299/3/6
f 289/1/6 290/1/6 299/1/6
f 290/1/6 291/1/6 299/1/6
f 295/1/6 282/1/6 300/1/6
f 293/1/6 294/1/6 300/1/6
f 294/1/6 295/1/6 300/1/6
f 292/1/6 293/1/6 300/1/6
f 282/3/6 296/3/6 300/3/6
f 297/1/6 298/1/6 301/1/6
f 300/3/6 296/3/6 301/3/6
f 298/1/6 299/1/6 301/1/6
f 296/1/6 297/1/6 301/1/6
f 292/1/6 300/1/6 302/1/6
f 300/1/6 301/1/6 302/1/6
f 302/1/6 301/1/6 303/1/6
f 299/1/6 291/1/6 304/1/6
f 303/1/6 301/1/6 304/1/6
f 301/1/6 299/1/6 304/1/6
f 291/3/6 253/3/6 304/3/6
f 304/3/6 253/3/6 305/3/6
f 248/3/6 274/3/6 306/3/6
f 292/1/6 302/1/6 307/1/6
f 306/3/6 274/3/6 307/3/6
f 274/1/6 292/1/6 307/1/6
f 302/3/6 303/3/6 308/3/6
f 307/1/6 302/1/6 308/1/6
f 308/3/6 303/3/6 309/3/6
f 304/1/6 305/1/6 310/1/6
f 303/1/6 304/1/6 310/1/6
f 310/1/6 305/1/6 311/1/6
f 305/3/6 253/3/6 312/3/6
f 312/3/6 253/3/6 313/3/6
f 306/1/6 307/1/6 314/1/6
f 308/1/6 309/1/6 314/1/6
f 307/1/6 308/1/6 314/1/6
f 309/3/6 303/3/6 315/3/6
f 314/1/6 309/1/6 315/1/6
f 303/1/6 310/1/6 316/1/6
f 315/3/6 303/3/6 316/3/6
f 310/3/6 311/3/6 317/3/6
f 316/1/6 310/1/6 317/1/6
f 311/1/6 305/1/6 318/1/6
f 317/3/6 311/3/6 318/3/6
f 306/1/6 314/1/6 319/1/6
f 319/1/6 314/1/6 320/1/6
f 320/1/6 314/1/6 321/1/6
f 314/3/6 315/3/6 322/3/6
f 321/1/6 314/1/6 322/1/6
f 248/3/6 306/3/6 323/3/6
f 306/1/6 319/1/6 323/1/6
f 323/1/6 319/1/6 324/1/6
f 324/1/6 319/1/6 325/1/6
f 319/3/6 320/3/6 326/3/6
f 325/1/6 319/1/6 326/1/6
f 322/3/6 315/3/6 327/3/6
f 316/1/6 317/1/6 327/1/6
f 315/1/6 316/1/6 327/1/6
f 317/1/6 318/1/6 327/1/6
f 321/3/6 322/3/6 327/3/6
f 327/1/6 318/1/6 328/1/6
f 328/1/6 318/1/6 329/1/6
f 318/1/6 305/1/6 330/1/6
f 329/1/6 318/1/6 330/1/6
f 305/3/6 312/3/6 331/3/6
f 330/1/6 305/1/6 331/1/6
f 312/1/6 313/1/6 332/1/6
f 331/3/6 312/3/6 332/3/6
f 332/1/6 313/1/6 333/1/6
f 313/3/6 253/3/6 334/3/6
f 333/1/6 313/1/6 334/1/6
f 323/3/6 324/3/6 335/3/6
f 324/1/6 325/1/6 335/1/6
f 325/3/6 326/3/6 336/3/6
f 335/1/6 325/1/6 336/1/6
f 326/3/6 320/3/6 337/3/6
f 336/3/6 326/3/6 337/3/6
f 320/1/6 321/1/6 338/1/6
f 337/3/6 320/3/6 338/3/6
f 321/3/6 327/3/6 339/3/6
f 338/1/6 321/1/6 339/1/6
f 327/3/6 328/3/6 339/3/6
f 328/1/6 329/1/6 340/1/6
f 339/3/6 328/3/6 340/3/6
f 329/3/6 330/3/6 341/3/6
f 340/1/6 329/1/6 341/1/6
f 332/1/6 333/1/6 342/1/6
f 341/3/6 330/3/6 342/3/6
f 330/1/6 331/1/6 342/1/6
f 331/1/6 332/1/6 342/1/6
f 335/3/6 336/3/6 343/3/6
f 323/3/6 335/3/6 343/3/6
f 336/3/6 337/3/6 343/3/6
f 248/3/6 323/3/6 343/3/6
f 343/3/6 337/3/6 344/3/6
f 340/1/6 341/1/6 345/1/6
f 342/1/6 333/1/6 345/1/6
f 341/1/6 342/1/6 345/1/6
f 338/1/6 339/1/6 345/1/6
f 337/1/6 338/1/6 345/1/6
f 339/1/6 340/1/6 345/1/6
f 333/3/6 334/3/6 346/3/6
f 345/1/6 333/1/6 346/1/6
f 344/3/6 337/3/6 347/3/6
f 337/1/6 345/1/6 348/1/6
f 347/3/6 337/3/6 348/3/6
f 343/1/6 344/1/6 349/1/6
f 344/3/6 347/3/6 349/3/6
f 347/1/6 348/1/6 350/1/6
f 349/3/6 347/3/6 350/3/6
f 248/3/6 343/3/6 351/3/6
f 351/3/6 343/3/6 352/3/6
f 348/1/6 345/1/6 353/1/6
f 350/1/6 348/1/6 353/1/6
f 345/3/6 346/3/6 353/3/6
f 349/1/6 350/1/6 353/1/6
f 346/3/6 334/3/6 354/3/6
f 353/3/6 346/3/6 354/3/6
f 352/3/6 343/3/6 355/3/6
f 351/1/6 352/1/6 355/1/6
f 349/1/6 353/1/6 356/1/6
f 355/3/6 343/3/6 356/3/6
f 353/1/6 354/1/6 356/1/6
f 343/1/6 349/1/6 356/1/6
f 355/1/6 356/1/6 357/1/6
f 356/1/6 354/1/6 357/1/6
f 354/3/6 334/3/6 358/3/6
f 357/1/6 354/1/6 358/1/6
f 351/1/6 355/1/6 359/1/6
f 355/1/6 357/1/6 359/1/6
f 248/3/6 351/3/6 359/3/6
f 359/1/6 357/1/6 360/1/6
f 359/3/6 360/3/6 361/3/6
f 360/1/6 357/1/6 361/1/6
f 361/1/6 357/1/6 362/1/6
f 362/1/6 357/1/6 363/1/6
f 357/3/6 358/3/6 364/3/6
f 363/1/6 357/1/6 364/1/6
f 362/1/6 363/1/6 365/1/6
f 365/1/6 363/1/6 366/1/6
f 361/3/6 362/3/6 367/3/6
f 362/1/6 365/1/6 367/1/6
f 365/3/6 366/3/6 368/3/6
f 367/1/6 365/1/6 368/1/6
f 359/3/6 361/3/6 369/3/6
f 361/3/6 367/3/6 369/3/6
f 367/3/6 368/3/6 369/3/6
f 368/3/6 366/3/6 370/3/6
f 369/3/6 368/3/6 370/3/6
f 366/1/6 363/1/6 370/1/6
f 370/1/6 363/1/6 371/1/6
f 363/3/6 364/3/6 372/3/6
f 371/1/6 363/1/6 372/1/6
f 364/3/6 358/3/6 373/3/6
f 372/3/6 364/3/6 373/3/6
f 358/3/6 334/3/6 374/3/6
f 373/3/6 358/3/6 374/3/6
f 334/3/6 253/3/6 374/3/6
f 374/3/6 253/3/6 375/3/6
f 375/3/6 253/3/6 376/3/6
f 376/3/6 253/3/6 377/3/6
f 248/3/6 359/3/6 378/3/6
f 359/3/6 369/3/6 378/3/6
f 378/3/6 369/3/6 379/3/6
f 370/1/6 371/1/6 380/1/6
f 380/1/6 371/1/6 381/1/6
f 381/1/6 371/1/6 382/1/6
f 382/1/6 371/1/6 383/1/6
f 373/3/6 374/3/6 384/3/6
f 384/3/6 374/3/6 385/3/6
f 375/3/6 376/3/6 386/3/6
f 386/3/6 376/3/6 387/3/6
f 387/3/6 376/3/6 388/3/6
f 388/3/6 376/3/6 389/3/6
f 377/3/6 253/3/6 390/3/6
f 390/3/6 253/3/6 391/3/6
f 392/3/6 393/3/6 402/3/6
f 400/3/6 401/3/6 402/3/6
f 399/3/6 400/3/6 402/3/6
f 398/3/6 399/3/6 402/3/6
f 397/3/6 398/3/6 402/3/6
f 396/3/6 397/3/6 402/3/6
f 395/3/6 396/3/6 402/3/6
f 394/3/6 395/3/6 402/3/6
f 393/3/6 394/3/6 402/3/6
f 402/3/6 401/3/6 403/3/6
f 404/4/6 405/4/6 406/4/6
f 406/4/6 405/4/6 407/4/6
f 408/5/6 409/5/6 412/5/6
f 412/5/6 409/5/6 413/5/6
f 410/5/6 411/5/6 414/5/6
f 414/5/6 411/5/6 415/5/6
f 416/4/6 417/4/6 420/4/6
f 420/4/6 417/4/6 421/4/6
f 418/4/6 419/4/6 422/4/6
f 422/4/6 419/4/6 423/4/6
f 424/3/6 425/3/6 426/3/6
f 426/3/6 425/3/6 427/3/6
