# MagicaVoxel @ Ephtracy

# group
g 4x2 second-4

# material
mtllib 4x2 second-4.mtl
usemtl palette

# normals
vn -1 0 0
vn 1 0 0
vn 0 0 1
vn 0 0 -1
vn 0 -1 0
vn 0 1 0

# texcoords
vt 0.419922 0.5
vt 0.958984 0.5
vt 0.962891 0.5
vt 0.966797 0.5
vt 0.970703 0.5
vt 0.974609 0.5
vt 0.982422 0.5
vt 0.990234 0.5
vt 0.994141 0.5

# verts
v -63 0 63
v -63 0 -63
v -63 80 63
v -63 80 -63
v -55 5 10
v -55 5 9
v -55 64 10
v -55 64 9
v -41 67 10
v -41 67 9
v -41 73 10
v -41 73 9
v -15 5 10
v -15 5 9
v -15 58 10
v -15 58 9
v -2 31 10
v -2 31 9
v -2 41 10
v -2 41 9
v 8 5 10
v 8 5 9
v 8 27 63
v 8 27 62
v 8 33 63
v 8 33 62
v 8 64 10
v 8 64 9
v 22 67 10
v 22 67 9
v 22 73 10
v 22 73 9
v 48 5 10
v 48 5 9
v 48 58 10
v 48 58 9
v 62 5 8
v 62 5 -61
v 62 79 8
v 62 79 -61
v -62 5 63
v -62 5 9
v -62 5 8
v -62 5 -61
v -62 79 8
v -62 79 -61
v -62 80 63
v -62 80 9
v -45 5 10
v -45 5 9
v -45 58 10
v -45 58 9
v -19 67 10
v -19 67 9
v -19 73 10
v -19 73 9
v -5 5 10
v -5 5 9
v -5 64 10
v -5 64 9
v 5 31 10
v 5 31 9
v 5 41 10
v 5 41 9
v 13 27 63
v 13 27 62
v 13 33 63
v 13 33 62
v 18 5 10
v 18 5 9
v 18 58 10
v 18 58 9
v 44 67 10
v 44 67 9
v 44 73 10
v 44 73 9
v 58 5 10
v 58 5 9
v 58 64 10
v 58 64 9
v 63 0 63
v 63 0 -63
v 63 4 63
v 63 4 9
v 63 5 63
v 63 5 9
v 63 80 9
v 63 80 -63
v -63 0 63
v -63 80 63
v -62 4 63
v -62 5 63
v -62 80 63
v 8 27 63
v 8 33 63
v 9 29 63
v 9 31 63
v 12 29 63
v 12 31 63
v 13 27 63
v 13 33 63
v 63 0 63
v 63 4 63
v 63 5 63
v -55 5 10
v -55 64 10
v -45 5 10
v -45 58 10
v -41 67 10
v -41 73 10
v -40 68 10
v -40 72 10
v -20 68 10
v -20 72 10
v -19 67 10
v -19 73 10
v -15 5 10
v -15 58 10
v -5 5 10
v -5 64 10
v -2 31 10
v -2 41 10
v -1 34 10
v -1 35 10
v -1 37 10
v -1 38 10
v 0 35 10
v 0 37 10
v 1 34 10
v 1 38 10
v 2 34 10
v 2 38 10
v 3 35 10
v 3 37 10
v 4 34 10
v 4 35 10
v 4 37 10
v 4 38 10
v 5 31 10
v 5 41 10
v 8 5 10
v 8 64 10
v 18 5 10
v 18 58 10
v 22 67 10
v 22 73 10
v 23 68 10
v 23 72 10
v 43 68 10
v 43 72 10
v 44 67 10
v 44 73 10
v 48 5 10
v 48 58 10
v 58 5 10
v 58 64 10
v -62 5 9
v -62 80 9
v -55 5 9
v -55 64 9
v -45 5 9
v -45 58 9
v -41 67 9
v -41 73 9
v -30 5 9
v -30 58 9
v -29 5 9
v -29 58 9
v -19 67 9
v -19 73 9
v -15 5 9
v -15 58 9
v -5 5 9
v -5 64 9
v -2 31 9
v -2 41 9
v 5 31 9
v 5 41 9
v 8 5 9
v 8 64 9
v 18 5 9
v 18 58 9
v 22 67 9
v 22 73 9
v 34 5 9
v 34 58 9
v 35 5 9
v 35 58 9
v 44 67 9
v 44 73 9
v 48 5 9
v 48 58 9
v 58 5 9
v 58 64 9
v 63 5 9
v 63 80 9
v -62 5 -61
v -62 79 -61
v 62 5 -61
v 62 79 -61
v 8 27 62
v 8 33 62
v 9 29 62
v 9 31 62
v 12 29 62
v 12 31 62
v 13 27 62
v 13 33 62
v -62 5 8
v -62 79 8
v -45 5 8
v -45 58 8
v -30 5 8
v -30 58 8
v -29 5 8
v -29 58 8
v -15 5 8
v -15 58 8
v 18 5 8
v 18 58 8
v 34 5 8
v 34 58 8
v 35 5 8
v 35 58 8
v 48 5 8
v 48 58 8
v 62 5 8
v 62 79 8
v -63 0 -63
v -63 80 -63
v 63 0 -63
v 63 80 -63
v -63 0 63
v 63 0 63
v -63 0 -63
v 63 0 -63
v 8 27 63
v 13 27 63
v 8 27 62
v 13 27 62
v -2 31 10
v 5 31 10
v -2 31 9
v 5 31 9
v -45 58 10
v -15 58 10
v 18 58 10
v 48 58 10
v -45 58 9
v -30 58 9
v -29 58 9
v -15 58 9
v 18 58 9
v 34 58 9
v 35 58 9
v 48 58 9
v -41 67 10
v -19 67 10
v 22 67 10
v 44 67 10
v -41 67 9
v -19 67 9
v 22 67 9
v 44 67 9
v -62 79 8
v 62 79 8
v -62 79 -61
v 62 79 -61
v -62 5 63
v 63 5 63
v -55 5 10
v -45 5 10
v -15 5 10
v -5 5 10
v 8 5 10
v 18 5 10
v 48 5 10
v 58 5 10
v -62 5 9
v -55 5 9
v -45 5 9
v -30 5 9
v -29 5 9
v -15 5 9
v -5 5 9
v 8 5 9
v 18 5 9
v 34 5 9
v 35 5 9
v 48 5 9
v 58 5 9
v 63 5 9
v -62 5 8
v -45 5 8
v -30 5 8
v -29 5 8
v -15 5 8
v 18 5 8
v 34 5 8
v 35 5 8
v 48 5 8
v 62 5 8
v -62 5 -61
v 62 5 -61
v 8 33 63
v 13 33 63
v 8 33 62
v 13 33 62
v -2 41 10
v 5 41 10
v -2 41 9
v 5 41 9
v -55 64 10
v -5 64 10
v 8 64 10
v 58 64 10
v -55 64 9
v -5 64 9
v 8 64 9
v 58 64 9
v -41 73 10
v -19 73 10
v 22 73 10
v 44 73 10
v -41 73 9
v -19 73 9
v 22 73 9
v 44 73 9
v -63 80 63
v -62 80 63
v -62 80 9
v 63 80 9
v -63 80 -63
v 63 80 -63

# faces
f 3/4/1 2/4/1 1/4/1
f 4/4/1 2/4/1 3/4/1
f 7/6/1 6/6/1 5/6/1
f 8/6/1 6/6/1 7/6/1
f 11/5/1 10/5/1 9/5/1
f 12/5/1 10/5/1 11/5/1
f 15/6/1 14/6/1 13/6/1
f 16/6/1 14/6/1 15/6/1
f 19/5/1 18/5/1 17/5/1
f 20/5/1 18/5/1 19/5/1
f 25/7/1 24/7/1 23/7/1
f 26/7/1 24/7/1 25/7/1
f 27/6/1 22/6/1 21/6/1
f 28/6/1 22/6/1 27/6/1
f 31/5/1 30/5/1 29/5/1
f 32/5/1 30/5/1 31/5/1
f 35/6/1 34/6/1 33/6/1
f 36/6/1 34/6/1 35/6/1
f 39/4/1 38/4/1 37/4/1
f 40/4/1 38/4/1 39/4/1
f 43/4/2 44/4/2 45/4/2
f 45/4/2 44/4/2 46/4/2
f 41/4/2 42/4/2 47/4/2
f 47/4/2 42/4/2 48/4/2
f 49/6/2 50/6/2 51/6/2
f 51/6/2 50/6/2 52/6/2
f 53/5/2 54/5/2 55/5/2
f 55/5/2 54/5/2 56/5/2
f 57/6/2 58/6/2 59/6/2
f 59/6/2 58/6/2 60/6/2
f 61/5/2 62/5/2 63/5/2
f 63/5/2 62/5/2 64/5/2
f 65/7/2 66/7/2 67/7/2
f 67/7/2 66/7/2 68/7/2
f 69/6/2 70/6/2 71/6/2
f 71/6/2 70/6/2 72/6/2
f 73/5/2 74/5/2 75/5/2
f 75/5/2 74/5/2 76/5/2
f 77/6/2 78/6/2 79/6/2
f 79/6/2 78/6/2 80/6/2
f 81/4/2 82/4/2 83/4/2
f 83/4/2 82/4/2 84/4/2
f 83/1/2 84/1/2 85/1/2
f 84/4/2 82/4/2 86/4/2
f 85/1/2 84/1/2 86/1/2
f 86/4/2 82/4/2 87/4/2
f 87/4/2 82/4/2 88/4/2
f 91/4/3 90/4/3 89/4/3
f 92/4/3 90/4/3 91/4/3
f 93/4/3 90/4/3 92/4/3
f 96/7/3 95/7/3 94/7/3
f 97/7/3 95/7/3 96/7/3
f 98/7/3 96/7/3 94/7/3
f 98/2/3 97/2/3 96/2/3
f 99/7/3 95/7/3 97/7/3
f 99/2/3 97/2/3 98/2/3
f 100/7/3 98/7/3 94/7/3
f 100/7/3 99/7/3 98/7/3
f 101/7/3 95/7/3 99/7/3
f 101/7/3 99/7/3 100/7/3
f 102/4/3 91/4/3 89/4/3
f 103/1/3 92/1/3 91/1/3
f 103/4/3 91/4/3 102/4/3
f 104/1/3 92/1/3 103/1/3
f 107/6/3 106/6/3 105/6/3
f 108/6/3 106/6/3 107/6/3
f 111/5/3 110/5/3 109/5/3
f 112/5/3 110/5/3 111/5/3
f 113/5/3 111/5/3 109/5/3
f 113/3/3 112/3/3 111/3/3
f 114/5/3 110/5/3 112/5/3
f 114/3/3 112/3/3 113/3/3
f 115/5/3 113/5/3 109/5/3
f 115/5/3 114/5/3 113/5/3
f 116/5/3 110/5/3 114/5/3
f 116/5/3 114/5/3 115/5/3
f 118/6/3 106/6/3 108/6/3
f 119/6/3 118/6/3 117/6/3
f 120/6/3 106/6/3 118/6/3
f 120/6/3 118/6/3 119/6/3
f 123/5/3 122/5/3 121/5/3
f 124/5/3 122/5/3 123/5/3
f 125/5/3 122/5/3 124/5/3
f 126/5/3 122/5/3 125/5/3
f 127/4/3 124/4/3 123/4/3
f 127/8/3 125/8/3 124/8/3
f 128/4/3 126/4/3 125/4/3
f 128/8/3 125/8/3 127/8/3
f 129/5/3 123/5/3 121/5/3
f 129/4/3 127/4/3 123/4/3
f 129/4/3 128/4/3 127/4/3
f 130/4/3 126/4/3 128/4/3
f 130/4/3 128/4/3 129/4/3
f 130/5/3 122/5/3 126/5/3
f 131/5/3 129/5/3 121/5/3
f 131/5/3 130/5/3 129/5/3
f 132/5/3 122/5/3 130/5/3
f 132/5/3 130/5/3 131/5/3
f 133/4/3 132/4/3 131/4/3
f 134/4/3 132/4/3 133/4/3
f 135/5/3 131/5/3 121/5/3
f 135/4/3 133/4/3 131/4/3
f 136/8/3 134/8/3 133/8/3
f 136/4/3 133/4/3 135/4/3
f 137/4/3 132/4/3 134/4/3
f 137/8/3 134/8/3 136/8/3
f 138/5/3 122/5/3 132/5/3
f 138/4/3 132/4/3 137/4/3
f 139/5/3 136/5/3 135/5/3
f 139/5/3 137/5/3 136/5/3
f 139/5/3 138/5/3 137/5/3
f 139/5/3 135/5/3 121/5/3
f 140/5/3 122/5/3 138/5/3
f 140/5/3 138/5/3 139/5/3
f 143/6/3 142/6/3 141/6/3
f 144/6/3 142/6/3 143/6/3
f 147/5/3 146/5/3 145/5/3
f 148/5/3 146/5/3 147/5/3
f 149/5/3 147/5/3 145/5/3
f 149/3/3 148/3/3 147/3/3
f 150/5/3 146/5/3 148/5/3
f 150/3/3 148/3/3 149/3/3
f 151/5/3 149/5/3 145/5/3
f 151/5/3 150/5/3 149/5/3
f 152/5/3 146/5/3 150/5/3
f 152/5/3 150/5/3 151/5/3
f 154/6/3 142/6/3 144/6/3
f 155/6/3 154/6/3 153/6/3
f 156/6/3 142/6/3 154/6/3
f 156/6/3 154/6/3 155/6/3
f 159/4/3 158/4/3 157/4/3
f 160/4/3 158/4/3 159/4/3
f 163/4/3 158/4/3 160/4/3
f 164/4/3 158/4/3 163/4/3
f 165/7/3 162/7/3 161/7/3
f 166/7/3 162/7/3 165/7/3
f 167/9/3 166/9/3 165/9/3
f 168/9/3 166/9/3 167/9/3
f 169/4/3 163/4/3 160/4/3
f 170/4/3 158/4/3 164/4/3
f 171/7/3 168/7/3 167/7/3
f 172/7/3 168/7/3 171/7/3
f 174/4/3 169/4/3 160/4/3
f 174/4/3 170/4/3 169/4/3
f 175/4/3 174/4/3 173/4/3
f 176/4/3 174/4/3 175/4/3
f 177/4/3 175/4/3 173/4/3
f 178/4/3 174/4/3 176/4/3
f 179/4/3 177/4/3 173/4/3
f 179/4/3 178/4/3 177/4/3
f 180/4/3 170/4/3 174/4/3
f 180/4/3 178/4/3 179/4/3
f 180/4/3 174/4/3 178/4/3
f 183/4/3 170/4/3 180/4/3
f 184/4/3 158/4/3 170/4/3
f 184/4/3 170/4/3 183/4/3
f 185/7/3 182/7/3 181/7/3
f 186/7/3 182/7/3 185/7/3
f 187/9/3 186/9/3 185/9/3
f 188/9/3 186/9/3 187/9/3
f 189/4/3 183/4/3 180/4/3
f 190/4/3 158/4/3 184/4/3
f 191/7/3 188/7/3 187/7/3
f 192/7/3 188/7/3 191/7/3
f 194/4/3 190/4/3 189/4/3
f 194/4/3 189/4/3 180/4/3
f 195/4/3 194/4/3 193/4/3
f 196/4/3 158/4/3 190/4/3
f 196/4/3 194/4/3 195/4/3
f 196/4/3 190/4/3 194/4/3
f 199/4/3 198/4/3 197/4/3
f 200/4/3 198/4/3 199/4/3
f 201/7/4 202/7/4 203/7/4
f 203/7/4 202/7/4 204/7/4
f 201/7/4 203/7/4 205/7/4
f 203/2/4 204/2/4 205/2/4
f 204/7/4 202/7/4 206/7/4
f 205/2/4 204/2/4 206/2/4
f 201/7/4 205/7/4 207/7/4
f 205/7/4 206/7/4 207/7/4
f 206/7/4 202/7/4 208/7/4
f 207/7/4 206/7/4 208/7/4
f 209/4/4 210/4/4 211/4/4
f 211/4/4 210/4/4 212/4/4
f 211/7/4 212/7/4 213/7/4
f 212/4/4 210/4/4 214/4/4
f 213/7/4 212/7/4 214/7/4
f 213/9/4 214/9/4 215/9/4
f 214/4/4 210/4/4 216/4/4
f 215/9/4 214/9/4 216/9/4
f 215/7/4 216/7/4 217/7/4
f 216/4/4 210/4/4 218/4/4
f 217/7/4 216/7/4 218/7/4
f 217/4/4 218/4/4 219/4/4
f 218/4/4 210/4/4 220/4/4
f 219/4/4 218/4/4 220/4/4
f 219/7/4 220/7/4 221/7/4
f 220/4/4 210/4/4 222/4/4
f 221/7/4 220/7/4 222/7/4
f 221/9/4 222/9/4 223/9/4
f 222/4/4 210/4/4 224/4/4
f 223/9/4 222/9/4 224/9/4
f 223/7/4 224/7/4 225/7/4
f 224/4/4 210/4/4 226/4/4
f 225/7/4 224/7/4 226/7/4
f 225/4/4 226/4/4 227/4/4
f 226/4/4 210/4/4 228/4/4
f 227/4/4 226/4/4 228/4/4
f 229/4/4 230/4/4 231/4/4
f 231/4/4 230/4/4 232/4/4
f 235/4/5 234/4/5 233/4/5
f 236/4/5 234/4/5 235/4/5
f 239/7/5 238/7/5 237/7/5
f 240/7/5 238/7/5 239/7/5
f 243/5/5 242/5/5 241/5/5
f 244/5/5 242/5/5 243/5/5
f 249/6/5 246/6/5 245/6/5
f 250/6/5 246/6/5 249/6/5
f 251/6/5 246/6/5 250/6/5
f 252/6/5 246/6/5 251/6/5
f 253/6/5 248/6/5 247/6/5
f 254/6/5 248/6/5 253/6/5
f 255/6/5 248/6/5 254/6/5
f 256/6/5 248/6/5 255/6/5
f 261/5/5 258/5/5 257/5/5
f 262/5/5 258/5/5 261/5/5
f 263/5/5 260/5/5 259/5/5
f 264/5/5 260/5/5 263/5/5
f 267/4/5 266/4/5 265/4/5
f 268/4/5 266/4/5 267/4/5
f 269/1/6 270/1/6 271/1/6
f 271/1/6 270/1/6 272/1/6
f 272/1/6 270/1/6 273/1/6
f 273/1/6 270/1/6 274/1/6
f 274/1/6 270/1/6 275/1/6
f 275/1/6 270/1/6 276/1/6
f 276/1/6 270/1/6 277/1/6
f 277/1/6 270/1/6 278/1/6
f 269/1/6 271/1/6 279/1/6
f 279/1/6 271/1/6 280/1/6
f 272/1/6 273/1/6 281/1/6
f 281/1/6 273/1/6 282/1/6
f 282/1/6 273/1/6 283/1/6
f 283/1/6 273/1/6 284/1/6
f 274/1/6 275/1/6 285/1/6
f 285/1/6 275/1/6 286/1/6
f 276/1/6 277/1/6 287/1/6
f 287/1/6 277/1/6 288/1/6
f 288/1/6 277/1/6 289/1/6
f 289/1/6 277/1/6 290/1/6
f 278/1/6 270/1/6 291/1/6
f 291/1/6 270/1/6 292/1/6
f 293/4/6 294/4/6 303/4/6
f 301/4/6 302/4/6 303/4/6
f 300/4/6 301/4/6 303/4/6
f 299/4/6 300/4/6 303/4/6
f 298/4/6 299/4/6 303/4/6
f 297/4/6 298/4/6 303/4/6
f 296/4/6 297/4/6 303/4/6
f 295/4/6 296/4/6 303/4/6
f 294/4/6 295/4/6 303/4/6
f 303/4/6 302/4/6 304/4/6
f 305/7/6 306/7/6 307/7/6
f 307/7/6 306/7/6 308/7/6
f 309/5/6 310/5/6 311/5/6
f 311/5/6 310/5/6 312/5/6
f 313/6/6 314/6/6 317/6/6
f 317/6/6 314/6/6 318/6/6
f 315/6/6 316/6/6 319/6/6
f 319/6/6 316/6/6 320/6/6
f 321/5/6 322/5/6 325/5/6
f 325/5/6 322/5/6 326/5/6
f 323/5/6 324/5/6 327/5/6
f 327/5/6 324/5/6 328/5/6
f 329/4/6 330/4/6 331/4/6
f 329/4/6 331/4/6 333/4/6
f 331/4/6 332/4/6 333/4/6
f 333/4/6 332/4/6 334/4/6
