# MagicaVoxel @ Ephtracy

# group
g 4x2 second-3

# material
mtllib 4x2 second-3.mtl
usemtl palette

# normals
vn -1 0 0
vn 1 0 0
vn 0 0 1
vn 0 0 -1
vn 0 -1 0
vn 0 1 0

# texcoords
vt 0.966797 0.5
vt 0.974609 0.5
vt 0.978516 0.5

# verts
v -63 0 63
v -63 0 -63
v -63 4 61
v -63 4 -62
v -63 5 61
v -63 5 -62
v -63 18 63
v -63 18 61
v -63 53 63
v -63 53 61
v -63 80 63
v -63 80 61
v -63 80 -62
v -63 80 -63
v -48 18 63
v -48 18 61
v -48 53 63
v -48 53 61
v 36 5 -62
v 36 5 -63
v 36 45 -62
v 36 45 -63
v 48 18 63
v 48 18 61
v 48 53 63
v 48 53 61
v 6 5 -62
v 6 5 -63
v 6 45 -62
v 6 45 -63
v 18 18 63
v 18 18 61
v 18 53 63
v 18 53 61
v 63 0 63
v 63 0 -63
v 63 4 61
v 63 4 -62
v 63 5 61
v 63 5 -62
v 63 80 63
v 63 80 61
v 63 80 -62
v 63 80 -63
v -63 0 63
v -63 18 63
v -63 53 63
v -63 80 63
v -48 18 63
v -48 53 63
v -39 32 63
v -39 51 63
v -38 8 63
v -38 20 63
v -37 23 63
v -37 24 63
v -37 28 63
v -37 32 63
v -36 25 63
v -36 28 63
v -35 23 63
v -35 24 63
v -34 25 63
v -34 28 63
v -33 28 63
v -33 31 63
v -31 21 63
v -31 31 63
v -31 51 63
v -31 57 63
v -30 20 63
v -30 21 63
v -29 8 63
v -29 9 63
v -29 10 63
v -29 20 63
v -27 8 63
v -27 9 63
v -27 10 63
v -27 12 63
v -26 4 63
v -26 8 63
v -26 12 63
v -26 20 63
v -24 51 63
v -24 57 63
v -23 47 63
v -23 51 63
v -22 47 63
v -22 63 63
v -16 4 63
v -16 5 63
v -16 7 63
v -16 12 63
v -15 12 63
v -15 13 63
v -12 7 63
v -12 13 63
v -9 5 63
v -9 6 63
v -8 61 63
v -8 63 63
v -5 56 63
v -5 61 63
v -2 60 63
v -2 61 63
v 0 60 63
v 0 61 63
v 4 58 63
v 4 59 63
v 6 58 63
v 6 59 63
v 8 59 63
v 8 66 63
v 10 6 63
v 10 19 63
v 10 39 63
v 10 56 63
v 10 59 63
v 10 66 63
v 15 8 63
v 15 9 63
v 15 19 63
v 15 39 63
v 16 8 63
v 16 9 63
v 17 9 63
v 17 10 63
v 18 18 63
v 18 53 63
v 19 9 63
v 19 10 63
v 48 18 63
v 48 53 63
v 63 0 63
v 63 80 63
v -63 5 -62
v -63 80 -62
v 6 5 -62
v 6 45 -62
v 36 5 -62
v 36 45 -62
v 63 5 -62
v 63 80 -62
v -63 5 61
v -63 18 61
v -63 53 61
v -63 80 61
v -48 18 61
v -48 53 61
v 18 18 61
v 18 53 61
v 48 18 61
v 48 53 61
v 63 5 61
v 63 80 61
v -63 0 -63
v -63 80 -63
v 6 4 -63
v 6 5 -63
v 6 45 -63
v 36 4 -63
v 36 5 -63
v 36 45 -63
v 63 0 -63
v 63 80 -63
v -63 0 63
v 63 0 63
v -63 0 -63
v 63 0 -63
v 6 45 -62
v 36 45 -62
v 6 45 -63
v 36 45 -63
v -63 53 63
v -48 53 63
v 18 53 63
v 48 53 63
v -63 53 61
v -48 53 61
v 18 53 61
v 48 53 61
v -63 5 61
v 63 5 61
v -63 5 -62
v 6 5 -62
v 36 5 -62
v 63 5 -62
v 6 5 -63
v 36 5 -63
v -63 18 63
v -48 18 63
v 18 18 63
v 48 18 63
v -63 18 61
v -48 18 61
v 18 18 61
v 48 18 61
v -63 80 63
v 63 80 63
v -63 80 61
v 63 80 61
v -63 80 -62
v 63 80 -62
v -63 80 -63
v 63 80 -63

# faces
f 3/1/1 2/1/1 1/1/1
f 4/1/1 2/1/1 3/1/1
f 5/1/1 3/1/1 1/1/1
f 5/3/1 4/3/1 3/3/1
f 6/1/1 2/1/1 4/1/1
f 6/3/1 4/3/1 5/3/1
f 7/1/1 5/1/1 1/1/1
f 8/1/1 5/1/1 7/1/1
f 11/1/1 10/1/1 9/1/1
f 12/1/1 10/1/1 11/1/1
f 13/1/1 2/1/1 6/1/1
f 14/1/1 2/1/1 13/1/1
f 17/1/1 16/1/1 15/1/1
f 18/1/1 16/1/1 17/1/1
f 21/1/1 20/1/1 19/1/1
f 22/1/1 20/1/1 21/1/1
f 25/1/1 24/1/1 23/1/1
f 26/1/1 24/1/1 25/1/1
f 27/1/2 28/1/2 29/1/2
f 29/1/2 28/1/2 30/1/2
f 31/1/2 32/1/2 33/1/2
f 33/1/2 32/1/2 34/1/2
f 35/1/2 36/1/2 37/1/2
f 37/1/2 36/1/2 38/1/2
f 35/1/2 37/1/2 39/1/2
f 37/3/2 38/3/2 39/3/2
f 38/1/2 36/1/2 40/1/2
f 39/3/2 38/3/2 40/3/2
f 35/1/2 39/1/2 41/1/2
f 41/1/2 39/1/2 42/1/2
f 40/1/2 36/1/2 43/1/2
f 43/1/2 36/1/2 44/1/2
f 49/1/3 46/1/3 45/1/3
f 50/1/3 48/1/3 47/1/3
f 51/1/3 50/1/3 49/1/3
f 52/1/3 50/1/3 51/1/3
f 53/1/3 49/1/3 45/1/3
f 53/1/3 51/1/3 49/1/3
f 54/1/3 51/1/3 53/1/3
f 55/1/3 51/1/3 54/1/3
f 56/1/3 51/1/3 55/1/3
f 57/1/3 51/1/3 56/1/3
f 58/2/3 52/2/3 51/2/3
f 58/1/3 51/1/3 57/1/3
f 59/1/3 57/1/3 56/1/3
f 60/2/3 58/2/3 57/2/3
f 60/1/3 57/1/3 59/1/3
f 61/1/3 55/1/3 54/1/3
f 61/2/3 56/2/3 55/2/3
f 62/1/3 59/1/3 56/1/3
f 62/2/3 56/2/3 61/2/3
f 63/2/3 60/2/3 59/2/3
f 63/1/3 59/1/3 62/1/3
f 63/1/3 62/1/3 61/1/3
f 64/2/3 58/2/3 60/2/3
f 64/2/3 60/2/3 63/2/3
f 65/1/3 64/1/3 63/1/3
f 65/2/3 58/2/3 64/2/3
f 66/2/3 58/2/3 65/2/3
f 67/1/3 63/1/3 61/1/3
f 67/1/3 61/1/3 54/1/3
f 67/1/3 66/1/3 65/1/3
f 67/1/3 65/1/3 63/1/3
f 68/2/3 58/2/3 66/2/3
f 68/1/3 66/1/3 67/1/3
f 69/1/3 50/1/3 52/1/3
f 69/2/3 58/2/3 68/2/3
f 69/2/3 52/2/3 58/2/3
f 70/1/3 48/1/3 50/1/3
f 70/1/3 50/1/3 69/1/3
f 71/1/3 67/1/3 54/1/3
f 71/2/3 54/2/3 53/2/3
f 72/2/3 68/2/3 67/2/3
f 72/1/3 67/1/3 71/1/3
f 72/2/3 69/2/3 68/2/3
f 72/2/3 70/2/3 69/2/3
f 73/2/3 71/2/3 53/2/3
f 73/1/3 53/1/3 45/1/3
f 73/2/3 72/2/3 71/2/3
f 74/2/3 72/2/3 73/2/3
f 75/2/3 72/2/3 74/2/3
f 76/2/3 72/2/3 75/2/3
f 77/1/3 73/1/3 45/1/3
f 77/1/3 74/1/3 73/1/3
f 78/2/3 75/2/3 74/2/3
f 78/1/3 74/1/3 77/1/3
f 79/1/3 76/1/3 75/1/3
f 79/2/3 75/2/3 78/2/3
f 80/1/3 76/1/3 79/1/3
f 81/1/3 77/1/3 45/1/3
f 82/2/3 78/2/3 77/2/3
f 82/1/3 77/1/3 81/1/3
f 82/2/3 79/2/3 78/2/3
f 82/2/3 80/2/3 79/2/3
f 83/1/3 76/1/3 80/1/3
f 83/2/3 80/2/3 82/2/3
f 84/2/3 72/2/3 76/2/3
f 84/1/3 76/1/3 83/1/3
f 85/2/3 70/2/3 72/2/3
f 85/2/3 72/2/3 84/2/3
f 85/2/3 84/2/3 83/2/3
f 85/2/3 82/2/3 81/2/3
f 85/2/3 83/2/3 82/2/3
f 86/1/3 48/1/3 70/1/3
f 86/2/3 70/2/3 85/2/3
f 87/2/3 85/2/3 81/2/3
f 88/1/3 86/1/3 85/1/3
f 88/2/3 85/2/3 87/2/3
f 89/2/3 87/2/3 81/2/3
f 89/1/3 88/1/3 87/1/3
f 90/1/3 48/1/3 86/1/3
f 90/1/3 88/1/3 89/1/3
f 90/1/3 86/1/3 88/1/3
f 91/1/3 81/1/3 45/1/3
f 91/2/3 89/2/3 81/2/3
f 91/2/3 90/2/3 89/2/3
f 92/2/3 90/2/3 91/2/3
f 93/2/3 90/2/3 92/2/3
f 94/2/3 90/2/3 93/2/3
f 95/1/3 94/1/3 93/1/3
f 95/2/3 90/2/3 94/2/3
f 96/2/3 90/2/3 95/2/3
f 97/2/3 93/2/3 92/2/3
f 97/1/3 95/1/3 93/1/3
f 97/1/3 96/1/3 95/1/3
f 98/2/3 90/2/3 96/2/3
f 98/1/3 96/1/3 97/1/3
f 99/1/3 92/1/3 91/1/3
f 99/2/3 97/2/3 92/2/3
f 99/2/3 98/2/3 97/2/3
f 100/2/3 98/2/3 99/2/3
f 101/2/3 90/2/3 98/2/3
f 101/2/3 98/2/3 100/2/3
f 102/1/3 48/1/3 90/1/3
f 102/2/3 90/2/3 101/2/3
f 103/2/3 101/2/3 100/2/3
f 104/1/3 102/1/3 101/1/3
f 104/2/3 101/2/3 103/2/3
f 105/1/3 104/1/3 103/1/3
f 106/1/3 102/1/3 104/1/3
f 106/1/3 104/1/3 105/1/3
f 107/1/3 105/1/3 103/1/3
f 107/2/3 106/2/3 105/2/3
f 108/1/3 102/1/3 106/1/3
f 108/2/3 106/2/3 107/2/3
f 109/1/3 107/1/3 103/1/3
f 109/1/3 108/1/3 107/1/3
f 110/1/3 108/1/3 109/1/3
f 111/1/3 109/1/3 103/1/3
f 111/2/3 110/2/3 109/2/3
f 112/1/3 108/1/3 110/1/3
f 112/2/3 110/2/3 111/2/3
f 113/1/3 112/1/3 111/1/3
f 113/1/3 108/1/3 112/1/3
f 114/1/3 48/1/3 102/1/3
f 114/1/3 108/1/3 113/1/3
f 114/1/3 102/1/3 108/1/3
f 115/1/3 100/1/3 99/1/3
f 115/2/3 103/2/3 100/2/3
f 116/2/3 103/2/3 115/2/3
f 117/2/3 103/2/3 116/2/3
f 118/1/3 113/1/3 111/1/3
f 118/2/3 103/2/3 117/2/3
f 118/1/3 111/1/3 103/1/3
f 119/2/3 114/2/3 113/2/3
f 119/1/3 113/1/3 118/1/3
f 120/1/3 48/1/3 114/1/3
f 120/2/3 114/2/3 119/2/3
f 121/1/3 116/1/3 115/1/3
f 122/1/3 116/1/3 121/1/3
f 123/2/3 117/2/3 116/2/3
f 123/1/3 116/1/3 122/1/3
f 124/1/3 119/1/3 118/1/3
f 124/2/3 117/2/3 123/2/3
f 124/1/3 118/1/3 117/1/3
f 124/1/3 120/1/3 119/1/3
f 125/2/3 122/2/3 121/2/3
f 125/1/3 121/1/3 115/1/3
f 126/1/3 123/1/3 122/1/3
f 126/2/3 122/2/3 125/2/3
f 126/1/3 124/1/3 123/1/3
f 127/1/3 126/1/3 125/1/3
f 127/1/3 124/1/3 126/1/3
f 128/1/3 124/1/3 127/1/3
f 129/1/3 124/1/3 128/1/3
f 130/1/3 120/1/3 124/1/3
f 130/1/3 124/1/3 129/1/3
f 131/1/3 127/1/3 125/1/3
f 131/2/3 128/2/3 127/2/3
f 132/1/3 129/1/3 128/1/3
f 132/2/3 128/2/3 131/2/3
f 133/1/3 132/1/3 131/1/3
f 133/1/3 129/1/3 132/1/3
f 134/1/3 120/1/3 130/1/3
f 135/1/3 131/1/3 125/1/3
f 135/1/3 134/1/3 133/1/3
f 135/1/3 91/1/3 45/1/3
f 135/1/3 125/1/3 115/1/3
f 135/1/3 133/1/3 131/1/3
f 135/1/3 99/1/3 91/1/3
f 135/1/3 115/1/3 99/1/3
f 136/1/3 120/1/3 134/1/3
f 136/1/3 134/1/3 135/1/3
f 136/1/3 48/1/3 120/1/3
f 139/1/3 138/1/3 137/1/3
f 140/1/3 138/1/3 139/1/3
f 142/1/3 138/1/3 140/1/3
f 143/1/3 142/1/3 141/1/3
f 144/1/3 138/1/3 142/1/3
f 144/1/3 142/1/3 143/1/3
f 145/1/4 146/1/4 149/1/4
f 147/1/4 148/1/4 150/1/4
f 145/1/4 149/1/4 151/1/4
f 149/1/4 150/1/4 151/1/4
f 150/1/4 148/1/4 152/1/4
f 151/1/4 150/1/4 152/1/4
f 145/1/4 151/1/4 153/1/4
f 152/1/4 148/1/4 154/1/4
f 145/1/4 153/1/4 155/1/4
f 153/1/4 154/1/4 155/1/4
f 154/1/4 148/1/4 156/1/4
f 155/1/4 154/1/4 156/1/4
f 157/1/4 158/1/4 159/1/4
f 159/1/4 158/1/4 160/1/4
f 160/1/4 158/1/4 161/1/4
f 157/1/4 159/1/4 162/1/4
f 159/3/4 160/3/4 162/3/4
f 162/3/4 160/3/4 163/3/4
f 161/1/4 158/1/4 164/1/4
f 162/1/4 163/1/4 165/1/4
f 163/1/4 164/1/4 165/1/4
f 157/1/4 162/1/4 165/1/4
f 164/1/4 158/1/4 166/1/4
f 165/1/4 164/1/4 166/1/4
f 169/1/5 168/1/5 167/1/5
f 170/1/5 168/1/5 169/1/5
f 173/1/5 172/1/5 171/1/5
f 174/1/5 172/1/5 173/1/5
f 179/1/5 176/1/5 175/1/5
f 180/1/5 176/1/5 179/1/5
f 181/1/5 178/1/5 177/1/5
f 182/1/5 178/1/5 181/1/5
f 183/3/6 184/3/6 185/3/6
f 185/3/6 184/3/6 186/3/6
f 186/3/6 184/3/6 187/3/6
f 187/3/6 184/3/6 188/3/6
f 186/3/6 187/3/6 189/3/6
f 189/3/6 187/3/6 190/3/6
f 191/1/6 192/1/6 195/1/6
f 195/1/6 192/1/6 196/1/6
f 193/1/6 194/1/6 197/1/6
f 197/1/6 194/1/6 198/1/6
f 199/1/6 200/1/6 201/1/6
f 201/1/6 200/1/6 202/1/6
f 203/1/6 204/1/6 205/1/6
f 205/1/6 204/1/6 206/1/6
