# MagicaVoxel @ Ephtracy

# group
g 4x2 first (1)-0

# material
mtllib 4x2 first (1)-0.mtl
usemtl palette

# normals
vn -1 0 0
vn 1 0 0
vn 0 0 1
vn 0 0 -1
vn 0 -1 0
vn 0 1 0

# texcoords
vt 0.966797 0.5
vt 0.974609 0.5
vt 0.982422 0.5

# verts
v -63 0 63
v -63 0 -63
v -63 6 52
v -63 6 46
v -63 8 61
v -63 8 59
v -63 9 61
v -63 9 59
v -63 11 56
v -63 11 52
v -63 11 46
v -63 11 43
v -63 12 56
v -63 12 47
v -63 13 51
v -63 13 49
v -63 13 47
v -63 13 46
v -63 14 60
v -63 14 51
v -63 14 47
v -63 14 46
v -63 14 44
v -63 14 43
v -63 15 51
v -63 15 49
v -63 15 47
v -63 15 44
v -63 17 53
v -63 17 51
v -63 17 -47
v -63 41 61
v -63 41 60
v -63 49 60
v -63 49 58
v -63 50 60
v -63 50 59
v -63 51 61
v -63 51 60
v -63 53 60
v -63 53 59
v -63 53 58
v -63 54 61
v -63 54 60
v -63 57 61
v -63 57 60
v -63 57 53
v -63 57 32
v -63 57 -47
v -63 58 59
v -63 58 58
v -63 59 32
v -63 59 22
v -63 60 25
v -63 60 23
v -63 60 22
v -63 60 16
v -63 62 61
v -63 62 59
v -63 62 25
v -63 62 24
v -63 62 23
v -63 62 22
v -63 63 25
v -63 63 24
v -63 63 22
v -63 63 16
v -63 64 24
v -63 64 22
v -63 66 61
v -63 66 59
v -63 66 22
v -63 66 20
v -63 67 24
v -63 67 22
v -63 68 26
v -63 68 25
v -63 69 49
v -63 69 43
v -63 69 22
v -63 69 20
v -63 71 58
v -63 71 52
v -63 71 49
v -63 71 47
v -63 72 47
v -63 72 45
v -63 72 43
v -63 72 32
v -63 74 52
v -63 74 45
v -63 74 32
v -63 74 26
v -63 80 63
v -63 80 -63
v -61 5 63
v -61 5 -61
v -61 17 53
v -61 17 -47
v -61 57 53
v -61 57 -47
v -61 80 63
v -61 80 -61
v 63 0 63
v 63 0 -63
v 63 4 63
v 63 4 -61
v 63 5 63
v 63 5 -61
v 63 80 -61
v 63 80 -63
v -63 0 63
v -63 80 63
v -61 4 63
v -61 5 63
v -61 80 63
v 63 0 63
v 63 4 63
v 63 5 63
v -63 17 -47
v -63 57 -47
v -61 17 -47
v -61 57 -47
v -61 5 -61
v -61 80 -61
v 63 5 -61
v 63 80 -61
v -63 17 53
v -63 57 53
v -62 17 53
v -62 57 53
v -61 17 53
v -61 57 53
v -63 0 -63
v -63 80 -63
v 63 0 -63
v 63 80 -63
v -63 0 63
v 63 0 63
v -63 0 -63
v 63 0 -63
v -63 57 53
v -62 57 53
v -61 57 53
v -63 57 32
v -62 57 32
v -63 57 -47
v -61 57 -47
v -61 5 63
v 63 5 63
v -61 5 -61
v 63 5 -61
v -63 17 53
v -62 17 53
v -61 17 53
v -63 17 51
v -62 17 51
v -63 17 -47
v -61 17 -47
v -63 80 63
v -61 80 63
v -61 80 -61
v 63 80 -61
v -63 80 -63
v 63 80 -63

# faces
f 3/1/1 2/1/1 1/1/1
f 4/1/1 2/1/1 3/1/1
f 5/1/1 3/1/1 1/1/1
f 6/1/1 3/1/1 5/1/1
f 7/1/1 5/1/1 1/1/1
f 7/2/1 6/2/1 5/2/1
f 8/1/1 3/1/1 6/1/1
f 8/2/1 6/2/1 7/2/1
f 9/1/1 8/1/1 7/1/1
f 9/1/1 3/1/1 8/1/1
f 10/2/1 4/2/1 3/2/1
f 10/1/1 3/1/1 9/1/1
f 11/1/1 2/1/1 4/1/1
f 11/2/1 4/2/1 10/2/1
f 12/1/1 2/1/1 11/1/1
f 13/2/1 10/2/1 9/2/1
f 13/1/1 9/1/1 7/1/1
f 13/2/1 12/2/1 11/2/1
f 13/2/1 11/2/1 10/2/1
f 14/2/1 12/2/1 13/2/1
f 15/1/1 14/1/1 13/1/1
f 16/1/1 14/1/1 15/1/1
f 17/2/1 12/2/1 14/2/1
f 17/1/1 14/1/1 16/1/1
f 18/2/1 12/2/1 17/2/1
f 19/1/1 13/1/1 7/1/1
f 19/1/1 15/1/1 13/1/1
f 20/2/1 16/2/1 15/2/1
f 20/1/1 15/1/1 19/1/1
f 21/1/1 18/1/1 17/1/1
f 21/1/1 17/1/1 16/1/1
f 22/2/1 12/2/1 18/2/1
f 22/1/1 18/1/1 21/1/1
f 23/2/1 12/2/1 22/2/1
f 24/1/1 2/1/1 12/1/1
f 24/2/1 12/2/1 23/2/1
f 25/2/1 16/2/1 20/2/1
f 25/2/1 20/2/1 19/2/1
f 26/1/1 21/1/1 16/1/1
f 26/2/1 16/2/1 25/2/1
f 27/2/1 23/2/1 22/2/1
f 27/1/1 21/1/1 26/1/1
f 27/2/1 22/2/1 21/2/1
f 28/1/1 24/1/1 23/1/1
f 28/2/1 23/2/1 27/2/1
f 29/2/1 25/2/1 19/2/1
f 30/1/1 26/1/1 25/1/1
f 30/2/1 25/2/1 29/2/1
f 30/1/1 27/1/1 26/1/1
f 30/1/1 28/1/1 27/1/1
f 31/1/1 24/1/1 28/1/1
f 31/1/1 28/1/1 30/1/1
f 31/1/1 2/1/1 24/1/1
f 32/1/1 7/1/1 1/1/1
f 32/1/1 19/1/1 7/1/1
f 33/2/1 29/2/1 19/2/1
f 33/1/1 19/1/1 32/1/1
f 34/2/1 33/2/1 32/2/1
f 34/2/1 29/2/1 33/2/1
f 35/2/1 29/2/1 34/2/1
f 36/2/1 34/2/1 32/2/1
f 36/1/1 35/1/1 34/1/1
f 37/1/1 35/1/1 36/1/1
f 38/1/1 32/1/1 1/1/1
f 38/2/1 36/2/1 32/2/1
f 38/2/1 37/2/1 36/2/1
f 39/2/1 37/2/1 38/2/1
f 40/1/1 39/1/1 38/1/1
f 40/2/1 37/2/1 39/2/1
f 41/1/1 35/1/1 37/1/1
f 41/2/1 37/2/1 40/2/1
f 42/2/1 29/2/1 35/2/1
f 42/1/1 35/1/1 41/1/1
f 43/1/1 40/1/1 38/1/1
f 43/1/1 41/1/1 40/1/1
f 43/1/1 38/1/1 1/1/1
f 44/1/1 41/1/1 43/1/1
f 45/1/1 43/1/1 1/1/1
f 45/2/1 44/2/1 43/2/1
f 46/1/1 41/1/1 44/1/1
f 46/2/1 44/2/1 45/2/1
f 47/2/1 29/2/1 42/2/1
f 47/2/1 42/2/1 41/2/1
f 49/1/1 2/1/1 31/1/1
f 50/1/1 41/1/1 46/1/1
f 50/2/1 48/2/1 47/2/1
f 50/1/1 46/1/1 45/1/1
f 50/2/1 47/2/1 41/2/1
f 51/2/1 48/2/1 50/2/1
f 52/1/1 49/1/1 48/1/1
f 52/2/1 48/2/1 51/2/1
f 53/1/1 49/1/1 52/1/1
f 54/2/1 53/2/1 52/2/1
f 55/2/1 53/2/1 54/2/1
f 56/1/1 49/1/1 53/1/1
f 56/2/1 53/2/1 55/2/1
f 57/1/1 49/1/1 56/1/1
f 58/1/1 51/1/1 50/1/1
f 58/1/1 45/1/1 1/1/1
f 58/1/1 50/1/1 45/1/1
f 59/1/1 51/1/1 58/1/1
f 60/1/1 55/1/1 54/1/1
f 60/2/1 54/2/1 52/2/1
f 61/1/1 55/1/1 60/1/1
f 62/2/1 57/2/1 56/2/1
f 62/1/1 55/1/1 61/1/1
f 62/2/1 56/2/1 55/2/1
f 63/2/1 57/2/1 62/2/1
f 64/2/1 61/2/1 60/2/1
f 64/2/1 60/2/1 52/2/1
f 65/1/1 63/1/1 62/1/1
f 65/2/1 61/2/1 64/2/1
f 65/1/1 62/1/1 61/1/1
f 66/2/1 57/2/1 63/2/1
f 66/1/1 63/1/1 65/1/1
f 67/1/1 49/1/1 57/1/1
f 67/2/1 57/2/1 66/2/1
f 68/1/1 66/1/1 65/1/1
f 68/1/1 65/1/1 64/1/1
f 68/1/1 67/1/1 66/1/1
f 69/1/1 67/1/1 68/1/1
f 70/1/1 58/1/1 1/1/1
f 70/2/1 59/2/1 58/2/1
f 71/1/1 51/1/1 59/1/1
f 71/2/1 59/2/1 70/2/1
f 72/1/1 67/1/1 69/1/1
f 72/2/1 69/2/1 68/2/1
f 73/1/1 67/1/1 72/1/1
f 74/1/1 68/1/1 64/1/1
f 74/2/1 72/2/1 68/2/1
f 74/2/1 73/2/1 72/2/1
f 75/2/1 73/2/1 74/2/1
f 76/2/1 64/2/1 52/2/1
f 77/1/1 74/1/1 64/1/1
f 77/2/1 64/2/1 76/2/1
f 77/1/1 75/1/1 74/1/1
f 78/2/1 52/2/1 51/2/1
f 78/2/1 76/2/1 52/2/1
f 79/2/1 76/2/1 78/2/1
f 80/2/1 73/2/1 75/2/1
f 80/1/1 75/1/1 77/1/1
f 80/1/1 77/1/1 76/1/1
f 81/1/1 67/1/1 73/1/1
f 81/2/1 73/2/1 80/2/1
f 82/1/1 51/1/1 71/1/1
f 82/1/1 71/1/1 70/1/1
f 82/2/1 78/2/1 51/2/1
f 83/2/1 78/2/1 82/2/1
f 84/1/1 79/1/1 78/1/1
f 84/2/1 78/2/1 83/2/1
f 85/1/1 79/1/1 84/1/1
f 86/2/1 84/2/1 83/2/1
f 86/1/1 79/1/1 85/1/1
f 86/2/1 85/2/1 84/2/1
f 87/1/1 79/1/1 86/1/1
f 88/2/1 76/2/1 79/2/1
f 88/1/1 79/1/1 87/1/1
f 89/2/1 76/2/1 88/2/1
f 90/2/1 87/2/1 86/2/1
f 90/1/1 83/1/1 82/1/1
f 90/2/1 86/2/1 83/2/1
f 91/1/1 89/1/1 88/1/1
f 91/2/1 87/2/1 90/2/1
f 91/1/1 88/1/1 87/1/1
f 92/2/1 76/2/1 89/2/1
f 92/1/1 89/1/1 91/1/1
f 93/1/1 81/1/1 80/1/1
f 93/2/1 76/2/1 92/2/1
f 93/1/1 80/1/1 76/1/1
f 94/1/1 91/1/1 90/1/1
f 94/1/1 90/1/1 82/1/1
f 94/1/1 93/1/1 92/1/1
f 94/1/1 82/1/1 70/1/1
f 94/1/1 92/1/1 91/1/1
f 94/1/1 70/1/1 1/1/1
f 95/1/1 49/1/1 67/1/1
f 95/1/1 93/1/1 94/1/1
f 95/1/1 2/1/1 49/1/1
f 95/1/1 81/1/1 93/1/1
f 95/1/1 67/1/1 81/1/1
f 96/1/2 97/1/2 98/1/2
f 98/1/2 97/1/2 99/1/2
f 96/1/2 98/1/2 100/1/2
f 99/1/2 97/1/2 101/1/2
f 96/1/2 100/1/2 102/1/2
f 100/1/2 101/1/2 102/1/2
f 101/1/2 97/1/2 103/1/2
f 102/1/2 101/1/2 103/1/2
f 104/1/2 105/1/2 106/1/2
f 106/1/2 105/1/2 107/1/2
f 106/3/2 107/3/2 108/3/2
f 107/1/2 105/1/2 109/1/2
f 108/3/2 107/3/2 109/3/2
f 109/1/2 105/1/2 110/1/2
f 110/1/2 105/1/2 111/1/2
f 114/1/3 113/1/3 112/1/3
f 115/1/3 113/1/3 114/1/3
f 116/1/3 113/1/3 115/1/3
f 117/1/3 114/1/3 112/1/3
f 118/3/3 115/3/3 114/3/3
f 118/1/3 114/1/3 117/1/3
f 119/3/3 115/3/3 118/3/3
f 122/1/3 121/1/3 120/1/3
f 123/1/3 121/1/3 122/1/3
f 126/1/3 125/1/3 124/1/3
f 127/1/3 125/1/3 126/1/3
f 128/2/4 129/2/4 130/2/4
f 130/2/4 129/2/4 131/2/4
f 130/1/4 131/1/4 132/1/4
f 132/1/4 131/1/4 133/1/4
f 134/1/4 135/1/4 136/1/4
f 136/1/4 135/1/4 137/1/4
f 140/1/5 139/1/5 138/1/5
f 141/1/5 139/1/5 140/1/5
f 145/2/5 143/2/5 142/2/5
f 146/1/5 144/1/5 143/1/5
f 146/2/5 143/2/5 145/2/5
f 147/1/5 146/1/5 145/1/5
f 148/1/5 144/1/5 146/1/5
f 148/1/5 146/1/5 147/1/5
f 149/3/6 150/3/6 151/3/6
f 151/3/6 150/3/6 152/3/6
f 153/2/6 154/2/6 156/2/6
f 154/1/6 155/1/6 157/1/6
f 156/2/6 154/2/6 157/2/6
f 156/1/6 157/1/6 158/1/6
f 157/1/6 155/1/6 159/1/6
f 158/1/6 157/1/6 159/1/6
f 160/1/6 161/1/6 162/1/6
f 160/1/6 162/1/6 164/1/6
f 162/1/6 163/1/6 164/1/6
f 164/1/6 163/1/6 165/1/6
