# MagicaVoxel @ Ephtracy

# group
g 4x2 third (des)-0

# material
mtllib 4x2 third (des)-0.mtl
usemtl palette

# normals
vn -1 0 0
vn 1 0 0
vn 0 0 1
vn 0 0 -1
vn 0 -1 0
vn 0 1 0

# texcoords
vt 0.537109 0.5
vt 0.966797 0.5
vt 0.974609 0.5
vt 0.978516 0.5

# verts
v -63 0 63
v -63 0 -63
v -63 18 40
v -63 18 9
v -63 18 -19
v -63 18 -49
v -63 39 61
v -63 39 58
v -63 40 52
v -63 40 45
v -63 41 61
v -63 41 58
v -63 41 57
v -63 41 55
v -63 41 52
v -63 42 58
v -63 42 57
v -63 44 55
v -63 44 52
v -63 45 58
v -63 45 55
v -63 46 52
v -63 46 50
v -63 46 49
v -63 46 45
v -63 47 60
v -63 47 58
v -63 47 55
v -63 47 50
v -63 48 49
v -63 48 43
v -63 51 62
v -63 51 60
v -63 53 40
v -63 53 9
v -63 53 -19
v -63 53 -49
v -63 56 42
v -63 56 41
v -63 58 63
v -63 58 62
v -63 63 42
v -63 63 41
v -63 64 42
v -63 64 39
v -63 67 43
v -63 67 42
v -63 67 39
v -63 67 38
v -63 68 63
v -63 68 62
v -63 71 62
v -63 71 55
v -63 73 45
v -63 73 38
v -63 77 55
v -63 77 45
v -63 80 63
v -63 80 -63
v -61 0 63
v -61 0 -63
v -61 4 63
v -61 4 -4
v -61 4 -5
v -61 4 -61
v -61 5 63
v -61 5 -4
v -61 5 -5
v -61 5 -61
v -61 80 -61
v -61 80 -63
v 44 5 63
v 44 5 -4
v 44 5 -5
v 44 5 -22
v 44 5 -52
v 44 5 -61
v 44 37 50
v 44 37 48
v 44 38 50
v 44 38 48
v 44 45 -22
v 44 45 -52
v 44 80 63
v 44 80 -4
v 44 80 -5
v 44 80 -61
v -62 0 63
v -62 0 -63
v -62 4 -4
v -62 4 -5
v -62 18 40
v -62 18 9
v -62 18 -19
v -62 18 -49
v -62 39 61
v -62 39 58
v -62 40 52
v -62 40 45
v -62 41 61
v -62 41 58
v -62 41 57
v -62 41 55
v -62 41 52
v -62 42 58
v -62 42 57
v -62 44 55
v -62 44 52
v -62 45 58
v -62 45 55
v -62 46 52
v -62 46 50
v -62 46 49
v -62 46 45
v -62 47 60
v -62 47 58
v -62 47 55
v -62 47 50
v -62 48 49
v -62 48 43
v -62 51 62
v -62 51 60
v -62 53 40
v -62 53 9
v -62 53 -19
v -62 53 -49
v -62 56 42
v -62 56 41
v -62 58 63
v -62 58 62
v -62 63 42
v -62 63 41
v -62 64 42
v -62 64 39
v -62 67 43
v -62 67 42
v -62 67 39
v -62 67 38
v -62 68 63
v -62 68 62
v -62 71 62
v -62 71 55
v -62 73 45
v -62 73 38
v -62 77 55
v -62 77 45
v -62 80 63
v -62 80 -4
v -62 80 -5
v -62 80 -63
v 45 5 62
v 45 5 -22
v 45 5 -52
v 45 5 -61
v 45 37 50
v 45 37 48
v 45 38 50
v 45 38 48
v 45 45 -22
v 45 45 -52
v 45 80 62
v 45 80 -61
v 63 0 63
v 63 0 -63
v 63 4 62
v 63 4 -61
v 63 5 62
v 63 5 -61
v 63 80 63
v 63 80 62
v 63 80 -61
v 63 80 -63
v -63 0 63
v -63 58 63
v -63 68 63
v -63 80 63
v -62 0 63
v -62 58 63
v -62 68 63
v -62 80 63
v -61 0 63
v -61 4 63
v -61 5 63
v 44 4 63
v 44 5 63
v 44 80 63
v 63 0 63
v 63 80 63
v -63 18 9
v -63 53 9
v -62 18 9
v -62 53 9
v -62 4 -4
v -62 80 -4
v -61 4 -4
v -61 5 -4
v 44 5 -4
v 44 80 -4
v -63 18 -49
v -63 53 -49
v -62 18 -49
v -62 53 -49
v 44 5 -52
v 44 45 -52
v 45 5 -52
v 45 45 -52
v -61 5 -61
v -61 80 -61
v 44 5 -61
v 44 80 -61
v 45 5 -61
v 45 80 -61
v 63 5 -61
v 63 80 -61
v 45 5 62
v 45 80 62
v 63 5 62
v 63 80 62
v -63 18 40
v -63 53 40
v -62 18 40
v -62 53 40
v -62 4 -5
v -62 80 -5
v -61 4 -5
v -61 5 -5
v 44 5 -5
v 44 80 -5
v -63 18 -19
v -63 53 -19
v -62 18 -19
v -62 53 -19
v 44 5 -22
v 44 45 -22
v 45 5 -22
v 45 45 -22
v -63 0 -63
v -63 80 -63
v -62 0 -63
v -62 80 -63
v -61 0 -63
v -61 80 -63
v 63 0 -63
v 63 80 -63
v -63 0 63
v -62 0 63
v -61 0 63
v 63 0 63
v -63 0 -63
v -62 0 -63
v -61 0 -63
v 63 0 -63
v -62 4 -4
v -61 4 -4
v -62 4 -5
v -61 4 -5
v 44 45 -22
v 45 45 -22
v 44 45 -52
v 45 45 -52
v -63 53 40
v -62 53 40
v -63 53 9
v -62 53 9
v -63 53 -19
v -62 53 -19
v -63 53 -49
v -62 53 -49
v -61 5 63
v 44 5 63
v 45 5 62
v 63 5 62
v -61 5 -4
v 44 5 -4
v -61 5 -5
v 44 5 -5
v 44 5 -22
v 45 5 -22
v 44 5 -52
v 45 5 -52
v -61 5 -61
v 44 5 -61
v 45 5 -61
v 63 5 -61
v -63 18 40
v -62 18 40
v -63 18 9
v -62 18 9
v -63 18 -19
v -62 18 -19
v -63 18 -49
v -62 18 -49
v -63 80 63
v -62 80 63
v 44 80 63
v 63 80 63
v 45 80 62
v 63 80 62
v -62 80 -4
v 44 80 -4
v -62 80 -5
v 44 80 -5
v -61 80 -61
v 44 80 -61
v 45 80 -61
v 63 80 -61
v -63 80 -63
v -62 80 -63
v -61 80 -63
v 63 80 -63

# faces
f 3/2/1 2/2/1 1/2/1
f 4/2/1 2/2/1 3/2/1
f 5/2/1 2/2/1 4/2/1
f 6/2/1 2/2/1 5/2/1
f 7/2/1 3/2/1 1/2/1
f 8/2/1 3/2/1 7/2/1
f 9/2/1 3/2/1 8/2/1
f 10/2/1 3/2/1 9/2/1
f 11/2/1 7/2/1 1/2/1
f 11/3/1 8/3/1 7/3/1
f 12/2/1 9/2/1 8/2/1
f 12/3/1 8/3/1 11/3/1
f 13/2/1 9/2/1 12/2/1
f 14/2/1 9/2/1 13/2/1
f 15/3/1 10/3/1 9/3/1
f 15/2/1 9/2/1 14/2/1
f 16/2/1 12/2/1 11/2/1
f 16/3/1 13/3/1 12/3/1
f 17/2/1 14/2/1 13/2/1
f 17/3/1 13/3/1 16/3/1
f 18/3/1 15/3/1 14/3/1
f 18/2/1 14/2/1 17/2/1
f 18/2/1 17/2/1 16/2/1
f 19/3/1 10/3/1 15/3/1
f 19/3/1 15/3/1 18/3/1
f 20/2/1 16/2/1 11/2/1
f 20/2/1 18/2/1 16/2/1
f 20/2/1 19/2/1 18/2/1
f 21/2/1 19/2/1 20/2/1
f 22/3/1 10/3/1 19/3/1
f 22/2/1 19/2/1 21/2/1
f 23/3/1 10/3/1 22/3/1
f 24/3/1 10/3/1 23/3/1
f 25/2/1 3/2/1 10/2/1
f 25/3/1 10/3/1 24/3/1
f 26/2/1 20/2/1 11/2/1
f 27/3/1 21/3/1 20/3/1
f 27/2/1 20/2/1 26/2/1
f 28/2/1 22/2/1 21/2/1
f 28/3/1 21/3/1 27/3/1
f 28/2/1 23/2/1 22/2/1
f 29/3/1 24/3/1 23/3/1
f 29/2/1 23/2/1 28/2/1
f 30/3/1 28/3/1 27/3/1
f 30/3/1 24/3/1 29/3/1
f 30/3/1 29/3/1 28/3/1
f 30/2/1 25/2/1 24/2/1
f 30/3/1 27/3/1 26/3/1
f 31/2/1 3/2/1 25/2/1
f 31/2/1 25/2/1 30/2/1
f 32/2/1 26/2/1 11/2/1
f 32/2/1 11/2/1 1/2/1
f 33/3/1 30/3/1 26/3/1
f 33/2/1 26/2/1 32/2/1
f 33/3/1 31/3/1 30/3/1
f 34/2/1 3/2/1 31/2/1
f 35/2/1 5/2/1 4/2/1
f 36/2/1 5/2/1 35/2/1
f 37/2/1 2/2/1 6/2/1
f 38/2/1 36/2/1 35/2/1
f 38/2/1 37/2/1 36/2/1
f 38/2/1 34/2/1 31/2/1
f 38/2/1 35/2/1 34/2/1
f 39/2/1 37/2/1 38/2/1
f 40/2/1 32/2/1 1/2/1
f 41/3/1 33/3/1 32/3/1
f 41/2/1 32/2/1 40/2/1
f 42/2/1 38/2/1 31/2/1
f 42/3/1 39/3/1 38/3/1
f 43/2/1 37/2/1 39/2/1
f 43/3/1 39/3/1 42/3/1
f 44/2/1 42/2/1 31/2/1
f 44/2/1 43/2/1 42/2/1
f 45/2/1 37/2/1 43/2/1
f 45/2/1 43/2/1 44/2/1
f 46/2/1 44/2/1 31/2/1
f 46/3/1 31/3/1 33/3/1
f 46/3/1 33/3/1 41/3/1
f 46/3/1 41/3/1 40/3/1
f 47/3/1 45/3/1 44/3/1
f 47/2/1 44/2/1 46/2/1
f 48/2/1 37/2/1 45/2/1
f 48/3/1 45/3/1 47/3/1
f 49/2/1 37/2/1 48/2/1
f 50/3/1 47/3/1 46/3/1
f 50/3/1 46/3/1 40/3/1
f 50/3/1 49/3/1 48/3/1
f 50/3/1 48/3/1 47/3/1
f 51/3/1 49/3/1 50/3/1
f 52/2/1 51/2/1 50/2/1
f 52/3/1 49/3/1 51/3/1
f 53/3/1 49/3/1 52/3/1
f 54/3/1 49/3/1 53/3/1
f 55/2/1 37/2/1 49/2/1
f 55/3/1 49/3/1 54/3/1
f 56/3/1 54/3/1 53/3/1
f 56/2/1 53/2/1 52/2/1
f 57/2/1 55/2/1 54/2/1
f 57/3/1 54/3/1 56/3/1
f 58/2/1 52/2/1 50/2/1
f 58/2/1 56/2/1 52/2/1
f 58/2/1 57/2/1 56/2/1
f 59/2/1 2/2/1 37/2/1
f 59/2/1 57/2/1 58/2/1
f 59/2/1 37/2/1 55/2/1
f 59/2/1 55/2/1 57/2/1
f 62/2/1 61/2/1 60/2/1
f 63/2/1 61/2/1 62/2/1
f 64/2/1 61/2/1 63/2/1
f 65/2/1 61/2/1 64/2/1
f 66/4/1 63/4/1 62/4/1
f 67/4/1 63/4/1 66/4/1
f 68/1/1 65/1/1 64/1/1
f 69/2/1 61/2/1 65/2/1
f 69/1/1 65/1/1 68/1/1
f 70/2/1 61/2/1 69/2/1
f 71/2/1 61/2/1 70/2/1
f 78/2/1 73/2/1 72/2/1
f 79/2/1 73/2/1 78/2/1
f 80/2/1 78/2/1 72/2/1
f 80/3/1 79/3/1 78/3/1
f 81/2/1 73/2/1 79/2/1
f 81/3/1 79/3/1 80/3/1
f 82/2/1 75/2/1 74/2/1
f 83/2/1 77/2/1 76/2/1
f 84/2/1 80/2/1 72/2/1
f 84/2/1 81/2/1 80/2/1
f 85/2/1 73/2/1 81/2/1
f 85/2/1 81/2/1 84/2/1
f 86/2/1 82/2/1 74/2/1
f 86/2/1 83/2/1 82/2/1
f 87/2/1 77/2/1 83/2/1
f 87/2/1 83/2/1 86/2/1
f 88/2/2 89/2/2 90/2/2
f 90/2/2 89/2/2 91/2/2
f 88/2/2 90/2/2 92/2/2
f 92/2/2 90/2/2 93/2/2
f 91/2/2 89/2/2 94/2/2
f 94/2/2 89/2/2 95/2/2
f 88/2/2 92/2/2 96/2/2
f 96/2/2 92/2/2 97/2/2
f 97/2/2 92/2/2 98/2/2
f 98/2/2 92/2/2 99/2/2
f 88/2/2 96/2/2 100/2/2
f 96/3/2 97/3/2 100/3/2
f 97/2/2 98/2/2 101/2/2
f 100/3/2 97/3/2 101/3/2
f 101/2/2 98/2/2 102/2/2
f 102/2/2 98/2/2 103/2/2
f 98/3/2 99/3/2 104/3/2
f 103/2/2 98/2/2 104/2/2
f 100/2/2 101/2/2 105/2/2
f 101/3/2 102/3/2 105/3/2
f 102/2/2 103/2/2 106/2/2
f 105/3/2 102/3/2 106/3/2
f 103/3/2 104/3/2 107/3/2
f 106/2/2 103/2/2 107/2/2
f 105/2/2 106/2/2 107/2/2
f 104/3/2 99/3/2 108/3/2
f 107/3/2 104/3/2 108/3/2
f 100/2/2 105/2/2 109/2/2
f 105/2/2 107/2/2 109/2/2
f 107/2/2 108/2/2 109/2/2
f 109/2/2 108/2/2 110/2/2
f 108/3/2 99/3/2 111/3/2
f 110/2/2 108/2/2 111/2/2
f 111/3/2 99/3/2 112/3/2
f 112/3/2 99/3/2 113/3/2
f 99/2/2 92/2/2 114/2/2
f 113/3/2 99/3/2 114/3/2
f 100/2/2 109/2/2 115/2/2
f 109/3/2 110/3/2 116/3/2
f 115/2/2 109/2/2 116/2/2
f 110/2/2 111/2/2 117/2/2
f 116/3/2 110/3/2 117/3/2
f 111/2/2 112/2/2 117/2/2
f 112/3/2 113/3/2 118/3/2
f 117/2/2 112/2/2 118/2/2
f 116/3/2 117/3/2 119/3/2
f 118/3/2 113/3/2 119/3/2
f 117/3/2 118/3/2 119/3/2
f 113/2/2 114/2/2 119/2/2
f 115/3/2 116/3/2 119/3/2
f 114/2/2 92/2/2 120/2/2
f 119/2/2 114/2/2 120/2/2
f 100/2/2 115/2/2 121/2/2
f 88/2/2 100/2/2 121/2/2
f 115/3/2 119/3/2 122/3/2
f 121/2/2 115/2/2 122/2/2
f 119/3/2 120/3/2 122/3/2
f 120/2/2 92/2/2 123/2/2
f 93/2/2 90/2/2 124/2/2
f 91/2/2 94/2/2 125/2/2
f 95/2/2 89/2/2 126/2/2
f 120/2/2 123/2/2 127/2/2
f 123/2/2 124/2/2 127/2/2
f 127/2/2 124/2/2 128/2/2
f 88/2/2 121/2/2 129/2/2
f 121/3/2 122/3/2 130/3/2
f 129/2/2 121/2/2 130/2/2
f 120/2/2 127/2/2 131/2/2
f 127/3/2 128/3/2 131/3/2
f 128/2/2 124/2/2 132/2/2
f 131/3/2 128/3/2 132/3/2
f 120/2/2 131/2/2 133/2/2
f 131/2/2 132/2/2 133/2/2
f 132/2/2 124/2/2 134/2/2
f 133/2/2 132/2/2 134/2/2
f 120/2/2 133/2/2 135/2/2
f 122/3/2 120/3/2 135/3/2
f 130/3/2 122/3/2 135/3/2
f 129/3/2 130/3/2 135/3/2
f 133/3/2 134/3/2 136/3/2
f 135/2/2 133/2/2 136/2/2
f 134/2/2 124/2/2 137/2/2
f 136/3/2 134/3/2 137/3/2
f 137/2/2 124/2/2 138/2/2
f 135/3/2 136/3/2 139/3/2
f 129/3/2 135/3/2 139/3/2
f 137/3/2 138/3/2 139/3/2
f 136/3/2 137/3/2 139/3/2
f 139/3/2 138/3/2 140/3/2
f 139/2/2 140/2/2 141/2/2
f 140/3/2 138/3/2 141/3/2
f 141/3/2 138/3/2 142/3/2
f 142/3/2 138/3/2 143/3/2
f 138/2/2 124/2/2 144/2/2
f 143/3/2 138/3/2 144/3/2
f 142/3/2 143/3/2 145/3/2
f 141/2/2 142/2/2 145/2/2
f 143/2/2 144/2/2 146/2/2
f 145/3/2 143/3/2 146/3/2
f 139/2/2 141/2/2 147/2/2
f 141/2/2 145/2/2 147/2/2
f 145/2/2 146/2/2 147/2/2
f 144/2/2 124/2/2 148/2/2
f 147/2/2 146/2/2 148/2/2
f 124/2/2 90/2/2 148/2/2
f 146/2/2 144/2/2 148/2/2
f 125/2/2 126/2/2 149/2/2
f 91/2/2 125/2/2 149/2/2
f 126/2/2 89/2/2 150/2/2
f 149/2/2 126/2/2 150/2/2
f 151/2/2 152/2/2 155/2/2
f 155/2/2 152/2/2 156/2/2
f 151/2/2 155/2/2 157/2/2
f 155/3/2 156/3/2 157/3/2
f 156/2/2 152/2/2 158/2/2
f 157/3/2 156/3/2 158/3/2
f 157/2/2 158/2/2 159/2/2
f 158/2/2 152/2/2 159/2/2
f 153/2/2 154/2/2 160/2/2
f 157/2/2 159/2/2 161/2/2
f 159/2/2 160/2/2 161/2/2
f 151/2/2 157/2/2 161/2/2
f 160/2/2 154/2/2 162/2/2
f 161/2/2 160/2/2 162/2/2
f 163/2/2 164/2/2 165/2/2
f 165/2/2 164/2/2 166/2/2
f 163/2/2 165/2/2 167/2/2
f 165/1/2 166/1/2 167/1/2
f 166/2/2 164/2/2 168/2/2
f 167/1/2 166/1/2 168/1/2
f 163/2/2 167/2/2 169/2/2
f 169/2/2 167/2/2 170/2/2
f 168/2/2 164/2/2 171/2/2
f 171/2/2 164/2/2 172/2/2
f 177/2/3 174/2/3 173/2/3
f 178/3/3 175/3/3 174/3/3
f 178/2/3 174/2/3 177/2/3
f 179/2/3 176/2/3 175/2/3
f 179/3/3 175/3/3 178/3/3
f 180/2/3 176/2/3 179/2/3
f 184/2/3 182/2/3 181/2/3
f 184/4/3 183/4/3 182/4/3
f 185/4/3 183/4/3 184/4/3
f 187/2/3 184/2/3 181/2/3
f 187/2/3 186/2/3 185/2/3
f 187/2/3 185/2/3 184/2/3
f 188/2/3 186/2/3 187/2/3
f 191/2/3 190/2/3 189/2/3
f 192/2/3 190/2/3 191/2/3
f 195/2/3 194/2/3 193/2/3
f 196/2/3 194/2/3 195/2/3
f 197/2/3 194/2/3 196/2/3
f 198/2/3 194/2/3 197/2/3
f 201/2/3 200/2/3 199/2/3
f 202/2/3 200/2/3 201/2/3
f 205/2/3 204/2/3 203/2/3
f 206/2/3 204/2/3 205/2/3
f 209/2/3 208/2/3 207/2/3
f 210/2/3 208/2/3 209/2/3
f 213/2/3 212/2/3 211/2/3
f 214/2/3 212/2/3 213/2/3
f 215/2/4 216/2/4 217/2/4
f 217/2/4 216/2/4 218/2/4
f 219/2/4 220/2/4 221/2/4
f 221/2/4 220/2/4 222/2/4
f 223/2/4 224/2/4 225/2/4
f 225/2/4 224/2/4 226/2/4
f 226/2/4 224/2/4 227/2/4
f 227/2/4 224/2/4 228/2/4
f 229/2/4 230/2/4 231/2/4
f 231/2/4 230/2/4 232/2/4
f 233/2/4 234/2/4 235/2/4
f 235/2/4 234/2/4 236/2/4
f 237/2/4 238/2/4 239/2/4
f 239/2/4 238/2/4 240/2/4
f 241/2/4 242/2/4 243/2/4
f 243/2/4 242/2/4 244/2/4
f 249/2/5 246/2/5 245/2/5
f 250/2/5 246/2/5 249/2/5
f 251/2/5 248/2/5 247/2/5
f 252/2/5 248/2/5 251/2/5
f 255/2/5 254/2/5 253/2/5
f 256/2/5 254/2/5 255/2/5
f 259/2/5 258/2/5 257/2/5
f 260/2/5 258/2/5 259/2/5
f 263/2/5 262/2/5 261/2/5
f 264/2/5 262/2/5 263/2/5
f 267/2/5 266/2/5 265/2/5
f 268/2/5 266/2/5 267/2/5
f 269/4/6 270/4/6 273/4/6
f 273/4/6 270/4/6 274/4/6
f 275/1/6 276/1/6 277/1/6
f 271/1/6 272/1/6 278/1/6
f 275/1/6 277/1/6 279/1/6
f 277/1/6 278/1/6 279/1/6
f 278/1/6 272/1/6 280/1/6
f 279/1/6 278/1/6 280/1/6
f 275/1/6 279/1/6 281/1/6
f 281/1/6 279/1/6 282/1/6
f 280/1/6 272/1/6 283/1/6
f 283/1/6 272/1/6 284/1/6
f 285/2/6 286/2/6 287/2/6
f 287/2/6 286/2/6 288/2/6
f 289/2/6 290/2/6 291/2/6
f 291/2/6 290/2/6 292/2/6
f 295/2/6 296/2/6 297/2/6
f 297/2/6 296/2/6 298/2/6
f 293/2/6 294/2/6 299/2/6
f 295/2/6 297/2/6 300/2/6
f 293/2/6 299/2/6 301/2/6
f 299/2/6 300/2/6 301/2/6
f 300/2/6 297/2/6 302/2/6
f 301/2/6 300/2/6 302/2/6
f 302/2/6 297/2/6 304/2/6
f 304/2/6 297/2/6 305/2/6
f 293/2/6 301/2/6 307/2/6
f 307/2/6 301/2/6 308/2/6
f 305/2/6 306/2/6 309/2/6
f 303/2/6 304/2/6 309/2/6
f 304/2/6 305/2/6 309/2/6
f 309/2/6 306/2/6 310/2/6
