# MagicaVoxel @ Ephtracy

# group
g 4x2 second-7

# material
mtllib 4x2 second-7.mtl
usemtl palette

# normals
vn -1 0 0
vn 1 0 0
vn 0 0 1
vn 0 0 -1
vn 0 -1 0
vn 0 1 0

# texcoords
vt 0.958984 0.5
vt 0.966797 0.5
vt 0.974609 0.5

# verts
v -63 0 63
v -63 0 -63
v -63 4 61
v -63 4 -62
v -63 5 61
v -63 5 -62
v -63 80 63
v -63 80 61
v -63 80 -62
v -63 80 -63
v -19 18 63
v -19 18 61
v -19 53 63
v -19 53 61
v 43 18 63
v 43 18 61
v 43 53 63
v 43 53 61
v 61 5 61
v 61 5 -62
v 61 80 61
v 61 80 -62
v -49 18 63
v -49 18 61
v -49 53 63
v -49 53 61
v 13 18 63
v 13 18 61
v 13 53 63
v 13 53 61
v 63 0 63
v 63 0 -63
v 63 61 63
v 63 61 62
v 63 80 63
v 63 80 62
v 63 80 -63
v -63 0 63
v -63 80 63
v -49 18 63
v -49 53 63
v -19 18 63
v -19 53 63
v 13 18 63
v 13 53 63
v 23 63 63
v 23 69 63
v 24 63 63
v 24 69 63
v 25 70 63
v 25 73 63
v 26 58 63
v 26 62 63
v 28 62 63
v 28 69 63
v 29 69 63
v 29 70 63
v 29 72 63
v 29 73 63
v 37 73 63
v 37 74 63
v 39 72 63
v 39 73 63
v 39 74 63
v 39 80 63
v 43 18 63
v 43 53 63
v 48 58 63
v 48 59 63
v 50 52 63
v 50 58 63
v 51 58 63
v 51 59 63
v 56 48 63
v 56 52 63
v 57 52 63
v 57 61 63
v 59 59 63
v 59 60 63
v 60 48 63
v 60 52 63
v 60 59 63
v 60 60 63
v 63 0 63
v 63 61 63
v 63 80 63
v -63 5 -62
v -63 80 -62
v 61 5 -62
v 61 80 -62
v -63 5 61
v -63 80 61
v -49 18 61
v -49 53 61
v -19 18 61
v -19 53 61
v 13 18 61
v 13 53 61
v 43 18 61
v 43 53 61
v 61 5 61
v 61 80 61
v -63 0 -63
v -63 80 -63
v 63 0 -63
v 63 80 -63
v -63 0 63
v 63 0 63
v -63 0 -63
v 63 0 -63
v -49 53 63
v -19 53 63
v 13 53 63
v 43 53 63
v -49 53 61
v -19 53 61
v 13 53 61
v 43 53 61
v -63 5 61
v 61 5 61
v -63 5 -62
v 61 5 -62
v -49 18 63
v -19 18 63
v 13 18 63
v 43 18 63
v -49 18 61
v -19 18 61
v 13 18 61
v 43 18 61
v -63 80 63
v 39 80 63
v 63 80 63
v 39 80 62
v 63 80 62
v -63 80 61
v 61 80 61
v -63 80 -62
v 61 80 -62
v -63 80 -63
v 63 80 -63

# faces
f 3/2/1 2/2/1 1/2/1
f 4/2/1 2/2/1 3/2/1
f 5/2/1 3/2/1 1/2/1
f 5/1/1 4/1/1 3/1/1
f 6/2/1 2/2/1 4/2/1
f 6/1/1 4/1/1 5/1/1
f 7/2/1 5/2/1 1/2/1
f 8/2/1 5/2/1 7/2/1
f 9/2/1 2/2/1 6/2/1
f 10/2/1 2/2/1 9/2/1
f 13/2/1 12/2/1 11/2/1
f 14/2/1 12/2/1 13/2/1
f 17/2/1 16/2/1 15/2/1
f 18/2/1 16/2/1 17/2/1
f 21/2/1 20/2/1 19/2/1
f 22/2/1 20/2/1 21/2/1
f 23/2/2 24/2/2 25/2/2
f 25/2/2 24/2/2 26/2/2
f 27/2/2 28/2/2 29/2/2
f 29/2/2 28/2/2 30/2/2
f 31/2/2 32/2/2 33/2/2
f 33/2/2 32/2/2 34/2/2
f 33/3/2 34/3/2 35/3/2
f 34/2/2 32/2/2 36/2/2
f 35/3/2 34/3/2 36/3/2
f 36/2/2 32/2/2 37/2/2
f 40/2/3 39/2/3 38/2/3
f 41/2/3 39/2/3 40/2/3
f 42/2/3 40/2/3 38/2/3
f 43/2/3 39/2/3 41/2/3
f 44/2/3 42/2/3 38/2/3
f 44/2/3 43/2/3 42/2/3
f 45/2/3 39/2/3 43/2/3
f 45/2/3 43/2/3 44/2/3
f 46/2/3 39/2/3 45/2/3
f 47/2/3 39/2/3 46/2/3
f 48/2/3 46/2/3 45/2/3
f 48/3/3 47/3/3 46/3/3
f 49/2/3 39/2/3 47/2/3
f 49/3/3 47/3/3 48/3/3
f 50/2/3 49/2/3 48/2/3
f 50/2/3 39/2/3 49/2/3
f 51/2/3 39/2/3 50/2/3
f 52/2/3 48/2/3 45/2/3
f 52/2/3 50/2/3 48/2/3
f 53/2/3 50/2/3 52/2/3
f 54/3/3 53/3/3 52/3/3
f 54/2/3 50/2/3 53/2/3
f 55/2/3 50/2/3 54/2/3
f 56/3/3 55/3/3 54/3/3
f 56/2/3 50/2/3 55/2/3
f 57/3/3 51/3/3 50/3/3
f 57/2/3 50/2/3 56/2/3
f 58/3/3 51/3/3 57/3/3
f 59/2/3 39/2/3 51/2/3
f 59/3/3 51/3/3 58/3/3
f 60/2/3 59/2/3 58/2/3
f 60/2/3 39/2/3 59/2/3
f 61/2/3 39/2/3 60/2/3
f 62/3/3 58/3/3 57/3/3
f 62/3/3 57/3/3 56/3/3
f 62/2/3 60/2/3 58/2/3
f 63/3/3 61/3/3 60/3/3
f 63/2/3 60/2/3 62/2/3
f 64/2/3 39/2/3 61/2/3
f 64/3/3 61/3/3 63/3/3
f 65/2/3 39/2/3 64/2/3
f 66/2/3 44/2/3 38/2/3
f 67/2/3 52/2/3 45/2/3
f 68/3/3 63/3/3 62/3/3
f 68/2/3 67/2/3 66/2/3
f 68/2/3 52/2/3 67/2/3
f 68/3/3 56/3/3 54/3/3
f 68/3/3 65/3/3 64/3/3
f 68/3/3 64/3/3 63/3/3
f 68/3/3 62/3/3 56/3/3
f 68/3/3 54/3/3 52/3/3
f 69/3/3 65/3/3 68/3/3
f 70/2/3 68/2/3 66/2/3
f 70/2/3 69/2/3 68/2/3
f 71/2/3 69/2/3 70/2/3
f 72/3/3 71/3/3 70/3/3
f 72/2/3 69/2/3 71/2/3
f 73/3/3 65/3/3 69/3/3
f 73/2/3 69/2/3 72/2/3
f 74/2/3 70/2/3 66/2/3
f 75/3/3 72/3/3 70/3/3
f 75/2/3 70/2/3 74/2/3
f 75/3/3 73/3/3 72/3/3
f 76/3/3 75/3/3 74/3/3
f 76/3/3 73/3/3 75/3/3
f 77/3/3 65/3/3 73/3/3
f 77/3/3 73/3/3 76/3/3
f 78/2/3 77/2/3 76/2/3
f 79/2/3 77/2/3 78/2/3
f 80/2/3 74/2/3 66/2/3
f 80/3/3 76/3/3 74/3/3
f 81/2/3 78/2/3 76/2/3
f 81/3/3 76/3/3 80/3/3
f 82/3/3 79/3/3 78/3/3
f 82/2/3 78/2/3 81/2/3
f 83/2/3 77/2/3 79/2/3
f 83/3/3 79/3/3 82/3/3
f 84/2/3 66/2/3 38/2/3
f 84/2/3 82/2/3 81/2/3
f 84/2/3 83/2/3 82/2/3
f 84/2/3 80/2/3 66/2/3
f 84/2/3 81/2/3 80/2/3
f 85/2/3 77/2/3 83/2/3
f 85/2/3 83/2/3 84/2/3
f 85/3/3 65/3/3 77/3/3
f 86/3/3 65/3/3 85/3/3
f 89/2/3 88/2/3 87/2/3
f 90/2/3 88/2/3 89/2/3
f 91/2/4 92/2/4 93/2/4
f 93/2/4 92/2/4 94/2/4
f 91/2/4 93/2/4 95/2/4
f 94/2/4 92/2/4 96/2/4
f 91/2/4 95/2/4 97/2/4
f 95/2/4 96/2/4 97/2/4
f 96/2/4 92/2/4 98/2/4
f 97/2/4 96/2/4 98/2/4
f 91/2/4 97/2/4 99/2/4
f 98/2/4 92/2/4 100/2/4
f 91/2/4 99/2/4 101/2/4
f 99/2/4 100/2/4 101/2/4
f 100/2/4 92/2/4 102/2/4
f 101/2/4 100/2/4 102/2/4
f 103/2/4 104/2/4 105/2/4
f 105/2/4 104/2/4 106/2/4
f 109/2/5 108/2/5 107/2/5
f 110/2/5 108/2/5 109/2/5
f 115/2/5 112/2/5 111/2/5
f 116/2/5 112/2/5 115/2/5
f 117/2/5 114/2/5 113/2/5
f 118/2/5 114/2/5 117/2/5
f 119/1/6 120/1/6 121/1/6
f 121/1/6 120/1/6 122/1/6
f 123/2/6 124/2/6 127/2/6
f 127/2/6 124/2/6 128/2/6
f 125/2/6 126/2/6 129/2/6
f 129/2/6 126/2/6 130/2/6
f 131/2/6 132/2/6 134/2/6
f 132/3/6 133/3/6 134/3/6
f 134/3/6 133/3/6 135/3/6
f 131/2/6 134/2/6 136/2/6
f 134/2/6 135/2/6 136/2/6
f 136/2/6 135/2/6 137/2/6
f 137/2/6 135/2/6 139/2/6
f 138/2/6 139/2/6 140/2/6
f 139/2/6 135/2/6 141/2/6
f 140/2/6 139/2/6 141/2/6
