# MagicaVoxel @ Ephtracy

# group
g 4x2 first (1)-3

# material
mtllib 4x2 first (1)-3.mtl
usemtl palette

# normals
vn -1 0 0
vn 1 0 0
vn 0 0 1
vn 0 0 -1
vn 0 -1 0
vn 0 1 0

# texcoords
vt 0.873047 0.5
vt 0.966797 0.5
vt 0.982422 0.5

# verts
v -63 0 63
v -63 0 -63
v -63 4 62
v -63 4 -63
v -63 5 62
v -63 5 -63
v -63 67 62
v -63 67 61
v -63 80 63
v -63 80 61
v -27 5 62
v -27 5 -63
v -27 67 62
v -27 67 61
v -27 80 61
v -27 80 -63
v 31 5 63
v 31 5 62
v 31 45 63
v 31 45 62
v -25 5 62
v -25 5 -63
v -25 67 62
v -25 67 61
v -25 80 61
v -25 80 -63
v 1 5 63
v 1 5 62
v 1 45 63
v 1 45 62
v 63 0 63
v 63 0 -63
v 63 5 62
v 63 5 -63
v 63 67 62
v 63 67 61
v 63 80 63
v 63 80 61
v -63 0 63
v -63 80 63
v 1 5 63
v 1 45 63
v 31 5 63
v 31 45 63
v 63 0 63
v 63 80 63
v -63 5 62
v -63 67 62
v -27 5 62
v -27 67 62
v -25 5 62
v -25 67 62
v 1 5 62
v 1 45 62
v 31 5 62
v 31 45 62
v 63 5 62
v 63 67 62
v -63 67 61
v -63 80 61
v -27 67 61
v -27 80 61
v -25 67 61
v -25 80 61
v 63 67 61
v 63 80 61
v -63 0 -63
v -63 4 -63
v -63 5 -63
v -27 4 -63
v -27 5 -63
v -27 80 -63
v -25 5 -63
v -25 80 -63
v 63 0 -63
v 63 5 -63
v -63 0 63
v 63 0 63
v -63 0 -63
v 63 0 -63
v 1 45 63
v 31 45 63
v 1 45 62
v 31 45 62
v -63 67 62
v -27 67 62
v -25 67 62
v 63 67 62
v -63 67 61
v -27 67 61
v -25 67 61
v 63 67 61
v 1 5 63
v 31 5 63
v -63 5 62
v -27 5 62
v -25 5 62
v 1 5 62
v 31 5 62
v 63 5 62
v 18 5 60
v 20 5 60
v 18 5 59
v 20 5 59
v 24 5 56
v 27 5 56
v 7 5 55
v 9 5 55
v 24 5 55
v 27 5 55
v 7 5 53
v 9 5 53
v 8 5 51
v 11 5 51
v 27 5 48
v 29 5 48
v 8 5 45
v 11 5 45
v 27 5 45
v 28 5 45
v 29 5 45
v 30 5 45
v 13 5 41
v 18 5 41
v 13 5 39
v 18 5 39
v 28 5 38
v 30 5 38
v 30 5 35
v 34 5 35
v 21 5 33
v 22 5 33
v 19 5 32
v 21 5 32
v 30 5 32
v 34 5 32
v 34 5 29
v 37 5 29
v 34 5 25
v 37 5 25
v 40 5 24
v 47 5 24
v 19 5 23
v 22 5 23
v 40 5 23
v 44 5 23
v 44 5 21
v 47 5 21
v 51 5 21
v 25 5 20
v 27 5 20
v 47 5 18
v 51 5 18
v 25 5 17
v 26 5 17
v 27 5 17
v 31 5 17
v 50 5 17
v 59 5 17
v 26 5 12
v 31 5 12
v 33 5 12
v 31 5 9
v 33 5 9
v 33 5 8
v 37 5 8
v 33 5 4
v 37 5 4
v 38 5 4
v 44 5 4
v 50 5 2
v 59 5 2
v 47 5 1
v 50 5 1
v 38 5 -1
v 44 5 -1
v 45 5 -1
v 47 5 -1
v 50 5 -1
v 51 5 -1
v 51 5 -2
v 60 5 -2
v 45 5 -5
v 47 5 -5
v 47 5 -8
v 48 5 -8
v 48 5 -16
v 60 5 -16
v -63 5 -63
v -27 5 -63
v -25 5 -63
v 63 5 -63
v -63 80 63
v 63 80 63
v -63 80 61
v -27 80 61
v -25 80 61
v 63 80 61
v -27 80 -63
v -25 80 -63

# faces
f 3/2/1 2/2/1 1/2/1
f 4/2/1 2/2/1 3/2/1
f 5/2/1 3/2/1 1/2/1
f 5/3/1 4/3/1 3/3/1
f 6/3/1 4/3/1 5/3/1
f 7/2/1 5/2/1 1/2/1
f 9/2/1 7/2/1 1/2/1
f 9/2/1 8/2/1 7/2/1
f 10/2/1 8/2/1 9/2/1
f 13/2/1 12/2/1 11/2/1
f 14/2/1 12/2/1 13/2/1
f 15/2/1 12/2/1 14/2/1
f 16/2/1 12/2/1 15/2/1
f 19/2/1 18/2/1 17/2/1
f 20/2/1 18/2/1 19/2/1
f 21/2/2 22/2/2 23/2/2
f 23/2/2 22/2/2 24/2/2
f 24/2/2 22/2/2 25/2/2
f 25/2/2 22/2/2 26/2/2
f 27/2/2 28/2/2 29/2/2
f 29/2/2 28/2/2 30/2/2
f 31/2/2 32/2/2 33/2/2
f 33/2/2 32/2/2 34/2/2
f 31/2/2 33/2/2 35/2/2
f 31/2/2 35/2/2 37/2/2
f 35/2/2 36/2/2 37/2/2
f 37/2/2 36/2/2 38/2/2
f 41/2/3 40/2/3 39/2/3
f 42/2/3 40/2/3 41/2/3
f 43/2/3 41/2/3 39/2/3
f 44/2/3 40/2/3 42/2/3
f 45/2/3 43/2/3 39/2/3
f 45/2/3 44/2/3 43/2/3
f 46/2/3 40/2/3 44/2/3
f 46/2/3 44/2/3 45/2/3
f 47/2/4 48/2/4 49/2/4
f 49/2/4 48/2/4 50/2/4
f 51/2/4 52/2/4 53/2/4
f 53/2/4 52/2/4 54/2/4
f 54/2/4 52/2/4 56/2/4
f 55/2/4 56/2/4 57/2/4
f 56/2/4 52/2/4 58/2/4
f 57/2/4 56/2/4 58/2/4
f 59/2/4 60/2/4 61/2/4
f 61/2/4 60/2/4 62/2/4
f 63/2/4 64/2/4 65/2/4
f 65/2/4 64/2/4 66/2/4
f 67/2/4 68/2/4 70/2/4
f 68/3/4 69/3/4 70/3/4
f 70/3/4 69/3/4 71/3/4
f 70/2/4 71/2/4 73/2/4
f 71/2/4 72/2/4 73/2/4
f 73/2/4 72/2/4 74/2/4
f 67/2/4 70/2/4 75/2/4
f 70/2/4 73/2/4 75/2/4
f 75/2/4 73/2/4 76/2/4
f 79/2/5 78/2/5 77/2/5
f 80/2/5 78/2/5 79/2/5
f 83/2/5 82/2/5 81/2/5
f 84/2/5 82/2/5 83/2/5
f 89/2/5 86/2/5 85/2/5
f 90/2/5 86/2/5 89/2/5
f 91/2/5 88/2/5 87/2/5
f 92/2/5 88/2/5 91/2/5
f 93/2/6 94/2/6 98/2/6
f 98/2/6 94/2/6 99/2/6
f 97/2/6 98/2/6 101/2/6
f 99/2/6 100/2/6 101/2/6
f 98/2/6 99/2/6 101/2/6
f 101/2/6 100/2/6 102/2/6
f 97/2/6 101/2/6 103/2/6
f 101/1/6 102/1/6 103/1/6
f 102/2/6 100/2/6 104/2/6
f 103/1/6 102/1/6 104/1/6
f 103/2/6 104/2/6 105/2/6
f 104/2/6 100/2/6 105/2/6
f 105/2/6 100/2/6 106/2/6
f 97/2/6 103/2/6 107/2/6
f 103/2/6 105/2/6 107/2/6
f 107/2/6 105/2/6 108/2/6
f 105/1/6 106/1/6 109/1/6
f 108/2/6 105/2/6 109/2/6
f 106/2/6 100/2/6 110/2/6
f 109/1/6 106/1/6 110/1/6
f 107/1/6 108/1/6 111/1/6
f 97/2/6 107/2/6 111/2/6
f 108/2/6 109/2/6 112/2/6
f 111/1/6 108/1/6 112/1/6
f 109/2/6 110/2/6 112/2/6
f 111/2/6 112/2/6 113/2/6
f 112/2/6 110/2/6 114/2/6
f 113/2/6 112/2/6 114/2/6
f 110/2/6 100/2/6 115/2/6
f 114/2/6 110/2/6 115/2/6
f 115/2/6 100/2/6 116/2/6
f 113/1/6 114/1/6 117/1/6
f 111/2/6 113/2/6 117/2/6
f 114/2/6 115/2/6 118/2/6
f 117/1/6 114/1/6 118/1/6
f 115/1/6 116/1/6 119/1/6
f 118/2/6 115/2/6 119/2/6
f 119/1/6 116/1/6 120/1/6
f 116/2/6 100/2/6 121/2/6
f 120/1/6 116/1/6 121/1/6
f 121/2/6 100/2/6 122/2/6
f 119/2/6 120/2/6 123/2/6
f 117/2/6 118/2/6 123/2/6
f 118/2/6 119/2/6 123/2/6
f 123/2/6 120/2/6 124/2/6
f 117/2/6 123/2/6 125/2/6
f 123/1/6 124/1/6 125/1/6
f 124/2/6 120/2/6 126/2/6
f 125/1/6 124/1/6 126/1/6
f 121/1/6 122/1/6 127/1/6
f 126/2/6 120/2/6 127/2/6
f 125/2/6 126/2/6 127/2/6
f 120/1/6 121/1/6 127/1/6
f 122/2/6 100/2/6 128/2/6
f 127/1/6 122/1/6 128/1/6
f 127/2/6 128/2/6 129/2/6
f 128/2/6 100/2/6 129/2/6
f 129/2/6 100/2/6 130/2/6
f 125/2/6 127/2/6 131/2/6
f 127/2/6 129/2/6 131/2/6
f 131/2/6 129/2/6 132/2/6
f 125/2/6 131/2/6 133/2/6
f 131/1/6 132/1/6 134/1/6
f 133/2/6 131/2/6 134/2/6
f 129/1/6 130/1/6 135/1/6
f 132/2/6 129/2/6 135/2/6
f 130/2/6 100/2/6 136/2/6
f 135/1/6 130/1/6 136/1/6
f 135/2/6 136/2/6 137/2/6
f 136/2/6 100/2/6 137/2/6
f 137/2/6 100/2/6 138/2/6
f 135/2/6 137/2/6 139/2/6
f 137/1/6 138/1/6 139/1/6
f 138/2/6 100/2/6 140/2/6
f 139/1/6 138/1/6 140/1/6
f 139/2/6 140/2/6 141/2/6
f 140/2/6 100/2/6 141/2/6
f 141/2/6 100/2/6 142/2/6
f 133/1/6 134/1/6 143/1/6
f 125/2/6 133/2/6 143/2/6
f 132/2/6 135/2/6 144/2/6
f 143/1/6 134/1/6 144/1/6
f 134/1/6 132/1/6 144/1/6
f 139/2/6 141/2/6 144/2/6
f 135/2/6 139/2/6 144/2/6
f 141/1/6 142/1/6 145/1/6
f 144/2/6 141/2/6 145/2/6
f 145/1/6 142/1/6 146/1/6
f 143/2/6 144/2/6 147/2/6
f 146/1/6 142/1/6 147/1/6
f 145/2/6 146/2/6 147/2/6
f 144/2/6 145/2/6 147/2/6
f 142/2/6 100/2/6 148/2/6
f 147/1/6 142/1/6 148/1/6
f 148/2/6 100/2/6 149/2/6
f 143/2/6 147/2/6 150/2/6
f 147/2/6 148/2/6 150/2/6
f 150/2/6 148/2/6 151/2/6
f 148/1/6 149/1/6 152/1/6
f 151/2/6 148/2/6 152/2/6
f 149/2/6 100/2/6 153/2/6
f 152/1/6 149/1/6 153/1/6
f 150/1/6 151/1/6 154/1/6
f 143/2/6 150/2/6 154/2/6
f 154/1/6 151/1/6 155/1/6
f 151/2/6 152/2/6 156/2/6
f 155/1/6 151/1/6 156/1/6
f 152/2/6 153/2/6 156/2/6
f 156/2/6 153/2/6 157/2/6
f 157/2/6 153/2/6 158/2/6
f 153/2/6 100/2/6 159/2/6
f 158/2/6 153/2/6 159/2/6
f 154/2/6 155/2/6 160/2/6
f 155/1/6 156/1/6 160/1/6
f 156/1/6 157/1/6 160/1/6
f 157/2/6 158/2/6 161/2/6
f 160/1/6 157/1/6 161/1/6
f 161/2/6 158/2/6 162/2/6
f 160/2/6 161/2/6 163/2/6
f 161/1/6 162/1/6 163/1/6
f 162/2/6 158/2/6 164/2/6
f 163/1/6 162/1/6 164/1/6
f 163/2/6 164/2/6 165/2/6
f 164/2/6 158/2/6 165/2/6
f 165/2/6 158/2/6 166/2/6
f 163/2/6 165/2/6 167/2/6
f 165/1/6 166/1/6 167/1/6
f 166/2/6 158/2/6 168/2/6
f 167/1/6 166/1/6 168/1/6
f 168/2/6 158/2/6 169/2/6
f 169/2/6 158/2/6 170/2/6
f 158/1/6 159/1/6 171/1/6
f 170/2/6 158/2/6 171/2/6
f 159/2/6 100/2/6 172/2/6
f 171/1/6 159/1/6 172/1/6
f 170/2/6 171/2/6 173/2/6
f 171/2/6 172/2/6 173/2/6
f 173/2/6 172/2/6 174/2/6
f 169/1/6 170/1/6 175/1/6
f 167/2/6 168/2/6 175/2/6
f 168/2/6 169/2/6 175/2/6
f 170/2/6 173/2/6 176/2/6
f 175/1/6 170/1/6 176/1/6
f 176/2/6 173/2/6 177/2/6
f 173/1/6 174/1/6 178/1/6
f 177/2/6 173/2/6 178/2/6
f 174/2/6 172/2/6 179/2/6
f 178/1/6 174/1/6 179/1/6
f 179/2/6 172/2/6 180/2/6
f 177/1/6 178/1/6 181/1/6
f 180/2/6 172/2/6 181/2/6
f 179/1/6 180/1/6 181/1/6
f 178/1/6 179/1/6 181/1/6
f 172/2/6 100/2/6 182/2/6
f 181/2/6 172/2/6 182/2/6
f 177/1/6 181/1/6 183/1/6
f 175/2/6 176/2/6 183/2/6
f 181/1/6 182/1/6 183/1/6
f 176/2/6 177/2/6 183/2/6
f 183/1/6 182/1/6 184/1/6
f 183/2/6 184/2/6 185/2/6
f 184/1/6 182/1/6 185/1/6
f 185/1/6 182/1/6 186/1/6
f 185/2/6 186/2/6 187/2/6
f 186/1/6 182/1/6 187/1/6
f 182/2/6 100/2/6 188/2/6
f 187/1/6 182/1/6 188/1/6
f 95/3/6 96/3/6 189/3/6
f 189/3/6 96/3/6 190/3/6
f 97/2/6 111/2/6 191/2/6
f 125/2/6 143/2/6 191/2/6
f 117/2/6 125/2/6 191/2/6
f 187/2/6 188/2/6 191/2/6
f 183/2/6 185/2/6 191/2/6
f 175/2/6 183/2/6 191/2/6
f 163/2/6 167/2/6 191/2/6
f 160/2/6 163/2/6 191/2/6
f 167/2/6 175/2/6 191/2/6
f 143/2/6 154/2/6 191/2/6
f 154/2/6 160/2/6 191/2/6
f 185/2/6 187/2/6 191/2/6
f 111/2/6 117/2/6 191/2/6
f 188/2/6 100/2/6 192/2/6
f 191/2/6 188/2/6 192/2/6
f 193/2/6 194/2/6 195/2/6
f 195/2/6 194/2/6 196/2/6
f 196/2/6 194/2/6 197/2/6
f 197/2/6 194/2/6 198/2/6
f 196/2/6 197/2/6 199/2/6
f 199/2/6 197/2/6 200/2/6
