# MagicaVoxel @ Ephtracy

# group
g 4x2 second-2

# material
mtllib 4x2 second-2.mtl
usemtl palette

# normals
vn -1 0 0
vn 1 0 0
vn 0 0 1
vn 0 0 -1
vn 0 -1 0
vn 0 1 0

# texcoords
vt 0.533203 0.5
vt 0.537109 0.5
vt 0.966797 0.5

# verts
v -63 0 63
v -63 0 -63
v -63 4 62
v -63 4 -61
v -63 5 62
v -63 5 -61
v -63 80 63
v -63 80 62
v -63 80 -61
v -63 80 -63
v 36 5 63
v 36 5 62
v 36 45 63
v 36 45 62
v 62 5 62
v 62 5 -29
v 62 5 -61
v 62 80 62
v 62 80 -61
v 6 5 63
v 6 5 62
v 6 45 63
v 6 45 62
v 63 0 63
v 63 0 -63
v 63 80 63
v 63 80 -63
v -63 0 63
v -63 80 63
v 6 4 63
v 6 5 63
v 6 45 63
v 36 4 63
v 36 5 63
v 36 45 63
v 63 0 63
v 63 80 63
v -63 5 -61
v -63 80 -61
v 39 5 -61
v 62 5 -61
v 62 80 -61
v -63 5 62
v -63 80 62
v 6 5 62
v 6 45 62
v 36 5 62
v 36 45 62
v 62 5 62
v 62 80 62
v -63 0 -63
v -63 80 -63
v 63 0 -63
v 63 80 -63
v -63 0 63
v 63 0 63
v -63 0 -63
v 63 0 -63
v 6 45 63
v 36 45 63
v 6 45 62
v 36 45 62
v 6 5 63
v 36 5 63
v -63 5 62
v 6 5 62
v 36 5 62
v 62 5 62
v 55 5 -13
v 58 5 -13
v 32 5 -16
v 42 5 -16
v 50 5 -16
v 51 5 -16
v 49 5 -20
v 50 5 -20
v 51 5 -20
v 55 5 -20
v 42 5 -21
v 49 5 -21
v 57 5 -27
v 58 5 -27
v 57 5 -29
v 62 5 -29
v 27 5 -31
v 32 5 -31
v 25 5 -32
v 27 5 -32
v 25 5 -36
v 27 5 -36
v 20 5 -38
v 22 5 -38
v 22 5 -39
v 27 5 -39
v 20 5 -42
v 22 5 -42
v 21 5 -44
v 22 5 -44
v 21 5 -47
v 22 5 -47
v 23 5 -50
v 27 5 -50
v 36 5 -50
v 39 5 -50
v 23 5 -53
v 27 5 -53
v 35 5 -54
v 36 5 -54
v 22 5 -56
v 29 5 -56
v 29 5 -59
v 35 5 -59
v -63 5 -61
v 39 5 -61
v 62 5 -61
v -63 80 63
v 63 80 63
v -63 80 62
v 62 80 62
v -63 80 -61
v 62 80 -61
v -63 80 -63
v 63 80 -63

# faces
f 3/3/1 2/3/1 1/3/1
f 4/3/1 2/3/1 3/3/1
f 5/3/1 3/3/1 1/3/1
f 5/2/1 4/2/1 3/2/1
f 6/3/1 2/3/1 4/3/1
f 6/2/1 4/2/1 5/2/1
f 7/3/1 5/3/1 1/3/1
f 8/3/1 5/3/1 7/3/1
f 9/3/1 2/3/1 6/3/1
f 10/3/1 2/3/1 9/3/1
f 13/3/1 12/3/1 11/3/1
f 14/3/1 12/3/1 13/3/1
f 18/3/1 16/3/1 15/3/1
f 18/3/1 17/3/1 16/3/1
f 19/3/1 17/3/1 18/3/1
f 20/3/2 21/3/2 22/3/2
f 22/3/2 21/3/2 23/3/2
f 24/3/2 25/3/2 26/3/2
f 26/3/2 25/3/2 27/3/2
f 30/3/3 29/3/3 28/3/3
f 31/3/3 29/3/3 30/3/3
f 32/3/3 29/3/3 31/3/3
f 33/3/3 30/3/3 28/3/3
f 33/2/3 31/2/3 30/2/3
f 34/2/3 31/2/3 33/2/3
f 35/3/3 29/3/3 32/3/3
f 36/3/3 34/3/3 33/3/3
f 36/3/3 35/3/3 34/3/3
f 36/3/3 33/3/3 28/3/3
f 37/3/3 29/3/3 35/3/3
f 37/3/3 35/3/3 36/3/3
f 40/3/3 39/3/3 38/3/3
f 41/3/3 39/3/3 40/3/3
f 42/3/3 39/3/3 41/3/3
f 43/3/4 44/3/4 45/3/4
f 45/3/4 44/3/4 46/3/4
f 46/3/4 44/3/4 48/3/4
f 47/3/4 48/3/4 49/3/4
f 48/3/4 44/3/4 50/3/4
f 49/3/4 48/3/4 50/3/4
f 51/3/4 52/3/4 53/3/4
f 53/3/4 52/3/4 54/3/4
f 57/3/5 56/3/5 55/3/5
f 58/3/5 56/3/5 57/3/5
f 61/3/5 60/3/5 59/3/5
f 62/3/5 60/3/5 61/3/5
f 63/2/6 64/2/6 66/2/6
f 66/2/6 64/2/6 67/2/6
f 65/2/6 66/2/6 69/2/6
f 67/2/6 68/2/6 69/2/6
f 66/2/6 67/2/6 69/2/6
f 69/2/6 68/2/6 70/2/6
f 65/2/6 69/2/6 71/2/6
f 71/2/6 69/2/6 72/2/6
f 72/2/6 69/2/6 73/2/6
f 73/2/6 69/2/6 74/2/6
f 72/2/6 73/2/6 75/2/6
f 73/1/6 74/1/6 76/1/6
f 75/2/6 73/2/6 76/2/6
f 74/2/6 69/2/6 77/2/6
f 76/1/6 74/1/6 77/1/6
f 69/1/6 70/1/6 78/1/6
f 77/2/6 69/2/6 78/2/6
f 71/1/6 72/1/6 79/1/6
f 72/2/6 75/2/6 79/2/6
f 76/1/6 77/1/6 80/1/6
f 79/2/6 75/2/6 80/2/6
f 75/1/6 76/1/6 80/1/6
f 77/1/6 78/1/6 80/1/6
f 78/1/6 70/1/6 81/1/6
f 80/1/6 78/1/6 81/1/6
f 79/1/6 80/1/6 81/1/6
f 70/2/6 68/2/6 82/2/6
f 81/1/6 70/1/6 82/1/6
f 79/1/6 81/1/6 83/1/6
f 81/2/6 82/2/6 83/2/6
f 82/2/6 68/2/6 84/2/6
f 83/2/6 82/2/6 84/2/6
f 65/2/6 71/2/6 85/2/6
f 79/1/6 83/1/6 86/1/6
f 85/2/6 71/2/6 86/2/6
f 71/1/6 79/1/6 86/1/6
f 83/1/6 84/1/6 86/1/6
f 65/2/6 85/2/6 87/2/6
f 85/1/6 86/1/6 88/1/6
f 87/2/6 85/2/6 88/2/6
f 65/2/6 87/2/6 89/2/6
f 87/1/6 88/1/6 89/1/6
f 88/1/6 86/1/6 90/1/6
f 89/1/6 88/1/6 90/1/6
f 65/2/6 89/2/6 91/2/6
f 89/2/6 90/2/6 91/2/6
f 91/2/6 90/2/6 92/2/6
f 91/1/6 92/1/6 93/1/6
f 92/2/6 90/2/6 93/2/6
f 90/1/6 86/1/6 94/1/6
f 93/2/6 90/2/6 94/2/6
f 91/1/6 93/1/6 95/1/6
f 65/2/6 91/2/6 95/2/6
f 93/1/6 94/1/6 95/1/6
f 95/1/6 94/1/6 96/1/6
f 95/2/6 96/2/6 97/2/6
f 96/1/6 94/1/6 98/1/6
f 97/2/6 96/2/6 98/2/6
f 95/2/6 97/2/6 99/2/6
f 97/1/6 98/1/6 99/1/6
f 98/1/6 94/1/6 100/1/6
f 99/1/6 98/1/6 100/1/6
f 100/1/6 94/1/6 101/1/6
f 94/1/6 86/1/6 102/1/6
f 101/1/6 94/1/6 102/1/6
f 86/1/6 84/1/6 103/1/6
f 102/1/6 86/1/6 103/1/6
f 103/1/6 84/1/6 104/1/6
f 101/2/6 102/2/6 105/2/6
f 100/1/6 101/1/6 105/1/6
f 102/1/6 103/1/6 106/1/6
f 105/2/6 102/2/6 106/2/6
f 105/1/6 106/1/6 107/1/6
f 106/1/6 103/1/6 107/1/6
f 103/2/6 104/2/6 108/2/6
f 107/1/6 103/1/6 108/1/6
f 105/1/6 107/1/6 109/1/6
f 99/2/6 100/2/6 109/2/6
f 100/1/6 105/1/6 109/1/6
f 109/1/6 107/1/6 110/1/6
f 109/2/6 110/2/6 111/2/6
f 110/1/6 107/1/6 111/1/6
f 107/2/6 108/2/6 112/2/6
f 111/1/6 107/1/6 112/1/6
f 65/2/6 95/2/6 113/2/6
f 95/2/6 99/2/6 113/2/6
f 111/2/6 112/2/6 113/2/6
f 99/2/6 109/2/6 113/2/6
f 109/2/6 111/2/6 113/2/6
f 104/1/6 84/1/6 114/1/6
f 113/2/6 112/2/6 114/2/6
f 108/2/6 104/2/6 114/2/6
f 112/2/6 108/2/6 114/2/6
f 114/1/6 84/1/6 115/1/6
f 116/3/6 117/3/6 118/3/6
f 118/3/6 117/3/6 119/3/6
f 119/3/6 117/3/6 121/3/6
f 120/3/6 121/3/6 122/3/6
f 121/3/6 117/3/6 123/3/6
f 122/3/6 121/3/6 123/3/6
