# MagicaVoxel @ Ephtracy

# group
g 4x2 first (1)-2

# material
mtllib 4x2 first (1)-2.mtl
usemtl palette

# normals
vn -1 0 0
vn 1 0 0
vn 0 0 1
vn 0 0 -1
vn 0 -1 0
vn 0 1 0

# texcoords
vt 0.966797 0.5
vt 0.974609 0.5
vt 0.982422 0.5

# verts
v -63 0 63
v -63 0 -63
v -63 4 63
v -63 4 -61
v -63 5 63
v -63 5 -61
v -63 80 -61
v -63 80 -63
v -27 5 63
v -27 5 -61
v -27 80 63
v -27 80 -61
v 62 5 9
v 62 5 -61
v 62 80 9
v 62 80 -61
v -25 5 63
v -25 5 -23
v -25 5 -28
v -25 5 -61
v -25 8 -26
v -25 8 -28
v -25 12 -22
v -25 12 -23
v -25 13 -22
v -25 13 -23
v -25 15 -26
v -25 15 -28
v -25 16 -26
v -25 16 -28
v -25 27 -38
v -25 27 -43
v -25 27 -44
v -25 27 -51
v -25 27 -59
v -25 27 -61
v -25 28 -38
v -25 28 -43
v -25 28 -44
v -25 28 -47
v -25 29 -32
v -25 29 -37
v -25 29 -50
v -25 29 -51
v -25 29 -60
v -25 29 -61
v -25 30 -50
v -25 30 -51
v -25 31 -26
v -25 31 -28
v -25 31 -30
v -25 31 -32
v -25 31 -60
v -25 31 -61
v -25 32 -37
v -25 32 -47
v -25 33 -51
v -25 33 -59
v -25 37 -28
v -25 37 -30
v -25 80 63
v -25 80 -61
v 63 0 63
v 63 0 -63
v 63 5 63
v 63 5 9
v 63 80 9
v 63 80 -63
v -63 0 63
v -63 4 63
v -63 5 63
v -27 4 63
v -27 5 63
v -27 80 63
v -25 5 63
v -25 80 63
v 63 0 63
v 63 5 63
v 62 5 9
v 62 80 9
v 63 5 9
v 63 80 9
v -63 5 -61
v -63 80 -61
v -27 5 -61
v -27 80 -61
v -25 5 -61
v -25 27 -61
v -25 29 -61
v -25 31 -61
v -25 80 -61
v -24 31 -61
v -24 35 -61
v -12 35 -61
v -12 38 -61
v -8 31 -61
v -8 38 -61
v -5 5 -61
v -5 9 -61
v -5 27 -61
v -5 31 -61
v -5 32 -61
v -4 9 -61
v -4 12 -61
v -4 28 -61
v -4 31 -61
v -1 10 -61
v -1 12 -61
v 0 10 -61
v 0 13 -61
v 1 13 -61
v 1 27 -61
v 1 28 -61
v 1 32 -61
v 62 5 -61
v 62 80 -61
v -63 0 -63
v -63 80 -63
v 63 0 -63
v 63 80 -63
v -63 0 63
v 63 0 63
v -63 0 -63
v 63 0 -63
v -63 5 63
v -27 5 63
v -25 5 63
v 63 5 63
v 62 5 9
v 63 5 9
v -14 5 -22
v -1 5 -22
v -25 5 -23
v -17 5 -23
v -17 5 -24
v -14 5 -24
v -9 5 -24
v -1 5 -24
v -14 5 -25
v -9 5 -25
v -14 5 -27
v -5 5 -27
v -25 5 -28
v -5 5 -32
v -3 5 -32
v -5 5 -35
v -3 5 -35
v -2 5 -35
v 0 5 -35
v -5 5 -37
v -2 5 -37
v 0 5 -47
v 1 5 -47
v -5 5 -53
v -3 5 -53
v -3 5 -60
v 1 5 -60
v -63 5 -61
v -27 5 -61
v -25 5 -61
v -5 5 -61
v 62 5 -61
v -27 80 63
v -25 80 63
v 62 80 9
v 63 80 9
v -63 80 -61
v -27 80 -61
v -25 80 -61
v 62 80 -61
v -63 80 -63
v 63 80 -63

# faces
f 3/1/1 2/1/1 1/1/1
f 4/1/1 2/1/1 3/1/1
f 5/3/1 4/3/1 3/3/1
f 6/1/1 2/1/1 4/1/1
f 6/3/1 4/3/1 5/3/1
f 7/1/1 2/1/1 6/1/1
f 8/1/1 2/1/1 7/1/1
f 11/1/1 10/1/1 9/1/1
f 12/1/1 10/1/1 11/1/1
f 15/1/1 14/1/1 13/1/1
f 16/1/1 14/1/1 15/1/1
f 17/1/2 18/1/2 21/1/2
f 18/1/2 19/1/2 21/1/2
f 19/2/2 20/2/2 22/2/2
f 21/1/2 19/1/2 22/1/2
f 17/1/2 21/1/2 23/1/2
f 23/1/2 21/1/2 24/1/2
f 17/1/2 23/1/2 25/1/2
f 23/2/2 24/2/2 25/2/2
f 24/1/2 21/1/2 26/1/2
f 25/2/2 24/2/2 26/2/2
f 21/2/2 22/2/2 27/2/2
f 26/1/2 21/1/2 27/1/2
f 25/1/2 26/1/2 27/1/2
f 22/2/2 20/2/2 28/2/2
f 27/2/2 22/2/2 28/2/2
f 25/1/2 27/1/2 29/1/2
f 27/1/2 28/1/2 29/1/2
f 28/2/2 20/2/2 30/2/2
f 29/1/2 28/1/2 30/1/2
f 29/2/2 30/2/2 31/2/2
f 30/2/2 20/2/2 31/2/2
f 31/2/2 20/2/2 32/2/2
f 32/2/2 20/2/2 33/2/2
f 33/2/2 20/2/2 34/2/2
f 34/2/2 20/2/2 35/2/2
f 35/2/2 20/2/2 36/2/2
f 29/2/2 31/2/2 37/2/2
f 31/1/2 32/1/2 37/1/2
f 32/2/2 33/2/2 38/2/2
f 37/1/2 32/1/2 38/1/2
f 33/1/2 34/1/2 39/1/2
f 38/2/2 33/2/2 39/2/2
f 39/1/2 34/1/2 40/1/2
f 29/2/2 37/2/2 41/2/2
f 37/2/2 38/2/2 41/2/2
f 39/2/2 40/2/2 41/2/2
f 38/2/2 39/2/2 41/2/2
f 41/2/2 40/2/2 42/2/2
f 40/1/2 34/1/2 43/1/2
f 34/2/2 35/2/2 44/2/2
f 43/1/2 34/1/2 44/1/2
f 35/1/2 36/1/2 45/1/2
f 45/1/2 36/1/2 46/1/2
f 40/1/2 43/1/2 47/1/2
f 43/2/2 44/2/2 47/2/2
f 44/2/2 35/2/2 48/2/2
f 47/2/2 44/2/2 48/2/2
f 25/1/2 29/1/2 49/1/2
f 29/2/2 41/2/2 49/2/2
f 49/2/2 41/2/2 50/2/2
f 50/2/2 41/2/2 51/2/2
f 41/1/2 42/1/2 52/1/2
f 51/2/2 41/2/2 52/2/2
f 45/2/2 46/2/2 53/2/2
f 35/1/2 45/1/2 53/1/2
f 53/2/2 46/2/2 54/2/2
f 42/2/2 40/2/2 55/2/2
f 52/1/2 42/1/2 55/1/2
f 51/1/2 52/1/2 55/1/2
f 40/1/2 47/1/2 56/1/2
f 55/2/2 40/2/2 56/2/2
f 47/1/2 48/1/2 56/1/2
f 48/2/2 35/2/2 57/2/2
f 56/1/2 48/1/2 57/1/2
f 55/1/2 56/1/2 57/1/2
f 53/1/2 54/1/2 58/1/2
f 57/2/2 35/2/2 58/2/2
f 35/1/2 53/1/2 58/1/2
f 49/1/2 50/1/2 59/1/2
f 50/2/2 51/2/2 59/2/2
f 51/1/2 55/1/2 60/1/2
f 59/2/2 51/2/2 60/2/2
f 57/1/2 58/1/2 60/1/2
f 55/1/2 57/1/2 60/1/2
f 25/1/2 49/1/2 61/1/2
f 17/1/2 25/1/2 61/1/2
f 59/1/2 60/1/2 61/1/2
f 49/1/2 59/1/2 61/1/2
f 60/1/2 58/1/2 62/1/2
f 61/1/2 60/1/2 62/1/2
f 58/1/2 54/1/2 62/1/2
f 63/1/2 64/1/2 65/1/2
f 65/1/2 64/1/2 66/1/2
f 66/1/2 64/1/2 67/1/2
f 67/1/2 64/1/2 68/1/2
f 72/1/3 70/1/3 69/1/3
f 72/3/3 71/3/3 70/3/3
f 73/3/3 71/3/3 72/3/3
f 75/1/3 73/1/3 72/1/3
f 75/1/3 74/1/3 73/1/3
f 76/1/3 74/1/3 75/1/3
f 77/1/3 72/1/3 69/1/3
f 77/1/3 75/1/3 72/1/3
f 78/1/3 75/1/3 77/1/3
f 81/1/3 80/1/3 79/1/3
f 82/1/3 80/1/3 81/1/3
f 85/1/3 84/1/3 83/1/3
f 86/1/3 84/1/3 85/1/3
f 92/2/3 88/2/3 87/2/3
f 92/1/3 91/1/3 90/1/3
f 92/2/3 90/2/3 89/2/3
f 92/2/3 89/2/3 88/2/3
f 93/1/3 91/1/3 92/1/3
f 94/2/3 93/2/3 92/2/3
f 94/1/3 91/1/3 93/1/3
f 95/1/3 91/1/3 94/1/3
f 96/2/3 92/2/3 87/2/3
f 96/2/3 94/2/3 92/2/3
f 96/2/3 95/2/3 94/2/3
f 97/1/3 91/1/3 95/1/3
f 97/2/3 95/2/3 96/2/3
f 98/2/3 96/2/3 87/2/3
f 99/2/3 96/2/3 98/2/3
f 100/2/3 96/2/3 99/2/3
f 101/1/3 97/1/3 96/1/3
f 101/2/3 96/2/3 100/2/3
f 102/1/3 97/1/3 101/1/3
f 103/2/3 100/2/3 99/2/3
f 103/1/3 99/1/3 98/1/3
f 104/2/3 100/2/3 103/2/3
f 105/1/3 101/1/3 100/1/3
f 106/2/3 102/2/3 101/2/3
f 106/1/3 101/1/3 105/1/3
f 107/1/3 104/1/3 103/1/3
f 108/2/3 100/2/3 104/2/3
f 108/1/3 104/1/3 107/1/3
f 109/1/3 107/1/3 103/1/3
f 109/2/3 108/2/3 107/2/3
f 110/2/3 100/2/3 108/2/3
f 110/2/3 108/2/3 109/2/3
f 111/1/3 110/1/3 109/1/3
f 111/2/3 100/2/3 110/2/3
f 112/1/3 105/1/3 100/1/3
f 112/2/3 100/2/3 111/2/3
f 113/2/3 106/2/3 105/2/3
f 113/1/3 105/1/3 112/1/3
f 114/1/3 97/1/3 102/1/3
f 114/2/3 106/2/3 113/2/3
f 114/2/3 102/2/3 106/2/3
f 115/1/3 113/1/3 112/1/3
f 115/1/3 111/1/3 109/1/3
f 115/1/3 114/1/3 113/1/3
f 115/1/3 112/1/3 111/1/3
f 115/1/3 103/1/3 98/1/3
f 115/1/3 109/1/3 103/1/3
f 116/1/3 91/1/3 97/1/3
f 116/1/3 114/1/3 115/1/3
f 116/1/3 97/1/3 114/1/3
f 117/1/4 118/1/4 119/1/4
f 119/1/4 118/1/4 120/1/4
f 123/1/5 122/1/5 121/1/5
f 124/1/5 122/1/5 123/1/5
f 127/1/6 128/1/6 129/1/6
f 129/1/6 128/1/6 130/1/6
f 127/1/6 129/1/6 131/1/6
f 131/1/6 129/1/6 132/1/6
f 127/1/6 131/1/6 133/1/6
f 133/1/6 131/1/6 134/1/6
f 133/2/6 134/2/6 135/2/6
f 134/1/6 131/1/6 135/1/6
f 131/2/6 132/2/6 136/2/6
f 135/1/6 131/1/6 136/1/6
f 136/2/6 132/2/6 137/2/6
f 132/1/6 129/1/6 138/1/6
f 137/2/6 132/2/6 138/2/6
f 136/2/6 137/2/6 139/2/6
f 135/2/6 136/2/6 139/2/6
f 137/1/6 138/1/6 140/1/6
f 139/2/6 137/2/6 140/2/6
f 135/2/6 139/2/6 141/2/6
f 139/1/6 140/1/6 141/1/6
f 140/1/6 138/1/6 142/1/6
f 141/1/6 140/1/6 142/1/6
f 133/2/6 135/2/6 143/2/6
f 135/2/6 141/2/6 143/2/6
f 141/2/6 142/2/6 143/2/6
f 142/1/6 138/1/6 144/1/6
f 143/2/6 142/2/6 144/2/6
f 144/1/6 138/1/6 145/1/6
f 143/2/6 144/2/6 146/2/6
f 144/2/6 145/2/6 146/2/6
f 145/1/6 138/1/6 147/1/6
f 146/2/6 145/2/6 147/2/6
f 147/1/6 138/1/6 148/1/6
f 138/1/6 129/1/6 149/1/6
f 148/1/6 138/1/6 149/1/6
f 147/1/6 148/1/6 150/1/6
f 143/2/6 146/2/6 150/2/6
f 146/1/6 147/1/6 150/1/6
f 148/2/6 149/2/6 151/2/6
f 150/1/6 148/1/6 151/1/6
f 149/1/6 129/1/6 152/1/6
f 151/2/6 149/2/6 152/2/6
f 150/2/6 151/2/6 152/2/6
f 152/1/6 129/1/6 153/1/6
f 143/2/6 150/2/6 154/2/6
f 150/2/6 152/2/6 154/2/6
f 152/2/6 153/2/6 154/2/6
f 154/2/6 153/2/6 155/2/6
f 154/1/6 155/1/6 156/1/6
f 155/2/6 153/2/6 156/2/6
f 153/1/6 129/1/6 157/1/6
f 156/2/6 153/2/6 157/2/6
f 125/3/6 126/3/6 158/3/6
f 158/3/6 126/3/6 159/3/6
f 143/2/6 154/2/6 160/2/6
f 154/1/6 156/1/6 161/1/6
f 160/2/6 154/2/6 161/2/6
f 156/1/6 157/1/6 161/1/6
f 157/1/6 129/1/6 162/1/6
f 161/1/6 157/1/6 162/1/6
f 163/1/6 164/1/6 168/1/6
f 168/1/6 164/1/6 169/1/6
f 165/1/6 166/1/6 170/1/6
f 168/1/6 169/1/6 171/1/6
f 169/1/6 170/1/6 171/1/6
f 167/1/6 168/1/6 171/1/6
f 170/1/6 166/1/6 172/1/6
f 171/1/6 170/1/6 172/1/6
