# MagicaVoxel @ Ephtracy

# group
g 4x2 third (1)-0

# material
mtllib 4x2 third (1)-0.mtl
usemtl palette

# normals
vn -1 0 0
vn 1 0 0
vn 0 0 1
vn 0 0 -1
vn 0 -1 0
vn 0 1 0

# texcoords
vt 0.537109 0.5
vt 0.966797 0.5
vt 0.974609 0.5
vt 0.978516 0.5

# verts
v -63 0 63
v -63 0 -63
v -63 18 40
v -63 18 9
v -63 18 -19
v -63 18 -49
v -63 39 61
v -63 39 58
v -63 40 52
v -63 40 45
v -63 41 61
v -63 41 58
v -63 41 57
v -63 41 55
v -63 41 52
v -63 42 58
v -63 42 57
v -63 44 55
v -63 44 52
v -63 45 58
v -63 45 55
v -63 46 52
v -63 46 50
v -63 46 49
v -63 46 45
v -63 47 60
v -63 47 58
v -63 47 55
v -63 47 50
v -63 48 49
v -63 48 43
v -63 51 62
v -63 51 60
v -63 53 40
v -63 53 9
v -63 53 -19
v -63 53 -49
v -63 56 42
v -63 56 41
v -63 58 63
v -63 58 62
v -63 63 42
v -63 63 41
v -63 64 42
v -63 64 39
v -63 67 43
v -63 67 42
v -63 67 39
v -63 67 38
v -63 68 63
v -63 68 62
v -63 71 62
v -63 71 55
v -63 73 45
v -63 73 38
v -63 77 55
v -63 77 45
v -63 80 63
v -63 80 -63
v 44 5 63
v 44 5 -4
v 44 5 -5
v 44 5 -22
v 44 5 -52
v 44 5 -61
v 44 37 50
v 44 37 48
v 44 38 50
v 44 38 48
v 44 45 -22
v 44 45 -52
v 44 80 63
v 44 80 -4
v 44 80 -5
v 44 80 -61
v -61 5 63
v -61 5 -4
v -61 5 -5
v -61 5 -61
v -61 18 40
v -61 18 9
v -61 18 -19
v -61 18 -49
v -61 53 40
v -61 53 9
v -61 53 -19
v -61 53 -49
v -61 80 63
v -61 80 -4
v -61 80 -5
v -61 80 -61
v 45 5 62
v 45 5 -22
v 45 5 -52
v 45 5 -61
v 45 37 50
v 45 37 48
v 45 38 50
v 45 38 48
v 45 45 -22
v 45 45 -52
v 45 80 62
v 45 80 -61
v 63 0 63
v 63 0 -63
v 63 4 62
v 63 4 -61
v 63 5 62
v 63 5 -61
v 63 80 63
v 63 80 62
v 63 80 -61
v 63 80 -63
v -63 0 63
v -63 58 63
v -63 68 63
v -63 80 63
v -62 58 63
v -62 68 63
v -61 4 63
v -61 5 63
v -61 80 63
v 44 4 63
v 44 5 63
v 44 80 63
v 63 0 63
v 63 80 63
v -63 18 9
v -63 53 9
v -61 18 9
v -61 53 9
v -61 5 -4
v -61 80 -4
v 44 5 -4
v 44 80 -4
v -63 18 -49
v -63 53 -49
v -61 18 -49
v -61 53 -49
v 44 5 -52
v 44 45 -52
v 45 5 -52
v 45 45 -52
v -61 5 -61
v -61 80 -61
v 44 5 -61
v 44 80 -61
v 45 5 -61
v 45 80 -61
v 63 5 -61
v 63 80 -61
v 45 5 62
v 45 80 62
v 63 5 62
v 63 80 62
v -63 18 40
v -63 53 40
v -61 18 40
v -61 53 40
v -61 5 -5
v -61 80 -5
v 44 5 -5
v 44 80 -5
v -63 18 -19
v -63 53 -19
v -61 18 -19
v -61 53 -19
v 44 5 -22
v 44 45 -22
v 45 5 -22
v 45 45 -22
v -63 0 -63
v -63 80 -63
v 63 0 -63
v 63 80 -63
v -63 0 63
v 63 0 63
v -63 0 -63
v 63 0 -63
v 44 45 -22
v 45 45 -22
v 44 45 -52
v 45 45 -52
v -63 53 40
v -61 53 40
v -63 53 9
v -61 53 9
v -63 53 -19
v -61 53 -19
v -63 53 -49
v -61 53 -49
v -61 5 63
v 44 5 63
v 45 5 62
v 63 5 62
v -61 5 -4
v 44 5 -4
v -61 5 -5
v 44 5 -5
v 44 5 -22
v 45 5 -22
v 44 5 -52
v 45 5 -52
v -61 5 -61
v 44 5 -61
v 45 5 -61
v 63 5 -61
v -63 18 40
v -61 18 40
v -63 18 9
v -61 18 9
v -63 18 -19
v -61 18 -19
v -63 18 -49
v -61 18 -49
v -63 80 63
v -61 80 63
v 44 80 63
v 63 80 63
v 45 80 62
v 63 80 62
v -61 80 -4
v 44 80 -4
v -61 80 -5
v 44 80 -5
v -61 80 -61
v 44 80 -61
v 45 80 -61
v 63 80 -61
v -63 80 -63
v 63 80 -63

# faces
f 3/2/1 2/2/1 1/2/1
f 4/2/1 2/2/1 3/2/1
f 5/2/1 2/2/1 4/2/1
f 6/2/1 2/2/1 5/2/1
f 7/2/1 3/2/1 1/2/1
f 8/2/1 3/2/1 7/2/1
f 9/2/1 3/2/1 8/2/1
f 10/2/1 3/2/1 9/2/1
f 11/2/1 7/2/1 1/2/1
f 11/3/1 8/3/1 7/3/1
f 12/2/1 9/2/1 8/2/1
f 12/3/1 8/3/1 11/3/1
f 13/2/1 9/2/1 12/2/1
f 14/2/1 9/2/1 13/2/1
f 15/3/1 10/3/1 9/3/1
f 15/2/1 9/2/1 14/2/1
f 16/2/1 12/2/1 11/2/1
f 16/3/1 13/3/1 12/3/1
f 17/2/1 14/2/1 13/2/1
f 17/3/1 13/3/1 16/3/1
f 18/3/1 15/3/1 14/3/1
f 18/2/1 14/2/1 17/2/1
f 18/2/1 17/2/1 16/2/1
f 19/3/1 10/3/1 15/3/1
f 19/3/1 15/3/1 18/3/1
f 20/2/1 16/2/1 11/2/1
f 20/2/1 18/2/1 16/2/1
f 20/2/1 19/2/1 18/2/1
f 21/2/1 19/2/1 20/2/1
f 22/3/1 10/3/1 19/3/1
f 22/2/1 19/2/1 21/2/1
f 23/3/1 10/3/1 22/3/1
f 24/3/1 10/3/1 23/3/1
f 25/2/1 3/2/1 10/2/1
f 25/3/1 10/3/1 24/3/1
f 26/2/1 20/2/1 11/2/1
f 27/3/1 21/3/1 20/3/1
f 27/2/1 20/2/1 26/2/1
f 28/2/1 22/2/1 21/2/1
f 28/3/1 21/3/1 27/3/1
f 28/2/1 23/2/1 22/2/1
f 29/3/1 24/3/1 23/3/1
f 29/2/1 23/2/1 28/2/1
f 30/3/1 28/3/1 27/3/1
f 30/3/1 24/3/1 29/3/1
f 30/3/1 29/3/1 28/3/1
f 30/2/1 25/2/1 24/2/1
f 30/3/1 27/3/1 26/3/1
f 31/2/1 3/2/1 25/2/1
f 31/2/1 25/2/1 30/2/1
f 32/2/1 26/2/1 11/2/1
f 32/2/1 11/2/1 1/2/1
f 33/3/1 30/3/1 26/3/1
f 33/2/1 26/2/1 32/2/1
f 33/3/1 31/3/1 30/3/1
f 34/2/1 3/2/1 31/2/1
f 35/2/1 5/2/1 4/2/1
f 36/2/1 5/2/1 35/2/1
f 37/2/1 2/2/1 6/2/1
f 38/2/1 36/2/1 35/2/1
f 38/2/1 37/2/1 36/2/1
f 38/2/1 34/2/1 31/2/1
f 38/2/1 35/2/1 34/2/1
f 39/2/1 37/2/1 38/2/1
f 40/2/1 32/2/1 1/2/1
f 41/3/1 33/3/1 32/3/1
f 41/2/1 32/2/1 40/2/1
f 42/2/1 38/2/1 31/2/1
f 42/3/1 39/3/1 38/3/1
f 43/2/1 37/2/1 39/2/1
f 43/3/1 39/3/1 42/3/1
f 44/2/1 42/2/1 31/2/1
f 44/2/1 43/2/1 42/2/1
f 45/2/1 37/2/1 43/2/1
f 45/2/1 43/2/1 44/2/1
f 46/2/1 44/2/1 31/2/1
f 46/3/1 31/3/1 33/3/1
f 46/3/1 33/3/1 41/3/1
f 46/3/1 41/3/1 40/3/1
f 47/3/1 45/3/1 44/3/1
f 47/2/1 44/2/1 46/2/1
f 48/2/1 37/2/1 45/2/1
f 48/3/1 45/3/1 47/3/1
f 49/2/1 37/2/1 48/2/1
f 50/3/1 47/3/1 46/3/1
f 50/3/1 46/3/1 40/3/1
f 50/3/1 49/3/1 48/3/1
f 50/3/1 48/3/1 47/3/1
f 51/3/1 49/3/1 50/3/1
f 52/2/1 51/2/1 50/2/1
f 52/3/1 49/3/1 51/3/1
f 53/3/1 49/3/1 52/3/1
f 54/3/1 49/3/1 53/3/1
f 55/2/1 37/2/1 49/2/1
f 55/3/1 49/3/1 54/3/1
f 56/3/1 54/3/1 53/3/1
f 56/2/1 53/2/1 52/2/1
f 57/2/1 55/2/1 54/2/1
f 57/3/1 54/3/1 56/3/1
f 58/2/1 52/2/1 50/2/1
f 58/2/1 56/2/1 52/2/1
f 58/2/1 57/2/1 56/2/1
f 59/2/1 2/2/1 37/2/1
f 59/2/1 57/2/1 58/2/1
f 59/2/1 37/2/1 55/2/1
f 59/2/1 55/2/1 57/2/1
f 66/2/1 61/2/1 60/2/1
f 67/2/1 61/2/1 66/2/1
f 68/2/1 66/2/1 60/2/1
f 68/3/1 67/3/1 66/3/1
f 69/2/1 61/2/1 67/2/1
f 69/3/1 67/3/1 68/3/1
f 70/2/1 63/2/1 62/2/1
f 71/2/1 65/2/1 64/2/1
f 72/2/1 68/2/1 60/2/1
f 72/2/1 69/2/1 68/2/1
f 73/2/1 61/2/1 69/2/1
f 73/2/1 69/2/1 72/2/1
f 74/2/1 70/2/1 62/2/1
f 74/2/1 71/2/1 70/2/1
f 75/2/1 65/2/1 71/2/1
f 75/2/1 71/2/1 74/2/1
f 76/2/2 77/2/2 80/2/2
f 80/2/2 77/2/2 81/2/2
f 78/2/2 79/2/2 82/2/2
f 82/2/2 79/2/2 83/2/2
f 76/2/2 80/2/2 84/2/2
f 81/2/2 77/2/2 85/2/2
f 78/2/2 82/2/2 86/2/2
f 83/2/2 79/2/2 87/2/2
f 76/2/2 84/2/2 88/2/2
f 84/2/2 85/2/2 88/2/2
f 85/2/2 77/2/2 89/2/2
f 88/2/2 85/2/2 89/2/2
f 86/2/2 87/2/2 90/2/2
f 78/2/2 86/2/2 90/2/2
f 87/2/2 79/2/2 91/2/2
f 90/2/2 87/2/2 91/2/2
f 92/2/2 93/2/2 96/2/2
f 96/2/2 93/2/2 97/2/2
f 92/2/2 96/2/2 98/2/2
f 96/3/2 97/3/2 98/3/2
f 97/2/2 93/2/2 99/2/2
f 98/3/2 97/3/2 99/3/2
f 98/2/2 99/2/2 100/2/2
f 99/2/2 93/2/2 100/2/2
f 94/2/2 95/2/2 101/2/2
f 98/2/2 100/2/2 102/2/2
f 100/2/2 101/2/2 102/2/2
f 92/2/2 98/2/2 102/2/2
f 101/2/2 95/2/2 103/2/2
f 102/2/2 101/2/2 103/2/2
f 104/2/2 105/2/2 106/2/2
f 106/2/2 105/2/2 107/2/2
f 104/2/2 106/2/2 108/2/2
f 106/1/2 107/1/2 108/1/2
f 107/2/2 105/2/2 109/2/2
f 108/1/2 107/1/2 109/1/2
f 104/2/2 108/2/2 110/2/2
f 110/2/2 108/2/2 111/2/2
f 109/2/2 105/2/2 112/2/2
f 112/2/2 105/2/2 113/2/2
f 118/2/3 115/2/3 114/2/3
f 118/3/3 116/3/3 115/3/3
f 119/2/3 117/2/3 116/2/3
f 119/3/3 116/3/3 118/3/3
f 120/2/3 118/2/3 114/2/3
f 120/2/3 119/2/3 118/2/3
f 121/2/3 119/2/3 120/2/3
f 122/2/3 117/2/3 119/2/3
f 122/2/3 119/2/3 121/2/3
f 123/4/3 121/4/3 120/4/3
f 123/2/3 120/2/3 114/2/3
f 124/4/3 121/4/3 123/4/3
f 126/2/3 123/2/3 114/2/3
f 126/2/3 125/2/3 124/2/3
f 126/2/3 124/2/3 123/2/3
f 127/2/3 125/2/3 126/2/3
f 130/2/3 129/2/3 128/2/3
f 131/2/3 129/2/3 130/2/3
f 134/2/3 133/2/3 132/2/3
f 135/2/3 133/2/3 134/2/3
f 138/2/3 137/2/3 136/2/3
f 139/2/3 137/2/3 138/2/3
f 142/2/3 141/2/3 140/2/3
f 143/2/3 141/2/3 142/2/3
f 146/2/3 145/2/3 144/2/3
f 147/2/3 145/2/3 146/2/3
f 150/2/3 149/2/3 148/2/3
f 151/2/3 149/2/3 150/2/3
f 152/2/4 153/2/4 154/2/4
f 154/2/4 153/2/4 155/2/4
f 156/2/4 157/2/4 158/2/4
f 158/2/4 157/2/4 159/2/4
f 160/2/4 161/2/4 162/2/4
f 162/2/4 161/2/4 163/2/4
f 164/2/4 165/2/4 166/2/4
f 166/2/4 165/2/4 167/2/4
f 168/2/4 169/2/4 170/2/4
f 170/2/4 169/2/4 171/2/4
f 172/2/4 173/2/4 174/2/4
f 174/2/4 173/2/4 175/2/4
f 178/2/5 177/2/5 176/2/5
f 179/2/5 177/2/5 178/2/5
f 182/2/5 181/2/5 180/2/5
f 183/2/5 181/2/5 182/2/5
f 186/2/5 185/2/5 184/2/5
f 187/2/5 185/2/5 186/2/5
f 190/2/5 189/2/5 188/2/5
f 191/2/5 189/2/5 190/2/5
f 192/4/6 193/4/6 196/4/6
f 196/4/6 193/4/6 197/4/6
f 198/1/6 199/1/6 200/1/6
f 194/1/6 195/1/6 201/1/6
f 198/1/6 200/1/6 202/1/6
f 200/1/6 201/1/6 202/1/6
f 201/1/6 195/1/6 203/1/6
f 202/1/6 201/1/6 203/1/6
f 198/1/6 202/1/6 204/1/6
f 204/1/6 202/1/6 205/1/6
f 203/1/6 195/1/6 206/1/6
f 206/1/6 195/1/6 207/1/6
f 208/2/6 209/2/6 210/2/6
f 210/2/6 209/2/6 211/2/6
f 212/2/6 213/2/6 214/2/6
f 214/2/6 213/2/6 215/2/6
f 218/2/6 219/2/6 220/2/6
f 220/2/6 219/2/6 221/2/6
f 216/2/6 217/2/6 222/2/6
f 218/2/6 220/2/6 223/2/6
f 216/2/6 222/2/6 224/2/6
f 222/2/6 223/2/6 224/2/6
f 223/2/6 220/2/6 225/2/6
f 224/2/6 223/2/6 225/2/6
f 216/2/6 224/2/6 226/2/6
f 225/2/6 220/2/6 227/2/6
f 227/2/6 220/2/6 228/2/6
f 216/2/6 226/2/6 230/2/6
f 228/2/6 229/2/6 230/2/6
f 227/2/6 228/2/6 230/2/6
f 226/2/6 227/2/6 230/2/6
f 230/2/6 229/2/6 231/2/6
