# MagicaVoxel @ Ephtracy

# group
g 2x2first(test import)-4

# material
mtllib 2x2first(test import)-4.mtl
usemtl palette

# normals
vn -1 0 0
vn 1 0 0
vn 0 0 1
vn 0 0 -1
vn 0 -1 0
vn 0 1 0

# texcoords
vt 0.974609 0.5
vt 0.978516 0.5
vt 0.982422 0.5

# verts
v -63 0 63
v -63 0 -63
v -63 5 63
v -63 5 54
v -63 5 -63
v -63 6 54
v -63 6 50
v -63 7 48
v -63 7 46
v -63 8 54
v -63 8 52
v -63 8 50
v -63 8 48
v -63 8 47
v -63 8 46
v -63 9 51
v -63 9 47
v -63 12 54
v -63 12 52
v -63 12 51
v -63 12 49
v -63 14 63
v -63 14 56
v -63 17 56
v -63 17 49
v -63 20 -55
v -63 20 -58
v -63 21 -58
v -63 21 -59
v -63 23 -59
v -63 23 -63
v -63 28 -53
v -63 28 -55
v -63 32 -41
v -63 32 -53
v -63 33 48
v -63 33 45
v -63 35 48
v -63 35 45
v -63 37 35
v -63 37 20
v -63 39 39
v -63 39 38
v -63 40 49
v -63 40 39
v -63 40 38
v -63 40 35
v -63 41 54
v -63 41 49
v -63 44 21
v -63 44 20
v -63 44 -36
v -63 44 -41
v -63 45 21
v -63 45 18
v -63 46 54
v -63 46 49
v -63 47 49
v -63 47 48
v -63 47 -24
v -63 47 -36
v -63 48 52
v -63 48 48
v -63 49 39
v -63 49 34
v -63 50 39
v -63 50 34
v -63 52 24
v -63 52 18
v -63 54 39
v -63 54 34
v -63 54 24
v -63 54 23
v -63 55 52
v -63 55 47
v -63 55 45
v -63 55 39
v -63 57 34
v -63 57 23
v -63 59 47
v -63 59 45
v -63 63 -24
v -63 63 -30
v -63 64 -27
v -63 64 -30
v -63 66 -27
v -63 66 -30
v -63 67 -24
v -63 67 -26
v -63 69 -21
v -63 69 -24
v -63 69 -26
v -63 69 -28
v -63 70 -28
v -63 70 -30
v -63 76 -26
v -63 76 -27
v -63 77 63
v -63 77 -21
v -63 77 -26
v -63 77 -27
v -63 84 63
v -63 84 -63
v -61 5 63
v -61 5 -61
v -61 77 63
v -61 77 -61
v -61 84 63
v -61 84 -61
v 63 0 63
v 63 0 -63
v 63 5 63
v 63 5 -61
v 63 5 -63
v 63 77 -61
v 63 77 -63
v 63 84 -61
v 63 84 -63
v -63 0 63
v -63 5 63
v -63 14 63
v -63 77 63
v -63 84 63
v -62 5 63
v -62 14 63
v -61 5 63
v -61 77 63
v -61 84 63
v 63 0 63
v 63 5 63
v -61 5 -61
v -61 77 -61
v -61 84 -61
v 63 5 -61
v 63 77 -61
v 63 84 -61
v -63 0 -63
v -63 5 -63
v -63 23 -63
v -63 84 -63
v -62 23 -63
v -62 24 -63
v -62 28 -63
v -62 29 -63
v -62 32 -63
v -62 35 -63
v -61 28 -63
v -61 29 -63
v -59 24 -63
v -59 28 -63
v -57 28 -63
v -57 29 -63
v -57 32 -63
v -57 35 -63
v -56 24 -63
v -56 25 -63
v -54 24 -63
v -54 25 -63
v -53 24 -63
v -53 29 -63
v -39 24 -63
v -39 35 -63
v -28 34 -63
v -28 35 -63
v -25 34 -63
v -25 35 -63
v -22 44 -63
v -22 45 -63
v -21 45 -63
v -21 49 -63
v -16 44 -63
v -16 46 -63
v -14 46 -63
v -14 49 -63
v -13 35 -63
v -13 42 -63
v -8 41 -63
v -8 42 -63
v -7 41 -63
v -7 42 -63
v -5 42 -63
v -5 44 -63
v 2 44 -63
v 2 49 -63
v 3 45 -63
v 3 47 -63
v 3 49 -63
v 3 55 -63
v 3 61 -63
v 3 64 -63
v 3 65 -63
v 3 66 -63
v 4 45 -63
v 4 47 -63
v 4 64 -63
v 4 65 -63
v 5 65 -63
v 5 66 -63
v 6 65 -63
v 6 66 -63
v 7 55 -63
v 7 61 -63
v 8 62 -63
v 8 64 -63
v 9 66 -63
v 9 70 -63
v 10 62 -63
v 10 64 -63
v 11 70 -63
v 11 72 -63
v 17 73 -63
v 17 77 -63
v 19 72 -63
v 19 73 -63
v 19 77 -63
v 23 73 -63
v 23 77 -63
v 63 0 -63
v 63 5 -63
v 63 77 -63
v 63 84 -63
v -63 0 63
v 63 0 63
v -63 0 -63
v 63 0 -63
v -61 5 63
v 63 5 63
v -61 5 -61
v 63 5 -61
v -63 84 63
v -61 84 63
v -61 84 -61
v 63 84 -61
v -63 84 -63
v 63 84 -63

# faces
f 3/1/1 2/1/1 1/1/1
f 4/1/1 2/1/1 3/1/1
f 5/1/1 2/1/1 4/1/1
f 6/3/1 4/3/1 3/3/1
f 6/2/1 5/2/1 4/2/1
f 7/2/1 5/2/1 6/2/1
f 8/2/1 5/2/1 7/2/1
f 9/2/1 5/2/1 8/2/1
f 10/3/1 6/3/1 3/3/1
f 10/3/1 7/3/1 6/3/1
f 11/3/1 7/3/1 10/3/1
f 12/2/1 8/2/1 7/2/1
f 12/3/1 7/3/1 11/3/1
f 13/3/1 9/3/1 8/3/1
f 13/2/1 8/2/1 12/2/1
f 14/3/1 9/3/1 13/3/1
f 15/2/1 5/2/1 9/2/1
f 15/3/1 9/3/1 14/3/1
f 16/3/1 14/3/1 13/3/1
f 16/3/1 12/3/1 11/3/1
f 16/3/1 13/3/1 12/3/1
f 17/2/1 15/2/1 14/2/1
f 17/3/1 14/3/1 16/3/1
f 18/2/1 11/2/1 10/2/1
f 18/3/1 10/3/1 3/3/1
f 19/3/1 16/3/1 11/3/1
f 19/2/1 11/2/1 18/2/1
f 20/2/1 17/2/1 16/2/1
f 20/3/1 16/3/1 19/3/1
f 21/2/1 17/2/1 20/2/1
f 22/3/1 18/3/1 3/3/1
f 22/3/1 19/3/1 18/3/1
f 22/3/1 21/3/1 20/3/1
f 22/3/1 20/3/1 19/3/1
f 23/3/1 21/3/1 22/3/1
f 24/2/1 23/2/1 22/2/1
f 24/3/1 21/3/1 23/3/1
f 25/2/1 17/2/1 21/2/1
f 25/3/1 21/3/1 24/3/1
f 26/2/1 5/2/1 15/2/1
f 26/2/1 17/2/1 25/2/1
f 26/2/1 25/2/1 24/2/1
f 26/2/1 15/2/1 17/2/1
f 27/2/1 5/2/1 26/2/1
f 28/3/1 27/3/1 26/3/1
f 28/2/1 5/2/1 27/2/1
f 29/2/1 5/2/1 28/2/1
f 30/3/1 29/3/1 28/3/1
f 30/2/1 5/2/1 29/2/1
f 31/2/1 5/2/1 30/2/1
f 32/2/1 26/2/1 24/2/1
f 33/3/1 28/3/1 26/3/1
f 33/2/1 26/2/1 32/2/1
f 33/3/1 30/3/1 28/3/1
f 33/3/1 31/3/1 30/3/1
f 34/2/1 32/2/1 24/2/1
f 35/3/1 33/3/1 32/3/1
f 35/2/1 32/2/1 34/2/1
f 36/2/1 34/2/1 24/2/1
f 37/2/1 34/2/1 36/2/1
f 38/2/1 36/2/1 24/2/1
f 38/3/1 37/3/1 36/3/1
f 39/2/1 34/2/1 37/2/1
f 39/3/1 37/3/1 38/3/1
f 40/2/1 39/2/1 38/2/1
f 40/2/1 34/2/1 39/2/1
f 41/2/1 34/2/1 40/2/1
f 42/2/1 40/2/1 38/2/1
f 43/2/1 40/2/1 42/2/1
f 44/2/1 38/2/1 24/2/1
f 44/2/1 42/2/1 38/2/1
f 45/3/1 43/3/1 42/3/1
f 45/2/1 42/2/1 44/2/1
f 46/2/1 40/2/1 43/2/1
f 46/3/1 43/3/1 45/3/1
f 47/3/1 41/3/1 40/3/1
f 47/2/1 40/2/1 46/2/1
f 48/2/1 44/2/1 24/2/1
f 49/3/1 45/3/1 44/3/1
f 49/2/1 44/2/1 48/2/1
f 49/3/1 46/3/1 45/3/1
f 49/3/1 47/3/1 46/3/1
f 50/3/1 41/3/1 47/3/1
f 50/3/1 47/3/1 49/3/1
f 50/3/1 49/3/1 48/3/1
f 51/2/1 34/2/1 41/2/1
f 51/3/1 41/3/1 50/3/1
f 52/2/1 34/2/1 51/2/1
f 53/3/1 35/3/1 34/3/1
f 53/2/1 34/2/1 52/2/1
f 54/2/1 52/2/1 51/2/1
f 54/3/1 50/3/1 48/3/1
f 54/2/1 51/2/1 50/2/1
f 55/2/1 52/2/1 54/2/1
f 56/2/1 48/2/1 24/2/1
f 56/3/1 54/3/1 48/3/1
f 56/3/1 55/3/1 54/3/1
f 57/3/1 55/3/1 56/3/1
f 58/2/1 57/2/1 56/2/1
f 58/3/1 55/3/1 57/3/1
f 59/3/1 55/3/1 58/3/1
f 60/2/1 52/2/1 55/2/1
f 61/3/1 53/3/1 52/3/1
f 61/2/1 52/2/1 60/2/1
f 62/2/1 58/2/1 56/2/1
f 62/2/1 59/2/1 58/2/1
f 63/3/1 55/3/1 59/3/1
f 63/2/1 59/2/1 62/2/1
f 64/3/1 63/3/1 62/3/1
f 64/3/1 55/3/1 63/3/1
f 65/3/1 55/3/1 64/3/1
f 66/3/1 64/3/1 62/3/1
f 66/2/1 65/2/1 64/2/1
f 67/3/1 55/3/1 65/3/1
f 67/2/1 65/2/1 66/2/1
f 68/3/1 67/3/1 66/3/1
f 68/3/1 55/3/1 67/3/1
f 69/2/1 60/2/1 55/2/1
f 69/3/1 55/3/1 68/3/1
f 70/3/1 68/3/1 66/3/1
f 70/3/1 66/3/1 62/3/1
f 71/3/1 68/3/1 70/3/1
f 72/2/1 69/2/1 68/2/1
f 72/3/1 68/3/1 71/3/1
f 73/2/1 69/2/1 72/2/1
f 74/2/1 62/2/1 56/2/1
f 74/3/1 70/3/1 62/3/1
f 75/3/1 70/3/1 74/3/1
f 76/3/1 70/3/1 75/3/1
f 77/2/1 71/2/1 70/2/1
f 77/3/1 70/3/1 76/3/1
f 78/3/1 73/3/1 72/3/1
f 78/2/1 71/2/1 77/2/1
f 78/2/1 77/2/1 76/2/1
f 78/3/1 72/3/1 71/3/1
f 79/2/1 69/2/1 73/2/1
f 79/3/1 73/3/1 78/3/1
f 80/3/1 76/3/1 75/3/1
f 80/2/1 75/2/1 74/2/1
f 81/2/1 78/2/1 76/2/1
f 81/3/1 76/3/1 80/3/1
f 81/2/1 79/2/1 78/2/1
f 82/2/1 60/2/1 69/2/1
f 82/2/1 79/2/1 81/2/1
f 82/2/1 81/2/1 80/2/1
f 82/3/1 61/3/1 60/3/1
f 82/2/1 69/2/1 79/2/1
f 83/3/1 61/3/1 82/3/1
f 84/2/1 83/2/1 82/2/1
f 85/3/1 61/3/1 83/3/1
f 85/2/1 83/2/1 84/2/1
f 86/2/1 84/2/1 82/2/1
f 86/3/1 85/3/1 84/3/1
f 87/3/1 61/3/1 85/3/1
f 87/3/1 85/3/1 86/3/1
f 88/2/1 82/2/1 80/2/1
f 88/2/1 86/2/1 82/2/1
f 88/2/1 87/2/1 86/2/1
f 89/2/1 87/2/1 88/2/1
f 90/2/1 88/2/1 80/2/1
f 91/3/1 89/3/1 88/3/1
f 91/2/1 88/2/1 90/2/1
f 92/2/1 87/2/1 89/2/1
f 92/3/1 89/3/1 91/3/1
f 93/2/1 87/2/1 92/2/1
f 94/3/1 91/3/1 90/3/1
f 94/2/1 87/2/1 93/2/1
f 94/3/1 93/3/1 92/3/1
f 94/3/1 92/3/1 91/3/1
f 95/3/1 61/3/1 87/3/1
f 95/2/1 87/2/1 94/2/1
f 96/3/1 94/3/1 90/3/1
f 96/3/1 95/3/1 94/3/1
f 97/3/1 95/3/1 96/3/1
f 98/2/1 24/2/1 22/2/1
f 98/2/1 80/2/1 74/2/1
f 98/2/1 74/2/1 56/2/1
f 98/2/1 56/2/1 24/2/1
f 98/2/1 90/2/1 80/2/1
f 99/3/1 96/3/1 90/3/1
f 99/2/1 90/2/1 98/2/1
f 100/2/1 97/2/1 96/2/1
f 100/3/1 96/3/1 99/3/1
f 101/3/1 95/3/1 97/3/1
f 101/2/1 97/2/1 100/2/1
f 102/3/1 100/3/1 99/3/1
f 102/3/1 99/3/1 98/3/1
f 102/3/1 101/3/1 100/3/1
f 103/3/1 95/3/1 101/3/1
f 103/3/1 101/3/1 102/3/1
f 103/3/1 31/3/1 33/3/1
f 103/3/1 61/3/1 95/3/1
f 103/3/1 33/3/1 35/3/1
f 103/3/1 53/3/1 61/3/1
f 103/3/1 35/3/1 53/3/1
f 104/2/2 105/2/2 106/2/2
f 106/2/2 105/2/2 107/2/2
f 106/3/2 107/3/2 108/3/2
f 108/3/2 107/3/2 109/3/2
f 110/1/2 111/1/2 112/1/2
f 112/1/2 111/1/2 113/1/2
f 113/1/2 111/1/2 114/1/2
f 113/2/2 114/2/2 115/2/2
f 115/2/2 114/2/2 116/2/2
f 115/3/2 116/3/2 117/3/2
f 117/3/2 116/3/2 118/3/2
f 124/1/3 120/1/3 119/1/3
f 124/3/3 121/3/3 120/3/3
f 125/2/3 122/2/3 121/2/3
f 125/3/3 121/3/3 124/3/3
f 126/1/3 124/1/3 119/1/3
f 126/2/3 125/2/3 124/2/3
f 127/3/3 123/3/3 122/3/3
f 127/2/3 125/2/3 126/2/3
f 127/2/3 122/2/3 125/2/3
f 128/3/3 123/3/3 127/3/3
f 129/1/3 126/1/3 119/1/3
f 130/1/3 126/1/3 129/1/3
f 134/2/3 132/2/3 131/2/3
f 135/3/3 133/3/3 132/3/3
f 135/2/3 132/2/3 134/2/3
f 136/3/3 133/3/3 135/3/3
f 138/2/4 139/2/4 141/2/4
f 139/3/4 140/3/4 141/3/4
f 141/3/4 140/3/4 142/3/4
f 142/3/4 140/3/4 143/3/4
f 143/3/4 140/3/4 144/3/4
f 144/3/4 140/3/4 145/3/4
f 145/3/4 140/3/4 146/3/4
f 142/3/4 143/3/4 147/3/4
f 143/2/4 144/2/4 147/2/4
f 144/3/4 145/3/4 148/3/4
f 147/2/4 144/2/4 148/2/4
f 141/2/4 142/2/4 149/2/4
f 142/3/4 147/3/4 149/3/4
f 147/3/4 148/3/4 149/3/4
f 149/3/4 148/3/4 150/3/4
f 149/2/4 150/2/4 151/2/4
f 150/3/4 148/3/4 151/3/4
f 148/3/4 145/3/4 152/3/4
f 151/3/4 148/3/4 152/3/4
f 145/2/4 146/2/4 153/2/4
f 152/3/4 145/3/4 153/3/4
f 146/3/4 140/3/4 154/3/4
f 153/2/4 146/2/4 154/2/4
f 149/2/4 151/2/4 155/2/4
f 151/2/4 152/2/4 155/2/4
f 141/2/4 149/2/4 155/2/4
f 155/2/4 152/2/4 156/2/4
f 141/2/4 155/2/4 157/2/4
f 155/3/4 156/3/4 157/3/4
f 156/2/4 152/2/4 158/2/4
f 157/3/4 156/3/4 158/3/4
f 141/2/4 157/2/4 159/2/4
f 157/2/4 158/2/4 159/2/4
f 152/3/4 153/3/4 160/3/4
f 159/2/4 158/2/4 160/2/4
f 153/3/4 154/3/4 160/3/4
f 158/2/4 152/2/4 160/2/4
f 141/2/4 159/2/4 161/2/4
f 159/3/4 160/3/4 161/3/4
f 154/3/4 140/3/4 162/3/4
f 161/3/4 160/3/4 162/3/4
f 160/3/4 154/3/4 162/3/4
f 161/2/4 162/2/4 163/2/4
f 162/3/4 140/3/4 164/3/4
f 163/2/4 162/2/4 164/2/4
f 161/2/4 163/2/4 165/2/4
f 163/3/4 164/3/4 165/3/4
f 164/3/4 140/3/4 166/3/4
f 165/3/4 164/3/4 166/3/4
f 166/3/4 140/3/4 167/3/4
f 167/3/4 140/3/4 168/3/4
f 167/2/4 168/2/4 169/2/4
f 168/3/4 140/3/4 169/3/4
f 169/3/4 140/3/4 170/3/4
f 166/3/4 167/3/4 171/3/4
f 167/2/4 169/2/4 171/2/4
f 169/2/4 170/2/4 171/2/4
f 171/2/4 170/2/4 172/2/4
f 171/3/4 172/3/4 173/3/4
f 172/2/4 170/2/4 173/2/4
f 170/3/4 140/3/4 174/3/4
f 173/2/4 170/2/4 174/2/4
f 165/2/4 166/2/4 175/2/4
f 171/3/4 173/3/4 175/3/4
f 173/3/4 174/3/4 175/3/4
f 166/3/4 171/3/4 175/3/4
f 175/3/4 174/3/4 176/3/4
f 175/2/4 176/2/4 177/2/4
f 176/3/4 174/3/4 178/3/4
f 177/2/4 176/2/4 178/2/4
f 175/2/4 177/2/4 179/2/4
f 177/3/4 178/3/4 179/3/4
f 178/3/4 174/3/4 180/3/4
f 179/3/4 178/3/4 180/3/4
f 179/2/4 180/2/4 181/2/4
f 180/3/4 174/3/4 181/3/4
f 181/3/4 174/3/4 182/3/4
f 181/2/4 182/2/4 183/2/4
f 182/3/4 174/3/4 183/3/4
f 174/3/4 140/3/4 184/3/4
f 183/3/4 174/3/4 184/3/4
f 183/2/4 184/2/4 185/2/4
f 185/2/4 184/2/4 186/2/4
f 184/3/4 140/3/4 187/3/4
f 186/2/4 184/2/4 187/2/4
f 187/3/4 140/3/4 188/3/4
f 188/3/4 140/3/4 189/3/4
f 189/3/4 140/3/4 190/3/4
f 190/3/4 140/3/4 191/3/4
f 191/3/4 140/3/4 192/3/4
f 185/3/4 186/3/4 193/3/4
f 183/2/4 185/2/4 193/2/4
f 186/2/4 187/2/4 194/2/4
f 193/3/4 186/3/4 194/3/4
f 187/2/4 188/2/4 194/2/4
f 190/3/4 191/3/4 195/3/4
f 189/2/4 190/2/4 195/2/4
f 191/2/4 192/2/4 196/2/4
f 195/3/4 191/3/4 196/3/4
f 195/2/4 196/2/4 197/2/4
f 196/2/4 192/2/4 197/2/4
f 192/3/4 140/3/4 198/3/4
f 197/2/4 192/2/4 198/2/4
f 195/2/4 197/2/4 199/2/4
f 197/3/4 198/3/4 199/3/4
f 198/3/4 140/3/4 200/3/4
f 199/3/4 198/3/4 200/3/4
f 194/2/4 188/2/4 201/2/4
f 188/3/4 189/3/4 201/3/4
f 193/2/4 194/2/4 201/2/4
f 195/2/4 199/2/4 202/2/4
f 201/3/4 189/3/4 202/3/4
f 189/2/4 195/2/4 202/2/4
f 199/2/4 200/2/4 202/2/4
f 201/2/4 202/2/4 203/2/4
f 202/2/4 200/2/4 203/2/4
f 203/2/4 200/2/4 204/2/4
f 200/3/4 140/3/4 205/3/4
f 204/2/4 200/2/4 205/2/4
f 205/3/4 140/3/4 206/3/4
f 203/3/4 204/3/4 207/3/4
f 201/2/4 203/2/4 207/2/4
f 205/2/4 206/2/4 208/2/4
f 207/3/4 204/3/4 208/3/4
f 204/2/4 205/2/4 208/2/4
f 206/3/4 140/3/4 209/3/4
f 208/2/4 206/2/4 209/2/4
f 207/2/4 208/2/4 209/2/4
f 209/3/4 140/3/4 210/3/4
f 210/3/4 140/3/4 211/3/4
f 211/3/4 140/3/4 212/3/4
f 209/2/4 210/2/4 213/2/4
f 210/3/4 211/3/4 213/3/4
f 211/2/4 212/2/4 214/2/4
f 213/3/4 211/3/4 214/3/4
f 212/3/4 140/3/4 215/3/4
f 214/2/4 212/2/4 215/2/4
f 213/2/4 214/2/4 216/2/4
f 214/3/4 215/3/4 216/3/4
f 215/3/4 140/3/4 217/3/4
f 216/3/4 215/3/4 217/3/4
f 137/1/4 138/1/4 218/1/4
f 138/2/4 141/2/4 219/2/4
f 218/1/4 138/1/4 219/1/4
f 141/2/4 161/2/4 219/2/4
f 216/2/4 217/2/4 219/2/4
f 209/2/4 213/2/4 219/2/4
f 213/2/4 216/2/4 219/2/4
f 207/2/4 209/2/4 219/2/4
f 183/2/4 193/2/4 219/2/4
f 201/2/4 207/2/4 219/2/4
f 193/2/4 201/2/4 219/2/4
f 179/2/4 181/2/4 219/2/4
f 175/2/4 179/2/4 219/2/4
f 165/2/4 175/2/4 219/2/4
f 181/2/4 183/2/4 219/2/4
f 161/2/4 165/2/4 219/2/4
f 217/3/4 140/3/4 220/3/4
f 219/2/4 217/2/4 220/2/4
f 220/3/4 140/3/4 221/3/4
f 224/1/5 223/1/5 222/1/5
f 225/1/5 223/1/5 224/1/5
f 226/1/6 227/1/6 228/1/6
f 228/1/6 227/1/6 229/1/6
f 230/3/6 231/3/6 232/3/6
f 230/3/6 232/3/6 234/3/6
f 232/3/6 233/3/6 234/3/6
f 234/3/6 233/3/6 235/3/6
