# MagicaVoxel @ Ephtracy

# group
g 2x2first(test import)-5

# material
mtllib 2x2first(test import)-5.mtl
usemtl palette

# normals
vn -1 0 0
vn 1 0 0
vn 0 0 1
vn 0 0 -1
vn 0 -1 0
vn 0 1 0

# texcoords
vt 0.974609 0.5
vt 0.978516 0.5
vt 0.982422 0.5

# verts
v -63 0 63
v -63 0 -63
v -63 5 63
v -63 5 -61
v -63 5 -63
v -63 77 -61
v -63 77 -63
v -63 84 -61
v -63 84 -63
v 61 5 63
v 61 5 -61
v 61 77 63
v 61 77 -61
v 61 84 63
v 61 84 -61
v 63 0 63
v 63 0 -63
v 63 5 63
v 63 5 -63
v 63 77 63
v 63 77 -63
v 63 84 63
v 63 84 -63
v -63 0 63
v -63 5 63
v 61 5 63
v 61 77 63
v 61 84 63
v 63 0 63
v 63 5 63
v 63 77 63
v 63 84 63
v -63 5 -61
v -63 77 -61
v -63 84 -61
v 61 5 -61
v 61 77 -61
v 61 84 -61
v -63 0 -63
v -63 5 -63
v -63 77 -63
v -63 84 -63
v 63 0 -63
v 63 5 -63
v 63 77 -63
v 63 84 -63
v -63 0 63
v 63 0 63
v -63 0 -63
v 63 0 -63
v -63 5 63
v 61 5 63
v -63 5 -61
v 61 5 -61
v 61 84 63
v 63 84 63
v -63 84 -61
v 61 84 -61
v -63 84 -63
v 63 84 -63

# faces
f 3/1/1 2/1/1 1/1/1
f 4/1/1 2/1/1 3/1/1
f 5/1/1 2/1/1 4/1/1
f 6/2/1 5/2/1 4/2/1
f 7/2/1 5/2/1 6/2/1
f 8/3/1 7/3/1 6/3/1
f 9/3/1 7/3/1 8/3/1
f 12/2/1 11/2/1 10/2/1
f 13/2/1 11/2/1 12/2/1
f 14/3/1 13/3/1 12/3/1
f 15/3/1 13/3/1 14/3/1
f 16/1/2 17/1/2 18/1/2
f 18/1/2 17/1/2 19/1/2
f 18/2/2 19/2/2 20/2/2
f 20/2/2 19/2/2 21/2/2
f 20/3/2 21/3/2 22/3/2
f 22/3/2 21/3/2 23/3/2
f 26/1/3 25/1/3 24/1/3
f 29/1/3 26/1/3 24/1/3
f 30/2/3 27/2/3 26/2/3
f 30/1/3 26/1/3 29/1/3
f 31/3/3 28/3/3 27/3/3
f 31/2/3 27/2/3 30/2/3
f 32/3/3 28/3/3 31/3/3
f 36/2/3 34/2/3 33/2/3
f 37/3/3 35/3/3 34/3/3
f 37/2/3 34/2/3 36/2/3
f 38/3/3 35/3/3 37/3/3
f 39/1/4 40/1/4 43/1/4
f 40/2/4 41/2/4 44/2/4
f 43/1/4 40/1/4 44/1/4
f 41/3/4 42/3/4 45/3/4
f 44/2/4 41/2/4 45/2/4
f 45/3/4 42/3/4 46/3/4
f 49/1/5 48/1/5 47/1/5
f 50/1/5 48/1/5 49/1/5
f 51/1/6 52/1/6 53/1/6
f 53/1/6 52/1/6 54/1/6
f 55/3/6 56/3/6 58/3/6
f 57/3/6 58/3/6 59/3/6
f 58/3/6 56/3/6 60/3/6
f 59/3/6 58/3/6 60/3/6
