# MagicaVoxel @ Ephtracy

# group
g 2x2first(test import)-0

# material
mtllib 2x2first(test import)-0.mtl
usemtl palette

# normals
vn -1 0 0
vn 1 0 0
vn 0 0 1
vn 0 0 -1
vn 0 -1 0
vn 0 1 0

# texcoords
vt 0.958984 0.5
vt 0.974609 0.5
vt 0.990234 0.5

# verts
v -63 0 63
v -63 0 41
v -63 0 -42
v -63 0 -63
v -63 3 41
v -63 3 39
v -63 3 -39
v -63 3 -42
v -63 5 63
v -63 5 39
v -63 5 -39
v -63 5 -63
v -23 2 3
v -23 2 -2
v -23 3 3
v -23 3 -2
v 39 3 39
v 39 3 -63
v 39 5 39
v 39 5 -63
v -39 3 -39
v -39 3 -63
v -39 5 -39
v -39 5 -63
v -24 2 3
v -24 2 -2
v -24 3 3
v -24 3 -2
v 63 0 63
v 63 0 -63
v 63 5 63
v 63 5 -63
v -63 0 63
v -63 5 63
v 63 0 63
v 63 5 63
v -24 2 -2
v -24 3 -2
v -23 2 -2
v -23 3 -2
v -63 3 -39
v -63 5 -39
v -39 3 -39
v -39 5 -39
v -63 3 39
v -63 5 39
v 39 3 39
v 39 5 39
v -24 2 3
v -24 3 3
v -23 2 3
v -23 3 3
v -63 0 -63
v -63 5 -63
v -41 0 -63
v -41 3 -63
v -39 3 -63
v -39 5 -63
v 39 3 -63
v 39 5 -63
v 41 0 -63
v 41 3 -63
v 63 0 -63
v 63 5 -63
v -63 0 63
v 63 0 63
v -63 0 41
v 41 0 41
v -63 0 -42
v -41 0 -42
v -63 0 -63
v -41 0 -63
v 41 0 -63
v 63 0 -63
v -24 2 3
v -23 2 3
v -24 2 -2
v -23 2 -2
v -63 3 39
v 39 3 39
v -54 3 3
v -24 3 3
v -23 3 3
v -11 3 3
v 3 3 3
v -24 3 -2
v -23 3 -2
v -54 3 -3
v -24 3 -3
v -11 3 -3
v -3 3 -3
v -3 3 -18
v 3 3 -18
v -3 3 -32
v 3 3 -32
v -63 3 -39
v -39 3 -39
v -3 3 -61
v 3 3 -61
v -39 3 -63
v 39 3 -63
v -63 5 63
v 63 5 63
v -63 5 39
v 39 5 39
v -63 5 -39
v -39 5 -39
v -63 5 -63
v -39 5 -63
v 39 5 -63
v 63 5 -63

# faces
f 5/2/1 2/2/1 1/2/1
f 5/3/1 3/3/1 2/3/1
f 6/3/1 3/3/1 5/3/1
f 7/3/1 3/3/1 6/3/1
f 8/2/1 4/2/1 3/2/1
f 8/3/1 3/3/1 7/3/1
f 9/2/1 5/2/1 1/2/1
f 9/2/1 6/2/1 5/2/1
f 10/2/1 6/2/1 9/2/1
f 11/2/1 8/2/1 7/2/1
f 12/2/1 4/2/1 8/2/1
f 12/2/1 8/2/1 11/2/1
f 15/3/1 14/3/1 13/3/1
f 16/3/1 14/3/1 15/3/1
f 19/2/1 18/2/1 17/2/1
f 20/2/1 18/2/1 19/2/1
f 21/2/2 22/2/2 23/2/2
f 23/2/2 22/2/2 24/2/2
f 25/1/2 26/1/2 27/1/2
f 27/1/2 26/1/2 28/1/2
f 29/2/2 30/2/2 31/2/2
f 31/2/2 30/2/2 32/2/2
f 35/2/3 34/2/3 33/2/3
f 36/2/3 34/2/3 35/2/3
f 39/3/3 38/3/3 37/3/3
f 40/3/3 38/3/3 39/3/3
f 43/2/3 42/2/3 41/2/3
f 44/2/3 42/2/3 43/2/3
f 45/2/4 46/2/4 47/2/4
f 47/2/4 46/2/4 48/2/4
f 49/3/4 50/3/4 51/3/4
f 51/3/4 50/3/4 52/3/4
f 53/2/4 54/2/4 55/2/4
f 55/2/4 54/2/4 56/2/4
f 55/3/4 56/3/4 57/3/4
f 56/2/4 54/2/4 57/2/4
f 57/2/4 54/2/4 58/2/4
f 55/3/4 57/3/4 59/3/4
f 55/3/4 59/3/4 61/3/4
f 59/2/4 60/2/4 62/2/4
f 61/3/4 59/3/4 62/3/4
f 61/2/4 62/2/4 63/2/4
f 62/2/4 60/2/4 64/2/4
f 63/2/4 62/2/4 64/2/4
f 67/2/5 66/2/5 65/2/5
f 68/2/5 66/2/5 67/2/5
f 69/3/5 68/3/5 67/3/5
f 70/3/5 68/3/5 69/3/5
f 71/2/5 70/2/5 69/2/5
f 72/3/5 68/3/5 70/3/5
f 72/2/5 70/2/5 71/2/5
f 73/2/5 66/2/5 68/2/5
f 73/3/5 68/3/5 72/3/5
f 74/2/5 66/2/5 73/2/5
f 75/3/6 76/3/6 77/3/6
f 77/3/6 76/3/6 78/3/6
f 79/3/6 80/3/6 81/3/6
f 81/3/6 80/3/6 82/3/6
f 82/3/6 80/3/6 83/3/6
f 83/3/6 80/3/6 84/3/6
f 84/3/6 80/3/6 85/3/6
f 81/1/6 82/1/6 86/1/6
f 83/3/6 84/3/6 87/3/6
f 79/3/6 81/3/6 88/3/6
f 81/1/6 86/1/6 88/1/6
f 86/3/6 87/3/6 89/3/6
f 88/1/6 86/1/6 89/1/6
f 84/1/6 85/1/6 90/1/6
f 89/3/6 87/3/6 90/3/6
f 87/3/6 84/3/6 90/3/6
f 90/1/6 85/1/6 91/1/6
f 88/3/6 89/3/6 92/3/6
f 91/1/6 85/1/6 92/1/6
f 90/3/6 91/3/6 92/3/6
f 89/3/6 90/3/6 92/3/6
f 85/3/6 80/3/6 93/3/6
f 92/1/6 85/1/6 93/1/6
f 88/3/6 92/3/6 94/3/6
f 92/3/6 93/3/6 94/3/6
f 93/3/6 80/3/6 95/3/6
f 94/3/6 93/3/6 95/3/6
f 79/3/6 88/3/6 96/3/6
f 88/3/6 94/3/6 96/3/6
f 96/3/6 94/3/6 97/3/6
f 94/1/6 95/1/6 98/1/6
f 97/3/6 94/3/6 98/3/6
f 95/3/6 80/3/6 99/3/6
f 98/1/6 95/1/6 99/1/6
f 97/3/6 98/3/6 100/3/6
f 98/3/6 99/3/6 100/3/6
f 99/3/6 80/3/6 101/3/6
f 100/3/6 99/3/6 101/3/6
f 102/2/6 103/2/6 104/2/6
f 104/2/6 103/2/6 105/2/6
f 106/2/6 107/2/6 108/2/6
f 108/2/6 107/2/6 109/2/6
f 105/2/6 103/2/6 110/2/6
f 110/2/6 103/2/6 111/2/6
