# MagicaVoxel @ Ephtracy

# group
g 4x2 first-3

# material
mtllib 4x2 first-3.mtl
usemtl palette

# normals
vn -1 0 0
vn 1 0 0
vn 0 0 1
vn 0 0 -1
vn 0 -1 0
vn 0 1 0

# texcoords
vt 0.966797 0.5
vt 0.986328 0.5

# verts
v -63 0 63
v -63 0 -63
v -63 80 63
v -63 80 -63
v -15 1 -62
v -15 1 -63
v -15 41 -62
v -15 41 -63
v -61 1 -4
v -61 1 -62
v -61 80 -4
v -61 80 -62
v -45 1 -62
v -45 1 -63
v -45 41 -62
v -45 41 -63
v -21 1 63
v -21 1 62
v -21 1 -3
v -21 55 -2
v -21 55 -3
v -21 80 63
v -21 80 62
v -21 80 -2
v 63 0 63
v 63 0 62
v 63 0 -63
v 63 1 63
v 63 1 62
v 63 1 -3
v 63 1 -4
v 63 1 -62
v 63 55 -2
v 63 55 -3
v 63 80 -2
v 63 80 -4
v 63 80 -62
v 63 80 -63
v -63 0 63
v -63 80 63
v -21 1 63
v -21 80 63
v 63 0 63
v 63 1 63
v -21 55 -2
v -21 80 -2
v 63 55 -2
v 63 80 -2
v -21 1 -3
v -21 55 -3
v 63 1 -3
v 63 55 -3
v -61 1 -62
v -61 80 -62
v -45 1 -62
v -45 41 -62
v -15 1 -62
v -15 41 -62
v 63 1 -62
v 63 80 -62
v -61 1 -4
v -61 80 -4
v 63 1 -4
v 63 80 -4
v -63 0 -63
v -63 80 -63
v -62 0 -63
v -62 80 -63
v -45 1 -63
v -45 41 -63
v -15 1 -63
v -15 41 -63
v 63 0 -63
v 63 80 -63
v -63 0 63
v 63 0 63
v -62 0 62
v 63 0 62
v -63 0 -63
v -62 0 -63
v 63 0 -63
v -45 41 -62
v -15 41 -62
v -45 41 -63
v -15 41 -63
v -21 55 -2
v 63 55 -2
v -21 55 -3
v 63 55 -3
v -21 1 63
v 63 1 63
v -21 1 62
v 63 1 62
v -21 1 -3
v 63 1 -3
v -61 1 -4
v 63 1 -4
v -61 1 -62
v -45 1 -62
v -15 1 -62
v 63 1 -62
v -45 1 -63
v -15 1 -63
v -63 80 63
v -21 80 63
v -62 80 62
v -21 80 62
v -21 80 -2
v 63 80 -2
v -61 80 -4
v 63 80 -4
v -61 80 -62
v 63 80 -62
v -63 80 -63
v -62 80 -63
v 63 80 -63

# faces
f 3/2/1 2/2/1 1/2/1
f 4/2/1 2/2/1 3/2/1
f 7/1/1 6/1/1 5/1/1
f 8/1/1 6/1/1 7/1/1
f 9/1/2 10/1/2 11/1/2
f 11/1/2 10/1/2 12/1/2
f 13/1/2 14/1/2 15/1/2
f 15/1/2 14/1/2 16/1/2
f 18/1/2 19/1/2 20/1/2
f 20/1/2 19/1/2 21/1/2
f 17/2/2 18/2/2 22/2/2
f 18/1/2 20/1/2 23/1/2
f 22/2/2 18/2/2 23/2/2
f 23/1/2 20/1/2 24/1/2
f 25/2/2 26/2/2 28/2/2
f 26/1/2 27/1/2 29/1/2
f 28/2/2 26/2/2 29/2/2
f 29/1/2 27/1/2 30/1/2
f 30/1/2 27/1/2 31/1/2
f 31/1/2 27/1/2 32/1/2
f 30/1/2 31/1/2 34/1/2
f 33/1/2 34/1/2 35/1/2
f 34/1/2 31/1/2 36/1/2
f 35/1/2 34/1/2 36/1/2
f 32/1/2 27/1/2 37/1/2
f 37/1/2 27/1/2 38/1/2
f 41/2/3 40/2/3 39/2/3
f 42/2/3 40/2/3 41/2/3
f 43/2/3 41/2/3 39/2/3
f 44/2/3 41/2/3 43/2/3
f 47/1/3 46/1/3 45/1/3
f 48/1/3 46/1/3 47/1/3
f 51/1/3 50/1/3 49/1/3
f 52/1/3 50/1/3 51/1/3
f 55/1/3 54/1/3 53/1/3
f 56/1/3 54/1/3 55/1/3
f 58/1/3 54/1/3 56/1/3
f 59/1/3 58/1/3 57/1/3
f 60/1/3 54/1/3 58/1/3
f 60/1/3 58/1/3 59/1/3
f 61/1/4 62/1/4 63/1/4
f 63/1/4 62/1/4 64/1/4
f 65/2/4 66/2/4 67/2/4
f 67/2/4 66/2/4 68/2/4
f 67/1/4 68/1/4 69/1/4
f 69/1/4 68/1/4 70/1/4
f 67/1/4 69/1/4 71/1/4
f 70/1/4 68/1/4 72/1/4
f 67/1/4 71/1/4 73/1/4
f 71/1/4 72/1/4 73/1/4
f 72/1/4 68/1/4 74/1/4
f 73/1/4 72/1/4 74/1/4
f 77/2/5 76/2/5 75/2/5
f 78/2/5 76/2/5 77/2/5
f 79/2/5 77/2/5 75/2/5
f 80/1/5 78/1/5 77/1/5
f 80/2/5 77/2/5 79/2/5
f 81/1/5 78/1/5 80/1/5
f 84/1/5 83/1/5 82/1/5
f 85/1/5 83/1/5 84/1/5
f 88/1/5 87/1/5 86/1/5
f 89/1/5 87/1/5 88/1/5
f 90/2/6 91/2/6 92/2/6
f 92/2/6 91/2/6 93/2/6
f 92/1/6 93/1/6 94/1/6
f 94/1/6 93/1/6 95/1/6
f 96/1/6 97/1/6 98/1/6
f 98/1/6 97/1/6 99/1/6
f 99/1/6 97/1/6 100/1/6
f 100/1/6 97/1/6 101/1/6
f 99/1/6 100/1/6 102/1/6
f 102/1/6 100/1/6 103/1/6
f 104/2/6 105/2/6 106/2/6
f 106/2/6 105/2/6 107/2/6
f 106/1/6 107/1/6 108/1/6
f 106/1/6 108/1/6 110/1/6
f 108/1/6 109/1/6 110/1/6
f 110/1/6 109/1/6 111/1/6
f 106/1/6 110/1/6 112/1/6
f 104/2/6 106/2/6 114/2/6
f 112/1/6 113/1/6 115/1/6
f 114/2/6 106/2/6 115/2/6
f 106/1/6 112/1/6 115/1/6
f 115/1/6 113/1/6 116/1/6
