# MagicaVoxel @ Ephtracy

# group
g 4x2 first-1

# material
mtllib 4x2 first-1.mtl
usemtl palette

# normals
vn -1 0 0
vn 1 0 0
vn 0 0 1
vn 0 0 -1
vn 0 -1 0
vn 0 1 0

# texcoords
vt 0.396484 0.5
vt 0.966797 0.5
vt 0.986328 0.5

# verts
v -63 0 63
v -63 0 -63
v -63 1 -14
v -63 1 -44
v -63 41 -14
v -63 41 -44
v -63 80 63
v -63 80 -63
v 61 0 63
v 61 0 62
v 61 1 62
v 61 1 -61
v 61 80 63
v 61 80 -61
v -62 1 63
v -62 1 -14
v -62 1 -44
v -62 1 -61
v -62 32 63
v -62 32 56
v -62 39 56
v -62 39 46
v -62 41 -14
v -62 41 -44
v -62 46 46
v -62 46 35
v -62 53 35
v -62 53 24
v -62 60 63
v -62 60 56
v -62 60 24
v -62 60 -1
v -62 67 56
v -62 67 46
v -62 74 46
v -62 74 35
v -62 80 63
v -62 80 35
v -62 80 -1
v -62 80 -61
v -23 32 63
v -23 32 56
v -23 39 56
v -23 39 46
v -23 46 46
v -23 46 35
v -23 53 35
v -23 53 24
v -23 60 63
v -23 60 56
v -23 60 24
v -23 60 -1
v -23 67 56
v -23 67 46
v -23 74 46
v -23 74 35
v -23 80 35
v -23 80 -1
v 23 0 63
v 23 0 62
v 23 1 63
v 23 1 62
v 63 0 63
v 63 0 -63
v 63 80 63
v 63 80 -63
v -63 0 63
v -63 80 63
v -62 1 63
v -62 32 63
v -62 60 63
v -62 80 63
v -23 32 63
v -23 60 63
v 23 0 63
v 23 1 63
v 61 0 63
v 61 80 63
v 62 0 63
v 62 80 63
v 63 0 63
v 63 80 63
v 23 0 62
v 23 1 62
v 61 0 62
v 61 1 62
v -62 60 56
v -62 67 56
v -23 60 56
v -23 67 56
v -62 67 46
v -62 74 46
v -23 67 46
v -23 74 46
v -62 74 35
v -62 80 35
v -23 74 35
v -23 80 35
v -63 1 -44
v -63 41 -44
v -62 1 -44
v -62 41 -44
v -62 1 -61
v -62 80 -61
v 61 1 -61
v 61 80 -61
v -62 32 56
v -62 39 56
v -23 32 56
v -23 39 56
v -62 39 46
v -62 46 46
v -23 39 46
v -23 46 46
v -62 46 35
v -62 53 35
v -23 46 35
v -23 53 35
v -62 53 24
v -62 60 24
v -23 53 24
v -23 60 24
v -62 60 -1
v -62 80 -1
v -23 60 -1
v -23 80 -1
v -63 1 -14
v -63 41 -14
v -62 1 -14
v -62 41 -14
v -63 0 -63
v -63 80 -63
v 62 0 -63
v 62 80 -63
v 63 0 -63
v 63 80 -63
v -63 0 63
v 23 0 63
v 61 0 63
v 62 0 63
v 63 0 63
v 23 0 62
v 61 0 62
v -63 0 -63
v 62 0 -63
v 63 0 -63
v -62 32 63
v -23 32 63
v -62 32 56
v -23 32 56
v -62 39 56
v -23 39 56
v -62 39 46
v -23 39 46
v -63 41 -14
v -62 41 -14
v -63 41 -44
v -62 41 -44
v -62 46 46
v -23 46 46
v -62 46 35
v -23 46 35
v -62 53 35
v -23 53 35
v -62 53 24
v -23 53 24
v -62 60 24
v -23 60 24
v -62 60 -1
v -23 60 -1
v -62 1 63
v 23 1 63
v 23 1 62
v 61 1 62
v -63 1 -14
v -62 1 -14
v -63 1 -44
v -62 1 -44
v -62 1 -61
v 61 1 -61
v -62 60 63
v -23 60 63
v -62 60 56
v -23 60 56
v -62 67 56
v -23 67 56
v -62 67 46
v -23 67 46
v -62 74 46
v -23 74 46
v -62 74 35
v -23 74 35
v -63 80 63
v -62 80 63
v 61 80 63
v 62 80 63
v 63 80 63
v -62 80 35
v -23 80 35
v -62 80 -1
v -23 80 -1
v -62 80 -61
v 61 80 -61
v -63 80 -63
v 62 80 -63
v 63 80 -63

# faces
f 3/2/1 2/2/1 1/2/1
f 4/2/1 2/2/1 3/2/1
f 5/2/1 3/2/1 1/2/1
f 6/2/1 2/2/1 4/2/1
f 7/2/1 5/2/1 1/2/1
f 7/2/1 6/2/1 5/2/1
f 8/2/1 2/2/1 6/2/1
f 8/2/1 6/2/1 7/2/1
f 11/2/1 10/2/1 9/2/1
f 13/2/1 11/2/1 9/2/1
f 13/2/1 12/2/1 11/2/1
f 14/2/1 12/2/1 13/2/1
f 15/2/2 16/2/2 19/2/2
f 19/2/2 16/2/2 20/2/2
f 20/2/2 16/2/2 21/2/2
f 21/2/2 16/2/2 22/2/2
f 22/2/2 16/2/2 23/2/2
f 17/2/2 18/2/2 24/2/2
f 22/2/2 23/2/2 25/2/2
f 23/2/2 24/2/2 25/2/2
f 25/2/2 24/2/2 26/2/2
f 26/2/2 24/2/2 27/2/2
f 27/2/2 24/2/2 28/2/2
f 28/2/2 24/2/2 31/2/2
f 31/2/2 24/2/2 32/2/2
f 29/2/2 30/2/2 33/2/2
f 33/2/2 34/2/2 35/2/2
f 29/2/2 33/2/2 37/2/2
f 35/2/2 36/2/2 37/2/2
f 33/2/2 35/2/2 37/2/2
f 37/2/2 36/2/2 38/2/2
f 32/2/2 24/2/2 39/2/2
f 24/2/2 18/2/2 40/2/2
f 39/2/2 24/2/2 40/2/2
f 41/1/2 42/1/2 43/1/2
f 43/1/2 44/1/2 45/1/2
f 45/1/2 46/1/2 47/1/2
f 41/1/2 43/1/2 49/1/2
f 47/1/2 48/1/2 49/1/2
f 45/1/2 47/1/2 49/1/2
f 43/1/2 45/1/2 49/1/2
f 49/1/2 48/1/2 50/1/2
f 50/1/2 48/1/2 51/1/2
f 51/1/2 52/1/2 53/1/2
f 50/1/2 51/1/2 53/1/2
f 53/1/2 52/1/2 54/1/2
f 54/1/2 52/1/2 55/1/2
f 55/1/2 52/1/2 56/1/2
f 56/1/2 52/1/2 57/1/2
f 57/1/2 52/1/2 58/1/2
f 59/2/2 60/2/2 61/2/2
f 61/2/2 60/2/2 62/2/2
f 63/3/2 64/3/2 65/3/2
f 65/3/2 64/3/2 66/3/2
f 69/2/3 68/2/3 67/2/3
f 70/2/3 68/2/3 69/2/3
f 71/2/3 68/2/3 70/2/3
f 72/2/3 68/2/3 71/2/3
f 73/1/3 71/1/3 70/1/3
f 74/1/3 71/1/3 73/1/3
f 75/2/3 69/2/3 67/2/3
f 76/2/3 69/2/3 75/2/3
f 79/2/3 78/2/3 77/2/3
f 80/2/3 78/2/3 79/2/3
f 81/3/3 80/3/3 79/3/3
f 82/3/3 80/3/3 81/3/3
f 85/2/3 84/2/3 83/2/3
f 86/2/3 84/2/3 85/2/3
f 89/1/3 88/1/3 87/1/3
f 90/1/3 88/1/3 89/1/3
f 93/1/3 92/1/3 91/1/3
f 94/1/3 92/1/3 93/1/3
f 97/1/3 96/1/3 95/1/3
f 98/1/3 96/1/3 97/1/3
f 101/2/3 100/2/3 99/2/3
f 102/2/3 100/2/3 101/2/3
f 105/2/3 104/2/3 103/2/3
f 106/2/3 104/2/3 105/2/3
f 107/1/4 108/1/4 109/1/4
f 109/1/4 108/1/4 110/1/4
f 111/1/4 112/1/4 113/1/4
f 113/1/4 112/1/4 114/1/4
f 115/1/4 116/1/4 117/1/4
f 117/1/4 116/1/4 118/1/4
f 119/1/4 120/1/4 121/1/4
f 121/1/4 120/1/4 122/1/4
f 123/1/4 124/1/4 125/1/4
f 125/1/4 124/1/4 126/1/4
f 127/2/4 128/2/4 129/2/4
f 129/2/4 128/2/4 130/2/4
f 131/2/4 132/2/4 133/2/4
f 133/2/4 132/2/4 134/2/4
f 133/3/4 134/3/4 135/3/4
f 135/3/4 134/3/4 136/3/4
f 142/2/5 138/2/5 137/2/5
f 143/2/5 140/2/5 139/2/5
f 144/2/5 142/2/5 137/2/5
f 144/2/5 143/2/5 142/2/5
f 145/3/5 141/3/5 140/3/5
f 145/2/5 143/2/5 144/2/5
f 145/2/5 140/2/5 143/2/5
f 146/3/5 141/3/5 145/3/5
f 149/1/5 148/1/5 147/1/5
f 150/1/5 148/1/5 149/1/5
f 153/1/5 152/1/5 151/1/5
f 154/1/5 152/1/5 153/1/5
f 157/2/5 156/2/5 155/2/5
f 158/2/5 156/2/5 157/2/5
f 161/1/5 160/1/5 159/1/5
f 162/1/5 160/1/5 161/1/5
f 165/1/5 164/1/5 163/1/5
f 166/1/5 164/1/5 165/1/5
f 169/1/5 168/1/5 167/1/5
f 170/1/5 168/1/5 169/1/5
f 171/2/6 172/2/6 173/2/6
f 171/2/6 173/2/6 176/2/6
f 173/2/6 174/2/6 176/2/6
f 175/2/6 176/2/6 177/2/6
f 176/2/6 174/2/6 178/2/6
f 177/2/6 176/2/6 178/2/6
f 178/2/6 174/2/6 179/2/6
f 179/2/6 174/2/6 180/2/6
f 181/1/6 182/1/6 183/1/6
f 183/1/6 182/1/6 184/1/6
f 185/1/6 186/1/6 187/1/6
f 187/1/6 186/1/6 188/1/6
f 189/1/6 190/1/6 191/1/6
f 191/1/6 190/1/6 192/1/6
f 193/2/6 194/2/6 198/2/6
f 193/2/6 198/2/6 200/2/6
f 198/1/6 199/1/6 200/1/6
f 200/1/6 199/1/6 201/1/6
f 193/2/6 200/2/6 202/2/6
f 195/2/6 196/2/6 203/2/6
f 193/2/6 202/2/6 204/2/6
f 202/2/6 203/2/6 204/2/6
f 196/3/6 197/3/6 205/3/6
f 204/2/6 203/2/6 205/2/6
f 203/2/6 196/2/6 205/2/6
f 205/3/6 197/3/6 206/3/6
