# MagicaVoxel @ Ephtracy

# group
g 4x2 first-7

# material
mtllib 4x2 first-7.mtl
usemtl palette

# normals
vn -1 0 0
vn 1 0 0
vn 0 0 1
vn 0 0 -1
vn 0 -1 0
vn 0 1 0

# texcoords
vt 0.396484 0.5
vt 0.966797 0.5
vt 0.986328 0.5

# verts
v -63 0 63
v -63 0 -63
v -63 80 63
v -63 80 -63
v -30 55 -4
v -30 55 -41
v -30 58 -4
v -30 58 -41
v -20 48 -4
v -20 48 -41
v -20 55 -4
v -20 55 -41
v -9 41 -4
v -9 41 -41
v -9 48 -4
v -9 48 -41
v 23 20 -59
v 23 20 -63
v 23 27 -49
v 23 27 -59
v 23 34 -38
v 23 34 -49
v 23 41 -38
v 23 41 -41
v 23 48 -59
v 23 48 -63
v 23 79 -41
v 23 79 -59
v 62 0 -4
v 62 0 -63
v 62 20 -59
v 62 20 -63
v 62 27 -49
v 62 27 -59
v 62 34 -38
v 62 34 -49
v 62 41 -4
v 62 41 -38
v 62 48 -59
v 62 48 -63
v 62 79 -59
v 62 79 -63
v -61 0 -4
v -61 0 -63
v -61 58 -4
v -61 58 -41
v -61 65 -41
v -61 65 -52
v -61 72 -52
v -61 72 -62
v -61 79 -62
v -61 79 -63
v -23 65 -41
v -23 65 -52
v -23 72 -52
v -23 72 -62
v -23 79 -41
v -23 79 -62
v -21 0 63
v -21 0 62
v -21 0 -2
v -21 25 -2
v -21 25 -3
v -21 79 63
v -21 79 62
v -21 79 -3
v 63 0 -2
v 63 0 -63
v 63 25 -2
v 63 25 -3
v 63 79 63
v 63 79 62
v 63 79 -3
v 63 80 63
v 63 80 62
v 63 80 -63
v -63 0 63
v -63 80 63
v -21 0 63
v -21 79 63
v 63 79 63
v 63 80 63
v -21 0 -2
v -21 25 -2
v 63 0 -2
v 63 25 -2
v -21 25 -3
v -21 79 -3
v 63 25 -3
v 63 79 -3
v 23 34 -38
v 23 41 -38
v 62 34 -38
v 62 41 -38
v 23 27 -49
v 23 34 -49
v 62 27 -49
v 62 34 -49
v 23 20 -59
v 23 27 -59
v 62 20 -59
v 62 27 -59
v -61 0 -4
v -61 58 -4
v -30 55 -4
v -30 58 -4
v -20 48 -4
v -20 55 -4
v -9 41 -4
v -9 48 -4
v 62 0 -4
v 62 41 -4
v -61 58 -41
v -61 65 -41
v -30 55 -41
v -30 58 -41
v -23 65 -41
v -23 79 -41
v -20 48 -41
v -20 55 -41
v -9 41 -41
v -9 48 -41
v 23 41 -41
v 23 79 -41
v -61 65 -52
v -61 72 -52
v -23 65 -52
v -23 72 -52
v 23 48 -59
v 23 79 -59
v 62 48 -59
v 62 79 -59
v -61 72 -62
v -61 79 -62
v -23 72 -62
v -23 79 -62
v -63 0 -63
v -63 80 -63
v -62 0 -63
v -62 80 -63
v -61 0 -63
v -61 79 -63
v 23 20 -63
v 23 48 -63
v 62 0 -63
v 62 20 -63
v 62 48 -63
v 62 79 -63
v 63 0 -63
v 63 80 -63
v -63 0 63
v -21 0 63
v -62 0 62
v -21 0 62
v -21 0 -2
v 63 0 -2
v -61 0 -4
v 62 0 -4
v -63 0 -63
v -62 0 -63
v -61 0 -63
v 62 0 -63
v 63 0 -63
v 23 20 -59
v 62 20 -59
v 23 20 -63
v 62 20 -63
v 23 27 -49
v 62 27 -49
v 23 27 -59
v 62 27 -59
v 23 34 -38
v 62 34 -38
v 23 34 -49
v 62 34 -49
v -9 41 -4
v 62 41 -4
v 23 41 -38
v 62 41 -38
v -9 41 -41
v 23 41 -41
v -20 48 -4
v -9 48 -4
v -20 48 -41
v -9 48 -41
v -30 55 -4
v -20 55 -4
v -30 55 -41
v -20 55 -41
v -61 58 -4
v -30 58 -4
v -61 58 -41
v -30 58 -41
v -61 65 -41
v -23 65 -41
v -61 65 -52
v -23 65 -52
v -61 72 -52
v -23 72 -52
v -61 72 -62
v -23 72 -62
v -21 79 63
v 63 79 63
v -21 79 62
v 63 79 62
v -21 79 -3
v 63 79 -3
v -23 79 -41
v 23 79 -41
v 23 79 -59
v 62 79 -59
v -61 79 -62
v -23 79 -62
v -61 79 -63
v 62 79 -63
v -21 25 -2
v 63 25 -2
v -21 25 -3
v 63 25 -3
v 23 48 -59
v 62 48 -59
v 23 48 -63
v 62 48 -63
v -63 80 63
v 63 80 63
v -62 80 62
v 63 80 62
v -61 80 -4
v 23 80 -4
v -23 80 -41
v 23 80 -41
v -61 80 -62
v -23 80 -62
v -63 80 -63
v -62 80 -63
v 63 80 -63

# faces
f 3/3/1 2/3/1 1/3/1
f 4/3/1 2/3/1 3/3/1
f 7/1/1 6/1/1 5/1/1
f 8/1/1 6/1/1 7/1/1
f 11/1/1 10/1/1 9/1/1
f 12/1/1 10/1/1 11/1/1
f 15/1/1 14/1/1 13/1/1
f 16/1/1 14/1/1 15/1/1
f 20/1/1 18/1/1 17/1/1
f 22/1/1 20/1/1 19/1/1
f 23/1/1 22/1/1 21/1/1
f 24/1/1 22/1/1 23/1/1
f 25/1/1 18/1/1 20/1/1
f 25/1/1 22/1/1 24/1/1
f 25/1/1 20/1/1 22/1/1
f 26/1/1 18/1/1 25/1/1
f 27/1/1 25/1/1 24/1/1
f 28/1/1 25/1/1 27/1/1
f 31/2/1 30/2/1 29/2/1
f 32/2/1 30/2/1 31/2/1
f 33/2/1 31/2/1 29/2/1
f 34/2/1 31/2/1 33/2/1
f 35/2/1 33/2/1 29/2/1
f 36/2/1 33/2/1 35/2/1
f 37/2/1 35/2/1 29/2/1
f 38/2/1 35/2/1 37/2/1
f 41/2/1 40/2/1 39/2/1
f 42/2/1 40/2/1 41/2/1
f 43/2/2 44/2/2 45/2/2
f 45/2/2 44/2/2 46/2/2
f 46/2/2 44/2/2 47/2/2
f 47/2/2 44/2/2 48/2/2
f 48/2/2 44/2/2 49/2/2
f 49/2/2 44/2/2 50/2/2
f 50/2/2 44/2/2 51/2/2
f 51/2/2 44/2/2 52/2/2
f 53/1/2 54/1/2 55/1/2
f 53/1/2 55/1/2 57/1/2
f 55/1/2 56/1/2 57/1/2
f 57/1/2 56/1/2 58/1/2
f 60/2/2 61/2/2 62/2/2
f 59/3/2 60/3/2 64/3/2
f 62/2/2 63/2/2 65/2/2
f 64/3/2 60/3/2 65/3/2
f 60/2/2 62/2/2 65/2/2
f 65/2/2 63/2/2 66/2/2
f 67/2/2 68/2/2 69/2/2
f 69/2/2 68/2/2 70/2/2
f 70/2/2 68/2/2 73/2/2
f 71/3/2 72/3/2 74/3/2
f 72/2/2 73/2/2 75/2/2
f 74/3/2 72/3/2 75/3/2
f 73/2/2 68/2/2 76/2/2
f 75/2/2 73/2/2 76/2/2
f 79/3/3 78/3/3 77/3/3
f 80/3/3 78/3/3 79/3/3
f 81/3/3 78/3/3 80/3/3
f 82/3/3 78/3/3 81/3/3
f 85/2/3 84/2/3 83/2/3
f 86/2/3 84/2/3 85/2/3
f 89/2/3 88/2/3 87/2/3
f 90/2/3 88/2/3 89/2/3
f 93/1/3 92/1/3 91/1/3
f 94/1/3 92/1/3 93/1/3
f 97/1/3 96/1/3 95/1/3
f 98/1/3 96/1/3 97/1/3
f 101/1/3 100/1/3 99/1/3
f 102/1/3 100/1/3 101/1/3
f 103/2/4 104/2/4 105/2/4
f 105/2/4 104/2/4 106/2/4
f 103/2/4 105/2/4 107/2/4
f 107/2/4 105/2/4 108/2/4
f 103/2/4 107/2/4 109/2/4
f 109/2/4 107/2/4 110/2/4
f 103/2/4 109/2/4 111/2/4
f 111/2/4 109/2/4 112/2/4
f 113/1/4 114/1/4 116/1/4
f 116/1/4 114/1/4 117/1/4
f 115/1/4 116/1/4 117/1/4
f 115/1/4 117/1/4 120/1/4
f 117/1/4 118/1/4 120/1/4
f 119/1/4 120/1/4 122/1/4
f 121/1/4 122/1/4 123/1/4
f 120/1/4 118/1/4 124/1/4
f 123/1/4 122/1/4 124/1/4
f 122/1/4 120/1/4 124/1/4
f 125/1/4 126/1/4 127/1/4
f 127/1/4 126/1/4 128/1/4
f 129/1/4 130/1/4 131/1/4
f 131/1/4 130/1/4 132/1/4
f 133/1/4 134/1/4 135/1/4
f 135/1/4 134/1/4 136/1/4
f 137/3/4 138/3/4 139/3/4
f 139/3/4 138/3/4 140/3/4
f 139/2/4 140/2/4 141/2/4
f 141/2/4 140/2/4 142/2/4
f 143/1/4 144/1/4 146/1/4
f 146/1/4 144/1/4 147/1/4
f 142/2/4 140/2/4 148/2/4
f 146/2/4 147/2/4 149/2/4
f 147/2/4 148/2/4 149/2/4
f 145/2/4 146/2/4 149/2/4
f 148/2/4 140/2/4 150/2/4
f 149/2/4 148/2/4 150/2/4
f 153/3/5 152/3/5 151/3/5
f 154/3/5 152/3/5 153/3/5
f 155/2/5 154/2/5 153/2/5
f 157/2/5 155/2/5 153/2/5
f 157/2/5 156/2/5 155/2/5
f 158/2/5 156/2/5 157/2/5
f 159/3/5 153/3/5 151/3/5
f 160/2/5 157/2/5 153/2/5
f 160/3/5 153/3/5 159/3/5
f 161/2/5 157/2/5 160/2/5
f 162/2/5 156/2/5 158/2/5
f 163/2/5 156/2/5 162/2/5
f 166/1/5 165/1/5 164/1/5
f 167/1/5 165/1/5 166/1/5
f 170/1/5 169/1/5 168/1/5
f 171/1/5 169/1/5 170/1/5
f 174/1/5 173/1/5 172/1/5
f 175/1/5 173/1/5 174/1/5
f 178/1/5 177/1/5 176/1/5
f 179/1/5 177/1/5 178/1/5
f 180/1/5 178/1/5 176/1/5
f 181/1/5 178/1/5 180/1/5
f 184/1/5 183/1/5 182/1/5
f 185/1/5 183/1/5 184/1/5
f 188/1/5 187/1/5 186/1/5
f 189/1/5 187/1/5 188/1/5
f 192/1/5 191/1/5 190/1/5
f 193/1/5 191/1/5 192/1/5
f 196/1/5 195/1/5 194/1/5
f 197/1/5 195/1/5 196/1/5
f 200/1/5 199/1/5 198/1/5
f 201/1/5 199/1/5 200/1/5
f 204/3/5 203/3/5 202/3/5
f 205/3/5 203/3/5 204/3/5
f 206/2/5 205/2/5 204/2/5
f 207/2/5 205/2/5 206/2/5
f 210/2/5 209/2/5 208/2/5
f 213/2/5 210/2/5 208/2/5
f 213/2/5 211/2/5 210/2/5
f 214/2/5 213/2/5 212/2/5
f 215/2/5 211/2/5 213/2/5
f 215/2/5 213/2/5 214/2/5
f 216/2/6 217/2/6 218/2/6
f 218/2/6 217/2/6 219/2/6
f 220/1/6 221/1/6 222/1/6
f 222/1/6 221/1/6 223/1/6
f 224/3/6 225/3/6 226/3/6
f 226/3/6 225/3/6 227/3/6
f 226/2/6 227/2/6 228/2/6
f 228/2/6 227/2/6 229/2/6
f 228/1/6 229/1/6 230/1/6
f 229/2/6 227/2/6 231/2/6
f 230/1/6 229/1/6 231/1/6
f 226/2/6 228/2/6 232/2/6
f 228/1/6 230/1/6 232/1/6
f 230/2/6 231/2/6 233/2/6
f 232/1/6 230/1/6 233/1/6
f 224/3/6 226/3/6 234/3/6
f 226/2/6 232/2/6 235/2/6
f 234/3/6 226/3/6 235/3/6
f 232/2/6 233/2/6 235/2/6
f 233/2/6 231/2/6 236/2/6
f 235/2/6 233/2/6 236/2/6
f 231/2/6 227/2/6 236/2/6
