# MagicaVoxel @ Ephtracy

# group
g 4x2 third (des)-7

# material
mtllib 4x2 third (des)-7.mtl
usemtl palette

# normals
vn -1 0 0
vn 1 0 0
vn 0 0 1
vn 0 0 -1
vn 0 -1 0
vn 0 1 0

# texcoords
vt 0.966797 0.5
vt 0.982422 0.5
vt 0.986328 0.5

# verts
v -63 0 63
v -63 0 -63
v -63 2 61
v -63 2 -62
v -63 3 61
v -63 3 -62
v -63 30 63
v -63 30 61
v -63 60 63
v -63 60 61
v -63 80 63
v -63 80 61
v -63 80 -62
v -63 80 -63
v -54 30 63
v -54 30 61
v -54 60 63
v -54 60 61
v 33 30 63
v 33 30 61
v 33 60 63
v 33 60 61
v 61 3 61
v 61 3 2
v 61 3 -8
v 61 3 -10
v 61 3 -57
v 61 3 -62
v 61 6 -10
v 61 6 -20
v 61 8 2
v 61 8 -8
v 61 9 -20
v 61 9 -25
v 61 9 -27
v 61 9 -34
v 61 9 -36
v 61 9 -37
v 61 9 -48
v 61 9 -57
v 61 10 -27
v 61 10 -31
v 61 10 -36
v 61 10 -37
v 61 11 -25
v 61 11 -27
v 61 11 -34
v 61 11 -35
v 61 14 -27
v 61 14 -31
v 61 14 -32
v 61 14 -35
v 61 14 -47
v 61 15 -47
v 61 15 -48
v 61 16 -32
v 61 16 -35
v 61 17 -35
v 61 17 -39
v 61 24 -35
v 61 24 -39
v 61 30 23
v 61 30 -12
v 61 60 23
v 61 60 -12
v 61 80 61
v 61 80 -62
v -2 30 63
v -2 30 61
v -2 60 63
v -2 60 61
v 63 0 63
v 63 0 -63
v 63 30 23
v 63 30 -12
v 63 60 23
v 63 60 -12
v 63 80 63
v 63 80 -63
v -63 0 63
v -63 30 63
v -63 60 63
v -63 80 63
v -54 30 63
v -54 60 63
v -2 30 63
v -2 60 63
v 33 30 63
v 33 60 63
v 63 0 63
v 63 80 63
v 61 30 -12
v 61 60 -12
v 63 30 -12
v 63 60 -12
v -63 3 -62
v -63 80 -62
v 61 3 -62
v 61 80 -62
v -63 3 61
v -63 30 61
v -63 60 61
v -63 80 61
v -54 30 61
v -54 60 61
v -2 30 61
v -2 60 61
v 33 30 61
v 33 60 61
v 61 3 61
v 61 80 61
v 61 30 23
v 61 60 23
v 63 30 23
v 63 60 23
v -63 0 -63
v -63 80 -63
v 63 0 -63
v 63 80 -63
v -63 0 63
v 63 0 63
v -63 0 -63
v 63 0 -63
v -63 60 63
v -54 60 63
v -2 60 63
v 33 60 63
v -63 60 61
v -54 60 61
v -2 60 61
v 33 60 61
v 61 60 23
v 63 60 23
v 61 60 -12
v 63 60 -12
v -63 3 61
v 61 3 61
v 54 3 5
v 59 3 5
v 54 3 4
v 59 3 4
v 29 3 3
v 50 3 3
v 59 3 2
v 61 3 2
v 21 3 -4
v 24 3 -4
v 50 3 -5
v 58 3 -5
v 21 3 -7
v 24 3 -7
v 59 3 -8
v 61 3 -8
v 58 3 -10
v 61 3 -10
v 25 3 -12
v 27 3 -12
v 25 3 -14
v 27 3 -14
v 18 3 -15
v 19 3 -15
v 16 3 -16
v 18 3 -16
v 18 3 -17
v 19 3 -17
v 26 3 -17
v 29 3 -17
v 20 3 -18
v 23 3 -18
v 50 3 -18
v 51 3 -18
v 16 3 -20
v 18 3 -20
v 50 3 -20
v 51 3 -20
v 29 3 -22
v 32 3 -22
v 26 3 -23
v 29 3 -23
v 23 3 -24
v 25 3 -24
v 20 3 -25
v 22 3 -25
v 26 3 -26
v 32 3 -26
v 12 3 -27
v 14 3 -27
v 14 3 -30
v 22 3 -30
v 25 3 -30
v 26 3 -30
v 12 3 -48
v 21 3 -48
v 14 3 -52
v 16 3 -52
v 20 3 -52
v 21 3 -52
v 14 3 -53
v 16 3 -53
v 20 3 -53
v 32 3 -53
v 32 3 -57
v 61 3 -57
v -63 3 -62
v 61 3 -62
v -63 30 63
v -54 30 63
v -2 30 63
v 33 30 63
v -63 30 61
v -54 30 61
v -2 30 61
v 33 30 61
v 61 30 23
v 63 30 23
v 61 30 -12
v 63 30 -12
v -63 80 63
v 63 80 63
v -63 80 61
v 61 80 61
v -63 80 -62
v 61 80 -62
v -63 80 -63
v 63 80 -63

# faces
f 3/1/1 2/1/1 1/1/1
f 4/1/1 2/1/1 3/1/1
f 5/1/1 3/1/1 1/1/1
f 5/2/1 4/2/1 3/2/1
f 6/1/1 2/1/1 4/1/1
f 6/2/1 4/2/1 5/2/1
f 7/1/1 5/1/1 1/1/1
f 8/1/1 5/1/1 7/1/1
f 11/1/1 10/1/1 9/1/1
f 12/1/1 10/1/1 11/1/1
f 13/1/1 2/1/1 6/1/1
f 14/1/1 2/1/1 13/1/1
f 17/1/1 16/1/1 15/1/1
f 18/1/1 16/1/1 17/1/1
f 21/1/1 20/1/1 19/1/1
f 22/1/1 20/1/1 21/1/1
f 29/1/1 26/1/1 25/1/1
f 29/3/1 27/3/1 26/3/1
f 30/3/1 27/3/1 29/3/1
f 31/1/1 24/1/1 23/1/1
f 31/3/1 25/3/1 24/3/1
f 32/1/1 30/1/1 29/1/1
f 32/3/1 25/3/1 31/3/1
f 32/1/1 29/1/1 25/1/1
f 33/3/1 27/3/1 30/3/1
f 33/1/1 30/1/1 32/1/1
f 33/1/1 32/1/1 31/1/1
f 34/3/1 27/3/1 33/3/1
f 35/3/1 27/3/1 34/3/1
f 36/3/1 27/3/1 35/3/1
f 37/3/1 27/3/1 36/3/1
f 38/3/1 27/3/1 37/3/1
f 39/3/1 27/3/1 38/3/1
f 40/1/1 28/1/1 27/1/1
f 40/3/1 27/3/1 39/3/1
f 41/3/1 35/3/1 34/3/1
f 41/1/1 36/1/1 35/1/1
f 42/1/1 36/1/1 41/1/1
f 43/3/1 37/3/1 36/3/1
f 43/1/1 38/1/1 37/1/1
f 44/3/1 39/3/1 38/3/1
f 44/1/1 38/1/1 43/1/1
f 45/1/1 34/1/1 33/1/1
f 45/3/1 42/3/1 41/3/1
f 45/3/1 41/3/1 34/3/1
f 46/3/1 42/3/1 45/3/1
f 47/3/1 43/3/1 36/3/1
f 47/1/1 36/1/1 42/1/1
f 47/3/1 44/3/1 43/3/1
f 48/3/1 44/3/1 47/3/1
f 49/3/1 42/3/1 46/3/1
f 49/1/1 46/1/1 45/1/1
f 50/1/1 48/1/1 47/1/1
f 50/3/1 42/3/1 49/3/1
f 50/1/1 47/1/1 42/1/1
f 51/1/1 48/1/1 50/1/1
f 52/3/1 44/3/1 48/3/1
f 52/1/1 48/1/1 51/1/1
f 53/3/1 39/3/1 44/3/1
f 53/3/1 44/3/1 52/3/1
f 54/1/1 53/1/1 52/1/1
f 54/3/1 39/3/1 53/3/1
f 55/1/1 40/1/1 39/1/1
f 55/3/1 39/3/1 54/3/1
f 56/1/1 51/1/1 50/1/1
f 56/3/1 52/3/1 51/3/1
f 56/1/1 50/1/1 49/1/1
f 57/1/1 55/1/1 54/1/1
f 57/3/1 52/3/1 56/3/1
f 57/1/1 54/1/1 52/1/1
f 58/1/1 57/1/1 56/1/1
f 58/1/1 55/1/1 57/1/1
f 59/1/1 55/1/1 58/1/1
f 60/1/1 58/1/1 56/1/1
f 60/3/1 59/3/1 58/3/1
f 61/1/1 55/1/1 59/1/1
f 61/3/1 59/3/1 60/3/1
f 62/1/1 31/1/1 23/1/1
f 62/1/1 33/1/1 31/1/1
f 62/1/1 61/1/1 60/1/1
f 62/1/1 60/1/1 56/1/1
f 62/1/1 49/1/1 45/1/1
f 62/1/1 45/1/1 33/1/1
f 62/1/1 56/1/1 49/1/1
f 63/1/1 61/1/1 62/1/1
f 64/1/1 62/1/1 23/1/1
f 65/1/1 61/1/1 63/1/1
f 66/1/1 64/1/1 23/1/1
f 66/1/1 65/1/1 64/1/1
f 67/1/1 40/1/1 55/1/1
f 67/1/1 65/1/1 66/1/1
f 67/1/1 55/1/1 61/1/1
f 67/1/1 28/1/1 40/1/1
f 67/1/1 61/1/1 65/1/1
f 68/1/2 69/1/2 70/1/2
f 70/1/2 69/1/2 71/1/2
f 72/1/2 73/1/2 74/1/2
f 74/1/2 73/1/2 75/1/2
f 72/1/2 74/1/2 76/1/2
f 75/1/2 73/1/2 77/1/2
f 72/1/2 76/1/2 78/1/2
f 76/1/2 77/1/2 78/1/2
f 77/1/2 73/1/2 79/1/2
f 78/1/2 77/1/2 79/1/2
f 84/1/3 81/1/3 80/1/3
f 85/1/3 83/1/3 82/1/3
f 86/1/3 84/1/3 80/1/3
f 86/1/3 85/1/3 84/1/3
f 87/1/3 83/1/3 85/1/3
f 87/1/3 85/1/3 86/1/3
f 88/1/3 86/1/3 80/1/3
f 89/1/3 83/1/3 87/1/3
f 90/1/3 88/1/3 80/1/3
f 90/1/3 89/1/3 88/1/3
f 91/1/3 83/1/3 89/1/3
f 91/1/3 89/1/3 90/1/3
f 94/1/3 93/1/3 92/1/3
f 95/1/3 93/1/3 94/1/3
f 98/1/3 97/1/3 96/1/3
f 99/1/3 97/1/3 98/1/3
f 100/1/4 101/1/4 104/1/4
f 102/1/4 103/1/4 105/1/4
f 100/1/4 104/1/4 106/1/4
f 104/1/4 105/1/4 106/1/4
f 105/1/4 103/1/4 107/1/4
f 106/1/4 105/1/4 107/1/4
f 100/1/4 106/1/4 108/1/4
f 107/1/4 103/1/4 109/1/4
f 100/1/4 108/1/4 110/1/4
f 108/1/4 109/1/4 110/1/4
f 109/1/4 103/1/4 111/1/4
f 110/1/4 109/1/4 111/1/4
f 112/1/4 113/1/4 114/1/4
f 114/1/4 113/1/4 115/1/4
f 116/1/4 117/1/4 118/1/4
f 118/1/4 117/1/4 119/1/4
f 122/1/5 121/1/5 120/1/5
f 123/1/5 121/1/5 122/1/5
f 128/1/5 125/1/5 124/1/5
f 129/1/5 125/1/5 128/1/5
f 130/1/5 127/1/5 126/1/5
f 131/1/5 127/1/5 130/1/5
f 134/1/5 133/1/5 132/1/5
f 135/1/5 133/1/5 134/1/5
f 136/2/6 137/2/6 138/2/6
f 138/2/6 137/2/6 139/2/6
f 136/2/6 138/2/6 140/2/6
f 138/3/6 139/3/6 140/3/6
f 139/2/6 137/2/6 141/2/6
f 140/3/6 139/3/6 141/3/6
f 136/2/6 140/2/6 142/2/6
f 140/2/6 141/2/6 142/2/6
f 142/2/6 141/2/6 143/2/6
f 141/2/6 137/2/6 144/2/6
f 143/2/6 141/2/6 144/2/6
f 144/2/6 137/2/6 145/2/6
f 136/2/6 142/2/6 146/2/6
f 146/2/6 142/2/6 147/2/6
f 142/3/6 143/3/6 148/3/6
f 143/2/6 144/2/6 148/2/6
f 148/2/6 144/2/6 149/2/6
f 146/3/6 147/3/6 150/3/6
f 136/2/6 146/2/6 150/2/6
f 147/2/6 142/2/6 151/2/6
f 150/3/6 147/3/6 151/3/6
f 149/2/6 144/2/6 152/2/6
f 144/3/6 145/3/6 152/3/6
f 152/3/6 145/3/6 153/3/6
f 148/3/6 149/3/6 154/3/6
f 149/2/6 152/2/6 154/2/6
f 152/2/6 153/2/6 154/2/6
f 154/2/6 153/2/6 155/2/6
f 151/2/6 142/2/6 156/2/6
f 150/2/6 151/2/6 156/2/6
f 156/2/6 142/2/6 157/2/6
f 150/2/6 156/2/6 158/2/6
f 156/3/6 157/3/6 158/3/6
f 157/2/6 142/2/6 159/2/6
f 158/3/6 157/3/6 159/3/6
f 136/2/6 150/2/6 160/2/6
f 150/2/6 158/2/6 160/2/6
f 158/2/6 159/2/6 160/2/6
f 160/2/6 159/2/6 161/2/6
f 136/2/6 160/2/6 162/2/6
f 160/3/6 161/3/6 163/3/6
f 162/2/6 160/2/6 163/2/6
f 162/3/6 163/3/6 164/3/6
f 163/3/6 161/3/6 164/3/6
f 161/2/6 159/2/6 165/2/6
f 164/3/6 161/3/6 165/3/6
f 165/2/6 159/2/6 166/2/6
f 159/2/6 142/2/6 167/2/6
f 166/2/6 159/2/6 167/2/6
f 154/3/6 155/3/6 167/3/6
f 142/3/6 148/3/6 167/3/6
f 148/3/6 154/3/6 167/3/6
f 165/2/6 166/2/6 168/2/6
f 164/2/6 165/2/6 168/2/6
f 168/2/6 166/2/6 169/2/6
f 167/3/6 155/3/6 170/3/6
f 166/3/6 167/3/6 170/3/6
f 170/3/6 155/3/6 171/3/6
f 136/2/6 162/2/6 172/2/6
f 162/3/6 164/3/6 172/3/6
f 164/2/6 168/2/6 173/2/6
f 172/3/6 164/3/6 173/3/6
f 170/2/6 171/2/6 174/2/6
f 166/3/6 170/3/6 174/3/6
f 171/3/6 155/3/6 175/3/6
f 174/2/6 171/2/6 175/2/6
f 166/3/6 174/3/6 176/3/6
f 174/3/6 175/3/6 176/3/6
f 176/3/6 175/3/6 177/3/6
f 169/2/6 166/2/6 178/2/6
f 166/3/6 176/3/6 178/3/6
f 176/2/6 177/2/6 179/2/6
f 178/3/6 176/3/6 179/3/6
f 168/3/6 169/3/6 180/3/6
f 169/2/6 178/2/6 180/2/6
f 178/2/6 179/2/6 180/2/6
f 180/2/6 179/2/6 181/2/6
f 173/2/6 168/2/6 182/2/6
f 172/2/6 173/2/6 182/2/6
f 180/3/6 181/3/6 182/3/6
f 168/3/6 180/3/6 182/3/6
f 182/3/6 181/3/6 183/3/6
f 181/2/6 179/2/6 184/2/6
f 177/3/6 175/3/6 185/3/6
f 184/2/6 179/2/6 185/2/6
f 179/2/6 177/2/6 185/2/6
f 182/2/6 183/2/6 186/2/6
f 136/2/6 172/2/6 186/2/6
f 172/2/6 182/2/6 186/2/6
f 186/2/6 183/2/6 187/2/6
f 186/3/6 187/3/6 188/3/6
f 187/2/6 183/2/6 188/2/6
f 183/3/6 181/3/6 189/3/6
f 188/2/6 183/2/6 189/2/6
f 181/2/6 184/2/6 190/2/6
f 189/3/6 181/3/6 190/3/6
f 184/3/6 185/3/6 191/3/6
f 190/2/6 184/2/6 191/2/6
f 188/3/6 189/3/6 192/3/6
f 186/3/6 188/3/6 192/3/6
f 190/3/6 191/3/6 192/3/6
f 136/2/6 186/2/6 192/2/6
f 189/3/6 190/3/6 192/3/6
f 192/3/6 191/3/6 193/3/6
f 192/2/6 193/2/6 194/2/6
f 194/2/6 193/2/6 195/2/6
f 195/2/6 193/2/6 196/2/6
f 193/3/6 191/3/6 197/3/6
f 196/2/6 193/2/6 197/2/6
f 192/2/6 194/2/6 198/2/6
f 194/3/6 195/3/6 198/3/6
f 195/2/6 196/2/6 199/2/6
f 198/3/6 195/3/6 199/3/6
f 196/3/6 197/3/6 200/3/6
f 199/2/6 196/2/6 200/2/6
f 191/3/6 185/3/6 201/3/6
f 200/3/6 197/3/6 201/3/6
f 185/3/6 175/3/6 201/3/6
f 197/3/6 191/3/6 201/3/6
f 199/2/6 200/2/6 202/2/6
f 201/3/6 175/3/6 202/3/6
f 200/2/6 201/2/6 202/2/6
f 198/2/6 199/2/6 202/2/6
f 175/3/6 155/3/6 203/3/6
f 202/3/6 175/3/6 203/3/6
f 192/2/6 198/2/6 204/2/6
f 136/2/6 192/2/6 204/2/6
f 202/2/6 203/2/6 204/2/6
f 198/2/6 202/2/6 204/2/6
f 204/2/6 203/2/6 205/2/6
f 206/1/6 207/1/6 210/1/6
f 210/1/6 207/1/6 211/1/6
f 208/1/6 209/1/6 212/1/6
f 212/1/6 209/1/6 213/1/6
f 214/1/6 215/1/6 216/1/6
f 216/1/6 215/1/6 217/1/6
f 218/1/6 219/1/6 220/1/6
f 220/1/6 219/1/6 221/1/6
f 221/1/6 219/1/6 223/1/6
f 222/1/6 223/1/6 224/1/6
f 223/1/6 219/1/6 225/1/6
f 224/1/6 223/1/6 225/1/6
