# MagicaVoxel @ Ephtracy

# group
g 4x2 first (1)-0

# material
mtllib 4x2 first (1)-0.mtl
usemtl palette

# normals
vn -1 0 0
vn 1 0 0
vn 0 0 1
vn 0 0 -1
vn 0 -1 0
vn 0 1 0

# texcoords
vt 0.0332031 0.5
vt 0.966797 0.5

# verts
v -63 0 63
v -63 0 -63
v -63 80 63
v -63 80 -63
v -61 3 63
v -61 3 -61
v -61 80 63
v -61 80 -61
v 63 0 63
v 63 0 -63
v 63 2 63
v 63 2 -61
v 63 3 63
v 63 3 -61
v 63 80 -61
v 63 80 -63
v -63 0 63
v -63 80 63
v -61 2 63
v -61 3 63
v -61 80 63
v 63 0 63
v 63 2 63
v 63 3 63
v -61 3 -61
v -61 80 -61
v 63 3 -61
v 63 80 -61
v -63 0 -63
v -63 80 -63
v 63 0 -63
v 63 80 -63
v -63 0 63
v 63 0 63
v -63 0 -63
v 63 0 -63
v -61 3 63
v 63 3 63
v -61 3 -61
v 63 3 -61
v -63 80 63
v -61 80 63
v -61 80 -61
v 63 80 -61
v -63 80 -63
v 63 80 -63

# faces
f 3/2/1 2/2/1 1/2/1
f 4/2/1 2/2/1 3/2/1
f 5/2/2 6/2/2 7/2/2
f 7/2/2 6/2/2 8/2/2
f 9/2/2 10/2/2 11/2/2
f 11/2/2 10/2/2 12/2/2
f 11/1/2 12/1/2 13/1/2
f 12/2/2 10/2/2 14/2/2
f 13/1/2 12/1/2 14/1/2
f 14/2/2 10/2/2 15/2/2
f 15/2/2 10/2/2 16/2/2
f 19/2/3 18/2/3 17/2/3
f 20/2/3 18/2/3 19/2/3
f 21/2/3 18/2/3 20/2/3
f 22/2/3 19/2/3 17/2/3
f 23/1/3 20/1/3 19/1/3
f 23/2/3 19/2/3 22/2/3
f 24/1/3 20/1/3 23/1/3
f 27/2/3 26/2/3 25/2/3
f 28/2/3 26/2/3 27/2/3
f 29/2/4 30/2/4 31/2/4
f 31/2/4 30/2/4 32/2/4
f 35/2/5 34/2/5 33/2/5
f 36/2/5 34/2/5 35/2/5
f 37/1/6 38/1/6 39/1/6
f 39/1/6 38/1/6 40/1/6
f 41/2/6 42/2/6 43/2/6
f 41/2/6 43/2/6 45/2/6
f 43/2/6 44/2/6 45/2/6
f 45/2/6 44/2/6 46/2/6
