# MagicaVoxel @ Ephtracy

# group
g 4x2 third (1)-1

# material
mtllib 4x2 third (1)-1.mtl
usemtl palette

# normals
vn -1 0 0
vn 1 0 0
vn 0 0 1
vn 0 0 -1
vn 0 -1 0
vn 0 1 0

# texcoords
vt 0.0332031 0.5
vt 0.966797 0.5

# verts
v -63 0 63
v -63 0 -63
v -63 7 -59
v -63 7 -63
v -63 70 -59
v -63 70 -63
v -63 80 63
v -63 80 -63
v -22 0 61
v -22 0 -26
v -22 2 61
v -22 2 -26
v -22 3 61
v -22 3 -26
v -61 0 61
v -61 0 -26
v -61 2 -26
v -61 3 -26
v -61 3 -63
v -61 7 -59
v -61 7 -63
v -61 70 -59
v -61 70 -63
v -61 80 61
v -61 80 -63
v 23 7 63
v 23 7 61
v 23 70 63
v 23 70 61
v 63 0 63
v 63 0 -63
v 63 2 61
v 63 2 -63
v 63 3 61
v 63 3 -63
v 63 7 63
v 63 7 61
v 63 70 63
v 63 70 61
v 63 80 63
v 63 80 61
v -63 0 63
v -63 80 63
v 23 7 63
v 23 70 63
v 63 0 63
v 63 7 63
v 63 70 63
v 63 80 63
v -61 0 -26
v -61 2 -26
v -61 3 -26
v -22 0 -26
v -22 2 -26
v -22 3 -26
v -61 0 61
v -61 80 61
v -22 0 61
v -22 2 61
v -22 3 61
v 23 7 61
v 23 70 61
v 63 3 61
v 63 7 61
v 63 70 61
v 63 80 61
v -63 7 -59
v -63 70 -59
v -61 7 -59
v -61 70 -59
v -63 0 -63
v -63 7 -63
v -63 70 -63
v -63 80 -63
v -61 2 -63
v -61 3 -63
v -61 7 -63
v -61 70 -63
v -61 80 -63
v 63 0 -63
v 63 2 -63
v 63 3 -63
v -63 0 63
v 63 0 63
v -61 0 61
v -22 0 61
v -61 0 -26
v -22 0 -26
v -63 0 -63
v 63 0 -63
v 23 70 63
v 63 70 63
v 23 70 61
v 63 70 61
v -63 70 -59
v -61 70 -59
v -63 70 -63
v -61 70 -63
v -22 3 61
v 63 3 61
v -61 3 -26
v -22 3 -26
v -61 3 -63
v 63 3 -63
v 23 7 63
v 63 7 63
v 23 7 61
v 63 7 61
v -63 7 -59
v -61 7 -59
v -63 7 -63
v -61 7 -63
v -63 80 63
v 63 80 63
v -61 80 61
v 63 80 61
v -63 80 -63
v -61 80 -63

# faces
f 3/2/1 2/2/1 1/2/1
f 4/2/1 2/2/1 3/2/1
f 5/2/1 3/2/1 1/2/1
f 7/2/1 5/2/1 1/2/1
f 7/2/1 6/2/1 5/2/1
f 8/2/1 6/2/1 7/2/1
f 11/2/1 10/2/1 9/2/1
f 12/2/1 10/2/1 11/2/1
f 13/1/1 12/1/1 11/1/1
f 14/1/1 12/1/1 13/1/1
f 15/2/2 16/2/2 17/2/2
f 15/2/2 17/2/2 18/2/2
f 18/2/2 19/2/2 20/2/2
f 20/2/2 19/2/2 21/2/2
f 18/2/2 20/2/2 22/2/2
f 15/2/2 18/2/2 24/2/2
f 22/2/2 23/2/2 24/2/2
f 18/2/2 22/2/2 24/2/2
f 24/2/2 23/2/2 25/2/2
f 26/2/2 27/2/2 28/2/2
f 28/2/2 27/2/2 29/2/2
f 30/2/2 31/2/2 32/2/2
f 32/2/2 31/2/2 33/2/2
f 30/2/2 32/2/2 34/2/2
f 32/1/2 33/1/2 34/1/2
f 34/1/2 33/1/2 35/1/2
f 30/2/2 34/2/2 36/2/2
f 36/2/2 34/2/2 37/2/2
f 38/2/2 39/2/2 40/2/2
f 40/2/2 39/2/2 41/2/2
f 44/2/3 43/2/3 42/2/3
f 45/2/3 43/2/3 44/2/3
f 46/2/3 44/2/3 42/2/3
f 47/2/3 44/2/3 46/2/3
f 48/2/3 43/2/3 45/2/3
f 49/2/3 43/2/3 48/2/3
f 53/2/3 51/2/3 50/2/3
f 54/1/3 52/1/3 51/1/3
f 54/2/3 51/2/3 53/2/3
f 55/1/3 52/1/3 54/1/3
f 56/2/4 57/2/4 58/2/4
f 58/2/4 57/2/4 59/2/4
f 59/2/4 57/2/4 60/2/4
f 60/2/4 57/2/4 61/2/4
f 61/2/4 57/2/4 62/2/4
f 60/2/4 61/2/4 63/2/4
f 63/2/4 61/2/4 64/2/4
f 62/2/4 57/2/4 65/2/4
f 65/2/4 57/2/4 66/2/4
f 67/2/4 68/2/4 69/2/4
f 69/2/4 68/2/4 70/2/4
f 71/2/4 72/2/4 75/2/4
f 75/2/4 72/2/4 76/2/4
f 76/2/4 72/2/4 77/2/4
f 73/2/4 74/2/4 78/2/4
f 78/2/4 74/2/4 79/2/4
f 71/2/4 75/2/4 80/2/4
f 75/1/4 76/1/4 81/1/4
f 80/2/4 75/2/4 81/2/4
f 81/1/4 76/1/4 82/1/4
f 85/2/5 84/2/5 83/2/5
f 86/2/5 84/2/5 85/2/5
f 87/2/5 85/2/5 83/2/5
f 88/2/5 84/2/5 86/2/5
f 89/2/5 87/2/5 83/2/5
f 89/2/5 88/2/5 87/2/5
f 90/2/5 84/2/5 88/2/5
f 90/2/5 88/2/5 89/2/5
f 93/2/5 92/2/5 91/2/5
f 94/2/5 92/2/5 93/2/5
f 97/2/5 96/2/5 95/2/5
f 98/2/5 96/2/5 97/2/5
f 99/1/6 100/1/6 102/1/6
f 101/1/6 102/1/6 103/1/6
f 102/1/6 100/1/6 104/1/6
f 103/1/6 102/1/6 104/1/6
f 105/2/6 106/2/6 107/2/6
f 107/2/6 106/2/6 108/2/6
f 109/2/6 110/2/6 111/2/6
f 111/2/6 110/2/6 112/2/6
f 113/2/6 114/2/6 115/2/6
f 115/2/6 114/2/6 116/2/6
f 113/2/6 115/2/6 117/2/6
f 117/2/6 115/2/6 118/2/6
