# MagicaVoxel @ Ephtracy

# group
g 4x2 third (1)-2

# material
mtllib 4x2 third (1)-2.mtl
usemtl palette

# normals
vn -1 0 0
vn 1 0 0
vn 0 0 1
vn 0 0 -1
vn 0 -1 0
vn 0 1 0

# texcoords
vt 0.0332031 0.5
vt 0.0371094 0.5
vt 0.962891 0.5
vt 0.966797 0.5
vt 0.974609 0.5
vt 0.982422 0.5

# verts
v -63 0 63
v -63 0 -63
v -63 2 63
v -63 2 -61
v -63 3 63
v -63 3 -61
v -63 80 -61
v -63 80 -63
v 61 27 3
v 61 27 -8
v 61 32 1
v 61 32 -5
v 61 33 -6
v 61 33 -7
v 61 34 1
v 61 34 -5
v 61 34 -6
v 61 34 -7
v 61 35 3
v 61 35 -8
v 62 3 63
v 62 3 28
v 62 3 26
v 62 3 2
v 62 3 -0
v 62 3 -1
v 62 3 -3
v 62 3 -4
v 62 3 -12
v 62 3 -42
v 62 3 -61
v 62 4 -0
v 62 4 -1
v 62 4 -3
v 62 4 -4
v 62 5 1
v 62 5 -3
v 62 6 2
v 62 6 1
v 62 8 26
v 62 8 25
v 62 8 2
v 62 8 1
v 62 11 13
v 62 11 11
v 62 11 5
v 62 11 2
v 62 12 1
v 62 12 -3
v 62 13 25
v 62 13 22
v 62 13 18
v 62 13 13
v 62 15 15
v 62 15 14
v 62 16 22
v 62 16 18
v 62 17 15
v 62 17 14
v 62 18 11
v 62 18 5
v 62 27 3
v 62 27 -8
v 62 35 3
v 62 35 -8
v 62 43 -12
v 62 43 -42
v 62 80 63
v 62 80 -61
v 63 0 63
v 63 0 -63
v 63 2 26
v 63 2 2
v 63 2 -0
v 63 2 -1
v 63 2 -12
v 63 2 -42
v 63 3 -3
v 63 3 -4
v 63 3 -12
v 63 3 -42
v 63 4 -0
v 63 4 -1
v 63 4 -3
v 63 4 -4
v 63 5 1
v 63 5 -3
v 63 6 2
v 63 6 1
v 63 8 26
v 63 8 25
v 63 8 2
v 63 8 1
v 63 11 13
v 63 11 11
v 63 11 5
v 63 11 2
v 63 12 1
v 63 12 -3
v 63 13 25
v 63 13 22
v 63 13 18
v 63 13 13
v 63 15 15
v 63 15 14
v 63 16 22
v 63 16 18
v 63 17 15
v 63 17 14
v 63 18 11
v 63 18 5
v 63 43 -12
v 63 43 -42
v 63 80 63
v 63 80 -63
v -63 0 63
v -63 2 63
v -63 3 63
v 62 2 63
v 62 3 63
v 62 80 63
v 63 0 63
v 63 80 63
v 61 27 3
v 61 35 3
v 62 27 3
v 62 35 3
v 62 3 -42
v 62 43 -42
v 63 3 -42
v 63 43 -42
v -63 3 -61
v -63 80 -61
v 62 3 -61
v 62 80 -61
v 61 27 -8
v 61 35 -8
v 62 27 -8
v 62 35 -8
v 62 3 -12
v 62 43 -12
v 63 3 -12
v 63 43 -12
v -63 0 -63
v -63 80 -63
v 63 0 -63
v 63 80 -63
v -63 0 63
v 63 0 63
v -63 0 -63
v 63 0 -63
v 61 27 3
v 62 27 3
v 61 27 -8
v 62 27 -8
v 62 43 -12
v 63 43 -12
v 62 43 -42
v 63 43 -42
v -63 3 63
v 62 3 63
v 45 3 28
v 47 3 28
v 48 3 28
v 62 3 28
v 62 3 26
v 57 3 25
v 61 3 25
v 45 3 24
v 47 3 24
v 48 3 24
v 39 3 23
v 41 3 23
v 56 3 23
v 57 3 23
v 61 3 23
v 39 3 21
v 41 3 21
v 35 3 18
v 45 3 18
v 56 3 18
v 57 3 18
v 47 3 17
v 48 3 17
v 35 3 14
v 45 3 14
v 41 3 12
v 48 3 12
v 36 3 11
v 41 3 11
v 56 3 2
v 62 3 2
v 56 3 1
v 57 3 1
v 61 3 -0
v 62 3 -0
v 56 3 -1
v 57 3 -1
v 61 3 -1
v 62 3 -1
v 36 3 -2
v 41 3 -2
v 56 3 -3
v 58 3 -3
v 62 3 -3
v 62 3 -4
v 41 3 -5
v 51 3 -5
v 51 3 -7
v 58 3 -7
v 62 3 -12
v 63 3 -12
v 62 3 -42
v 63 3 -42
v -63 3 -61
v 62 3 -61
v 61 35 3
v 62 35 3
v 61 35 -8
v 62 35 -8
v 62 80 63
v 63 80 63
v -63 80 -61
v 62 80 -61
v -63 80 -63
v 63 80 -63

# faces
f 3/4/1 2/4/1 1/4/1
f 4/4/1 2/4/1 3/4/1
f 5/1/1 4/1/1 3/1/1
f 6/4/1 2/4/1 4/4/1
f 6/1/1 4/1/1 5/1/1
f 7/4/1 2/4/1 6/4/1
f 8/4/1 2/4/1 7/4/1
f 11/5/1 10/5/1 9/5/1
f 12/5/1 10/5/1 11/5/1
f 13/5/1 10/5/1 12/5/1
f 14/5/1 10/5/1 13/5/1
f 15/5/1 11/5/1 9/5/1
f 15/3/1 12/3/1 11/3/1
f 16/5/1 13/5/1 12/5/1
f 16/3/1 12/3/1 15/3/1
f 17/6/1 14/6/1 13/6/1
f 17/5/1 13/5/1 16/5/1
f 18/5/1 10/5/1 14/5/1
f 18/6/1 14/6/1 17/6/1
f 19/5/1 17/5/1 16/5/1
f 19/5/1 16/5/1 15/5/1
f 19/5/1 18/5/1 17/5/1
f 19/5/1 15/5/1 9/5/1
f 20/5/1 10/5/1 18/5/1
f 20/5/1 18/5/1 19/5/1
f 32/4/1 25/4/1 24/4/1
f 32/2/1 26/2/1 25/2/1
f 33/4/1 27/4/1 26/4/1
f 33/2/1 26/2/1 32/2/1
f 34/2/1 28/2/1 27/2/1
f 34/4/1 27/4/1 33/4/1
f 35/4/1 29/4/1 28/4/1
f 35/2/1 28/2/1 34/2/1
f 36/4/1 34/4/1 33/4/1
f 36/4/1 32/4/1 24/4/1
f 36/4/1 35/4/1 34/4/1
f 36/4/1 33/4/1 32/4/1
f 37/4/1 35/4/1 36/4/1
f 38/2/1 24/2/1 23/2/1
f 38/4/1 36/4/1 24/4/1
f 39/2/1 37/2/1 36/2/1
f 39/4/1 36/4/1 38/4/1
f 40/4/1 22/4/1 21/4/1
f 40/4/1 23/4/1 22/4/1
f 40/2/1 39/2/1 38/2/1
f 40/2/1 38/2/1 23/2/1
f 41/2/1 39/2/1 40/2/1
f 42/2/1 39/2/1 41/2/1
f 43/2/1 37/2/1 39/2/1
f 43/2/1 39/2/1 42/2/1
f 44/2/1 42/2/1 41/2/1
f 45/2/1 42/2/1 44/2/1
f 46/2/1 42/2/1 45/2/1
f 47/4/1 43/4/1 42/4/1
f 47/2/1 42/2/1 46/2/1
f 48/2/1 37/2/1 43/2/1
f 48/4/1 43/4/1 47/4/1
f 48/4/1 47/4/1 46/4/1
f 49/4/1 35/4/1 37/4/1
f 49/2/1 37/2/1 48/2/1
f 50/4/1 41/4/1 40/4/1
f 50/2/1 44/2/1 41/2/1
f 51/2/1 44/2/1 50/2/1
f 52/2/1 44/2/1 51/2/1
f 53/4/1 45/4/1 44/4/1
f 53/2/1 44/2/1 52/2/1
f 54/4/1 53/4/1 52/4/1
f 55/4/1 53/4/1 54/4/1
f 56/2/1 52/2/1 51/2/1
f 56/4/1 51/4/1 50/4/1
f 57/4/1 54/4/1 52/4/1
f 57/2/1 52/2/1 56/2/1
f 58/2/1 55/2/1 54/2/1
f 58/4/1 54/4/1 57/4/1
f 58/4/1 57/4/1 56/4/1
f 59/4/1 53/4/1 55/4/1
f 59/2/1 55/2/1 58/2/1
f 60/2/1 46/2/1 45/2/1
f 60/4/1 53/4/1 59/4/1
f 60/4/1 59/4/1 58/4/1
f 60/4/1 45/4/1 53/4/1
f 61/4/1 48/4/1 46/4/1
f 61/2/1 46/2/1 60/2/1
f 61/4/1 49/4/1 48/4/1
f 62/4/1 61/4/1 60/4/1
f 62/4/1 49/4/1 61/4/1
f 63/4/1 29/4/1 35/4/1
f 63/4/1 49/4/1 62/4/1
f 63/4/1 35/4/1 49/4/1
f 64/4/1 62/4/1 60/4/1
f 65/4/1 29/4/1 63/4/1
f 66/4/1 29/4/1 65/4/1
f 66/4/1 65/4/1 64/4/1
f 67/4/1 31/4/1 30/4/1
f 68/4/1 58/4/1 56/4/1
f 68/4/1 67/4/1 66/4/1
f 68/4/1 64/4/1 60/4/1
f 68/4/1 60/4/1 58/4/1
f 68/4/1 66/4/1 64/4/1
f 68/4/1 56/4/1 50/4/1
f 68/4/1 50/4/1 40/4/1
f 68/4/1 40/4/1 21/4/1
f 69/4/1 31/4/1 67/4/1
f 69/4/1 67/4/1 68/4/1
f 70/4/2 71/4/2 72/4/2
f 72/4/2 71/4/2 73/4/2
f 73/4/2 71/4/2 74/4/2
f 74/4/2 71/4/2 75/4/2
f 75/4/2 71/4/2 76/4/2
f 76/4/2 71/4/2 77/4/2
f 75/4/2 76/4/2 78/4/2
f 78/4/2 76/4/2 79/4/2
f 76/1/2 77/1/2 80/1/2
f 79/4/2 76/4/2 80/4/2
f 77/4/2 71/4/2 81/4/2
f 80/1/2 77/1/2 81/1/2
f 73/4/2 74/4/2 82/4/2
f 74/2/2 75/2/2 82/2/2
f 75/4/2 78/4/2 83/4/2
f 82/2/2 75/2/2 83/2/2
f 78/2/2 79/2/2 84/2/2
f 83/4/2 78/4/2 84/4/2
f 79/4/2 80/4/2 85/4/2
f 84/2/2 79/2/2 85/2/2
f 73/4/2 82/4/2 86/4/2
f 83/4/2 84/4/2 86/4/2
f 84/4/2 85/4/2 86/4/2
f 82/4/2 83/4/2 86/4/2
f 86/4/2 85/4/2 87/4/2
f 72/2/2 73/2/2 88/2/2
f 73/4/2 86/4/2 88/4/2
f 86/2/2 87/2/2 89/2/2
f 88/4/2 86/4/2 89/4/2
f 70/4/2 72/4/2 90/4/2
f 72/2/2 88/2/2 90/2/2
f 88/2/2 89/2/2 90/2/2
f 90/2/2 89/2/2 91/2/2
f 91/2/2 89/2/2 92/2/2
f 89/2/2 87/2/2 93/2/2
f 92/2/2 89/2/2 93/2/2
f 91/2/2 92/2/2 94/2/2
f 94/2/2 92/2/2 95/2/2
f 95/2/2 92/2/2 96/2/2
f 92/4/2 93/4/2 97/4/2
f 96/2/2 92/2/2 97/2/2
f 93/2/2 87/2/2 98/2/2
f 97/4/2 93/4/2 98/4/2
f 96/4/2 97/4/2 98/4/2
f 87/4/2 85/4/2 99/4/2
f 98/2/2 87/2/2 99/2/2
f 90/4/2 91/4/2 100/4/2
f 91/2/2 94/2/2 100/2/2
f 100/2/2 94/2/2 101/2/2
f 101/2/2 94/2/2 102/2/2
f 94/4/2 95/4/2 103/4/2
f 102/2/2 94/2/2 103/2/2
f 102/4/2 103/4/2 104/4/2
f 104/4/2 103/4/2 105/4/2
f 101/2/2 102/2/2 106/2/2
f 100/4/2 101/4/2 106/4/2
f 102/4/2 104/4/2 107/4/2
f 106/2/2 102/2/2 107/2/2
f 104/2/2 105/2/2 108/2/2
f 107/4/2 104/4/2 108/4/2
f 106/4/2 107/4/2 108/4/2
f 105/4/2 103/4/2 109/4/2
f 108/2/2 105/2/2 109/2/2
f 95/2/2 96/2/2 110/2/2
f 109/4/2 103/4/2 110/4/2
f 108/4/2 109/4/2 110/4/2
f 103/4/2 95/4/2 110/4/2
f 96/4/2 98/4/2 111/4/2
f 110/2/2 96/2/2 111/2/2
f 98/4/2 99/4/2 111/4/2
f 85/4/2 80/4/2 112/4/2
f 111/4/2 99/4/2 112/4/2
f 110/4/2 111/4/2 112/4/2
f 99/4/2 85/4/2 112/4/2
f 81/4/2 71/4/2 113/4/2
f 106/4/2 108/4/2 114/4/2
f 112/4/2 113/4/2 114/4/2
f 108/4/2 110/4/2 114/4/2
f 110/4/2 112/4/2 114/4/2
f 100/4/2 106/4/2 114/4/2
f 70/4/2 90/4/2 114/4/2
f 90/4/2 100/4/2 114/4/2
f 113/4/2 71/4/2 115/4/2
f 114/4/2 113/4/2 115/4/2
f 119/4/3 117/4/3 116/4/3
f 119/1/3 118/1/3 117/1/3
f 120/1/3 118/1/3 119/1/3
f 122/4/3 119/4/3 116/4/3
f 122/4/3 121/4/3 120/4/3
f 122/4/3 120/4/3 119/4/3
f 123/4/3 121/4/3 122/4/3
f 126/5/3 125/5/3 124/5/3
f 127/5/3 125/5/3 126/5/3
f 130/4/3 129/4/3 128/4/3
f 131/4/3 129/4/3 130/4/3
f 134/4/3 133/4/3 132/4/3
f 135/4/3 133/4/3 134/4/3
f 136/5/4 137/5/4 138/5/4
f 138/5/4 137/5/4 139/5/4
f 140/4/4 141/4/4 142/4/4
f 142/4/4 141/4/4 143/4/4
f 144/4/4 145/4/4 146/4/4
f 146/4/4 145/4/4 147/4/4
f 150/4/5 149/4/5 148/4/5
f 151/4/5 149/4/5 150/4/5
f 154/5/5 153/5/5 152/5/5
f 155/5/5 153/5/5 154/5/5
f 158/4/5 157/4/5 156/4/5
f 159/4/5 157/4/5 158/4/5
f 160/1/6 161/1/6 162/1/6
f 162/1/6 161/1/6 163/1/6
f 163/1/6 161/1/6 164/1/6
f 164/1/6 161/1/6 165/1/6
f 164/2/6 165/2/6 166/2/6
f 164/2/6 166/2/6 167/2/6
f 167/2/6 166/2/6 168/2/6
f 160/1/6 162/1/6 169/1/6
f 162/2/6 163/2/6 169/2/6
f 163/1/6 164/1/6 170/1/6
f 169/2/6 163/2/6 170/2/6
f 164/2/6 167/2/6 171/2/6
f 170/1/6 164/1/6 171/1/6
f 160/1/6 169/1/6 172/1/6
f 169/1/6 170/1/6 172/1/6
f 172/1/6 170/1/6 173/1/6
f 171/2/6 167/2/6 174/2/6
f 170/2/6 171/2/6 174/2/6
f 167/1/6 168/1/6 175/1/6
f 174/2/6 167/2/6 175/2/6
f 168/2/6 166/2/6 176/2/6
f 175/1/6 168/1/6 176/1/6
f 172/2/6 173/2/6 177/2/6
f 160/1/6 172/1/6 177/1/6
f 173/1/6 170/1/6 178/1/6
f 177/2/6 173/2/6 178/2/6
f 160/1/6 177/1/6 179/1/6
f 177/1/6 178/1/6 179/1/6
f 178/1/6 170/1/6 180/1/6
f 179/1/6 178/1/6 180/1/6
f 174/1/6 175/1/6 181/1/6
f 170/2/6 174/2/6 181/2/6
f 175/2/6 176/2/6 182/2/6
f 181/1/6 175/1/6 182/1/6
f 180/1/6 170/1/6 183/1/6
f 170/2/6 181/2/6 183/2/6
f 181/2/6 182/2/6 183/2/6
f 183/2/6 182/2/6 184/2/6
f 179/2/6 180/2/6 185/2/6
f 160/1/6 179/1/6 185/1/6
f 183/1/6 184/1/6 186/1/6
f 185/2/6 180/2/6 186/2/6
f 180/1/6 183/1/6 186/1/6
f 185/1/6 186/1/6 187/1/6
f 184/2/6 182/2/6 188/2/6
f 187/1/6 186/1/6 188/1/6
f 186/1/6 184/1/6 188/1/6
f 185/1/6 187/1/6 189/1/6
f 187/2/6 188/2/6 190/2/6
f 189/1/6 187/1/6 190/1/6
f 188/2/6 182/2/6 191/2/6
f 190/2/6 188/2/6 191/2/6
f 189/2/6 190/2/6 191/2/6
f 182/2/6 176/2/6 192/2/6
f 191/2/6 182/2/6 192/2/6
f 176/2/6 166/2/6 192/2/6
f 189/2/6 191/2/6 193/2/6
f 191/1/6 192/1/6 193/1/6
f 193/1/6 192/1/6 194/1/6
f 194/1/6 192/1/6 195/1/6
f 195/1/6 192/1/6 196/1/6
f 189/2/6 193/2/6 197/2/6
f 193/2/6 194/2/6 197/2/6
f 194/1/6 195/1/6 198/1/6
f 197/2/6 194/2/6 198/2/6
f 195/2/6 196/2/6 199/2/6
f 198/1/6 195/1/6 199/1/6
f 199/2/6 196/2/6 200/2/6
f 185/1/6 189/1/6 201/1/6
f 189/2/6 197/2/6 201/2/6
f 201/2/6 197/2/6 202/2/6
f 197/1/6 198/1/6 203/1/6
f 202/2/6 197/2/6 203/2/6
f 199/1/6 200/1/6 203/1/6
f 198/1/6 199/1/6 203/1/6
f 203/1/6 200/1/6 204/1/6
f 204/1/6 200/1/6 205/1/6
f 204/1/6 205/1/6 206/1/6
f 201/1/6 202/1/6 207/1/6
f 202/2/6 203/2/6 207/2/6
f 203/2/6 204/2/6 207/2/6
f 207/2/6 204/2/6 208/2/6
f 207/1/6 208/1/6 209/1/6
f 208/2/6 204/2/6 209/2/6
f 204/1/6 206/1/6 210/1/6
f 209/2/6 204/2/6 210/2/6
f 209/1/6 210/1/6 211/1/6
f 210/1/6 206/1/6 211/1/6
f 209/1/6 211/1/6 213/1/6
f 211/1/6 212/1/6 213/1/6
f 213/1/6 212/1/6 214/1/6
f 185/1/6 201/1/6 215/1/6
f 201/1/6 207/1/6 215/1/6
f 209/1/6 213/1/6 215/1/6
f 207/1/6 209/1/6 215/1/6
f 160/1/6 185/1/6 215/1/6
f 215/1/6 213/1/6 216/1/6
f 217/5/6 218/5/6 219/5/6
f 219/5/6 218/5/6 220/5/6
f 221/4/6 222/4/6 224/4/6
f 223/4/6 224/4/6 225/4/6
f 224/4/6 222/4/6 226/4/6
f 225/4/6 224/4/6 226/4/6
