# MagicaVoxel @ Ephtracy

# group
g 4x2 third (1)-0

# material
mtllib 4x2 third (1)-0.mtl
usemtl palette

# normals
vn -1 0 0
vn 1 0 0
vn 0 0 1
vn 0 0 -1
vn 0 -1 0
vn 0 1 0

# texcoords
vt 0.0332031 0.5
vt 0.966797 0.5

# verts
v -63 0 63
v -63 0 -63
v -63 7 63
v -63 7 -34
v -63 70 63
v -63 70 -34
v -63 80 63
v -63 80 -63
v -61 3 63
v -61 3 -61
v -61 7 63
v -61 7 -34
v -61 70 63
v -61 70 -34
v -61 80 63
v -61 80 -61
v 63 0 63
v 63 0 -63
v 63 2 63
v 63 2 -61
v 63 3 63
v 63 3 -61
v 63 80 -61
v 63 80 -63
v -63 0 63
v -63 7 63
v -63 70 63
v -63 80 63
v -61 2 63
v -61 3 63
v -61 7 63
v -61 70 63
v -61 80 63
v 63 0 63
v 63 2 63
v 63 3 63
v -63 7 -34
v -63 70 -34
v -61 7 -34
v -61 70 -34
v -61 3 -61
v -61 80 -61
v 63 3 -61
v 63 80 -61
v -63 0 -63
v -63 80 -63
v 63 0 -63
v 63 80 -63
v -63 0 63
v 63 0 63
v -63 0 -63
v 63 0 -63
v -63 70 63
v -61 70 63
v -63 70 -34
v -61 70 -34
v -61 3 63
v 63 3 63
v -61 3 -61
v 63 3 -61
v -63 7 63
v -61 7 63
v -63 7 -34
v -61 7 -34
v -63 80 63
v -61 80 63
v -61 80 -61
v 63 80 -61
v -63 80 -63
v 63 80 -63

# faces
f 3/2/1 2/2/1 1/2/1
f 4/2/1 2/2/1 3/2/1
f 6/2/1 2/2/1 4/2/1
f 7/2/1 6/2/1 5/2/1
f 8/2/1 2/2/1 6/2/1
f 8/2/1 6/2/1 7/2/1
f 9/2/2 10/2/2 11/2/2
f 11/2/2 10/2/2 12/2/2
f 12/2/2 10/2/2 14/2/2
f 13/2/2 14/2/2 15/2/2
f 14/2/2 10/2/2 16/2/2
f 15/2/2 14/2/2 16/2/2
f 17/2/2 18/2/2 19/2/2
f 19/2/2 18/2/2 20/2/2
f 19/1/2 20/1/2 21/1/2
f 20/2/2 18/2/2 22/2/2
f 21/1/2 20/1/2 22/1/2
f 22/2/2 18/2/2 23/2/2
f 23/2/2 18/2/2 24/2/2
f 29/2/3 26/2/3 25/2/3
f 30/2/3 26/2/3 29/2/3
f 31/2/3 26/2/3 30/2/3
f 32/2/3 28/2/3 27/2/3
f 33/2/3 28/2/3 32/2/3
f 34/2/3 29/2/3 25/2/3
f 35/1/3 30/1/3 29/1/3
f 35/2/3 29/2/3 34/2/3
f 36/1/3 30/1/3 35/1/3
f 39/2/3 38/2/3 37/2/3
f 40/2/3 38/2/3 39/2/3
f 43/2/3 42/2/3 41/2/3
f 44/2/3 42/2/3 43/2/3
f 45/2/4 46/2/4 47/2/4
f 47/2/4 46/2/4 48/2/4
f 51/2/5 50/2/5 49/2/5
f 52/2/5 50/2/5 51/2/5
f 55/2/5 54/2/5 53/2/5
f 56/2/5 54/2/5 55/2/5
f 57/1/6 58/1/6 59/1/6
f 59/1/6 58/1/6 60/1/6
f 61/2/6 62/2/6 63/2/6
f 63/2/6 62/2/6 64/2/6
f 65/2/6 66/2/6 67/2/6
f 65/2/6 67/2/6 69/2/6
f 67/2/6 68/2/6 69/2/6
f 69/2/6 68/2/6 70/2/6
