# MagicaVoxel @ Ephtracy

# group
g 4x2 first (1)-5

# material
mtllib 4x2 first (1)-5.mtl
usemtl palette

# normals
vn -1 0 0
vn 1 0 0
vn 0 0 1
vn 0 0 -1
vn 0 -1 0
vn 0 1 0

# texcoords
vt 0.966797 0.5
vt 0.970703 0.5
vt 0.982422 0.5
vt 0.986328 0.5

# verts
v -63 0 63
v -63 0 -63
v -63 80 63
v -63 80 -63
v -7 30 63
v -7 30 61
v -7 60 63
v -7 60 61
v -2 4 -62
v -2 4 -63
v -2 44 -62
v -2 44 -63
v -62 4 61
v -62 4 -62
v -62 80 61
v -62 80 -62
v -42 30 63
v -42 30 61
v -42 60 63
v -42 60 61
v -32 4 -62
v -32 4 -63
v -32 44 -62
v -32 44 -63
v 37 30 63
v 37 30 61
v 37 43 63
v 37 43 62
v 37 60 63
v 37 60 62
v 37 60 61
v 63 0 63
v 63 0 -63
v 63 3 61
v 63 3 -62
v 63 4 61
v 63 4 -62
v 63 30 63
v 63 30 61
v 63 60 63
v 63 60 61
v 63 80 63
v 63 80 61
v 63 80 -62
v 63 80 -63
v -63 0 63
v -63 80 63
v -42 30 63
v -42 60 63
v -7 30 63
v -7 60 63
v 15 57 63
v 15 60 63
v 16 49 63
v 16 57 63
v 16 64 63
v 16 65 63
v 17 64 63
v 17 65 63
v 21 32 63
v 21 40 63
v 22 58 63
v 22 60 63
v 23 36 63
v 23 40 63
v 24 32 63
v 24 36 63
v 24 65 63
v 24 72 63
v 25 49 63
v 25 50 63
v 25 72 63
v 25 73 63
v 26 47 63
v 26 50 63
v 28 32 63
v 28 33 63
v 28 38 63
v 28 44 63
v 29 32 63
v 29 33 63
v 29 58 63
v 29 65 63
v 29 72 63
v 29 73 63
v 30 44 63
v 30 47 63
v 32 75 63
v 32 77 63
v 33 38 63
v 33 43 63
v 33 70 63
v 33 72 63
v 33 75 63
v 33 77 63
v 37 30 63
v 37 43 63
v 37 60 63
v 42 70 63
v 42 71 63
v 49 70 63
v 49 71 63
v 50 60 63
v 50 64 63
v 50 68 63
v 50 70 63
v 52 62 63
v 52 64 63
v 53 64 63
v 53 68 63
v 53 71 63
v 54 62 63
v 54 64 63
v 55 63 63
v 55 64 63
v 56 63 63
v 56 64 63
v 57 68 63
v 57 71 63
v 63 0 63
v 63 30 63
v 63 60 63
v 63 80 63
v -62 4 -62
v -62 80 -62
v -32 4 -62
v -32 44 -62
v -2 4 -62
v -2 44 -62
v 28 4 -62
v 28 9 -62
v 52 4 -62
v 52 9 -62
v 63 4 -62
v 63 80 -62
v -62 4 61
v -62 80 61
v -42 30 61
v -42 60 61
v -7 30 61
v -7 60 61
v 37 30 61
v 37 60 61
v 63 4 61
v 63 30 61
v 63 60 61
v 63 80 61
v -63 0 -63
v -63 80 -63
v -32 3 -63
v -32 4 -63
v -32 44 -63
v -2 3 -63
v -2 4 -63
v -2 44 -63
v 28 3 -63
v 28 9 -63
v 52 3 -63
v 52 9 -63
v 63 0 -63
v 63 80 -63
v -63 0 63
v 63 0 63
v -63 0 -63
v 63 0 -63
v -32 44 -62
v -2 44 -62
v -32 44 -63
v -2 44 -63
v -42 60 63
v -7 60 63
v 37 60 63
v 50 60 63
v 63 60 63
v 37 60 62
v 50 60 62
v -42 60 61
v -7 60 61
v 37 60 61
v 63 60 61
v -62 4 61
v 63 4 61
v 51 4 -17
v 53 4 -17
v 51 4 -19
v 53 4 -19
v 41 4 -20
v 45 4 -20
v 38 4 -25
v 41 4 -25
v 42 4 -25
v 45 4 -25
v 38 4 -29
v 42 4 -29
v 21 4 -30
v 24 4 -30
v 24 4 -32
v 27 4 -32
v 21 4 -33
v 23 4 -33
v 27 4 -33
v 34 4 -33
v 22 4 -34
v 23 4 -34
v 34 4 -34
v 52 4 -34
v 60 4 -36
v 62 4 -36
v 19 4 -39
v 21 4 -39
v 60 4 -39
v 62 4 -39
v 21 4 -42
v 22 4 -42
v 53 4 -43
v 54 4 -43
v 19 4 -44
v 20 4 -44
v 53 4 -48
v 54 4 -48
v 57 4 -49
v 60 4 -49
v 17 4 -51
v 20 4 -51
v 26 4 -51
v 28 4 -51
v 57 4 -51
v 60 4 -51
v 17 4 -53
v 20 4 -53
v 20 4 -55
v 26 4 -55
v -62 4 -62
v -32 4 -62
v -2 4 -62
v 28 4 -62
v 52 4 -62
v 63 4 -62
v -32 4 -63
v -2 4 -63
v -42 30 63
v -7 30 63
v 37 30 63
v 63 30 63
v -42 30 61
v -7 30 61
v 37 30 61
v 63 30 61
v -63 80 63
v 63 80 63
v -62 80 61
v 63 80 61
v -62 80 -62
v 63 80 -62
v -63 80 -63
v 63 80 -63

# faces
f 3/1/1 2/1/1 1/1/1
f 4/1/1 2/1/1 3/1/1
f 7/1/1 6/1/1 5/1/1
f 8/1/1 6/1/1 7/1/1
f 11/1/1 10/1/1 9/1/1
f 12/1/1 10/1/1 11/1/1
f 13/1/2 14/1/2 15/1/2
f 15/1/2 14/1/2 16/1/2
f 17/1/2 18/1/2 19/1/2
f 19/1/2 18/1/2 20/1/2
f 21/1/2 22/1/2 23/1/2
f 23/1/2 22/1/2 24/1/2
f 25/1/2 26/1/2 27/1/2
f 27/1/2 26/1/2 28/1/2
f 27/2/2 28/2/2 29/2/2
f 28/1/2 26/1/2 30/1/2
f 29/2/2 28/2/2 30/2/2
f 30/1/2 26/1/2 31/1/2
f 32/1/2 33/1/2 34/1/2
f 34/1/2 33/1/2 35/1/2
f 32/1/2 34/1/2 36/1/2
f 34/3/2 35/3/2 36/3/2
f 35/1/2 33/1/2 37/1/2
f 36/3/2 35/3/2 37/3/2
f 32/1/2 36/1/2 38/1/2
f 38/1/2 36/1/2 39/1/2
f 40/1/2 41/1/2 42/1/2
f 42/1/2 41/1/2 43/1/2
f 37/1/2 33/1/2 44/1/2
f 44/1/2 33/1/2 45/1/2
f 48/1/3 47/1/3 46/1/3
f 49/1/3 47/1/3 48/1/3
f 50/1/3 48/1/3 46/1/3
f 51/1/3 47/1/3 49/1/3
f 52/1/3 51/1/3 50/1/3
f 53/1/3 47/1/3 51/1/3
f 53/1/3 51/1/3 52/1/3
f 54/1/3 52/1/3 50/1/3
f 55/2/3 53/2/3 52/2/3
f 55/1/3 52/1/3 54/1/3
f 56/1/3 47/1/3 53/1/3
f 57/1/3 47/1/3 56/1/3
f 58/1/3 56/1/3 53/1/3
f 58/2/3 57/2/3 56/2/3
f 59/1/3 47/1/3 57/1/3
f 59/2/3 57/2/3 58/2/3
f 60/1/3 54/1/3 50/1/3
f 61/1/3 54/1/3 60/1/3
f 62/2/3 53/2/3 55/2/3
f 62/2/3 55/2/3 54/2/3
f 63/1/3 58/1/3 53/1/3
f 63/2/3 53/2/3 62/2/3
f 63/1/3 59/1/3 58/1/3
f 64/2/3 61/2/3 60/2/3
f 65/1/3 54/1/3 61/1/3
f 65/2/3 61/2/3 64/2/3
f 66/2/3 64/2/3 60/2/3
f 66/1/3 60/1/3 50/1/3
f 67/1/3 65/1/3 64/1/3
f 67/2/3 64/2/3 66/2/3
f 68/1/3 47/1/3 59/1/3
f 68/1/3 59/1/3 63/1/3
f 68/1/3 63/1/3 62/1/3
f 69/1/3 47/1/3 68/1/3
f 70/1/3 54/1/3 65/1/3
f 70/1/3 65/1/3 67/1/3
f 70/1/3 67/1/3 66/1/3
f 70/2/3 62/2/3 54/2/3
f 71/2/3 62/2/3 70/2/3
f 72/1/3 47/1/3 69/1/3
f 72/2/3 69/2/3 68/2/3
f 73/1/3 47/1/3 72/1/3
f 74/1/3 71/1/3 70/1/3
f 74/1/3 70/1/3 66/1/3
f 75/2/3 62/2/3 71/2/3
f 75/1/3 71/1/3 74/1/3
f 76/1/3 74/1/3 66/1/3
f 76/1/3 66/1/3 50/1/3
f 77/1/3 74/1/3 76/1/3
f 78/1/3 74/1/3 77/1/3
f 79/1/3 74/1/3 78/1/3
f 80/1/3 76/1/3 50/1/3
f 80/2/3 77/2/3 76/2/3
f 81/1/3 78/1/3 77/1/3
f 81/2/3 77/2/3 80/2/3
f 82/2/3 62/2/3 75/2/3
f 82/1/3 68/1/3 62/1/3
f 82/2/3 75/2/3 74/2/3
f 83/2/3 73/2/3 72/2/3
f 83/1/3 68/1/3 82/1/3
f 83/2/3 72/2/3 68/2/3
f 84/2/3 73/2/3 83/2/3
f 85/1/3 47/1/3 73/1/3
f 85/2/3 73/2/3 84/2/3
f 86/2/3 79/2/3 78/2/3
f 86/1/3 74/1/3 79/1/3
f 87/2/3 84/2/3 83/2/3
f 87/1/3 74/1/3 86/1/3
f 87/2/3 82/2/3 74/2/3
f 87/2/3 83/2/3 82/2/3
f 88/1/3 85/1/3 84/1/3
f 88/1/3 47/1/3 85/1/3
f 89/1/3 47/1/3 88/1/3
f 90/1/3 78/1/3 81/1/3
f 90/2/3 86/2/3 78/2/3
f 90/1/3 81/1/3 80/1/3
f 90/2/3 87/2/3 86/2/3
f 91/2/3 87/2/3 90/2/3
f 92/2/3 84/2/3 87/2/3
f 92/2/3 87/2/3 91/2/3
f 93/1/3 88/1/3 84/1/3
f 93/2/3 84/2/3 92/2/3
f 94/2/3 89/2/3 88/2/3
f 94/1/3 88/1/3 93/1/3
f 95/1/3 47/1/3 89/1/3
f 95/2/3 89/2/3 94/2/3
f 96/1/3 50/1/3 46/1/3
f 96/1/3 80/1/3 50/1/3
f 96/1/3 91/1/3 90/1/3
f 96/1/3 90/1/3 80/1/3
f 97/2/3 92/2/3 91/2/3
f 97/1/3 91/1/3 96/1/3
f 98/2/3 92/2/3 97/2/3
f 99/1/3 94/1/3 93/1/3
f 99/2/3 92/2/3 98/2/3
f 99/1/3 95/1/3 94/1/3
f 99/1/3 93/1/3 92/1/3
f 100/1/3 95/1/3 99/1/3
f 101/2/3 99/2/3 98/2/3
f 101/2/3 100/2/3 99/2/3
f 102/1/3 95/1/3 100/1/3
f 102/2/3 100/2/3 101/2/3
f 103/2/3 101/2/3 98/2/3
f 104/2/3 101/2/3 103/2/3
f 105/2/3 101/2/3 104/2/3
f 106/1/3 102/1/3 101/1/3
f 106/2/3 101/2/3 105/2/3
f 107/1/3 104/1/3 103/1/3
f 108/2/3 105/2/3 104/2/3
f 108/1/3 104/1/3 107/1/3
f 109/2/3 108/2/3 107/2/3
f 109/2/3 105/2/3 108/2/3
f 110/1/3 106/1/3 105/1/3
f 110/2/3 105/2/3 109/2/3
f 111/1/3 95/1/3 102/1/3
f 111/1/3 106/1/3 110/1/3
f 111/1/3 102/1/3 106/1/3
f 112/1/3 107/1/3 103/1/3
f 112/2/3 109/2/3 107/2/3
f 113/1/3 110/1/3 109/1/3
f 113/2/3 109/2/3 112/2/3
f 114/1/3 113/1/3 112/1/3
f 115/1/3 110/1/3 113/1/3
f 115/1/3 113/1/3 114/1/3
f 116/1/3 114/1/3 112/1/3
f 116/2/3 115/2/3 114/2/3
f 117/1/3 110/1/3 115/1/3
f 117/2/3 115/2/3 116/2/3
f 118/2/3 111/2/3 110/2/3
f 118/1/3 110/1/3 117/1/3
f 118/1/3 117/1/3 116/1/3
f 119/1/3 95/1/3 111/1/3
f 119/2/3 111/2/3 118/2/3
f 120/1/3 96/1/3 46/1/3
f 121/1/3 96/1/3 120/1/3
f 122/1/3 112/1/3 103/1/3
f 122/1/3 118/1/3 116/1/3
f 122/1/3 116/1/3 112/1/3
f 122/1/3 119/1/3 118/1/3
f 123/1/3 47/1/3 95/1/3
f 123/1/3 119/1/3 122/1/3
f 123/1/3 95/1/3 119/1/3
f 126/1/3 125/1/3 124/1/3
f 127/1/3 125/1/3 126/1/3
f 129/1/3 125/1/3 127/1/3
f 130/1/3 129/1/3 128/1/3
f 131/1/3 129/1/3 130/1/3
f 132/4/3 131/4/3 130/4/3
f 133/1/3 129/1/3 131/1/3
f 133/4/3 131/4/3 132/4/3
f 134/1/3 133/1/3 132/1/3
f 135/1/3 125/1/3 129/1/3
f 135/1/3 133/1/3 134/1/3
f 135/1/3 129/1/3 133/1/3
f 136/1/4 137/1/4 138/1/4
f 138/1/4 137/1/4 139/1/4
f 136/1/4 138/1/4 140/1/4
f 139/1/4 137/1/4 141/1/4
f 136/1/4 140/1/4 142/1/4
f 140/1/4 141/1/4 142/1/4
f 141/1/4 137/1/4 143/1/4
f 142/1/4 141/1/4 143/1/4
f 136/1/4 142/1/4 144/1/4
f 144/1/4 142/1/4 145/1/4
f 143/1/4 137/1/4 146/1/4
f 146/1/4 137/1/4 147/1/4
f 148/1/4 149/1/4 150/1/4
f 150/1/4 149/1/4 151/1/4
f 151/1/4 149/1/4 152/1/4
f 148/1/4 150/1/4 153/1/4
f 150/3/4 151/3/4 153/3/4
f 153/3/4 151/3/4 154/3/4
f 152/1/4 149/1/4 155/1/4
f 153/1/4 154/1/4 156/1/4
f 154/1/4 155/1/4 156/1/4
f 148/1/4 153/1/4 156/1/4
f 156/1/4 155/1/4 157/1/4
f 148/1/4 156/1/4 158/1/4
f 156/4/4 157/4/4 158/4/4
f 157/1/4 155/1/4 159/1/4
f 158/4/4 157/4/4 159/4/4
f 148/1/4 158/1/4 160/1/4
f 158/1/4 159/1/4 160/1/4
f 155/1/4 149/1/4 161/1/4
f 160/1/4 159/1/4 161/1/4
f 159/1/4 155/1/4 161/1/4
f 164/1/5 163/1/5 162/1/5
f 165/1/5 163/1/5 164/1/5
f 168/1/5 167/1/5 166/1/5
f 169/1/5 167/1/5 168/1/5
f 175/2/5 173/2/5 172/2/5
f 176/1/5 174/1/5 173/1/5
f 176/2/5 173/2/5 175/2/5
f 177/1/5 171/1/5 170/1/5
f 178/1/5 171/1/5 177/1/5
f 179/1/5 176/1/5 175/1/5
f 180/1/5 174/1/5 176/1/5
f 180/1/5 176/1/5 179/1/5
f 181/3/6 182/3/6 183/3/6
f 183/3/6 182/3/6 184/3/6
f 181/3/6 183/3/6 185/3/6
f 183/4/6 184/4/6 185/4/6
f 184/3/6 182/3/6 186/3/6
f 185/4/6 184/4/6 186/4/6
f 181/3/6 185/3/6 187/3/6
f 185/3/6 186/3/6 187/3/6
f 187/3/6 186/3/6 188/3/6
f 181/3/6 187/3/6 189/3/6
f 187/4/6 188/4/6 190/4/6
f 189/3/6 187/3/6 190/3/6
f 190/4/6 188/4/6 191/4/6
f 188/3/6 186/3/6 192/3/6
f 191/4/6 188/4/6 192/4/6
f 190/4/6 191/4/6 193/4/6
f 181/3/6 189/3/6 193/3/6
f 189/4/6 190/4/6 193/4/6
f 191/3/6 192/3/6 194/3/6
f 193/4/6 191/4/6 194/4/6
f 181/3/6 193/3/6 195/3/6
f 193/3/6 194/3/6 195/3/6
f 195/3/6 194/3/6 196/3/6
f 195/4/6 196/4/6 197/4/6
f 196/3/6 194/3/6 197/3/6
f 197/3/6 194/3/6 198/3/6
f 181/3/6 195/3/6 199/3/6
f 195/4/6 197/4/6 199/4/6
f 197/4/6 198/4/6 199/4/6
f 199/4/6 198/4/6 200/4/6
f 198/3/6 194/3/6 201/3/6
f 200/4/6 198/4/6 201/4/6
f 201/3/6 194/3/6 202/3/6
f 199/3/6 200/3/6 203/3/6
f 200/4/6 201/4/6 204/4/6
f 203/3/6 200/3/6 204/3/6
f 201/4/6 202/4/6 204/4/6
f 202/3/6 194/3/6 205/3/6
f 204/4/6 202/4/6 205/4/6
f 192/3/6 186/3/6 206/3/6
f 205/3/6 194/3/6 206/3/6
f 194/3/6 192/3/6 206/3/6
f 186/3/6 182/3/6 207/3/6
f 206/3/6 186/3/6 207/3/6
f 207/3/6 182/3/6 208/3/6
f 199/3/6 203/3/6 209/3/6
f 181/3/6 199/3/6 209/3/6
f 209/3/6 203/3/6 210/3/6
f 207/4/6 208/4/6 211/4/6
f 206/3/6 207/3/6 211/3/6
f 208/3/6 182/3/6 212/3/6
f 211/4/6 208/4/6 212/4/6
f 210/3/6 203/3/6 213/3/6
f 209/4/6 210/4/6 213/4/6
f 205/4/6 206/4/6 214/4/6
f 213/3/6 203/3/6 214/3/6
f 204/4/6 205/4/6 214/4/6
f 203/4/6 204/4/6 214/4/6
f 206/3/6 211/3/6 215/3/6
f 211/3/6 212/3/6 215/3/6
f 215/3/6 212/3/6 216/3/6
f 209/4/6 213/4/6 217/4/6
f 181/3/6 209/3/6 217/3/6
f 213/4/6 214/4/6 217/4/6
f 217/4/6 214/4/6 218/4/6
f 215/4/6 216/4/6 219/4/6
f 206/3/6 215/3/6 219/3/6
f 216/3/6 212/3/6 220/3/6
f 219/4/6 216/4/6 220/4/6
f 219/3/6 220/3/6 221/3/6
f 220/3/6 212/3/6 221/3/6
f 221/3/6 212/3/6 222/3/6
f 217/3/6 218/3/6 223/3/6
f 181/3/6 217/3/6 223/3/6
f 218/4/6 214/4/6 224/4/6
f 223/3/6 218/3/6 224/3/6
f 214/4/6 206/4/6 225/4/6
f 224/4/6 214/4/6 225/4/6
f 225/4/6 206/4/6 226/4/6
f 221/4/6 222/4/6 227/4/6
f 219/3/6 221/3/6 227/3/6
f 222/3/6 212/3/6 228/3/6
f 227/4/6 222/4/6 228/4/6
f 181/3/6 223/3/6 229/3/6
f 223/4/6 224/4/6 229/4/6
f 224/4/6 225/4/6 229/4/6
f 229/4/6 225/4/6 230/4/6
f 229/3/6 230/3/6 231/3/6
f 230/4/6 225/4/6 231/4/6
f 225/3/6 226/3/6 232/3/6
f 231/4/6 225/4/6 232/4/6
f 229/3/6 231/3/6 233/3/6
f 181/3/6 229/3/6 233/3/6
f 231/3/6 232/3/6 233/3/6
f 233/3/6 232/3/6 234/3/6
f 234/3/6 232/3/6 235/3/6
f 226/4/6 206/4/6 236/4/6
f 235/3/6 232/3/6 236/3/6
f 232/3/6 226/3/6 236/3/6
f 206/3/6 219/3/6 237/3/6
f 236/4/6 206/4/6 237/4/6
f 227/3/6 228/3/6 237/3/6
f 219/3/6 227/3/6 237/3/6
f 228/3/6 212/3/6 238/3/6
f 237/3/6 228/3/6 238/3/6
f 212/3/6 182/3/6 238/3/6
f 234/3/6 235/3/6 239/3/6
f 239/3/6 235/3/6 240/3/6
f 241/1/6 242/1/6 245/1/6
f 245/1/6 242/1/6 246/1/6
f 243/1/6 244/1/6 247/1/6
f 247/1/6 244/1/6 248/1/6
f 249/1/6 250/1/6 251/1/6
f 251/1/6 250/1/6 252/1/6
f 249/1/6 251/1/6 253/1/6
f 249/1/6 253/1/6 255/1/6
f 253/1/6 254/1/6 255/1/6
f 255/1/6 254/1/6 256/1/6
