# MagicaVoxel @ Ephtracy

# group
g 4x2 first (1)-2

# material
mtllib 4x2 first (1)-2.mtl
usemtl palette

# normals
vn -1 0 0
vn 1 0 0
vn 0 0 1
vn 0 0 -1
vn 0 -1 0
vn 0 1 0

# texcoords
vt 0.0332031 0.5
vt 0.962891 0.5
vt 0.966797 0.5
vt 0.974609 0.5
vt 0.982422 0.5

# verts
v -63 0 63
v -63 0 -63
v -63 2 63
v -63 2 -61
v -63 3 63
v -63 3 -61
v -63 80 -61
v -63 80 -63
v 61 27 3
v 61 27 -8
v 61 32 1
v 61 32 -5
v 61 33 -6
v 61 33 -7
v 61 34 1
v 61 34 -5
v 61 34 -6
v 61 34 -7
v 61 35 3
v 61 35 -8
v 62 3 63
v 62 3 -12
v 62 3 -42
v 62 3 -61
v 62 27 3
v 62 27 -8
v 62 35 3
v 62 35 -8
v 62 43 -12
v 62 43 -42
v 62 80 63
v 62 80 -61
v 63 0 63
v 63 0 -63
v 63 2 -12
v 63 2 -42
v 63 3 -12
v 63 3 -42
v 63 43 -12
v 63 43 -42
v 63 80 63
v 63 80 -63
v -63 0 63
v -63 2 63
v -63 3 63
v 62 2 63
v 62 3 63
v 62 80 63
v 63 0 63
v 63 80 63
v 61 27 3
v 61 35 3
v 62 27 3
v 62 35 3
v 62 3 -42
v 62 43 -42
v 63 3 -42
v 63 43 -42
v -63 3 -61
v -63 80 -61
v -49 3 -61
v 17 3 -61
v 19 3 -61
v 25 3 -61
v 62 3 -61
v 62 80 -61
v 61 27 -8
v 61 35 -8
v 62 27 -8
v 62 35 -8
v 62 3 -12
v 62 43 -12
v 63 3 -12
v 63 43 -12
v -63 0 -63
v -63 80 -63
v 63 0 -63
v 63 80 -63
v -63 0 63
v 63 0 63
v -63 0 -63
v 63 0 -63
v 61 27 3
v 62 27 3
v 61 27 -8
v 62 27 -8
v 62 43 -12
v 63 43 -12
v 62 43 -42
v 63 43 -42
v -63 3 63
v 62 3 63
v 62 3 -12
v 63 3 -12
v 0 3 -13
v 2 3 -13
v 0 3 -16
v 2 3 -16
v -23 3 -20
v -15 3 -20
v -38 3 -21
v -26 3 -21
v -23 3 -22
v -15 3 -22
v -11 3 -22
v -5 3 -22
v 2 3 -22
v 4 3 -22
v -12 3 -23
v -11 3 -23
v 2 3 -23
v 4 3 -23
v -26 3 -25
v -18 3 -25
v -38 3 -26
v -36 3 -26
v -5 3 -26
v 12 3 -26
v -12 3 -28
v -10 3 -28
v -18 3 -29
v -12 3 -29
v -47 3 -31
v -43 3 -31
v -43 3 -34
v -36 3 -34
v -12 3 -34
v -10 3 -34
v -47 3 -36
v -46 3 -36
v 13 3 -40
v 18 3 -40
v 12 3 -42
v 13 3 -42
v 14 3 -42
v 18 3 -42
v 62 3 -42
v 63 3 -42
v 14 3 -45
v 21 3 -45
v -50 3 -46
v -49 3 -46
v 20 3 -46
v 21 3 -46
v -50 3 -47
v -49 3 -47
v -49 3 -48
v -46 3 -48
v 17 3 -52
v 20 3 -52
v -55 3 -54
v -49 3 -54
v 20 3 -54
v 23 3 -54
v 20 3 -55
v 23 3 -55
v 18 3 -56
v 19 3 -56
v 18 3 -57
v 19 3 -57
v 19 3 -59
v 25 3 -59
v -55 3 -60
v -49 3 -60
v -63 3 -61
v -49 3 -61
v 17 3 -61
v 19 3 -61
v 25 3 -61
v 62 3 -61
v 61 35 3
v 62 35 3
v 61 35 -8
v 62 35 -8
v 62 80 63
v 63 80 63
v -63 80 -61
v 62 80 -61
v -63 80 -63
v 63 80 -63

# faces
f 3/3/1 2/3/1 1/3/1
f 4/3/1 2/3/1 3/3/1
f 5/1/1 4/1/1 3/1/1
f 6/3/1 2/3/1 4/3/1
f 6/1/1 4/1/1 5/1/1
f 7/3/1 2/3/1 6/3/1
f 8/3/1 2/3/1 7/3/1
f 11/4/1 10/4/1 9/4/1
f 12/4/1 10/4/1 11/4/1
f 13/4/1 10/4/1 12/4/1
f 14/4/1 10/4/1 13/4/1
f 15/4/1 11/4/1 9/4/1
f 15/2/1 12/2/1 11/2/1
f 16/4/1 13/4/1 12/4/1
f 16/2/1 12/2/1 15/2/1
f 17/5/1 14/5/1 13/5/1
f 17/4/1 13/4/1 16/4/1
f 18/4/1 10/4/1 14/4/1
f 18/5/1 14/5/1 17/5/1
f 19/4/1 17/4/1 16/4/1
f 19/4/1 16/4/1 15/4/1
f 19/4/1 18/4/1 17/4/1
f 19/4/1 15/4/1 9/4/1
f 20/4/1 10/4/1 18/4/1
f 20/4/1 18/4/1 19/4/1
f 25/3/1 22/3/1 21/3/1
f 26/3/1 22/3/1 25/3/1
f 27/3/1 25/3/1 21/3/1
f 28/3/1 22/3/1 26/3/1
f 29/3/1 22/3/1 28/3/1
f 29/3/1 28/3/1 27/3/1
f 30/3/1 24/3/1 23/3/1
f 31/3/1 29/3/1 27/3/1
f 31/3/1 30/3/1 29/3/1
f 31/3/1 27/3/1 21/3/1
f 32/3/1 24/3/1 30/3/1
f 32/3/1 30/3/1 31/3/1
f 33/3/2 34/3/2 35/3/2
f 35/3/2 34/3/2 36/3/2
f 33/3/2 35/3/2 37/3/2
f 35/1/2 36/1/2 37/1/2
f 36/3/2 34/3/2 38/3/2
f 37/1/2 36/1/2 38/1/2
f 33/3/2 37/3/2 39/3/2
f 38/3/2 34/3/2 40/3/2
f 33/3/2 39/3/2 41/3/2
f 39/3/2 40/3/2 41/3/2
f 40/3/2 34/3/2 42/3/2
f 41/3/2 40/3/2 42/3/2
f 46/3/3 44/3/3 43/3/3
f 46/1/3 45/1/3 44/1/3
f 47/1/3 45/1/3 46/1/3
f 49/3/3 46/3/3 43/3/3
f 49/3/3 48/3/3 47/3/3
f 49/3/3 47/3/3 46/3/3
f 50/3/3 48/3/3 49/3/3
f 53/4/3 52/4/3 51/4/3
f 54/4/3 52/4/3 53/4/3
f 57/3/3 56/3/3 55/3/3
f 58/3/3 56/3/3 57/3/3
f 61/3/3 60/3/3 59/3/3
f 62/3/3 60/3/3 61/3/3
f 63/3/3 60/3/3 62/3/3
f 64/3/3 60/3/3 63/3/3
f 65/3/3 60/3/3 64/3/3
f 66/3/3 60/3/3 65/3/3
f 67/4/4 68/4/4 69/4/4
f 69/4/4 68/4/4 70/4/4
f 71/3/4 72/3/4 73/3/4
f 73/3/4 72/3/4 74/3/4
f 75/3/4 76/3/4 77/3/4
f 77/3/4 76/3/4 78/3/4
f 81/3/5 80/3/5 79/3/5
f 82/3/5 80/3/5 81/3/5
f 85/4/5 84/4/5 83/4/5
f 86/4/5 84/4/5 85/4/5
f 89/3/5 88/3/5 87/3/5
f 90/3/5 88/3/5 89/3/5
f 91/1/6 92/1/6 93/1/6
f 91/1/6 93/1/6 95/1/6
f 93/1/6 94/1/6 95/1/6
f 95/1/6 94/1/6 96/1/6
f 91/1/6 95/1/6 97/1/6
f 95/3/6 96/3/6 97/3/6
f 96/1/6 94/1/6 98/1/6
f 97/3/6 96/3/6 98/3/6
f 91/1/6 97/1/6 99/1/6
f 97/1/6 98/1/6 99/1/6
f 99/1/6 98/1/6 100/1/6
f 91/1/6 99/1/6 101/1/6
f 101/1/6 99/1/6 102/1/6
f 99/3/6 100/3/6 103/3/6
f 102/1/6 99/1/6 103/1/6
f 100/1/6 98/1/6 104/1/6
f 103/3/6 100/3/6 104/3/6
f 104/1/6 98/1/6 105/1/6
f 105/1/6 98/1/6 106/1/6
f 98/1/6 94/1/6 107/1/6
f 106/1/6 98/1/6 107/1/6
f 107/1/6 94/1/6 108/1/6
f 103/1/6 104/1/6 109/1/6
f 104/1/6 105/1/6 109/1/6
f 105/3/6 106/3/6 110/3/6
f 109/1/6 105/1/6 110/1/6
f 107/3/6 108/3/6 111/3/6
f 106/1/6 107/1/6 111/1/6
f 108/1/6 94/1/6 112/1/6
f 111/3/6 108/3/6 112/3/6
f 103/1/6 109/1/6 113/1/6
f 102/1/6 103/1/6 113/1/6
f 101/3/6 102/3/6 113/3/6
f 113/1/6 109/1/6 114/1/6
f 91/1/6 101/1/6 115/1/6
f 101/3/6 113/3/6 115/3/6
f 113/3/6 114/3/6 115/3/6
f 115/3/6 114/3/6 116/3/6
f 111/1/6 112/1/6 117/1/6
f 109/3/6 110/3/6 117/3/6
f 106/1/6 111/1/6 117/1/6
f 110/3/6 106/3/6 117/3/6
f 112/1/6 94/1/6 118/1/6
f 117/1/6 112/1/6 118/1/6
f 109/3/6 117/3/6 119/3/6
f 114/1/6 109/1/6 119/1/6
f 117/3/6 118/3/6 119/3/6
f 119/3/6 118/3/6 120/3/6
f 116/3/6 114/3/6 121/3/6
f 114/1/6 119/1/6 121/1/6
f 119/1/6 120/1/6 121/1/6
f 121/1/6 120/1/6 122/1/6
f 115/1/6 116/1/6 123/1/6
f 91/1/6 115/1/6 123/1/6
f 123/1/6 116/1/6 124/1/6
f 123/3/6 124/3/6 125/3/6
f 124/1/6 116/1/6 125/1/6
f 121/3/6 122/3/6 126/3/6
f 125/1/6 116/1/6 126/1/6
f 116/3/6 121/3/6 126/3/6
f 122/1/6 120/1/6 127/1/6
f 126/3/6 122/3/6 127/3/6
f 120/3/6 118/3/6 128/3/6
f 127/1/6 120/1/6 128/1/6
f 126/3/6 127/3/6 129/3/6
f 125/3/6 126/3/6 129/3/6
f 127/3/6 128/3/6 129/3/6
f 91/1/6 123/1/6 129/1/6
f 123/3/6 125/3/6 129/3/6
f 129/3/6 128/3/6 130/3/6
f 118/1/6 94/1/6 131/1/6
f 131/1/6 94/1/6 132/1/6
f 130/3/6 128/3/6 133/3/6
f 128/3/6 118/3/6 133/3/6
f 118/1/6 131/1/6 133/1/6
f 131/3/6 132/3/6 134/3/6
f 133/1/6 131/1/6 134/1/6
f 134/3/6 132/3/6 135/3/6
f 132/1/6 94/1/6 136/1/6
f 135/3/6 132/3/6 136/3/6
f 136/1/6 94/1/6 137/1/6
f 137/1/6 94/1/6 138/1/6
f 134/3/6 135/3/6 139/3/6
f 133/3/6 134/3/6 139/3/6
f 136/1/6 137/1/6 139/1/6
f 135/1/6 136/1/6 139/1/6
f 139/1/6 137/1/6 140/1/6
f 91/1/6 129/1/6 141/1/6
f 129/1/6 130/1/6 141/1/6
f 141/1/6 130/1/6 142/1/6
f 139/3/6 140/3/6 143/3/6
f 140/1/6 137/1/6 144/1/6
f 143/3/6 140/3/6 144/3/6
f 91/1/6 141/1/6 145/1/6
f 141/3/6 142/3/6 145/3/6
f 142/1/6 130/1/6 146/1/6
f 145/3/6 142/3/6 146/3/6
f 145/1/6 146/1/6 147/1/6
f 146/1/6 130/1/6 147/1/6
f 130/3/6 133/3/6 148/3/6
f 147/1/6 130/1/6 148/1/6
f 139/3/6 143/3/6 148/3/6
f 133/3/6 139/3/6 148/3/6
f 147/3/6 148/3/6 149/3/6
f 148/3/6 143/3/6 149/3/6
f 143/1/6 144/1/6 150/1/6
f 149/3/6 143/3/6 150/3/6
f 145/1/6 147/1/6 151/1/6
f 91/1/6 145/1/6 151/1/6
f 147/3/6 149/3/6 152/3/6
f 151/1/6 147/1/6 152/1/6
f 150/1/6 144/1/6 153/1/6
f 149/1/6 150/1/6 153/1/6
f 144/1/6 137/1/6 154/1/6
f 153/1/6 144/1/6 154/1/6
f 149/1/6 153/1/6 155/1/6
f 153/3/6 154/3/6 155/3/6
f 154/1/6 137/1/6 156/1/6
f 155/3/6 154/3/6 156/3/6
f 149/1/6 155/1/6 157/1/6
f 155/1/6 156/1/6 157/1/6
f 157/1/6 156/1/6 158/1/6
f 149/1/6 157/1/6 159/1/6
f 157/3/6 158/3/6 159/3/6
f 158/1/6 156/1/6 160/1/6
f 159/3/6 158/3/6 160/3/6
f 159/1/6 160/1/6 161/1/6
f 160/1/6 156/1/6 161/1/6
f 156/1/6 137/1/6 162/1/6
f 161/1/6 156/1/6 162/1/6
f 91/1/6 151/1/6 163/1/6
f 151/3/6 152/3/6 163/3/6
f 152/3/6 149/3/6 164/3/6
f 163/3/6 152/3/6 164/3/6
f 91/1/6 163/1/6 165/1/6
f 163/1/6 164/1/6 165/1/6
f 164/3/6 149/3/6 166/3/6
f 165/1/6 164/1/6 166/1/6
f 159/1/6 161/1/6 167/1/6
f 166/3/6 149/3/6 167/3/6
f 149/1/6 159/1/6 167/1/6
f 161/3/6 162/3/6 168/3/6
f 167/1/6 161/1/6 168/1/6
f 162/1/6 137/1/6 169/1/6
f 168/3/6 162/3/6 169/3/6
f 169/1/6 137/1/6 170/1/6
f 171/4/6 172/4/6 173/4/6
f 173/4/6 172/4/6 174/4/6
f 175/3/6 176/3/6 178/3/6
f 177/3/6 178/3/6 179/3/6
f 178/3/6 176/3/6 180/3/6
f 179/3/6 178/3/6 180/3/6
