# MagicaVoxel @ Ephtracy

# group
g 4x2 third (des)-5

# material
mtllib 4x2 third (des)-5.mtl
usemtl palette

# normals
vn -1 0 0
vn 1 0 0
vn 0 0 1
vn 0 0 -1
vn 0 -1 0
vn 0 1 0

# texcoords
vt 0.966797 0.5
vt 0.982422 0.5
vt 0.986328 0.5

# verts
v -63 0 63
v -63 0 -63
v -63 80 63
v -63 80 -63
v -7 30 63
v -7 30 61
v -7 60 63
v -7 60 61
v -2 3 -62
v -2 3 -63
v -2 44 -62
v -2 44 -63
v -62 3 61
v -62 3 -62
v -62 80 61
v -62 80 -62
v -42 30 63
v -42 30 61
v -42 60 63
v -42 60 61
v -32 3 -62
v -32 3 -63
v -32 44 -62
v -32 44 -63
v 37 30 63
v 37 30 61
v 37 60 63
v 37 60 61
v 63 0 63
v 63 0 -63
v 63 2 61
v 63 2 -62
v 63 3 61
v 63 3 -62
v 63 30 63
v 63 30 61
v 63 60 63
v 63 60 61
v 63 80 63
v 63 80 61
v 63 80 -62
v 63 80 -63
v -63 0 63
v -63 80 63
v -42 30 63
v -42 60 63
v -7 30 63
v -7 60 63
v 37 30 63
v 37 60 63
v 63 0 63
v 63 30 63
v 63 60 63
v 63 80 63
v -62 3 -62
v -62 80 -62
v -32 3 -62
v -32 44 -62
v -2 3 -62
v -2 44 -62
v 63 3 -62
v 63 80 -62
v -62 3 61
v -62 80 61
v -42 30 61
v -42 60 61
v -7 30 61
v -7 60 61
v 37 30 61
v 37 60 61
v 63 3 61
v 63 30 61
v 63 60 61
v 63 80 61
v -63 0 -63
v -63 80 -63
v -32 2 -63
v -32 3 -63
v -32 44 -63
v -2 2 -63
v -2 3 -63
v -2 44 -63
v 63 0 -63
v 63 80 -63
v -63 0 63
v 63 0 63
v -63 0 -63
v 63 0 -63
v -32 44 -62
v -2 44 -62
v -32 44 -63
v -2 44 -63
v -42 60 63
v -7 60 63
v 37 60 63
v 63 60 63
v -42 60 61
v -7 60 61
v 37 60 61
v 63 60 61
v -62 3 61
v 63 3 61
v 2 3 52
v 32 3 52
v -11 3 50
v -6 3 50
v -6 3 49
v -3 3 49
v -11 3 48
v -6 3 48
v -6 3 39
v -3 3 39
v -4 3 38
v 2 3 38
v 32 3 29
v 39 3 29
v -14 3 22
v -4 3 22
v 32 3 11
v 39 3 11
v 36 3 5
v 37 3 5
v 36 3 1
v 37 3 1
v 21 3 -2
v 27 3 -2
v -14 3 -3
v 0 3 -3
v 27 3 -5
v 32 3 -5
v 25 3 -8
v 30 3 -8
v -16 3 -10
v -13 3 -10
v 25 3 -11
v 30 3 -11
v -16 3 -15
v -13 3 -15
v 0 3 -15
v 21 3 -15
v -62 3 -62
v -32 3 -62
v -2 3 -62
v 63 3 -62
v -32 3 -63
v -2 3 -63
v -42 30 63
v -7 30 63
v 37 30 63
v 63 30 63
v -42 30 61
v -7 30 61
v 37 30 61
v 63 30 61
v -63 80 63
v 63 80 63
v -62 80 61
v 63 80 61
v -62 80 -62
v 63 80 -62
v -63 80 -63
v 63 80 -63

# faces
f 3/1/1 2/1/1 1/1/1
f 4/1/1 2/1/1 3/1/1
f 7/1/1 6/1/1 5/1/1
f 8/1/1 6/1/1 7/1/1
f 11/1/1 10/1/1 9/1/1
f 12/1/1 10/1/1 11/1/1
f 13/1/2 14/1/2 15/1/2
f 15/1/2 14/1/2 16/1/2
f 17/1/2 18/1/2 19/1/2
f 19/1/2 18/1/2 20/1/2
f 21/1/2 22/1/2 23/1/2
f 23/1/2 22/1/2 24/1/2
f 25/1/2 26/1/2 27/1/2
f 27/1/2 26/1/2 28/1/2
f 29/1/2 30/1/2 31/1/2
f 31/1/2 30/1/2 32/1/2
f 29/1/2 31/1/2 33/1/2
f 31/2/2 32/2/2 33/2/2
f 32/1/2 30/1/2 34/1/2
f 33/2/2 32/2/2 34/2/2
f 29/1/2 33/1/2 35/1/2
f 35/1/2 33/1/2 36/1/2
f 37/1/2 38/1/2 39/1/2
f 39/1/2 38/1/2 40/1/2
f 34/1/2 30/1/2 41/1/2
f 41/1/2 30/1/2 42/1/2
f 45/1/3 44/1/3 43/1/3
f 46/1/3 44/1/3 45/1/3
f 47/1/3 45/1/3 43/1/3
f 48/1/3 44/1/3 46/1/3
f 49/1/3 47/1/3 43/1/3
f 49/1/3 48/1/3 47/1/3
f 50/1/3 44/1/3 48/1/3
f 50/1/3 48/1/3 49/1/3
f 51/1/3 49/1/3 43/1/3
f 52/1/3 49/1/3 51/1/3
f 53/1/3 44/1/3 50/1/3
f 54/1/3 44/1/3 53/1/3
f 57/1/3 56/1/3 55/1/3
f 58/1/3 56/1/3 57/1/3
f 60/1/3 56/1/3 58/1/3
f 61/1/3 60/1/3 59/1/3
f 62/1/3 56/1/3 60/1/3
f 62/1/3 60/1/3 61/1/3
f 63/1/4 64/1/4 65/1/4
f 65/1/4 64/1/4 66/1/4
f 63/1/4 65/1/4 67/1/4
f 66/1/4 64/1/4 68/1/4
f 63/1/4 67/1/4 69/1/4
f 67/1/4 68/1/4 69/1/4
f 68/1/4 64/1/4 70/1/4
f 69/1/4 68/1/4 70/1/4
f 63/1/4 69/1/4 71/1/4
f 71/1/4 69/1/4 72/1/4
f 70/1/4 64/1/4 73/1/4
f 73/1/4 64/1/4 74/1/4
f 75/1/4 76/1/4 77/1/4
f 77/1/4 76/1/4 78/1/4
f 78/1/4 76/1/4 79/1/4
f 75/1/4 77/1/4 80/1/4
f 77/2/4 78/2/4 80/2/4
f 80/2/4 78/2/4 81/2/4
f 79/1/4 76/1/4 82/1/4
f 80/1/4 81/1/4 83/1/4
f 81/1/4 82/1/4 83/1/4
f 75/1/4 80/1/4 83/1/4
f 82/1/4 76/1/4 84/1/4
f 83/1/4 82/1/4 84/1/4
f 87/1/5 86/1/5 85/1/5
f 88/1/5 86/1/5 87/1/5
f 91/1/5 90/1/5 89/1/5
f 92/1/5 90/1/5 91/1/5
f 97/1/5 94/1/5 93/1/5
f 98/1/5 94/1/5 97/1/5
f 99/1/5 96/1/5 95/1/5
f 100/1/5 96/1/5 99/1/5
f 101/2/6 102/2/6 103/2/6
f 103/2/6 102/2/6 104/2/6
f 101/2/6 103/2/6 105/2/6
f 105/2/6 103/2/6 106/2/6
f 105/3/6 106/3/6 107/3/6
f 106/2/6 103/2/6 107/2/6
f 107/2/6 103/2/6 108/2/6
f 101/2/6 105/2/6 109/2/6
f 105/3/6 107/3/6 109/3/6
f 107/3/6 108/3/6 109/3/6
f 109/3/6 108/3/6 110/3/6
f 109/2/6 110/2/6 111/2/6
f 110/3/6 108/3/6 111/3/6
f 108/2/6 103/2/6 112/2/6
f 111/3/6 108/3/6 112/3/6
f 111/2/6 112/2/6 113/2/6
f 103/3/6 104/3/6 114/3/6
f 113/2/6 112/2/6 114/2/6
f 112/2/6 103/2/6 114/2/6
f 104/2/6 102/2/6 115/2/6
f 114/3/6 104/3/6 115/3/6
f 113/3/6 114/3/6 115/3/6
f 115/2/6 102/2/6 116/2/6
f 101/2/6 109/2/6 117/2/6
f 111/2/6 113/2/6 117/2/6
f 109/2/6 111/2/6 117/2/6
f 115/3/6 116/3/6 118/3/6
f 117/2/6 113/2/6 118/2/6
f 113/3/6 115/3/6 118/3/6
f 117/3/6 118/3/6 119/3/6
f 118/3/6 116/3/6 119/3/6
f 116/2/6 102/2/6 120/2/6
f 119/3/6 116/3/6 120/3/6
f 119/2/6 120/2/6 121/2/6
f 121/2/6 120/2/6 122/2/6
f 119/2/6 121/2/6 123/2/6
f 121/3/6 122/3/6 123/3/6
f 122/2/6 120/2/6 124/2/6
f 123/3/6 122/3/6 124/3/6
f 117/3/6 119/3/6 125/3/6
f 125/3/6 119/3/6 126/3/6
f 101/2/6 117/2/6 127/2/6
f 117/3/6 125/3/6 127/3/6
f 127/3/6 125/3/6 128/3/6
f 126/3/6 119/3/6 129/3/6
f 125/2/6 126/2/6 129/2/6
f 119/2/6 123/2/6 130/2/6
f 129/3/6 119/3/6 130/3/6
f 123/2/6 124/2/6 130/2/6
f 125/2/6 129/2/6 131/2/6
f 129/2/6 130/2/6 131/2/6
f 131/2/6 130/2/6 132/2/6
f 101/2/6 127/2/6 133/2/6
f 127/2/6 128/2/6 133/2/6
f 133/2/6 128/2/6 134/2/6
f 131/3/6 132/3/6 135/3/6
f 125/2/6 131/2/6 135/2/6
f 132/2/6 130/2/6 136/2/6
f 135/3/6 132/3/6 136/3/6
f 133/3/6 134/3/6 137/3/6
f 101/2/6 133/2/6 137/2/6
f 134/2/6 128/2/6 138/2/6
f 137/3/6 134/3/6 138/3/6
f 128/3/6 125/3/6 139/3/6
f 138/2/6 128/2/6 139/2/6
f 125/2/6 135/2/6 140/2/6
f 139/3/6 125/3/6 140/3/6
f 135/2/6 136/2/6 140/2/6
f 137/2/6 138/2/6 141/2/6
f 138/2/6 139/2/6 141/2/6
f 139/2/6 140/2/6 141/2/6
f 101/2/6 137/2/6 141/2/6
f 141/2/6 140/2/6 142/2/6
f 142/2/6 140/2/6 143/2/6
f 124/2/6 120/2/6 144/2/6
f 143/2/6 140/2/6 144/2/6
f 140/2/6 136/2/6 144/2/6
f 120/2/6 102/2/6 144/2/6
f 130/2/6 124/2/6 144/2/6
f 136/2/6 130/2/6 144/2/6
f 142/2/6 143/2/6 145/2/6
f 145/2/6 143/2/6 146/2/6
f 147/1/6 148/1/6 151/1/6
f 151/1/6 148/1/6 152/1/6
f 149/1/6 150/1/6 153/1/6
f 153/1/6 150/1/6 154/1/6
f 155/1/6 156/1/6 157/1/6
f 157/1/6 156/1/6 158/1/6
f 155/1/6 157/1/6 159/1/6
f 155/1/6 159/1/6 161/1/6
f 159/1/6 160/1/6 161/1/6
f 161/1/6 160/1/6 162/1/6
