# MagicaVoxel @ Ephtracy

# group
g 4x2 roof-3

# material
mtllib 4x2 roof-3.mtl
usemtl palette

# normals
vn -1 0 0
vn 1 0 0
vn 0 0 1
vn 0 0 -1
vn 0 -1 0
vn 0 1 0

# texcoords
vt 0.966797 0.5

# verts
v -63 0 63
v -63 0 -63
v -63 2 63
v -63 2 -46
v -63 15 -46
v -63 15 -63
v -32 0 45
v -32 0 43
v -32 1 45
v -32 1 44
v -32 2 44
v -32 2 43
v -31 0 48
v -31 0 45
v -31 1 45
v -31 1 44
v -31 2 48
v -31 2 44
v -27 0 42
v -27 0 41
v -27 2 42
v -27 2 41
v -26 0 22
v -26 0 21
v -26 1 21
v -26 1 20
v -26 2 22
v -26 2 20
v 20 0 17
v 20 0 14
v 20 2 17
v 20 2 14
v 25 0 63
v 25 0 62
v 25 0 17
v 25 0 12
v 25 2 63
v 25 2 62
v 25 2 17
v 25 2 12
v 29 0 22
v 29 0 17
v 29 1 25
v 29 1 22
v 29 2 25
v 29 2 17
v 30 0 62
v 30 0 60
v 30 2 62
v 30 2 60
v 33 0 57
v 33 0 22
v 33 1 25
v 33 1 22
v 33 2 57
v 33 2 25
v 36 0 60
v 36 0 57
v 36 2 60
v 36 2 57
v -33 0 47
v -33 0 43
v -33 1 48
v -33 1 47
v -33 2 48
v -33 2 43
v -32 0 48
v -32 0 47
v -32 1 48
v -32 1 47
v -31 0 36
v -31 0 33
v -31 1 33
v -31 1 32
v -31 2 36
v -31 2 32
v -30 0 42
v -30 0 38
v -30 2 42
v -30 2 38
v -29 0 38
v -29 0 36
v -29 0 33
v -29 0 21
v -29 1 33
v -29 1 32
v -29 1 21
v -29 1 20
v -29 2 38
v -29 2 36
v -29 2 32
v -29 2 20
v -26 0 53
v -26 0 41
v -26 1 62
v -26 1 53
v -26 2 62
v -26 2 41
v -24 0 60
v -24 0 55
v -24 1 60
v -24 1 55
v -23 0 22
v -23 0 14
v -23 2 22
v -23 2 14
v -21 0 61
v -21 0 60
v -21 0 55
v -21 0 53
v -21 1 61
v -21 1 60
v -21 1 55
v -21 1 53
v -20 0 63
v -20 0 61
v -20 1 62
v -20 1 61
v -20 2 63
v -20 2 62
v 23 0 17
v 23 0 12
v 23 2 17
v 23 2 12
v 63 0 63
v 63 0 -63
v 63 2 63
v 63 2 -46
v 63 15 -46
v 63 15 -63
v -63 0 63
v -63 2 63
v -20 0 63
v -20 2 63
v 25 0 63
v 25 2 63
v 63 0 63
v 63 2 63
v 33 0 57
v 33 2 57
v 36 0 57
v 36 2 57
v -24 0 55
v -24 1 55
v -21 0 55
v -21 1 55
v -32 0 45
v -32 1 45
v -31 0 45
v -31 1 45
v -32 1 44
v -32 2 44
v -31 1 44
v -31 2 44
v -33 0 43
v -33 2 43
v -32 0 43
v -32 2 43
v -30 0 38
v -30 2 38
v -29 0 38
v -29 2 38
v -31 0 33
v -31 1 33
v -29 0 33
v -29 1 33
v -31 1 32
v -31 2 32
v -29 1 32
v -29 2 32
v 29 1 25
v 29 2 25
v 33 1 25
v 33 2 25
v -26 0 22
v -26 2 22
v -23 0 22
v -23 2 22
v 29 0 22
v 29 1 22
v 33 0 22
v 33 1 22
v -29 0 21
v -29 1 21
v -26 0 21
v -26 1 21
v -29 1 20
v -29 2 20
v -26 1 20
v -26 2 20
v 20 0 17
v 20 2 17
v 23 0 17
v 23 2 17
v 25 0 17
v 25 2 17
v 29 0 17
v 29 2 17
v -23 0 14
v -23 2 14
v 20 0 14
v 20 2 14
v 23 0 12
v 23 2 12
v 25 0 12
v 25 2 12
v -63 2 -46
v -63 15 -46
v 63 2 -46
v 63 15 -46
v -26 1 62
v -26 2 62
v -20 1 62
v -20 2 62
v 25 0 62
v 25 2 62
v 30 0 62
v 30 2 62
v -21 0 61
v -21 1 61
v -20 0 61
v -20 1 61
v -24 0 60
v -24 1 60
v -21 0 60
v -21 1 60
v 30 0 60
v 30 2 60
v 36 0 60
v 36 2 60
v -26 0 53
v -26 1 53
v -21 0 53
v -21 1 53
v -33 1 48
v -33 2 48
v -32 0 48
v -32 1 48
v -31 0 48
v -31 2 48
v -33 0 47
v -33 1 47
v -32 0 47
v -32 1 47
v -30 0 42
v -30 2 42
v -27 0 42
v -27 2 42
v -27 0 41
v -27 2 41
v -26 0 41
v -26 2 41
v -31 0 36
v -31 2 36
v -29 0 36
v -29 2 36
v -63 0 -63
v -63 15 -63
v 63 0 -63
v 63 15 -63
v -63 0 63
v -20 0 63
v 25 0 63
v 63 0 63
v 25 0 62
v 30 0 62
v -21 0 61
v -20 0 61
v -24 0 60
v -21 0 60
v 30 0 60
v 36 0 60
v 33 0 57
v 36 0 57
v -24 0 55
v -21 0 55
v -26 0 53
v -21 0 53
v -32 0 48
v -31 0 48
v -33 0 47
v -32 0 47
v -32 0 45
v -31 0 45
v -33 0 43
v -32 0 43
v -30 0 42
v -27 0 42
v -27 0 41
v -26 0 41
v -30 0 38
v -29 0 38
v -31 0 36
v -29 0 36
v -31 0 33
v -29 0 33
v -26 0 22
v -23 0 22
v 29 0 22
v 33 0 22
v -29 0 21
v -26 0 21
v 20 0 17
v 23 0 17
v 25 0 17
v 29 0 17
v -23 0 14
v 20 0 14
v 23 0 12
v 25 0 12
v -63 0 -63
v 63 0 -63
v 29 1 25
v 33 1 25
v 29 1 22
v 33 1 22
v -26 1 62
v -20 1 62
v -21 1 61
v -20 1 61
v -24 1 60
v -21 1 60
v -24 1 55
v -21 1 55
v -26 1 53
v -21 1 53
v -33 1 48
v -32 1 48
v -33 1 47
v -32 1 47
v -32 1 45
v -31 1 45
v -32 1 44
v -31 1 44
v -31 1 33
v -29 1 33
v -31 1 32
v -29 1 32
v -29 1 21
v -26 1 21
v -29 1 20
v -26 1 20
v -63 2 63
v -20 2 63
v 25 2 63
v 63 2 63
v -26 2 62
v -20 2 62
v 25 2 62
v 30 2 62
v 30 2 60
v 36 2 60
v 33 2 57
v 36 2 57
v -33 2 48
v -31 2 48
v -32 2 44
v -31 2 44
v -33 2 43
v -32 2 43
v -30 2 42
v -27 2 42
v -27 2 41
v -26 2 41
v -30 2 38
v -29 2 38
v -31 2 36
v -29 2 36
v -31 2 32
v -29 2 32
v 29 2 25
v 33 2 25
v -26 2 22
v -23 2 22
v -29 2 20
v -26 2 20
v 20 2 17
v 23 2 17
v 25 2 17
v 29 2 17
v -23 2 14
v 20 2 14
v 23 2 12
v 25 2 12
v -63 2 -46
v 63 2 -46
v -63 15 -46
v 63 15 -46
v -63 15 -63
v 63 15 -63

# faces
f 3/1/1 2/1/1 1/1/1
f 4/1/1 2/1/1 3/1/1
f 5/1/1 2/1/1 4/1/1
f 6/1/1 2/1/1 5/1/1
f 9/1/1 8/1/1 7/1/1
f 10/1/1 8/1/1 9/1/1
f 11/1/1 8/1/1 10/1/1
f 12/1/1 8/1/1 11/1/1
f 15/1/1 14/1/1 13/1/1
f 17/1/1 15/1/1 13/1/1
f 17/1/1 16/1/1 15/1/1
f 18/1/1 16/1/1 17/1/1
f 21/1/1 20/1/1 19/1/1
f 22/1/1 20/1/1 21/1/1
f 25/1/1 24/1/1 23/1/1
f 27/1/1 25/1/1 23/1/1
f 27/1/1 26/1/1 25/1/1
f 28/1/1 26/1/1 27/1/1
f 31/1/1 30/1/1 29/1/1
f 32/1/1 30/1/1 31/1/1
f 37/1/1 34/1/1 33/1/1
f 38/1/1 34/1/1 37/1/1
f 39/1/1 36/1/1 35/1/1
f 40/1/1 36/1/1 39/1/1
f 44/1/1 42/1/1 41/1/1
f 45/1/1 44/1/1 43/1/1
f 46/1/1 42/1/1 44/1/1
f 46/1/1 44/1/1 45/1/1
f 49/1/1 48/1/1 47/1/1
f 50/1/1 48/1/1 49/1/1
f 53/1/1 52/1/1 51/1/1
f 54/1/1 52/1/1 53/1/1
f 55/1/1 53/1/1 51/1/1
f 56/1/1 53/1/1 55/1/1
f 59/1/1 58/1/1 57/1/1
f 60/1/1 58/1/1 59/1/1
f 61/1/2 62/1/2 64/1/2
f 63/1/2 64/1/2 65/1/2
f 64/1/2 62/1/2 66/1/2
f 65/1/2 64/1/2 66/1/2
f 67/1/2 68/1/2 69/1/2
f 69/1/2 68/1/2 70/1/2
f 71/1/2 72/1/2 73/1/2
f 71/1/2 73/1/2 75/1/2
f 73/1/2 74/1/2 75/1/2
f 75/1/2 74/1/2 76/1/2
f 77/1/2 78/1/2 79/1/2
f 79/1/2 78/1/2 80/1/2
f 83/1/2 84/1/2 85/1/2
f 85/1/2 84/1/2 86/1/2
f 86/1/2 84/1/2 87/1/2
f 81/1/2 82/1/2 89/1/2
f 89/1/2 82/1/2 90/1/2
f 87/1/2 88/1/2 91/1/2
f 86/1/2 87/1/2 91/1/2
f 91/1/2 88/1/2 92/1/2
f 93/1/2 94/1/2 96/1/2
f 95/1/2 96/1/2 97/1/2
f 96/1/2 94/1/2 98/1/2
f 97/1/2 96/1/2 98/1/2
f 99/1/2 100/1/2 101/1/2
f 101/1/2 100/1/2 102/1/2
f 103/1/2 104/1/2 105/1/2
f 105/1/2 104/1/2 106/1/2
f 107/1/2 108/1/2 111/1/2
f 111/1/2 108/1/2 112/1/2
f 109/1/2 110/1/2 113/1/2
f 113/1/2 110/1/2 114/1/2
f 115/1/2 116/1/2 117/1/2
f 117/1/2 116/1/2 118/1/2
f 115/1/2 117/1/2 119/1/2
f 119/1/2 117/1/2 120/1/2
f 121/1/2 122/1/2 123/1/2
f 123/1/2 122/1/2 124/1/2
f 125/1/2 126/1/2 127/1/2
f 127/1/2 126/1/2 128/1/2
f 128/1/2 126/1/2 129/1/2
f 129/1/2 126/1/2 130/1/2
f 133/1/3 132/1/3 131/1/3
f 134/1/3 132/1/3 133/1/3
f 137/1/3 136/1/3 135/1/3
f 138/1/3 136/1/3 137/1/3
f 141/1/3 140/1/3 139/1/3
f 142/1/3 140/1/3 141/1/3
f 145/1/3 144/1/3 143/1/3
f 146/1/3 144/1/3 145/1/3
f 149/1/3 148/1/3 147/1/3
f 150/1/3 148/1/3 149/1/3
f 153/1/3 152/1/3 151/1/3
f 154/1/3 152/1/3 153/1/3
f 157/1/3 156/1/3 155/1/3
f 158/1/3 156/1/3 157/1/3
f 161/1/3 160/1/3 159/1/3
f 162/1/3 160/1/3 161/1/3
f 165/1/3 164/1/3 163/1/3
f 166/1/3 164/1/3 165/1/3
f 169/1/3 168/1/3 167/1/3
f 170/1/3 168/1/3 169/1/3
f 173/1/3 172/1/3 171/1/3
f 174/1/3 172/1/3 173/1/3
f 177/1/3 176/1/3 175/1/3
f 178/1/3 176/1/3 177/1/3
f 181/1/3 180/1/3 179/1/3
f 182/1/3 180/1/3 181/1/3
f 185/1/3 184/1/3 183/1/3
f 186/1/3 184/1/3 185/1/3
f 189/1/3 188/1/3 187/1/3
f 190/1/3 188/1/3 189/1/3
f 193/1/3 192/1/3 191/1/3
f 194/1/3 192/1/3 193/1/3
f 197/1/3 196/1/3 195/1/3
f 198/1/3 196/1/3 197/1/3
f 201/1/3 200/1/3 199/1/3
f 202/1/3 200/1/3 201/1/3
f 205/1/3 204/1/3 203/1/3
f 206/1/3 204/1/3 205/1/3
f 209/1/3 208/1/3 207/1/3
f 210/1/3 208/1/3 209/1/3
f 211/1/4 212/1/4 213/1/4
f 213/1/4 212/1/4 214/1/4
f 215/1/4 216/1/4 217/1/4
f 217/1/4 216/1/4 218/1/4
f 219/1/4 220/1/4 221/1/4
f 221/1/4 220/1/4 222/1/4
f 223/1/4 224/1/4 225/1/4
f 225/1/4 224/1/4 226/1/4
f 227/1/4 228/1/4 229/1/4
f 229/1/4 228/1/4 230/1/4
f 231/1/4 232/1/4 233/1/4
f 233/1/4 232/1/4 234/1/4
f 235/1/4 236/1/4 238/1/4
f 237/1/4 238/1/4 239/1/4
f 238/1/4 236/1/4 240/1/4
f 239/1/4 238/1/4 240/1/4
f 241/1/4 242/1/4 243/1/4
f 243/1/4 242/1/4 244/1/4
f 245/1/4 246/1/4 247/1/4
f 247/1/4 246/1/4 248/1/4
f 249/1/4 250/1/4 251/1/4
f 251/1/4 250/1/4 252/1/4
f 253/1/4 254/1/4 255/1/4
f 255/1/4 254/1/4 256/1/4
f 257/1/4 258/1/4 259/1/4
f 259/1/4 258/1/4 260/1/4
f 265/1/5 264/1/5 263/1/5
f 266/1/5 264/1/5 265/1/5
f 267/1/5 262/1/5 261/1/5
f 268/1/5 262/1/5 267/1/5
f 269/1/5 267/1/5 261/1/5
f 270/1/5 267/1/5 269/1/5
f 271/1/5 264/1/5 266/1/5
f 272/1/5 264/1/5 271/1/5
f 274/1/5 264/1/5 272/1/5
f 275/1/5 269/1/5 261/1/5
f 277/1/5 275/1/5 261/1/5
f 277/1/5 276/1/5 275/1/5
f 278/1/5 276/1/5 277/1/5
f 279/1/5 277/1/5 261/1/5
f 280/1/5 277/1/5 279/1/5
f 281/1/5 279/1/5 261/1/5
f 282/1/5 279/1/5 281/1/5
f 284/1/5 277/1/5 280/1/5
f 285/1/5 281/1/5 261/1/5
f 286/1/5 284/1/5 283/1/5
f 287/1/5 277/1/5 284/1/5
f 287/1/5 286/1/5 285/1/5
f 287/1/5 284/1/5 286/1/5
f 288/1/5 277/1/5 287/1/5
f 289/1/5 277/1/5 288/1/5
f 290/1/5 277/1/5 289/1/5
f 291/1/5 287/1/5 285/1/5
f 293/1/5 291/1/5 285/1/5
f 293/1/5 292/1/5 291/1/5
f 294/1/5 292/1/5 293/1/5
f 295/1/5 293/1/5 285/1/5
f 300/1/5 274/1/5 273/1/5
f 301/1/5 296/1/5 295/1/5
f 302/1/5 298/1/5 297/1/5
f 306/1/5 300/1/5 299/1/5
f 307/1/5 298/1/5 302/1/5
f 307/1/5 302/1/5 301/1/5
f 308/1/5 304/1/5 303/1/5
f 309/1/5 304/1/5 308/1/5
f 309/1/5 308/1/5 307/1/5
f 310/1/5 306/1/5 305/1/5
f 311/1/5 307/1/5 301/1/5
f 311/1/5 310/1/5 309/1/5
f 311/1/5 301/1/5 295/1/5
f 311/1/5 285/1/5 261/1/5
f 311/1/5 295/1/5 285/1/5
f 311/1/5 309/1/5 307/1/5
f 312/1/5 306/1/5 310/1/5
f 312/1/5 310/1/5 311/1/5
f 312/1/5 264/1/5 274/1/5
f 312/1/5 300/1/5 306/1/5
f 312/1/5 274/1/5 300/1/5
f 315/1/5 314/1/5 313/1/5
f 316/1/5 314/1/5 315/1/5
f 317/1/6 318/1/6 319/1/6
f 319/1/6 318/1/6 320/1/6
f 317/1/6 319/1/6 321/1/6
f 321/1/6 319/1/6 322/1/6
f 317/1/6 321/1/6 323/1/6
f 317/1/6 323/1/6 325/1/6
f 323/1/6 324/1/6 325/1/6
f 325/1/6 324/1/6 326/1/6
f 327/1/6 328/1/6 329/1/6
f 329/1/6 328/1/6 330/1/6
f 331/1/6 332/1/6 333/1/6
f 333/1/6 332/1/6 334/1/6
f 335/1/6 336/1/6 337/1/6
f 337/1/6 336/1/6 338/1/6
f 339/1/6 340/1/6 341/1/6
f 341/1/6 340/1/6 342/1/6
f 343/1/6 344/1/6 347/1/6
f 347/1/6 344/1/6 348/1/6
f 345/1/6 346/1/6 349/1/6
f 349/1/6 346/1/6 350/1/6
f 350/1/6 346/1/6 351/1/6
f 351/1/6 346/1/6 352/1/6
f 352/1/6 346/1/6 354/1/6
f 343/1/6 347/1/6 355/1/6
f 355/1/6 347/1/6 356/1/6
f 356/1/6 347/1/6 358/1/6
f 343/1/6 355/1/6 359/1/6
f 357/1/6 358/1/6 360/1/6
f 358/1/6 347/1/6 361/1/6
f 359/1/6 360/1/6 361/1/6
f 360/1/6 358/1/6 361/1/6
f 361/1/6 347/1/6 362/1/6
f 362/1/6 347/1/6 363/1/6
f 363/1/6 347/1/6 364/1/6
f 359/1/6 361/1/6 365/1/6
f 359/1/6 365/1/6 367/1/6
f 365/1/6 366/1/6 367/1/6
f 367/1/6 366/1/6 368/1/6
f 359/1/6 367/1/6 369/1/6
f 353/1/6 354/1/6 372/1/6
f 369/1/6 370/1/6 375/1/6
f 373/1/6 374/1/6 376/1/6
f 371/1/6 372/1/6 380/1/6
f 376/1/6 374/1/6 381/1/6
f 375/1/6 376/1/6 381/1/6
f 377/1/6 378/1/6 382/1/6
f 382/1/6 378/1/6 383/1/6
f 381/1/6 382/1/6 383/1/6
f 379/1/6 380/1/6 384/1/6
f 359/1/6 369/1/6 385/1/6
f 383/1/6 384/1/6 385/1/6
f 343/1/6 359/1/6 385/1/6
f 369/1/6 375/1/6 385/1/6
f 375/1/6 381/1/6 385/1/6
f 381/1/6 383/1/6 385/1/6
f 384/1/6 380/1/6 386/1/6
f 385/1/6 384/1/6 386/1/6
f 354/1/6 346/1/6 386/1/6
f 380/1/6 372/1/6 386/1/6
f 372/1/6 354/1/6 386/1/6
f 387/1/6 388/1/6 389/1/6
f 389/1/6 388/1/6 390/1/6
