# MagicaVoxel @ Ephtracy

# group
g 4x2 first (1)-1

# material
mtllib 4x2 first (1)-1.mtl
usemtl palette

# normals
vn -1 0 0
vn 1 0 0
vn 0 0 1
vn 0 0 -1
vn 0 -1 0
vn 0 1 0

# texcoords
vt 0.0332031 0.5
vt 0.396484 0.5
vt 0.966797 0.5
vt 0.970703 0.5

# verts
v -63 0 63
v -63 0 42
v -63 0 36
v -63 0 14
v -63 0 -63
v -63 1 41
v -63 1 37
v -63 1 11
v -63 1 9
v -63 2 11
v -63 2 9
v -63 3 42
v -63 3 41
v -63 3 37
v -63 3 36
v -63 4 3
v -63 4 2
v -63 6 11
v -63 6 10
v -63 6 3
v -63 6 2
v -63 7 14
v -63 7 11
v -63 15 25
v -63 15 10
v -63 18 47
v -63 18 25
v -63 18 16
v -63 18 8
v -63 21 49
v -63 21 47
v -63 24 16
v -63 24 8
v -63 25 49
v -63 25 48
v -63 26 38
v -63 26 37
v -63 27 38
v -63 27 37
v -63 29 49
v -63 29 48
v -63 31 48
v -63 31 43
v -63 32 39
v -63 32 38
v -63 34 39
v -63 34 38
v -63 37 48
v -63 37 43
v -63 38 49
v -63 38 40
v -63 43 62
v -63 43 54
v -63 44 63
v -63 44 62
v -63 47 54
v -63 47 40
v -63 80 63
v -63 80 -63
v 23 3 24
v 23 3 3
v 23 8 13
v 23 8 3
v 23 15 24
v 23 15 13
v 61 3 3
v 61 3 -63
v 61 8 13
v 61 8 3
v 61 15 24
v 61 15 13
v 61 22 61
v 61 22 24
v 61 80 61
v 61 80 -63
v -61 3 6
v -61 3 -63
v -61 32 6
v -61 32 -5
v -61 39 61
v -61 39 27
v -61 39 -5
v -61 39 -15
v -61 46 27
v -61 46 16
v -61 46 -15
v -61 46 -26
v -61 53 16
v -61 53 6
v -61 53 -26
v -61 53 -37
v -61 60 6
v -61 60 -5
v -61 60 -37
v -61 60 -62
v -61 67 -5
v -61 67 -15
v -61 74 -15
v -61 74 -26
v -61 80 61
v -61 80 -26
v -61 80 -62
v -61 80 -63
v -23 3 24
v -23 3 6
v -23 32 6
v -23 32 -5
v -23 39 27
v -23 39 24
v -23 39 -5
v -23 39 -15
v -23 46 27
v -23 46 16
v -23 46 -15
v -23 46 -26
v -23 53 16
v -23 53 6
v -23 53 -26
v -23 53 -37
v -23 60 6
v -23 60 -5
v -23 60 -37
v -23 60 -62
v -23 67 -5
v -23 67 -15
v -23 74 -15
v -23 74 -26
v -23 80 -26
v -23 80 -62
v 9 32 61
v 9 32 24
v 9 39 61
v 9 39 24
v 20 25 61
v 20 25 24
v 20 32 61
v 20 32 24
v 30 22 61
v 30 22 24
v 30 25 61
v 30 25 24
v 63 0 63
v 63 0 -63
v 63 80 63
v 63 80 -63
v -63 0 63
v -63 44 63
v -63 80 63
v -61 44 63
v -61 51 63
v -46 51 63
v -46 56 63
v -44 44 63
v -44 49 63
v -43 36 63
v -43 44 63
v -40 36 63
v -40 41 63
v -38 49 63
v -38 56 63
v -36 57 63
v -36 58 63
v -33 57 63
v -33 58 63
v -29 19 63
v -29 24 63
v -27 41 63
v -27 44 63
v -24 24 63
v -24 41 63
v -22 41 63
v -22 44 63
v -18 19 63
v -18 26 63
v -17 36 63
v -17 38 63
v -16 36 63
v -16 38 63
v -5 19 63
v -5 23 63
v -5 24 63
v -5 26 63
v -3 0 63
v -3 1 63
v -3 12 63
v -3 17 63
v -3 19 63
v -3 23 63
v 1 17 63
v 1 24 63
v 8 1 63
v 8 11 63
v 9 10 63
v 9 11 63
v 11 10 63
v 11 12 63
v 12 3 63
v 12 7 63
v 15 3 63
v 15 7 63
v 63 0 63
v 63 80 63
v -61 39 27
v -61 46 27
v -23 39 27
v -23 46 27
v -61 46 16
v -61 53 16
v -23 46 16
v -23 53 16
v -61 53 6
v -61 60 6
v -23 53 6
v -23 60 6
v -61 60 -5
v -61 67 -5
v -23 60 -5
v -23 67 -5
v -61 67 -15
v -61 74 -15
v -23 67 -15
v -23 74 -15
v -61 74 -26
v -61 80 -26
v -23 74 -26
v -23 80 -26
v -61 39 61
v -61 80 61
v 9 32 61
v 9 39 61
v 20 25 61
v 20 32 61
v 30 22 61
v 30 25 61
v 61 22 61
v 61 80 61
v -23 3 24
v -23 39 24
v 9 32 24
v 9 39 24
v 20 25 24
v 20 32 24
v 23 3 24
v 23 15 24
v 30 22 24
v 30 25 24
v 61 15 24
v 61 22 24
v 23 8 13
v 23 15 13
v 61 8 13
v 61 15 13
v -61 3 6
v -61 32 6
v -23 3 6
v -23 32 6
v 23 3 3
v 23 8 3
v 61 3 3
v 61 8 3
v -61 32 -5
v -61 39 -5
v -23 32 -5
v -23 39 -5
v -61 39 -15
v -61 46 -15
v -23 39 -15
v -23 46 -15
v -61 46 -26
v -61 53 -26
v -23 46 -26
v -23 53 -26
v -61 53 -37
v -61 60 -37
v -23 53 -37
v -23 60 -37
v -61 60 -62
v -61 80 -62
v -23 60 -62
v -23 80 -62
v -63 0 -63
v -63 80 -63
v -61 2 -63
v -61 3 -63
v -61 80 -63
v 61 2 -63
v 61 3 -63
v 61 80 -63
v 63 0 -63
v 63 80 -63
v -63 0 63
v -3 0 63
v 63 0 63
v -62 0 62
v -3 0 62
v -23 0 61
v 61 0 61
v -63 0 42
v -62 0 42
v -63 0 36
v -62 0 36
v -23 0 24
v 23 0 24
v -63 0 14
v -62 0 14
v 23 0 3
v 61 0 3
v -63 0 -63
v 63 0 -63
v -61 32 6
v -23 32 6
v -61 32 -5
v -23 32 -5
v -61 39 -5
v -23 39 -5
v -61 39 -15
v -23 39 -15
v -61 46 -15
v -23 46 -15
v -61 46 -26
v -23 46 -26
v -61 53 -26
v -23 53 -26
v -61 53 -37
v -23 53 -37
v -61 60 -37
v -23 60 -37
v -61 60 -62
v -23 60 -62
v -23 3 24
v 23 3 24
v -61 3 6
v -23 3 6
v 23 3 3
v 61 3 3
v -61 3 -63
v 61 3 -63
v 23 8 13
v 61 8 13
v 23 8 3
v 61 8 3
v 23 15 24
v 61 15 24
v 23 15 13
v 61 15 13
v 30 22 61
v 61 22 61
v 30 22 24
v 61 22 24
v 20 25 61
v 30 25 61
v 20 25 24
v 30 25 24
v 9 32 61
v 20 32 61
v 9 32 24
v 20 32 24
v -61 39 61
v 9 39 61
v -61 39 27
v -23 39 27
v -23 39 24
v 9 39 24
v -61 46 27
v -23 46 27
v -61 46 16
v -23 46 16
v -61 53 16
v -23 53 16
v -61 53 6
v -23 53 6
v -61 60 6
v -23 60 6
v -61 60 -5
v -23 60 -5
v -61 67 -5
v -23 67 -5
v -61 67 -15
v -23 67 -15
v -61 74 -15
v -23 74 -15
v -61 74 -26
v -23 74 -26
v -63 80 63
v 63 80 63
v -61 80 61
v 61 80 61
v -62 80 -26
v -61 80 -26
v -23 80 -26
v -62 80 -62
v -61 80 -62
v -23 80 -62
v -63 80 -63
v -61 80 -63
v 61 80 -63
v 63 80 -63

# faces
f 6/3/1 3/3/1 2/3/1
f 7/3/1 3/3/1 6/3/1
f 8/3/1 5/3/1 4/3/1
f 9/3/1 5/3/1 8/3/1
f 10/3/1 8/3/1 4/3/1
f 10/4/1 9/4/1 8/4/1
f 11/3/1 5/3/1 9/3/1
f 11/4/1 9/4/1 10/4/1
f 12/4/1 2/4/1 1/4/1
f 12/3/1 6/3/1 2/3/1
f 13/4/1 7/4/1 6/4/1
f 13/3/1 6/3/1 12/3/1
f 14/3/1 3/3/1 7/3/1
f 14/4/1 7/4/1 13/4/1
f 15/4/1 4/4/1 3/4/1
f 15/3/1 3/3/1 14/3/1
f 16/3/1 5/3/1 11/3/1
f 16/3/1 11/3/1 10/3/1
f 17/3/1 5/3/1 16/3/1
f 18/3/1 10/3/1 4/3/1
f 18/3/1 16/3/1 10/3/1
f 19/3/1 16/3/1 18/3/1
f 20/4/1 17/4/1 16/4/1
f 20/3/1 16/3/1 19/3/1
f 21/3/1 5/3/1 17/3/1
f 21/4/1 17/4/1 20/4/1
f 22/4/1 4/4/1 15/4/1
f 22/4/1 13/4/1 12/4/1
f 22/4/1 14/4/1 13/4/1
f 22/3/1 18/3/1 4/3/1
f 22/4/1 15/4/1 14/4/1
f 23/4/1 19/4/1 18/4/1
f 23/3/1 18/3/1 22/3/1
f 24/4/1 22/4/1 12/4/1
f 24/4/1 23/4/1 22/4/1
f 25/3/1 21/3/1 20/3/1
f 25/4/1 23/4/1 24/4/1
f 25/4/1 19/4/1 23/4/1
f 25/3/1 20/3/1 19/3/1
f 26/4/1 24/4/1 12/4/1
f 26/4/1 12/4/1 1/4/1
f 27/3/1 25/3/1 24/3/1
f 27/4/1 24/4/1 26/4/1
f 28/3/1 25/3/1 27/3/1
f 29/3/1 21/3/1 25/3/1
f 29/3/1 25/3/1 28/3/1
f 30/4/1 26/4/1 1/4/1
f 31/3/1 28/3/1 27/3/1
f 31/4/1 26/4/1 30/4/1
f 31/3/1 27/3/1 26/3/1
f 32/4/1 29/4/1 28/4/1
f 32/3/1 28/3/1 31/3/1
f 32/3/1 31/3/1 30/3/1
f 33/3/1 21/3/1 29/3/1
f 33/4/1 29/4/1 32/4/1
f 34/4/1 30/4/1 1/4/1
f 34/3/1 32/3/1 30/3/1
f 34/3/1 33/3/1 32/3/1
f 35/3/1 33/3/1 34/3/1
f 36/3/1 33/3/1 35/3/1
f 37/3/1 33/3/1 36/3/1
f 38/3/1 36/3/1 35/3/1
f 38/4/1 37/4/1 36/4/1
f 39/3/1 33/3/1 37/3/1
f 39/4/1 37/4/1 38/4/1
f 40/4/1 34/4/1 1/4/1
f 40/4/1 35/4/1 34/4/1
f 41/3/1 39/3/1 38/3/1
f 41/4/1 35/4/1 40/4/1
f 41/3/1 38/3/1 35/3/1
f 42/3/1 41/3/1 40/3/1
f 42/3/1 39/3/1 41/3/1
f 43/3/1 39/3/1 42/3/1
f 44/3/1 39/3/1 43/3/1
f 45/3/1 39/3/1 44/3/1
f 46/3/1 44/3/1 43/3/1
f 46/4/1 45/4/1 44/4/1
f 47/3/1 39/3/1 45/3/1
f 47/4/1 45/4/1 46/4/1
f 48/3/1 42/3/1 40/3/1
f 48/4/1 43/4/1 42/4/1
f 49/3/1 47/3/1 46/3/1
f 49/4/1 43/4/1 48/4/1
f 49/3/1 46/3/1 43/3/1
f 50/4/1 40/4/1 1/4/1
f 50/3/1 48/3/1 40/3/1
f 50/3/1 49/3/1 48/3/1
f 51/3/1 47/3/1 49/3/1
f 51/3/1 49/3/1 50/3/1
f 52/4/1 50/4/1 1/4/1
f 52/4/1 51/4/1 50/4/1
f 53/4/1 51/4/1 52/4/1
f 54/4/1 52/4/1 1/4/1
f 55/3/1 53/3/1 52/3/1
f 55/4/1 52/4/1 54/4/1
f 56/4/1 51/4/1 53/4/1
f 56/3/1 53/3/1 55/3/1
f 56/3/1 55/3/1 54/3/1
f 57/3/1 47/3/1 51/3/1
f 57/4/1 51/4/1 56/4/1
f 58/3/1 56/3/1 54/3/1
f 58/3/1 57/3/1 56/3/1
f 59/3/1 5/3/1 21/3/1
f 59/3/1 57/3/1 58/3/1
f 59/3/1 21/3/1 33/3/1
f 59/3/1 33/3/1 39/3/1
f 59/3/1 39/3/1 47/3/1
f 59/3/1 47/3/1 57/3/1
f 62/2/1 61/2/1 60/2/1
f 63/2/1 61/2/1 62/2/1
f 64/2/1 62/2/1 60/2/1
f 65/2/1 62/2/1 64/2/1
f 69/3/1 67/3/1 66/3/1
f 71/3/1 69/3/1 68/3/1
f 73/3/1 71/3/1 70/3/1
f 74/3/1 73/3/1 72/3/1
f 75/3/1 67/3/1 69/3/1
f 75/3/1 73/3/1 74/3/1
f 75/3/1 69/3/1 71/3/1
f 75/3/1 71/3/1 73/3/1
f 76/3/2 77/3/2 78/3/2
f 78/3/2 77/3/2 79/3/2
f 79/3/2 77/3/2 82/3/2
f 82/3/2 77/3/2 83/3/2
f 80/3/2 81/3/2 84/3/2
f 83/3/2 77/3/2 86/3/2
f 86/3/2 77/3/2 87/3/2
f 84/3/2 85/3/2 88/3/2
f 87/3/2 77/3/2 90/3/2
f 90/3/2 77/3/2 91/3/2
f 88/3/2 89/3/2 92/3/2
f 91/3/2 77/3/2 94/3/2
f 94/3/2 77/3/2 95/3/2
f 92/3/2 93/3/2 96/3/2
f 96/3/2 97/3/2 98/3/2
f 80/3/2 84/3/2 100/3/2
f 98/3/2 99/3/2 100/3/2
f 96/3/2 98/3/2 100/3/2
f 92/3/2 96/3/2 100/3/2
f 84/3/2 88/3/2 100/3/2
f 88/3/2 92/3/2 100/3/2
f 100/3/2 99/3/2 101/3/2
f 95/3/2 77/3/2 102/3/2
f 102/3/2 77/3/2 103/3/2
f 104/2/2 105/2/2 106/2/2
f 104/2/2 106/2/2 109/2/2
f 106/2/2 107/2/2 109/2/2
f 109/2/2 107/2/2 110/2/2
f 108/2/2 109/2/2 112/2/2
f 110/2/2 111/2/2 112/2/2
f 109/2/2 110/2/2 112/2/2
f 112/2/2 111/2/2 113/2/2
f 113/2/2 111/2/2 114/2/2
f 114/2/2 115/2/2 116/2/2
f 113/2/2 114/2/2 116/2/2
f 116/2/2 115/2/2 117/2/2
f 117/2/2 115/2/2 118/2/2
f 118/2/2 119/2/2 120/2/2
f 117/2/2 118/2/2 120/2/2
f 120/2/2 119/2/2 121/2/2
f 121/2/2 119/2/2 122/2/2
f 122/2/2 123/2/2 124/2/2
f 121/2/2 122/2/2 124/2/2
f 124/2/2 123/2/2 125/2/2
f 125/2/2 123/2/2 126/2/2
f 126/2/2 123/2/2 127/2/2
f 127/2/2 123/2/2 128/2/2
f 128/2/2 123/2/2 129/2/2
f 130/2/2 131/2/2 132/2/2
f 132/2/2 131/2/2 133/2/2
f 134/2/2 135/2/2 136/2/2
f 136/2/2 135/2/2 137/2/2
f 138/2/2 139/2/2 140/2/2
f 140/2/2 139/2/2 141/2/2
f 142/3/2 143/3/2 144/3/2
f 144/3/2 143/3/2 145/3/2
f 149/4/3 147/4/3 146/4/3
f 149/3/3 148/3/3 147/3/3
f 150/3/3 148/3/3 149/3/3
f 151/4/3 150/4/3 149/4/3
f 151/3/3 148/3/3 150/3/3
f 152/3/3 148/3/3 151/3/3
f 153/4/3 149/4/3 146/4/3
f 153/4/3 151/4/3 149/4/3
f 153/4/3 152/4/3 151/4/3
f 154/4/3 152/4/3 153/4/3
f 155/4/3 153/4/3 146/4/3
f 156/3/3 154/3/3 153/3/3
f 156/4/3 153/4/3 155/4/3
f 157/4/3 155/4/3 146/4/3
f 157/3/3 156/3/3 155/3/3
f 158/3/3 156/3/3 157/3/3
f 159/4/3 152/4/3 154/4/3
f 159/3/3 156/3/3 158/3/3
f 159/3/3 154/3/3 156/3/3
f 160/3/3 148/3/3 152/3/3
f 160/4/3 152/4/3 159/4/3
f 161/3/3 160/3/3 159/3/3
f 161/3/3 148/3/3 160/3/3
f 162/3/3 148/3/3 161/3/3
f 163/3/3 161/3/3 159/3/3
f 163/4/3 162/4/3 161/4/3
f 164/3/3 148/3/3 162/3/3
f 164/4/3 162/4/3 163/4/3
f 165/4/3 158/4/3 157/4/3
f 165/4/3 157/4/3 146/4/3
f 166/4/3 158/4/3 165/4/3
f 167/3/3 159/3/3 158/3/3
f 167/4/3 158/4/3 166/4/3
f 167/3/3 164/3/3 163/3/3
f 167/3/3 163/3/3 159/3/3
f 168/3/3 164/3/3 167/3/3
f 169/3/3 166/3/3 165/3/3
f 169/4/3 167/4/3 166/4/3
f 169/4/3 168/4/3 167/4/3
f 170/4/3 168/4/3 169/4/3
f 171/3/3 170/3/3 169/3/3
f 171/4/3 168/4/3 170/4/3
f 172/3/3 164/3/3 168/3/3
f 172/4/3 168/4/3 171/4/3
f 173/3/3 171/3/3 169/3/3
f 173/4/3 165/4/3 146/4/3
f 173/3/3 172/3/3 171/3/3
f 173/3/3 169/3/3 165/3/3
f 174/3/3 172/3/3 173/3/3
f 175/3/3 172/3/3 174/3/3
f 176/3/3 172/3/3 175/3/3
f 177/3/3 175/3/3 174/3/3
f 177/4/3 176/4/3 175/4/3
f 178/3/3 172/3/3 176/3/3
f 178/4/3 176/4/3 177/4/3
f 179/4/3 173/4/3 146/4/3
f 179/4/3 174/4/3 173/4/3
f 180/4/3 174/4/3 179/4/3
f 181/4/3 174/4/3 180/4/3
f 182/3/3 178/3/3 177/3/3
f 182/4/3 174/4/3 181/4/3
f 182/3/3 177/3/3 174/3/3
f 183/4/3 179/4/3 146/4/3
f 184/4/3 179/4/3 183/4/3
f 185/4/3 179/4/3 184/4/3
f 186/4/3 179/4/3 185/4/3
f 187/3/3 180/3/3 179/3/3
f 187/4/3 179/4/3 186/4/3
f 188/4/3 181/4/3 180/4/3
f 188/3/3 180/3/3 187/3/3
f 189/4/3 187/4/3 186/4/3
f 189/3/3 186/3/3 185/3/3
f 189/4/3 188/4/3 187/4/3
f 190/4/3 181/4/3 188/4/3
f 190/4/3 188/4/3 189/4/3
f 190/3/3 182/3/3 181/3/3
f 191/4/3 185/4/3 184/4/3
f 191/3/3 184/3/3 183/3/3
f 192/4/3 185/4/3 191/4/3
f 193/3/3 192/3/3 191/3/3
f 194/4/3 185/4/3 192/4/3
f 194/3/3 192/3/3 193/3/3
f 195/3/3 193/3/3 191/3/3
f 195/4/3 194/4/3 193/4/3
f 196/3/3 189/3/3 185/3/3
f 196/4/3 194/4/3 195/4/3
f 196/3/3 190/3/3 189/3/3
f 196/4/3 185/4/3 194/4/3
f 197/3/3 195/3/3 191/3/3
f 197/3/3 196/3/3 195/3/3
f 198/3/3 196/3/3 197/3/3
f 199/3/3 197/3/3 191/3/3
f 199/4/3 198/4/3 197/4/3
f 200/3/3 196/3/3 198/3/3
f 200/4/3 198/4/3 199/4/3
f 201/3/3 191/3/3 183/3/3
f 201/3/3 199/3/3 191/3/3
f 201/3/3 200/3/3 199/3/3
f 202/3/3 164/3/3 172/3/3
f 202/3/3 200/3/3 201/3/3
f 202/3/3 148/3/3 164/3/3
f 202/3/3 172/3/3 178/3/3
f 202/3/3 196/3/3 200/3/3
f 202/3/3 178/3/3 182/3/3
f 202/3/3 182/3/3 190/3/3
f 202/3/3 190/3/3 196/3/3
f 205/2/3 204/2/3 203/2/3
f 206/2/3 204/2/3 205/2/3
f 209/2/3 208/2/3 207/2/3
f 210/2/3 208/2/3 209/2/3
f 213/2/3 212/2/3 211/2/3
f 214/2/3 212/2/3 213/2/3
f 217/2/3 216/2/3 215/2/3
f 218/2/3 216/2/3 217/2/3
f 221/2/3 220/2/3 219/2/3
f 222/2/3 220/2/3 221/2/3
f 225/2/3 224/2/3 223/2/3
f 226/2/3 224/2/3 225/2/3
f 227/3/4 228/3/4 230/3/4
f 229/3/4 230/3/4 232/3/4
f 231/3/4 232/3/4 234/3/4
f 233/3/4 234/3/4 235/3/4
f 230/3/4 228/3/4 236/3/4
f 235/3/4 234/3/4 236/3/4
f 232/3/4 230/3/4 236/3/4
f 234/3/4 232/3/4 236/3/4
f 237/2/4 238/2/4 239/2/4
f 239/2/4 238/2/4 240/2/4
f 237/2/4 239/2/4 241/2/4
f 241/2/4 239/2/4 242/2/4
f 237/2/4 241/2/4 243/2/4
f 243/2/4 241/2/4 244/2/4
f 244/2/4 241/2/4 245/2/4
f 245/2/4 241/2/4 246/2/4
f 244/2/4 245/2/4 247/2/4
f 247/2/4 245/2/4 248/2/4
f 249/2/4 250/2/4 251/2/4
f 251/2/4 250/2/4 252/2/4
f 253/2/4 254/2/4 255/2/4
f 255/2/4 254/2/4 256/2/4
f 257/2/4 258/2/4 259/2/4
f 259/2/4 258/2/4 260/2/4
f 261/2/4 262/2/4 263/2/4
f 263/2/4 262/2/4 264/2/4
f 265/2/4 266/2/4 267/2/4
f 267/2/4 266/2/4 268/2/4
f 269/2/4 270/2/4 271/2/4
f 271/2/4 270/2/4 272/2/4
f 273/2/4 274/2/4 275/2/4
f 275/2/4 274/2/4 276/2/4
f 277/2/4 278/2/4 279/2/4
f 279/2/4 278/2/4 280/2/4
f 281/3/4 282/3/4 283/3/4
f 283/3/4 282/3/4 284/3/4
f 284/3/4 282/3/4 285/3/4
f 281/3/4 283/3/4 286/3/4
f 283/1/4 284/1/4 286/1/4
f 286/1/4 284/1/4 287/1/4
f 281/3/4 286/3/4 289/3/4
f 287/3/4 288/3/4 289/3/4
f 286/3/4 287/3/4 289/3/4
f 289/3/4 288/3/4 290/3/4
f 294/4/5 292/4/5 291/4/5
f 295/3/5 293/3/5 292/3/5
f 295/4/5 292/4/5 294/4/5
f 296/3/5 295/3/5 294/3/5
f 297/3/5 293/3/5 295/3/5
f 297/3/5 295/3/5 296/3/5
f 298/4/5 294/4/5 291/4/5
f 299/3/5 296/3/5 294/3/5
f 299/4/5 294/4/5 298/4/5
f 300/3/5 299/3/5 298/3/5
f 301/3/5 296/3/5 299/3/5
f 301/3/5 299/3/5 300/3/5
f 302/2/5 297/2/5 296/2/5
f 302/3/5 296/3/5 301/3/5
f 303/2/5 297/2/5 302/2/5
f 304/4/5 301/4/5 300/4/5
f 305/3/5 302/3/5 301/3/5
f 305/4/5 301/4/5 304/4/5
f 305/3/5 303/3/5 302/3/5
f 306/2/5 297/2/5 303/2/5
f 306/3/5 303/3/5 305/3/5
f 306/3/5 305/3/5 304/3/5
f 307/3/5 293/3/5 297/3/5
f 307/2/5 297/2/5 306/2/5
f 308/3/5 306/3/5 304/3/5
f 308/3/5 307/3/5 306/3/5
f 309/3/5 293/3/5 307/3/5
f 309/3/5 307/3/5 308/3/5
f 312/2/5 311/2/5 310/2/5
f 313/2/5 311/2/5 312/2/5
f 316/2/5 315/2/5 314/2/5
f 317/2/5 315/2/5 316/2/5
f 320/2/5 319/2/5 318/2/5
f 321/2/5 319/2/5 320/2/5
f 324/2/5 323/2/5 322/2/5
f 325/2/5 323/2/5 324/2/5
f 328/2/5 327/2/5 326/2/5
f 329/2/5 327/2/5 328/2/5
f 330/1/6 331/1/6 333/1/6
f 333/1/6 331/1/6 334/1/6
f 332/1/6 333/1/6 334/1/6
f 332/1/6 334/1/6 336/1/6
f 334/1/6 335/1/6 336/1/6
f 336/1/6 335/1/6 337/1/6
f 338/2/6 339/2/6 340/2/6
f 340/2/6 339/2/6 341/2/6
f 342/2/6 343/2/6 344/2/6
f 344/2/6 343/2/6 345/2/6
f 346/2/6 347/2/6 348/2/6
f 348/2/6 347/2/6 349/2/6
f 350/2/6 351/2/6 352/2/6
f 352/2/6 351/2/6 353/2/6
f 354/2/6 355/2/6 356/2/6
f 356/2/6 355/2/6 357/2/6
f 358/2/6 359/2/6 360/2/6
f 360/2/6 359/2/6 361/2/6
f 361/2/6 359/2/6 362/2/6
f 362/2/6 359/2/6 363/2/6
f 364/2/6 365/2/6 366/2/6
f 366/2/6 365/2/6 367/2/6
f 368/2/6 369/2/6 370/2/6
f 370/2/6 369/2/6 371/2/6
f 372/2/6 373/2/6 374/2/6
f 374/2/6 373/2/6 375/2/6
f 376/2/6 377/2/6 378/2/6
f 378/2/6 377/2/6 379/2/6
f 380/2/6 381/2/6 382/2/6
f 382/2/6 381/2/6 383/2/6
f 384/3/6 385/3/6 386/3/6
f 386/3/6 385/3/6 387/3/6
f 384/3/6 386/3/6 388/3/6
f 388/3/6 386/3/6 389/3/6
f 384/3/6 388/3/6 391/3/6
f 389/2/6 390/2/6 391/2/6
f 388/2/6 389/2/6 391/2/6
f 391/2/6 390/2/6 392/2/6
f 392/2/6 390/2/6 393/2/6
f 384/3/6 391/3/6 394/3/6
f 391/3/6 392/3/6 394/3/6
f 394/3/6 392/3/6 395/3/6
f 387/3/6 385/3/6 396/3/6
f 396/3/6 385/3/6 397/3/6
