# MagicaVoxel @ Ephtracy

# group
g 4x2 second (1)-6

# material
mtllib 4x2 second (1)-6.mtl
usemtl palette

# normals
vn -1 0 0
vn 1 0 0
vn 0 0 1
vn 0 0 -1
vn 0 -1 0
vn 0 1 0

# texcoords
vt 0.958984 0.5
vt 0.966797 0.5
vt 0.994141 0.5

# verts
v -63 0 63
v -63 0 -63
v -63 2 63
v -63 2 53
v -63 2 43
v -63 2 34
v -63 2 24
v -63 2 15
v -63 2 5
v -63 2 -4
v -63 2 -14
v -63 2 -23
v -63 2 -33
v -63 2 -42
v -63 2 -52
v -63 2 -61
v -63 3 63
v -63 3 53
v -63 3 43
v -63 3 34
v -63 3 24
v -63 3 15
v -63 3 5
v -63 3 -4
v -63 3 -14
v -63 3 -23
v -63 3 -33
v -63 3 -42
v -63 3 -52
v -63 3 -61
v -63 80 -61
v -63 80 -63
v -44 3 63
v -44 3 62
v -44 13 63
v -44 13 62
v -40 2 53
v -40 2 48
v -40 3 58
v -40 3 53
v -40 4 58
v -40 4 48
v -33 2 43
v -33 2 34
v -33 3 43
v -33 3 34
v -31 3 63
v -31 3 58
v -31 4 58
v -31 4 53
v -31 5 63
v -31 5 53
v -28 2 53
v -28 2 43
v -28 3 53
v -28 3 43
v -28 3 42
v -28 4 53
v -28 4 42
v -23 2 63
v -23 2 53
v -23 3 63
v -23 3 53
v -15 2 53
v -15 2 43
v -15 3 53
v -15 3 43
v 61 3 63
v 61 3 -61
v 61 80 63
v 61 80 -61
v -43 2 53
v -43 2 43
v -43 2 34
v -43 3 53
v -43 3 43
v -43 3 34
v -34 2 63
v -34 2 58
v -34 3 63
v -34 3 62
v -34 3 58
v -34 13 63
v -34 13 62
v -30 2 58
v -30 2 48
v -30 3 58
v -30 3 53
v -30 4 53
v -30 4 48
v -21 4 63
v -21 4 53
v -21 5 63
v -21 5 53
v -18 2 53
v -18 2 43
v -18 3 43
v -18 3 42
v -18 4 53
v -18 4 42
v -13 3 63
v -13 3 53
v -13 4 63
v -13 4 53
v 63 0 63
v 63 0 -63
v 63 80 63
v 63 80 -63
v -63 0 63
v -63 2 63
v -63 3 63
v -44 3 63
v -44 13 63
v -34 2 63
v -34 3 63
v -34 13 63
v -31 3 63
v -31 5 63
v -23 2 63
v -23 3 63
v -21 4 63
v -21 5 63
v -13 3 63
v -13 4 63
v 61 2 63
v 61 3 63
v 61 80 63
v 63 0 63
v 63 80 63
v -40 3 58
v -40 4 58
v -34 2 58
v -34 3 58
v -31 3 58
v -31 4 58
v -30 2 58
v -30 3 58
v -28 2 53
v -28 3 53
v -23 2 53
v -23 3 53
v -33 2 43
v -33 3 43
v -28 2 43
v -28 3 43
v -18 2 43
v -18 3 43
v -15 2 43
v -15 3 43
v -43 2 34
v -43 3 34
v -34 2 34
v -34 3 34
v -33 2 34
v -33 3 34
v -63 3 -61
v -63 80 -61
v 61 3 -61
v 61 80 -61
v -44 3 62
v -44 13 62
v -34 3 62
v -34 13 62
v -43 2 53
v -43 3 53
v -40 2 53
v -40 3 53
v -31 4 53
v -31 5 53
v -30 3 53
v -30 4 53
v -28 3 53
v -28 4 53
v -21 4 53
v -21 5 53
v -18 2 53
v -18 4 53
v -15 2 53
v -15 3 53
v -13 3 53
v -13 4 53
v -40 2 48
v -40 4 48
v -30 2 48
v -30 4 48
v -28 3 42
v -28 4 42
v -18 3 42
v -18 4 42
v -63 0 -63
v -63 80 -63
v 63 0 -63
v 63 80 -63
v -63 0 63
v 63 0 63
v -63 0 -63
v 63 0 -63
v -31 3 63
v -23 3 63
v -31 3 58
v -30 3 58
v -30 3 53
v -28 3 53
v -23 3 53
v -34 2 63
v -23 2 63
v -34 2 58
v -30 2 58
v -43 2 53
v -40 2 53
v -28 2 53
v -23 2 53
v -18 2 53
v -15 2 53
v -40 2 48
v -30 2 48
v -43 2 43
v -33 2 43
v -28 2 43
v -18 2 43
v -15 2 43
v -43 2 34
v -34 2 34
v -33 2 34
v -63 3 63
v -44 3 63
v -13 3 63
v 61 3 63
v -44 3 62
v -34 3 62
v -40 3 58
v -34 3 58
v -63 3 53
v -62 3 53
v -53 3 53
v -43 3 53
v -40 3 53
v -15 3 53
v -13 3 53
v -5 3 53
v 4 3 53
v 14 3 53
v 23 3 53
v 33 3 53
v 42 3 53
v 52 3 53
v -63 3 43
v -62 3 43
v -53 3 43
v -43 3 43
v -33 3 43
v -28 3 43
v -18 3 43
v -15 3 43
v -5 3 43
v 4 3 43
v 14 3 43
v 23 3 43
v 33 3 43
v 42 3 43
v 52 3 43
v -28 3 42
v -18 3 42
v -63 3 34
v -62 3 34
v -53 3 34
v -43 3 34
v -34 3 34
v -33 3 34
v -24 3 34
v -15 3 34
v -5 3 34
v 4 3 34
v 14 3 34
v 23 3 34
v 33 3 34
v 42 3 34
v 52 3 34
v -63 3 24
v -62 3 24
v -53 3 24
v -43 3 24
v -34 3 24
v -24 3 24
v -15 3 24
v -5 3 24
v 4 3 24
v 14 3 24
v 23 3 24
v 33 3 24
v 42 3 24
v 52 3 24
v -63 3 15
v -62 3 15
v -53 3 15
v -43 3 15
v -34 3 15
v -24 3 15
v -15 3 15
v -5 3 15
v 4 3 15
v 14 3 15
v 23 3 15
v 33 3 15
v 42 3 15
v 52 3 15
v -63 3 5
v -62 3 5
v -53 3 5
v -43 3 5
v -34 3 5
v -24 3 5
v -15 3 5
v -5 3 5
v 4 3 5
v 14 3 5
v 23 3 5
v 33 3 5
v 42 3 5
v 52 3 5
v -63 3 -4
v -62 3 -4
v -53 3 -4
v -43 3 -4
v -34 3 -4
v -24 3 -4
v -15 3 -4
v -5 3 -4
v 4 3 -4
v 14 3 -4
v 23 3 -4
v 33 3 -4
v 42 3 -4
v 52 3 -4
v -63 3 -14
v -62 3 -14
v -53 3 -14
v -43 3 -14
v -34 3 -14
v -24 3 -14
v -15 3 -14
v -5 3 -14
v 4 3 -14
v 14 3 -14
v 23 3 -14
v 33 3 -14
v 42 3 -14
v 52 3 -14
v -63 3 -23
v -62 3 -23
v -53 3 -23
v -43 3 -23
v -34 3 -23
v -24 3 -23
v -15 3 -23
v -5 3 -23
v 4 3 -23
v 14 3 -23
v 23 3 -23
v 33 3 -23
v 42 3 -23
v 52 3 -23
v -63 3 -33
v -62 3 -33
v -53 3 -33
v -43 3 -33
v -34 3 -33
v -24 3 -33
v -15 3 -33
v -5 3 -33
v 4 3 -33
v 14 3 -33
v 23 3 -33
v 33 3 -33
v 42 3 -33
v 52 3 -33
v -63 3 -42
v -62 3 -42
v -53 3 -42
v -43 3 -42
v -34 3 -42
v -24 3 -42
v -15 3 -42
v -5 3 -42
v 4 3 -42
v 14 3 -42
v 23 3 -42
v 33 3 -42
v 42 3 -42
v 52 3 -42
v -63 3 -52
v -62 3 -52
v -53 3 -52
v -43 3 -52
v -34 3 -52
v -24 3 -52
v -15 3 -52
v -5 3 -52
v 4 3 -52
v 14 3 -52
v 23 3 -52
v 33 3 -52
v 42 3 -52
v 52 3 -52
v -63 3 -61
v 61 3 -61
v -21 4 63
v -13 4 63
v -40 4 58
v -31 4 58
v -31 4 53
v -30 4 53
v -28 4 53
v -21 4 53
v -18 4 53
v -13 4 53
v -40 4 48
v -30 4 48
v -28 4 42
v -18 4 42
v -31 5 63
v -21 5 63
v -31 5 53
v -21 5 53
v -44 13 63
v -34 13 63
v -44 13 62
v -34 13 62
v 61 80 63
v 63 80 63
v -63 80 -61
v 61 80 -61
v -63 80 -63
v 63 80 -63

# faces
f 3/2/1 2/2/1 1/2/1
f 4/2/1 2/2/1 3/2/1
f 5/2/1 2/2/1 4/2/1
f 6/2/1 2/2/1 5/2/1
f 7/2/1 2/2/1 6/2/1
f 8/2/1 2/2/1 7/2/1
f 9/2/1 2/2/1 8/2/1
f 10/2/1 2/2/1 9/2/1
f 11/2/1 2/2/1 10/2/1
f 12/2/1 2/2/1 11/2/1
f 13/2/1 2/2/1 12/2/1
f 14/2/1 2/2/1 13/2/1
f 15/2/1 2/2/1 14/2/1
f 16/2/1 2/2/1 15/2/1
f 17/1/1 4/1/1 3/1/1
f 18/3/1 5/3/1 4/3/1
f 18/1/1 4/1/1 17/1/1
f 19/1/1 6/1/1 5/1/1
f 19/3/1 5/3/1 18/3/1
f 20/3/1 7/3/1 6/3/1
f 20/1/1 6/1/1 19/1/1
f 21/1/1 8/1/1 7/1/1
f 21/3/1 7/3/1 20/3/1
f 22/3/1 9/3/1 8/3/1
f 22/1/1 8/1/1 21/1/1
f 23/1/1 10/1/1 9/1/1
f 23/3/1 9/3/1 22/3/1
f 24/3/1 11/3/1 10/3/1
f 24/1/1 10/1/1 23/1/1
f 25/1/1 12/1/1 11/1/1
f 25/3/1 11/3/1 24/3/1
f 26/3/1 13/3/1 12/3/1
f 26/1/1 12/1/1 25/1/1
f 27/1/1 14/1/1 13/1/1
f 27/3/1 13/3/1 26/3/1
f 28/3/1 15/3/1 14/3/1
f 28/1/1 14/1/1 27/1/1
f 29/1/1 16/1/1 15/1/1
f 29/3/1 15/3/1 28/3/1
f 30/2/1 2/2/1 16/2/1
f 30/1/1 16/1/1 29/1/1
f 31/2/1 2/2/1 30/2/1
f 32/2/1 2/2/1 31/2/1
f 35/3/1 34/3/1 33/3/1
f 36/3/1 34/3/1 35/3/1
f 40/3/1 38/3/1 37/3/1
f 41/3/1 40/3/1 39/3/1
f 42/3/1 38/3/1 40/3/1
f 42/3/1 40/3/1 41/3/1
f 45/1/1 44/1/1 43/1/1
f 46/1/1 44/1/1 45/1/1
f 49/1/1 48/1/1 47/1/1
f 51/1/1 49/1/1 47/1/1
f 51/1/1 50/1/1 49/1/1
f 52/1/1 50/1/1 51/1/1
f 55/1/1 54/1/1 53/1/1
f 56/1/1 54/1/1 55/1/1
f 58/1/1 56/1/1 55/1/1
f 58/1/1 57/1/1 56/1/1
f 59/1/1 57/1/1 58/1/1
f 62/1/1 61/1/1 60/1/1
f 63/1/1 61/1/1 62/1/1
f 66/3/1 65/3/1 64/3/1
f 67/3/1 65/3/1 66/3/1
f 70/2/1 69/2/1 68/2/1
f 71/2/1 69/2/1 70/2/1
f 72/3/2 73/3/2 75/3/2
f 73/1/2 74/1/2 76/1/2
f 75/3/2 73/3/2 76/3/2
f 76/1/2 74/1/2 77/1/2
f 78/1/2 79/1/2 80/1/2
f 80/1/2 79/1/2 81/1/2
f 81/1/2 79/1/2 82/1/2
f 80/3/2 81/3/2 83/3/2
f 83/3/2 81/3/2 84/3/2
f 85/3/2 86/3/2 87/3/2
f 87/3/2 86/3/2 88/3/2
f 88/3/2 86/3/2 89/3/2
f 89/3/2 86/3/2 90/3/2
f 91/1/2 92/1/2 93/1/2
f 93/1/2 92/1/2 94/1/2
f 95/1/2 96/1/2 97/1/2
f 95/1/2 97/1/2 99/1/2
f 97/1/2 98/1/2 99/1/2
f 99/1/2 98/1/2 100/1/2
f 101/1/2 102/1/2 103/1/2
f 103/1/2 102/1/2 104/1/2
f 105/2/2 106/2/2 107/2/2
f 107/2/2 106/2/2 108/2/2
f 112/1/3 111/1/3 110/1/3
f 114/2/3 110/2/3 109/2/3
f 114/1/3 112/1/3 110/1/3
f 115/3/3 113/3/3 112/3/3
f 115/1/3 112/1/3 114/1/3
f 116/3/3 113/3/3 115/3/3
f 119/2/3 114/2/3 109/2/3
f 120/1/3 118/1/3 117/1/3
f 121/1/3 118/1/3 120/1/3
f 121/1/3 120/1/3 119/1/3
f 122/1/3 118/1/3 121/1/3
f 123/1/3 121/1/3 119/1/3
f 124/1/3 121/1/3 123/1/3
f 125/2/3 119/2/3 109/2/3
f 125/1/3 123/1/3 119/1/3
f 126/1/3 123/1/3 125/1/3
f 128/2/3 126/2/3 125/2/3
f 128/2/3 127/2/3 126/2/3
f 128/2/3 125/2/3 109/2/3
f 129/2/3 127/2/3 128/2/3
f 133/3/3 131/3/3 130/3/3
f 134/3/3 131/3/3 133/3/3
f 134/3/3 133/3/3 132/3/3
f 135/3/3 131/3/3 134/3/3
f 136/3/3 134/3/3 132/3/3
f 137/3/3 134/3/3 136/3/3
f 140/1/3 139/1/3 138/1/3
f 141/1/3 139/1/3 140/1/3
f 144/1/3 143/1/3 142/1/3
f 145/1/3 143/1/3 144/1/3
f 148/1/3 147/1/3 146/1/3
f 149/1/3 147/1/3 148/1/3
f 152/1/3 151/1/3 150/1/3
f 153/1/3 151/1/3 152/1/3
f 154/3/3 153/3/3 152/3/3
f 155/3/3 153/3/3 154/3/3
f 158/2/3 157/2/3 156/2/3
f 159/2/3 157/2/3 158/2/3
f 160/3/4 161/3/4 162/3/4
f 162/3/4 161/3/4 163/3/4
f 164/1/4 165/1/4 166/1/4
f 166/1/4 165/1/4 167/1/4
f 168/1/4 169/1/4 171/1/4
f 170/1/4 171/1/4 172/1/4
f 171/1/4 169/1/4 173/1/4
f 172/1/4 171/1/4 173/1/4
f 173/1/4 169/1/4 174/1/4
f 174/1/4 169/1/4 175/1/4
f 176/1/4 177/1/4 178/1/4
f 178/1/4 177/1/4 179/1/4
f 179/1/4 177/1/4 180/1/4
f 180/1/4 177/1/4 181/1/4
f 182/3/4 183/3/4 184/3/4
f 184/3/4 183/3/4 185/3/4
f 186/1/4 187/1/4 188/1/4
f 188/1/4 187/1/4 189/1/4
f 190/2/4 191/2/4 192/2/4
f 192/2/4 191/2/4 193/2/4
f 196/2/5 195/2/5 194/2/5
f 197/2/5 195/2/5 196/2/5
f 200/1/5 199/1/5 198/1/5
f 201/1/5 199/1/5 200/1/5
f 202/1/5 199/1/5 201/1/5
f 203/1/5 199/1/5 202/1/5
f 204/1/5 199/1/5 203/1/5
f 205/2/6 206/2/6 207/2/6
f 207/2/6 206/2/6 208/2/6
f 208/2/6 206/2/6 211/2/6
f 211/2/6 206/2/6 212/2/6
f 209/2/6 210/2/6 215/2/6
f 208/2/6 211/2/6 216/2/6
f 209/2/6 215/2/6 217/2/6
f 215/2/6 216/2/6 217/2/6
f 217/2/6 216/2/6 218/2/6
f 216/2/6 211/2/6 219/2/6
f 218/2/6 216/2/6 219/2/6
f 213/2/6 214/2/6 220/2/6
f 220/2/6 214/2/6 221/2/6
f 217/2/6 218/2/6 222/2/6
f 222/2/6 218/2/6 223/2/6
f 223/2/6 218/2/6 224/2/6
f 225/1/6 226/1/6 229/1/6
f 229/1/6 230/1/6 231/1/6
f 231/1/6 230/1/6 232/1/6
f 225/1/6 229/1/6 233/1/6
f 229/1/6 231/1/6 233/1/6
f 233/1/6 231/1/6 234/1/6
f 234/1/6 231/1/6 235/1/6
f 235/1/6 231/1/6 236/1/6
f 236/1/6 231/1/6 237/1/6
f 227/1/6 228/1/6 239/1/6
f 239/1/6 228/1/6 240/1/6
f 240/1/6 228/1/6 241/1/6
f 241/1/6 228/1/6 242/1/6
f 242/1/6 228/1/6 243/1/6
f 243/1/6 228/1/6 244/1/6
f 244/1/6 228/1/6 245/1/6
f 245/1/6 228/1/6 246/1/6
f 233/3/6 234/3/6 247/3/6
f 234/1/6 235/1/6 248/1/6
f 247/3/6 234/3/6 248/3/6
f 235/3/6 236/3/6 249/3/6
f 248/1/6 235/1/6 249/1/6
f 249/3/6 236/3/6 250/3/6
f 238/3/6 239/3/6 254/3/6
f 239/3/6 240/3/6 254/3/6
f 240/1/6 241/1/6 255/1/6
f 254/3/6 240/3/6 255/3/6
f 241/3/6 242/3/6 256/3/6
f 255/1/6 241/1/6 256/1/6
f 242/1/6 243/1/6 257/1/6
f 256/3/6 242/3/6 257/3/6
f 243/3/6 244/3/6 258/3/6
f 257/1/6 243/1/6 258/1/6
f 244/1/6 245/1/6 259/1/6
f 258/3/6 244/3/6 259/3/6
f 245/3/6 246/3/6 260/3/6
f 259/1/6 245/1/6 260/1/6
f 246/1/6 228/1/6 261/1/6
f 260/3/6 246/3/6 261/3/6
f 251/1/6 252/1/6 262/1/6
f 259/1/6 260/1/6 263/1/6
f 258/1/6 259/1/6 263/1/6
f 260/1/6 261/1/6 263/1/6
f 253/1/6 254/1/6 263/1/6
f 254/1/6 255/1/6 263/1/6
f 257/1/6 258/1/6 263/1/6
f 256/1/6 257/1/6 263/1/6
f 255/1/6 256/1/6 263/1/6
f 247/1/6 248/1/6 264/1/6
f 249/1/6 250/1/6 264/1/6
f 248/1/6 249/1/6 264/1/6
f 264/1/6 250/1/6 265/1/6
f 265/1/6 250/1/6 266/1/6
f 266/1/6 250/1/6 267/1/6
f 262/1/6 263/1/6 269/1/6
f 251/1/6 262/1/6 269/1/6
f 269/1/6 263/1/6 270/1/6
f 263/1/6 261/1/6 271/1/6
f 270/1/6 263/1/6 271/1/6
f 271/1/6 261/1/6 272/1/6
f 272/1/6 261/1/6 273/1/6
f 273/1/6 261/1/6 274/1/6
f 274/1/6 261/1/6 275/1/6
f 275/1/6 261/1/6 276/1/6
f 276/1/6 261/1/6 277/1/6
f 261/1/6 228/1/6 278/1/6
f 277/1/6 261/1/6 278/1/6
f 264/3/6 265/3/6 279/3/6
f 265/1/6 266/1/6 280/1/6
f 279/3/6 265/3/6 280/3/6
f 266/3/6 267/3/6 281/3/6
f 280/1/6 266/1/6 281/1/6
f 267/1/6 268/1/6 282/1/6
f 281/3/6 267/3/6 282/3/6
f 269/3/6 270/3/6 283/3/6
f 282/1/6 268/1/6 283/1/6
f 268/3/6 269/3/6 283/3/6
f 270/1/6 271/1/6 284/1/6
f 283/3/6 270/3/6 284/3/6
f 271/3/6 272/3/6 285/3/6
f 284/1/6 271/1/6 285/1/6
f 272/1/6 273/1/6 286/1/6
f 285/3/6 272/3/6 286/3/6
f 273/3/6 274/3/6 287/3/6
f 286/1/6 273/1/6 287/1/6
f 274/1/6 275/1/6 288/1/6
f 287/3/6 274/3/6 288/3/6
f 275/3/6 276/3/6 289/3/6
f 288/1/6 275/1/6 289/1/6
f 276/1/6 277/1/6 290/1/6
f 289/3/6 276/3/6 290/3/6
f 277/3/6 278/3/6 291/3/6
f 290/1/6 277/1/6 291/1/6
f 278/1/6 228/1/6 292/1/6
f 291/3/6 278/3/6 292/3/6
f 280/1/6 281/1/6 293/1/6
f 279/1/6 280/1/6 293/1/6
f 291/1/6 292/1/6 293/1/6
f 287/1/6 288/1/6 293/1/6
f 286/1/6 287/1/6 293/1/6
f 285/1/6 286/1/6 293/1/6
f 284/1/6 285/1/6 293/1/6
f 283/1/6 284/1/6 293/1/6
f 282/1/6 283/1/6 293/1/6
f 289/1/6 290/1/6 293/1/6
f 288/1/6 289/1/6 293/1/6
f 281/1/6 282/1/6 293/1/6
f 290/1/6 291/1/6 293/1/6
f 293/1/6 292/1/6 294/1/6
f 294/1/6 292/1/6 295/1/6
f 295/1/6 292/1/6 296/1/6
f 296/1/6 292/1/6 297/1/6
f 297/1/6 292/1/6 298/1/6
f 298/1/6 292/1/6 299/1/6
f 299/1/6 292/1/6 300/1/6
f 300/1/6 292/1/6 301/1/6
f 301/1/6 292/1/6 302/1/6
f 302/1/6 292/1/6 303/1/6
f 303/1/6 292/1/6 304/1/6
f 304/1/6 292/1/6 305/1/6
f 292/1/6 228/1/6 306/1/6
f 305/1/6 292/1/6 306/1/6
f 293/3/6 294/3/6 307/3/6
f 294/1/6 295/1/6 308/1/6
f 307/3/6 294/3/6 308/3/6
f 295/3/6 296/3/6 309/3/6
f 308/1/6 295/1/6 309/1/6
f 296/1/6 297/1/6 310/1/6
f 309/3/6 296/3/6 310/3/6
f 297/3/6 298/3/6 311/3/6
f 310/1/6 297/1/6 311/1/6
f 298/1/6 299/1/6 312/1/6
f 311/3/6 298/3/6 312/3/6
f 299/3/6 300/3/6 313/3/6
f 312/1/6 299/1/6 313/1/6
f 300/1/6 301/1/6 314/1/6
f 313/3/6 300/3/6 314/3/6
f 301/3/6 302/3/6 315/3/6
f 314/1/6 301/1/6 315/1/6
f 302/1/6 303/1/6 316/1/6
f 315/3/6 302/3/6 316/3/6
f 303/3/6 304/3/6 317/3/6
f 316/1/6 303/1/6 317/1/6
f 304/1/6 305/1/6 318/1/6
f 317/3/6 304/3/6 318/3/6
f 305/3/6 306/3/6 319/3/6
f 318/1/6 305/1/6 319/1/6
f 306/1/6 228/1/6 320/1/6
f 319/3/6 306/3/6 320/3/6
f 316/1/6 317/1/6 321/1/6
f 318/1/6 319/1/6 321/1/6
f 319/1/6 320/1/6 321/1/6
f 317/1/6 318/1/6 321/1/6
f 315/1/6 316/1/6 321/1/6
f 314/1/6 315/1/6 321/1/6
f 313/1/6 314/1/6 321/1/6
f 312/1/6 313/1/6 321/1/6
f 311/1/6 312/1/6 321/1/6
f 310/1/6 311/1/6 321/1/6
f 309/1/6 310/1/6 321/1/6
f 308/1/6 309/1/6 321/1/6
f 307/1/6 308/1/6 321/1/6
f 321/1/6 320/1/6 322/1/6
f 322/1/6 320/1/6 323/1/6
f 323/1/6 320/1/6 324/1/6
f 324/1/6 320/1/6 325/1/6
f 325/1/6 320/1/6 326/1/6
f 326/1/6 320/1/6 327/1/6
f 327/1/6 320/1/6 328/1/6
f 328/1/6 320/1/6 329/1/6
f 329/1/6 320/1/6 330/1/6
f 330/1/6 320/1/6 331/1/6
f 331/1/6 320/1/6 332/1/6
f 332/1/6 320/1/6 333/1/6
f 320/1/6 228/1/6 334/1/6
f 333/1/6 320/1/6 334/1/6
f 321/3/6 322/3/6 335/3/6
f 322/1/6 323/1/6 336/1/6
f 335/3/6 322/3/6 336/3/6
f 323/3/6 324/3/6 337/3/6
f 336/1/6 323/1/6 337/1/6
f 324/1/6 325/1/6 338/1/6
f 337/3/6 324/3/6 338/3/6
f 325/3/6 326/3/6 339/3/6
f 338/1/6 325/1/6 339/1/6
f 326/1/6 327/1/6 340/1/6
f 339/3/6 326/3/6 340/3/6
f 327/3/6 328/3/6 341/3/6
f 340/1/6 327/1/6 341/1/6
f 328/1/6 329/1/6 342/1/6
f 341/3/6 328/3/6 342/3/6
f 329/3/6 330/3/6 343/3/6
f 342/1/6 329/1/6 343/1/6
f 330/1/6 331/1/6 344/1/6
f 343/3/6 330/3/6 344/3/6
f 331/3/6 332/3/6 345/3/6
f 344/1/6 331/1/6 345/1/6
f 332/1/6 333/1/6 346/1/6
f 345/3/6 332/3/6 346/3/6
f 333/3/6 334/3/6 347/3/6
f 346/1/6 333/1/6 347/1/6
f 334/1/6 228/1/6 348/1/6
f 347/3/6 334/3/6 348/3/6
f 344/1/6 345/1/6 349/1/6
f 346/1/6 347/1/6 349/1/6
f 347/1/6 348/1/6 349/1/6
f 345/1/6 346/1/6 349/1/6
f 343/1/6 344/1/6 349/1/6
f 342/1/6 343/1/6 349/1/6
f 341/1/6 342/1/6 349/1/6
f 340/1/6 341/1/6 349/1/6
f 339/1/6 340/1/6 349/1/6
f 338/1/6 339/1/6 349/1/6
f 337/1/6 338/1/6 349/1/6
f 336/1/6 337/1/6 349/1/6
f 335/1/6 336/1/6 349/1/6
f 349/1/6 348/1/6 350/1/6
f 350/1/6 348/1/6 351/1/6
f 351/1/6 348/1/6 352/1/6
f 352/1/6 348/1/6 353/1/6
f 353/1/6 348/1/6 354/1/6
f 354/1/6 348/1/6 355/1/6
f 355/1/6 348/1/6 356/1/6
f 356/1/6 348/1/6 357/1/6
f 357/1/6 348/1/6 358/1/6
f 358/1/6 348/1/6 359/1/6
f 359/1/6 348/1/6 360/1/6
f 360/1/6 348/1/6 361/1/6
f 348/1/6 228/1/6 362/1/6
f 361/1/6 348/1/6 362/1/6
f 349/3/6 350/3/6 363/3/6
f 350/1/6 351/1/6 364/1/6
f 363/3/6 350/3/6 364/3/6
f 351/3/6 352/3/6 365/3/6
f 364/1/6 351/1/6 365/1/6
f 352/1/6 353/1/6 366/1/6
f 365/3/6 352/3/6 366/3/6
f 353/3/6 354/3/6 367/3/6
f 366/1/6 353/1/6 367/1/6
f 354/1/6 355/1/6 368/1/6
f 367/3/6 354/3/6 368/3/6
f 355/3/6 356/3/6 369/3/6
f 368/1/6 355/1/6 369/1/6
f 356/1/6 357/1/6 370/1/6
f 369/3/6 356/3/6 370/3/6
f 357/3/6 358/3/6 371/3/6
f 370/1/6 357/1/6 371/1/6
f 358/1/6 359/1/6 372/1/6
f 371/3/6 358/3/6 372/3/6
f 359/3/6 360/3/6 373/3/6
f 372/1/6 359/1/6 373/1/6
f 360/1/6 361/1/6 374/1/6
f 373/3/6 360/3/6 374/3/6
f 361/3/6 362/3/6 375/3/6
f 374/1/6 361/1/6 375/1/6
f 362/1/6 228/1/6 376/1/6
f 375/3/6 362/3/6 376/3/6
f 372/1/6 373/1/6 377/1/6
f 374/1/6 375/1/6 377/1/6
f 375/1/6 376/1/6 377/1/6
f 373/1/6 374/1/6 377/1/6
f 371/1/6 372/1/6 377/1/6
f 370/1/6 371/1/6 377/1/6
f 369/1/6 370/1/6 377/1/6
f 368/1/6 369/1/6 377/1/6
f 367/1/6 368/1/6 377/1/6
f 366/1/6 367/1/6 377/1/6
f 365/1/6 366/1/6 377/1/6
f 364/1/6 365/1/6 377/1/6
f 363/1/6 364/1/6 377/1/6
f 377/1/6 376/1/6 378/1/6
f 378/1/6 376/1/6 379/1/6
f 379/1/6 376/1/6 380/1/6
f 380/1/6 376/1/6 381/1/6
f 381/1/6 376/1/6 382/1/6
f 382/1/6 376/1/6 383/1/6
f 383/1/6 376/1/6 384/1/6
f 384/1/6 376/1/6 385/1/6
f 385/1/6 376/1/6 386/1/6
f 386/1/6 376/1/6 387/1/6
f 387/1/6 376/1/6 388/1/6
f 388/1/6 376/1/6 389/1/6
f 376/1/6 228/1/6 390/1/6
f 389/1/6 376/1/6 390/1/6
f 377/3/6 378/3/6 391/3/6
f 378/1/6 379/1/6 392/1/6
f 391/3/6 378/3/6 392/3/6
f 379/3/6 380/3/6 393/3/6
f 392/1/6 379/1/6 393/1/6
f 380/1/6 381/1/6 394/1/6
f 393/3/6 380/3/6 394/3/6
f 381/3/6 382/3/6 395/3/6
f 394/1/6 381/1/6 395/1/6
f 382/1/6 383/1/6 396/1/6
f 395/3/6 382/3/6 396/3/6
f 383/3/6 384/3/6 397/3/6
f 396/1/6 383/1/6 397/1/6
f 384/1/6 385/1/6 398/1/6
f 397/3/6 384/3/6 398/3/6
f 385/3/6 386/3/6 399/3/6
f 398/1/6 385/1/6 399/1/6
f 386/1/6 387/1/6 400/1/6
f 399/3/6 386/3/6 400/3/6
f 387/3/6 388/3/6 401/3/6
f 400/1/6 387/1/6 401/1/6
f 388/1/6 389/1/6 402/1/6
f 401/3/6 388/3/6 402/3/6
f 389/3/6 390/3/6 403/3/6
f 402/1/6 389/1/6 403/1/6
f 390/1/6 228/1/6 404/1/6
f 403/3/6 390/3/6 404/3/6
f 400/1/6 401/1/6 405/1/6
f 402/1/6 403/1/6 405/1/6
f 403/1/6 404/1/6 405/1/6
f 401/1/6 402/1/6 405/1/6
f 399/1/6 400/1/6 405/1/6
f 398/1/6 399/1/6 405/1/6
f 397/1/6 398/1/6 405/1/6
f 396/1/6 397/1/6 405/1/6
f 395/1/6 396/1/6 405/1/6
f 394/1/6 395/1/6 405/1/6
f 393/1/6 394/1/6 405/1/6
f 392/1/6 393/1/6 405/1/6
f 391/1/6 392/1/6 405/1/6
f 404/1/6 228/1/6 406/1/6
f 405/1/6 404/1/6 406/1/6
f 409/3/6 410/3/6 411/3/6
f 407/1/6 408/1/6 414/1/6
f 414/1/6 408/1/6 415/1/6
f 415/1/6 408/1/6 416/1/6
f 411/3/6 412/3/6 417/3/6
f 409/3/6 411/3/6 417/3/6
f 417/3/6 412/3/6 418/3/6
f 414/1/6 415/1/6 419/1/6
f 413/1/6 414/1/6 419/1/6
f 419/1/6 415/1/6 420/1/6
f 421/1/6 422/1/6 423/1/6
f 423/1/6 422/1/6 424/1/6
f 425/3/6 426/3/6 427/3/6
f 427/3/6 426/3/6 428/3/6
f 429/2/6 430/2/6 432/2/6
f 431/2/6 432/2/6 433/2/6
f 432/2/6 430/2/6 434/2/6
f 433/2/6 432/2/6 434/2/6
