# MagicaVoxel @ Ephtracy

# group
g 4x2 first (1)-3

# material
mtllib 4x2 first (1)-3.mtl
usemtl palette

# normals
vn -1 0 0
vn 1 0 0
vn 0 0 1
vn 0 0 -1
vn 0 -1 0
vn 0 1 0

# texcoords
vt 0.0332031 0.5
vt 0.962891 0.5
vt 0.966797 0.5
vt 0.970703 0.5
vt 0.974609 0.5
vt 0.978516 0.5
vt 0.982422 0.5

# verts
v -63 0 63
v -63 0 -63
v -63 80 63
v -63 80 -63
v -26 47 30
v -26 47 29
v -26 61 30
v -26 61 29
v 18 3 29
v 18 3 25
v 18 45 29
v 18 45 25
v 41 21 61
v 41 21 31
v 41 23 60
v 41 23 54
v 41 23 50
v 41 23 44
v 41 23 40
v 41 23 34
v 41 24 53
v 41 24 52
v 41 24 43
v 41 24 42
v 41 24 33
v 41 24 32
v 41 25 60
v 41 25 54
v 41 25 53
v 41 25 52
v 41 25 50
v 41 25 44
v 41 25 43
v 41 25 42
v 41 25 40
v 41 25 34
v 41 25 33
v 41 25 32
v 41 26 60
v 41 26 54
v 41 26 50
v 41 26 44
v 41 26 40
v 41 26 34
v 41 27 53
v 41 27 52
v 41 27 43
v 41 27 42
v 41 27 33
v 41 27 32
v 41 28 60
v 41 28 54
v 41 28 53
v 41 28 52
v 41 28 50
v 41 28 44
v 41 28 43
v 41 28 42
v 41 28 40
v 41 28 34
v 41 28 33
v 41 28 32
v 41 29 60
v 41 29 54
v 41 29 50
v 41 29 44
v 41 29 40
v 41 29 34
v 41 30 53
v 41 30 52
v 41 30 43
v 41 30 42
v 41 30 33
v 41 30 32
v 41 31 60
v 41 31 54
v 41 31 53
v 41 31 52
v 41 31 50
v 41 31 44
v 41 31 43
v 41 31 42
v 41 31 40
v 41 31 34
v 41 31 33
v 41 31 32
v 41 32 60
v 41 32 54
v 41 32 50
v 41 32 44
v 41 32 40
v 41 32 34
v 41 33 53
v 41 33 52
v 41 33 43
v 41 33 42
v 41 33 33
v 41 33 32
v 41 34 60
v 41 34 54
v 41 34 53
v 41 34 52
v 41 34 50
v 41 34 44
v 41 34 43
v 41 34 42
v 41 34 40
v 41 34 34
v 41 34 33
v 41 34 32
v 41 35 60
v 41 35 54
v 41 35 50
v 41 35 44
v 41 35 40
v 41 35 34
v 41 36 53
v 41 36 52
v 41 36 43
v 41 36 42
v 41 36 33
v 41 36 32
v 41 37 60
v 41 37 54
v 41 37 53
v 41 37 52
v 41 37 50
v 41 37 44
v 41 37 43
v 41 37 42
v 41 37 40
v 41 37 34
v 41 37 33
v 41 37 32
v 41 38 60
v 41 38 54
v 41 38 50
v 41 38 44
v 41 38 40
v 41 38 34
v 41 39 53
v 41 39 52
v 41 39 43
v 41 39 42
v 41 39 33
v 41 39 32
v 41 40 60
v 41 40 54
v 41 40 53
v 41 40 52
v 41 40 50
v 41 40 44
v 41 40 43
v 41 40 42
v 41 40 40
v 41 40 34
v 41 40 33
v 41 40 32
v 41 41 60
v 41 41 54
v 41 41 50
v 41 41 44
v 41 41 40
v 41 41 34
v 41 42 53
v 41 42 52
v 41 42 43
v 41 42 42
v 41 42 33
v 41 42 32
v 41 43 60
v 41 43 54
v 41 43 53
v 41 43 52
v 41 43 50
v 41 43 44
v 41 43 43
v 41 43 42
v 41 43 40
v 41 43 34
v 41 43 33
v 41 43 32
v 41 45 61
v 41 45 31
v 42 3 63
v 42 3 29
v 42 21 61
v 42 21 31
v 42 45 61
v 42 45 31
v 42 80 63
v 42 80 29
v 62 3 25
v 62 3 -63
v 62 80 25
v 62 80 -63
v -62 3 25
v -62 3 -63
v -62 80 25
v -62 80 -63
v -38 3 63
v -38 3 49
v -38 3 29
v -38 80 63
v -38 80 29
v -12 3 29
v -12 3 25
v -12 45 29
v -12 45 25
v 30 47 30
v 30 47 29
v 30 61 30
v 30 61 29
v 63 0 63
v 63 0 -63
v 63 80 63
v 63 80 -63
v -63 0 63
v -63 80 63
v -38 3 63
v -38 80 63
v 42 3 63
v 42 80 63
v 63 0 63
v 63 80 63
v 41 21 61
v 41 45 61
v 42 21 61
v 42 45 61
v -26 47 30
v -26 61 30
v -25 48 30
v -25 60 30
v 29 48 30
v 29 60 30
v 30 47 30
v 30 61 30
v -38 3 29
v -38 80 29
v -26 47 29
v -26 61 29
v -21 3 29
v -12 3 29
v -12 45 29
v 18 3 29
v 18 45 29
v 30 47 29
v 30 61 29
v 42 3 29
v 42 80 29
v 41 21 31
v 41 45 31
v 42 21 31
v 42 45 31
v -62 3 25
v -62 80 25
v -12 3 25
v -12 45 25
v 18 3 25
v 18 45 25
v 62 3 25
v 62 80 25
v -63 0 -63
v -63 80 -63
v -62 2 -63
v -62 3 -63
v -62 80 -63
v 62 2 -63
v 62 3 -63
v 62 80 -63
v 63 0 -63
v 63 80 -63
v -63 0 63
v 63 0 63
v -63 0 -63
v 63 0 -63
v 41 21 61
v 42 21 61
v 41 21 31
v 42 21 31
v -12 45 29
v 18 45 29
v -12 45 25
v 18 45 25
v -26 47 30
v 30 47 30
v -26 47 29
v 30 47 29
v -38 3 63
v 42 3 63
v -36 3 57
v -31 3 57
v 29 3 57
v 34 3 57
v -31 3 56
v -26 3 56
v -26 3 54
v -22 3 54
v 25 3 54
v 29 3 54
v 35 3 54
v 36 3 54
v 22 3 53
v 25 3 53
v 35 3 53
v 36 3 53
v 38 3 53
v -31 3 52
v -28 3 52
v -31 3 51
v -28 3 51
v -21 3 51
v -13 3 51
v 34 3 51
v 36 3 51
v 38 3 51
v -31 3 50
v -22 3 50
v 16 3 50
v 22 3 50
v 35 3 50
v 36 3 50
v -38 3 49
v -36 3 49
v -31 3 49
v -21 3 49
v 35 3 48
v 36 3 48
v -21 3 47
v -13 3 47
v 38 3 47
v 40 3 47
v -10 3 46
v -4 3 46
v -21 3 45
v -17 3 45
v 38 3 45
v 40 3 45
v 37 3 44
v 39 3 44
v -10 3 43
v -4 3 43
v -21 3 41
v -17 3 41
v -12 3 41
v -10 3 41
v 37 3 41
v 39 3 41
v -18 3 40
v -16 3 40
v 16 3 40
v 18 3 40
v -18 3 38
v -16 3 38
v -12 3 38
v -10 3 38
v 18 3 37
v 21 3 37
v -17 3 35
v -14 3 35
v 21 3 34
v 32 3 34
v 33 3 34
v 36 3 34
v -17 3 33
v -14 3 33
v 31 3 33
v 32 3 33
v 31 3 31
v 33 3 31
v -38 3 29
v -21 3 29
v -12 3 29
v 18 3 29
v 42 3 29
v -62 3 25
v -12 3 25
v 18 3 25
v 62 3 25
v -62 3 -63
v 62 3 -63
v 41 45 61
v 42 45 61
v 41 45 31
v 42 45 31
v -26 61 30
v 30 61 30
v -26 61 29
v 30 61 29
v -63 80 63
v -38 80 63
v 42 80 63
v 63 80 63
v -38 80 29
v 42 80 29
v -62 80 25
v 62 80 25
v -63 80 -63
v -62 80 -63
v 62 80 -63
v 63 80 -63

# faces
f 3/3/1 2/3/1 1/3/1
f 4/3/1 2/3/1 3/3/1
f 7/6/1 6/6/1 5/6/1
f 8/6/1 6/6/1 7/6/1
f 11/3/1 10/3/1 9/3/1
f 12/3/1 10/3/1 11/3/1
f 15/5/1 14/5/1 13/5/1
f 16/5/1 14/5/1 15/5/1
f 17/5/1 14/5/1 16/5/1
f 18/5/1 14/5/1 17/5/1
f 19/5/1 14/5/1 18/5/1
f 20/5/1 14/5/1 19/5/1
f 21/5/1 17/5/1 16/5/1
f 22/5/1 17/5/1 21/5/1
f 23/5/1 19/5/1 18/5/1
f 24/5/1 19/5/1 23/5/1
f 25/5/1 14/5/1 20/5/1
f 26/5/1 14/5/1 25/5/1
f 27/5/1 15/5/1 13/5/1
f 27/2/1 16/2/1 15/2/1
f 28/5/1 21/5/1 16/5/1
f 28/2/1 16/2/1 27/2/1
f 29/7/1 22/7/1 21/7/1
f 29/5/1 21/5/1 28/5/1
f 30/5/1 17/5/1 22/5/1
f 30/7/1 22/7/1 29/7/1
f 31/2/1 18/2/1 17/2/1
f 31/5/1 17/5/1 30/5/1
f 32/5/1 23/5/1 18/5/1
f 32/2/1 18/2/1 31/2/1
f 33/7/1 24/7/1 23/7/1
f 33/5/1 23/5/1 32/5/1
f 34/5/1 19/5/1 24/5/1
f 34/7/1 24/7/1 33/7/1
f 35/2/1 20/2/1 19/2/1
f 35/5/1 19/5/1 34/5/1
f 36/5/1 25/5/1 20/5/1
f 36/2/1 20/2/1 35/2/1
f 37/7/1 26/7/1 25/7/1
f 37/5/1 25/5/1 36/5/1
f 38/5/1 14/5/1 26/5/1
f 38/7/1 26/7/1 37/7/1
f 39/5/1 37/5/1 36/5/1
f 39/5/1 36/5/1 35/5/1
f 39/5/1 38/5/1 37/5/1
f 39/5/1 35/5/1 34/5/1
f 39/5/1 32/5/1 31/5/1
f 39/5/1 31/5/1 30/5/1
f 39/5/1 28/5/1 27/5/1
f 39/5/1 27/5/1 13/5/1
f 39/5/1 34/5/1 33/5/1
f 39/5/1 29/5/1 28/5/1
f 39/5/1 30/5/1 29/5/1
f 39/5/1 33/5/1 32/5/1
f 40/5/1 38/5/1 39/5/1
f 41/5/1 38/5/1 40/5/1
f 42/5/1 38/5/1 41/5/1
f 43/5/1 38/5/1 42/5/1
f 44/5/1 38/5/1 43/5/1
f 45/5/1 41/5/1 40/5/1
f 46/5/1 41/5/1 45/5/1
f 47/5/1 43/5/1 42/5/1
f 48/5/1 43/5/1 47/5/1
f 49/5/1 38/5/1 44/5/1
f 50/5/1 14/5/1 38/5/1
f 50/5/1 38/5/1 49/5/1
f 51/5/1 39/5/1 13/5/1
f 51/2/1 40/2/1 39/2/1
f 52/5/1 45/5/1 40/5/1
f 52/2/1 40/2/1 51/2/1
f 53/7/1 46/7/1 45/7/1
f 53/5/1 45/5/1 52/5/1
f 54/5/1 41/5/1 46/5/1
f 54/7/1 46/7/1 53/7/1
f 55/2/1 42/2/1 41/2/1
f 55/5/1 41/5/1 54/5/1
f 56/5/1 47/5/1 42/5/1
f 56/2/1 42/2/1 55/2/1
f 57/7/1 48/7/1 47/7/1
f 57/5/1 47/5/1 56/5/1
f 58/5/1 43/5/1 48/5/1
f 58/7/1 48/7/1 57/7/1
f 59/2/1 44/2/1 43/2/1
f 59/5/1 43/5/1 58/5/1
f 60/5/1 49/5/1 44/5/1
f 60/2/1 44/2/1 59/2/1
f 61/7/1 50/7/1 49/7/1
f 61/5/1 49/5/1 60/5/1
f 62/5/1 14/5/1 50/5/1
f 62/7/1 50/7/1 61/7/1
f 63/5/1 59/5/1 58/5/1
f 63/5/1 61/5/1 60/5/1
f 63/5/1 62/5/1 61/5/1
f 63/5/1 56/5/1 55/5/1
f 63/5/1 55/5/1 54/5/1
f 63/5/1 52/5/1 51/5/1
f 63/5/1 51/5/1 13/5/1
f 63/5/1 58/5/1 57/5/1
f 63/5/1 53/5/1 52/5/1
f 63/5/1 54/5/1 53/5/1
f 63/5/1 57/5/1 56/5/1
f 63/5/1 60/5/1 59/5/1
f 64/5/1 62/5/1 63/5/1
f 65/5/1 62/5/1 64/5/1
f 66/5/1 62/5/1 65/5/1
f 67/5/1 62/5/1 66/5/1
f 68/5/1 62/5/1 67/5/1
f 69/5/1 65/5/1 64/5/1
f 70/5/1 65/5/1 69/5/1
f 71/5/1 67/5/1 66/5/1
f 72/5/1 67/5/1 71/5/1
f 73/5/1 62/5/1 68/5/1
f 74/5/1 14/5/1 62/5/1
f 74/5/1 62/5/1 73/5/1
f 75/5/1 63/5/1 13/5/1
f 75/2/1 64/2/1 63/2/1
f 76/5/1 69/5/1 64/5/1
f 76/2/1 64/2/1 75/2/1
f 77/7/1 70/7/1 69/7/1
f 77/5/1 69/5/1 76/5/1
f 78/5/1 65/5/1 70/5/1
f 78/7/1 70/7/1 77/7/1
f 79/2/1 66/2/1 65/2/1
f 79/5/1 65/5/1 78/5/1
f 80/5/1 71/5/1 66/5/1
f 80/2/1 66/2/1 79/2/1
f 81/7/1 72/7/1 71/7/1
f 81/5/1 71/5/1 80/5/1
f 82/5/1 67/5/1 72/5/1
f 82/7/1 72/7/1 81/7/1
f 83/2/1 68/2/1 67/2/1
f 83/5/1 67/5/1 82/5/1
f 84/5/1 73/5/1 68/5/1
f 84/2/1 68/2/1 83/2/1
f 85/7/1 74/7/1 73/7/1
f 85/5/1 73/5/1 84/5/1
f 86/5/1 14/5/1 74/5/1
f 86/7/1 74/7/1 85/7/1
f 87/5/1 83/5/1 82/5/1
f 87/5/1 85/5/1 84/5/1
f 87/5/1 86/5/1 85/5/1
f 87/5/1 80/5/1 79/5/1
f 87/5/1 79/5/1 78/5/1
f 87/5/1 76/5/1 75/5/1
f 87/5/1 75/5/1 13/5/1
f 87/5/1 82/5/1 81/5/1
f 87/5/1 77/5/1 76/5/1
f 87/5/1 78/5/1 77/5/1
f 87/5/1 81/5/1 80/5/1
f 87/5/1 84/5/1 83/5/1
f 88/5/1 86/5/1 87/5/1
f 89/5/1 86/5/1 88/5/1
f 90/5/1 86/5/1 89/5/1
f 91/5/1 86/5/1 90/5/1
f 92/5/1 86/5/1 91/5/1
f 93/5/1 89/5/1 88/5/1
f 94/5/1 89/5/1 93/5/1
f 95/5/1 91/5/1 90/5/1
f 96/5/1 91/5/1 95/5/1
f 97/5/1 86/5/1 92/5/1
f 98/5/1 14/5/1 86/5/1
f 98/5/1 86/5/1 97/5/1
f 99/5/1 87/5/1 13/5/1
f 99/2/1 88/2/1 87/2/1
f 100/5/1 93/5/1 88/5/1
f 100/2/1 88/2/1 99/2/1
f 101/7/1 94/7/1 93/7/1
f 101/5/1 93/5/1 100/5/1
f 102/5/1 89/5/1 94/5/1
f 102/7/1 94/7/1 101/7/1
f 103/2/1 90/2/1 89/2/1
f 103/5/1 89/5/1 102/5/1
f 104/5/1 95/5/1 90/5/1
f 104/2/1 90/2/1 103/2/1
f 105/7/1 96/7/1 95/7/1
f 105/5/1 95/5/1 104/5/1
f 106/5/1 91/5/1 96/5/1
f 106/7/1 96/7/1 105/7/1
f 107/2/1 92/2/1 91/2/1
f 107/5/1 91/5/1 106/5/1
f 108/5/1 97/5/1 92/5/1
f 108/2/1 92/2/1 107/2/1
f 109/7/1 98/7/1 97/7/1
f 109/5/1 97/5/1 108/5/1
f 110/5/1 14/5/1 98/5/1
f 110/7/1 98/7/1 109/7/1
f 111/5/1 107/5/1 106/5/1
f 111/5/1 109/5/1 108/5/1
f 111/5/1 110/5/1 109/5/1
f 111/5/1 104/5/1 103/5/1
f 111/5/1 103/5/1 102/5/1
f 111/5/1 100/5/1 99/5/1
f 111/5/1 99/5/1 13/5/1
f 111/5/1 106/5/1 105/5/1
f 111/5/1 101/5/1 100/5/1
f 111/5/1 102/5/1 101/5/1
f 111/5/1 105/5/1 104/5/1
f 111/5/1 108/5/1 107/5/1
f 112/5/1 110/5/1 111/5/1
f 113/5/1 110/5/1 112/5/1
f 114/5/1 110/5/1 113/5/1
f 115/5/1 110/5/1 114/5/1
f 116/5/1 110/5/1 115/5/1
f 117/5/1 113/5/1 112/5/1
f 118/5/1 113/5/1 117/5/1
f 119/5/1 115/5/1 114/5/1
f 120/5/1 115/5/1 119/5/1
f 121/5/1 110/5/1 116/5/1
f 122/5/1 14/5/1 110/5/1
f 122/5/1 110/5/1 121/5/1
f 123/5/1 111/5/1 13/5/1
f 123/2/1 112/2/1 111/2/1
f 124/5/1 117/5/1 112/5/1
f 124/2/1 112/2/1 123/2/1
f 125/7/1 118/7/1 117/7/1
f 125/5/1 117/5/1 124/5/1
f 126/5/1 113/5/1 118/5/1
f 126/7/1 118/7/1 125/7/1
f 127/2/1 114/2/1 113/2/1
f 127/5/1 113/5/1 126/5/1
f 128/5/1 119/5/1 114/5/1
f 128/2/1 114/2/1 127/2/1
f 129/7/1 120/7/1 119/7/1
f 129/5/1 119/5/1 128/5/1
f 130/5/1 115/5/1 120/5/1
f 130/7/1 120/7/1 129/7/1
f 131/2/1 116/2/1 115/2/1
f 131/5/1 115/5/1 130/5/1
f 132/5/1 121/5/1 116/5/1
f 132/2/1 116/2/1 131/2/1
f 133/7/1 122/7/1 121/7/1
f 133/5/1 121/5/1 132/5/1
f 134/5/1 14/5/1 122/5/1
f 134/7/1 122/7/1 133/7/1
f 135/5/1 131/5/1 130/5/1
f 135/5/1 133/5/1 132/5/1
f 135/5/1 134/5/1 133/5/1
f 135/5/1 128/5/1 127/5/1
f 135/5/1 127/5/1 126/5/1
f 135/5/1 124/5/1 123/5/1
f 135/5/1 123/5/1 13/5/1
f 135/5/1 130/5/1 129/5/1
f 135/5/1 125/5/1 124/5/1
f 135/5/1 126/5/1 125/5/1
f 135/5/1 129/5/1 128/5/1
f 135/5/1 132/5/1 131/5/1
f 136/5/1 134/5/1 135/5/1
f 137/5/1 134/5/1 136/5/1
f 138/5/1 134/5/1 137/5/1
f 139/5/1 134/5/1 138/5/1
f 140/5/1 134/5/1 139/5/1
f 141/5/1 137/5/1 136/5/1
f 142/5/1 137/5/1 141/5/1
f 143/5/1 139/5/1 138/5/1
f 144/5/1 139/5/1 143/5/1
f 145/5/1 134/5/1 140/5/1
f 146/5/1 14/5/1 134/5/1
f 146/5/1 134/5/1 145/5/1
f 147/5/1 135/5/1 13/5/1
f 147/2/1 136/2/1 135/2/1
f 148/5/1 141/5/1 136/5/1
f 148/2/1 136/2/1 147/2/1
f 149/7/1 142/7/1 141/7/1
f 149/5/1 141/5/1 148/5/1
f 150/5/1 137/5/1 142/5/1
f 150/7/1 142/7/1 149/7/1
f 151/2/1 138/2/1 137/2/1
f 151/5/1 137/5/1 150/5/1
f 152/5/1 143/5/1 138/5/1
f 152/2/1 138/2/1 151/2/1
f 153/7/1 144/7/1 143/7/1
f 153/5/1 143/5/1 152/5/1
f 154/5/1 139/5/1 144/5/1
f 154/7/1 144/7/1 153/7/1
f 155/2/1 140/2/1 139/2/1
f 155/5/1 139/5/1 154/5/1
f 156/5/1 145/5/1 140/5/1
f 156/2/1 140/2/1 155/2/1
f 157/7/1 146/7/1 145/7/1
f 157/5/1 145/5/1 156/5/1
f 158/5/1 14/5/1 146/5/1
f 158/7/1 146/7/1 157/7/1
f 159/5/1 155/5/1 154/5/1
f 159/5/1 157/5/1 156/5/1
f 159/5/1 158/5/1 157/5/1
f 159/5/1 152/5/1 151/5/1
f 159/5/1 151/5/1 150/5/1
f 159/5/1 148/5/1 147/5/1
f 159/5/1 147/5/1 13/5/1
f 159/5/1 154/5/1 153/5/1
f 159/5/1 149/5/1 148/5/1
f 159/5/1 150/5/1 149/5/1
f 159/5/1 153/5/1 152/5/1
f 159/5/1 156/5/1 155/5/1
f 160/5/1 158/5/1 159/5/1
f 161/5/1 158/5/1 160/5/1
f 162/5/1 158/5/1 161/5/1
f 163/5/1 158/5/1 162/5/1
f 164/5/1 158/5/1 163/5/1
f 165/5/1 161/5/1 160/5/1
f 166/5/1 161/5/1 165/5/1
f 167/5/1 163/5/1 162/5/1
f 168/5/1 163/5/1 167/5/1
f 169/5/1 158/5/1 164/5/1
f 170/5/1 14/5/1 158/5/1
f 170/5/1 158/5/1 169/5/1
f 171/5/1 159/5/1 13/5/1
f 171/2/1 160/2/1 159/2/1
f 172/5/1 165/5/1 160/5/1
f 172/2/1 160/2/1 171/2/1
f 173/7/1 166/7/1 165/7/1
f 173/5/1 165/5/1 172/5/1
f 174/5/1 161/5/1 166/5/1
f 174/7/1 166/7/1 173/7/1
f 175/2/1 162/2/1 161/2/1
f 175/5/1 161/5/1 174/5/1
f 176/5/1 167/5/1 162/5/1
f 176/2/1 162/2/1 175/2/1
f 177/7/1 168/7/1 167/7/1
f 177/5/1 167/5/1 176/5/1
f 178/5/1 163/5/1 168/5/1
f 178/7/1 168/7/1 177/7/1
f 179/2/1 164/2/1 163/2/1
f 179/5/1 163/5/1 178/5/1
f 180/5/1 169/5/1 164/5/1
f 180/2/1 164/2/1 179/2/1
f 181/7/1 170/7/1 169/7/1
f 181/5/1 169/5/1 180/5/1
f 182/5/1 14/5/1 170/5/1
f 182/7/1 170/7/1 181/7/1
f 183/5/1 179/5/1 178/5/1
f 183/5/1 181/5/1 180/5/1
f 183/5/1 182/5/1 181/5/1
f 183/5/1 176/5/1 175/5/1
f 183/5/1 175/5/1 174/5/1
f 183/5/1 172/5/1 171/5/1
f 183/5/1 171/5/1 13/5/1
f 183/5/1 178/5/1 177/5/1
f 183/5/1 173/5/1 172/5/1
f 183/5/1 174/5/1 173/5/1
f 183/5/1 177/5/1 176/5/1
f 183/5/1 180/5/1 179/5/1
f 184/5/1 14/5/1 182/5/1
f 184/5/1 182/5/1 183/5/1
f 187/3/1 186/3/1 185/3/1
f 188/3/1 186/3/1 187/3/1
f 189/3/1 187/3/1 185/3/1
f 190/3/1 186/3/1 188/3/1
f 191/3/1 189/3/1 185/3/1
f 191/3/1 190/3/1 189/3/1
f 192/3/1 186/3/1 190/3/1
f 192/3/1 190/3/1 191/3/1
f 195/3/1 194/3/1 193/3/1
f 196/3/1 194/3/1 195/3/1
f 197/3/2 198/3/2 199/3/2
f 199/3/2 198/3/2 200/3/2
f 201/3/2 202/3/2 204/3/2
f 202/3/2 203/3/2 204/3/2
f 204/3/2 203/3/2 205/3/2
f 206/3/2 207/3/2 208/3/2
f 208/3/2 207/3/2 209/3/2
f 210/6/2 211/6/2 212/6/2
f 212/6/2 211/6/2 213/6/2
f 214/3/2 215/3/2 216/3/2
f 216/3/2 215/3/2 217/3/2
f 220/3/3 219/3/3 218/3/3
f 221/3/3 219/3/3 220/3/3
f 222/3/3 220/3/3 218/3/3
f 224/3/3 222/3/3 218/3/3
f 224/3/3 223/3/3 222/3/3
f 225/3/3 223/3/3 224/3/3
f 228/5/3 227/5/3 226/5/3
f 229/5/3 227/5/3 228/5/3
f 232/6/3 231/6/3 230/6/3
f 233/6/3 231/6/3 232/6/3
f 234/6/3 232/6/3 230/6/3
f 234/5/3 233/5/3 232/5/3
f 235/6/3 231/6/3 233/6/3
f 235/5/3 233/5/3 234/5/3
f 236/6/3 234/6/3 230/6/3
f 236/6/3 235/6/3 234/6/3
f 237/6/3 231/6/3 235/6/3
f 237/6/3 235/6/3 236/6/3
f 240/3/3 239/3/3 238/3/3
f 241/3/3 239/3/3 240/3/3
f 242/3/3 240/3/3 238/3/3
f 243/3/3 240/3/3 242/3/3
f 244/3/3 240/3/3 243/3/3
f 246/3/3 240/3/3 244/3/3
f 247/3/3 240/3/3 246/3/3
f 247/3/3 246/3/3 245/3/3
f 248/3/3 239/3/3 241/3/3
f 249/3/3 247/3/3 245/3/3
f 249/3/3 248/3/3 247/3/3
f 250/3/3 239/3/3 248/3/3
f 250/3/3 248/3/3 249/3/3
f 251/5/4 252/5/4 253/5/4
f 253/5/4 252/5/4 254/5/4
f 255/3/4 256/3/4 257/3/4
f 257/3/4 256/3/4 258/3/4
f 258/3/4 256/3/4 260/3/4
f 259/3/4 260/3/4 261/3/4
f 260/3/4 256/3/4 262/3/4
f 261/3/4 260/3/4 262/3/4
f 263/3/4 264/3/4 265/3/4
f 265/3/4 264/3/4 266/3/4
f 266/3/4 264/3/4 267/3/4
f 263/3/4 265/3/4 268/3/4
f 265/1/4 266/1/4 268/1/4
f 268/1/4 266/1/4 269/1/4
f 263/3/4 268/3/4 271/3/4
f 269/3/4 270/3/4 271/3/4
f 268/3/4 269/3/4 271/3/4
f 271/3/4 270/3/4 272/3/4
f 275/3/5 274/3/5 273/3/5
f 276/3/5 274/3/5 275/3/5
f 279/5/5 278/5/5 277/5/5
f 280/5/5 278/5/5 279/5/5
f 283/3/5 282/3/5 281/3/5
f 284/3/5 282/3/5 283/3/5
f 287/6/5 286/6/5 285/6/5
f 288/6/5 286/6/5 287/6/5
f 289/3/6 290/3/6 291/3/6
f 291/3/6 290/3/6 292/3/6
f 292/3/6 290/3/6 293/3/6
f 293/3/6 290/3/6 294/3/6
f 291/4/6 292/4/6 295/4/6
f 292/3/6 293/3/6 295/3/6
f 295/3/6 293/3/6 296/3/6
f 295/4/6 296/4/6 297/4/6
f 296/3/6 293/3/6 297/3/6
f 297/3/6 293/3/6 298/3/6
f 298/3/6 293/3/6 299/3/6
f 293/4/6 294/4/6 300/4/6
f 299/3/6 293/3/6 300/3/6
f 294/3/6 290/3/6 301/3/6
f 301/3/6 290/3/6 302/3/6
f 298/3/6 299/3/6 303/3/6
f 299/4/6 300/4/6 304/4/6
f 303/3/6 299/3/6 304/3/6
f 294/3/6 301/3/6 305/3/6
f 301/4/6 302/4/6 305/4/6
f 302/3/6 290/3/6 306/3/6
f 305/4/6 302/4/6 306/4/6
f 306/3/6 290/3/6 307/3/6
f 291/4/6 295/4/6 308/4/6
f 295/4/6 297/4/6 308/4/6
f 297/4/6 298/4/6 308/4/6
f 308/4/6 298/4/6 309/4/6
f 291/4/6 308/4/6 310/4/6
f 308/3/6 309/3/6 310/3/6
f 309/4/6 298/4/6 311/4/6
f 310/3/6 309/3/6 311/3/6
f 298/3/6 303/3/6 312/3/6
f 312/3/6 303/3/6 313/3/6
f 300/4/6 294/4/6 314/4/6
f 294/3/6 305/3/6 314/3/6
f 305/3/6 306/3/6 314/3/6
f 304/4/6 300/4/6 314/4/6
f 303/4/6 304/4/6 314/4/6
f 306/4/6 307/4/6 315/4/6
f 314/3/6 306/3/6 315/3/6
f 307/3/6 290/3/6 316/3/6
f 315/4/6 307/4/6 316/4/6
f 310/4/6 311/4/6 317/4/6
f 291/4/6 310/4/6 317/4/6
f 298/3/6 312/3/6 318/3/6
f 317/4/6 311/4/6 318/4/6
f 311/4/6 298/4/6 318/4/6
f 313/3/6 303/3/6 319/3/6
f 314/4/6 315/4/6 320/4/6
f 319/3/6 303/3/6 320/3/6
f 303/4/6 314/4/6 320/4/6
f 320/4/6 315/4/6 321/4/6
f 315/3/6 316/3/6 322/3/6
f 321/4/6 315/4/6 322/4/6
f 289/3/6 291/3/6 323/3/6
f 291/4/6 317/4/6 324/4/6
f 323/3/6 291/3/6 324/3/6
f 317/3/6 318/3/6 325/3/6
f 324/4/6 317/4/6 325/4/6
f 318/3/6 312/3/6 326/3/6
f 325/3/6 318/3/6 326/3/6
f 312/4/6 313/4/6 326/4/6
f 321/3/6 322/3/6 327/3/6
f 320/4/6 321/4/6 327/4/6
f 319/4/6 320/4/6 327/4/6
f 322/3/6 316/3/6 328/3/6
f 327/3/6 322/3/6 328/3/6
f 324/4/6 325/4/6 329/4/6
f 326/4/6 313/4/6 329/4/6
f 323/4/6 324/4/6 329/4/6
f 325/4/6 326/4/6 329/4/6
f 313/3/6 319/3/6 330/3/6
f 329/4/6 313/4/6 330/4/6
f 328/3/6 316/3/6 331/3/6
f 316/3/6 290/3/6 331/3/6
f 331/3/6 290/3/6 332/3/6
f 330/3/6 319/3/6 333/3/6
f 329/3/6 330/3/6 333/3/6
f 333/3/6 319/3/6 334/3/6
f 323/4/6 329/4/6 335/4/6
f 329/3/6 333/3/6 335/3/6
f 335/3/6 333/3/6 336/3/6
f 331/4/6 332/4/6 337/4/6
f 328/3/6 331/3/6 337/3/6
f 332/3/6 290/3/6 338/3/6
f 337/4/6 332/4/6 338/4/6
f 328/3/6 337/3/6 339/3/6
f 337/3/6 338/3/6 339/3/6
f 339/3/6 338/3/6 340/3/6
f 336/3/6 333/3/6 341/3/6
f 333/4/6 334/4/6 341/4/6
f 334/3/6 319/3/6 342/3/6
f 341/4/6 334/4/6 342/4/6
f 335/4/6 336/4/6 343/4/6
f 323/4/6 335/4/6 343/4/6
f 336/3/6 341/3/6 344/3/6
f 343/4/6 336/4/6 344/4/6
f 341/3/6 342/3/6 344/3/6
f 344/3/6 342/3/6 345/3/6
f 345/3/6 342/3/6 346/3/6
f 339/4/6 340/4/6 347/4/6
f 328/3/6 339/3/6 347/3/6
f 340/3/6 338/3/6 348/3/6
f 347/4/6 340/4/6 348/4/6
f 343/3/6 344/3/6 349/3/6
f 344/3/6 345/3/6 349/3/6
f 349/3/6 345/3/6 350/3/6
f 319/4/6 327/4/6 351/4/6
f 327/4/6 328/4/6 351/4/6
f 342/3/6 319/3/6 351/3/6
f 346/3/6 342/3/6 351/3/6
f 351/4/6 328/4/6 352/4/6
f 349/4/6 350/4/6 353/4/6
f 343/3/6 349/3/6 353/3/6
f 350/3/6 345/3/6 354/3/6
f 353/4/6 350/4/6 354/4/6
f 345/4/6 346/4/6 355/4/6
f 354/3/6 345/3/6 355/3/6
f 351/3/6 352/3/6 356/3/6
f 355/4/6 346/4/6 356/4/6
f 346/3/6 351/3/6 356/3/6
f 352/4/6 328/4/6 357/4/6
f 356/3/6 352/3/6 357/3/6
f 355/3/6 356/3/6 357/3/6
f 354/3/6 355/3/6 357/3/6
f 353/3/6 354/3/6 357/3/6
f 357/4/6 328/4/6 358/4/6
f 353/3/6 357/3/6 359/3/6
f 357/3/6 358/3/6 359/3/6
f 359/3/6 358/3/6 360/3/6
f 358/4/6 328/4/6 361/4/6
f 360/3/6 358/3/6 361/3/6
f 361/4/6 328/4/6 362/4/6
f 362/4/6 328/4/6 363/4/6
f 328/3/6 347/3/6 364/3/6
f 363/4/6 328/4/6 364/4/6
f 347/3/6 348/3/6 364/3/6
f 359/4/6 360/4/6 365/4/6
f 353/3/6 359/3/6 365/3/6
f 361/3/6 362/3/6 366/3/6
f 365/4/6 360/4/6 366/4/6
f 360/3/6 361/3/6 366/3/6
f 366/3/6 362/3/6 367/3/6
f 362/4/6 363/4/6 368/4/6
f 367/3/6 362/3/6 368/3/6
f 366/3/6 367/3/6 369/3/6
f 365/3/6 366/3/6 369/3/6
f 367/4/6 368/4/6 369/4/6
f 368/4/6 363/4/6 370/4/6
f 369/4/6 368/4/6 370/4/6
f 363/3/6 364/3/6 370/3/6
f 323/4/6 343/4/6 371/4/6
f 343/3/6 353/3/6 372/3/6
f 371/4/6 343/4/6 372/4/6
f 365/3/6 369/3/6 372/3/6
f 369/3/6 370/3/6 372/3/6
f 353/3/6 365/3/6 372/3/6
f 372/3/6 370/3/6 373/3/6
f 373/3/6 370/3/6 374/3/6
f 338/3/6 290/3/6 375/3/6
f 374/3/6 370/3/6 375/3/6
f 348/3/6 338/3/6 375/3/6
f 370/3/6 364/3/6 375/3/6
f 364/3/6 348/3/6 375/3/6
f 373/3/6 374/3/6 377/3/6
f 377/3/6 374/3/6 378/3/6
f 377/1/6 378/1/6 380/1/6
f 378/1/6 379/1/6 380/1/6
f 376/1/6 377/1/6 380/1/6
f 380/1/6 379/1/6 381/1/6
f 382/5/6 383/5/6 384/5/6
f 384/5/6 383/5/6 385/5/6
f 386/6/6 387/6/6 388/6/6
f 388/6/6 387/6/6 389/6/6
f 390/3/6 391/3/6 394/3/6
f 392/3/6 393/3/6 395/3/6
f 390/3/6 394/3/6 396/3/6
f 394/3/6 395/3/6 396/3/6
f 395/3/6 393/3/6 397/3/6
f 396/3/6 395/3/6 397/3/6
f 390/3/6 396/3/6 398/3/6
f 398/3/6 396/3/6 399/3/6
f 397/3/6 393/3/6 400/3/6
f 400/3/6 393/3/6 401/3/6
