# MagicaVoxel @ Ephtracy

# group
g 4x2 first (1)-4

# material
mtllib 4x2 first (1)-4.mtl
usemtl palette

# normals
vn -1 0 0
vn 1 0 0
vn 0 0 1
vn 0 0 -1
vn 0 -1 0
vn 0 1 0

# texcoords
vt 0.958984 0.5
vt 0.966797 0.5
vt 0.982422 0.5
vt 0.994141 0.5

# verts
v -63 0 63
v -63 0 -63
v -63 2 53
v -63 2 43
v -63 2 34
v -63 2 24
v -63 2 15
v -63 2 5
v -63 2 -4
v -63 2 -12
v -63 2 -42
v -63 2 -52
v -63 3 53
v -63 3 43
v -63 3 34
v -63 3 24
v -63 3 15
v -63 3 5
v -63 3 -4
v -63 3 -12
v -63 3 -42
v -63 3 -52
v -63 43 -12
v -63 43 -42
v -63 80 63
v -63 80 -63
v 25 3 63
v 25 3 -11
v 25 3 -41
v 25 3 -61
v 25 45 -11
v 25 45 -41
v 25 80 63
v 25 80 -61
v -62 3 63
v -62 3 -12
v -62 3 -42
v -62 3 -61
v -62 43 -12
v -62 43 -42
v -62 80 63
v -62 80 -61
v 26 3 63
v 26 3 -11
v 26 3 -41
v 26 3 -42
v 26 5 -42
v 26 5 -61
v 26 45 -11
v 26 45 -41
v 26 80 63
v 26 80 -61
v 27 3 -42
v 27 3 -61
v 27 5 -42
v 27 5 -61
v 63 0 63
v 63 0 -63
v 63 2 63
v 63 2 53
v 63 2 43
v 63 2 34
v 63 2 24
v 63 2 15
v 63 2 5
v 63 2 -4
v 63 2 -14
v 63 2 -23
v 63 2 -33
v 63 2 -42
v 63 2 -52
v 63 2 -61
v 63 3 63
v 63 3 53
v 63 3 43
v 63 3 34
v 63 3 24
v 63 3 15
v 63 3 5
v 63 3 -4
v 63 3 -14
v 63 3 -23
v 63 3 -33
v 63 3 -42
v 63 3 -52
v 63 3 -61
v 63 80 -61
v 63 80 -63
v -63 0 63
v -63 80 63
v -62 2 63
v -62 3 63
v -62 80 63
v 25 2 63
v 25 3 63
v 25 80 63
v 26 2 63
v 26 3 63
v 26 80 63
v 63 0 63
v 63 2 63
v 63 3 63
v 25 3 -41
v 25 45 -41
v 26 3 -41
v 26 45 -41
v -63 3 -42
v -63 43 -42
v -62 3 -42
v -62 43 -42
v 26 3 -42
v 26 5 -42
v 27 3 -42
v 27 5 -42
v -62 3 -61
v -62 80 -61
v 25 3 -61
v 25 80 -61
v 26 5 -61
v 26 80 -61
v 27 3 -61
v 27 5 -61
v 63 3 -61
v 63 80 -61
v 25 3 -11
v 25 45 -11
v 26 3 -11
v 26 45 -11
v -63 3 -12
v -63 43 -12
v -62 3 -12
v -62 43 -12
v -63 0 -63
v -63 80 -63
v 63 0 -63
v 63 80 -63
v -63 0 63
v 63 0 63
v -63 0 -63
v 63 0 -63
v -63 43 -12
v -62 43 -12
v -63 43 -42
v -62 43 -42
v 25 45 -11
v 26 45 -11
v 25 45 -41
v 26 45 -41
v -62 3 63
v 25 3 63
v 26 3 63
v 63 3 63
v 35 3 53
v 45 3 53
v 54 3 53
v 63 3 53
v 35 3 43
v 45 3 43
v 54 3 43
v 63 3 43
v 35 3 34
v 45 3 34
v 54 3 34
v 63 3 34
v 35 3 24
v 45 3 24
v 54 3 24
v 63 3 24
v 35 3 15
v 45 3 15
v 54 3 15
v 63 3 15
v 35 3 5
v 45 3 5
v 54 3 5
v 63 3 5
v 35 3 -4
v 45 3 -4
v 54 3 -4
v 63 3 -4
v 25 3 -11
v 26 3 -11
v -63 3 -12
v -62 3 -12
v 35 3 -14
v 45 3 -14
v 54 3 -14
v 63 3 -14
v 35 3 -23
v 45 3 -23
v 54 3 -23
v 63 3 -23
v 35 3 -33
v 45 3 -33
v 54 3 -33
v 63 3 -33
v 25 3 -41
v 26 3 -41
v -63 3 -42
v -62 3 -42
v 26 3 -42
v 27 3 -42
v 35 3 -42
v 45 3 -42
v 54 3 -42
v 63 3 -42
v 35 3 -52
v 45 3 -52
v 54 3 -52
v 63 3 -52
v -62 3 -61
v 25 3 -61
v 27 3 -61
v 63 3 -61
v 26 5 -42
v 27 5 -42
v 26 5 -61
v 27 5 -61
v -63 80 63
v -62 80 63
v 25 80 63
v 26 80 63
v -62 80 -61
v 25 80 -61
v 26 80 -61
v 63 80 -61
v -63 80 -63
v 63 80 -63

# faces
f 3/2/1 2/2/1 1/2/1
f 4/2/1 2/2/1 3/2/1
f 5/2/1 2/2/1 4/2/1
f 6/2/1 2/2/1 5/2/1
f 7/2/1 2/2/1 6/2/1
f 8/2/1 2/2/1 7/2/1
f 9/2/1 2/2/1 8/2/1
f 10/2/1 2/2/1 9/2/1
f 11/2/1 2/2/1 10/2/1
f 12/2/1 2/2/1 11/2/1
f 13/2/1 3/2/1 1/2/1
f 13/4/1 4/4/1 3/4/1
f 14/1/1 5/1/1 4/1/1
f 14/4/1 4/4/1 13/4/1
f 15/4/1 6/4/1 5/4/1
f 15/1/1 5/1/1 14/1/1
f 16/1/1 7/1/1 6/1/1
f 16/4/1 6/4/1 15/4/1
f 17/4/1 8/4/1 7/4/1
f 17/1/1 7/1/1 16/1/1
f 18/1/1 9/1/1 8/1/1
f 18/4/1 8/4/1 17/4/1
f 19/4/1 10/4/1 9/4/1
f 19/1/1 9/1/1 18/1/1
f 20/3/1 11/3/1 10/3/1
f 20/4/1 10/4/1 19/4/1
f 21/4/1 12/4/1 11/4/1
f 21/3/1 11/3/1 20/3/1
f 22/2/1 2/2/1 12/2/1
f 22/4/1 12/4/1 21/4/1
f 23/2/1 20/2/1 19/2/1
f 23/2/1 14/2/1 13/2/1
f 23/2/1 19/2/1 18/2/1
f 23/2/1 18/2/1 17/2/1
f 23/2/1 17/2/1 16/2/1
f 23/2/1 16/2/1 15/2/1
f 23/2/1 15/2/1 14/2/1
f 24/2/1 22/2/1 21/2/1
f 25/2/1 23/2/1 13/2/1
f 25/2/1 24/2/1 23/2/1
f 25/2/1 13/2/1 1/2/1
f 26/2/1 2/2/1 22/2/1
f 26/2/1 24/2/1 25/2/1
f 26/2/1 22/2/1 24/2/1
f 31/2/1 28/2/1 27/2/1
f 32/2/1 30/2/1 29/2/1
f 33/2/1 31/2/1 27/2/1
f 33/2/1 32/2/1 31/2/1
f 34/2/1 30/2/1 32/2/1
f 34/2/1 32/2/1 33/2/1
f 35/2/2 36/2/2 39/2/2
f 37/2/2 38/2/2 40/2/2
f 35/2/2 39/2/2 41/2/2
f 39/2/2 40/2/2 41/2/2
f 40/2/2 38/2/2 42/2/2
f 41/2/2 40/2/2 42/2/2
f 45/2/2 46/2/2 47/2/2
f 43/2/2 44/2/2 49/2/2
f 47/2/2 48/2/2 50/2/2
f 45/2/2 47/2/2 50/2/2
f 43/2/2 49/2/2 51/2/2
f 49/2/2 50/2/2 51/2/2
f 50/2/2 48/2/2 52/2/2
f 51/2/2 50/2/2 52/2/2
f 53/2/2 54/2/2 55/2/2
f 55/2/2 54/2/2 56/2/2
f 57/2/2 58/2/2 59/2/2
f 59/2/2 58/2/2 60/2/2
f 60/2/2 58/2/2 61/2/2
f 61/2/2 58/2/2 62/2/2
f 62/2/2 58/2/2 63/2/2
f 63/2/2 58/2/2 64/2/2
f 64/2/2 58/2/2 65/2/2
f 65/2/2 58/2/2 66/2/2
f 66/2/2 58/2/2 67/2/2
f 67/2/2 58/2/2 68/2/2
f 68/2/2 58/2/2 69/2/2
f 69/2/2 58/2/2 70/2/2
f 70/2/2 58/2/2 71/2/2
f 71/2/2 58/2/2 72/2/2
f 59/1/2 60/1/2 73/1/2
f 60/4/2 61/4/2 74/4/2
f 73/1/2 60/1/2 74/1/2
f 61/1/2 62/1/2 75/1/2
f 74/4/2 61/4/2 75/4/2
f 62/4/2 63/4/2 76/4/2
f 75/1/2 62/1/2 76/1/2
f 63/1/2 64/1/2 77/1/2
f 76/4/2 63/4/2 77/4/2
f 64/4/2 65/4/2 78/4/2
f 77/1/2 64/1/2 78/1/2
f 65/1/2 66/1/2 79/1/2
f 78/4/2 65/4/2 79/4/2
f 66/4/2 67/4/2 80/4/2
f 79/1/2 66/1/2 80/1/2
f 67/1/2 68/1/2 81/1/2
f 80/4/2 67/4/2 81/4/2
f 68/4/2 69/4/2 82/4/2
f 81/1/2 68/1/2 82/1/2
f 69/1/2 70/1/2 83/1/2
f 82/4/2 69/4/2 83/4/2
f 70/4/2 71/4/2 84/4/2
f 83/1/2 70/1/2 84/1/2
f 71/1/2 72/1/2 85/1/2
f 84/4/2 71/4/2 85/4/2
f 72/2/2 58/2/2 86/2/2
f 85/1/2 72/1/2 86/1/2
f 86/2/2 58/2/2 87/2/2
f 87/2/2 58/2/2 88/2/2
f 91/2/3 90/2/3 89/2/3
f 92/2/3 90/2/3 91/2/3
f 93/2/3 90/2/3 92/2/3
f 94/2/3 91/2/3 89/2/3
f 94/3/3 92/3/3 91/3/3
f 95/3/3 92/3/3 94/3/3
f 97/2/3 94/2/3 89/2/3
f 97/2/3 96/2/3 95/2/3
f 97/2/3 95/2/3 94/2/3
f 98/2/3 96/2/3 97/2/3
f 99/2/3 96/2/3 98/2/3
f 100/2/3 97/2/3 89/2/3
f 101/1/3 98/1/3 97/1/3
f 101/2/3 97/2/3 100/2/3
f 102/1/3 98/1/3 101/1/3
f 105/2/3 104/2/3 103/2/3
f 106/2/3 104/2/3 105/2/3
f 109/2/3 108/2/3 107/2/3
f 110/2/3 108/2/3 109/2/3
f 113/2/3 112/2/3 111/2/3
f 114/2/3 112/2/3 113/2/3
f 117/2/3 116/2/3 115/2/3
f 118/2/3 116/2/3 117/2/3
f 122/2/3 120/2/3 119/2/3
f 123/2/3 122/2/3 121/2/3
f 124/2/3 120/2/3 122/2/3
f 124/2/3 122/2/3 123/2/3
f 125/2/4 126/2/4 127/2/4
f 127/2/4 126/2/4 128/2/4
f 129/2/4 130/2/4 131/2/4
f 131/2/4 130/2/4 132/2/4
f 133/2/4 134/2/4 135/2/4
f 135/2/4 134/2/4 136/2/4
f 139/2/5 138/2/5 137/2/5
f 140/2/5 138/2/5 139/2/5
f 143/2/5 142/2/5 141/2/5
f 144/2/5 142/2/5 143/2/5
f 147/2/5 146/2/5 145/2/5
f 148/2/5 146/2/5 147/2/5
f 151/1/6 152/1/6 153/1/6
f 153/1/6 152/1/6 154/1/6
f 154/1/6 152/1/6 155/1/6
f 155/1/6 152/1/6 156/1/6
f 151/1/6 153/1/6 157/1/6
f 153/4/6 154/4/6 157/4/6
f 154/1/6 155/1/6 158/1/6
f 157/4/6 154/4/6 158/4/6
f 155/4/6 156/4/6 159/4/6
f 158/1/6 155/1/6 159/1/6
f 159/4/6 156/4/6 160/4/6
f 157/1/6 158/1/6 161/1/6
f 151/1/6 157/1/6 161/1/6
f 159/1/6 160/1/6 161/1/6
f 158/1/6 159/1/6 161/1/6
f 161/1/6 160/1/6 162/1/6
f 162/1/6 160/1/6 163/1/6
f 163/1/6 160/1/6 164/1/6
f 151/1/6 161/1/6 165/1/6
f 161/4/6 162/4/6 165/4/6
f 162/1/6 163/1/6 166/1/6
f 165/4/6 162/4/6 166/4/6
f 163/4/6 164/4/6 167/4/6
f 166/1/6 163/1/6 167/1/6
f 167/4/6 164/4/6 168/4/6
f 165/1/6 166/1/6 169/1/6
f 151/1/6 165/1/6 169/1/6
f 167/1/6 168/1/6 169/1/6
f 166/1/6 167/1/6 169/1/6
f 169/1/6 168/1/6 170/1/6
f 170/1/6 168/1/6 171/1/6
f 171/1/6 168/1/6 172/1/6
f 151/1/6 169/1/6 173/1/6
f 169/4/6 170/4/6 173/4/6
f 170/1/6 171/1/6 174/1/6
f 173/4/6 170/4/6 174/4/6
f 171/4/6 172/4/6 175/4/6
f 174/1/6 171/1/6 175/1/6
f 175/4/6 172/4/6 176/4/6
f 173/1/6 174/1/6 177/1/6
f 151/1/6 173/1/6 177/1/6
f 175/1/6 176/1/6 177/1/6
f 174/1/6 175/1/6 177/1/6
f 177/1/6 176/1/6 178/1/6
f 178/1/6 176/1/6 179/1/6
f 179/1/6 176/1/6 180/1/6
f 149/3/6 150/3/6 181/3/6
f 151/1/6 177/1/6 182/1/6
f 149/3/6 181/3/6 184/3/6
f 181/1/6 182/1/6 185/1/6
f 177/4/6 178/4/6 185/4/6
f 182/1/6 177/1/6 185/1/6
f 178/1/6 179/1/6 186/1/6
f 185/4/6 178/4/6 186/4/6
f 179/4/6 180/4/6 187/4/6
f 186/1/6 179/1/6 187/1/6
f 187/4/6 180/4/6 188/4/6
f 181/1/6 185/1/6 189/1/6
f 185/1/6 186/1/6 189/1/6
f 187/1/6 188/1/6 189/1/6
f 186/1/6 187/1/6 189/1/6
f 189/1/6 188/1/6 190/1/6
f 190/1/6 188/1/6 191/1/6
f 191/1/6 188/1/6 192/1/6
f 181/1/6 189/1/6 193/1/6
f 189/4/6 190/4/6 193/4/6
f 190/1/6 191/1/6 194/1/6
f 193/4/6 190/4/6 194/4/6
f 191/4/6 192/4/6 195/4/6
f 194/1/6 191/1/6 195/1/6
f 195/4/6 192/4/6 196/4/6
f 183/3/6 184/3/6 197/3/6
f 184/3/6 181/3/6 197/3/6
f 195/1/6 196/1/6 197/1/6
f 194/1/6 195/1/6 197/1/6
f 181/1/6 193/1/6 197/1/6
f 193/1/6 194/1/6 197/1/6
f 197/1/6 196/1/6 198/1/6
f 183/3/6 197/3/6 199/3/6
f 199/3/6 197/3/6 200/3/6
f 198/1/6 196/1/6 201/1/6
f 201/1/6 196/1/6 202/1/6
f 202/1/6 196/1/6 203/1/6
f 203/1/6 196/1/6 204/1/6
f 204/1/6 196/1/6 205/1/6
f 205/1/6 196/1/6 206/1/6
f 202/1/6 203/1/6 207/1/6
f 203/4/6 204/4/6 207/4/6
f 204/1/6 205/1/6 208/1/6
f 207/4/6 204/4/6 208/4/6
f 205/4/6 206/4/6 209/4/6
f 208/1/6 205/1/6 209/1/6
f 209/4/6 206/4/6 210/4/6
f 200/3/6 197/3/6 211/3/6
f 211/3/6 197/3/6 212/3/6
f 207/1/6 208/1/6 213/1/6
f 202/1/6 207/1/6 213/1/6
f 208/1/6 209/1/6 213/1/6
f 209/1/6 210/1/6 213/1/6
f 213/1/6 210/1/6 214/1/6
f 215/2/6 216/2/6 217/2/6
f 217/2/6 216/2/6 218/2/6
f 219/2/6 220/2/6 223/2/6
f 221/2/6 222/2/6 224/2/6
f 224/2/6 222/2/6 225/2/6
f 219/2/6 223/2/6 227/2/6
f 225/2/6 226/2/6 227/2/6
f 224/2/6 225/2/6 227/2/6
f 223/2/6 224/2/6 227/2/6
f 227/2/6 226/2/6 228/2/6
