# MagicaVoxel @ Ephtracy

# group
g 4x2 second (1)-0

# material
mtllib 4x2 second (1)-0.mtl
usemtl palette

# normals
vn -1 0 0
vn 1 0 0
vn 0 0 1
vn 0 0 -1
vn 0 -1 0
vn 0 1 0

# texcoords
vt 0.0332031 0.5
vt 0.962891 0.5
vt 0.966797 0.5
vt 0.974609 0.5
vt 0.982422 0.5

# verts
v -63 0 63
v -63 0 -63
v -63 80 63
v -63 80 -63
v 61 27 3
v 61 27 -8
v 61 32 1
v 61 32 -5
v 61 33 -6
v 61 33 -7
v 61 34 1
v 61 34 -5
v 61 34 -6
v 61 34 -7
v 61 35 3
v 61 35 -8
v 62 3 63
v 62 3 -12
v 62 3 -42
v 62 3 -61
v 62 27 3
v 62 27 -8
v 62 35 3
v 62 35 -8
v 62 43 -12
v 62 43 -42
v 62 80 63
v 62 80 -61
v -61 3 63
v -61 3 -61
v -61 80 63
v -61 80 -61
v 63 0 63
v 63 0 -63
v 63 2 -12
v 63 2 -42
v 63 3 -12
v 63 3 -42
v 63 43 -12
v 63 43 -42
v 63 80 63
v 63 80 -63
v -63 0 63
v -63 80 63
v -61 2 63
v -61 3 63
v -61 80 63
v 62 2 63
v 62 3 63
v 62 80 63
v 63 0 63
v 63 80 63
v 61 27 3
v 61 35 3
v 62 27 3
v 62 35 3
v 62 3 -42
v 62 43 -42
v 63 3 -42
v 63 43 -42
v -61 3 -61
v -61 80 -61
v 62 3 -61
v 62 80 -61
v 61 27 -8
v 61 35 -8
v 62 27 -8
v 62 35 -8
v 62 3 -12
v 62 43 -12
v 63 3 -12
v 63 43 -12
v -63 0 -63
v -63 80 -63
v 63 0 -63
v 63 80 -63
v -63 0 63
v 63 0 63
v -63 0 -63
v 63 0 -63
v 61 27 3
v 62 27 3
v 61 27 -8
v 62 27 -8
v 62 43 -12
v 63 43 -12
v 62 43 -42
v 63 43 -42
v -61 3 63
v 62 3 63
v 62 3 -12
v 63 3 -12
v 62 3 -42
v 63 3 -42
v -61 3 -61
v 62 3 -61
v 61 35 3
v 62 35 3
v 61 35 -8
v 62 35 -8
v -63 80 63
v -61 80 63
v 62 80 63
v 63 80 63
v -61 80 -61
v 62 80 -61
v -63 80 -63
v 63 80 -63

# faces
f 3/3/1 2/3/1 1/3/1
f 4/3/1 2/3/1 3/3/1
f 7/4/1 6/4/1 5/4/1
f 8/4/1 6/4/1 7/4/1
f 9/4/1 6/4/1 8/4/1
f 10/4/1 6/4/1 9/4/1
f 11/4/1 7/4/1 5/4/1
f 11/2/1 8/2/1 7/2/1
f 12/4/1 9/4/1 8/4/1
f 12/2/1 8/2/1 11/2/1
f 13/5/1 10/5/1 9/5/1
f 13/4/1 9/4/1 12/4/1
f 14/4/1 6/4/1 10/4/1
f 14/5/1 10/5/1 13/5/1
f 15/4/1 13/4/1 12/4/1
f 15/4/1 12/4/1 11/4/1
f 15/4/1 14/4/1 13/4/1
f 15/4/1 11/4/1 5/4/1
f 16/4/1 6/4/1 14/4/1
f 16/4/1 14/4/1 15/4/1
f 21/3/1 18/3/1 17/3/1
f 22/3/1 18/3/1 21/3/1
f 23/3/1 21/3/1 17/3/1
f 24/3/1 18/3/1 22/3/1
f 25/3/1 18/3/1 24/3/1
f 25/3/1 24/3/1 23/3/1
f 26/3/1 20/3/1 19/3/1
f 27/3/1 25/3/1 23/3/1
f 27/3/1 26/3/1 25/3/1
f 27/3/1 23/3/1 17/3/1
f 28/3/1 20/3/1 26/3/1
f 28/3/1 26/3/1 27/3/1
f 29/3/2 30/3/2 31/3/2
f 31/3/2 30/3/2 32/3/2
f 33/3/2 34/3/2 35/3/2
f 35/3/2 34/3/2 36/3/2
f 33/3/2 35/3/2 37/3/2
f 35/1/2 36/1/2 37/1/2
f 36/3/2 34/3/2 38/3/2
f 37/1/2 36/1/2 38/1/2
f 33/3/2 37/3/2 39/3/2
f 38/3/2 34/3/2 40/3/2
f 33/3/2 39/3/2 41/3/2
f 39/3/2 40/3/2 41/3/2
f 40/3/2 34/3/2 42/3/2
f 41/3/2 40/3/2 42/3/2
f 45/3/3 44/3/3 43/3/3
f 46/3/3 44/3/3 45/3/3
f 47/3/3 44/3/3 46/3/3
f 48/3/3 45/3/3 43/3/3
f 48/1/3 46/1/3 45/1/3
f 49/1/3 46/1/3 48/1/3
f 51/3/3 48/3/3 43/3/3
f 51/3/3 50/3/3 49/3/3
f 51/3/3 49/3/3 48/3/3
f 52/3/3 50/3/3 51/3/3
f 55/4/3 54/4/3 53/4/3
f 56/4/3 54/4/3 55/4/3
f 59/3/3 58/3/3 57/3/3
f 60/3/3 58/3/3 59/3/3
f 63/3/3 62/3/3 61/3/3
f 64/3/3 62/3/3 63/3/3
f 65/4/4 66/4/4 67/4/4
f 67/4/4 66/4/4 68/4/4
f 69/3/4 70/3/4 71/3/4
f 71/3/4 70/3/4 72/3/4
f 73/3/4 74/3/4 75/3/4
f 75/3/4 74/3/4 76/3/4
f 79/3/5 78/3/5 77/3/5
f 80/3/5 78/3/5 79/3/5
f 83/4/5 82/4/5 81/4/5
f 84/4/5 82/4/5 83/4/5
f 87/3/5 86/3/5 85/3/5
f 88/3/5 86/3/5 87/3/5
f 89/1/6 90/1/6 91/1/6
f 89/1/6 91/1/6 93/1/6
f 91/1/6 92/1/6 93/1/6
f 93/1/6 92/1/6 94/1/6
f 89/1/6 93/1/6 95/1/6
f 95/1/6 93/1/6 96/1/6
f 97/4/6 98/4/6 99/4/6
f 99/4/6 98/4/6 100/4/6
f 101/3/6 102/3/6 105/3/6
f 103/3/6 104/3/6 106/3/6
f 101/3/6 105/3/6 107/3/6
f 105/3/6 106/3/6 107/3/6
f 106/3/6 104/3/6 108/3/6
f 107/3/6 106/3/6 108/3/6
