# MagicaVoxel @ Ephtracy

# group
g 4x2 second (1)-3

# material
mtllib 4x2 second (1)-3.mtl
usemtl palette

# normals
vn -1 0 0
vn 1 0 0
vn 0 0 1
vn 0 0 -1
vn 0 -1 0
vn 0 1 0

# texcoords
vt 0.966797 0.5
vt 0.982422 0.5
vt 0.986328 0.5

# verts
v -63 0 63
v -63 0 -63
v -63 80 63
v -63 80 -63
v -37 3 60
v -37 3 58
v -37 24 60
v -37 24 58
v -33 4 -1
v -33 4 -2
v -33 44 -1
v -33 44 -2
v -24 3 60
v -24 3 58
v -24 24 60
v -24 24 58
v -11 3 60
v -11 3 58
v -11 24 60
v -11 24 58
v -2 4 -1
v -2 4 -2
v -2 44 -1
v -2 44 -2
v 2 3 60
v 2 3 58
v 2 24 60
v 2 24 58
v 15 3 60
v 15 3 58
v 15 24 60
v 15 24 58
v 28 3 60
v 28 3 58
v 28 24 60
v 28 24 58
v 41 3 60
v 41 3 58
v 41 24 60
v 41 24 58
v 51 3 63
v 51 3 -1
v 51 4 -1
v 51 4 -2
v 51 24 60
v 51 24 58
v 51 26 60
v 51 26 58
v 51 44 -1
v 51 44 -2
v 51 45 -1
v 51 45 -2
v 51 72 -0
v 51 72 -2
v 51 80 63
v 51 80 -0
v -62 3 -2
v -62 3 -63
v -62 80 -2
v -62 80 -63
v -51 3 63
v -51 3 -1
v -51 4 -1
v -51 4 -2
v -51 24 60
v -51 24 58
v -51 26 60
v -51 26 58
v -51 44 -1
v -51 44 -2
v -51 45 -1
v -51 45 -2
v -51 72 -0
v -51 72 -2
v -51 80 63
v -51 80 -0
v -35 3 60
v -35 3 58
v -35 24 60
v -35 24 58
v -32 4 -1
v -32 4 -2
v -32 44 -1
v -32 44 -2
v -22 3 60
v -22 3 58
v -22 24 60
v -22 24 58
v -9 3 60
v -9 3 58
v -9 24 60
v -9 24 58
v -1 4 -1
v -1 4 -2
v -1 44 -1
v -1 44 -2
v 4 3 60
v 4 3 58
v 4 24 60
v 4 24 58
v 17 3 60
v 17 3 58
v 17 24 60
v 17 24 58
v 30 3 60
v 30 3 58
v 30 24 60
v 30 24 58
v 43 3 60
v 43 3 58
v 43 24 60
v 43 24 58
v 63 0 63
v 63 0 -63
v 63 2 -1
v 63 2 -32
v 63 2 -63
v 63 3 -2
v 63 3 -32
v 63 3 -63
v 63 19 -1
v 63 19 -2
v 63 80 63
v 63 80 -2
v -63 0 63
v -63 80 63
v -51 3 63
v -51 80 63
v 51 3 63
v 51 80 63
v 63 0 63
v 63 80 63
v -51 24 60
v -51 26 60
v -37 3 60
v -37 24 60
v -35 3 60
v -35 24 60
v -24 3 60
v -24 24 60
v -22 3 60
v -22 24 60
v -11 3 60
v -11 24 60
v -9 3 60
v -9 24 60
v 2 3 60
v 2 24 60
v 4 3 60
v 4 24 60
v 15 3 60
v 15 24 60
v 17 3 60
v 17 24 60
v 28 3 60
v 28 24 60
v 30 3 60
v 30 24 60
v 41 3 60
v 41 24 60
v 43 3 60
v 43 24 60
v 51 24 60
v 51 26 60
v -51 72 -0
v -51 80 -0
v 51 72 -0
v 51 80 -0
v -51 3 -1
v -51 4 -1
v -51 44 -1
v -51 45 -1
v -33 4 -1
v -33 44 -1
v -32 4 -1
v -32 44 -1
v -2 4 -1
v -2 44 -1
v -1 4 -1
v -1 44 -1
v 51 3 -1
v 51 4 -1
v 51 44 -1
v 51 45 -1
v -51 24 58
v -51 26 58
v -37 3 58
v -37 24 58
v -35 3 58
v -35 24 58
v -24 3 58
v -24 24 58
v -22 3 58
v -22 24 58
v -11 3 58
v -11 24 58
v -9 3 58
v -9 24 58
v 2 3 58
v 2 24 58
v 4 3 58
v 4 24 58
v 15 3 58
v 15 24 58
v 17 3 58
v 17 24 58
v 28 3 58
v 28 24 58
v 30 3 58
v 30 24 58
v 41 3 58
v 41 24 58
v 43 3 58
v 43 24 58
v 51 24 58
v 51 26 58
v -62 3 -2
v -62 80 -2
v -51 4 -2
v -51 44 -2
v -51 45 -2
v -51 72 -2
v -33 4 -2
v -33 44 -2
v -32 4 -2
v -32 44 -2
v -2 4 -2
v -2 44 -2
v -1 4 -2
v -1 44 -2
v 51 4 -2
v 51 44 -2
v 51 45 -2
v 51 72 -2
v 52 6 -2
v 52 16 -2
v 53 5 -2
v 53 6 -2
v 53 16 -2
v 53 18 -2
v 54 16 -2
v 54 18 -2
v 55 3 -2
v 55 5 -2
v 55 16 -2
v 55 19 -2
v 55 20 -2
v 55 21 -2
v 56 20 -2
v 56 21 -2
v 57 19 -2
v 57 23 -2
v 62 19 -2
v 62 23 -2
v 63 3 -2
v 63 19 -2
v 63 80 -2
v -63 0 -63
v -63 80 -63
v -62 2 -63
v -62 3 -63
v -62 80 -63
v 63 0 -63
v 63 2 -63
v 63 3 -63
v -63 0 63
v 63 0 63
v -63 0 -63
v 63 0 -63
v -51 24 60
v -37 24 60
v -35 24 60
v -24 24 60
v -22 24 60
v -11 24 60
v -9 24 60
v 2 24 60
v 4 24 60
v 15 24 60
v 17 24 60
v 28 24 60
v 30 24 60
v 41 24 60
v 43 24 60
v 51 24 60
v -51 24 58
v -37 24 58
v -35 24 58
v -24 24 58
v -22 24 58
v -11 24 58
v -9 24 58
v 2 24 58
v 4 24 58
v 15 24 58
v 17 24 58
v 28 24 58
v 30 24 58
v 41 24 58
v 43 24 58
v 51 24 58
v -51 44 -1
v -33 44 -1
v -32 44 -1
v -2 44 -1
v -1 44 -1
v 51 44 -1
v -51 44 -2
v -33 44 -2
v -32 44 -2
v -2 44 -2
v -1 44 -2
v 51 44 -2
v -51 72 -0
v 51 72 -0
v -51 72 -2
v 51 72 -2
v -51 3 63
v 51 3 63
v -37 3 60
v -35 3 60
v -24 3 60
v -22 3 60
v -11 3 60
v -9 3 60
v 2 3 60
v 4 3 60
v 15 3 60
v 17 3 60
v 28 3 60
v 30 3 60
v 41 3 60
v 43 3 60
v -37 3 58
v -35 3 58
v -24 3 58
v -22 3 58
v -11 3 58
v -9 3 58
v 2 3 58
v 4 3 58
v 15 3 58
v 17 3 58
v 28 3 58
v 30 3 58
v 41 3 58
v 43 3 58
v -51 3 -1
v 51 3 -1
v -62 3 -2
v 55 3 -2
v 63 3 -2
v 52 3 -3
v 55 3 -3
v 51 3 -11
v 52 3 -11
v 55 3 -11
v 45 3 -14
v 51 3 -14
v 52 3 -14
v 55 3 -14
v 45 3 -20
v 52 3 -20
v 53 3 -20
v 54 3 -20
v 52 3 -21
v 53 3 -21
v 52 3 -25
v 54 3 -25
v 52 3 -29
v 55 3 -29
v 51 3 -31
v 52 3 -31
v 51 3 -32
v 52 3 -32
v 55 3 -32
v 59 3 -32
v 62 3 -32
v 63 3 -32
v 56 3 -33
v 57 3 -33
v 56 3 -34
v 57 3 -34
v 59 3 -34
v 62 3 -34
v -62 3 -63
v 63 3 -63
v -51 4 -1
v -33 4 -1
v -32 4 -1
v -2 4 -1
v -1 4 -1
v 51 4 -1
v -51 4 -2
v -33 4 -2
v -32 4 -2
v -2 4 -2
v -1 4 -2
v 51 4 -2
v -51 26 60
v 51 26 60
v -51 26 58
v 51 26 58
v -51 45 -1
v 51 45 -1
v -51 45 -2
v 51 45 -2
v -63 80 63
v -51 80 63
v 51 80 63
v 63 80 63
v -51 80 -0
v 51 80 -0
v -62 80 -2
v 63 80 -2
v -63 80 -63
v -62 80 -63

# faces
f 3/1/1 2/1/1 1/1/1
f 4/1/1 2/1/1 3/1/1
f 7/2/1 6/2/1 5/2/1
f 8/2/1 6/2/1 7/2/1
f 11/1/1 10/1/1 9/1/1
f 12/1/1 10/1/1 11/1/1
f 15/2/1 14/2/1 13/2/1
f 16/2/1 14/2/1 15/2/1
f 19/2/1 18/2/1 17/2/1
f 20/2/1 18/2/1 19/2/1
f 23/1/1 22/1/1 21/1/1
f 24/1/1 22/1/1 23/1/1
f 27/2/1 26/2/1 25/2/1
f 28/2/1 26/2/1 27/2/1
f 31/2/1 30/2/1 29/2/1
f 32/2/1 30/2/1 31/2/1
f 35/2/1 34/2/1 33/2/1
f 36/2/1 34/2/1 35/2/1
f 39/2/1 38/2/1 37/2/1
f 40/2/1 38/2/1 39/2/1
f 43/1/1 42/1/1 41/1/1
f 45/1/1 43/1/1 41/1/1
f 45/1/1 44/1/1 43/1/1
f 46/1/1 44/1/1 45/1/1
f 47/1/1 45/1/1 41/1/1
f 48/1/1 44/1/1 46/1/1
f 49/1/1 44/1/1 48/1/1
f 49/1/1 48/1/1 47/1/1
f 50/1/1 44/1/1 49/1/1
f 51/1/1 49/1/1 47/1/1
f 53/1/1 51/1/1 47/1/1
f 53/1/1 52/1/1 51/1/1
f 54/1/1 52/1/1 53/1/1
f 55/1/1 47/1/1 41/1/1
f 55/1/1 53/1/1 47/1/1
f 56/1/1 53/1/1 55/1/1
f 57/1/2 58/1/2 59/1/2
f 59/1/2 58/1/2 60/1/2
f 61/1/2 62/1/2 63/1/2
f 61/1/2 63/1/2 65/1/2
f 63/1/2 64/1/2 65/1/2
f 65/1/2 64/1/2 66/1/2
f 61/1/2 65/1/2 67/1/2
f 66/1/2 64/1/2 68/1/2
f 68/1/2 64/1/2 69/1/2
f 67/1/2 68/1/2 69/1/2
f 69/1/2 64/1/2 70/1/2
f 67/1/2 69/1/2 71/1/2
f 67/1/2 71/1/2 73/1/2
f 71/1/2 72/1/2 73/1/2
f 73/1/2 72/1/2 74/1/2
f 61/1/2 67/1/2 75/1/2
f 67/1/2 73/1/2 75/1/2
f 75/1/2 73/1/2 76/1/2
f 77/2/2 78/2/2 79/2/2
f 79/2/2 78/2/2 80/2/2
f 81/1/2 82/1/2 83/1/2
f 83/1/2 82/1/2 84/1/2
f 85/2/2 86/2/2 87/2/2
f 87/2/2 86/2/2 88/2/2
f 89/2/2 90/2/2 91/2/2
f 91/2/2 90/2/2 92/2/2
f 93/1/2 94/1/2 95/1/2
f 95/1/2 94/1/2 96/1/2
f 97/2/2 98/2/2 99/2/2
f 99/2/2 98/2/2 100/2/2
f 101/2/2 102/2/2 103/2/2
f 103/2/2 102/2/2 104/2/2
f 105/2/2 106/2/2 107/2/2
f 107/2/2 106/2/2 108/2/2
f 109/2/2 110/2/2 111/2/2
f 111/2/2 110/2/2 112/2/2
f 113/1/2 114/1/2 115/1/2
f 115/1/2 114/1/2 116/1/2
f 116/1/2 114/1/2 117/1/2
f 115/3/2 116/3/2 118/3/2
f 116/2/2 117/2/2 119/2/2
f 118/3/2 116/3/2 119/3/2
f 119/2/2 117/2/2 120/2/2
f 113/1/2 115/1/2 121/1/2
f 115/3/2 118/3/2 121/3/2
f 121/3/2 118/3/2 122/3/2
f 113/1/2 121/1/2 123/1/2
f 121/1/2 122/1/2 123/1/2
f 123/1/2 122/1/2 124/1/2
f 127/1/3 126/1/3 125/1/3
f 128/1/3 126/1/3 127/1/3
f 129/1/3 127/1/3 125/1/3
f 131/1/3 129/1/3 125/1/3
f 131/1/3 130/1/3 129/1/3
f 132/1/3 130/1/3 131/1/3
f 136/2/3 134/2/3 133/2/3
f 137/2/3 136/2/3 135/2/3
f 138/2/3 134/2/3 136/2/3
f 138/2/3 136/2/3 137/2/3
f 140/2/3 134/2/3 138/2/3
f 141/2/3 140/2/3 139/2/3
f 142/2/3 134/2/3 140/2/3
f 142/2/3 140/2/3 141/2/3
f 144/2/3 134/2/3 142/2/3
f 145/2/3 144/2/3 143/2/3
f 146/2/3 134/2/3 144/2/3
f 146/2/3 144/2/3 145/2/3
f 148/2/3 134/2/3 146/2/3
f 149/2/3 148/2/3 147/2/3
f 150/2/3 134/2/3 148/2/3
f 150/2/3 148/2/3 149/2/3
f 152/2/3 134/2/3 150/2/3
f 153/2/3 152/2/3 151/2/3
f 154/2/3 134/2/3 152/2/3
f 154/2/3 152/2/3 153/2/3
f 156/2/3 134/2/3 154/2/3
f 157/2/3 156/2/3 155/2/3
f 158/2/3 134/2/3 156/2/3
f 158/2/3 156/2/3 157/2/3
f 160/2/3 134/2/3 158/2/3
f 161/2/3 160/2/3 159/2/3
f 162/2/3 134/2/3 160/2/3
f 162/2/3 160/2/3 161/2/3
f 163/2/3 134/2/3 162/2/3
f 164/2/3 134/2/3 163/2/3
f 167/1/3 166/1/3 165/1/3
f 168/1/3 166/1/3 167/1/3
f 173/1/3 170/1/3 169/1/3
f 174/1/3 172/1/3 171/1/3
f 175/1/3 173/1/3 169/1/3
f 175/1/3 174/1/3 173/1/3
f 176/1/3 172/1/3 174/1/3
f 176/1/3 174/1/3 175/1/3
f 177/1/3 175/1/3 169/1/3
f 178/1/3 172/1/3 176/1/3
f 179/1/3 177/1/3 169/1/3
f 179/1/3 178/1/3 177/1/3
f 180/1/3 172/1/3 178/1/3
f 180/1/3 178/1/3 179/1/3
f 181/1/3 179/1/3 169/1/3
f 182/1/3 179/1/3 181/1/3
f 183/1/3 172/1/3 180/1/3
f 184/1/3 172/1/3 183/1/3
f 185/2/4 186/2/4 188/2/4
f 187/2/4 188/2/4 189/2/4
f 188/2/4 186/2/4 190/2/4
f 189/2/4 188/2/4 190/2/4
f 190/2/4 186/2/4 192/2/4
f 191/2/4 192/2/4 193/2/4
f 192/2/4 186/2/4 194/2/4
f 193/2/4 192/2/4 194/2/4
f 194/2/4 186/2/4 196/2/4
f 195/2/4 196/2/4 197/2/4
f 196/2/4 186/2/4 198/2/4
f 197/2/4 196/2/4 198/2/4
f 198/2/4 186/2/4 200/2/4
f 199/2/4 200/2/4 201/2/4
f 200/2/4 186/2/4 202/2/4
f 201/2/4 200/2/4 202/2/4
f 202/2/4 186/2/4 204/2/4
f 203/2/4 204/2/4 205/2/4
f 204/2/4 186/2/4 206/2/4
f 205/2/4 204/2/4 206/2/4
f 206/2/4 186/2/4 208/2/4
f 207/2/4 208/2/4 209/2/4
f 208/2/4 186/2/4 210/2/4
f 209/2/4 208/2/4 210/2/4
f 210/2/4 186/2/4 212/2/4
f 211/2/4 212/2/4 213/2/4
f 212/2/4 186/2/4 214/2/4
f 213/2/4 212/2/4 214/2/4
f 214/2/4 186/2/4 215/2/4
f 215/2/4 186/2/4 216/2/4
f 217/1/4 218/1/4 219/1/4
f 219/1/4 218/1/4 220/1/4
f 220/1/4 218/1/4 221/1/4
f 221/1/4 218/1/4 222/1/4
f 217/1/4 219/1/4 223/1/4
f 220/1/4 221/1/4 224/1/4
f 217/1/4 223/1/4 225/1/4
f 223/1/4 224/1/4 225/1/4
f 224/1/4 221/1/4 226/1/4
f 225/1/4 224/1/4 226/1/4
f 217/1/4 225/1/4 227/1/4
f 226/1/4 221/1/4 228/1/4
f 217/1/4 227/1/4 229/1/4
f 227/1/4 228/1/4 229/1/4
f 228/1/4 221/1/4 230/1/4
f 229/1/4 228/1/4 230/1/4
f 217/1/4 229/1/4 231/1/4
f 230/1/4 221/1/4 232/1/4
f 232/1/4 221/1/4 233/1/4
f 222/1/4 218/1/4 234/1/4
f 232/1/4 233/1/4 235/1/4
f 233/1/4 234/1/4 235/1/4
f 231/1/4 232/1/4 235/1/4
f 235/1/4 234/1/4 236/1/4
f 231/1/4 235/1/4 237/1/4
f 235/3/4 236/3/4 238/3/4
f 237/1/4 235/1/4 238/1/4
f 236/1/4 234/1/4 239/1/4
f 238/3/4 236/3/4 239/3/4
f 239/1/4 234/1/4 240/1/4
f 237/3/4 238/3/4 241/3/4
f 238/3/4 239/3/4 241/3/4
f 239/3/4 240/3/4 241/3/4
f 240/1/4 234/1/4 242/1/4
f 241/3/4 240/3/4 242/3/4
f 217/1/4 231/1/4 243/1/4
f 231/1/4 237/1/4 243/1/4
f 237/3/4 241/3/4 244/3/4
f 243/1/4 237/1/4 244/1/4
f 241/1/4 242/1/4 245/1/4
f 244/3/4 241/3/4 245/3/4
f 242/1/4 234/1/4 246/1/4
f 245/1/4 242/1/4 246/1/4
f 246/1/4 234/1/4 247/1/4
f 247/1/4 234/1/4 248/1/4
f 246/1/4 247/1/4 249/1/4
f 247/3/4 248/3/4 249/3/4
f 248/1/4 234/1/4 250/1/4
f 249/3/4 248/3/4 250/3/4
f 244/3/4 245/3/4 251/3/4
f 243/3/4 244/3/4 251/3/4
f 249/1/4 250/1/4 251/1/4
f 246/1/4 249/1/4 251/1/4
f 245/3/4 246/3/4 251/3/4
f 250/1/4 234/1/4 252/1/4
f 251/1/4 250/1/4 252/1/4
f 243/3/4 251/3/4 253/3/4
f 251/3/4 252/3/4 253/3/4
f 252/1/4 234/1/4 254/1/4
f 253/3/4 252/3/4 254/3/4
f 243/3/4 253/3/4 255/3/4
f 253/1/4 254/1/4 256/1/4
f 255/3/4 253/3/4 256/3/4
f 234/1/4 218/1/4 257/1/4
f 256/1/4 254/1/4 257/1/4
f 254/1/4 234/1/4 257/1/4
f 258/1/4 259/1/4 260/1/4
f 260/1/4 259/1/4 261/1/4
f 261/1/4 259/1/4 262/1/4
f 258/1/4 260/1/4 263/1/4
f 260/2/4 261/2/4 264/2/4
f 263/1/4 260/1/4 264/1/4
f 264/2/4 261/2/4 265/2/4
f 268/1/5 267/1/5 266/1/5
f 269/1/5 267/1/5 268/1/5
f 286/2/5 271/2/5 270/2/5
f 287/2/5 271/2/5 286/2/5
f 288/2/5 273/2/5 272/2/5
f 289/2/5 273/2/5 288/2/5
f 290/2/5 275/2/5 274/2/5
f 291/2/5 275/2/5 290/2/5
f 292/2/5 277/2/5 276/2/5
f 293/2/5 277/2/5 292/2/5
f 294/2/5 279/2/5 278/2/5
f 295/2/5 279/2/5 294/2/5
f 296/2/5 281/2/5 280/2/5
f 297/2/5 281/2/5 296/2/5
f 298/2/5 283/2/5 282/2/5
f 299/2/5 283/2/5 298/2/5
f 300/2/5 285/2/5 284/2/5
f 301/2/5 285/2/5 300/2/5
f 308/1/5 303/1/5 302/1/5
f 309/1/5 303/1/5 308/1/5
f 310/1/5 305/1/5 304/1/5
f 311/1/5 305/1/5 310/1/5
f 312/1/5 307/1/5 306/1/5
f 313/1/5 307/1/5 312/1/5
f 316/1/5 315/1/5 314/1/5
f 317/1/5 315/1/5 316/1/5
f 318/1/6 319/1/6 320/1/6
f 320/1/6 319/1/6 321/1/6
f 321/1/6 319/1/6 322/1/6
f 322/1/6 319/1/6 323/1/6
f 323/1/6 319/1/6 324/1/6
f 324/1/6 319/1/6 325/1/6
f 325/1/6 319/1/6 326/1/6
f 326/1/6 319/1/6 327/1/6
f 327/1/6 319/1/6 328/1/6
f 328/1/6 319/1/6 329/1/6
f 329/1/6 319/1/6 330/1/6
f 330/1/6 319/1/6 331/1/6
f 331/1/6 319/1/6 332/1/6
f 332/1/6 319/1/6 333/1/6
f 318/1/6 320/1/6 334/1/6
f 321/1/6 322/1/6 335/1/6
f 335/1/6 322/1/6 336/1/6
f 323/1/6 324/1/6 337/1/6
f 337/1/6 324/1/6 338/1/6
f 325/1/6 326/1/6 339/1/6
f 339/1/6 326/1/6 340/1/6
f 327/1/6 328/1/6 341/1/6
f 341/1/6 328/1/6 342/1/6
f 329/1/6 330/1/6 343/1/6
f 343/1/6 330/1/6 344/1/6
f 331/1/6 332/1/6 345/1/6
f 345/1/6 332/1/6 346/1/6
f 333/1/6 319/1/6 347/1/6
f 345/1/6 346/1/6 348/1/6
f 346/1/6 347/1/6 348/1/6
f 343/1/6 344/1/6 348/1/6
f 318/1/6 334/1/6 348/1/6
f 344/1/6 345/1/6 348/1/6
f 341/1/6 342/1/6 348/1/6
f 342/1/6 343/1/6 348/1/6
f 335/1/6 336/1/6 348/1/6
f 340/1/6 341/1/6 348/1/6
f 339/1/6 340/1/6 348/1/6
f 338/1/6 339/1/6 348/1/6
f 337/1/6 338/1/6 348/1/6
f 336/1/6 337/1/6 348/1/6
f 334/1/6 335/1/6 348/1/6
f 347/1/6 319/1/6 349/1/6
f 348/1/6 347/1/6 349/1/6
f 350/2/6 351/2/6 353/2/6
f 351/3/6 352/3/6 354/3/6
f 353/2/6 351/2/6 354/2/6
f 350/2/6 353/2/6 355/2/6
f 353/3/6 354/3/6 356/3/6
f 355/2/6 353/2/6 356/2/6
f 354/3/6 352/3/6 357/3/6
f 356/3/6 354/3/6 357/3/6
f 350/2/6 355/2/6 358/2/6
f 355/3/6 356/3/6 359/3/6
f 358/2/6 355/2/6 359/2/6
f 356/2/6 357/2/6 360/2/6
f 359/3/6 356/3/6 360/3/6
f 357/3/6 352/3/6 361/3/6
f 360/2/6 357/2/6 361/2/6
f 350/2/6 358/2/6 362/2/6
f 359/3/6 360/3/6 362/3/6
f 360/3/6 361/3/6 362/3/6
f 358/3/6 359/3/6 362/3/6
f 362/3/6 361/3/6 363/3/6
f 363/3/6 361/3/6 364/3/6
f 364/3/6 361/3/6 365/3/6
f 362/2/6 363/2/6 366/2/6
f 363/3/6 364/3/6 366/3/6
f 364/2/6 365/2/6 367/2/6
f 366/3/6 364/3/6 367/3/6
f 362/2/6 366/2/6 368/2/6
f 366/2/6 367/2/6 368/2/6
f 365/3/6 361/3/6 369/3/6
f 368/2/6 367/2/6 369/2/6
f 367/2/6 365/2/6 369/2/6
f 362/2/6 368/2/6 370/2/6
f 368/3/6 369/3/6 370/3/6
f 361/3/6 352/3/6 371/3/6
f 370/3/6 369/3/6 371/3/6
f 369/3/6 361/3/6 371/3/6
f 362/2/6 370/2/6 372/2/6
f 370/2/6 371/2/6 372/2/6
f 372/2/6 371/2/6 373/2/6
f 362/2/6 372/2/6 374/2/6
f 372/3/6 373/3/6 374/3/6
f 373/2/6 371/2/6 375/2/6
f 374/3/6 373/3/6 375/3/6
f 371/3/6 352/3/6 376/3/6
f 375/2/6 371/2/6 376/2/6
f 376/3/6 352/3/6 377/3/6
f 377/3/6 352/3/6 378/3/6
f 378/3/6 352/3/6 379/3/6
f 374/2/6 375/2/6 380/2/6
f 375/2/6 376/2/6 380/2/6
f 376/2/6 377/2/6 380/2/6
f 380/2/6 377/2/6 381/2/6
f 374/2/6 380/2/6 382/2/6
f 380/3/6 381/3/6 382/3/6
f 381/2/6 377/2/6 383/2/6
f 382/3/6 381/3/6 383/3/6
f 377/3/6 378/3/6 384/3/6
f 383/2/6 377/2/6 384/2/6
f 378/2/6 379/2/6 385/2/6
f 384/3/6 378/3/6 385/3/6
f 350/2/6 362/2/6 386/2/6
f 362/2/6 374/2/6 386/2/6
f 384/2/6 385/2/6 386/2/6
f 374/2/6 382/2/6 386/2/6
f 382/2/6 383/2/6 386/2/6
f 383/2/6 384/2/6 386/2/6
f 385/2/6 379/2/6 387/2/6
f 386/2/6 385/2/6 387/2/6
f 388/1/6 389/1/6 394/1/6
f 394/1/6 389/1/6 395/1/6
f 390/1/6 391/1/6 396/1/6
f 396/1/6 391/1/6 397/1/6
f 392/1/6 393/1/6 398/1/6
f 398/1/6 393/1/6 399/1/6
f 400/2/6 401/2/6 402/2/6
f 402/2/6 401/2/6 403/2/6
f 404/1/6 405/1/6 406/1/6
f 406/1/6 405/1/6 407/1/6
f 408/1/6 409/1/6 412/1/6
f 410/1/6 411/1/6 413/1/6
f 408/1/6 412/1/6 414/1/6
f 412/1/6 413/1/6 414/1/6
f 413/1/6 411/1/6 415/1/6
f 414/1/6 413/1/6 415/1/6
f 408/1/6 414/1/6 416/1/6
f 416/1/6 414/1/6 417/1/6
