# MagicaVoxel @ Ephtracy

# group
g 4x2 third (1)-7

# material
mtllib 4x2 third (1)-7.mtl
usemtl palette

# normals
vn -1 0 0
vn 1 0 0
vn 0 0 1
vn 0 0 -1
vn 0 -1 0
vn 0 1 0

# texcoords
vt 0.966797 0.5
vt 0.982422 0.5

# verts
v -63 0 63
v -63 0 -63
v -63 3 61
v -63 3 27
v -63 3 26
v -63 3 22
v -63 3 -16
v -63 3 -62
v -63 4 61
v -63 4 27
v -63 4 26
v -63 4 22
v -63 4 -16
v -63 4 -62
v -63 30 63
v -63 30 61
v -63 60 63
v -63 60 61
v -63 80 63
v -63 80 61
v -63 80 -62
v -63 80 -63
v -62 3 27
v -62 3 26
v -62 4 27
v -62 4 26
v -55 3 -27
v -55 3 -28
v -55 4 -27
v -55 4 -28
v -54 3 22
v -54 3 15
v -54 4 22
v -54 4 15
v -54 30 63
v -54 30 61
v -54 60 63
v -54 60 61
v -52 3 40
v -52 3 27
v -52 4 40
v -52 4 27
v -51 3 26
v -51 3 22
v -51 4 26
v -51 4 22
v -49 3 10
v -49 3 -8
v -49 4 10
v -49 4 -8
v -47 3 42
v -47 3 40
v -47 4 42
v -47 4 40
v -46 3 30
v -46 3 25
v -46 4 30
v -46 4 25
v -45 3 43
v -45 3 42
v -45 3 37
v -45 3 36
v -45 3 17
v -45 3 10
v -45 4 43
v -45 4 42
v -45 4 37
v -45 4 36
v -45 4 17
v -45 4 10
v -42 3 -8
v -42 3 -23
v -42 4 -8
v -42 4 -23
v -41 3 -1
v -41 3 -5
v -41 4 -1
v -41 4 -5
v -40 3 14
v -40 3 6
v -40 3 3
v -40 3 -1
v -40 4 14
v -40 4 6
v -40 4 3
v -40 4 -1
v -39 3 17
v -39 3 16
v -39 4 17
v -39 4 16
v 33 30 63
v 33 30 61
v 33 60 63
v 33 60 61
v 61 4 61
v 61 4 -62
v 61 30 23
v 61 30 -12
v 61 60 23
v 61 60 -12
v 61 80 61
v 61 80 -62
v -59 3 -27
v -59 3 -28
v -59 4 -27
v -59 4 -28
v -57 3 40
v -57 3 27
v -57 4 40
v -57 4 27
v -54 3 26
v -54 3 22
v -54 3 -16
v -54 3 -23
v -54 4 26
v -54 4 22
v -54 4 -16
v -54 4 -23
v -52 3 43
v -52 3 40
v -52 4 43
v -52 4 40
v -51 3 17
v -51 3 15
v -51 4 17
v -51 4 15
v -50 3 30
v -50 3 25
v -50 4 30
v -50 4 25
v -46 3 37
v -46 3 36
v -46 4 37
v -46 4 36
v -44 3 14
v -44 3 6
v -44 4 14
v -44 4 6
v -42 3 3
v -42 3 -5
v -42 4 3
v -42 4 -5
v -40 3 17
v -40 3 16
v -40 4 17
v -40 4 16
v -2 30 63
v -2 30 61
v -2 60 63
v -2 60 61
v 63 0 63
v 63 0 -63
v 63 30 23
v 63 30 -12
v 63 60 23
v 63 60 -12
v 63 80 63
v 63 80 -63
v -63 0 63
v -63 30 63
v -63 60 63
v -63 80 63
v -54 30 63
v -54 60 63
v -2 30 63
v -2 60 63
v 33 30 63
v 33 60 63
v 63 0 63
v 63 80 63
v -47 3 42
v -47 4 42
v -45 3 42
v -45 4 42
v -52 3 40
v -52 4 40
v -47 3 40
v -47 4 40
v -46 3 36
v -46 4 36
v -45 3 36
v -45 4 36
v -57 3 27
v -57 4 27
v -52 3 27
v -52 4 27
v -63 3 26
v -63 4 26
v -62 3 26
v -62 4 26
v -50 3 25
v -50 4 25
v -46 3 25
v -46 4 25
v -54 3 22
v -54 4 22
v -51 3 22
v -51 4 22
v -40 3 16
v -40 4 16
v -39 3 16
v -39 4 16
v -49 3 10
v -49 4 10
v -45 3 10
v -45 4 10
v -44 3 6
v -44 4 6
v -40 3 6
v -40 4 6
v -41 3 -1
v -41 4 -1
v -40 3 -1
v -40 4 -1
v -42 3 -5
v -42 4 -5
v -41 3 -5
v -41 4 -5
v 61 30 -12
v 61 60 -12
v 63 30 -12
v 63 60 -12
v -63 3 -16
v -63 4 -16
v -54 3 -16
v -54 4 -16
v -54 3 -23
v -54 4 -23
v -42 3 -23
v -42 4 -23
v -59 3 -28
v -59 4 -28
v -55 3 -28
v -55 4 -28
v -63 4 -62
v -63 80 -62
v 61 4 -62
v 61 80 -62
v -63 4 61
v -63 30 61
v -63 60 61
v -63 80 61
v -54 30 61
v -54 60 61
v -2 30 61
v -2 60 61
v 33 30 61
v 33 60 61
v 61 4 61
v 61 80 61
v -52 3 43
v -52 4 43
v -45 3 43
v -45 4 43
v -57 3 40
v -57 4 40
v -52 3 40
v -52 4 40
v -46 3 37
v -46 4 37
v -45 3 37
v -45 4 37
v -50 3 30
v -50 4 30
v -46 3 30
v -46 4 30
v -63 3 27
v -63 4 27
v -62 3 27
v -62 4 27
v -54 3 26
v -54 4 26
v -51 3 26
v -51 4 26
v 61 30 23
v 61 60 23
v 63 30 23
v 63 60 23
v -63 3 22
v -63 4 22
v -54 3 22
v -54 4 22
v -51 3 17
v -51 4 17
v -45 3 17
v -45 4 17
v -40 3 17
v -40 4 17
v -39 3 17
v -39 4 17
v -54 3 15
v -54 4 15
v -51 3 15
v -51 4 15
v -44 3 14
v -44 4 14
v -40 3 14
v -40 4 14
v -42 3 3
v -42 4 3
v -40 3 3
v -40 4 3
v -49 3 -8
v -49 4 -8
v -42 3 -8
v -42 4 -8
v -59 3 -27
v -59 4 -27
v -55 3 -27
v -55 4 -27
v -63 0 -63
v -63 80 -63
v 63 0 -63
v 63 80 -63
v -63 0 63
v 63 0 63
v -63 0 -63
v 63 0 -63
v -63 60 63
v -54 60 63
v -2 60 63
v 33 60 63
v -63 60 61
v -54 60 61
v -2 60 61
v 33 60 61
v 61 60 23
v 63 60 23
v 61 60 -12
v 63 60 -12
v -52 3 43
v -45 3 43
v -47 3 42
v -45 3 42
v -57 3 40
v -52 3 40
v -47 3 40
v -46 3 37
v -45 3 37
v -46 3 36
v -45 3 36
v -50 3 30
v -46 3 30
v -63 3 27
v -62 3 27
v -57 3 27
v -52 3 27
v -63 3 26
v -62 3 26
v -54 3 26
v -51 3 26
v -50 3 25
v -46 3 25
v -63 3 22
v -54 3 22
v -51 3 22
v -51 3 17
v -45 3 17
v -40 3 17
v -39 3 17
v -40 3 16
v -39 3 16
v -54 3 15
v -51 3 15
v -44 3 14
v -40 3 14
v -49 3 10
v -45 3 10
v -44 3 6
v -40 3 6
v -42 3 3
v -40 3 3
v -41 3 -1
v -40 3 -1
v -42 3 -5
v -41 3 -5
v -49 3 -8
v -42 3 -8
v -63 3 -16
v -54 3 -16
v -54 3 -23
v -42 3 -23
v -59 3 -27
v -55 3 -27
v -59 3 -28
v -55 3 -28
v -63 4 61
v 61 4 61
v -52 4 43
v -45 4 43
v -47 4 42
v -45 4 42
v -57 4 40
v -52 4 40
v -47 4 40
v -46 4 37
v -45 4 37
v -46 4 36
v -45 4 36
v -50 4 30
v -46 4 30
v -63 4 27
v -62 4 27
v -57 4 27
v -52 4 27
v -63 4 26
v -62 4 26
v -54 4 26
v -51 4 26
v -50 4 25
v -46 4 25
v -63 4 22
v -54 4 22
v -51 4 22
v -51 4 17
v -45 4 17
v -40 4 17
v -39 4 17
v -40 4 16
v -39 4 16
v -54 4 15
v -51 4 15
v -44 4 14
v -40 4 14
v -49 4 10
v -45 4 10
v -44 4 6
v -40 4 6
v -42 4 3
v -40 4 3
v -41 4 -1
v -40 4 -1
v -42 4 -5
v -41 4 -5
v -49 4 -8
v -42 4 -8
v -63 4 -16
v -54 4 -16
v -54 4 -23
v -42 4 -23
v -59 4 -27
v -55 4 -27
v -59 4 -28
v -55 4 -28
v -63 4 -62
v 61 4 -62
v -63 30 63
v -54 30 63
v -2 30 63
v 33 30 63
v -63 30 61
v -54 30 61
v -2 30 61
v 33 30 61
v 61 30 23
v 63 30 23
v 61 30 -12
v 63 30 -12
v -63 80 63
v 63 80 63
v -63 80 61
v 61 80 61
v -63 80 -62
v 61 80 -62
v -63 80 -63
v 63 80 -63

# faces
f 3/1/1 2/1/1 1/1/1
f 4/1/1 2/1/1 3/1/1
f 5/1/1 2/1/1 4/1/1
f 6/1/1 2/1/1 5/1/1
f 7/1/1 2/1/1 6/1/1
f 8/1/1 2/1/1 7/1/1
f 9/1/1 3/1/1 1/1/1
f 9/2/1 4/2/1 3/2/1
f 10/2/1 4/2/1 9/2/1
f 11/2/1 6/2/1 5/2/1
f 12/2/1 6/2/1 11/2/1
f 13/2/1 8/2/1 7/2/1
f 14/1/1 2/1/1 8/1/1
f 14/2/1 8/2/1 13/2/1
f 15/1/1 9/1/1 1/1/1
f 16/1/1 9/1/1 15/1/1
f 19/1/1 18/1/1 17/1/1
f 20/1/1 18/1/1 19/1/1
f 21/1/1 2/1/1 14/1/1
f 22/1/1 2/1/1 21/1/1
f 25/2/1 24/2/1 23/2/1
f 26/2/1 24/2/1 25/2/1
f 29/2/1 28/2/1 27/2/1
f 30/2/1 28/2/1 29/2/1
f 33/2/1 32/2/1 31/2/1
f 34/2/1 32/2/1 33/2/1
f 37/1/1 36/1/1 35/1/1
f 38/1/1 36/1/1 37/1/1
f 41/2/1 40/2/1 39/2/1
f 42/2/1 40/2/1 41/2/1
f 45/2/1 44/2/1 43/2/1
f 46/2/1 44/2/1 45/2/1
f 49/2/1 48/2/1 47/2/1
f 50/2/1 48/2/1 49/2/1
f 53/2/1 52/2/1 51/2/1
f 54/2/1 52/2/1 53/2/1
f 57/2/1 56/2/1 55/2/1
f 58/2/1 56/2/1 57/2/1
f 65/2/1 60/2/1 59/2/1
f 66/2/1 60/2/1 65/2/1
f 67/2/1 62/2/1 61/2/1
f 68/2/1 62/2/1 67/2/1
f 69/2/1 64/2/1 63/2/1
f 70/2/1 64/2/1 69/2/1
f 73/2/1 72/2/1 71/2/1
f 74/2/1 72/2/1 73/2/1
f 77/2/1 76/2/1 75/2/1
f 78/2/1 76/2/1 77/2/1
f 83/2/1 80/2/1 79/2/1
f 84/2/1 80/2/1 83/2/1
f 85/2/1 82/2/1 81/2/1
f 86/2/1 82/2/1 85/2/1
f 89/2/1 88/2/1 87/2/1
f 90/2/1 88/2/1 89/2/1
f 93/1/1 92/1/1 91/1/1
f 94/1/1 92/1/1 93/1/1
f 97/1/1 96/1/1 95/1/1
f 98/1/1 96/1/1 97/1/1
f 99/1/1 97/1/1 95/1/1
f 100/1/1 96/1/1 98/1/1
f 101/1/1 99/1/1 95/1/1
f 101/1/1 100/1/1 99/1/1
f 102/1/1 96/1/1 100/1/1
f 102/1/1 100/1/1 101/1/1
f 103/2/2 104/2/2 105/2/2
f 105/2/2 104/2/2 106/2/2
f 107/2/2 108/2/2 109/2/2
f 109/2/2 108/2/2 110/2/2
f 111/2/2 112/2/2 115/2/2
f 115/2/2 112/2/2 116/2/2
f 113/2/2 114/2/2 117/2/2
f 117/2/2 114/2/2 118/2/2
f 119/2/2 120/2/2 121/2/2
f 121/2/2 120/2/2 122/2/2
f 123/2/2 124/2/2 125/2/2
f 125/2/2 124/2/2 126/2/2
f 127/2/2 128/2/2 129/2/2
f 129/2/2 128/2/2 130/2/2
f 131/2/2 132/2/2 133/2/2
f 133/2/2 132/2/2 134/2/2
f 135/2/2 136/2/2 137/2/2
f 137/2/2 136/2/2 138/2/2
f 139/2/2 140/2/2 141/2/2
f 141/2/2 140/2/2 142/2/2
f 143/2/2 144/2/2 145/2/2
f 145/2/2 144/2/2 146/2/2
f 147/1/2 148/1/2 149/1/2
f 149/1/2 148/1/2 150/1/2
f 151/1/2 152/1/2 153/1/2
f 153/1/2 152/1/2 154/1/2
f 151/1/2 153/1/2 155/1/2
f 154/1/2 152/1/2 156/1/2
f 151/1/2 155/1/2 157/1/2
f 155/1/2 156/1/2 157/1/2
f 156/1/2 152/1/2 158/1/2
f 157/1/2 156/1/2 158/1/2
f 163/1/3 160/1/3 159/1/3
f 164/1/3 162/1/3 161/1/3
f 165/1/3 163/1/3 159/1/3
f 165/1/3 164/1/3 163/1/3
f 166/1/3 162/1/3 164/1/3
f 166/1/3 164/1/3 165/1/3
f 167/1/3 165/1/3 159/1/3
f 168/1/3 162/1/3 166/1/3
f 169/1/3 167/1/3 159/1/3
f 169/1/3 168/1/3 167/1/3
f 170/1/3 162/1/3 168/1/3
f 170/1/3 168/1/3 169/1/3
f 173/2/3 172/2/3 171/2/3
f 174/2/3 172/2/3 173/2/3
f 177/2/3 176/2/3 175/2/3
f 178/2/3 176/2/3 177/2/3
f 181/2/3 180/2/3 179/2/3
f 182/2/3 180/2/3 181/2/3
f 185/2/3 184/2/3 183/2/3
f 186/2/3 184/2/3 185/2/3
f 189/2/3 188/2/3 187/2/3
f 190/2/3 188/2/3 189/2/3
f 193/2/3 192/2/3 191/2/3
f 194/2/3 192/2/3 193/2/3
f 197/2/3 196/2/3 195/2/3
f 198/2/3 196/2/3 197/2/3
f 201/2/3 200/2/3 199/2/3
f 202/2/3 200/2/3 201/2/3
f 205/2/3 204/2/3 203/2/3
f 206/2/3 204/2/3 205/2/3
f 209/2/3 208/2/3 207/2/3
f 210/2/3 208/2/3 209/2/3
f 213/2/3 212/2/3 211/2/3
f 214/2/3 212/2/3 213/2/3
f 217/2/3 216/2/3 215/2/3
f 218/2/3 216/2/3 217/2/3
f 221/1/3 220/1/3 219/1/3
f 222/1/3 220/1/3 221/1/3
f 225/2/3 224/2/3 223/2/3
f 226/2/3 224/2/3 225/2/3
f 229/2/3 228/2/3 227/2/3
f 230/2/3 228/2/3 229/2/3
f 233/2/3 232/2/3 231/2/3
f 234/2/3 232/2/3 233/2/3
f 237/1/3 236/1/3 235/1/3
f 238/1/3 236/1/3 237/1/3
f 239/1/4 240/1/4 243/1/4
f 241/1/4 242/1/4 244/1/4
f 239/1/4 243/1/4 245/1/4
f 243/1/4 244/1/4 245/1/4
f 244/1/4 242/1/4 246/1/4
f 245/1/4 244/1/4 246/1/4
f 239/1/4 245/1/4 247/1/4
f 246/1/4 242/1/4 248/1/4
f 239/1/4 247/1/4 249/1/4
f 247/1/4 248/1/4 249/1/4
f 248/1/4 242/1/4 250/1/4
f 249/1/4 248/1/4 250/1/4
f 251/2/4 252/2/4 253/2/4
f 253/2/4 252/2/4 254/2/4
f 255/2/4 256/2/4 257/2/4
f 257/2/4 256/2/4 258/2/4
f 259/2/4 260/2/4 261/2/4
f 261/2/4 260/2/4 262/2/4
f 263/2/4 264/2/4 265/2/4
f 265/2/4 264/2/4 266/2/4
f 267/2/4 268/2/4 269/2/4
f 269/2/4 268/2/4 270/2/4
f 271/2/4 272/2/4 273/2/4
f 273/2/4 272/2/4 274/2/4
f 275/1/4 276/1/4 277/1/4
f 277/1/4 276/1/4 278/1/4
f 279/2/4 280/2/4 281/2/4
f 281/2/4 280/2/4 282/2/4
f 283/2/4 284/2/4 285/2/4
f 285/2/4 284/2/4 286/2/4
f 287/2/4 288/2/4 289/2/4
f 289/2/4 288/2/4 290/2/4
f 291/2/4 292/2/4 293/2/4
f 293/2/4 292/2/4 294/2/4
f 295/2/4 296/2/4 297/2/4
f 297/2/4 296/2/4 298/2/4
f 299/2/4 300/2/4 301/2/4
f 301/2/4 300/2/4 302/2/4
f 303/2/4 304/2/4 305/2/4
f 305/2/4 304/2/4 306/2/4
f 307/2/4 308/2/4 309/2/4
f 309/2/4 308/2/4 310/2/4
f 311/1/4 312/1/4 313/1/4
f 313/1/4 312/1/4 314/1/4
f 317/1/5 316/1/5 315/1/5
f 318/1/5 316/1/5 317/1/5
f 323/1/5 320/1/5 319/1/5
f 324/1/5 320/1/5 323/1/5
f 325/1/5 322/1/5 321/1/5
f 326/1/5 322/1/5 325/1/5
f 329/1/5 328/1/5 327/1/5
f 330/1/5 328/1/5 329/1/5
f 331/1/6 332/1/6 333/1/6
f 333/1/6 332/1/6 334/1/6
f 331/1/6 333/1/6 336/1/6
f 336/1/6 333/1/6 337/1/6
f 338/1/6 339/1/6 340/1/6
f 340/1/6 339/1/6 341/1/6
f 335/1/6 336/1/6 346/1/6
f 346/1/6 336/1/6 347/1/6
f 344/1/6 345/1/6 348/1/6
f 348/1/6 345/1/6 349/1/6
f 342/1/6 343/1/6 352/1/6
f 352/1/6 343/1/6 353/1/6
f 350/1/6 351/1/6 355/1/6
f 355/1/6 351/1/6 356/1/6
f 359/1/6 360/1/6 361/1/6
f 361/1/6 360/1/6 362/1/6
f 354/1/6 355/1/6 363/1/6
f 357/1/6 358/1/6 364/1/6
f 364/1/6 358/1/6 367/1/6
f 363/1/6 364/1/6 367/1/6
f 367/1/6 358/1/6 368/1/6
f 365/1/6 366/1/6 369/1/6
f 369/1/6 366/1/6 370/1/6
f 371/1/6 372/1/6 373/1/6
f 373/1/6 372/1/6 374/1/6
f 371/1/6 373/1/6 375/1/6
f 375/1/6 373/1/6 376/1/6
f 363/1/6 367/1/6 377/1/6
f 354/1/6 363/1/6 379/1/6
f 377/1/6 378/1/6 379/1/6
f 363/1/6 377/1/6 379/1/6
f 379/1/6 378/1/6 380/1/6
f 380/1/6 378/1/6 381/1/6
f 381/1/6 378/1/6 382/1/6
f 383/1/6 384/1/6 385/1/6
f 385/1/6 384/1/6 386/1/6
f 387/2/6 388/2/6 389/2/6
f 389/2/6 388/2/6 390/2/6
f 390/2/6 388/2/6 392/2/6
f 387/2/6 389/2/6 393/2/6
f 393/2/6 389/2/6 394/2/6
f 391/2/6 392/2/6 395/2/6
f 394/2/6 395/2/6 396/2/6
f 395/2/6 392/2/6 396/2/6
f 392/2/6 388/2/6 397/2/6
f 396/2/6 392/2/6 397/2/6
f 394/2/6 396/2/6 398/2/6
f 397/2/6 388/2/6 399/2/6
f 394/2/6 398/2/6 400/2/6
f 398/2/6 399/2/6 400/2/6
f 400/2/6 399/2/6 401/2/6
f 387/2/6 393/2/6 402/2/6
f 402/2/6 393/2/6 403/2/6
f 403/2/6 393/2/6 404/2/6
f 394/2/6 400/2/6 405/2/6
f 403/2/6 404/2/6 407/2/6
f 404/2/6 405/2/6 407/2/6
f 407/2/6 405/2/6 408/2/6
f 405/2/6 400/2/6 409/2/6
f 408/2/6 405/2/6 409/2/6
f 409/2/6 400/2/6 410/2/6
f 401/2/6 399/2/6 411/2/6
f 407/2/6 408/2/6 412/2/6
f 406/2/6 407/2/6 412/2/6
f 412/2/6 408/2/6 413/2/6
f 409/2/6 410/2/6 414/2/6
f 410/2/6 411/2/6 414/2/6
f 413/2/6 414/2/6 415/2/6
f 414/2/6 411/2/6 415/2/6
f 399/2/6 388/2/6 416/2/6
f 415/2/6 411/2/6 416/2/6
f 411/2/6 399/2/6 416/2/6
f 416/2/6 388/2/6 417/2/6
f 417/2/6 388/2/6 418/2/6
f 416/2/6 417/2/6 419/2/6
f 418/2/6 388/2/6 420/2/6
f 413/2/6 415/2/6 421/2/6
f 421/2/6 415/2/6 422/2/6
f 419/2/6 420/2/6 423/2/6
f 416/2/6 419/2/6 423/2/6
f 423/2/6 420/2/6 424/2/6
f 416/2/6 423/2/6 426/2/6
f 426/2/6 423/2/6 427/2/6
f 425/2/6 426/2/6 427/2/6
f 424/2/6 420/2/6 428/2/6
f 427/2/6 428/2/6 429/2/6
f 428/2/6 420/2/6 430/2/6
f 429/2/6 428/2/6 430/2/6
f 430/2/6 420/2/6 432/2/6
f 427/2/6 429/2/6 433/2/6
f 431/2/6 432/2/6 434/2/6
f 425/2/6 427/2/6 435/2/6
f 433/2/6 434/2/6 435/2/6
f 427/2/6 433/2/6 435/2/6
f 435/2/6 434/2/6 436/2/6
f 437/2/6 438/2/6 439/2/6
f 436/2/6 434/2/6 440/2/6
f 437/2/6 439/2/6 441/2/6
f 439/2/6 440/2/6 441/2/6
f 441/2/6 440/2/6 442/2/6
f 437/2/6 441/2/6 443/2/6
f 442/2/6 440/2/6 444/2/6
f 437/2/6 443/2/6 445/2/6
f 443/2/6 444/2/6 445/2/6
f 420/2/6 388/2/6 446/2/6
f 445/2/6 444/2/6 446/2/6
f 434/2/6 432/2/6 446/2/6
f 432/2/6 420/2/6 446/2/6
f 444/2/6 440/2/6 446/2/6
f 440/2/6 434/2/6 446/2/6
f 447/1/6 448/1/6 451/1/6
f 451/1/6 448/1/6 452/1/6
f 449/1/6 450/1/6 453/1/6
f 453/1/6 450/1/6 454/1/6
f 455/1/6 456/1/6 457/1/6
f 457/1/6 456/1/6 458/1/6
f 459/1/6 460/1/6 461/1/6
f 461/1/6 460/1/6 462/1/6
f 462/1/6 460/1/6 464/1/6
f 463/1/6 464/1/6 465/1/6
f 464/1/6 460/1/6 466/1/6
f 465/1/6 464/1/6 466/1/6
