# MagicaVoxel @ Ephtracy

# group
g 4x2 second (2)-0

# material
mtllib 4x2 second (2)-0.mtl
usemtl palette

# normals
vn -1 0 0
vn 1 0 0
vn 0 0 1
vn 0 0 -1
vn 0 -1 0
vn 0 1 0

# texcoords
vt 0.0332031 0.5
vt 0.0371094 0.5
vt 0.962891 0.5
vt 0.966797 0.5
vt 0.974609 0.5
vt 0.982422 0.5

# verts
v -63 0 63
v -63 0 -63
v -63 80 63
v -63 80 -63
v 61 27 3
v 61 27 -8
v 61 32 1
v 61 32 -5
v 61 33 -6
v 61 33 -7
v 61 34 1
v 61 34 -5
v 61 34 -6
v 61 34 -7
v 61 35 3
v 61 35 -8
v 62 3 63
v 62 3 -12
v 62 3 -42
v 62 3 -61
v 62 27 3
v 62 27 -8
v 62 35 3
v 62 35 -8
v 62 43 -12
v 62 43 -42
v 62 80 63
v 62 80 -61
v -61 3 63
v -61 3 -49
v -61 3 -61
v -61 80 63
v -61 80 -61
v 63 0 63
v 63 0 -63
v 63 2 -12
v 63 2 -42
v 63 3 -12
v 63 3 -42
v 63 43 -12
v 63 43 -42
v 63 80 63
v 63 80 -63
v -63 0 63
v -63 80 63
v -61 2 63
v -61 3 63
v -61 80 63
v 62 2 63
v 62 3 63
v 62 80 63
v 63 0 63
v 63 80 63
v 61 27 3
v 61 35 3
v 62 27 3
v 62 35 3
v 62 3 -42
v 62 43 -42
v 63 3 -42
v 63 43 -42
v -61 3 -61
v -61 80 -61
v -17 3 -61
v 62 3 -61
v 62 80 -61
v 61 27 -8
v 61 35 -8
v 62 27 -8
v 62 35 -8
v 62 3 -12
v 62 43 -12
v 63 3 -12
v 63 43 -12
v -63 0 -63
v -63 80 -63
v 63 0 -63
v 63 80 -63
v -63 0 63
v 63 0 63
v -63 0 -63
v 63 0 -63
v 61 27 3
v 62 27 3
v 61 27 -8
v 62 27 -8
v 62 43 -12
v 63 43 -12
v 62 43 -42
v 63 43 -42
v -61 3 63
v 62 3 63
v -29 3 -7
v -27 3 -7
v -29 3 -12
v -27 3 -12
v 62 3 -12
v 63 3 -12
v -20 3 -18
v -14 3 -18
v -51 3 -25
v -38 3 -25
v -20 3 -27
v -14 3 -27
v -38 3 -32
v -26 3 -32
v -18 3 -37
v -10 3 -37
v -10 3 -38
v -9 3 -38
v -58 3 -39
v -52 3 -39
v -8 3 -39
v 1 3 -39
v -18 3 -40
v -17 3 -40
v -26 3 -41
v -23 3 -41
v -23 3 -42
v -17 3 -42
v 62 3 -42
v 63 3 -42
v -17 3 -43
v -9 3 -43
v -17 3 -47
v -9 3 -47
v -8 3 -48
v 1 3 -48
v -61 3 -49
v -58 3 -49
v -52 3 -49
v -51 3 -49
v -17 3 -51
v -9 3 -51
v -61 3 -61
v -17 3 -61
v 62 3 -61
v 61 35 3
v 62 35 3
v 61 35 -8
v 62 35 -8
v -63 80 63
v -61 80 63
v 62 80 63
v 63 80 63
v -61 80 -61
v 62 80 -61
v -63 80 -63
v 63 80 -63

# faces
f 3/4/1 2/4/1 1/4/1
f 4/4/1 2/4/1 3/4/1
f 7/5/1 6/5/1 5/5/1
f 8/5/1 6/5/1 7/5/1
f 9/5/1 6/5/1 8/5/1
f 10/5/1 6/5/1 9/5/1
f 11/5/1 7/5/1 5/5/1
f 11/3/1 8/3/1 7/3/1
f 12/5/1 9/5/1 8/5/1
f 12/3/1 8/3/1 11/3/1
f 13/6/1 10/6/1 9/6/1
f 13/5/1 9/5/1 12/5/1
f 14/5/1 6/5/1 10/5/1
f 14/6/1 10/6/1 13/6/1
f 15/5/1 13/5/1 12/5/1
f 15/5/1 12/5/1 11/5/1
f 15/5/1 14/5/1 13/5/1
f 15/5/1 11/5/1 5/5/1
f 16/5/1 6/5/1 14/5/1
f 16/5/1 14/5/1 15/5/1
f 21/4/1 18/4/1 17/4/1
f 22/4/1 18/4/1 21/4/1
f 23/4/1 21/4/1 17/4/1
f 24/4/1 18/4/1 22/4/1
f 25/4/1 18/4/1 24/4/1
f 25/4/1 24/4/1 23/4/1
f 26/4/1 20/4/1 19/4/1
f 27/4/1 25/4/1 23/4/1
f 27/4/1 26/4/1 25/4/1
f 27/4/1 23/4/1 17/4/1
f 28/4/1 20/4/1 26/4/1
f 28/4/1 26/4/1 27/4/1
f 29/4/2 30/4/2 32/4/2
f 30/4/2 31/4/2 32/4/2
f 32/4/2 31/4/2 33/4/2
f 34/4/2 35/4/2 36/4/2
f 36/4/2 35/4/2 37/4/2
f 34/4/2 36/4/2 38/4/2
f 36/1/2 37/1/2 38/1/2
f 37/4/2 35/4/2 39/4/2
f 38/1/2 37/1/2 39/1/2
f 34/4/2 38/4/2 40/4/2
f 39/4/2 35/4/2 41/4/2
f 34/4/2 40/4/2 42/4/2
f 40/4/2 41/4/2 42/4/2
f 41/4/2 35/4/2 43/4/2
f 42/4/2 41/4/2 43/4/2
f 46/4/3 45/4/3 44/4/3
f 47/4/3 45/4/3 46/4/3
f 48/4/3 45/4/3 47/4/3
f 49/4/3 46/4/3 44/4/3
f 49/1/3 47/1/3 46/1/3
f 50/1/3 47/1/3 49/1/3
f 52/4/3 49/4/3 44/4/3
f 52/4/3 51/4/3 50/4/3
f 52/4/3 50/4/3 49/4/3
f 53/4/3 51/4/3 52/4/3
f 56/5/3 55/5/3 54/5/3
f 57/5/3 55/5/3 56/5/3
f 60/4/3 59/4/3 58/4/3
f 61/4/3 59/4/3 60/4/3
f 64/4/3 63/4/3 62/4/3
f 65/4/3 63/4/3 64/4/3
f 66/4/3 63/4/3 65/4/3
f 67/5/4 68/5/4 69/5/4
f 69/5/4 68/5/4 70/5/4
f 71/4/4 72/4/4 73/4/4
f 73/4/4 72/4/4 74/4/4
f 75/4/4 76/4/4 77/4/4
f 77/4/4 76/4/4 78/4/4
f 81/4/5 80/4/5 79/4/5
f 82/4/5 80/4/5 81/4/5
f 85/5/5 84/5/5 83/5/5
f 86/5/5 84/5/5 85/5/5
f 89/4/5 88/4/5 87/4/5
f 90/4/5 88/4/5 89/4/5
f 91/1/6 92/1/6 93/1/6
f 93/1/6 92/1/6 94/1/6
f 91/1/6 93/1/6 95/1/6
f 93/2/6 94/2/6 95/2/6
f 94/1/6 92/1/6 96/1/6
f 95/2/6 94/2/6 96/2/6
f 96/1/6 92/1/6 97/1/6
f 95/1/6 96/1/6 99/1/6
f 97/1/6 98/1/6 99/1/6
f 96/1/6 97/1/6 99/1/6
f 99/1/6 98/1/6 100/1/6
f 91/1/6 95/1/6 101/1/6
f 95/1/6 99/1/6 101/1/6
f 101/1/6 99/1/6 102/1/6
f 99/2/6 100/2/6 103/2/6
f 102/1/6 99/1/6 103/1/6
f 100/1/6 98/1/6 104/1/6
f 103/2/6 100/2/6 104/2/6
f 102/1/6 103/1/6 105/1/6
f 101/2/6 102/2/6 105/2/6
f 103/1/6 104/1/6 105/1/6
f 105/1/6 104/1/6 106/1/6
f 106/1/6 104/1/6 107/1/6
f 104/1/6 98/1/6 108/1/6
f 107/1/6 104/1/6 108/1/6
f 107/2/6 108/2/6 109/2/6
f 108/1/6 98/1/6 109/1/6
f 109/1/6 98/1/6 110/1/6
f 91/1/6 101/1/6 111/1/6
f 111/1/6 101/1/6 112/1/6
f 110/1/6 98/1/6 113/1/6
f 113/1/6 98/1/6 114/1/6
f 106/1/6 107/1/6 115/1/6
f 107/2/6 109/2/6 115/2/6
f 109/2/6 110/2/6 115/2/6
f 115/2/6 110/2/6 116/2/6
f 105/2/6 106/2/6 117/2/6
f 106/1/6 115/1/6 117/1/6
f 115/1/6 116/1/6 117/1/6
f 117/1/6 116/1/6 118/1/6
f 117/2/6 118/2/6 119/2/6
f 118/1/6 116/1/6 119/1/6
f 116/2/6 110/2/6 120/2/6
f 119/1/6 116/1/6 120/1/6
f 114/1/6 98/1/6 121/1/6
f 121/1/6 98/1/6 122/1/6
f 120/2/6 110/2/6 123/2/6
f 119/2/6 120/2/6 123/2/6
f 110/1/6 113/1/6 124/1/6
f 123/2/6 110/2/6 124/2/6
f 119/2/6 123/2/6 125/2/6
f 123/1/6 124/1/6 125/1/6
f 124/1/6 113/1/6 126/1/6
f 125/1/6 124/1/6 126/1/6
f 113/2/6 114/2/6 127/2/6
f 126/1/6 113/1/6 127/1/6
f 114/1/6 121/1/6 128/1/6
f 127/2/6 114/2/6 128/2/6
f 91/1/6 111/1/6 129/1/6
f 111/2/6 112/2/6 130/2/6
f 129/1/6 111/1/6 130/1/6
f 112/1/6 101/1/6 131/1/6
f 130/2/6 112/2/6 131/2/6
f 101/2/6 105/2/6 132/2/6
f 131/1/6 101/1/6 132/1/6
f 117/2/6 119/2/6 132/2/6
f 125/2/6 126/2/6 132/2/6
f 119/2/6 125/2/6 132/2/6
f 105/2/6 117/2/6 132/2/6
f 129/2/6 130/2/6 133/2/6
f 132/2/6 126/2/6 133/2/6
f 131/2/6 132/2/6 133/2/6
f 130/2/6 131/2/6 133/2/6
f 127/1/6 128/1/6 134/1/6
f 133/2/6 126/2/6 134/2/6
f 126/1/6 127/1/6 134/1/6
f 129/2/6 133/2/6 135/2/6
f 133/1/6 134/1/6 136/1/6
f 135/2/6 133/2/6 136/2/6
f 128/1/6 121/1/6 137/1/6
f 136/1/6 134/1/6 137/1/6
f 134/1/6 128/1/6 137/1/6
f 138/5/6 139/5/6 140/5/6
f 140/5/6 139/5/6 141/5/6
f 142/4/6 143/4/6 146/4/6
f 144/4/6 145/4/6 147/4/6
f 142/4/6 146/4/6 148/4/6
f 146/4/6 147/4/6 148/4/6
f 147/4/6 145/4/6 149/4/6
f 148/4/6 147/4/6 149/4/6
