# MagicaVoxel @ Ephtracy

# group
g truck1

# material
mtllib truck1.mtl
usemtl palette

# normals
vn -1 0 0
vn 1 0 0
vn 0 0 1
vn 0 0 -1
vn 0 -1 0
vn 0 1 0

# texcoords
vt 0.0957031 0.5
vt 0.802734 0.5
vt 0.841797 0.5
vt 0.958984 0.5
vt 0.966797 0.5
vt 0.970703 0.5
vt 0.978516 0.5
vt 0.982422 0.5
vt 0.986328 0.5
vt 0.990234 0.5

# verts
v -2 2 -26
v -2 2 -41
v -2 4 -26
v -2 4 -41
v -1 1 -27
v -1 1 -40
v -1 2 -27
v -1 2 -40
v -1 4 -27
v -1 4 -40
v -1 5 -29
v -1 5 -32
v -1 5 -35
v -1 5 -38
v -1 7 -27
v -1 7 -29
v -1 7 -32
v -1 7 -35
v -1 7 -38
v -1 7 -40
v 3 0 -27
v 3 0 -28
v 3 0 -39
v 3 0 -40
v 3 1 -27
v 3 1 -28
v 3 1 -39
v 3 1 -40
v 5 7 -27
v 5 7 -28
v 5 7 -39
v 5 7 -40
v 5 10 -28
v 5 10 -39
v 5 11 -27
v 5 11 -40
v 7 1 -26
v 7 1 -27
v 7 1 -40
v 7 1 -41
v 7 2 -26
v 7 2 -27
v 7 2 -40
v 7 2 -41
v 8 1 -25
v 8 1 -26
v 8 1 -41
v 8 1 -42
v 8 2 -25
v 8 2 -26
v 8 2 -27
v 8 2 -40
v 8 2 -41
v 8 2 -42
v 8 3 -26
v 8 3 -27
v 8 3 -40
v 8 3 -41
v 9 5 -28
v 9 5 -39
v 9 6 -28
v 9 6 -39
v 11 5 -28
v 11 5 -39
v 11 6 -28
v 11 6 -39
v 13 5 -28
v 13 5 -39
v 13 6 -28
v 13 6 -39
v 15 5 -28
v 15 5 -39
v 15 6 -28
v 15 6 -39
v 15 7 -28
v 15 7 -39
v 15 10 -28
v 15 10 -39
v 15 11 -27
v 15 11 -40
v 15 14 -27
v 15 14 -40
v 17 5 -28
v 17 5 -39
v 17 6 -28
v 17 6 -39
v 19 5 -28
v 19 5 -39
v 19 6 -28
v 19 6 -39
v 21 5 -28
v 21 5 -39
v 21 6 -28
v 21 6 -39
v 23 0 -27
v 23 0 -28
v 23 0 -39
v 23 0 -40
v 23 1 -27
v 23 1 -28
v 23 1 -39
v 23 1 -40
v 28 2 -26
v 28 2 -27
v 28 2 -40
v 28 2 -41
v 28 4 -26
v 28 4 -27
v 28 4 -40
v 28 4 -41
v 0 2 -26
v 0 2 -27
v 0 2 -40
v 0 2 -41
v 0 4 -26
v 0 4 -27
v 0 4 -40
v 0 4 -41
v 6 0 -27
v 6 0 -28
v 6 0 -39
v 6 0 -40
v 6 1 -27
v 6 1 -28
v 6 1 -39
v 6 1 -40
v 6 7 -28
v 6 7 -39
v 6 10 -28
v 6 10 -39
v 8 5 -28
v 8 5 -39
v 8 6 -28
v 8 6 -39
v 10 5 -28
v 10 5 -39
v 10 6 -28
v 10 6 -39
v 12 5 -28
v 12 5 -39
v 12 6 -28
v 12 6 -39
v 14 5 -28
v 14 5 -39
v 14 6 -28
v 14 6 -39
v 15 1 -25
v 15 1 -27
v 15 1 -40
v 15 1 -42
v 15 2 -25
v 15 2 -26
v 15 2 -27
v 15 2 -40
v 15 2 -41
v 15 2 -42
v 15 3 -26
v 15 3 -27
v 15 3 -40
v 15 3 -41
v 16 5 -28
v 16 5 -39
v 16 6 -28
v 16 6 -39
v 18 5 -28
v 18 5 -39
v 18 6 -28
v 18 6 -39
v 20 5 -28
v 20 5 -39
v 20 6 -28
v 20 6 -39
v 26 0 -27
v 26 0 -28
v 26 0 -39
v 26 0 -40
v 26 1 -27
v 26 1 -28
v 26 1 -39
v 26 1 -40
v 29 4 -29
v 29 4 -38
v 29 6 -32
v 29 6 -35
v 29 7 -32
v 29 7 -35
v 29 12 -29
v 29 12 -38
v 30 1 -27
v 30 1 -40
v 30 2 -27
v 30 2 -40
v 30 4 -27
v 30 4 -29
v 30 4 -38
v 30 4 -40
v 30 5 -27
v 30 5 -28
v 30 5 -39
v 30 5 -40
v 30 6 -32
v 30 6 -35
v 30 7 -27
v 30 7 -28
v 30 7 -32
v 30 7 -35
v 30 7 -39
v 30 7 -40
v 30 12 -29
v 30 12 -38
v 30 14 -27
v 30 14 -40
v 31 2 -26
v 31 2 -41
v 31 4 -26
v 31 4 -41
v 8 1 -25
v 8 2 -25
v 15 1 -25
v 15 2 -25
v -2 2 -26
v -2 4 -26
v 0 2 -26
v 0 4 -26
v 7 1 -26
v 7 2 -26
v 8 1 -26
v 8 2 -26
v 8 3 -26
v 15 2 -26
v 15 3 -26
v 28 2 -26
v 28 4 -26
v 31 2 -26
v 31 4 -26
v -1 1 -27
v -1 2 -27
v -1 4 -27
v -1 7 -27
v 0 2 -27
v 0 4 -27
v 2 1 -27
v 2 2 -27
v 2 4 -27
v 3 0 -27
v 3 1 -27
v 3 4 -27
v 3 5 -27
v 5 7 -27
v 5 11 -27
v 6 0 -27
v 6 1 -27
v 6 4 -27
v 6 5 -27
v 6 7 -27
v 6 10 -27
v 7 1 -27
v 7 2 -27
v 7 4 -27
v 8 2 -27
v 8 3 -27
v 12 5 -27
v 12 6 -27
v 13 7 -27
v 13 10 -27
v 14 5 -27
v 14 6 -27
v 15 1 -27
v 15 2 -27
v 15 3 -27
v 15 7 -27
v 15 11 -27
v 15 14 -27
v 22 1 -27
v 22 2 -27
v 22 4 -27
v 23 0 -27
v 23 1 -27
v 23 4 -27
v 23 5 -27
v 26 0 -27
v 26 1 -27
v 26 4 -27
v 26 5 -27
v 27 1 -27
v 27 2 -27
v 27 4 -27
v 28 2 -27
v 28 4 -27
v 29 5 -27
v 29 7 -27
v 30 1 -27
v 30 2 -27
v 30 4 -27
v 30 5 -27
v 30 7 -27
v 30 14 -27
v 29 6 -32
v 29 7 -32
v 30 6 -32
v 30 7 -32
v 29 4 -38
v 29 12 -38
v 30 4 -38
v 30 12 -38
v 3 0 -39
v 3 1 -39
v 6 0 -39
v 6 1 -39
v 6 7 -39
v 6 10 -39
v 8 5 -39
v 8 6 -39
v 9 5 -39
v 9 6 -39
v 10 5 -39
v 10 6 -39
v 11 5 -39
v 11 6 -39
v 12 5 -39
v 12 6 -39
v 13 5 -39
v 13 6 -39
v 13 7 -39
v 13 10 -39
v 14 5 -39
v 14 6 -39
v 15 5 -39
v 15 6 -39
v 15 7 -39
v 15 10 -39
v 16 5 -39
v 16 6 -39
v 17 5 -39
v 17 6 -39
v 18 5 -39
v 18 6 -39
v 19 5 -39
v 19 6 -39
v 20 5 -39
v 20 6 -39
v 21 5 -39
v 21 6 -39
v 23 0 -39
v 23 1 -39
v 26 0 -39
v 26 1 -39
v 3 0 -28
v 3 1 -28
v 6 0 -28
v 6 1 -28
v 6 7 -28
v 6 10 -28
v 8 5 -28
v 8 6 -28
v 9 5 -28
v 9 6 -28
v 10 5 -28
v 10 6 -28
v 11 5 -28
v 11 6 -28
v 12 5 -28
v 12 6 -28
v 13 5 -28
v 13 6 -28
v 13 7 -28
v 13 10 -28
v 14 5 -28
v 14 6 -28
v 15 5 -28
v 15 6 -28
v 15 7 -28
v 15 10 -28
v 16 5 -28
v 16 6 -28
v 17 5 -28
v 17 6 -28
v 18 5 -28
v 18 6 -28
v 19 5 -28
v 19 6 -28
v 20 5 -28
v 20 6 -28
v 21 5 -28
v 21 6 -28
v 23 0 -28
v 23 1 -28
v 26 0 -28
v 26 1 -28
v 29 4 -29
v 29 12 -29
v 30 4 -29
v 30 12 -29
v 29 6 -35
v 29 7 -35
v 30 6 -35
v 30 7 -35
v -1 1 -40
v -1 2 -40
v -1 4 -40
v -1 7 -40
v 0 2 -40
v 0 4 -40
v 2 1 -40
v 2 2 -40
v 2 4 -40
v 3 0 -40
v 3 1 -40
v 3 4 -40
v 3 5 -40
v 5 7 -40
v 5 11 -40
v 6 0 -40
v 6 1 -40
v 6 4 -40
v 6 5 -40
v 6 7 -40
v 6 10 -40
v 7 1 -40
v 7 2 -40
v 7 4 -40
v 8 2 -40
v 8 3 -40
v 12 5 -40
v 12 6 -40
v 13 7 -40
v 13 10 -40
v 14 5 -40
v 14 6 -40
v 15 1 -40
v 15 2 -40
v 15 3 -40
v 15 7 -40
v 15 11 -40
v 15 14 -40
v 22 1 -40
v 22 2 -40
v 22 4 -40
v 23 0 -40
v 23 1 -40
v 23 4 -40
v 23 5 -40
v 26 0 -40
v 26 1 -40
v 26 4 -40
v 26 5 -40
v 27 1 -40
v 27 2 -40
v 27 4 -40
v 28 2 -40
v 28 4 -40
v 29 5 -40
v 29 7 -40
v 30 1 -40
v 30 2 -40
v 30 4 -40
v 30 5 -40
v 30 7 -40
v 30 14 -40
v -2 2 -41
v -2 4 -41
v 0 2 -41
v 0 4 -41
v 7 1 -41
v 7 2 -41
v 8 1 -41
v 8 2 -41
v 8 3 -41
v 15 2 -41
v 15 3 -41
v 28 2 -41
v 28 4 -41
v 31 2 -41
v 31 4 -41
v 8 1 -42
v 8 2 -42
v 15 1 -42
v 15 2 -42
v 3 0 -27
v 6 0 -27
v 23 0 -27
v 26 0 -27
v 3 0 -28
v 6 0 -28
v 23 0 -28
v 26 0 -28
v 3 0 -39
v 6 0 -39
v 23 0 -39
v 26 0 -39
v 3 0 -40
v 6 0 -40
v 23 0 -40
v 26 0 -40
v 8 1 -25
v 15 1 -25
v 7 1 -26
v 8 1 -26
v -1 1 -27
v 2 1 -27
v 3 1 -27
v 6 1 -27
v 7 1 -27
v 15 1 -27
v 22 1 -27
v 23 1 -27
v 26 1 -27
v 27 1 -27
v 30 1 -27
v 0 1 -28
v 2 1 -28
v 3 1 -28
v 6 1 -28
v 7 1 -28
v 22 1 -28
v 23 1 -28
v 26 1 -28
v 27 1 -28
v 29 1 -28
v 0 1 -39
v 2 1 -39
v 3 1 -39
v 6 1 -39
v 7 1 -39
v 22 1 -39
v 23 1 -39
v 26 1 -39
v 27 1 -39
v 29 1 -39
v -1 1 -40
v 2 1 -40
v 3 1 -40
v 6 1 -40
v 7 1 -40
v 15 1 -40
v 22 1 -40
v 23 1 -40
v 26 1 -40
v 27 1 -40
v 30 1 -40
v 7 1 -41
v 8 1 -41
v 8 1 -42
v 15 1 -42
v -2 2 -26
v 0 2 -26
v 28 2 -26
v 31 2 -26
v -1 2 -27
v 0 2 -27
v 28 2 -27
v 30 2 -27
v -1 2 -40
v 0 2 -40
v 28 2 -40
v 30 2 -40
v -2 2 -41
v 0 2 -41
v 28 2 -41
v 31 2 -41
v 8 6 -28
v 9 6 -28
v 10 6 -28
v 11 6 -28
v 12 6 -28
v 13 6 -28
v 14 6 -28
v 15 6 -28
v 16 6 -28
v 17 6 -28
v 18 6 -28
v 19 6 -28
v 20 6 -28
v 21 6 -28
v 29 6 -32
v 30 6 -32
v 29 6 -35
v 30 6 -35
v 8 6 -39
v 9 6 -39
v 10 6 -39
v 11 6 -39
v 12 6 -39
v 13 6 -39
v 14 6 -39
v 15 6 -39
v 16 6 -39
v 17 6 -39
v 18 6 -39
v 19 6 -39
v 20 6 -39
v 21 6 -39
v 6 10 -28
v 13 10 -28
v 15 10 -28
v 6 10 -39
v 13 10 -39
v 15 10 -39
v 29 12 -29
v 30 12 -29
v 29 12 -38
v 30 12 -38
v 8 2 -25
v 15 2 -25
v 7 2 -26
v 8 2 -26
v 15 2 -26
v 7 2 -27
v 8 2 -27
v 7 2 -40
v 8 2 -40
v 7 2 -41
v 8 2 -41
v 15 2 -41
v 8 2 -42
v 15 2 -42
v 8 3 -26
v 15 3 -26
v 8 3 -27
v 15 3 -27
v 8 3 -40
v 15 3 -40
v 8 3 -41
v 15 3 -41
v -2 4 -26
v 0 4 -26
v 28 4 -26
v 31 4 -26
v -1 4 -27
v 0 4 -27
v 28 4 -27
v 30 4 -27
v 29 4 -29
v 30 4 -29
v 29 4 -38
v 30 4 -38
v -1 4 -40
v 0 4 -40
v 28 4 -40
v 30 4 -40
v -2 4 -41
v 0 4 -41
v 28 4 -41
v 31 4 -41
v 8 5 -28
v 9 5 -28
v 10 5 -28
v 11 5 -28
v 12 5 -28
v 13 5 -28
v 14 5 -28
v 15 5 -28
v 16 5 -28
v 17 5 -28
v 18 5 -28
v 19 5 -28
v 20 5 -28
v 21 5 -28
v 8 5 -39
v 9 5 -39
v 10 5 -39
v 11 5 -39
v 12 5 -39
v 13 5 -39
v 14 5 -39
v 15 5 -39
v 16 5 -39
v 17 5 -39
v 18 5 -39
v 19 5 -39
v 20 5 -39
v 21 5 -39
v -1 7 -27
v 5 7 -27
v 5 7 -28
v 6 7 -28
v 13 7 -28
v 15 7 -28
v -1 7 -29
v 0 7 -29
v -1 7 -32
v 0 7 -32
v 29 7 -32
v 30 7 -32
v -1 7 -35
v 0 7 -35
v 29 7 -35
v 30 7 -35
v -1 7 -38
v 0 7 -38
v 5 7 -39
v 6 7 -39
v 13 7 -39
v 15 7 -39
v -1 7 -40
v 5 7 -40
v 5 11 -27
v 15 11 -27
v 5 11 -40
v 15 11 -40
v 15 14 -27
v 30 14 -27
v 15 14 -40
v 30 14 -40

# faces
f 3/8/1 2/8/1 1/8/1
f 4/8/1 2/8/1 3/8/1
f 7/5/1 6/5/1 5/5/1
f 8/5/1 6/5/1 7/5/1
f 11/1/1 10/1/1 9/1/1
f 12/1/1 10/1/1 11/1/1
f 13/1/1 10/1/1 12/1/1
f 14/1/1 10/1/1 13/1/1
f 15/1/1 11/1/1 9/1/1
f 16/5/1 12/5/1 11/5/1
f 16/1/1 11/1/1 15/1/1
f 17/1/1 13/1/1 12/1/1
f 17/5/1 12/5/1 16/5/1
f 18/5/1 14/5/1 13/5/1
f 18/1/1 13/1/1 17/1/1
f 19/1/1 10/1/1 14/1/1
f 19/5/1 14/5/1 18/5/1
f 20/1/1 10/1/1 19/1/1
f 25/9/1 22/9/1 21/9/1
f 26/9/1 22/9/1 25/9/1
f 27/9/1 24/9/1 23/9/1
f 28/9/1 24/9/1 27/9/1
f 33/4/1 30/4/1 29/4/1
f 33/10/1 31/10/1 30/10/1
f 34/4/1 32/4/1 31/4/1
f 34/10/1 31/10/1 33/10/1
f 35/4/1 33/4/1 29/4/1
f 35/4/1 34/4/1 33/4/1
f 36/4/1 32/4/1 34/4/1
f 36/4/1 34/4/1 35/4/1
f 41/5/1 38/5/1 37/5/1
f 42/5/1 38/5/1 41/5/1
f 43/5/1 40/5/1 39/5/1
f 44/5/1 40/5/1 43/5/1
f 49/5/1 46/5/1 45/5/1
f 50/5/1 46/5/1 49/5/1
f 53/5/1 48/5/1 47/5/1
f 54/5/1 48/5/1 53/5/1
f 55/5/1 51/5/1 50/5/1
f 56/5/1 51/5/1 55/5/1
f 57/5/1 53/5/1 52/5/1
f 58/5/1 53/5/1 57/5/1
f 61/1/1 60/1/1 59/1/1
f 62/1/1 60/1/1 61/1/1
f 65/1/1 64/1/1 63/1/1
f 66/1/1 64/1/1 65/1/1
f 69/1/1 68/1/1 67/1/1
f 70/1/1 68/1/1 69/1/1
f 73/1/1 72/1/1 71/1/1
f 74/1/1 72/1/1 73/1/1
f 77/2/1 76/2/1 75/2/1
f 78/2/1 76/2/1 77/2/1
f 81/2/1 80/2/1 79/2/1
f 82/2/1 80/2/1 81/2/1
f 85/1/1 84/1/1 83/1/1
f 86/1/1 84/1/1 85/1/1
f 89/1/1 88/1/1 87/1/1
f 90/1/1 88/1/1 89/1/1
f 93/1/1 92/1/1 91/1/1
f 94/1/1 92/1/1 93/1/1
f 99/9/1 96/9/1 95/9/1
f 100/9/1 96/9/1 99/9/1
f 101/9/1 98/9/1 97/9/1
f 102/9/1 98/9/1 101/9/1
f 107/8/1 104/8/1 103/8/1
f 108/8/1 104/8/1 107/8/1
f 109/8/1 106/8/1 105/8/1
f 110/8/1 106/8/1 109/8/1
f 111/8/2 112/8/2 115/8/2
f 115/8/2 112/8/2 116/8/2
f 113/8/2 114/8/2 117/8/2
f 117/8/2 114/8/2 118/8/2
f 119/9/2 120/9/2 123/9/2
f 123/9/2 120/9/2 124/9/2
f 121/9/2 122/9/2 125/9/2
f 125/9/2 122/9/2 126/9/2
f 127/10/2 128/10/2 129/10/2
f 129/10/2 128/10/2 130/10/2
f 131/1/2 132/1/2 133/1/2
f 133/1/2 132/1/2 134/1/2
f 135/1/2 136/1/2 137/1/2
f 137/1/2 136/1/2 138/1/2
f 139/1/2 140/1/2 141/1/2
f 141/1/2 140/1/2 142/1/2
f 143/1/2 144/1/2 145/1/2
f 145/1/2 144/1/2 146/1/2
f 147/5/2 148/5/2 151/5/2
f 151/5/2 148/5/2 152/5/2
f 152/5/2 148/5/2 153/5/2
f 149/5/2 150/5/2 154/5/2
f 154/5/2 150/5/2 155/5/2
f 155/5/2 150/5/2 156/5/2
f 152/5/2 153/5/2 157/5/2
f 157/5/2 153/5/2 158/5/2
f 154/5/2 155/5/2 159/5/2
f 159/5/2 155/5/2 160/5/2
f 161/1/2 162/1/2 163/1/2
f 163/1/2 162/1/2 164/1/2
f 165/1/2 166/1/2 167/1/2
f 167/1/2 166/1/2 168/1/2
f 169/1/2 170/1/2 171/1/2
f 171/1/2 170/1/2 172/1/2
f 173/9/2 174/9/2 177/9/2
f 177/9/2 174/9/2 178/9/2
f 175/9/2 176/9/2 179/9/2
f 179/9/2 176/9/2 180/9/2
f 181/7/2 182/7/2 183/7/2
f 183/7/2 182/7/2 184/7/2
f 181/7/2 183/7/2 185/7/2
f 184/7/2 182/7/2 186/7/2
f 181/7/2 185/7/2 187/7/2
f 185/7/2 186/7/2 187/7/2
f 186/7/2 182/7/2 188/7/2
f 187/7/2 186/7/2 188/7/2
f 189/5/2 190/5/2 191/5/2
f 191/5/2 190/5/2 192/5/2
f 193/2/2 194/2/2 197/2/2
f 197/2/2 194/2/2 198/2/2
f 195/2/2 196/2/2 199/2/2
f 199/2/2 196/2/2 200/2/2
f 197/3/2 198/3/2 203/3/2
f 198/2/2 194/2/2 204/2/2
f 203/3/2 198/3/2 204/3/2
f 201/9/2 202/9/2 205/9/2
f 205/9/2 202/9/2 206/9/2
f 195/2/2 199/2/2 207/2/2
f 199/3/2 200/3/2 207/3/2
f 207/3/2 200/3/2 208/3/2
f 204/2/2 194/2/2 209/2/2
f 203/2/2 204/2/2 209/2/2
f 207/2/2 208/2/2 210/2/2
f 195/2/2 207/2/2 210/2/2
f 203/2/2 209/2/2 211/2/2
f 209/2/2 210/2/2 211/2/2
f 210/2/2 208/2/2 212/2/2
f 211/2/2 210/2/2 212/2/2
f 213/8/2 214/8/2 215/8/2
f 215/8/2 214/8/2 216/8/2
f 219/5/3 218/5/3 217/5/3
f 220/5/3 218/5/3 219/5/3
f 223/8/3 222/8/3 221/8/3
f 224/8/3 222/8/3 223/8/3
f 227/5/3 226/5/3 225/5/3
f 228/5/3 226/5/3 227/5/3
f 230/5/3 229/5/3 228/5/3
f 231/5/3 229/5/3 230/5/3
f 234/8/3 233/8/3 232/8/3
f 235/8/3 233/8/3 234/8/3
f 240/5/3 237/5/3 236/5/3
f 241/1/3 239/1/3 238/1/3
f 242/5/3 240/5/3 236/5/3
f 243/1/3 241/1/3 240/1/3
f 243/5/3 240/5/3 242/5/3
f 244/1/3 239/1/3 241/1/3
f 244/1/3 241/1/3 243/1/3
f 246/9/3 243/9/3 242/9/3
f 246/9/3 244/9/3 243/9/3
f 247/1/3 239/1/3 244/1/3
f 247/9/3 244/9/3 246/9/3
f 248/1/3 239/1/3 247/1/3
f 249/1/3 239/1/3 248/1/3
f 251/9/3 246/9/3 245/9/3
f 252/8/3 247/8/3 246/8/3
f 252/9/3 246/9/3 251/9/3
f 253/9/3 248/9/3 247/9/3
f 253/8/3 247/8/3 252/8/3
f 254/1/3 249/1/3 248/1/3
f 254/9/3 248/9/3 253/9/3
f 255/4/3 250/4/3 249/4/3
f 255/1/3 249/1/3 254/1/3
f 256/4/3 250/4/3 255/4/3
f 257/9/3 253/9/3 252/9/3
f 258/9/3 253/9/3 257/9/3
f 259/1/3 254/1/3 253/1/3
f 259/9/3 253/9/3 258/9/3
f 259/1/3 255/1/3 254/1/3
f 260/1/3 259/1/3 258/1/3
f 261/1/3 259/1/3 260/1/3
f 262/1/3 255/1/3 259/1/3
f 262/1/3 259/1/3 261/1/3
f 263/1/3 255/1/3 262/1/3
f 264/10/3 256/10/3 255/10/3
f 264/1/3 255/1/3 263/1/3
f 265/4/3 250/4/3 256/4/3
f 265/10/3 256/10/3 264/10/3
f 266/6/3 263/6/3 262/6/3
f 266/1/3 262/1/3 261/1/3
f 267/1/3 264/1/3 263/1/3
f 267/6/3 263/6/3 266/6/3
f 270/1/3 266/1/3 261/1/3
f 270/1/3 267/1/3 266/1/3
f 271/4/3 265/4/3 264/4/3
f 271/1/3 264/1/3 267/1/3
f 271/1/3 267/1/3 270/1/3
f 272/4/3 250/4/3 265/4/3
f 272/4/3 265/4/3 271/4/3
f 274/5/3 269/5/3 268/5/3
f 275/2/3 273/2/3 272/2/3
f 275/5/3 269/5/3 274/5/3
f 275/2/3 271/2/3 270/2/3
f 275/2/3 272/2/3 271/2/3
f 275/2/3 270/2/3 269/2/3
f 276/2/3 273/2/3 275/2/3
f 278/9/3 275/9/3 274/9/3
f 278/9/3 276/9/3 275/9/3
f 279/2/3 273/2/3 276/2/3
f 279/9/3 276/9/3 278/9/3
f 280/2/3 273/2/3 279/2/3
f 281/9/3 278/9/3 277/9/3
f 282/8/3 279/8/3 278/8/3
f 282/9/3 278/9/3 281/9/3
f 283/9/3 280/9/3 279/9/3
f 283/8/3 279/8/3 282/8/3
f 284/2/3 273/2/3 280/2/3
f 284/9/3 280/9/3 283/9/3
f 285/9/3 283/9/3 282/9/3
f 286/9/3 283/9/3 285/9/3
f 287/2/3 284/2/3 283/2/3
f 287/9/3 283/9/3 286/9/3
f 288/5/3 286/5/3 285/5/3
f 288/2/3 287/2/3 286/2/3
f 289/2/3 284/2/3 287/2/3
f 289/2/3 287/2/3 288/2/3
f 290/2/3 273/2/3 284/2/3
f 290/2/3 284/2/3 289/2/3
f 291/2/3 273/2/3 290/2/3
f 292/5/3 288/5/3 285/5/3
f 293/5/3 288/5/3 292/5/3
f 294/2/3 290/2/3 289/2/3
f 295/3/3 291/3/3 290/3/3
f 295/2/3 290/2/3 294/2/3
f 296/2/3 273/2/3 291/2/3
f 296/3/3 291/3/3 295/3/3
f 297/2/3 273/2/3 296/2/3
f 300/9/3 299/9/3 298/9/3
f 301/9/3 299/9/3 300/9/3
f 304/2/3 303/2/3 302/2/3
f 305/2/3 303/2/3 304/2/3
f 308/9/3 307/9/3 306/9/3
f 309/9/3 307/9/3 308/9/3
f 314/1/3 313/1/3 312/1/3
f 315/1/3 313/1/3 314/1/3
f 318/1/3 317/1/3 316/1/3
f 319/1/3 317/1/3 318/1/3
f 322/6/3 321/6/3 320/6/3
f 323/6/3 321/6/3 322/6/3
f 324/10/3 311/10/3 310/10/3
f 325/10/3 311/10/3 324/10/3
f 328/1/3 327/1/3 326/1/3
f 329/1/3 327/1/3 328/1/3
f 330/4/3 325/4/3 324/4/3
f 331/4/3 325/4/3 330/4/3
f 334/2/3 333/2/3 332/2/3
f 335/2/3 333/2/3 334/2/3
f 338/2/3 337/2/3 336/2/3
f 339/2/3 337/2/3 338/2/3
f 342/2/3 341/2/3 340/2/3
f 343/2/3 341/2/3 342/2/3
f 346/9/3 345/9/3 344/9/3
f 347/9/3 345/9/3 346/9/3
f 348/9/4 349/9/4 350/9/4
f 350/9/4 349/9/4 351/9/4
f 354/1/4 355/1/4 356/1/4
f 356/1/4 355/1/4 357/1/4
f 358/1/4 359/1/4 360/1/4
f 360/1/4 359/1/4 361/1/4
f 362/6/4 363/6/4 364/6/4
f 364/6/4 363/6/4 365/6/4
f 352/10/4 353/10/4 366/10/4
f 366/10/4 353/10/4 367/10/4
f 368/1/4 369/1/4 370/1/4
f 370/1/4 369/1/4 371/1/4
f 366/4/4 367/4/4 372/4/4
f 372/4/4 367/4/4 373/4/4
f 374/2/4 375/2/4 376/2/4
f 376/2/4 375/2/4 377/2/4
f 378/2/4 379/2/4 380/2/4
f 380/2/4 379/2/4 381/2/4
f 382/2/4 383/2/4 384/2/4
f 384/2/4 383/2/4 385/2/4
f 386/9/4 387/9/4 388/9/4
f 388/9/4 387/9/4 389/9/4
f 390/2/4 391/2/4 392/2/4
f 392/2/4 391/2/4 393/2/4
f 394/9/4 395/9/4 396/9/4
f 396/9/4 395/9/4 397/9/4
f 398/5/4 399/5/4 402/5/4
f 400/1/4 401/1/4 403/1/4
f 398/5/4 402/5/4 404/5/4
f 402/1/4 403/1/4 405/1/4
f 404/5/4 402/5/4 405/5/4
f 403/1/4 401/1/4 406/1/4
f 405/1/4 403/1/4 406/1/4
f 404/9/4 405/9/4 408/9/4
f 405/9/4 406/9/4 408/9/4
f 406/1/4 401/1/4 409/1/4
f 408/9/4 406/9/4 409/9/4
f 409/1/4 401/1/4 410/1/4
f 410/1/4 401/1/4 411/1/4
f 407/9/4 408/9/4 413/9/4
f 408/8/4 409/8/4 414/8/4
f 413/9/4 408/9/4 414/9/4
f 409/9/4 410/9/4 415/9/4
f 414/8/4 409/8/4 415/8/4
f 410/1/4 411/1/4 416/1/4
f 415/9/4 410/9/4 416/9/4
f 411/4/4 412/4/4 417/4/4
f 416/1/4 411/1/4 417/1/4
f 417/4/4 412/4/4 418/4/4
f 414/9/4 415/9/4 419/9/4
f 419/9/4 415/9/4 420/9/4
f 415/1/4 416/1/4 421/1/4
f 420/9/4 415/9/4 421/9/4
f 416/1/4 417/1/4 421/1/4
f 420/1/4 421/1/4 422/1/4
f 422/1/4 421/1/4 423/1/4
f 421/1/4 417/1/4 424/1/4
f 423/1/4 421/1/4 424/1/4
f 424/1/4 417/1/4 425/1/4
f 417/10/4 418/10/4 426/10/4
f 425/1/4 417/1/4 426/1/4
f 418/4/4 412/4/4 427/4/4
f 426/10/4 418/10/4 427/10/4
f 424/6/4 425/6/4 428/6/4
f 423/1/4 424/1/4 428/1/4
f 425/1/4 426/1/4 429/1/4
f 428/6/4 425/6/4 429/6/4
f 423/1/4 428/1/4 432/1/4
f 428/1/4 429/1/4 432/1/4
f 426/4/4 427/4/4 433/4/4
f 429/1/4 426/1/4 433/1/4
f 432/1/4 429/1/4 433/1/4
f 427/4/4 412/4/4 434/4/4
f 433/4/4 427/4/4 434/4/4
f 430/5/4 431/5/4 436/5/4
f 434/2/4 435/2/4 437/2/4
f 436/5/4 431/5/4 437/5/4
f 432/2/4 433/2/4 437/2/4
f 433/2/4 434/2/4 437/2/4
f 431/2/4 432/2/4 437/2/4
f 437/2/4 435/2/4 438/2/4
f 436/9/4 437/9/4 440/9/4
f 437/9/4 438/9/4 440/9/4
f 438/2/4 435/2/4 441/2/4
f 440/9/4 438/9/4 441/9/4
f 441/2/4 435/2/4 442/2/4
f 439/9/4 440/9/4 443/9/4
f 440/8/4 441/8/4 444/8/4
f 443/9/4 440/9/4 444/9/4
f 441/9/4 442/9/4 445/9/4
f 444/8/4 441/8/4 445/8/4
f 442/2/4 435/2/4 446/2/4
f 445/9/4 442/9/4 446/9/4
f 444/9/4 445/9/4 447/9/4
f 447/9/4 445/9/4 448/9/4
f 445/2/4 446/2/4 449/2/4
f 448/9/4 445/9/4 449/9/4
f 447/5/4 448/5/4 450/5/4
f 448/2/4 449/2/4 450/2/4
f 449/2/4 446/2/4 451/2/4
f 450/2/4 449/2/4 451/2/4
f 446/2/4 435/2/4 452/2/4
f 451/2/4 446/2/4 452/2/4
f 452/2/4 435/2/4 453/2/4
f 447/5/4 450/5/4 454/5/4
f 454/5/4 450/5/4 455/5/4
f 451/2/4 452/2/4 456/2/4
f 452/3/4 453/3/4 457/3/4
f 456/2/4 452/2/4 457/2/4
f 453/2/4 435/2/4 458/2/4
f 457/3/4 453/3/4 458/3/4
f 458/2/4 435/2/4 459/2/4
f 460/8/4 461/8/4 462/8/4
f 462/8/4 461/8/4 463/8/4
f 464/5/4 465/5/4 466/5/4
f 466/5/4 465/5/4 467/5/4
f 467/5/4 468/5/4 469/5/4
f 469/5/4 468/5/4 470/5/4
f 471/8/4 472/8/4 473/8/4
f 473/8/4 472/8/4 474/8/4
f 475/5/4 476/5/4 477/5/4
f 477/5/4 476/5/4 478/5/4
f 483/9/5 480/9/5 479/9/5
f 484/9/5 480/9/5 483/9/5
f 485/9/5 482/9/5 481/9/5
f 486/9/5 482/9/5 485/9/5
f 491/9/5 488/9/5 487/9/5
f 492/9/5 488/9/5 491/9/5
f 493/9/5 490/9/5 489/9/5
f 494/9/5 490/9/5 493/9/5
f 498/5/5 496/5/5 495/5/5
f 503/5/5 498/5/5 497/5/5
f 504/5/5 496/5/5 498/5/5
f 504/5/5 498/5/5 503/5/5
f 510/5/5 500/5/5 499/5/5
f 511/9/5 501/9/5 500/9/5
f 511/5/5 500/5/5 510/5/5
f 512/9/5 501/9/5 511/9/5
f 513/9/5 503/9/5 502/9/5
f 514/5/5 504/5/5 503/5/5
f 514/5/5 505/5/5 504/5/5
f 514/9/5 503/9/5 513/9/5
f 515/9/5 506/9/5 505/9/5
f 515/5/5 505/5/5 514/5/5
f 516/9/5 506/9/5 515/9/5
f 517/9/5 508/9/5 507/9/5
f 518/5/5 509/5/5 508/5/5
f 518/9/5 508/9/5 517/9/5
f 519/5/5 509/5/5 518/5/5
f 520/1/5 512/1/5 511/1/5
f 520/5/5 510/5/5 499/5/5
f 520/1/5 519/1/5 518/1/5
f 520/1/5 518/1/5 517/1/5
f 520/1/5 517/1/5 516/1/5
f 520/1/5 515/1/5 514/1/5
f 520/1/5 511/1/5 510/1/5
f 520/1/5 516/1/5 515/1/5
f 520/1/5 514/1/5 513/1/5
f 520/1/5 513/1/5 512/1/5
f 521/1/5 519/1/5 520/1/5
f 522/1/5 519/1/5 521/1/5
f 523/1/5 519/1/5 522/1/5
f 524/1/5 519/1/5 523/1/5
f 525/1/5 519/1/5 524/1/5
f 526/1/5 519/1/5 525/1/5
f 527/1/5 519/1/5 526/1/5
f 528/1/5 519/1/5 527/1/5
f 529/5/5 509/5/5 519/5/5
f 529/1/5 519/1/5 528/1/5
f 530/5/5 520/5/5 499/5/5
f 530/5/5 521/5/5 520/5/5
f 531/9/5 522/9/5 521/9/5
f 531/5/5 521/5/5 530/5/5
f 532/9/5 522/9/5 531/9/5
f 533/9/5 524/9/5 523/9/5
f 534/5/5 525/5/5 524/5/5
f 534/9/5 524/9/5 533/9/5
f 535/5/5 525/5/5 534/5/5
f 536/9/5 526/9/5 525/9/5
f 536/5/5 525/5/5 535/5/5
f 537/9/5 526/9/5 536/9/5
f 538/9/5 528/9/5 527/9/5
f 539/5/5 529/5/5 528/5/5
f 539/9/5 528/9/5 538/9/5
f 540/5/5 509/5/5 529/5/5
f 540/5/5 529/5/5 539/5/5
f 541/5/5 535/5/5 534/5/5
f 542/5/5 535/5/5 541/5/5
f 543/5/5 535/5/5 542/5/5
f 544/5/5 535/5/5 543/5/5
f 549/8/5 546/8/5 545/8/5
f 550/8/5 546/8/5 549/8/5
f 551/8/5 548/8/5 547/8/5
f 552/8/5 548/8/5 551/8/5
f 553/8/5 549/8/5 545/8/5
f 556/8/5 548/8/5 552/8/5
f 557/8/5 554/8/5 553/8/5
f 557/8/5 553/8/5 545/8/5
f 558/8/5 554/8/5 557/8/5
f 559/8/5 556/8/5 555/8/5
f 560/8/5 548/8/5 556/8/5
f 560/8/5 556/8/5 559/8/5
f 577/9/5 576/9/5 575/9/5
f 578/9/5 576/9/5 577/9/5
f 579/1/5 562/1/5 561/1/5
f 580/1/5 562/1/5 579/1/5
f 581/1/5 564/1/5 563/1/5
f 582/1/5 564/1/5 581/1/5
f 583/1/5 566/1/5 565/1/5
f 584/1/5 566/1/5 583/1/5
f 585/1/5 568/1/5 567/1/5
f 586/1/5 568/1/5 585/1/5
f 587/1/5 570/1/5 569/1/5
f 588/1/5 570/1/5 587/1/5
f 589/1/5 572/1/5 571/1/5
f 590/1/5 572/1/5 589/1/5
f 591/1/5 574/1/5 573/1/5
f 592/1/5 574/1/5 591/1/5
f 596/4/5 594/4/5 593/4/5
f 596/4/5 595/4/5 594/4/5
f 597/4/5 595/4/5 596/4/5
f 598/4/5 595/4/5 597/4/5
f 601/2/5 600/2/5 599/2/5
f 602/2/5 600/2/5 601/2/5
f 603/5/6 604/5/6 606/5/6
f 606/5/6 604/5/6 607/5/6
f 605/5/6 606/5/6 608/5/6
f 608/5/6 606/5/6 609/5/6
f 610/5/6 611/5/6 612/5/6
f 612/5/6 611/5/6 613/5/6
f 613/5/6 614/5/6 615/5/6
f 615/5/6 614/5/6 616/5/6
f 617/5/6 618/5/6 619/5/6
f 619/5/6 618/5/6 620/5/6
f 621/5/6 622/5/6 623/5/6
f 623/5/6 622/5/6 624/5/6
f 625/8/6 626/8/6 629/8/6
f 629/8/6 626/8/6 630/8/6
f 627/8/6 628/8/6 631/8/6
f 631/8/6 628/8/6 632/8/6
f 632/8/6 628/8/6 634/8/6
f 633/7/6 634/7/6 635/7/6
f 634/8/6 628/8/6 636/8/6
f 635/7/6 634/7/6 636/7/6
f 625/8/6 629/8/6 637/8/6
f 636/8/6 628/8/6 640/8/6
f 637/8/6 638/8/6 641/8/6
f 625/8/6 637/8/6 641/8/6
f 641/8/6 638/8/6 642/8/6
f 639/8/6 640/8/6 643/8/6
f 640/8/6 628/8/6 644/8/6
f 643/8/6 640/8/6 644/8/6
f 645/1/6 646/1/6 659/1/6
f 659/1/6 646/1/6 660/1/6
f 647/1/6 648/1/6 661/1/6
f 661/1/6 648/1/6 662/1/6
f 649/1/6 650/1/6 663/1/6
f 663/1/6 650/1/6 664/1/6
f 651/1/6 652/1/6 665/1/6
f 665/1/6 652/1/6 666/1/6
f 653/1/6 654/1/6 667/1/6
f 667/1/6 654/1/6 668/1/6
f 655/1/6 656/1/6 669/1/6
f 669/1/6 656/1/6 670/1/6
f 657/1/6 658/1/6 671/1/6
f 671/1/6 658/1/6 672/1/6
f 673/1/6 674/1/6 675/1/6
f 673/1/6 675/1/6 679/1/6
f 679/1/6 675/1/6 680/1/6
f 679/5/6 680/5/6 681/5/6
f 680/1/6 675/1/6 682/1/6
f 681/5/6 680/5/6 682/5/6
f 681/1/6 682/1/6 685/1/6
f 682/1/6 675/1/6 686/1/6
f 685/1/6 682/1/6 686/1/6
f 683/9/6 684/9/6 687/9/6
f 687/9/6 684/9/6 688/9/6
f 685/5/6 686/5/6 689/5/6
f 686/1/6 675/1/6 690/1/6
f 689/5/6 686/5/6 690/5/6
f 689/1/6 690/1/6 691/1/6
f 690/1/6 675/1/6 691/1/6
f 677/1/6 678/1/6 692/1/6
f 676/1/6 677/1/6 692/1/6
f 692/1/6 678/1/6 693/1/6
f 693/1/6 678/1/6 694/1/6
f 689/1/6 691/1/6 695/1/6
f 695/1/6 691/1/6 696/1/6
f 697/4/6 698/4/6 699/4/6
f 699/4/6 698/4/6 700/4/6
f 701/2/6 702/2/6 703/2/6
f 703/2/6 702/2/6 704/2/6
