# MagicaVoxel @ Ephtracy

# group
g voiture1pinkdestroyed

# material
mtllib voiture1pinkdestroyed.mtl
usemtl palette

# normals
vn -1 0 0
vn 1 0 0
vn 0 0 1
vn 0 0 -1
vn 0 -1 0
vn 0 1 0

# texcoords
vt 0.0957031 0.5
vt 0.958984 0.5
vt 0.966797 0.5
vt 0.970703 0.5
vt 0.982422 0.5
vt 0.986328 0.5
vt 0.990234 0.5

# verts
v -2 1 -26
v -2 1 -41
v -2 3 -26
v -2 3 -41
v -1 0 -27
v -1 0 -40
v -1 1 -27
v -1 1 -40
v -1 3 -27
v -1 3 -40
v -1 4 -27
v -1 4 -33
v -1 4 -35
v -1 4 -38
v -1 6 -33
v -1 6 -35
v -1 6 -38
v -1 6 -40
v 4 0 -27
v 4 0 -28
v 4 1 -27
v 4 1 -28
v 4 2 -27
v 4 2 -28
v 4 3 -27
v 4 3 -28
v 4 4 -27
v 4 4 -28
v 4 5 -28
v 4 5 -33
v 4 6 -27
v 4 6 -33
v 5 1 -27
v 5 1 -28
v 5 2 -27
v 5 2 -28
v 5 4 -28
v 5 4 -33
v 5 5 -28
v 5 5 -33
v 7 0 -28
v 7 0 -39
v 7 1 -28
v 7 1 -39
v 7 4 -35
v 7 4 -38
v 7 5 -35
v 7 5 -38
v 9 4 -28
v 9 4 -39
v 9 5 -28
v 9 5 -39
v 9 6 -27
v 9 6 -28
v 9 6 -39
v 9 6 -40
v 9 9 -28
v 9 9 -39
v 9 10 -27
v 9 10 -40
v 11 4 -28
v 11 4 -39
v 11 5 -28
v 11 5 -39
v 13 4 -28
v 13 4 -39
v 13 5 -28
v 13 5 -39
v 15 4 -28
v 15 4 -39
v 15 5 -28
v 15 5 -39
v 17 4 -28
v 17 4 -39
v 17 5 -28
v 17 5 -39
v 17 6 -28
v 17 6 -39
v 17 9 -28
v 17 9 -39
v 19 4 -28
v 19 4 -39
v 19 5 -28
v 19 5 -39
v 21 4 -28
v 21 4 -39
v 21 5 -28
v 21 5 -39
v 23 4 -28
v 23 4 -39
v 23 5 -28
v 23 5 -39
v 23 6 -28
v 23 6 -39
v 23 7 -29
v 23 7 -38
v 23 9 -28
v 23 9 -29
v 23 9 -38
v 23 9 -39
v 27 0 -27
v 27 0 -28
v 27 1 -27
v 27 1 -28
v 27 2 -39
v 27 2 -40
v 27 3 -27
v 27 3 -28
v 27 5 -39
v 27 6 -39
v 27 6 -40
v 29 1 -26
v 29 1 -27
v 29 1 -40
v 29 1 -41
v 29 3 -26
v 29 3 -27
v 29 3 -40
v 29 3 -41
v 30 0 -28
v 30 0 -39
v 30 1 -28
v 30 1 -39
v 30 3 -31
v 30 3 -36
v 30 5 -28
v 30 5 -31
v 30 5 -36
v 30 5 -39
v 0 0 -28
v 0 0 -39
v 0 1 -26
v 0 1 -27
v 0 1 -28
v 0 1 -39
v 0 1 -40
v 0 1 -41
v 0 3 -26
v 0 3 -27
v 0 3 -40
v 0 3 -41
v 0 4 -35
v 0 4 -38
v 0 5 -35
v 0 5 -38
v 2 0 -27
v 2 0 -28
v 2 1 -27
v 2 1 -28
v 2 3 -27
v 2 3 -28
v 8 4 -28
v 8 4 -39
v 8 5 -28
v 8 5 -39
v 10 4 -28
v 10 4 -39
v 10 5 -28
v 10 5 -39
v 10 6 -28
v 10 6 -39
v 10 9 -28
v 10 9 -39
v 12 4 -28
v 12 4 -39
v 12 5 -28
v 12 5 -39
v 14 4 -28
v 14 4 -39
v 14 5 -28
v 14 5 -39
v 16 4 -28
v 16 4 -39
v 16 5 -28
v 16 5 -39
v 18 4 -28
v 18 4 -39
v 18 5 -28
v 18 5 -39
v 18 6 -28
v 18 6 -39
v 18 9 -28
v 18 9 -39
v 20 4 -28
v 20 4 -39
v 20 5 -28
v 20 5 -39
v 22 0 -28
v 22 0 -39
v 22 3 -28
v 22 3 -39
v 22 5 -28
v 22 5 -39
v 23 0 -27
v 23 0 -28
v 23 3 -27
v 23 3 -28
v 24 2 -39
v 24 2 -40
v 24 3 -39
v 24 3 -40
v 24 4 -28
v 24 4 -39
v 24 4 -40
v 24 5 -28
v 24 5 -39
v 24 6 -27
v 24 6 -39
v 24 6 -40
v 24 7 -29
v 24 7 -38
v 24 9 -29
v 24 9 -38
v 24 10 -27
v 24 10 -40
v 30 4 -27
v 30 4 -28
v 30 4 -39
v 30 4 -40
v 30 6 -27
v 30 6 -28
v 30 6 -39
v 30 6 -40
v 31 0 -27
v 31 0 -40
v 31 1 -27
v 31 1 -40
v 31 3 -27
v 31 3 -31
v 31 3 -36
v 31 3 -40
v 31 4 -27
v 31 4 -28
v 31 4 -39
v 31 4 -40
v 31 5 -31
v 31 5 -36
v 31 6 -28
v 31 6 -39
v 32 1 -26
v 32 1 -41
v 32 3 -26
v 32 3 -41
v -2 1 -26
v -2 3 -26
v 0 1 -26
v 0 3 -26
v 29 1 -26
v 29 3 -26
v 32 1 -26
v 32 3 -26
v -1 0 -27
v -1 1 -27
v -1 3 -27
v -1 4 -27
v 0 1 -27
v 0 3 -27
v 2 0 -27
v 2 1 -27
v 2 3 -27
v 3 3 -27
v 3 4 -27
v 4 0 -27
v 4 1 -27
v 4 2 -27
v 4 3 -27
v 4 4 -27
v 4 6 -27
v 5 1 -27
v 5 2 -27
v 6 0 -27
v 6 3 -27
v 6 4 -27
v 7 0 -27
v 7 1 -27
v 7 3 -27
v 9 6 -27
v 9 10 -27
v 10 6 -27
v 10 9 -27
v 16 4 -27
v 16 5 -27
v 17 6 -27
v 17 9 -27
v 18 4 -27
v 18 5 -27
v 18 6 -27
v 18 9 -27
v 22 0 -27
v 22 1 -27
v 22 3 -27
v 22 6 -27
v 22 9 -27
v 23 0 -27
v 23 3 -27
v 23 4 -27
v 24 6 -27
v 24 10 -27
v 26 3 -27
v 26 4 -27
v 27 0 -27
v 27 1 -27
v 27 3 -27
v 29 1 -27
v 29 3 -27
v 30 4 -27
v 30 6 -27
v 31 0 -27
v 31 1 -27
v 31 3 -27
v 31 4 -27
v 2 1 -28
v 2 3 -28
v 3 3 -28
v 4 1 -28
v 4 2 -28
v 4 3 -28
v 5 1 -28
v 5 2 -28
v 30 4 -28
v 30 6 -28
v 31 4 -28
v 31 6 -28
v -1 4 -33
v -1 6 -33
v 4 5 -33
v 4 6 -33
v 5 4 -33
v 5 5 -33
v 0 4 -38
v 0 5 -38
v 7 4 -38
v 7 5 -38
v 0 0 -39
v 0 1 -39
v 2 0 -39
v 2 1 -39
v 3 0 -39
v 3 1 -39
v 6 0 -39
v 6 1 -39
v 7 0 -39
v 7 1 -39
v 8 4 -39
v 8 5 -39
v 9 4 -39
v 9 5 -39
v 10 4 -39
v 10 5 -39
v 10 6 -39
v 10 9 -39
v 11 4 -39
v 11 5 -39
v 12 4 -39
v 12 5 -39
v 13 4 -39
v 13 5 -39
v 14 4 -39
v 14 5 -39
v 15 4 -39
v 15 5 -39
v 16 4 -39
v 16 5 -39
v 17 4 -39
v 17 5 -39
v 17 6 -39
v 17 9 -39
v 18 4 -39
v 18 5 -39
v 18 6 -39
v 18 9 -39
v 19 4 -39
v 19 5 -39
v 20 4 -39
v 20 5 -39
v 21 4 -39
v 21 5 -39
v 22 0 -39
v 22 3 -39
v 22 5 -39
v 22 6 -39
v 22 9 -39
v 23 0 -39
v 23 3 -39
v 23 4 -39
v 23 5 -39
v 23 6 -39
v 23 9 -39
v 24 2 -39
v 24 3 -39
v 24 4 -39
v 26 0 -39
v 26 2 -39
v 27 0 -39
v 27 1 -39
v 27 2 -39
v 27 5 -39
v 30 0 -39
v 30 1 -39
v 30 5 -39
v 0 0 -28
v 0 1 -28
v 2 0 -28
v 2 1 -28
v 4 0 -28
v 4 1 -28
v 4 4 -28
v 4 5 -28
v 5 4 -28
v 5 5 -28
v 6 0 -28
v 6 1 -28
v 7 0 -28
v 7 1 -28
v 8 4 -28
v 8 5 -28
v 9 4 -28
v 9 5 -28
v 10 4 -28
v 10 5 -28
v 10 6 -28
v 10 9 -28
v 11 4 -28
v 11 5 -28
v 12 4 -28
v 12 5 -28
v 13 4 -28
v 13 5 -28
v 14 4 -28
v 14 5 -28
v 15 4 -28
v 15 5 -28
v 16 4 -28
v 16 5 -28
v 17 4 -28
v 17 5 -28
v 17 6 -28
v 17 9 -28
v 18 4 -28
v 18 5 -28
v 18 6 -28
v 18 9 -28
v 19 4 -28
v 19 5 -28
v 20 4 -28
v 20 5 -28
v 21 4 -28
v 21 5 -28
v 22 0 -28
v 22 3 -28
v 22 5 -28
v 22 6 -28
v 22 9 -28
v 23 0 -28
v 23 3 -28
v 23 4 -28
v 23 5 -28
v 23 6 -28
v 23 9 -28
v 24 4 -28
v 24 5 -28
v 26 3 -28
v 26 4 -28
v 27 0 -28
v 27 1 -28
v 27 3 -28
v 30 0 -28
v 30 1 -28
v 30 5 -28
v 0 4 -35
v 0 5 -35
v 7 4 -35
v 7 5 -35
v 24 5 -39
v 24 6 -39
v 27 5 -39
v 27 6 -39
v 30 4 -39
v 30 6 -39
v 31 4 -39
v 31 6 -39
v -1 0 -40
v -1 1 -40
v -1 3 -40
v -1 6 -40
v 0 1 -40
v 0 3 -40
v 2 0 -40
v 2 1 -40
v 2 3 -40
v 3 0 -40
v 3 3 -40
v 3 4 -40
v 6 0 -40
v 6 3 -40
v 6 4 -40
v 7 0 -40
v 7 1 -40
v 7 3 -40
v 9 6 -40
v 9 10 -40
v 10 6 -40
v 10 9 -40
v 16 4 -40
v 16 5 -40
v 17 6 -40
v 17 9 -40
v 18 4 -40
v 18 5 -40
v 18 6 -40
v 18 9 -40
v 22 0 -40
v 22 1 -40
v 22 3 -40
v 22 6 -40
v 22 9 -40
v 23 0 -40
v 23 3 -40
v 23 4 -40
v 24 2 -40
v 24 3 -40
v 24 4 -40
v 24 6 -40
v 24 10 -40
v 26 0 -40
v 26 2 -40
v 27 0 -40
v 27 1 -40
v 27 2 -40
v 27 6 -40
v 29 1 -40
v 29 3 -40
v 30 4 -40
v 30 6 -40
v 31 0 -40
v 31 1 -40
v 31 3 -40
v 31 4 -40
v -2 1 -41
v -2 3 -41
v 0 1 -41
v 0 3 -41
v 29 1 -41
v 29 3 -41
v 32 1 -41
v 32 3 -41
v -1 0 -27
v 2 0 -27
v 4 0 -27
v 6 0 -27
v 7 0 -27
v 22 0 -27
v 23 0 -27
v 27 0 -27
v 31 0 -27
v 0 0 -28
v 2 0 -28
v 4 0 -28
v 6 0 -28
v 7 0 -28
v 22 0 -28
v 23 0 -28
v 27 0 -28
v 30 0 -28
v 0 0 -39
v 2 0 -39
v 3 0 -39
v 6 0 -39
v 7 0 -39
v 22 0 -39
v 23 0 -39
v 26 0 -39
v 27 0 -39
v 30 0 -39
v -1 0 -40
v 2 0 -40
v 3 0 -40
v 6 0 -40
v 7 0 -40
v 22 0 -40
v 23 0 -40
v 26 0 -40
v 27 0 -40
v 31 0 -40
v -2 1 -26
v 0 1 -26
v 29 1 -26
v 32 1 -26
v -1 1 -27
v 0 1 -27
v 29 1 -27
v 31 1 -27
v 0 1 -28
v 2 1 -28
v 4 1 -28
v 6 1 -28
v 7 1 -28
v 0 1 -39
v 2 1 -39
v 3 1 -39
v 6 1 -39
v 7 1 -39
v -1 1 -40
v 0 1 -40
v 29 1 -40
v 31 1 -40
v -2 1 -41
v 0 1 -41
v 29 1 -41
v 32 1 -41
v 4 2 -27
v 5 2 -27
v 4 2 -28
v 5 2 -28
v 2 3 -27
v 3 3 -27
v 4 3 -27
v 23 3 -27
v 26 3 -27
v 27 3 -27
v 2 3 -28
v 3 3 -28
v 4 3 -28
v 23 3 -28
v 26 3 -28
v 27 3 -28
v 23 4 -28
v 24 4 -28
v 23 4 -39
v 24 4 -39
v 4 5 -28
v 5 5 -28
v 8 5 -28
v 9 5 -28
v 10 5 -28
v 11 5 -28
v 12 5 -28
v 13 5 -28
v 14 5 -28
v 15 5 -28
v 16 5 -28
v 17 5 -28
v 18 5 -28
v 19 5 -28
v 20 5 -28
v 21 5 -28
v 22 5 -28
v 23 5 -28
v 24 5 -28
v 30 5 -28
v 30 5 -31
v 4 5 -33
v 5 5 -33
v 0 5 -35
v 7 5 -35
v 30 5 -36
v 0 5 -38
v 7 5 -38
v 8 5 -39
v 9 5 -39
v 10 5 -39
v 11 5 -39
v 12 5 -39
v 13 5 -39
v 14 5 -39
v 15 5 -39
v 16 5 -39
v 17 5 -39
v 18 5 -39
v 19 5 -39
v 20 5 -39
v 21 5 -39
v 22 5 -39
v 23 5 -39
v 24 5 -39
v 27 5 -39
v 30 5 -39
v 10 9 -28
v 17 9 -28
v 18 9 -28
v 22 9 -28
v 23 9 -28
v 23 9 -29
v 23 9 -38
v 10 9 -39
v 17 9 -39
v 18 9 -39
v 22 9 -39
v 23 9 -39
v 4 1 -27
v 5 1 -27
v 4 1 -28
v 5 1 -28
v 24 2 -39
v 26 2 -39
v 27 2 -39
v 24 2 -40
v 26 2 -40
v 27 2 -40
v -2 3 -26
v 0 3 -26
v 29 3 -26
v 32 3 -26
v -1 3 -27
v 0 3 -27
v 29 3 -27
v 31 3 -27
v 31 3 -31
v 31 3 -36
v -1 3 -40
v 0 3 -40
v 29 3 -40
v 31 3 -40
v -2 3 -41
v 0 3 -41
v 29 3 -41
v 32 3 -41
v -1 4 -27
v 3 4 -27
v 4 4 -27
v 30 4 -27
v 31 4 -27
v 3 4 -28
v 4 4 -28
v 5 4 -28
v 8 4 -28
v 9 4 -28
v 10 4 -28
v 11 4 -28
v 12 4 -28
v 13 4 -28
v 14 4 -28
v 15 4 -28
v 16 4 -28
v 17 4 -28
v 18 4 -28
v 19 4 -28
v 20 4 -28
v 21 4 -28
v 30 4 -28
v 31 4 -28
v -1 4 -33
v 5 4 -33
v 0 4 -35
v 7 4 -35
v 0 4 -38
v 7 4 -38
v 8 4 -39
v 9 4 -39
v 10 4 -39
v 11 4 -39
v 12 4 -39
v 13 4 -39
v 14 4 -39
v 15 4 -39
v 16 4 -39
v 17 4 -39
v 18 4 -39
v 19 4 -39
v 20 4 -39
v 21 4 -39
v 30 4 -39
v 31 4 -39
v 30 4 -40
v 31 4 -40
v 4 6 -27
v 9 6 -27
v 24 6 -27
v 30 6 -27
v 9 6 -28
v 10 6 -28
v 17 6 -28
v 18 6 -28
v 22 6 -28
v 23 6 -28
v 30 6 -28
v 31 6 -28
v -1 6 -33
v 4 6 -33
v -1 6 -35
v 0 6 -35
v -1 6 -38
v 0 6 -38
v 9 6 -39
v 10 6 -39
v 17 6 -39
v 18 6 -39
v 22 6 -39
v 23 6 -39
v 24 6 -39
v 27 6 -39
v 30 6 -39
v 31 6 -39
v -1 6 -40
v 9 6 -40
v 27 6 -40
v 30 6 -40
v 9 10 -27
v 24 10 -27
v 9 10 -40
v 24 10 -40

# faces
f 3/5/1 2/5/1 1/5/1
f 4/5/1 2/5/1 3/5/1
f 7/3/1 6/3/1 5/3/1
f 8/3/1 6/3/1 7/3/1
f 11/1/1 10/1/1 9/1/1
f 12/1/1 10/1/1 11/1/1
f 13/1/1 10/1/1 12/1/1
f 14/1/1 10/1/1 13/1/1
f 15/1/1 13/1/1 12/1/1
f 16/3/1 14/3/1 13/3/1
f 16/1/1 13/1/1 15/1/1
f 17/1/1 10/1/1 14/1/1
f 17/3/1 14/3/1 16/3/1
f 18/1/1 10/1/1 17/1/1
f 21/5/1 20/5/1 19/5/1
f 22/5/1 20/5/1 21/5/1
f 25/5/1 24/5/1 23/5/1
f 26/5/1 24/5/1 25/5/1
f 29/1/1 28/1/1 27/1/1
f 31/1/1 29/1/1 27/1/1
f 31/1/1 30/1/1 29/1/1
f 32/1/1 30/1/1 31/1/1
f 35/5/1 34/5/1 33/5/1
f 36/5/1 34/5/1 35/5/1
f 39/1/1 38/1/1 37/1/1
f 40/1/1 38/1/1 39/1/1
f 43/1/1 42/1/1 41/1/1
f 44/1/1 42/1/1 43/1/1
f 47/1/1 46/1/1 45/1/1
f 48/1/1 46/1/1 47/1/1
f 51/1/1 50/1/1 49/1/1
f 52/1/1 50/1/1 51/1/1
f 57/7/1 55/7/1 54/7/1
f 57/2/1 54/2/1 53/2/1
f 58/2/1 56/2/1 55/2/1
f 58/7/1 55/7/1 57/7/1
f 59/2/1 57/2/1 53/2/1
f 59/2/1 58/2/1 57/2/1
f 60/2/1 56/2/1 58/2/1
f 60/2/1 58/2/1 59/2/1
f 63/1/1 62/1/1 61/1/1
f 64/1/1 62/1/1 63/1/1
f 67/1/1 66/1/1 65/1/1
f 68/1/1 66/1/1 67/1/1
f 71/1/1 70/1/1 69/1/1
f 72/1/1 70/1/1 71/1/1
f 75/1/1 74/1/1 73/1/1
f 76/1/1 74/1/1 75/1/1
f 79/1/1 78/1/1 77/1/1
f 80/1/1 78/1/1 79/1/1
f 83/1/1 82/1/1 81/1/1
f 84/1/1 82/1/1 83/1/1
f 87/1/1 86/1/1 85/1/1
f 88/1/1 86/1/1 87/1/1
f 91/1/1 90/1/1 89/1/1
f 92/1/1 90/1/1 91/1/1
f 95/2/1 94/2/1 93/2/1
f 96/2/1 94/2/1 95/2/1
f 97/2/1 95/2/1 93/2/1
f 98/7/1 96/7/1 95/7/1
f 98/2/1 95/2/1 97/2/1
f 99/2/1 94/2/1 96/2/1
f 99/7/1 96/7/1 98/7/1
f 100/2/1 94/2/1 99/2/1
f 103/3/1 102/3/1 101/3/1
f 104/3/1 102/3/1 103/3/1
f 107/1/1 104/1/1 103/1/1
f 108/1/1 104/1/1 107/1/1
f 109/1/1 106/1/1 105/1/1
f 110/1/1 106/1/1 109/1/1
f 111/1/1 106/1/1 110/1/1
f 116/5/1 113/5/1 112/5/1
f 117/5/1 113/5/1 116/5/1
f 118/5/1 115/5/1 114/5/1
f 119/5/1 115/5/1 118/5/1
f 122/3/1 121/3/1 120/3/1
f 123/3/1 121/3/1 122/3/1
f 124/1/1 123/1/1 122/1/1
f 125/1/1 123/1/1 124/1/1
f 126/1/1 124/1/1 122/1/1
f 127/4/1 125/4/1 124/4/1
f 127/1/1 124/1/1 126/1/1
f 128/1/1 123/1/1 125/1/1
f 128/4/1 125/4/1 127/4/1
f 129/1/1 123/1/1 128/1/1
f 130/3/2 131/3/2 134/3/2
f 134/3/2 131/3/2 135/3/2
f 132/5/2 133/5/2 138/5/2
f 138/5/2 133/5/2 139/5/2
f 136/5/2 137/5/2 140/5/2
f 140/5/2 137/5/2 141/5/2
f 142/3/2 143/3/2 144/3/2
f 144/3/2 143/3/2 145/3/2
f 146/3/2 147/3/2 148/3/2
f 148/3/2 147/3/2 149/3/2
f 148/1/2 149/1/2 150/1/2
f 150/1/2 149/1/2 151/1/2
f 152/1/2 153/1/2 154/1/2
f 154/1/2 153/1/2 155/1/2
f 156/1/2 157/1/2 158/1/2
f 158/1/2 157/1/2 159/1/2
f 160/7/2 161/7/2 162/7/2
f 162/7/2 161/7/2 163/7/2
f 164/1/2 165/1/2 166/1/2
f 166/1/2 165/1/2 167/1/2
f 168/1/2 169/1/2 170/1/2
f 170/1/2 169/1/2 171/1/2
f 172/1/2 173/1/2 174/1/2
f 174/1/2 173/1/2 175/1/2
f 176/1/2 177/1/2 178/1/2
f 178/1/2 177/1/2 179/1/2
f 180/1/2 181/1/2 182/1/2
f 182/1/2 181/1/2 183/1/2
f 184/1/2 185/1/2 186/1/2
f 186/1/2 185/1/2 187/1/2
f 188/1/2 189/1/2 190/1/2
f 190/1/2 189/1/2 191/1/2
f 190/1/2 191/1/2 192/1/2
f 192/1/2 191/1/2 193/1/2
f 194/6/2 195/6/2 196/6/2
f 196/6/2 195/6/2 197/6/2
f 198/5/2 199/5/2 200/5/2
f 200/5/2 199/5/2 201/5/2
f 200/6/2 201/6/2 203/6/2
f 203/6/2 201/6/2 204/6/2
f 202/1/2 203/1/2 205/1/2
f 203/1/2 204/1/2 205/1/2
f 205/1/2 204/1/2 206/1/2
f 206/1/2 204/1/2 208/1/2
f 208/1/2 204/1/2 209/1/2
f 207/2/2 208/2/2 210/2/2
f 208/2/2 209/2/2 210/2/2
f 210/2/2 209/2/2 211/2/2
f 207/2/2 210/2/2 212/2/2
f 210/7/2 211/7/2 212/7/2
f 211/2/2 209/2/2 213/2/2
f 212/7/2 211/7/2 213/7/2
f 207/2/2 212/2/2 214/2/2
f 212/2/2 213/2/2 214/2/2
f 213/2/2 209/2/2 215/2/2
f 214/2/2 213/2/2 215/2/2
f 216/1/2 217/1/2 220/1/2
f 220/1/2 217/1/2 221/1/2
f 218/1/2 219/1/2 222/1/2
f 222/1/2 219/1/2 223/1/2
f 224/3/2 225/3/2 226/3/2
f 226/3/2 225/3/2 227/3/2
f 228/1/2 229/1/2 232/1/2
f 232/1/2 229/1/2 233/1/2
f 230/1/2 231/1/2 234/1/2
f 234/1/2 231/1/2 235/1/2
f 233/1/2 229/1/2 236/1/2
f 229/4/2 230/4/2 236/4/2
f 230/1/2 234/1/2 237/1/2
f 236/4/2 230/4/2 237/4/2
f 233/1/2 236/1/2 238/1/2
f 236/1/2 237/1/2 238/1/2
f 237/1/2 234/1/2 239/1/2
f 238/1/2 237/1/2 239/1/2
f 240/5/2 241/5/2 242/5/2
f 242/5/2 241/5/2 243/5/2
f 246/5/3 245/5/3 244/5/3
f 247/5/3 245/5/3 246/5/3
f 250/5/3 249/5/3 248/5/3
f 251/5/3 249/5/3 250/5/3
f 256/3/3 253/3/3 252/3/3
f 257/1/3 255/1/3 254/1/3
f 258/3/3 256/3/3 252/3/3
f 259/1/3 257/1/3 256/1/3
f 259/3/3 256/3/3 258/3/3
f 260/1/3 255/1/3 257/1/3
f 260/1/3 257/1/3 259/1/3
f 261/1/3 255/1/3 260/1/3
f 262/1/3 255/1/3 261/1/3
f 266/6/3 262/6/3 261/6/3
f 267/6/3 262/6/3 266/6/3
f 269/5/3 264/5/3 263/5/3
f 270/5/3 266/5/3 265/5/3
f 271/5/3 269/5/3 263/5/3
f 271/5/3 270/5/3 269/5/3
f 272/6/3 267/6/3 266/6/3
f 272/5/3 270/5/3 271/5/3
f 272/5/3 266/5/3 270/5/3
f 273/1/3 268/1/3 267/1/3
f 273/6/3 267/6/3 272/6/3
f 274/6/3 272/6/3 271/6/3
f 275/6/3 272/6/3 274/6/3
f 276/1/3 273/1/3 272/1/3
f 276/6/3 272/6/3 275/6/3
f 277/1/3 268/1/3 273/1/3
f 277/1/3 273/1/3 276/1/3
f 277/1/3 276/1/3 275/1/3
f 279/1/3 277/1/3 275/1/3
f 279/2/3 278/2/3 277/2/3
f 280/2/3 278/2/3 279/2/3
f 281/1/3 279/1/3 275/1/3
f 282/1/3 279/1/3 281/1/3
f 283/7/3 280/7/3 279/7/3
f 283/1/3 279/1/3 282/1/3
f 284/2/3 278/2/3 280/2/3
f 284/7/3 280/7/3 283/7/3
f 285/5/3 282/5/3 281/5/3
f 285/1/3 281/1/3 275/1/3
f 286/1/3 283/1/3 282/1/3
f 286/5/3 282/5/3 285/5/3
f 287/2/3 284/2/3 283/2/3
f 287/1/3 283/1/3 286/1/3
f 288/2/3 278/2/3 284/2/3
f 288/2/3 284/2/3 287/2/3
f 289/3/3 275/3/3 274/3/3
f 290/1/3 285/1/3 275/1/3
f 290/3/3 275/3/3 289/3/3
f 290/1/3 287/1/3 286/1/3
f 290/1/3 286/1/3 285/1/3
f 291/1/3 287/1/3 290/1/3
f 292/7/3 288/7/3 287/7/3
f 292/1/3 287/1/3 291/1/3
f 293/2/3 278/2/3 288/2/3
f 293/7/3 288/7/3 292/7/3
f 294/6/3 291/6/3 290/6/3
f 294/6/3 290/6/3 289/6/3
f 295/1/3 292/1/3 291/1/3
f 295/6/3 291/6/3 294/6/3
f 296/1/3 292/1/3 295/1/3
f 297/2/3 293/2/3 292/2/3
f 297/1/3 292/1/3 296/1/3
f 298/2/3 278/2/3 293/2/3
f 298/2/3 293/2/3 297/2/3
f 299/6/3 296/6/3 295/6/3
f 300/1/3 297/1/3 296/1/3
f 300/6/3 296/6/3 299/6/3
f 303/1/3 300/1/3 299/1/3
f 304/3/3 302/3/3 301/3/3
f 304/1/3 303/1/3 302/1/3
f 305/1/3 300/1/3 303/1/3
f 305/1/3 303/1/3 304/1/3
f 306/1/3 297/1/3 300/1/3
f 306/1/3 300/1/3 305/1/3
f 307/1/3 297/1/3 306/1/3
f 308/3/3 304/3/3 301/3/3
f 309/3/3 304/3/3 308/3/3
f 310/1/3 306/1/3 305/1/3
f 311/1/3 306/1/3 310/1/3
f 314/1/3 313/1/3 312/1/3
f 315/1/3 314/1/3 312/1/3
f 316/1/3 314/1/3 315/1/3
f 317/1/3 314/1/3 316/1/3
f 318/1/3 316/1/3 315/1/3
f 319/1/3 316/1/3 318/1/3
f 322/1/3 321/1/3 320/1/3
f 323/1/3 321/1/3 322/1/3
f 326/1/3 325/1/3 324/1/3
f 327/1/3 325/1/3 326/1/3
f 328/1/3 326/1/3 324/1/3
f 329/1/3 326/1/3 328/1/3
f 332/1/3 331/1/3 330/1/3
f 333/1/3 331/1/3 332/1/3
f 336/3/3 335/3/3 334/3/3
f 337/3/3 335/3/3 336/3/3
f 338/6/3 337/6/3 336/6/3
f 339/6/3 337/6/3 338/6/3
f 340/5/3 339/5/3 338/5/3
f 341/5/3 339/5/3 340/5/3
f 342/6/3 341/6/3 340/6/3
f 343/6/3 341/6/3 342/6/3
f 346/1/3 345/1/3 344/1/3
f 347/1/3 345/1/3 346/1/3
f 352/1/3 349/1/3 348/1/3
f 353/1/3 349/1/3 352/1/3
f 356/1/3 355/1/3 354/1/3
f 357/1/3 355/1/3 356/1/3
f 360/1/3 359/1/3 358/1/3
f 361/1/3 359/1/3 360/1/3
f 364/5/3 363/5/3 362/5/3
f 365/5/3 363/5/3 364/5/3
f 366/7/3 351/7/3 350/7/3
f 367/7/3 351/7/3 366/7/3
f 372/1/3 369/1/3 368/1/3
f 373/1/3 369/1/3 372/1/3
f 376/1/3 375/1/3 374/1/3
f 377/1/3 375/1/3 376/1/3
f 381/7/3 371/7/3 370/7/3
f 382/7/3 371/7/3 381/7/3
f 383/6/3 379/6/3 378/6/3
f 384/1/3 380/1/3 379/1/3
f 384/6/3 379/6/3 383/6/3
f 385/1/3 380/1/3 384/1/3
f 386/1/3 380/1/3 385/1/3
f 387/2/3 382/2/3 381/2/3
f 388/2/3 382/2/3 387/2/3
f 389/5/3 384/5/3 383/5/3
f 390/6/3 385/6/3 384/6/3
f 390/5/3 384/5/3 389/5/3
f 391/6/3 385/6/3 390/6/3
f 392/5/3 389/5/3 383/5/3
f 393/5/3 389/5/3 392/5/3
f 394/6/3 393/6/3 392/6/3
f 395/6/3 393/6/3 394/6/3
f 396/6/3 393/6/3 395/6/3
f 398/3/3 395/3/3 394/3/3
f 399/1/3 396/1/3 395/1/3
f 399/3/3 395/3/3 398/3/3
f 399/1/3 397/1/3 396/1/3
f 400/1/3 397/1/3 399/1/3
f 401/3/4 402/3/4 403/3/4
f 403/3/4 402/3/4 404/3/4
f 407/1/4 408/1/4 409/1/4
f 409/1/4 408/1/4 410/1/4
f 405/5/4 406/5/4 411/5/4
f 411/5/4 406/5/4 412/5/4
f 411/6/4 412/6/4 413/6/4
f 413/6/4 412/6/4 414/6/4
f 415/1/4 416/1/4 417/1/4
f 417/1/4 416/1/4 418/1/4
f 419/1/4 420/1/4 423/1/4
f 423/1/4 420/1/4 424/1/4
f 425/1/4 426/1/4 427/1/4
f 427/1/4 426/1/4 428/1/4
f 429/1/4 430/1/4 431/1/4
f 431/1/4 430/1/4 432/1/4
f 433/5/4 434/5/4 435/5/4
f 435/5/4 434/5/4 436/5/4
f 421/7/4 422/7/4 437/7/4
f 437/7/4 422/7/4 438/7/4
f 439/1/4 440/1/4 443/1/4
f 443/1/4 440/1/4 444/1/4
f 445/1/4 446/1/4 447/1/4
f 447/1/4 446/1/4 448/1/4
f 441/7/4 442/7/4 452/7/4
f 452/7/4 442/7/4 453/7/4
f 449/6/4 450/6/4 454/6/4
f 450/1/4 451/1/4 455/1/4
f 454/6/4 450/6/4 455/6/4
f 455/1/4 451/1/4 456/1/4
f 456/1/4 451/1/4 457/1/4
f 452/2/4 453/2/4 458/2/4
f 458/2/4 453/2/4 459/2/4
f 455/6/4 456/6/4 460/6/4
f 455/6/4 460/6/4 462/6/4
f 460/1/4 461/1/4 463/1/4
f 462/6/4 460/6/4 463/6/4
f 462/1/4 463/1/4 466/1/4
f 464/3/4 465/3/4 467/3/4
f 465/1/4 466/1/4 468/1/4
f 467/3/4 465/3/4 468/3/4
f 463/1/4 461/1/4 469/1/4
f 468/1/4 466/1/4 469/1/4
f 466/1/4 463/1/4 469/1/4
f 470/1/4 471/1/4 472/1/4
f 472/1/4 471/1/4 473/1/4
f 474/1/4 475/1/4 476/1/4
f 476/1/4 475/1/4 477/1/4
f 478/1/4 479/1/4 480/1/4
f 480/1/4 479/1/4 481/1/4
f 482/3/4 483/3/4 486/3/4
f 484/1/4 485/1/4 487/1/4
f 482/3/4 486/3/4 488/3/4
f 486/1/4 487/1/4 489/1/4
f 488/3/4 486/3/4 489/3/4
f 487/1/4 485/1/4 490/1/4
f 489/1/4 487/1/4 490/1/4
f 488/6/4 489/6/4 491/6/4
f 489/6/4 490/6/4 491/6/4
f 490/1/4 485/1/4 492/1/4
f 491/6/4 490/6/4 492/6/4
f 492/1/4 485/1/4 493/1/4
f 491/5/4 492/5/4 494/5/4
f 492/6/4 493/6/4 495/6/4
f 494/5/4 492/5/4 495/5/4
f 493/1/4 485/1/4 496/1/4
f 495/6/4 493/6/4 496/6/4
f 494/6/4 495/6/4 497/6/4
f 497/6/4 495/6/4 498/6/4
f 495/1/4 496/1/4 499/1/4
f 498/6/4 495/6/4 499/6/4
f 496/1/4 485/1/4 500/1/4
f 499/1/4 496/1/4 500/1/4
f 498/1/4 499/1/4 500/1/4
f 498/1/4 500/1/4 502/1/4
f 500/2/4 501/2/4 502/2/4
f 502/2/4 501/2/4 503/2/4
f 498/1/4 502/1/4 504/1/4
f 504/1/4 502/1/4 505/1/4
f 502/7/4 503/7/4 506/7/4
f 505/1/4 502/1/4 506/1/4
f 503/2/4 501/2/4 507/2/4
f 506/7/4 503/7/4 507/7/4
f 504/5/4 505/5/4 508/5/4
f 498/1/4 504/1/4 508/1/4
f 505/1/4 506/1/4 509/1/4
f 508/5/4 505/5/4 509/5/4
f 506/2/4 507/2/4 510/2/4
f 509/1/4 506/1/4 510/1/4
f 507/2/4 501/2/4 511/2/4
f 510/2/4 507/2/4 511/2/4
f 497/3/4 498/3/4 512/3/4
f 498/1/4 508/1/4 513/1/4
f 512/3/4 498/3/4 513/3/4
f 509/1/4 510/1/4 513/1/4
f 508/1/4 509/1/4 513/1/4
f 513/1/4 510/1/4 514/1/4
f 510/7/4 511/7/4 515/7/4
f 514/1/4 510/1/4 515/1/4
f 511/2/4 501/2/4 516/2/4
f 515/7/4 511/7/4 516/7/4
f 513/6/4 514/6/4 517/6/4
f 512/6/4 513/6/4 517/6/4
f 514/1/4 515/1/4 518/1/4
f 517/6/4 514/6/4 518/6/4
f 518/1/4 515/1/4 519/1/4
f 517/5/4 518/5/4 520/5/4
f 518/6/4 519/6/4 521/6/4
f 520/5/4 518/5/4 521/5/4
f 519/1/4 515/1/4 522/1/4
f 521/6/4 519/6/4 522/6/4
f 515/2/4 516/2/4 523/2/4
f 522/1/4 515/1/4 523/1/4
f 516/2/4 501/2/4 524/2/4
f 523/2/4 516/2/4 524/2/4
f 517/5/4 520/5/4 525/5/4
f 525/5/4 520/5/4 526/5/4
f 525/6/4 526/6/4 527/6/4
f 527/6/4 526/6/4 528/6/4
f 528/6/4 526/6/4 529/6/4
f 528/1/4 529/1/4 531/1/4
f 529/1/4 530/1/4 531/1/4
f 527/3/4 528/3/4 531/3/4
f 531/1/4 530/1/4 532/1/4
f 532/1/4 530/1/4 533/1/4
f 533/1/4 530/1/4 534/1/4
f 527/3/4 531/3/4 535/3/4
f 535/3/4 531/3/4 536/3/4
f 532/1/4 533/1/4 537/1/4
f 537/1/4 533/1/4 538/1/4
f 539/5/4 540/5/4 541/5/4
f 541/5/4 540/5/4 542/5/4
f 543/5/4 544/5/4 545/5/4
f 545/5/4 544/5/4 546/5/4
f 556/3/5 548/3/5 547/3/5
f 557/3/5 548/3/5 556/3/5
f 558/5/5 550/5/5 549/5/5
f 559/6/5 551/6/5 550/6/5
f 559/5/5 550/5/5 558/5/5
f 560/3/5 552/3/5 551/3/5
f 560/6/5 551/6/5 559/6/5
f 561/6/5 553/6/5 552/6/5
f 561/3/5 552/3/5 560/3/5
f 562/6/5 553/6/5 561/6/5
f 563/3/5 555/3/5 554/3/5
f 564/3/5 555/3/5 563/3/5
f 565/3/5 556/3/5 547/3/5
f 569/1/5 561/1/5 560/1/5
f 570/1/5 561/1/5 569/1/5
f 574/3/5 555/3/5 564/3/5
f 575/3/5 565/3/5 547/3/5
f 575/3/5 566/3/5 565/3/5
f 576/6/5 567/6/5 566/6/5
f 576/3/5 566/3/5 575/3/5
f 577/5/5 568/5/5 567/5/5
f 577/6/5 567/6/5 576/6/5
f 578/6/5 569/6/5 568/6/5
f 578/5/5 568/5/5 577/5/5
f 579/3/5 570/3/5 569/3/5
f 579/6/5 569/6/5 578/6/5
f 580/6/5 571/6/5 570/6/5
f 580/3/5 570/3/5 579/3/5
f 581/5/5 572/5/5 571/5/5
f 581/6/5 571/6/5 580/6/5
f 582/6/5 573/6/5 572/6/5
f 582/5/5 572/5/5 581/5/5
f 583/3/5 574/3/5 573/3/5
f 583/6/5 573/6/5 582/6/5
f 584/3/5 555/3/5 574/3/5
f 584/3/5 574/3/5 583/3/5
f 589/5/5 586/5/5 585/5/5
f 590/5/5 586/5/5 589/5/5
f 591/5/5 588/5/5 587/5/5
f 592/5/5 588/5/5 591/5/5
f 598/1/5 594/1/5 593/1/5
f 598/1/5 597/1/5 596/1/5
f 598/1/5 596/1/5 595/1/5
f 598/1/5 595/1/5 594/1/5
f 599/1/5 597/1/5 598/1/5
f 600/1/5 597/1/5 599/1/5
f 601/1/5 597/1/5 600/1/5
f 602/1/5 597/1/5 601/1/5
f 603/5/5 589/5/5 585/5/5
f 606/5/5 588/5/5 592/5/5
f 607/5/5 603/5/5 585/5/5
f 607/5/5 604/5/5 603/5/5
f 608/5/5 604/5/5 607/5/5
f 609/5/5 606/5/5 605/5/5
f 610/5/5 588/5/5 606/5/5
f 610/5/5 606/5/5 609/5/5
f 613/5/5 612/5/5 611/5/5
f 614/5/5 612/5/5 613/5/5
f 621/1/5 616/1/5 615/1/5
f 622/6/5 617/6/5 616/6/5
f 622/1/5 616/1/5 621/1/5
f 623/6/5 617/6/5 622/6/5
f 624/6/5 619/6/5 618/6/5
f 625/1/5 620/1/5 619/1/5
f 625/6/5 619/6/5 624/6/5
f 626/1/5 620/1/5 625/1/5
f 629/1/5 628/1/5 627/1/5
f 630/1/5 628/1/5 629/1/5
f 651/1/5 650/1/5 649/1/5
f 652/1/5 632/1/5 631/1/5
f 653/1/5 632/1/5 652/1/5
f 656/1/5 651/1/5 649/1/5
f 657/1/5 655/1/5 654/1/5
f 658/1/5 655/1/5 657/1/5
f 659/1/5 634/1/5 633/1/5
f 660/1/5 634/1/5 659/1/5
f 661/1/5 636/1/5 635/1/5
f 662/1/5 636/1/5 661/1/5
f 663/1/5 638/1/5 637/1/5
f 664/1/5 638/1/5 663/1/5
f 665/1/5 640/1/5 639/1/5
f 666/1/5 640/1/5 665/1/5
f 667/1/5 642/1/5 641/1/5
f 668/1/5 642/1/5 667/1/5
f 669/1/5 644/1/5 643/1/5
f 670/1/5 644/1/5 669/1/5
f 671/1/5 646/1/5 645/1/5
f 672/1/5 646/1/5 671/1/5
f 673/1/5 648/1/5 647/1/5
f 674/1/5 648/1/5 673/1/5
f 675/1/5 656/1/5 649/1/5
f 676/1/5 656/1/5 675/1/5
f 677/1/5 656/1/5 676/1/5
f 683/2/5 681/2/5 680/2/5
f 683/2/5 682/2/5 681/2/5
f 684/2/5 683/2/5 680/2/5
f 685/2/5 679/2/5 678/2/5
f 686/2/5 679/2/5 685/2/5
f 687/2/5 684/2/5 680/2/5
f 688/2/5 684/2/5 687/2/5
f 689/2/5 684/2/5 688/2/5
f 690/5/6 691/5/6 692/5/6
f 692/5/6 691/5/6 693/5/6
f 694/5/6 695/5/6 697/5/6
f 695/6/6 696/6/6 698/6/6
f 697/5/6 695/5/6 698/5/6
f 698/6/6 696/6/6 699/6/6
f 700/5/6 701/5/6 704/5/6
f 704/5/6 701/5/6 705/5/6
f 702/5/6 703/5/6 706/5/6
f 706/5/6 703/5/6 707/5/6
f 707/5/6 703/5/6 708/5/6
f 708/5/6 703/5/6 709/5/6
f 700/5/6 704/5/6 710/5/6
f 709/5/6 703/5/6 713/5/6
f 710/5/6 711/5/6 714/5/6
f 700/5/6 710/5/6 714/5/6
f 714/5/6 711/5/6 715/5/6
f 712/5/6 713/5/6 716/5/6
f 713/5/6 703/5/6 717/5/6
f 716/5/6 713/5/6 717/5/6
f 718/1/6 719/1/6 723/1/6
f 719/6/6 720/6/6 723/6/6
f 723/6/6 720/6/6 724/6/6
f 721/1/6 722/1/6 740/1/6
f 740/1/6 722/1/6 741/1/6
f 718/1/6 723/1/6 742/1/6
f 723/1/6 724/1/6 742/1/6
f 724/1/6 725/1/6 742/1/6
f 742/1/6 725/1/6 743/1/6
f 744/1/6 745/1/6 746/1/6
f 746/1/6 745/1/6 747/1/6
f 726/1/6 727/1/6 748/1/6
f 748/1/6 727/1/6 749/1/6
f 728/1/6 729/1/6 750/1/6
f 750/1/6 729/1/6 751/1/6
f 730/1/6 731/1/6 752/1/6
f 752/1/6 731/1/6 753/1/6
f 732/1/6 733/1/6 754/1/6
f 754/1/6 733/1/6 755/1/6
f 734/1/6 735/1/6 756/1/6
f 756/1/6 735/1/6 757/1/6
f 736/1/6 737/1/6 758/1/6
f 758/1/6 737/1/6 759/1/6
f 738/1/6 739/1/6 760/1/6
f 760/1/6 739/1/6 761/1/6
f 762/1/6 763/1/6 764/1/6
f 764/1/6 763/1/6 765/1/6
f 766/1/6 767/1/6 770/1/6
f 768/1/6 769/1/6 776/1/6
f 766/1/6 770/1/6 779/1/6
f 778/1/6 779/1/6 780/1/6
f 780/1/6 779/1/6 781/1/6
f 780/3/6 781/3/6 782/3/6
f 781/1/6 779/1/6 783/1/6
f 782/3/6 781/3/6 783/3/6
f 779/1/6 770/1/6 784/1/6
f 783/1/6 779/1/6 784/1/6
f 782/1/6 783/1/6 784/1/6
f 771/1/6 772/1/6 785/1/6
f 785/1/6 772/1/6 786/1/6
f 774/1/6 775/1/6 787/1/6
f 773/1/6 774/1/6 787/1/6
f 787/1/6 775/1/6 788/1/6
f 788/1/6 775/1/6 789/1/6
f 776/1/6 777/1/6 790/1/6
f 768/1/6 776/1/6 790/1/6
f 790/1/6 777/1/6 791/1/6
f 791/1/6 777/1/6 792/1/6
f 792/1/6 777/1/6 793/1/6
f 782/1/6 784/1/6 794/1/6
f 794/1/6 784/1/6 795/1/6
f 791/1/6 792/1/6 796/1/6
f 796/1/6 792/1/6 797/1/6
f 798/2/6 799/2/6 800/2/6
f 800/2/6 799/2/6 801/2/6
