# MagicaVoxel @ Ephtracy

# group
g voiture2white

# material
mtllib voiture2white.mtl
usemtl palette

# normals
vn -1 0 0
vn 1 0 0
vn 0 0 1
vn 0 0 -1
vn 0 -1 0
vn 0 1 0

# texcoords
vt 0.708984 0.5
vt 0.841797 0.5
vt 0.958984 0.5
vt 0.966797 0.5
vt 0.970703 0.5
vt 0.982422 0.5
vt 0.986328 0.5
vt 0.990234 0.5

# verts
v 0 2 -26
v 0 2 -41
v 0 4 -26
v 0 4 -41
v 1 1 -27
v 1 1 -40
v 1 2 -27
v 1 2 -40
v 1 4 -27
v 1 4 -40
v 1 5 -29
v 1 5 -32
v 1 5 -35
v 1 5 -38
v 1 7 -27
v 1 7 -29
v 1 7 -32
v 1 7 -35
v 1 7 -38
v 1 7 -40
v 5 0 -27
v 5 0 -28
v 5 0 -39
v 5 0 -40
v 5 1 -27
v 5 1 -28
v 5 1 -39
v 5 1 -40
v 10 1 -26
v 10 1 -27
v 10 1 -40
v 10 1 -41
v 10 2 -26
v 10 2 -27
v 10 2 -40
v 10 2 -41
v 11 5 -28
v 11 5 -39
v 11 6 -28
v 11 6 -39
v 11 7 -27
v 11 7 -28
v 11 7 -39
v 11 7 -40
v 11 10 -28
v 11 10 -39
v 11 11 -27
v 11 11 -40
v 12 11 -28
v 12 11 -29
v 12 11 -38
v 12 11 -39
v 12 12 -29
v 12 12 -38
v 12 13 -28
v 12 13 -39
v 13 5 -28
v 13 5 -39
v 13 6 -28
v 13 6 -39
v 15 5 -28
v 15 5 -39
v 15 6 -28
v 15 6 -39
v 17 5 -28
v 17 5 -39
v 17 6 -28
v 17 6 -39
v 19 5 -28
v 19 5 -39
v 19 6 -28
v 19 6 -39
v 19 7 -28
v 19 7 -39
v 19 10 -28
v 19 10 -39
v 21 5 -28
v 21 5 -39
v 21 6 -28
v 21 6 -39
v 23 0 -27
v 23 0 -28
v 23 0 -39
v 23 0 -40
v 23 1 -27
v 23 1 -28
v 23 1 -39
v 23 1 -40
v 26 11 -28
v 26 11 -29
v 26 11 -38
v 26 11 -39
v 26 12 -28
v 26 12 -29
v 26 12 -38
v 26 12 -39
v 26 13 -29
v 26 13 -38
v 27 7 -28
v 27 7 -39
v 27 8 -29
v 27 8 -38
v 27 10 -28
v 27 10 -29
v 27 10 -38
v 27 10 -39
v 28 2 -26
v 28 2 -27
v 28 2 -40
v 28 2 -41
v 28 4 -26
v 28 4 -27
v 28 4 -40
v 28 4 -41
v 2 2 -26
v 2 2 -27
v 2 2 -40
v 2 2 -41
v 2 4 -26
v 2 4 -27
v 2 4 -40
v 2 4 -41
v 8 0 -27
v 8 0 -28
v 8 0 -39
v 8 0 -40
v 8 1 -27
v 8 1 -28
v 8 1 -39
v 8 1 -40
v 10 5 -28
v 10 5 -39
v 10 6 -28
v 10 6 -39
v 12 5 -28
v 12 5 -39
v 12 6 -28
v 12 6 -39
v 12 7 -28
v 12 7 -39
v 12 10 -28
v 12 10 -39
v 13 11 -28
v 13 11 -29
v 13 11 -38
v 13 11 -39
v 13 12 -28
v 13 12 -29
v 13 12 -38
v 13 12 -39
v 13 13 -29
v 13 13 -38
v 14 5 -28
v 14 5 -39
v 14 6 -28
v 14 6 -39
v 16 5 -28
v 16 5 -39
v 16 6 -28
v 16 6 -39
v 18 5 -28
v 18 5 -39
v 18 6 -28
v 18 6 -39
v 20 1 -26
v 20 1 -27
v 20 1 -40
v 20 1 -41
v 20 2 -26
v 20 2 -27
v 20 2 -40
v 20 2 -41
v 20 5 -28
v 20 5 -39
v 20 6 -28
v 20 6 -39
v 20 7 -28
v 20 7 -39
v 20 10 -28
v 20 10 -39
v 26 0 -27
v 26 0 -28
v 26 0 -39
v 26 0 -40
v 26 1 -27
v 26 1 -28
v 26 1 -39
v 26 1 -40
v 27 11 -28
v 27 11 -29
v 27 11 -38
v 27 11 -39
v 27 12 -29
v 27 12 -38
v 27 13 -28
v 27 13 -39
v 28 7 -27
v 28 7 -40
v 28 8 -29
v 28 8 -38
v 28 10 -29
v 28 10 -38
v 28 11 -27
v 28 11 -40
v 30 1 -27
v 30 1 -40
v 30 2 -27
v 30 2 -40
v 30 4 -27
v 30 4 -31
v 30 4 -36
v 30 4 -40
v 30 5 -27
v 30 5 -28
v 30 5 -39
v 30 5 -40
v 30 6 -31
v 30 6 -36
v 30 7 -27
v 30 7 -28
v 30 7 -39
v 30 7 -40
v 31 2 -26
v 31 2 -41
v 31 4 -26
v 31 4 -41
v 0 2 -26
v 0 4 -26
v 2 2 -26
v 2 4 -26
v 10 1 -26
v 10 2 -26
v 20 1 -26
v 20 2 -26
v 28 2 -26
v 28 4 -26
v 31 2 -26
v 31 4 -26
v 1 1 -27
v 1 2 -27
v 1 4 -27
v 1 7 -27
v 2 2 -27
v 2 4 -27
v 4 1 -27
v 4 2 -27
v 4 4 -27
v 5 0 -27
v 5 1 -27
v 5 4 -27
v 5 5 -27
v 8 0 -27
v 8 1 -27
v 8 4 -27
v 8 5 -27
v 9 1 -27
v 9 2 -27
v 9 4 -27
v 10 1 -27
v 10 2 -27
v 11 7 -27
v 11 11 -27
v 12 7 -27
v 12 10 -27
v 16 5 -27
v 16 6 -27
v 18 5 -27
v 18 6 -27
v 19 7 -27
v 19 10 -27
v 20 1 -27
v 20 2 -27
v 20 7 -27
v 20 10 -27
v 22 1 -27
v 22 2 -27
v 22 4 -27
v 23 0 -27
v 23 1 -27
v 23 4 -27
v 23 5 -27
v 26 0 -27
v 26 1 -27
v 26 4 -27
v 26 5 -27
v 26 7 -27
v 26 10 -27
v 27 1 -27
v 27 2 -27
v 27 4 -27
v 28 2 -27
v 28 4 -27
v 28 7 -27
v 28 11 -27
v 29 5 -27
v 29 7 -27
v 30 1 -27
v 30 2 -27
v 30 4 -27
v 30 5 -27
v 30 7 -27
v 12 11 -28
v 12 13 -28
v 13 11 -28
v 13 12 -28
v 26 11 -28
v 26 12 -28
v 27 11 -28
v 27 13 -28
v 12 11 -38
v 12 12 -38
v 13 11 -38
v 13 12 -38
v 13 13 -38
v 26 11 -38
v 26 12 -38
v 26 13 -38
v 27 11 -38
v 27 12 -38
v 5 0 -39
v 5 1 -39
v 8 0 -39
v 8 1 -39
v 10 5 -39
v 10 6 -39
v 11 5 -39
v 11 6 -39
v 12 5 -39
v 12 6 -39
v 12 7 -39
v 12 10 -39
v 13 5 -39
v 13 6 -39
v 14 5 -39
v 14 6 -39
v 15 5 -39
v 15 6 -39
v 16 5 -39
v 16 6 -39
v 17 5 -39
v 17 6 -39
v 18 5 -39
v 18 6 -39
v 19 5 -39
v 19 6 -39
v 19 7 -39
v 19 10 -39
v 20 5 -39
v 20 6 -39
v 20 7 -39
v 20 10 -39
v 21 5 -39
v 21 6 -39
v 23 0 -39
v 23 1 -39
v 26 0 -39
v 26 1 -39
v 26 7 -39
v 26 10 -39
v 27 7 -39
v 27 10 -39
v 5 0 -28
v 5 1 -28
v 8 0 -28
v 8 1 -28
v 10 5 -28
v 10 6 -28
v 11 5 -28
v 11 6 -28
v 12 5 -28
v 12 6 -28
v 12 7 -28
v 12 10 -28
v 13 5 -28
v 13 6 -28
v 14 5 -28
v 14 6 -28
v 15 5 -28
v 15 6 -28
v 16 5 -28
v 16 6 -28
v 17 5 -28
v 17 6 -28
v 18 5 -28
v 18 6 -28
v 19 5 -28
v 19 6 -28
v 19 7 -28
v 19 10 -28
v 20 5 -28
v 20 6 -28
v 20 7 -28
v 20 10 -28
v 21 5 -28
v 21 6 -28
v 23 0 -28
v 23 1 -28
v 26 0 -28
v 26 1 -28
v 26 7 -28
v 26 10 -28
v 27 7 -28
v 27 10 -28
v 12 11 -29
v 12 12 -29
v 13 11 -29
v 13 12 -29
v 13 13 -29
v 26 11 -29
v 26 12 -29
v 26 13 -29
v 27 11 -29
v 27 12 -29
v 12 11 -39
v 12 13 -39
v 13 11 -39
v 13 12 -39
v 26 11 -39
v 26 12 -39
v 27 11 -39
v 27 13 -39
v 1 1 -40
v 1 2 -40
v 1 4 -40
v 1 7 -40
v 2 2 -40
v 2 4 -40
v 4 1 -40
v 4 2 -40
v 4 4 -40
v 5 0 -40
v 5 1 -40
v 5 4 -40
v 5 5 -40
v 8 0 -40
v 8 1 -40
v 8 4 -40
v 8 5 -40
v 9 1 -40
v 9 2 -40
v 9 4 -40
v 10 1 -40
v 10 2 -40
v 11 7 -40
v 11 11 -40
v 12 7 -40
v 12 10 -40
v 16 5 -40
v 16 6 -40
v 18 5 -40
v 18 6 -40
v 19 7 -40
v 19 10 -40
v 20 1 -40
v 20 2 -40
v 20 7 -40
v 20 10 -40
v 22 1 -40
v 22 2 -40
v 22 4 -40
v 23 0 -40
v 23 1 -40
v 23 4 -40
v 23 5 -40
v 26 0 -40
v 26 1 -40
v 26 4 -40
v 26 5 -40
v 26 7 -40
v 26 10 -40
v 27 1 -40
v 27 2 -40
v 27 4 -40
v 28 2 -40
v 28 4 -40
v 28 7 -40
v 28 11 -40
v 29 5 -40
v 29 7 -40
v 30 1 -40
v 30 2 -40
v 30 4 -40
v 30 5 -40
v 30 7 -40
v 0 2 -41
v 0 4 -41
v 2 2 -41
v 2 4 -41
v 10 1 -41
v 10 2 -41
v 20 1 -41
v 20 2 -41
v 28 2 -41
v 28 4 -41
v 31 2 -41
v 31 4 -41
v 5 0 -27
v 8 0 -27
v 23 0 -27
v 26 0 -27
v 5 0 -28
v 8 0 -28
v 23 0 -28
v 26 0 -28
v 5 0 -39
v 8 0 -39
v 23 0 -39
v 26 0 -39
v 5 0 -40
v 8 0 -40
v 23 0 -40
v 26 0 -40
v 10 1 -26
v 20 1 -26
v 1 1 -27
v 4 1 -27
v 5 1 -27
v 8 1 -27
v 9 1 -27
v 10 1 -27
v 20 1 -27
v 22 1 -27
v 23 1 -27
v 26 1 -27
v 27 1 -27
v 30 1 -27
v 2 1 -28
v 4 1 -28
v 5 1 -28
v 8 1 -28
v 9 1 -28
v 22 1 -28
v 23 1 -28
v 26 1 -28
v 27 1 -28
v 29 1 -28
v 2 1 -39
v 4 1 -39
v 5 1 -39
v 8 1 -39
v 9 1 -39
v 22 1 -39
v 23 1 -39
v 26 1 -39
v 27 1 -39
v 29 1 -39
v 1 1 -40
v 4 1 -40
v 5 1 -40
v 8 1 -40
v 9 1 -40
v 10 1 -40
v 20 1 -40
v 22 1 -40
v 23 1 -40
v 26 1 -40
v 27 1 -40
v 30 1 -40
v 10 1 -41
v 20 1 -41
v 0 2 -26
v 2 2 -26
v 28 2 -26
v 31 2 -26
v 1 2 -27
v 2 2 -27
v 28 2 -27
v 30 2 -27
v 1 2 -40
v 2 2 -40
v 28 2 -40
v 30 2 -40
v 0 2 -41
v 2 2 -41
v 28 2 -41
v 31 2 -41
v 10 6 -28
v 11 6 -28
v 12 6 -28
v 13 6 -28
v 14 6 -28
v 15 6 -28
v 16 6 -28
v 17 6 -28
v 18 6 -28
v 19 6 -28
v 20 6 -28
v 21 6 -28
v 10 6 -39
v 11 6 -39
v 12 6 -39
v 13 6 -39
v 14 6 -39
v 15 6 -39
v 16 6 -39
v 17 6 -39
v 18 6 -39
v 19 6 -39
v 20 6 -39
v 21 6 -39
v 12 10 -28
v 19 10 -28
v 20 10 -28
v 26 10 -28
v 27 10 -28
v 27 10 -29
v 27 10 -38
v 12 10 -39
v 19 10 -39
v 20 10 -39
v 26 10 -39
v 27 10 -39
v 13 12 -28
v 26 12 -28
v 12 12 -29
v 13 12 -29
v 26 12 -29
v 27 12 -29
v 12 12 -38
v 13 12 -38
v 26 12 -38
v 27 12 -38
v 13 12 -39
v 26 12 -39
v 10 2 -26
v 20 2 -26
v 10 2 -27
v 20 2 -27
v 10 2 -40
v 20 2 -40
v 10 2 -41
v 20 2 -41
v 0 4 -26
v 2 4 -26
v 28 4 -26
v 31 4 -26
v 1 4 -27
v 2 4 -27
v 28 4 -27
v 30 4 -27
v 30 4 -31
v 30 4 -36
v 1 4 -40
v 2 4 -40
v 28 4 -40
v 30 4 -40
v 0 4 -41
v 2 4 -41
v 28 4 -41
v 31 4 -41
v 10 5 -28
v 11 5 -28
v 12 5 -28
v 13 5 -28
v 14 5 -28
v 15 5 -28
v 16 5 -28
v 17 5 -28
v 18 5 -28
v 19 5 -28
v 20 5 -28
v 21 5 -28
v 10 5 -39
v 11 5 -39
v 12 5 -39
v 13 5 -39
v 14 5 -39
v 15 5 -39
v 16 5 -39
v 17 5 -39
v 18 5 -39
v 19 5 -39
v 20 5 -39
v 21 5 -39
v 1 7 -27
v 11 7 -27
v 28 7 -27
v 29 7 -27
v 30 7 -27
v 11 7 -28
v 12 7 -28
v 19 7 -28
v 20 7 -28
v 26 7 -28
v 27 7 -28
v 29 7 -28
v 30 7 -28
v 1 7 -29
v 2 7 -29
v 1 7 -32
v 2 7 -32
v 1 7 -35
v 2 7 -35
v 1 7 -38
v 2 7 -38
v 11 7 -39
v 12 7 -39
v 19 7 -39
v 20 7 -39
v 26 7 -39
v 27 7 -39
v 29 7 -39
v 30 7 -39
v 1 7 -40
v 11 7 -40
v 28 7 -40
v 29 7 -40
v 30 7 -40
v 11 11 -27
v 28 11 -27
v 12 11 -28
v 13 11 -28
v 26 11 -28
v 27 11 -28
v 12 11 -29
v 13 11 -29
v 26 11 -29
v 27 11 -29
v 12 11 -38
v 13 11 -38
v 26 11 -38
v 27 11 -38
v 12 11 -39
v 13 11 -39
v 26 11 -39
v 27 11 -39
v 11 11 -40
v 28 11 -40
v 12 13 -28
v 27 13 -28
v 13 13 -29
v 26 13 -29
v 13 13 -38
v 26 13 -38
v 12 13 -39
v 27 13 -39

# faces
f 3/6/1 2/6/1 1/6/1
f 4/6/1 2/6/1 3/6/1
f 7/4/1 6/4/1 5/4/1
f 8/4/1 6/4/1 7/4/1
f 11/1/1 10/1/1 9/1/1
f 12/1/1 10/1/1 11/1/1
f 13/1/1 10/1/1 12/1/1
f 14/1/1 10/1/1 13/1/1
f 15/1/1 11/1/1 9/1/1
f 16/4/1 12/4/1 11/4/1
f 16/1/1 11/1/1 15/1/1
f 17/1/1 13/1/1 12/1/1
f 17/4/1 12/4/1 16/4/1
f 18/4/1 14/4/1 13/4/1
f 18/1/1 13/1/1 17/1/1
f 19/1/1 10/1/1 14/1/1
f 19/4/1 14/4/1 18/4/1
f 20/1/1 10/1/1 19/1/1
f 25/7/1 22/7/1 21/7/1
f 26/7/1 22/7/1 25/7/1
f 27/7/1 24/7/1 23/7/1
f 28/7/1 24/7/1 27/7/1
f 33/4/1 30/4/1 29/4/1
f 34/4/1 30/4/1 33/4/1
f 35/4/1 32/4/1 31/4/1
f 36/4/1 32/4/1 35/4/1
f 39/1/1 38/1/1 37/1/1
f 40/1/1 38/1/1 39/1/1
f 45/8/1 43/8/1 42/8/1
f 45/3/1 42/3/1 41/3/1
f 46/3/1 44/3/1 43/3/1
f 46/8/1 43/8/1 45/8/1
f 47/3/1 45/3/1 41/3/1
f 47/3/1 46/3/1 45/3/1
f 48/3/1 44/3/1 46/3/1
f 48/3/1 46/3/1 47/3/1
f 53/8/1 50/8/1 49/8/1
f 54/8/1 52/8/1 51/8/1
f 55/8/1 53/8/1 49/8/1
f 55/8/1 54/8/1 53/8/1
f 56/8/1 52/8/1 54/8/1
f 56/8/1 54/8/1 55/8/1
f 59/1/1 58/1/1 57/1/1
f 60/1/1 58/1/1 59/1/1
f 63/1/1 62/1/1 61/1/1
f 64/1/1 62/1/1 63/1/1
f 67/1/1 66/1/1 65/1/1
f 68/1/1 66/1/1 67/1/1
f 71/1/1 70/1/1 69/1/1
f 72/1/1 70/1/1 71/1/1
f 75/1/1 74/1/1 73/1/1
f 76/1/1 74/1/1 75/1/1
f 79/1/1 78/1/1 77/1/1
f 80/1/1 78/1/1 79/1/1
f 85/7/1 82/7/1 81/7/1
f 86/7/1 82/7/1 85/7/1
f 87/7/1 84/7/1 83/7/1
f 88/7/1 84/7/1 87/7/1
f 93/8/1 90/8/1 89/8/1
f 94/8/1 90/8/1 93/8/1
f 95/8/1 92/8/1 91/8/1
f 96/8/1 92/8/1 95/8/1
f 97/8/1 95/8/1 94/8/1
f 98/8/1 95/8/1 97/8/1
f 101/3/1 100/3/1 99/3/1
f 102/3/1 100/3/1 101/3/1
f 103/3/1 101/3/1 99/3/1
f 104/8/1 102/8/1 101/8/1
f 104/3/1 101/3/1 103/3/1
f 105/3/1 100/3/1 102/3/1
f 105/8/1 102/8/1 104/8/1
f 106/3/1 100/3/1 105/3/1
f 111/6/1 108/6/1 107/6/1
f 112/6/1 108/6/1 111/6/1
f 113/6/1 110/6/1 109/6/1
f 114/6/1 110/6/1 113/6/1
f 115/6/2 116/6/2 119/6/2
f 119/6/2 116/6/2 120/6/2
f 117/6/2 118/6/2 121/6/2
f 121/6/2 118/6/2 122/6/2
f 123/7/2 124/7/2 127/7/2
f 127/7/2 124/7/2 128/7/2
f 125/7/2 126/7/2 129/7/2
f 129/7/2 126/7/2 130/7/2
f 131/1/2 132/1/2 133/1/2
f 133/1/2 132/1/2 134/1/2
f 135/1/2 136/1/2 137/1/2
f 137/1/2 136/1/2 138/1/2
f 139/8/2 140/8/2 141/8/2
f 141/8/2 140/8/2 142/8/2
f 143/8/2 144/8/2 147/8/2
f 147/8/2 144/8/2 148/8/2
f 145/8/2 146/8/2 149/8/2
f 149/8/2 146/8/2 150/8/2
f 148/8/2 149/8/2 151/8/2
f 151/8/2 149/8/2 152/8/2
f 153/1/2 154/1/2 155/1/2
f 155/1/2 154/1/2 156/1/2
f 157/1/2 158/1/2 159/1/2
f 159/1/2 158/1/2 160/1/2
f 161/1/2 162/1/2 163/1/2
f 163/1/2 162/1/2 164/1/2
f 165/4/2 166/4/2 169/4/2
f 169/4/2 166/4/2 170/4/2
f 167/4/2 168/4/2 171/4/2
f 171/4/2 168/4/2 172/4/2
f 173/1/2 174/1/2 175/1/2
f 175/1/2 174/1/2 176/1/2
f 177/1/2 178/1/2 179/1/2
f 179/1/2 178/1/2 180/1/2
f 181/7/2 182/7/2 185/7/2
f 185/7/2 182/7/2 186/7/2
f 183/7/2 184/7/2 187/7/2
f 187/7/2 184/7/2 188/7/2
f 189/8/2 190/8/2 193/8/2
f 191/8/2 192/8/2 194/8/2
f 189/8/2 193/8/2 195/8/2
f 193/8/2 194/8/2 195/8/2
f 194/8/2 192/8/2 196/8/2
f 195/8/2 194/8/2 196/8/2
f 197/3/2 198/3/2 199/3/2
f 199/3/2 198/3/2 200/3/2
f 197/3/2 199/3/2 201/3/2
f 199/8/2 200/8/2 201/8/2
f 200/3/2 198/3/2 202/3/2
f 201/8/2 200/8/2 202/8/2
f 197/3/2 201/3/2 203/3/2
f 201/3/2 202/3/2 203/3/2
f 202/3/2 198/3/2 204/3/2
f 203/3/2 202/3/2 204/3/2
f 205/4/2 206/4/2 207/4/2
f 207/4/2 206/4/2 208/4/2
f 209/1/2 210/1/2 213/1/2
f 213/1/2 210/1/2 214/1/2
f 211/1/2 212/1/2 215/1/2
f 215/1/2 212/1/2 216/1/2
f 214/1/2 210/1/2 217/1/2
f 210/5/2 211/5/2 217/5/2
f 211/1/2 215/1/2 218/1/2
f 217/5/2 211/5/2 218/5/2
f 213/2/2 214/2/2 219/2/2
f 214/1/2 217/1/2 220/1/2
f 219/2/2 214/2/2 220/2/2
f 217/1/2 218/1/2 220/1/2
f 215/2/2 216/2/2 221/2/2
f 220/1/2 218/1/2 221/1/2
f 218/1/2 215/1/2 221/1/2
f 221/2/2 216/2/2 222/2/2
f 223/6/2 224/6/2 225/6/2
f 225/6/2 224/6/2 226/6/2
f 229/6/3 228/6/3 227/6/3
f 230/6/3 228/6/3 229/6/3
f 233/4/3 232/4/3 231/4/3
f 234/4/3 232/4/3 233/4/3
f 237/6/3 236/6/3 235/6/3
f 238/6/3 236/6/3 237/6/3
f 243/4/3 240/4/3 239/4/3
f 244/1/3 242/1/3 241/1/3
f 245/4/3 243/4/3 239/4/3
f 246/1/3 244/1/3 243/1/3
f 246/4/3 243/4/3 245/4/3
f 247/1/3 242/1/3 244/1/3
f 247/1/3 244/1/3 246/1/3
f 249/7/3 246/7/3 245/7/3
f 249/7/3 247/7/3 246/7/3
f 250/1/3 242/1/3 247/1/3
f 250/7/3 247/7/3 249/7/3
f 251/1/3 242/1/3 250/1/3
f 252/7/3 249/7/3 248/7/3
f 253/6/3 250/6/3 249/6/3
f 253/7/3 249/7/3 252/7/3
f 254/7/3 251/7/3 250/7/3
f 254/6/3 250/6/3 253/6/3
f 255/1/3 242/1/3 251/1/3
f 255/7/3 251/7/3 254/7/3
f 256/7/3 254/7/3 253/7/3
f 257/7/3 254/7/3 256/7/3
f 258/1/3 255/1/3 254/1/3
f 258/7/3 254/7/3 257/7/3
f 259/4/3 257/4/3 256/4/3
f 260/1/3 258/1/3 257/1/3
f 260/4/3 257/4/3 259/4/3
f 261/1/3 242/1/3 255/1/3
f 261/1/3 258/1/3 260/1/3
f 261/1/3 255/1/3 258/1/3
f 263/1/3 261/1/3 260/1/3
f 263/3/3 262/3/3 261/3/3
f 264/3/3 262/3/3 263/3/3
f 265/1/3 263/1/3 260/1/3
f 266/1/3 263/1/3 265/1/3
f 267/1/3 265/1/3 260/1/3
f 267/6/3 266/6/3 265/6/3
f 268/1/3 263/1/3 266/1/3
f 268/6/3 266/6/3 267/6/3
f 269/8/3 264/8/3 263/8/3
f 269/1/3 263/1/3 268/1/3
f 269/1/3 268/1/3 267/1/3
f 270/3/3 262/3/3 264/3/3
f 270/8/3 264/8/3 269/8/3
f 272/1/3 269/1/3 267/1/3
f 272/1/3 267/1/3 260/1/3
f 273/3/3 270/3/3 269/3/3
f 273/1/3 269/1/3 272/1/3
f 274/3/3 262/3/3 270/3/3
f 274/3/3 270/3/3 273/3/3
f 275/4/3 272/4/3 271/4/3
f 276/1/3 273/1/3 272/1/3
f 276/4/3 272/4/3 275/4/3
f 277/1/3 273/1/3 276/1/3
f 279/7/3 276/7/3 275/7/3
f 279/7/3 277/7/3 276/7/3
f 280/1/3 273/1/3 277/1/3
f 280/7/3 277/7/3 279/7/3
f 281/1/3 273/1/3 280/1/3
f 282/7/3 279/7/3 278/7/3
f 283/6/3 280/6/3 279/6/3
f 283/7/3 279/7/3 282/7/3
f 284/7/3 281/7/3 280/7/3
f 284/6/3 280/6/3 283/6/3
f 285/1/3 273/1/3 281/1/3
f 285/7/3 281/7/3 284/7/3
f 286/8/3 274/8/3 273/8/3
f 286/1/3 273/1/3 285/1/3
f 287/3/3 262/3/3 274/3/3
f 287/8/3 274/8/3 286/8/3
f 288/7/3 284/7/3 283/7/3
f 289/7/3 284/7/3 288/7/3
f 290/1/3 286/1/3 285/1/3
f 290/7/3 284/7/3 289/7/3
f 290/1/3 285/1/3 284/1/3
f 291/4/3 289/4/3 288/4/3
f 291/1/3 290/1/3 289/1/3
f 292/1/3 286/1/3 290/1/3
f 292/1/3 290/1/3 291/1/3
f 293/3/3 287/3/3 286/3/3
f 293/1/3 286/1/3 292/1/3
f 294/3/3 262/3/3 287/3/3
f 294/3/3 287/3/3 293/3/3
f 295/1/3 293/1/3 292/1/3
f 296/1/3 293/1/3 295/1/3
f 297/4/3 291/4/3 288/4/3
f 298/4/3 291/4/3 297/4/3
f 299/1/3 295/1/3 292/1/3
f 300/2/3 296/2/3 295/2/3
f 300/1/3 295/1/3 299/1/3
f 301/2/3 296/2/3 300/2/3
f 304/8/3 303/8/3 302/8/3
f 305/8/3 303/8/3 304/8/3
f 307/8/3 303/8/3 305/8/3
f 308/8/3 307/8/3 306/8/3
f 309/8/3 303/8/3 307/8/3
f 309/8/3 307/8/3 308/8/3
f 312/8/3 311/8/3 310/8/3
f 313/8/3 311/8/3 312/8/3
f 316/8/3 314/8/3 313/8/3
f 317/8/3 314/8/3 316/8/3
f 318/8/3 316/8/3 315/8/3
f 319/8/3 316/8/3 318/8/3
f 322/7/3 321/7/3 320/7/3
f 323/7/3 321/7/3 322/7/3
f 326/1/3 325/1/3 324/1/3
f 327/1/3 325/1/3 326/1/3
f 332/1/3 329/1/3 328/1/3
f 333/1/3 329/1/3 332/1/3
f 336/1/3 335/1/3 334/1/3
f 337/1/3 335/1/3 336/1/3
f 340/6/3 339/6/3 338/6/3
f 341/6/3 339/6/3 340/6/3
f 344/1/3 343/1/3 342/1/3
f 345/1/3 343/1/3 344/1/3
f 346/8/3 331/8/3 330/8/3
f 347/8/3 331/8/3 346/8/3
f 352/1/3 349/1/3 348/1/3
f 353/1/3 349/1/3 352/1/3
f 356/7/3 355/7/3 354/7/3
f 357/7/3 355/7/3 356/7/3
f 358/8/3 351/8/3 350/8/3
f 359/8/3 351/8/3 358/8/3
f 360/3/3 359/3/3 358/3/3
f 361/3/3 359/3/3 360/3/3
f 362/7/4 363/7/4 364/7/4
f 364/7/4 363/7/4 365/7/4
f 366/1/4 367/1/4 368/1/4
f 368/1/4 367/1/4 369/1/4
f 370/1/4 371/1/4 374/1/4
f 374/1/4 371/1/4 375/1/4
f 376/1/4 377/1/4 378/1/4
f 378/1/4 377/1/4 379/1/4
f 380/6/4 381/6/4 382/6/4
f 382/6/4 381/6/4 383/6/4
f 384/1/4 385/1/4 386/1/4
f 386/1/4 385/1/4 387/1/4
f 372/8/4 373/8/4 388/8/4
f 388/8/4 373/8/4 389/8/4
f 390/1/4 391/1/4 394/1/4
f 394/1/4 391/1/4 395/1/4
f 396/7/4 397/7/4 398/7/4
f 398/7/4 397/7/4 399/7/4
f 392/8/4 393/8/4 400/8/4
f 400/8/4 393/8/4 401/8/4
f 400/3/4 401/3/4 402/3/4
f 402/3/4 401/3/4 403/3/4
f 404/8/4 405/8/4 406/8/4
f 406/8/4 405/8/4 407/8/4
f 407/8/4 408/8/4 410/8/4
f 410/8/4 408/8/4 411/8/4
f 409/8/4 410/8/4 412/8/4
f 412/8/4 410/8/4 413/8/4
f 414/8/4 415/8/4 416/8/4
f 416/8/4 415/8/4 417/8/4
f 417/8/4 415/8/4 419/8/4
f 418/8/4 419/8/4 420/8/4
f 419/8/4 415/8/4 421/8/4
f 420/8/4 419/8/4 421/8/4
f 422/4/4 423/4/4 426/4/4
f 424/1/4 425/1/4 427/1/4
f 422/4/4 426/4/4 428/4/4
f 426/1/4 427/1/4 429/1/4
f 428/4/4 426/4/4 429/4/4
f 427/1/4 425/1/4 430/1/4
f 429/1/4 427/1/4 430/1/4
f 428/7/4 429/7/4 432/7/4
f 429/7/4 430/7/4 432/7/4
f 430/1/4 425/1/4 433/1/4
f 432/7/4 430/7/4 433/7/4
f 433/1/4 425/1/4 434/1/4
f 431/7/4 432/7/4 435/7/4
f 432/6/4 433/6/4 436/6/4
f 435/7/4 432/7/4 436/7/4
f 433/7/4 434/7/4 437/7/4
f 436/6/4 433/6/4 437/6/4
f 434/1/4 425/1/4 438/1/4
f 437/7/4 434/7/4 438/7/4
f 436/7/4 437/7/4 439/7/4
f 439/7/4 437/7/4 440/7/4
f 437/1/4 438/1/4 441/1/4
f 440/7/4 437/7/4 441/7/4
f 439/4/4 440/4/4 442/4/4
f 440/1/4 441/1/4 443/1/4
f 442/4/4 440/4/4 443/4/4
f 438/1/4 425/1/4 444/1/4
f 443/1/4 441/1/4 444/1/4
f 441/1/4 438/1/4 444/1/4
f 443/1/4 444/1/4 446/1/4
f 444/3/4 445/3/4 446/3/4
f 446/3/4 445/3/4 447/3/4
f 443/1/4 446/1/4 448/1/4
f 448/1/4 446/1/4 449/1/4
f 443/1/4 448/1/4 450/1/4
f 448/6/4 449/6/4 450/6/4
f 449/1/4 446/1/4 451/1/4
f 450/6/4 449/6/4 451/6/4
f 446/8/4 447/8/4 452/8/4
f 451/1/4 446/1/4 452/1/4
f 450/1/4 451/1/4 452/1/4
f 447/3/4 445/3/4 453/3/4
f 452/8/4 447/8/4 453/8/4
f 450/1/4 452/1/4 455/1/4
f 443/1/4 450/1/4 455/1/4
f 452/3/4 453/3/4 456/3/4
f 455/1/4 452/1/4 456/1/4
f 453/3/4 445/3/4 457/3/4
f 456/3/4 453/3/4 457/3/4
f 454/4/4 455/4/4 458/4/4
f 455/1/4 456/1/4 459/1/4
f 458/4/4 455/4/4 459/4/4
f 459/1/4 456/1/4 460/1/4
f 458/7/4 459/7/4 462/7/4
f 459/7/4 460/7/4 462/7/4
f 460/1/4 456/1/4 463/1/4
f 462/7/4 460/7/4 463/7/4
f 463/1/4 456/1/4 464/1/4
f 461/7/4 462/7/4 465/7/4
f 462/6/4 463/6/4 466/6/4
f 465/7/4 462/7/4 466/7/4
f 463/7/4 464/7/4 467/7/4
f 466/6/4 463/6/4 467/6/4
f 464/1/4 456/1/4 468/1/4
f 467/7/4 464/7/4 468/7/4
f 456/8/4 457/8/4 469/8/4
f 468/1/4 456/1/4 469/1/4
f 457/3/4 445/3/4 470/3/4
f 469/8/4 457/8/4 470/8/4
f 466/7/4 467/7/4 471/7/4
f 471/7/4 467/7/4 472/7/4
f 468/1/4 469/1/4 473/1/4
f 472/7/4 467/7/4 473/7/4
f 467/1/4 468/1/4 473/1/4
f 471/4/4 472/4/4 474/4/4
f 472/1/4 473/1/4 474/1/4
f 473/1/4 469/1/4 475/1/4
f 474/1/4 473/1/4 475/1/4
f 469/3/4 470/3/4 476/3/4
f 475/1/4 469/1/4 476/1/4
f 470/3/4 445/3/4 477/3/4
f 476/3/4 470/3/4 477/3/4
f 475/1/4 476/1/4 478/1/4
f 478/1/4 476/1/4 479/1/4
f 471/4/4 474/4/4 480/4/4
f 480/4/4 474/4/4 481/4/4
f 475/1/4 478/1/4 482/1/4
f 478/2/4 479/2/4 483/2/4
f 482/1/4 478/1/4 483/1/4
f 483/2/4 479/2/4 484/2/4
f 485/6/4 486/6/4 487/6/4
f 487/6/4 486/6/4 488/6/4
f 489/4/4 490/4/4 491/4/4
f 491/4/4 490/4/4 492/4/4
f 493/6/4 494/6/4 495/6/4
f 495/6/4 494/6/4 496/6/4
f 501/7/5 498/7/5 497/7/5
f 502/7/5 498/7/5 501/7/5
f 503/7/5 500/7/5 499/7/5
f 504/7/5 500/7/5 503/7/5
f 509/7/5 506/7/5 505/7/5
f 510/7/5 506/7/5 509/7/5
f 511/7/5 508/7/5 507/7/5
f 512/7/5 508/7/5 511/7/5
f 520/4/5 514/4/5 513/4/5
f 521/4/5 514/4/5 520/4/5
f 527/4/5 516/4/5 515/4/5
f 528/7/5 517/7/5 516/7/5
f 528/4/5 516/4/5 527/4/5
f 529/7/5 517/7/5 528/7/5
f 530/7/5 519/7/5 518/7/5
f 531/4/5 520/4/5 519/4/5
f 531/4/5 521/4/5 520/4/5
f 531/7/5 519/7/5 530/7/5
f 531/4/5 522/4/5 521/4/5
f 532/7/5 523/7/5 522/7/5
f 532/4/5 522/4/5 531/4/5
f 533/7/5 523/7/5 532/7/5
f 534/7/5 525/7/5 524/7/5
f 535/4/5 526/4/5 525/4/5
f 535/7/5 525/7/5 534/7/5
f 536/4/5 526/4/5 535/4/5
f 537/1/5 529/1/5 528/1/5
f 537/1/5 534/1/5 533/1/5
f 537/1/5 536/1/5 535/1/5
f 537/1/5 535/1/5 534/1/5
f 537/4/5 527/4/5 515/4/5
f 537/1/5 532/1/5 531/1/5
f 537/1/5 533/1/5 532/1/5
f 537/1/5 531/1/5 530/1/5
f 537/1/5 528/1/5 527/1/5
f 537/1/5 530/1/5 529/1/5
f 538/1/5 536/1/5 537/1/5
f 539/1/5 536/1/5 538/1/5
f 540/1/5 536/1/5 539/1/5
f 541/1/5 536/1/5 540/1/5
f 542/1/5 536/1/5 541/1/5
f 543/1/5 536/1/5 542/1/5
f 544/1/5 536/1/5 543/1/5
f 545/1/5 536/1/5 544/1/5
f 546/4/5 526/4/5 536/4/5
f 546/1/5 536/1/5 545/1/5
f 547/4/5 537/4/5 515/4/5
f 547/4/5 538/4/5 537/4/5
f 548/7/5 539/7/5 538/7/5
f 548/4/5 538/4/5 547/4/5
f 549/7/5 539/7/5 548/7/5
f 550/7/5 541/7/5 540/7/5
f 551/4/5 542/4/5 541/4/5
f 551/7/5 541/7/5 550/7/5
f 552/4/5 542/4/5 551/4/5
f 553/4/5 542/4/5 552/4/5
f 554/7/5 543/7/5 542/7/5
f 554/4/5 542/4/5 553/4/5
f 555/7/5 543/7/5 554/7/5
f 556/7/5 545/7/5 544/7/5
f 557/4/5 546/4/5 545/4/5
f 557/7/5 545/7/5 556/7/5
f 558/4/5 526/4/5 546/4/5
f 558/4/5 546/4/5 557/4/5
f 559/4/5 553/4/5 552/4/5
f 560/4/5 553/4/5 559/4/5
f 565/6/5 562/6/5 561/6/5
f 566/6/5 562/6/5 565/6/5
f 567/6/5 564/6/5 563/6/5
f 568/6/5 564/6/5 567/6/5
f 569/6/5 565/6/5 561/6/5
f 572/6/5 564/6/5 568/6/5
f 573/6/5 570/6/5 569/6/5
f 573/6/5 569/6/5 561/6/5
f 574/6/5 570/6/5 573/6/5
f 575/6/5 572/6/5 571/6/5
f 576/6/5 564/6/5 572/6/5
f 576/6/5 572/6/5 575/6/5
f 589/1/5 578/1/5 577/1/5
f 590/1/5 578/1/5 589/1/5
f 591/1/5 580/1/5 579/1/5
f 592/1/5 580/1/5 591/1/5
f 593/1/5 582/1/5 581/1/5
f 594/1/5 582/1/5 593/1/5
f 595/1/5 584/1/5 583/1/5
f 596/1/5 584/1/5 595/1/5
f 597/1/5 586/1/5 585/1/5
f 598/1/5 586/1/5 597/1/5
f 599/1/5 588/1/5 587/1/5
f 600/1/5 588/1/5 599/1/5
f 606/3/5 604/3/5 603/3/5
f 606/3/5 605/3/5 604/3/5
f 607/3/5 606/3/5 603/3/5
f 608/3/5 602/3/5 601/3/5
f 609/3/5 602/3/5 608/3/5
f 610/3/5 607/3/5 603/3/5
f 611/3/5 607/3/5 610/3/5
f 612/3/5 607/3/5 611/3/5
f 616/8/5 614/8/5 613/8/5
f 617/8/5 614/8/5 616/8/5
f 619/8/5 616/8/5 615/8/5
f 620/8/5 616/8/5 619/8/5
f 621/8/5 618/8/5 617/8/5
f 622/8/5 618/8/5 621/8/5
f 623/8/5 621/8/5 620/8/5
f 624/8/5 621/8/5 623/8/5
f 625/4/6 626/4/6 627/4/6
f 627/4/6 626/4/6 628/4/6
f 629/4/6 630/4/6 631/4/6
f 631/4/6 630/4/6 632/4/6
f 633/6/6 634/6/6 637/6/6
f 637/6/6 634/6/6 638/6/6
f 635/6/6 636/6/6 639/6/6
f 639/6/6 636/6/6 640/6/6
f 640/6/6 636/6/6 641/6/6
f 641/6/6 636/6/6 642/6/6
f 633/6/6 637/6/6 643/6/6
f 642/6/6 636/6/6 646/6/6
f 643/6/6 644/6/6 647/6/6
f 633/6/6 643/6/6 647/6/6
f 647/6/6 644/6/6 648/6/6
f 645/6/6 646/6/6 649/6/6
f 646/6/6 636/6/6 650/6/6
f 649/6/6 646/6/6 650/6/6
f 651/1/6 652/1/6 663/1/6
f 663/1/6 652/1/6 664/1/6
f 653/1/6 654/1/6 665/1/6
f 665/1/6 654/1/6 666/1/6
f 655/1/6 656/1/6 667/1/6
f 667/1/6 656/1/6 668/1/6
f 657/1/6 658/1/6 669/1/6
f 669/1/6 658/1/6 670/1/6
f 659/1/6 660/1/6 671/1/6
f 671/1/6 660/1/6 672/1/6
f 661/1/6 662/1/6 673/1/6
f 673/1/6 662/1/6 674/1/6
f 675/1/6 676/1/6 680/1/6
f 678/2/6 679/2/6 686/2/6
f 677/1/6 678/1/6 686/1/6
f 686/2/6 679/2/6 687/2/6
f 675/1/6 680/1/6 688/1/6
f 688/1/6 680/1/6 689/1/6
f 688/4/6 689/4/6 690/4/6
f 689/1/6 680/1/6 691/1/6
f 690/4/6 689/4/6 691/4/6
f 690/1/6 691/1/6 692/1/6
f 691/1/6 680/1/6 693/1/6
f 692/1/6 691/1/6 693/1/6
f 692/4/6 693/4/6 694/4/6
f 693/1/6 680/1/6 695/1/6
f 694/4/6 693/4/6 695/4/6
f 694/1/6 695/1/6 696/1/6
f 695/1/6 680/1/6 696/1/6
f 681/1/6 682/1/6 697/1/6
f 697/1/6 682/1/6 698/1/6
f 684/1/6 685/1/6 699/1/6
f 683/1/6 684/1/6 699/1/6
f 699/1/6 685/1/6 700/1/6
f 700/1/6 685/1/6 701/1/6
f 677/1/6 686/1/6 702/1/6
f 686/1/6 687/1/6 702/1/6
f 702/1/6 687/1/6 703/1/6
f 694/1/6 696/1/6 704/1/6
f 704/1/6 696/1/6 705/1/6
f 677/1/6 702/1/6 706/1/6
f 702/2/6 703/2/6 707/2/6
f 706/1/6 702/1/6 707/1/6
f 707/2/6 703/2/6 708/2/6
f 709/3/6 710/3/6 711/3/6
f 711/3/6 710/3/6 712/3/6
f 712/3/6 710/3/6 713/3/6
f 713/3/6 710/3/6 714/3/6
f 709/3/6 711/3/6 715/3/6
f 712/3/6 713/3/6 716/3/6
f 716/3/6 713/3/6 717/3/6
f 714/3/6 710/3/6 718/3/6
f 716/3/6 717/3/6 719/3/6
f 717/3/6 718/3/6 719/3/6
f 709/3/6 715/3/6 719/3/6
f 715/3/6 716/3/6 719/3/6
f 719/3/6 718/3/6 720/3/6
f 720/3/6 718/3/6 721/3/6
f 718/3/6 710/3/6 722/3/6
f 721/3/6 718/3/6 722/3/6
f 709/3/6 719/3/6 723/3/6
f 720/3/6 721/3/6 724/3/6
f 724/3/6 721/3/6 725/3/6
f 722/3/6 710/3/6 726/3/6
f 709/3/6 723/3/6 727/3/6
f 725/3/6 726/3/6 727/3/6
f 724/3/6 725/3/6 727/3/6
f 723/3/6 724/3/6 727/3/6
f 726/3/6 710/3/6 728/3/6
f 727/3/6 726/3/6 728/3/6
f 729/8/6 730/8/6 731/8/6
f 731/8/6 730/8/6 732/8/6
f 729/8/6 731/8/6 733/8/6
f 732/8/6 730/8/6 734/8/6
f 729/8/6 733/8/6 735/8/6
f 733/8/6 734/8/6 735/8/6
f 734/8/6 730/8/6 736/8/6
f 735/8/6 734/8/6 736/8/6
