# MagicaVoxel @ Ephtracy

# group
g 4x2 roof2

# material
mtllib 4x2 roof2.mtl
usemtl palette

# normals
vn -1 0 0
vn 1 0 0
vn 0 0 1
vn 0 0 -1
vn 0 -1 0
vn 0 1 0

# texcoords
vt 0.966797 0.5
vt 0.978516 0.5

# verts
v -11 0 46
v -11 0 39
v -11 0 -47
v -11 1 39
v -11 1 -47
v -11 2 46
v -11 2 39
v -11 4 39
v -11 4 -47
v -5 0 44
v -5 0 41
v -5 1 44
v -5 1 41
v 0 2 39
v 0 2 -45
v 0 4 39
v 0 4 -45
v 12 2 39
v 12 2 -45
v 12 4 39
v 12 4 -45
v 24 2 39
v 24 2 -45
v 24 4 39
v 24 4 -45
v 36 2 39
v 36 2 -45
v 36 4 39
v 36 4 -45
v 47 2 39
v 47 2 -45
v 47 4 39
v 47 4 -45
v 59 2 39
v 59 2 -45
v 59 4 39
v 59 4 -45
v 62 1 45
v 62 1 39
v 62 2 45
v 62 2 39
v -10 1 45
v -10 1 39
v -10 2 45
v -10 2 39
v -8 0 44
v -8 0 41
v -8 1 44
v -8 1 41
v -7 2 39
v -7 2 -45
v -7 4 39
v -7 4 -45
v 4 2 39
v 4 2 -45
v 4 4 39
v 4 4 -45
v 16 2 39
v 16 2 -45
v 16 4 39
v 16 4 -45
v 28 2 39
v 28 2 -45
v 28 4 39
v 28 4 -45
v 40 2 39
v 40 2 -45
v 40 4 39
v 40 4 -45
v 51 2 39
v 51 2 -45
v 51 4 39
v 51 4 -45
v 63 0 46
v 63 0 39
v 63 0 -47
v 63 1 39
v 63 1 -47
v 63 2 46
v 63 2 39
v 63 4 39
v 63 4 -47
v -11 0 46
v -11 2 46
v 63 0 46
v 63 2 46
v -8 0 41
v -8 1 41
v -5 0 41
v -5 1 41
v -11 2 39
v -11 4 39
v -10 1 39
v -10 2 39
v -7 2 39
v -7 4 39
v 0 2 39
v 0 4 39
v 4 2 39
v 4 4 39
v 12 2 39
v 12 4 39
v 16 2 39
v 16 4 39
v 24 2 39
v 24 4 39
v 28 2 39
v 28 4 39
v 36 2 39
v 36 4 39
v 40 2 39
v 40 4 39
v 47 2 39
v 47 4 39
v 51 2 39
v 51 4 39
v 59 2 39
v 59 4 39
v 62 1 39
v 62 2 39
v 63 2 39
v 63 4 39
v -7 2 -45
v -7 4 -45
v 0 2 -45
v 0 4 -45
v 4 2 -45
v 4 4 -45
v 12 2 -45
v 12 4 -45
v 16 2 -45
v 16 4 -45
v 24 2 -45
v 24 4 -45
v 28 2 -45
v 28 4 -45
v 36 2 -45
v 36 4 -45
v 40 2 -45
v 40 4 -45
v 47 2 -45
v 47 4 -45
v 51 2 -45
v 51 4 -45
v 59 2 -45
v 59 4 -45
v -10 1 45
v -10 2 45
v 62 1 45
v 62 2 45
v -8 0 44
v -8 1 44
v -5 0 44
v -5 1 44
v -11 0 -47
v -11 1 -47
v -11 4 -47
v 63 0 -47
v 63 1 -47
v 63 4 -47
v -11 0 46
v 63 0 46
v -8 0 44
v -5 0 44
v -8 0 41
v -5 0 41
v -11 0 39
v 63 0 39
v -11 0 -47
v 63 0 -47
v -10 1 45
v 62 1 45
v -8 1 44
v -5 1 44
v -8 1 41
v -5 1 41
v -10 1 39
v 62 1 39
v -11 2 46
v 63 2 46
v -10 2 45
v 62 2 45
v -11 2 39
v -10 2 39
v -7 2 39
v 0 2 39
v 4 2 39
v 12 2 39
v 16 2 39
v 24 2 39
v 28 2 39
v 36 2 39
v 40 2 39
v 47 2 39
v 51 2 39
v 59 2 39
v 62 2 39
v 63 2 39
v -7 2 -45
v 0 2 -45
v 4 2 -45
v 12 2 -45
v 16 2 -45
v 24 2 -45
v 28 2 -45
v 36 2 -45
v 40 2 -45
v 47 2 -45
v 51 2 -45
v 59 2 -45
v -11 4 39
v -7 4 39
v 0 4 39
v 4 4 39
v 12 4 39
v 16 4 39
v 24 4 39
v 28 4 39
v 36 4 39
v 40 4 39
v 47 4 39
v 51 4 39
v 59 4 39
v 63 4 39
v -7 4 -45
v 0 4 -45
v 4 4 -45
v 12 4 -45
v 16 4 -45
v 24 4 -45
v 28 4 -45
v 36 4 -45
v 40 4 -45
v 47 4 -45
v 51 4 -45
v 59 4 -45
v -11 4 -47
v 63 4 -47

# faces
f 4/2/1 2/2/1 1/2/1
f 4/1/1 3/1/1 2/1/1
f 5/1/1 3/1/1 4/1/1
f 6/2/1 4/2/1 1/2/1
f 6/2/1 5/2/1 4/2/1
f 7/2/1 5/2/1 6/2/1
f 8/2/1 5/2/1 7/2/1
f 9/2/1 5/2/1 8/2/1
f 12/2/1 11/2/1 10/2/1
f 13/2/1 11/2/1 12/2/1
f 16/2/1 15/2/1 14/2/1
f 17/2/1 15/2/1 16/2/1
f 20/2/1 19/2/1 18/2/1
f 21/2/1 19/2/1 20/2/1
f 24/2/1 23/2/1 22/2/1
f 25/2/1 23/2/1 24/2/1
f 28/2/1 27/2/1 26/2/1
f 29/2/1 27/2/1 28/2/1
f 32/2/1 31/2/1 30/2/1
f 33/2/1 31/2/1 32/2/1
f 36/2/1 35/2/1 34/2/1
f 37/2/1 35/2/1 36/2/1
f 40/2/1 39/2/1 38/2/1
f 41/2/1 39/2/1 40/2/1
f 42/2/2 43/2/2 44/2/2
f 44/2/2 43/2/2 45/2/2
f 46/2/2 47/2/2 48/2/2
f 48/2/2 47/2/2 49/2/2
f 50/2/2 51/2/2 52/2/2
f 52/2/2 51/2/2 53/2/2
f 54/2/2 55/2/2 56/2/2
f 56/2/2 55/2/2 57/2/2
f 58/2/2 59/2/2 60/2/2
f 60/2/2 59/2/2 61/2/2
f 62/2/2 63/2/2 64/2/2
f 64/2/2 63/2/2 65/2/2
f 66/2/2 67/2/2 68/2/2
f 68/2/2 67/2/2 69/2/2
f 70/2/2 71/2/2 72/2/2
f 72/2/2 71/2/2 73/2/2
f 74/2/2 75/2/2 77/2/2
f 75/1/2 76/1/2 77/1/2
f 77/1/2 76/1/2 78/1/2
f 74/2/2 77/2/2 79/2/2
f 77/2/2 78/2/2 79/2/2
f 79/2/2 78/2/2 80/2/2
f 80/2/2 78/2/2 81/2/2
f 81/2/2 78/2/2 82/2/2
f 85/2/3 84/2/3 83/2/3
f 86/2/3 84/2/3 85/2/3
f 89/2/3 88/2/3 87/2/3
f 90/2/3 88/2/3 89/2/3
f 94/2/3 92/2/3 91/2/3
f 95/2/3 92/2/3 94/2/3
f 95/2/3 94/2/3 93/2/3
f 96/2/3 92/2/3 95/2/3
f 97/2/3 95/2/3 93/2/3
f 99/2/3 97/2/3 93/2/3
f 99/2/3 98/2/3 97/2/3
f 100/2/3 98/2/3 99/2/3
f 101/2/3 99/2/3 93/2/3
f 103/2/3 101/2/3 93/2/3
f 103/2/3 102/2/3 101/2/3
f 104/2/3 102/2/3 103/2/3
f 105/2/3 103/2/3 93/2/3
f 107/2/3 105/2/3 93/2/3
f 107/2/3 106/2/3 105/2/3
f 108/2/3 106/2/3 107/2/3
f 109/2/3 107/2/3 93/2/3
f 111/2/3 109/2/3 93/2/3
f 111/2/3 110/2/3 109/2/3
f 112/2/3 110/2/3 111/2/3
f 113/2/3 111/2/3 93/2/3
f 115/2/3 113/2/3 93/2/3
f 115/2/3 114/2/3 113/2/3
f 116/2/3 114/2/3 115/2/3
f 117/2/3 115/2/3 93/2/3
f 119/2/3 117/2/3 93/2/3
f 119/2/3 118/2/3 117/2/3
f 120/2/3 118/2/3 119/2/3
f 121/2/3 118/2/3 120/2/3
f 122/2/3 118/2/3 121/2/3
f 125/2/3 124/2/3 123/2/3
f 126/2/3 124/2/3 125/2/3
f 129/2/3 128/2/3 127/2/3
f 130/2/3 128/2/3 129/2/3
f 133/2/3 132/2/3 131/2/3
f 134/2/3 132/2/3 133/2/3
f 137/2/3 136/2/3 135/2/3
f 138/2/3 136/2/3 137/2/3
f 141/2/3 140/2/3 139/2/3
f 142/2/3 140/2/3 141/2/3
f 145/2/3 144/2/3 143/2/3
f 146/2/3 144/2/3 145/2/3
f 147/2/4 148/2/4 149/2/4
f 149/2/4 148/2/4 150/2/4
f 151/2/4 152/2/4 153/2/4
f 153/2/4 152/2/4 154/2/4
f 155/1/4 156/1/4 158/1/4
f 156/2/4 157/2/4 159/2/4
f 158/1/4 156/1/4 159/1/4
f 159/2/4 157/2/4 160/2/4
f 163/2/5 162/2/5 161/2/5
f 164/2/5 162/2/5 163/2/5
f 165/2/5 163/2/5 161/2/5
f 166/2/5 162/2/5 164/2/5
f 167/2/5 165/2/5 161/2/5
f 167/2/5 166/2/5 165/2/5
f 168/2/5 162/2/5 166/2/5
f 168/2/5 166/2/5 167/2/5
f 169/1/5 168/1/5 167/1/5
f 170/1/5 168/1/5 169/1/5
f 171/2/6 172/2/6 173/2/6
f 173/2/6 172/2/6 174/2/6
f 171/2/6 173/2/6 175/2/6
f 174/2/6 172/2/6 176/2/6
f 171/2/6 175/2/6 177/2/6
f 175/2/6 176/2/6 177/2/6
f 176/2/6 172/2/6 178/2/6
f 177/2/6 176/2/6 178/2/6
f 179/2/6 180/2/6 181/2/6
f 181/2/6 180/2/6 182/2/6
f 179/2/6 181/2/6 183/2/6
f 183/2/6 181/2/6 184/2/6
f 182/2/6 180/2/6 197/2/6
f 197/2/6 180/2/6 198/2/6
f 185/2/6 186/2/6 199/2/6
f 199/2/6 186/2/6 200/2/6
f 187/2/6 188/2/6 201/2/6
f 201/2/6 188/2/6 202/2/6
f 189/2/6 190/2/6 203/2/6
f 203/2/6 190/2/6 204/2/6
f 191/2/6 192/2/6 205/2/6
f 205/2/6 192/2/6 206/2/6
f 193/2/6 194/2/6 207/2/6
f 207/2/6 194/2/6 208/2/6
f 195/2/6 196/2/6 209/2/6
f 209/2/6 196/2/6 210/2/6
f 211/2/6 212/2/6 225/2/6
f 213/2/6 214/2/6 226/2/6
f 226/2/6 214/2/6 227/2/6
f 215/2/6 216/2/6 228/2/6
f 228/2/6 216/2/6 229/2/6
f 217/2/6 218/2/6 230/2/6
f 230/2/6 218/2/6 231/2/6
f 219/2/6 220/2/6 232/2/6
f 232/2/6 220/2/6 233/2/6
f 221/2/6 222/2/6 234/2/6
f 234/2/6 222/2/6 235/2/6
f 223/2/6 224/2/6 236/2/6
f 234/2/6 235/2/6 237/2/6
f 235/2/6 236/2/6 237/2/6
f 211/2/6 225/2/6 237/2/6
f 226/2/6 227/2/6 237/2/6
f 233/2/6 234/2/6 237/2/6
f 228/2/6 229/2/6 237/2/6
f 231/2/6 232/2/6 237/2/6
f 230/2/6 231/2/6 237/2/6
f 229/2/6 230/2/6 237/2/6
f 232/2/6 233/2/6 237/2/6
f 227/2/6 228/2/6 237/2/6
f 225/2/6 226/2/6 237/2/6
f 236/2/6 224/2/6 238/2/6
f 237/2/6 236/2/6 238/2/6
