# MagicaVoxel @ Ephtracy

# group
g 2xbrownbed

# material
mtllib 2xbrownbed.mtl
usemtl palette

# normals
vn -1 0 0
vn 1 0 0
vn 0 0 1
vn 0 0 -1
vn 0 -1 0
vn 0 1 0

# texcoords
vt 0.224609 0.5
vt 0.271484 0.5
vt 0.310547 0.5
vt 0.919922 0.5
vt 0.931641 0.5

# verts
v -20 0 31
v -20 0 -47
v -20 12 31
v -20 12 -45
v -20 35 -45
v -20 35 -47
v -18 12 28
v -18 12 -17
v -18 15 28
v -18 15 -17
v -17 12 29
v -17 12 28
v -17 12 -17
v -17 12 -45
v -17 15 29
v -17 15 28
v -17 15 -17
v -17 15 -45
v -17 16 28
v -17 16 -17
v -10 15 -17
v -10 15 -18
v -10 16 -17
v -10 16 -18
v -6 15 -28
v -6 15 -44
v -6 17 -28
v -6 17 -44
v -5 15 -44
v -5 15 -45
v -5 16 -44
v -5 16 -45
v -5 17 -29
v -5 17 -44
v -5 19 -29
v -5 19 -44
v 5 15 -18
v 5 15 -19
v 5 16 -18
v 5 16 -19
v 20 15 -19
v 20 15 -20
v 20 16 -19
v 20 16 -20
v 24 15 -28
v 24 15 -44
v 24 17 -28
v 24 17 -44
v 25 15 -44
v 25 15 -45
v 25 16 -44
v 25 16 -45
v 25 17 -29
v 25 17 -44
v 25 19 -29
v 25 19 -44
v 32 15 -20
v 32 15 -21
v 32 16 -20
v 32 16 -21
v 43 15 -21
v 43 15 -22
v 43 16 -21
v 43 16 -22
v 16 15 -44
v 16 15 -45
v 16 16 -44
v 16 16 -45
v 16 17 -29
v 16 17 -44
v 16 19 -29
v 16 19 -44
v 17 15 -28
v 17 15 -44
v 17 17 -28
v 17 17 -44
v 46 15 -44
v 46 15 -45
v 46 16 -44
v 46 16 -45
v 46 17 -29
v 46 17 -44
v 46 19 -29
v 46 19 -44
v 47 15 -28
v 47 15 -44
v 47 17 -28
v 47 17 -44
v 57 12 29
v 57 12 28
v 57 12 -22
v 57 12 -45
v 57 15 29
v 57 15 28
v 57 15 22
v 57 15 -17
v 57 15 -22
v 57 15 -45
v 57 16 28
v 57 16 22
v 57 16 -17
v 57 16 -22
v 58 12 28
v 58 12 -22
v 58 14 22
v 58 14 -17
v 58 15 28
v 58 15 22
v 58 15 -17
v 58 15 -22
v 60 0 31
v 60 0 -47
v 60 12 31
v 60 12 -45
v 60 35 -45
v 60 35 -47
v -20 0 31
v -20 12 31
v 60 0 31
v 60 12 31
v -17 12 29
v -17 15 29
v 57 12 29
v 57 15 29
v -18 12 28
v -18 15 28
v -17 12 28
v -17 15 28
v -17 16 28
v 57 12 28
v 57 15 28
v 57 16 28
v 58 12 28
v 58 15 28
v -6 15 -28
v -6 17 -28
v 17 15 -28
v 17 17 -28
v 24 15 -28
v 24 17 -28
v 47 15 -28
v 47 17 -28
v -5 17 -29
v -5 19 -29
v 16 17 -29
v 16 19 -29
v 25 17 -29
v 25 19 -29
v 46 17 -29
v 46 19 -29
v -20 12 -45
v -20 35 -45
v -17 12 -45
v -17 15 -45
v -5 15 -45
v -5 16 -45
v 16 15 -45
v 16 16 -45
v 17 15 -45
v 25 15 -45
v 25 16 -45
v 46 15 -45
v 46 16 -45
v 47 15 -45
v 57 12 -45
v 57 15 -45
v 60 12 -45
v 60 35 -45
v -18 12 -17
v -18 15 -17
v -17 12 -17
v -17 15 -17
v -17 16 -17
v -10 15 -17
v -10 16 -17
v -10 15 -18
v -10 16 -18
v 5 15 -18
v 5 16 -18
v 5 15 -19
v 5 16 -19
v 20 15 -19
v 20 16 -19
v 20 15 -20
v 20 16 -20
v 32 15 -20
v 32 16 -20
v 32 15 -21
v 32 16 -21
v 43 15 -21
v 43 16 -21
v 43 15 -22
v 43 16 -22
v 57 12 -22
v 57 15 -22
v 57 16 -22
v 58 12 -22
v 58 15 -22
v -6 15 -44
v -6 17 -44
v -5 15 -44
v -5 16 -44
v -5 17 -44
v -5 19 -44
v 16 15 -44
v 16 16 -44
v 16 17 -44
v 16 19 -44
v 17 15 -44
v 17 17 -44
v 24 15 -44
v 24 17 -44
v 25 15 -44
v 25 16 -44
v 25 17 -44
v 25 19 -44
v 46 15 -44
v 46 16 -44
v 46 17 -44
v 46 19 -44
v 47 15 -44
v 47 17 -44
v -20 0 -47
v -20 35 -47
v 60 0 -47
v 60 35 -47
v -20 0 31
v 60 0 31
v -20 0 -47
v 60 0 -47
v -20 12 31
v 60 12 31
v -17 12 29
v 57 12 29
v -18 12 28
v -17 12 28
v 57 12 28
v 58 12 28
v -18 12 -17
v -17 12 -17
v 57 12 -22
v 58 12 -22
v -20 12 -45
v -17 12 -45
v 57 12 -45
v 60 12 -45
v -17 15 29
v 57 15 29
v -18 15 28
v -17 15 28
v 57 15 28
v 58 15 28
v 57 15 22
v 58 15 22
v -18 15 -17
v -17 15 -17
v -10 15 -17
v 57 15 -17
v 58 15 -17
v -10 15 -18
v 5 15 -18
v 5 15 -19
v 20 15 -19
v 20 15 -20
v 32 15 -20
v 32 15 -21
v 43 15 -21
v 43 15 -22
v 57 15 -22
v 58 15 -22
v -6 15 -28
v 17 15 -28
v 24 15 -28
v 47 15 -28
v -6 15 -44
v -5 15 -44
v 16 15 -44
v 17 15 -44
v 24 15 -44
v 25 15 -44
v 46 15 -44
v 47 15 -44
v -17 15 -45
v -5 15 -45
v 16 15 -45
v 17 15 -45
v 25 15 -45
v 46 15 -45
v 47 15 -45
v 57 15 -45
v -17 16 28
v 57 16 28
v 47 16 24
v 54 16 24
v 54 16 22
v 57 16 22
v 47 16 21
v 49 16 21
v 9 16 14
v 18 16 14
v 46 16 9
v 49 16 9
v 1 16 6
v 9 16 6
v 18 16 5
v 21 16 5
v -3 16 4
v 1 16 4
v 38 16 2
v 41 16 2
v 14 16 -1
v 21 16 -1
v -3 16 -2
v 1 16 -2
v -1 16 -4
v 1 16 -4
v 37 16 -5
v 38 16 -5
v 41 16 -5
v 46 16 -5
v 2 16 -12
v 14 16 -12
v 37 16 -12
v 46 16 -12
v -1 16 -13
v 2 16 -13
v -17 16 -17
v -10 16 -17
v 46 16 -17
v 57 16 -17
v -10 16 -18
v 5 16 -18
v 5 16 -19
v 20 16 -19
v 20 16 -20
v 32 16 -20
v 32 16 -21
v 43 16 -21
v 43 16 -22
v 57 16 -22
v -5 16 -44
v 16 16 -44
v 25 16 -44
v 46 16 -44
v -5 16 -45
v 16 16 -45
v 25 16 -45
v 46 16 -45
v -6 17 -28
v 17 17 -28
v 24 17 -28
v 47 17 -28
v -5 17 -29
v 16 17 -29
v 25 17 -29
v 46 17 -29
v -6 17 -44
v -5 17 -44
v 16 17 -44
v 17 17 -44
v 24 17 -44
v 25 17 -44
v 46 17 -44
v 47 17 -44
v -5 19 -29
v 16 19 -29
v 25 19 -29
v 46 19 -29
v -5 19 -44
v 16 19 -44
v 25 19 -44
v 46 19 -44
v -20 35 -45
v 60 35 -45
v -20 35 -47
v 60 35 -47

# faces
f 3/2/1 2/2/1 1/2/1
f 4/2/1 2/2/1 3/2/1
f 5/2/1 2/2/1 4/2/1
f 6/2/1 2/2/1 5/2/1
f 9/3/1 8/3/1 7/3/1
f 10/3/1 8/3/1 9/3/1
f 15/3/1 12/3/1 11/3/1
f 16/3/1 12/3/1 15/3/1
f 17/4/1 14/4/1 13/4/1
f 18/4/1 14/4/1 17/4/1
f 19/3/1 17/3/1 16/3/1
f 20/3/1 17/3/1 19/3/1
f 23/3/1 22/3/1 21/3/1
f 24/3/1 22/3/1 23/3/1
f 27/5/1 26/5/1 25/5/1
f 28/5/1 26/5/1 27/5/1
f 31/5/1 30/5/1 29/5/1
f 32/5/1 30/5/1 31/5/1
f 35/5/1 34/5/1 33/5/1
f 36/5/1 34/5/1 35/5/1
f 39/3/1 38/3/1 37/3/1
f 40/3/1 38/3/1 39/3/1
f 43/3/1 42/3/1 41/3/1
f 44/3/1 42/3/1 43/3/1
f 47/5/1 46/5/1 45/5/1
f 48/5/1 46/5/1 47/5/1
f 51/5/1 50/5/1 49/5/1
f 52/5/1 50/5/1 51/5/1
f 55/5/1 54/5/1 53/5/1
f 56/5/1 54/5/1 55/5/1
f 59/3/1 58/3/1 57/3/1
f 60/3/1 58/3/1 59/3/1
f 63/3/1 62/3/1 61/3/1
f 64/3/1 62/3/1 63/3/1
f 65/5/2 66/5/2 67/5/2
f 67/5/2 66/5/2 68/5/2
f 69/5/2 70/5/2 71/5/2
f 71/5/2 70/5/2 72/5/2
f 73/5/2 74/5/2 75/5/2
f 75/5/2 74/5/2 76/5/2
f 77/5/2 78/5/2 79/5/2
f 79/5/2 78/5/2 80/5/2
f 81/5/2 82/5/2 83/5/2
f 83/5/2 82/5/2 84/5/2
f 85/5/2 86/5/2 87/5/2
f 87/5/2 86/5/2 88/5/2
f 89/3/2 90/3/2 93/3/2
f 93/3/2 90/3/2 94/3/2
f 91/4/2 92/4/2 97/4/2
f 97/4/2 92/4/2 98/4/2
f 94/3/2 95/3/2 99/3/2
f 95/1/2 96/1/2 100/1/2
f 99/3/2 95/3/2 100/3/2
f 96/3/2 97/3/2 101/3/2
f 100/1/2 96/1/2 101/1/2
f 101/3/2 97/3/2 102/3/2
f 103/3/2 104/3/2 105/3/2
f 105/3/2 104/3/2 106/3/2
f 103/3/2 105/3/2 107/3/2
f 105/1/2 106/1/2 108/1/2
f 107/3/2 105/3/2 108/3/2
f 106/3/2 104/3/2 109/3/2
f 108/1/2 106/1/2 109/1/2
f 109/3/2 104/3/2 110/3/2
f 111/2/2 112/2/2 113/2/2
f 113/2/2 112/2/2 114/2/2
f 114/2/2 112/2/2 115/2/2
f 115/2/2 112/2/2 116/2/2
f 119/2/3 118/2/3 117/2/3
f 120/2/3 118/2/3 119/2/3
f 123/3/3 122/3/3 121/3/3
f 124/3/3 122/3/3 123/3/3
f 127/3/3 126/3/3 125/3/3
f 128/3/3 126/3/3 127/3/3
f 131/3/3 129/3/3 128/3/3
f 132/3/3 129/3/3 131/3/3
f 133/3/3 131/3/3 130/3/3
f 134/3/3 131/3/3 133/3/3
f 137/5/3 136/5/3 135/5/3
f 138/5/3 136/5/3 137/5/3
f 141/5/3 140/5/3 139/5/3
f 142/5/3 140/5/3 141/5/3
f 145/5/3 144/5/3 143/5/3
f 146/5/3 144/5/3 145/5/3
f 149/5/3 148/5/3 147/5/3
f 150/5/3 148/5/3 149/5/3
f 153/2/3 152/2/3 151/2/3
f 154/2/3 152/2/3 153/2/3
f 155/2/3 152/2/3 154/2/3
f 156/2/3 152/2/3 155/2/3
f 158/2/3 152/2/3 156/2/3
f 159/2/3 158/2/3 157/2/3
f 160/2/3 158/2/3 159/2/3
f 161/2/3 152/2/3 158/2/3
f 161/2/3 158/2/3 160/2/3
f 163/2/3 152/2/3 161/2/3
f 164/2/3 163/2/3 162/2/3
f 166/2/3 163/2/3 164/2/3
f 167/2/3 166/2/3 165/2/3
f 168/2/3 152/2/3 163/2/3
f 168/2/3 166/2/3 167/2/3
f 168/2/3 163/2/3 166/2/3
f 169/3/4 170/3/4 171/3/4
f 171/3/4 170/3/4 172/3/4
f 172/3/4 173/3/4 174/3/4
f 174/3/4 173/3/4 175/3/4
f 176/3/4 177/3/4 178/3/4
f 178/3/4 177/3/4 179/3/4
f 180/3/4 181/3/4 182/3/4
f 182/3/4 181/3/4 183/3/4
f 184/3/4 185/3/4 186/3/4
f 186/3/4 185/3/4 187/3/4
f 188/3/4 189/3/4 190/3/4
f 190/3/4 189/3/4 191/3/4
f 192/3/4 193/3/4 195/3/4
f 195/3/4 193/3/4 196/3/4
f 194/3/4 195/3/4 197/3/4
f 197/3/4 195/3/4 198/3/4
f 199/5/4 200/5/4 201/5/4
f 201/5/4 200/5/4 202/5/4
f 202/5/4 200/5/4 203/5/4
f 203/5/4 204/5/4 206/5/4
f 202/5/4 203/5/4 206/5/4
f 206/5/4 204/5/4 207/5/4
f 207/5/4 204/5/4 208/5/4
f 205/5/4 206/5/4 209/5/4
f 206/5/4 207/5/4 209/5/4
f 209/5/4 207/5/4 210/5/4
f 211/5/4 212/5/4 213/5/4
f 213/5/4 212/5/4 214/5/4
f 214/5/4 212/5/4 215/5/4
f 214/5/4 215/5/4 218/5/4
f 215/5/4 216/5/4 218/5/4
f 218/5/4 216/5/4 219/5/4
f 219/5/4 216/5/4 220/5/4
f 217/5/4 218/5/4 221/5/4
f 218/5/4 219/5/4 221/5/4
f 221/5/4 219/5/4 222/5/4
f 223/2/4 224/2/4 225/2/4
f 225/2/4 224/2/4 226/2/4
f 229/2/5 228/2/5 227/2/5
f 230/2/5 228/2/5 229/2/5
f 231/2/6 232/2/6 233/2/6
f 233/2/6 232/2/6 234/2/6
f 231/2/6 233/2/6 235/2/6
f 235/2/6 233/2/6 236/2/6
f 234/2/6 232/2/6 237/2/6
f 237/2/6 232/2/6 238/2/6
f 231/2/6 235/2/6 239/2/6
f 238/2/6 232/2/6 242/2/6
f 239/2/6 240/2/6 243/2/6
f 231/2/6 239/2/6 243/2/6
f 243/2/6 240/2/6 244/2/6
f 241/2/6 242/2/6 245/2/6
f 242/2/6 232/2/6 246/2/6
f 245/2/6 242/2/6 246/2/6
f 247/3/6 248/3/6 250/3/6
f 250/3/6 248/3/6 251/3/6
f 251/3/6 252/3/6 253/3/6
f 253/3/6 252/3/6 254/3/6
f 249/3/6 250/3/6 255/3/6
f 255/3/6 250/3/6 256/3/6
f 253/1/6 254/1/6 258/1/6
f 258/1/6 254/1/6 259/1/6
f 256/4/6 257/4/6 260/4/6
f 260/4/6 261/4/6 262/4/6
f 262/4/6 263/4/6 264/4/6
f 264/4/6 265/4/6 266/4/6
f 266/4/6 267/4/6 268/4/6
f 258/3/6 259/3/6 269/3/6
f 269/3/6 259/3/6 270/3/6
f 266/4/6 268/4/6 271/4/6
f 260/4/6 262/4/6 271/4/6
f 268/4/6 269/4/6 271/4/6
f 262/4/6 264/4/6 271/4/6
f 264/4/6 266/4/6 271/4/6
f 271/4/6 269/4/6 272/4/6
f 272/4/6 269/4/6 273/4/6
f 273/4/6 269/4/6 274/4/6
f 260/4/6 271/4/6 275/4/6
f 272/4/6 273/4/6 278/4/6
f 278/4/6 273/4/6 279/4/6
f 274/4/6 269/4/6 282/4/6
f 256/4/6 260/4/6 283/4/6
f 275/4/6 276/4/6 283/4/6
f 260/4/6 275/4/6 283/4/6
f 283/4/6 276/4/6 284/4/6
f 277/5/6 278/5/6 285/5/6
f 279/4/6 280/4/6 286/4/6
f 285/5/6 278/5/6 286/5/6
f 278/4/6 279/4/6 286/4/6
f 286/4/6 280/4/6 287/4/6
f 281/5/6 282/5/6 288/5/6
f 282/4/6 269/4/6 289/4/6
f 288/5/6 282/5/6 289/5/6
f 289/4/6 269/4/6 290/4/6
f 291/3/6 292/3/6 293/3/6
f 293/3/6 292/3/6 294/3/6
f 293/1/6 294/1/6 295/1/6
f 294/3/6 292/3/6 295/3/6
f 295/3/6 292/3/6 296/3/6
f 291/3/6 293/3/6 297/3/6
f 293/1/6 295/1/6 297/1/6
f 295/1/6 296/1/6 297/1/6
f 297/1/6 296/1/6 298/1/6
f 291/3/6 297/3/6 299/3/6
f 297/3/6 298/3/6 299/3/6
f 299/3/6 298/3/6 300/3/6
f 300/3/6 298/3/6 301/3/6
f 298/1/6 296/1/6 302/1/6
f 301/3/6 298/3/6 302/3/6
f 291/3/6 299/3/6 303/3/6
f 299/1/6 300/1/6 304/1/6
f 303/3/6 299/3/6 304/3/6
f 300/3/6 301/3/6 305/3/6
f 304/1/6 300/1/6 305/1/6
f 303/1/6 304/1/6 305/1/6
f 305/3/6 301/3/6 306/3/6
f 291/3/6 303/3/6 307/3/6
f 303/1/6 305/1/6 308/1/6
f 307/3/6 303/3/6 308/3/6
f 305/1/6 306/1/6 308/1/6
f 306/3/6 301/3/6 309/3/6
f 309/3/6 301/3/6 310/3/6
f 308/1/6 306/1/6 311/1/6
f 307/1/6 308/1/6 311/1/6
f 306/3/6 309/3/6 312/3/6
f 311/1/6 306/1/6 312/1/6
f 291/3/6 307/3/6 313/3/6
f 307/1/6 311/1/6 313/1/6
f 313/1/6 311/1/6 314/1/6
f 313/3/6 314/3/6 315/3/6
f 314/1/6 311/1/6 316/1/6
f 315/3/6 314/3/6 316/3/6
f 312/3/6 309/3/6 317/3/6
f 311/3/6 312/3/6 317/3/6
f 309/1/6 310/1/6 318/1/6
f 317/3/6 309/3/6 318/3/6
f 310/3/6 301/3/6 319/3/6
f 318/1/6 310/1/6 319/1/6
f 301/1/6 302/1/6 320/1/6
f 319/3/6 301/3/6 320/3/6
f 316/1/6 311/1/6 321/1/6
f 315/1/6 316/1/6 321/1/6
f 311/3/6 317/3/6 322/3/6
f 321/1/6 311/1/6 322/1/6
f 318/1/6 319/1/6 323/1/6
f 322/3/6 317/3/6 323/3/6
f 317/1/6 318/1/6 323/1/6
f 319/1/6 320/1/6 323/1/6
f 320/1/6 302/1/6 324/1/6
f 323/1/6 320/1/6 324/1/6
f 313/3/6 315/3/6 325/3/6
f 315/1/6 321/1/6 325/1/6
f 321/3/6 322/3/6 326/3/6
f 325/1/6 321/1/6 326/1/6
f 322/3/6 323/3/6 326/3/6
f 323/3/6 324/3/6 326/3/6
f 313/3/6 325/3/6 327/3/6
f 291/3/6 313/3/6 327/3/6
f 325/3/6 326/3/6 327/3/6
f 327/3/6 326/3/6 328/3/6
f 326/3/6 324/3/6 329/3/6
f 328/3/6 326/3/6 329/3/6
f 324/1/6 302/1/6 329/1/6
f 302/1/6 296/1/6 330/1/6
f 329/1/6 302/1/6 330/1/6
f 328/3/6 329/3/6 331/3/6
f 329/3/6 330/3/6 331/3/6
f 331/3/6 330/3/6 332/3/6
f 332/3/6 330/3/6 333/3/6
f 333/3/6 330/3/6 334/3/6
f 334/3/6 330/3/6 335/3/6
f 335/3/6 330/3/6 336/3/6
f 336/3/6 330/3/6 337/3/6
f 337/3/6 330/3/6 338/3/6
f 338/3/6 330/3/6 339/3/6
f 339/3/6 330/3/6 340/3/6
f 341/5/6 342/5/6 345/5/6
f 345/5/6 342/5/6 346/5/6
f 343/5/6 344/5/6 347/5/6
f 347/5/6 344/5/6 348/5/6
f 349/5/6 350/5/6 353/5/6
f 353/5/6 350/5/6 354/5/6
f 351/5/6 352/5/6 355/5/6
f 355/5/6 352/5/6 356/5/6
f 349/5/6 353/5/6 357/5/6
f 357/5/6 353/5/6 358/5/6
f 354/5/6 350/5/6 359/5/6
f 359/5/6 350/5/6 360/5/6
f 351/5/6 355/5/6 361/5/6
f 361/5/6 355/5/6 362/5/6
f 356/5/6 352/5/6 363/5/6
f 363/5/6 352/5/6 364/5/6
f 365/5/6 366/5/6 369/5/6
f 369/5/6 366/5/6 370/5/6
f 367/5/6 368/5/6 371/5/6
f 371/5/6 368/5/6 372/5/6
f 373/2/6 374/2/6 375/2/6
f 375/2/6 374/2/6 376/2/6
