# MagicaVoxel @ Ephtracy

# group
g brownbenchback

# material
mtllib brownbenchback.mtl
usemtl palette

# normals
vn -1 0 0
vn 1 0 0
vn 0 0 1
vn 0 0 -1
vn 0 -1 0
vn 0 1 0

# texcoords
vt 0.537109 0.5
vt 0.990234 0.5

# verts
v -1 0 33
v -1 0 28
v -1 0 17
v -1 0 12
v -1 4 33
v -1 4 32
v -1 4 28
v -1 4 26
v -1 4 19
v -1 4 17
v -1 4 13
v -1 4 12
v -1 6 32
v -1 6 30
v -1 6 26
v -1 6 19
v -1 6 15
v -1 6 13
v -1 7 27
v -1 7 18
v -1 11 24
v -1 11 21
v -1 12 27
v -1 12 24
v -1 12 21
v -1 12 18
v -1 12 15
v -1 12 14
v -1 12 13
v -1 12 12
v -1 13 31
v -1 13 30
v -1 13 14
v -1 13 13
v -1 14 32
v -1 14 31
v -1 14 29
v -1 14 15
v -1 14 13
v -1 14 12
v -1 15 33
v -1 15 32
v -1 15 30
v -1 15 29
v -1 15 15
v -1 15 13
v -1 16 31
v -1 16 30
v -1 19 31
v -1 19 30
v -1 20 31
v -1 20 30
v -1 23 31
v -1 23 30
v -1 24 31
v -1 24 30
v -1 27 31
v -1 27 30
v -1 32 33
v -1 32 31
v 0 28 31
v 0 28 30
v 0 31 31
v 0 31 30
v 51 0 33
v 51 0 28
v 51 0 17
v 51 0 12
v 51 4 33
v 51 4 32
v 51 4 28
v 51 4 26
v 51 4 19
v 51 4 17
v 51 4 13
v 51 4 12
v 51 6 32
v 51 6 30
v 51 6 26
v 51 6 19
v 51 6 15
v 51 6 13
v 51 7 27
v 51 7 18
v 51 11 24
v 51 11 21
v 51 12 27
v 51 12 24
v 51 12 21
v 51 12 18
v 51 12 15
v 51 12 14
v 51 12 13
v 51 12 12
v 51 13 31
v 51 13 30
v 51 13 14
v 51 13 13
v 51 14 32
v 51 14 31
v 51 14 29
v 51 14 15
v 51 14 13
v 51 14 12
v 51 15 33
v 51 15 32
v 51 15 30
v 51 15 29
v 51 15 15
v 51 15 13
v 51 16 31
v 51 16 30
v 51 19 31
v 51 20 31
v 51 23 31
v 51 24 31
v 51 27 31
v 51 28 31
v 51 31 31
v 51 32 33
v 51 32 31
v 1 0 33
v 1 0 28
v 1 0 17
v 1 0 12
v 1 4 33
v 1 4 32
v 1 4 28
v 1 4 26
v 1 4 19
v 1 4 17
v 1 4 13
v 1 4 12
v 1 6 32
v 1 6 30
v 1 6 26
v 1 6 19
v 1 6 15
v 1 6 13
v 1 7 27
v 1 7 18
v 1 11 24
v 1 11 21
v 1 12 27
v 1 12 24
v 1 12 21
v 1 12 18
v 1 12 15
v 1 12 14
v 1 12 13
v 1 12 12
v 1 13 31
v 1 13 30
v 1 13 14
v 1 13 13
v 1 14 32
v 1 14 31
v 1 14 29
v 1 14 15
v 1 14 13
v 1 14 12
v 1 15 33
v 1 15 32
v 1 15 30
v 1 15 29
v 1 15 15
v 1 15 13
v 1 16 31
v 1 16 30
v 1 19 31
v 1 20 31
v 1 23 31
v 1 24 31
v 1 27 31
v 1 28 31
v 1 31 31
v 1 32 33
v 1 32 31
v 53 0 33
v 53 0 28
v 53 0 17
v 53 0 12
v 53 4 33
v 53 4 32
v 53 4 28
v 53 4 26
v 53 4 19
v 53 4 17
v 53 4 13
v 53 4 12
v 53 6 32
v 53 6 30
v 53 6 26
v 53 6 19
v 53 6 15
v 53 6 13
v 53 7 27
v 53 7 18
v 53 11 24
v 53 11 21
v 53 12 27
v 53 12 24
v 53 12 21
v 53 12 18
v 53 12 15
v 53 12 14
v 53 12 13
v 53 12 12
v 53 13 31
v 53 13 30
v 53 13 14
v 53 13 13
v 53 14 32
v 53 14 31
v 53 14 29
v 53 14 15
v 53 14 13
v 53 14 12
v 53 15 33
v 53 15 32
v 53 15 30
v 53 15 29
v 53 15 15
v 53 15 13
v 53 16 31
v 53 16 30
v 53 19 31
v 53 19 30
v 53 20 31
v 53 20 30
v 53 23 31
v 53 23 30
v 53 24 31
v 53 24 30
v 53 27 31
v 53 27 30
v 53 28 31
v 53 28 30
v 53 31 31
v 53 31 30
v 53 32 33
v 53 32 31
v -1 0 33
v -1 4 33
v -1 15 33
v -1 32 33
v 1 0 33
v 1 4 33
v 1 15 33
v 1 32 33
v 51 0 33
v 51 4 33
v 51 15 33
v 51 32 33
v 53 0 33
v 53 4 33
v 53 15 33
v 53 32 33
v -1 4 32
v -1 6 32
v -1 14 32
v -1 15 32
v 1 4 32
v 1 6 32
v 1 14 32
v 1 15 32
v 51 4 32
v 51 6 32
v 51 14 32
v 51 15 32
v 53 4 32
v 53 6 32
v 53 14 32
v 53 15 32
v -1 13 31
v -1 14 31
v 1 13 31
v 1 14 31
v 1 16 31
v 1 19 31
v 1 20 31
v 1 23 31
v 1 24 31
v 1 27 31
v 1 28 31
v 1 31 31
v 51 13 31
v 51 14 31
v 51 16 31
v 51 19 31
v 51 20 31
v 51 23 31
v 51 24 31
v 51 27 31
v 51 28 31
v 51 31 31
v 53 13 31
v 53 14 31
v -1 6 30
v -1 13 30
v 1 6 30
v 1 13 30
v 51 6 30
v 51 13 30
v 53 6 30
v 53 13 30
v 1 14 29
v 1 15 29
v 51 14 29
v 51 15 29
v -1 11 24
v -1 12 24
v 1 11 24
v 1 12 24
v 51 11 24
v 51 12 24
v 53 11 24
v 53 12 24
v -1 4 19
v -1 6 19
v 1 4 19
v 1 6 19
v 51 4 19
v 51 6 19
v 53 4 19
v 53 6 19
v -1 7 18
v -1 12 18
v 1 7 18
v 1 12 18
v 51 7 18
v 51 12 18
v 53 7 18
v 53 12 18
v -1 0 17
v -1 4 17
v 1 0 17
v 1 4 17
v 51 0 17
v 51 4 17
v 53 0 17
v 53 4 17
v -1 12 13
v -1 13 13
v 1 12 13
v 1 13 13
v 51 12 13
v 51 13 13
v 53 12 13
v 53 13 13
v -1 19 31
v -1 20 31
v -1 23 31
v -1 24 31
v -1 27 31
v -1 32 31
v 0 28 31
v 0 31 31
v 1 19 31
v 1 20 31
v 1 23 31
v 1 24 31
v 1 27 31
v 1 28 31
v 1 31 31
v 1 32 31
v 51 19 31
v 51 20 31
v 51 23 31
v 51 24 31
v 51 27 31
v 51 28 31
v 51 31 31
v 51 32 31
v 53 19 31
v 53 20 31
v 53 23 31
v 53 24 31
v 53 27 31
v 53 28 31
v 53 31 31
v 53 32 31
v -1 15 30
v -1 16 30
v -1 19 30
v -1 20 30
v -1 23 30
v -1 24 30
v -1 27 30
v 0 28 30
v 0 31 30
v 1 15 30
v 1 16 30
v 51 15 30
v 51 16 30
v 53 15 30
v 53 16 30
v 53 19 30
v 53 20 30
v 53 23 30
v 53 24 30
v 53 27 30
v 53 28 30
v 53 31 30
v -1 0 28
v -1 4 28
v 1 0 28
v 1 4 28
v 51 0 28
v 51 4 28
v 53 0 28
v 53 4 28
v -1 7 27
v -1 12 27
v 1 7 27
v 1 12 27
v 51 7 27
v 51 12 27
v 53 7 27
v 53 12 27
v -1 4 26
v -1 6 26
v 1 4 26
v 1 6 26
v 51 4 26
v 51 6 26
v 53 4 26
v 53 6 26
v -1 11 21
v -1 12 21
v 1 11 21
v 1 12 21
v 51 11 21
v 51 12 21
v 53 11 21
v 53 12 21
v -1 6 15
v -1 12 15
v 1 6 15
v 1 12 15
v 1 14 15
v 1 15 15
v 51 6 15
v 51 12 15
v 51 14 15
v 51 15 15
v 53 6 15
v 53 12 15
v -1 12 14
v -1 13 14
v 1 12 14
v 1 13 14
v 51 12 14
v 51 13 14
v 53 12 14
v 53 13 14
v -1 4 13
v -1 6 13
v -1 14 13
v -1 15 13
v 1 4 13
v 1 6 13
v 1 14 13
v 1 15 13
v 51 4 13
v 51 6 13
v 51 14 13
v 51 15 13
v 53 4 13
v 53 6 13
v 53 14 13
v 53 15 13
v -1 0 12
v -1 4 12
v -1 12 12
v -1 14 12
v 1 0 12
v 1 4 12
v 1 12 12
v 1 14 12
v 51 0 12
v 51 4 12
v 51 12 12
v 51 14 12
v 53 0 12
v 53 4 12
v 53 12 12
v 53 14 12
v -1 0 33
v 1 0 33
v 51 0 33
v 53 0 33
v -1 0 28
v 1 0 28
v 51 0 28
v 53 0 28
v -1 0 17
v 1 0 17
v 51 0 17
v 53 0 17
v -1 0 12
v 1 0 12
v 51 0 12
v 53 0 12
v -1 4 28
v 1 4 28
v 51 4 28
v 53 4 28
v -1 4 26
v 1 4 26
v 51 4 26
v 53 4 26
v -1 4 19
v 1 4 19
v 51 4 19
v 53 4 19
v -1 4 17
v 1 4 17
v 51 4 17
v 53 4 17
v -1 6 26
v 1 6 26
v 51 6 26
v 53 6 26
v -1 6 19
v 1 6 19
v 51 6 19
v 53 6 19
v -1 11 24
v 1 11 24
v 51 11 24
v 53 11 24
v -1 11 21
v 1 11 21
v 51 11 21
v 53 11 21
v -1 12 27
v 1 12 27
v 51 12 27
v 53 12 27
v -1 12 24
v 1 12 24
v 51 12 24
v 53 12 24
v -1 12 21
v 1 12 21
v 51 12 21
v 53 12 21
v -1 12 18
v 1 12 18
v 51 12 18
v 53 12 18
v -1 12 15
v 1 12 15
v 51 12 15
v 53 12 15
v -1 12 14
v 1 12 14
v 51 12 14
v 53 12 14
v -1 12 13
v 1 12 13
v 51 12 13
v 53 12 13
v -1 12 12
v 1 12 12
v 51 12 12
v 53 12 12
v -1 13 31
v 1 13 31
v 51 13 31
v 53 13 31
v -1 13 30
v 1 13 30
v 51 13 30
v 53 13 30
v -1 13 14
v 1 13 14
v 51 13 14
v 53 13 14
v -1 13 13
v 1 13 13
v 51 13 13
v 53 13 13
v -1 14 32
v 1 14 32
v 51 14 32
v 53 14 32
v -1 14 31
v 1 14 31
v 51 14 31
v 53 14 31
v 1 14 29
v 51 14 29
v 1 14 15
v 51 14 15
v -1 15 33
v 1 15 33
v 51 15 33
v 53 15 33
v -1 15 32
v 1 15 32
v 51 15 32
v 53 15 32
v 1 16 31
v 51 16 31
v 1 16 30
v 51 16 30
v -1 20 31
v 1 20 31
v 51 20 31
v 53 20 31
v -1 20 30
v 53 20 30
v -1 24 31
v 1 24 31
v 51 24 31
v 53 24 31
v -1 24 30
v 53 24 30
v 0 28 31
v 1 28 31
v 51 28 31
v 53 28 31
v 0 28 30
v 53 28 30
v -1 4 33
v 1 4 33
v 51 4 33
v 53 4 33
v -1 4 32
v 1 4 32
v 51 4 32
v 53 4 32
v -1 4 13
v 1 4 13
v 51 4 13
v 53 4 13
v -1 4 12
v 1 4 12
v 51 4 12
v 53 4 12
v -1 6 32
v 1 6 32
v 51 6 32
v 53 6 32
v -1 6 30
v 1 6 30
v 51 6 30
v 53 6 30
v -1 6 15
v 1 6 15
v 51 6 15
v 53 6 15
v -1 6 13
v 1 6 13
v 51 6 13
v 53 6 13
v -1 7 27
v 1 7 27
v 51 7 27
v 53 7 27
v -1 7 18
v 1 7 18
v 51 7 18
v 53 7 18
v -1 14 13
v 1 14 13
v 51 14 13
v 53 14 13
v -1 14 12
v 1 14 12
v 51 14 12
v 53 14 12
v -1 15 30
v 1 15 30
v 51 15 30
v 53 15 30
v -1 15 29
v 1 15 29
v 51 15 29
v 53 15 29
v -1 15 15
v 1 15 15
v 51 15 15
v 53 15 15
v -1 15 13
v 1 15 13
v 51 15 13
v 53 15 13
v -1 19 31
v 1 19 31
v 51 19 31
v 53 19 31
v -1 19 30
v 53 19 30
v -1 23 31
v 1 23 31
v 51 23 31
v 53 23 31
v -1 23 30
v 53 23 30
v -1 27 31
v 1 27 31
v 51 27 31
v 53 27 31
v -1 27 30
v 53 27 30
v 0 31 31
v 1 31 31
v 51 31 31
v 53 31 31
v 0 31 30
v 53 31 30
v -1 32 33
v 1 32 33
v 51 32 33
v 53 32 33
v -1 32 31
v 1 32 31
v 51 32 31
v 53 32 31

# faces
f 5/2/1 2/2/1 1/2/1
f 6/2/1 2/2/1 5/2/1
f 7/2/1 2/2/1 6/2/1
f 10/2/1 4/2/1 3/2/1
f 11/2/1 4/2/1 10/2/1
f 12/2/1 4/2/1 11/2/1
f 13/2/1 8/2/1 7/2/1
f 13/2/1 7/2/1 6/2/1
f 14/2/1 8/2/1 13/2/1
f 15/2/1 8/2/1 14/2/1
f 16/2/1 11/2/1 10/2/1
f 16/2/1 10/2/1 9/2/1
f 17/2/1 11/2/1 16/2/1
f 18/2/1 11/2/1 17/2/1
f 19/2/1 15/2/1 14/2/1
f 19/2/1 17/2/1 16/2/1
f 19/2/1 16/2/1 15/2/1
f 20/2/1 17/2/1 19/2/1
f 23/2/1 19/2/1 14/2/1
f 24/2/1 22/2/1 21/2/1
f 25/2/1 22/2/1 24/2/1
f 26/2/1 17/2/1 20/2/1
f 27/2/1 17/2/1 26/2/1
f 32/2/1 28/2/1 27/2/1
f 32/2/1 23/2/1 14/2/1
f 32/2/1 27/2/1 26/2/1
f 32/2/1 26/2/1 25/2/1
f 32/2/1 25/2/1 24/2/1
f 32/2/1 24/2/1 23/2/1
f 33/2/1 28/2/1 32/2/1
f 34/2/1 30/2/1 29/2/1
f 36/2/1 33/2/1 32/2/1
f 36/2/1 34/2/1 33/2/1
f 36/2/1 32/2/1 31/2/1
f 37/2/1 34/2/1 36/2/1
f 38/2/1 34/2/1 37/2/1
f 39/2/1 30/2/1 34/2/1
f 39/2/1 34/2/1 38/2/1
f 40/2/1 30/2/1 39/2/1
f 42/2/1 36/2/1 35/2/1
f 42/2/1 37/2/1 36/2/1
f 43/2/1 37/2/1 42/2/1
f 44/1/1 38/1/1 37/1/1
f 44/2/1 37/2/1 43/2/1
f 45/2/1 39/2/1 38/2/1
f 45/1/1 38/1/1 44/1/1
f 46/2/1 39/2/1 45/2/1
f 47/2/1 43/2/1 42/2/1
f 47/2/1 42/2/1 41/2/1
f 48/2/1 43/2/1 47/2/1
f 49/2/1 47/2/1 41/2/1
f 49/1/1 48/1/1 47/1/1
f 50/1/1 48/1/1 49/1/1
f 51/2/1 49/2/1 41/2/1
f 53/2/1 51/2/1 41/2/1
f 53/1/1 52/1/1 51/1/1
f 54/1/1 52/1/1 53/1/1
f 55/2/1 53/2/1 41/2/1
f 57/2/1 55/2/1 41/2/1
f 57/1/1 56/1/1 55/1/1
f 58/1/1 56/1/1 57/1/1
f 59/2/1 57/2/1 41/2/1
f 60/2/1 57/2/1 59/2/1
f 63/1/1 62/1/1 61/1/1
f 64/1/1 62/1/1 63/1/1
f 69/2/1 66/2/1 65/2/1
f 70/2/1 66/2/1 69/2/1
f 71/2/1 66/2/1 70/2/1
f 74/2/1 68/2/1 67/2/1
f 75/2/1 68/2/1 74/2/1
f 76/2/1 68/2/1 75/2/1
f 77/2/1 72/2/1 71/2/1
f 77/2/1 71/2/1 70/2/1
f 78/2/1 72/2/1 77/2/1
f 79/2/1 72/2/1 78/2/1
f 80/2/1 75/2/1 74/2/1
f 80/2/1 74/2/1 73/2/1
f 81/2/1 75/2/1 80/2/1
f 82/2/1 75/2/1 81/2/1
f 83/2/1 79/2/1 78/2/1
f 83/2/1 81/2/1 80/2/1
f 83/2/1 80/2/1 79/2/1
f 84/2/1 81/2/1 83/2/1
f 87/2/1 83/2/1 78/2/1
f 88/2/1 86/2/1 85/2/1
f 89/2/1 86/2/1 88/2/1
f 90/2/1 81/2/1 84/2/1
f 91/2/1 81/2/1 90/2/1
f 96/2/1 92/2/1 91/2/1
f 96/2/1 87/2/1 78/2/1
f 96/2/1 91/2/1 90/2/1
f 96/2/1 90/2/1 89/2/1
f 96/2/1 89/2/1 88/2/1
f 96/2/1 88/2/1 87/2/1
f 97/2/1 92/2/1 96/2/1
f 98/2/1 94/2/1 93/2/1
f 100/2/1 97/2/1 96/2/1
f 100/2/1 98/2/1 97/2/1
f 100/2/1 96/2/1 95/2/1
f 101/2/1 98/2/1 100/2/1
f 102/2/1 98/2/1 101/2/1
f 103/2/1 94/2/1 98/2/1
f 103/2/1 98/2/1 102/2/1
f 104/2/1 94/2/1 103/2/1
f 106/2/1 100/2/1 99/2/1
f 106/2/1 101/2/1 100/2/1
f 107/2/1 101/2/1 106/2/1
f 108/2/1 101/2/1 107/2/1
f 109/2/1 103/2/1 102/2/1
f 110/2/1 103/2/1 109/2/1
f 111/2/1 106/2/1 105/2/1
f 111/2/1 107/2/1 106/2/1
f 112/2/1 107/2/1 111/2/1
f 113/2/1 111/2/1 105/2/1
f 114/2/1 113/2/1 105/2/1
f 115/2/1 114/2/1 105/2/1
f 116/2/1 115/2/1 105/2/1
f 117/2/1 116/2/1 105/2/1
f 118/2/1 117/2/1 105/2/1
f 119/2/1 118/2/1 105/2/1
f 120/2/1 119/2/1 105/2/1
f 121/2/1 119/2/1 120/2/1
f 122/2/2 123/2/2 126/2/2
f 126/2/2 123/2/2 127/2/2
f 127/2/2 123/2/2 128/2/2
f 124/2/2 125/2/2 131/2/2
f 131/2/2 125/2/2 132/2/2
f 132/2/2 125/2/2 133/2/2
f 128/2/2 129/2/2 134/2/2
f 127/2/2 128/2/2 134/2/2
f 134/2/2 129/2/2 135/2/2
f 135/2/2 129/2/2 136/2/2
f 131/2/2 132/2/2 137/2/2
f 130/2/2 131/2/2 137/2/2
f 137/2/2 132/2/2 138/2/2
f 138/2/2 132/2/2 139/2/2
f 135/2/2 136/2/2 140/2/2
f 137/2/2 138/2/2 140/2/2
f 136/2/2 137/2/2 140/2/2
f 140/2/2 138/2/2 141/2/2
f 135/2/2 140/2/2 144/2/2
f 142/2/2 143/2/2 145/2/2
f 145/2/2 143/2/2 146/2/2
f 141/2/2 138/2/2 147/2/2
f 147/2/2 138/2/2 148/2/2
f 148/2/2 149/2/2 153/2/2
f 135/2/2 144/2/2 153/2/2
f 147/2/2 148/2/2 153/2/2
f 146/2/2 147/2/2 153/2/2
f 145/2/2 146/2/2 153/2/2
f 144/2/2 145/2/2 153/2/2
f 153/2/2 149/2/2 154/2/2
f 150/2/2 151/2/2 155/2/2
f 153/2/2 154/2/2 157/2/2
f 154/2/2 155/2/2 157/2/2
f 152/2/2 153/2/2 157/2/2
f 157/2/2 155/2/2 158/2/2
f 158/2/2 155/2/2 159/2/2
f 155/2/2 151/2/2 160/2/2
f 159/2/2 155/2/2 160/2/2
f 160/2/2 151/2/2 161/2/2
f 156/2/2 157/2/2 163/2/2
f 157/2/2 158/2/2 163/2/2
f 163/2/2 158/2/2 164/2/2
f 164/2/2 158/2/2 165/2/2
f 159/2/2 160/2/2 166/2/2
f 166/2/2 160/2/2 167/2/2
f 162/2/2 163/2/2 168/2/2
f 163/2/2 164/2/2 168/2/2
f 168/2/2 164/2/2 169/2/2
f 162/2/2 168/2/2 170/2/2
f 162/2/2 170/2/2 171/2/2
f 162/2/2 171/2/2 172/2/2
f 162/2/2 172/2/2 173/2/2
f 162/2/2 173/2/2 174/2/2
f 162/2/2 174/2/2 175/2/2
f 162/2/2 175/2/2 176/2/2
f 162/2/2 176/2/2 177/2/2
f 177/2/2 176/2/2 178/2/2
f 179/2/2 180/2/2 183/2/2
f 183/2/2 180/2/2 184/2/2
f 184/2/2 180/2/2 185/2/2
f 181/2/2 182/2/2 188/2/2
f 188/2/2 182/2/2 189/2/2
f 189/2/2 182/2/2 190/2/2
f 185/2/2 186/2/2 191/2/2
f 184/2/2 185/2/2 191/2/2
f 191/2/2 186/2/2 192/2/2
f 192/2/2 186/2/2 193/2/2
f 188/2/2 189/2/2 194/2/2
f 187/2/2 188/2/2 194/2/2
f 194/2/2 189/2/2 195/2/2
f 195/2/2 189/2/2 196/2/2
f 192/2/2 193/2/2 197/2/2
f 194/2/2 195/2/2 197/2/2
f 193/2/2 194/2/2 197/2/2
f 197/2/2 195/2/2 198/2/2
f 192/2/2 197/2/2 201/2/2
f 199/2/2 200/2/2 202/2/2
f 202/2/2 200/2/2 203/2/2
f 198/2/2 195/2/2 204/2/2
f 204/2/2 195/2/2 205/2/2
f 205/2/2 206/2/2 210/2/2
f 192/2/2 201/2/2 210/2/2
f 204/2/2 205/2/2 210/2/2
f 203/2/2 204/2/2 210/2/2
f 202/2/2 203/2/2 210/2/2
f 201/2/2 202/2/2 210/2/2
f 210/2/2 206/2/2 211/2/2
f 207/2/2 208/2/2 212/2/2
f 210/2/2 211/2/2 214/2/2
f 211/2/2 212/2/2 214/2/2
f 209/2/2 210/2/2 214/2/2
f 214/2/2 212/2/2 215/2/2
f 215/2/2 212/2/2 216/2/2
f 212/2/2 208/2/2 217/2/2
f 216/2/2 212/2/2 217/2/2
f 217/2/2 208/2/2 218/2/2
f 213/2/2 214/2/2 220/2/2
f 214/2/2 215/2/2 220/2/2
f 220/2/2 215/2/2 221/2/2
f 215/1/2 216/1/2 222/1/2
f 221/2/2 215/2/2 222/2/2
f 216/2/2 217/2/2 223/2/2
f 222/1/2 216/1/2 223/1/2
f 223/2/2 217/2/2 224/2/2
f 220/2/2 221/2/2 225/2/2
f 219/2/2 220/2/2 225/2/2
f 225/2/2 221/2/2 226/2/2
f 219/2/2 225/2/2 227/2/2
f 225/1/2 226/1/2 227/1/2
f 227/1/2 226/1/2 228/1/2
f 219/2/2 227/2/2 229/2/2
f 219/2/2 229/2/2 231/2/2
f 229/1/2 230/1/2 231/1/2
f 231/1/2 230/1/2 232/1/2
f 219/2/2 231/2/2 233/2/2
f 219/2/2 233/2/2 235/2/2
f 233/1/2 234/1/2 235/1/2
f 235/1/2 234/1/2 236/1/2
f 219/2/2 235/2/2 237/2/2
f 219/2/2 237/2/2 239/2/2
f 237/1/2 238/1/2 239/1/2
f 239/1/2 238/1/2 240/1/2
f 219/2/2 239/2/2 241/2/2
f 241/2/2 239/2/2 242/2/2
f 247/2/3 244/2/3 243/2/3
f 248/2/3 244/2/3 247/2/3
f 249/2/3 246/2/3 245/2/3
f 250/2/3 246/2/3 249/2/3
f 255/2/3 252/2/3 251/2/3
f 256/2/3 252/2/3 255/2/3
f 257/2/3 254/2/3 253/2/3
f 258/2/3 254/2/3 257/2/3
f 263/2/3 260/2/3 259/2/3
f 264/2/3 260/2/3 263/2/3
f 265/2/3 262/2/3 261/2/3
f 266/2/3 262/2/3 265/2/3
f 271/2/3 268/2/3 267/2/3
f 272/2/3 268/2/3 271/2/3
f 273/2/3 270/2/3 269/2/3
f 274/2/3 270/2/3 273/2/3
f 277/2/3 276/2/3 275/2/3
f 278/2/3 276/2/3 277/2/3
f 289/1/3 280/1/3 279/1/3
f 290/1/3 280/1/3 289/1/3
f 291/1/3 282/1/3 281/1/3
f 292/1/3 282/1/3 291/1/3
f 293/1/3 284/1/3 283/1/3
f 294/1/3 284/1/3 293/1/3
f 295/1/3 286/1/3 285/1/3
f 296/1/3 286/1/3 295/1/3
f 297/2/3 288/2/3 287/2/3
f 298/2/3 288/2/3 297/2/3
f 301/2/3 300/2/3 299/2/3
f 302/2/3 300/2/3 301/2/3
f 305/2/3 304/2/3 303/2/3
f 306/2/3 304/2/3 305/2/3
f 309/1/3 308/1/3 307/1/3
f 310/1/3 308/1/3 309/1/3
f 313/2/3 312/2/3 311/2/3
f 314/2/3 312/2/3 313/2/3
f 317/2/3 316/2/3 315/2/3
f 318/2/3 316/2/3 317/2/3
f 321/2/3 320/2/3 319/2/3
f 322/2/3 320/2/3 321/2/3
f 325/2/3 324/2/3 323/2/3
f 326/2/3 324/2/3 325/2/3
f 329/2/3 328/2/3 327/2/3
f 330/2/3 328/2/3 329/2/3
f 333/2/3 332/2/3 331/2/3
f 334/2/3 332/2/3 333/2/3
f 337/2/3 336/2/3 335/2/3
f 338/2/3 336/2/3 337/2/3
f 341/2/3 340/2/3 339/2/3
f 342/2/3 340/2/3 341/2/3
f 345/2/3 344/2/3 343/2/3
f 346/2/3 344/2/3 345/2/3
f 349/2/3 348/2/3 347/2/3
f 350/2/3 348/2/3 349/2/3
f 355/2/4 356/2/4 357/2/4
f 357/2/4 356/2/4 358/2/4
f 351/2/4 352/2/4 359/2/4
f 359/2/4 352/2/4 360/2/4
f 353/2/4 354/2/4 361/2/4
f 361/2/4 354/2/4 362/2/4
f 355/2/4 357/2/4 363/2/4
f 363/2/4 357/2/4 364/2/4
f 358/2/4 356/2/4 365/2/4
f 365/2/4 356/2/4 366/2/4
f 367/2/4 368/2/4 375/2/4
f 375/2/4 368/2/4 376/2/4
f 369/2/4 370/2/4 377/2/4
f 377/2/4 370/2/4 378/2/4
f 371/2/4 372/2/4 379/2/4
f 379/2/4 372/2/4 380/2/4
f 373/2/4 374/2/4 381/2/4
f 381/2/4 374/2/4 382/2/4
f 383/2/4 384/2/4 392/2/4
f 384/1/4 385/1/4 393/1/4
f 392/2/4 384/2/4 393/2/4
f 393/1/4 385/1/4 395/1/4
f 394/2/4 395/2/4 396/2/4
f 395/1/4 385/1/4 397/1/4
f 396/2/4 395/2/4 397/2/4
f 397/1/4 385/1/4 398/1/4
f 386/1/4 387/1/4 399/1/4
f 399/1/4 387/1/4 400/1/4
f 388/1/4 389/1/4 401/1/4
f 401/1/4 389/1/4 402/1/4
f 390/1/4 391/1/4 403/1/4
f 403/1/4 391/1/4 404/1/4
f 405/2/4 406/2/4 407/2/4
f 407/2/4 406/2/4 408/2/4
f 409/2/4 410/2/4 411/2/4
f 411/2/4 410/2/4 412/2/4
f 413/2/4 414/2/4 415/2/4
f 415/2/4 414/2/4 416/2/4
f 417/2/4 418/2/4 419/2/4
f 419/2/4 418/2/4 420/2/4
f 421/2/4 422/2/4 423/2/4
f 423/2/4 422/2/4 424/2/4
f 425/2/4 426/2/4 427/2/4
f 427/2/4 426/2/4 428/2/4
f 429/2/4 430/2/4 431/2/4
f 431/2/4 430/2/4 432/2/4
f 433/2/4 434/2/4 435/2/4
f 435/2/4 434/2/4 436/2/4
f 437/2/4 438/2/4 439/2/4
f 439/2/4 438/2/4 440/2/4
f 441/1/4 442/1/4 445/1/4
f 445/1/4 442/1/4 446/1/4
f 443/2/4 444/2/4 447/2/4
f 447/2/4 444/2/4 448/2/4
f 449/2/4 450/2/4 451/2/4
f 451/2/4 450/2/4 452/2/4
f 453/2/4 454/2/4 455/2/4
f 455/2/4 454/2/4 456/2/4
f 457/2/4 458/2/4 461/2/4
f 461/2/4 458/2/4 462/2/4
f 459/2/4 460/2/4 463/2/4
f 463/2/4 460/2/4 464/2/4
f 465/2/4 466/2/4 469/2/4
f 469/2/4 466/2/4 470/2/4
f 467/2/4 468/2/4 471/2/4
f 471/2/4 468/2/4 472/2/4
f 473/2/4 474/2/4 477/2/4
f 477/2/4 474/2/4 478/2/4
f 475/2/4 476/2/4 479/2/4
f 479/2/4 476/2/4 480/2/4
f 481/2/4 482/2/4 485/2/4
f 485/2/4 482/2/4 486/2/4
f 483/2/4 484/2/4 487/2/4
f 487/2/4 484/2/4 488/2/4
f 493/2/5 490/2/5 489/2/5
f 494/2/5 490/2/5 493/2/5
f 495/2/5 492/2/5 491/2/5
f 496/2/5 492/2/5 495/2/5
f 501/2/5 498/2/5 497/2/5
f 502/2/5 498/2/5 501/2/5
f 503/2/5 500/2/5 499/2/5
f 504/2/5 500/2/5 503/2/5
f 509/2/5 506/2/5 505/2/5
f 510/2/5 506/2/5 509/2/5
f 511/2/5 508/2/5 507/2/5
f 512/2/5 508/2/5 511/2/5
f 517/2/5 514/2/5 513/2/5
f 518/2/5 514/2/5 517/2/5
f 519/2/5 516/2/5 515/2/5
f 520/2/5 516/2/5 519/2/5
f 525/2/5 522/2/5 521/2/5
f 526/2/5 522/2/5 525/2/5
f 527/2/5 524/2/5 523/2/5
f 528/2/5 524/2/5 527/2/5
f 533/2/5 530/2/5 529/2/5
f 534/2/5 530/2/5 533/2/5
f 535/2/5 532/2/5 531/2/5
f 536/2/5 532/2/5 535/2/5
f 541/2/5 538/2/5 537/2/5
f 542/2/5 538/2/5 541/2/5
f 543/2/5 540/2/5 539/2/5
f 544/2/5 540/2/5 543/2/5
f 549/2/5 546/2/5 545/2/5
f 550/2/5 546/2/5 549/2/5
f 551/2/5 548/2/5 547/2/5
f 552/2/5 548/2/5 551/2/5
f 557/2/5 554/2/5 553/2/5
f 558/2/5 554/2/5 557/2/5
f 559/2/5 556/2/5 555/2/5
f 560/2/5 556/2/5 559/2/5
f 565/2/5 562/2/5 561/2/5
f 566/2/5 562/2/5 565/2/5
f 567/2/5 564/2/5 563/2/5
f 568/2/5 564/2/5 567/2/5
f 573/2/5 570/2/5 569/2/5
f 574/2/5 570/2/5 573/2/5
f 575/2/5 572/2/5 571/2/5
f 576/2/5 572/2/5 575/2/5
f 581/2/5 578/2/5 577/2/5
f 582/2/5 578/2/5 581/2/5
f 583/2/5 580/2/5 579/2/5
f 584/2/5 580/2/5 583/2/5
f 589/2/5 586/2/5 585/2/5
f 590/2/5 586/2/5 589/2/5
f 591/2/5 588/2/5 587/2/5
f 592/2/5 588/2/5 591/2/5
f 595/1/5 594/1/5 593/1/5
f 596/1/5 594/1/5 595/1/5
f 601/2/5 598/2/5 597/2/5
f 602/2/5 598/2/5 601/2/5
f 603/2/5 600/2/5 599/2/5
f 604/2/5 600/2/5 603/2/5
f 607/1/5 606/1/5 605/1/5
f 608/1/5 606/1/5 607/1/5
f 613/1/5 610/1/5 609/1/5
f 613/1/5 612/1/5 611/1/5
f 613/1/5 611/1/5 610/1/5
f 614/1/5 612/1/5 613/1/5
f 619/1/5 616/1/5 615/1/5
f 619/1/5 618/1/5 617/1/5
f 619/1/5 617/1/5 616/1/5
f 620/1/5 618/1/5 619/1/5
f 625/1/5 622/1/5 621/1/5
f 625/1/5 624/1/5 623/1/5
f 625/1/5 623/1/5 622/1/5
f 626/1/5 624/1/5 625/1/5
f 627/2/6 628/2/6 631/2/6
f 631/2/6 628/2/6 632/2/6
f 629/2/6 630/2/6 633/2/6
f 633/2/6 630/2/6 634/2/6
f 635/2/6 636/2/6 639/2/6
f 639/2/6 636/2/6 640/2/6
f 637/2/6 638/2/6 641/2/6
f 641/2/6 638/2/6 642/2/6
f 643/2/6 644/2/6 647/2/6
f 647/2/6 644/2/6 648/2/6
f 645/2/6 646/2/6 649/2/6
f 649/2/6 646/2/6 650/2/6
f 651/2/6 652/2/6 655/2/6
f 655/2/6 652/2/6 656/2/6
f 653/2/6 654/2/6 657/2/6
f 657/2/6 654/2/6 658/2/6
f 659/2/6 660/2/6 663/2/6
f 663/2/6 660/2/6 664/2/6
f 661/2/6 662/2/6 665/2/6
f 665/2/6 662/2/6 666/2/6
f 667/2/6 668/2/6 671/2/6
f 671/2/6 668/2/6 672/2/6
f 669/2/6 670/2/6 673/2/6
f 673/2/6 670/2/6 674/2/6
f 675/2/6 676/2/6 679/2/6
f 679/2/6 676/2/6 680/2/6
f 677/2/6 678/2/6 681/2/6
f 681/2/6 678/2/6 682/2/6
f 679/1/6 680/1/6 683/1/6
f 680/1/6 681/1/6 683/1/6
f 681/1/6 682/1/6 683/1/6
f 683/1/6 682/1/6 684/1/6
f 684/1/6 682/1/6 685/1/6
f 685/1/6 682/1/6 686/1/6
f 683/2/6 684/2/6 687/2/6
f 687/2/6 684/2/6 688/2/6
f 685/2/6 686/2/6 689/2/6
f 689/2/6 686/2/6 690/2/6
f 691/1/6 692/1/6 695/1/6
f 693/1/6 694/1/6 695/1/6
f 692/1/6 693/1/6 695/1/6
f 695/1/6 694/1/6 696/1/6
f 697/1/6 698/1/6 701/1/6
f 699/1/6 700/1/6 701/1/6
f 698/1/6 699/1/6 701/1/6
f 701/1/6 700/1/6 702/1/6
f 703/1/6 704/1/6 707/1/6
f 705/1/6 706/1/6 707/1/6
f 704/1/6 705/1/6 707/1/6
f 707/1/6 706/1/6 708/1/6
f 709/1/6 710/1/6 713/1/6
f 711/1/6 712/1/6 713/1/6
f 710/1/6 711/1/6 713/1/6
f 713/1/6 712/1/6 714/1/6
f 715/2/6 716/2/6 719/2/6
f 719/2/6 716/2/6 720/2/6
f 717/2/6 718/2/6 721/2/6
f 721/2/6 718/2/6 722/2/6
