# MagicaVoxel @ Ephtracy

# group
g 4x2 second-6

# material
mtllib 4x2 second-6.mtl
usemtl palette

# normals
vn -1 0 0
vn 1 0 0
vn 0 0 1
vn 0 0 -1
vn 0 -1 0
vn 0 1 0

# texcoords
vt 0.396484 0.5
vt 0.966797 0.5

# verts
v -63 0 63
v -63 0 -4
v -63 0 -62
v -63 0 -63
v -63 5 63
v -63 5 -4
v -63 8 -4
v -63 8 -14
v -63 15 -14
v -63 15 -25
v -63 22 -25
v -63 22 -61
v -63 22 -62
v -63 80 -61
v -63 80 -63
v -32 22 -25
v -32 22 -61
v -32 25 -25
v -32 25 -61
v -22 25 -25
v -22 25 -61
v -22 32 -25
v -22 32 -61
v -11 32 -25
v -11 32 -61
v -11 39 -25
v -11 39 -61
v 21 32 4
v 21 32 -25
v 21 39 14
v 21 39 4
v 21 39 -25
v 21 39 -28
v 21 46 25
v 21 46 14
v 21 46 -17
v 21 46 -28
v 21 53 36
v 21 53 25
v 21 53 -7
v 21 53 -17
v 21 60 63
v 21 60 36
v 21 60 4
v 21 60 -7
v 21 67 14
v 21 67 4
v 21 74 25
v 21 74 14
v 21 80 63
v 21 80 25
v 61 0 25
v 61 0 -61
v 61 5 63
v 61 5 25
v 61 32 -7
v 61 32 -61
v 61 39 4
v 61 39 -7
v 61 39 -28
v 61 39 -61
v 61 46 14
v 61 46 4
v 61 46 -17
v 61 46 -28
v 61 53 25
v 61 53 14
v 61 53 -7
v 61 53 -17
v 61 60 63
v 61 60 25
v 61 60 4
v 61 60 -7
v 61 67 14
v 61 67 4
v 61 74 25
v 61 74 14
v 61 80 25
v 61 80 -61
v -25 5 -4
v -25 5 -25
v -25 8 -4
v -25 8 -14
v -25 15 -14
v -25 15 -25
v 20 5 -25
v 20 5 -26
v 20 32 -25
v 20 32 -26
v 21 0 25
v 21 0 -25
v 21 0 -26
v 21 3 -26
v 21 4 -25
v 21 4 -26
v 21 5 25
v 21 5 -26
v 59 32 4
v 59 32 -7
v 59 39 14
v 59 39 4
v 59 39 -7
v 59 46 25
v 59 46 14
v 59 46 4
v 59 53 36
v 59 53 25
v 59 53 14
v 59 60 36
v 59 60 25
v 60 0 -26
v 60 0 -61
v 60 5 -26
v 60 5 -61
v 60 32 -26
v 60 32 -61
v 63 0 63
v 63 0 -63
v 63 80 63
v 63 80 -63
v -63 0 63
v -63 5 63
v 21 60 63
v 21 80 63
v 61 5 63
v 61 60 63
v 61 80 63
v 63 0 63
v 63 80 63
v 21 53 36
v 21 60 36
v 59 53 36
v 59 60 36
v 21 46 25
v 21 53 25
v 59 46 25
v 59 53 25
v 59 60 25
v 61 53 25
v 61 60 25
v 21 39 14
v 21 46 14
v 59 39 14
v 59 46 14
v 59 53 14
v 61 46 14
v 61 53 14
v 21 32 4
v 21 39 4
v 59 32 4
v 59 39 4
v 59 46 4
v 61 39 4
v 61 46 4
v -63 5 -4
v -63 8 -4
v -25 5 -4
v -25 8 -4
v 59 32 -7
v 59 39 -7
v 61 32 -7
v 61 39 -7
v -63 8 -14
v -63 15 -14
v -25 8 -14
v -25 15 -14
v -63 15 -25
v -63 22 -25
v -32 22 -25
v -32 25 -25
v -25 5 -25
v -25 15 -25
v -22 25 -25
v -22 32 -25
v -11 32 -25
v -11 39 -25
v 20 5 -25
v 20 32 -25
v 21 32 -25
v 21 39 -25
v 20 5 -26
v 20 32 -26
v 21 0 -26
v 21 3 -26
v 21 4 -26
v 21 5 -26
v 59 3 -26
v 59 5 -26
v 60 0 -26
v 60 5 -26
v 60 32 -26
v -63 22 -61
v -63 80 -61
v -32 22 -61
v -32 25 -61
v -22 25 -61
v -22 32 -61
v -11 32 -61
v -11 39 -61
v 60 0 -61
v 60 5 -61
v 60 32 -61
v 61 0 -61
v 61 32 -61
v 61 39 -61
v 61 80 -61
v 21 0 25
v 21 5 25
v 21 74 25
v 21 80 25
v 61 0 25
v 61 5 25
v 61 74 25
v 61 80 25
v 21 67 14
v 21 74 14
v 61 67 14
v 61 74 14
v 21 60 4
v 21 67 4
v 61 60 4
v 61 67 4
v 21 53 -7
v 21 60 -7
v 61 53 -7
v 61 60 -7
v 21 46 -17
v 21 53 -17
v 61 46 -17
v 61 53 -17
v 21 39 -28
v 21 46 -28
v 61 39 -28
v 61 46 -28
v -63 0 -63
v -63 80 -63
v 63 0 -63
v 63 80 -63
v -63 0 63
v 63 0 63
v 21 0 25
v 61 0 25
v -63 0 -4
v -25 0 -4
v -25 0 -25
v 21 0 -25
v 21 0 -26
v 60 0 -26
v 60 0 -61
v 61 0 -61
v -63 0 -62
v 21 0 -62
v -63 0 -63
v 63 0 -63
v 21 32 4
v 59 32 4
v 59 32 -7
v 61 32 -7
v 20 32 -25
v 21 32 -25
v 20 32 -26
v 60 32 -26
v 60 32 -61
v 61 32 -61
v 21 39 14
v 59 39 14
v 21 39 4
v 59 39 4
v 61 39 4
v 59 39 -7
v 61 39 -7
v 21 46 25
v 59 46 25
v 21 46 14
v 59 46 14
v 61 46 14
v 59 46 4
v 61 46 4
v 21 53 36
v 59 53 36
v 21 53 25
v 59 53 25
v 61 53 25
v 59 53 14
v 61 53 14
v 21 60 63
v 61 60 63
v 21 60 36
v 59 60 36
v 59 60 25
v 61 60 25
v -63 5 63
v 61 5 63
v 21 5 25
v 61 5 25
v -63 5 -4
v -25 5 -4
v -25 5 -25
v 20 5 -25
v 20 5 -26
v 21 5 -26
v -63 8 -4
v -25 8 -4
v -63 8 -14
v -25 8 -14
v -63 15 -14
v -25 15 -14
v -63 15 -25
v -25 15 -25
v -63 22 -25
v -32 22 -25
v -63 22 -61
v -32 22 -61
v -32 25 -25
v -22 25 -25
v -32 25 -61
v -22 25 -61
v -22 32 -25
v -11 32 -25
v -22 32 -61
v -11 32 -61
v -11 39 -25
v 21 39 -25
v 21 39 -28
v 61 39 -28
v -11 39 -61
v 61 39 -61
v 21 46 -17
v 61 46 -17
v 21 46 -28
v 61 46 -28
v 21 53 -7
v 61 53 -7
v 21 53 -17
v 61 53 -17
v 21 60 4
v 61 60 4
v 21 60 -7
v 61 60 -7
v 21 67 14
v 61 67 14
v 21 67 4
v 61 67 4
v 21 74 25
v 61 74 25
v 21 74 14
v 61 74 14
v 21 80 63
v 61 80 63
v 63 80 63
v 21 80 25
v 61 80 25
v -63 80 -61
v 61 80 -61
v -63 80 -63
v 63 80 -63

# faces
f 5/2/1 2/2/1 1/2/1
f 6/1/1 3/1/1 2/1/1
f 6/2/1 2/2/1 5/2/1
f 7/1/1 3/1/1 6/1/1
f 8/1/1 3/1/1 7/1/1
f 9/1/1 3/1/1 8/1/1
f 10/1/1 3/1/1 9/1/1
f 11/1/1 3/1/1 10/1/1
f 12/1/1 3/1/1 11/1/1
f 13/2/1 4/2/1 3/2/1
f 13/1/1 3/1/1 12/1/1
f 14/2/1 13/2/1 12/2/1
f 15/2/1 4/2/1 13/2/1
f 15/2/1 13/2/1 14/2/1
f 18/1/1 17/1/1 16/1/1
f 19/1/1 17/1/1 18/1/1
f 22/1/1 21/1/1 20/1/1
f 23/1/1 21/1/1 22/1/1
f 26/1/1 25/1/1 24/1/1
f 27/1/1 25/1/1 26/1/1
f 31/1/1 29/1/1 28/1/1
f 32/1/1 29/1/1 31/1/1
f 35/1/1 31/1/1 30/1/1
f 35/1/1 33/1/1 32/1/1
f 35/1/1 32/1/1 31/1/1
f 36/1/1 33/1/1 35/1/1
f 37/1/1 33/1/1 36/1/1
f 39/1/1 35/1/1 34/1/1
f 39/1/1 36/1/1 35/1/1
f 40/1/1 36/1/1 39/1/1
f 41/1/1 36/1/1 40/1/1
f 43/1/1 39/1/1 38/1/1
f 43/1/1 40/1/1 39/1/1
f 44/1/1 40/1/1 43/1/1
f 45/1/1 40/1/1 44/1/1
f 46/1/1 43/1/1 42/1/1
f 46/1/1 44/1/1 43/1/1
f 47/1/1 44/1/1 46/1/1
f 48/1/1 46/1/1 42/1/1
f 49/1/1 46/1/1 48/1/1
f 50/1/1 48/1/1 42/1/1
f 51/1/1 48/1/1 50/1/1
f 55/2/1 53/2/1 52/2/1
f 56/2/1 53/2/1 55/2/1
f 56/2/1 55/2/1 54/2/1
f 57/2/1 53/2/1 56/2/1
f 58/2/1 56/2/1 54/2/1
f 59/2/1 56/2/1 58/2/1
f 62/2/1 58/2/1 54/2/1
f 63/2/1 58/2/1 62/2/1
f 65/2/1 61/2/1 60/2/1
f 66/2/1 62/2/1 54/2/1
f 67/2/1 62/2/1 66/2/1
f 69/2/1 65/2/1 64/2/1
f 70/2/1 66/2/1 54/2/1
f 71/2/1 66/2/1 70/2/1
f 73/2/1 69/2/1 68/2/1
f 75/2/1 73/2/1 72/2/1
f 77/2/1 75/2/1 74/2/1
f 78/2/1 77/2/1 76/2/1
f 79/2/1 69/2/1 73/2/1
f 79/2/1 77/2/1 78/2/1
f 79/2/1 61/2/1 65/2/1
f 79/2/1 75/2/1 77/2/1
f 79/2/1 65/2/1 69/2/1
f 79/2/1 73/2/1 75/2/1
f 80/1/2 81/1/2 82/1/2
f 82/1/2 81/1/2 83/1/2
f 83/1/2 81/1/2 84/1/2
f 84/1/2 81/1/2 85/1/2
f 86/1/2 87/1/2 88/1/2
f 88/1/2 87/1/2 89/1/2
f 91/1/2 92/1/2 93/1/2
f 90/2/2 91/2/2 94/2/2
f 91/1/2 93/1/2 94/1/2
f 94/1/2 93/1/2 95/1/2
f 90/2/2 94/2/2 96/2/2
f 94/2/2 95/2/2 96/2/2
f 96/2/2 95/2/2 97/2/2
f 98/1/2 99/1/2 101/1/2
f 101/1/2 99/1/2 102/1/2
f 100/1/2 101/1/2 104/1/2
f 104/1/2 101/1/2 105/1/2
f 103/1/2 104/1/2 107/1/2
f 107/1/2 104/1/2 108/1/2
f 106/1/2 107/1/2 109/1/2
f 109/1/2 107/1/2 110/1/2
f 111/2/2 112/2/2 113/2/2
f 113/2/2 112/2/2 114/2/2
f 113/1/2 114/1/2 115/1/2
f 115/1/2 114/1/2 116/1/2
f 117/2/2 118/2/2 119/2/2
f 119/2/2 118/2/2 120/2/2
f 125/2/3 122/2/3 121/2/3
f 126/1/3 124/1/3 123/1/3
f 127/1/3 124/1/3 126/1/3
f 128/2/3 125/2/3 121/2/3
f 128/2/3 126/2/3 125/2/3
f 128/2/3 127/2/3 126/2/3
f 129/2/3 127/2/3 128/2/3
f 132/1/3 131/1/3 130/1/3
f 133/1/3 131/1/3 132/1/3
f 136/1/3 135/1/3 134/1/3
f 137/1/3 135/1/3 136/1/3
f 139/1/3 138/1/3 137/1/3
f 140/1/3 138/1/3 139/1/3
f 143/1/3 142/1/3 141/1/3
f 144/1/3 142/1/3 143/1/3
f 146/1/3 145/1/3 144/1/3
f 147/1/3 145/1/3 146/1/3
f 150/1/3 149/1/3 148/1/3
f 151/1/3 149/1/3 150/1/3
f 153/1/3 152/1/3 151/1/3
f 154/1/3 152/1/3 153/1/3
f 157/1/3 156/1/3 155/1/3
f 158/1/3 156/1/3 157/1/3
f 161/1/3 160/1/3 159/1/3
f 162/1/3 160/1/3 161/1/3
f 165/1/3 164/1/3 163/1/3
f 166/1/3 164/1/3 165/1/3
f 169/1/3 168/1/3 167/1/3
f 172/1/3 169/1/3 167/1/3
f 172/1/3 170/1/3 169/1/3
f 173/1/3 170/1/3 172/1/3
f 173/1/3 172/1/3 171/1/3
f 175/1/3 174/1/3 173/1/3
f 177/1/3 173/1/3 171/1/3
f 177/1/3 176/1/3 175/1/3
f 177/1/3 175/1/3 173/1/3
f 178/1/3 176/1/3 177/1/3
f 179/1/3 176/1/3 178/1/3
f 180/1/3 176/1/3 179/1/3
f 186/1/3 182/1/3 181/1/3
f 187/1/3 185/1/3 184/1/3
f 187/1/3 186/1/3 185/1/3
f 187/2/3 184/2/3 183/2/3
f 188/1/3 182/1/3 186/1/3
f 188/1/3 186/1/3 187/1/3
f 189/2/3 187/2/3 183/2/3
f 189/2/3 188/2/3 187/2/3
f 190/1/3 182/1/3 188/1/3
f 190/2/3 188/2/3 189/2/3
f 191/1/3 182/1/3 190/1/3
f 194/2/3 193/2/3 192/2/3
f 195/2/3 193/2/3 194/2/3
f 196/2/3 193/2/3 195/2/3
f 197/2/3 193/2/3 196/2/3
f 198/2/3 193/2/3 197/2/3
f 199/2/3 193/2/3 198/2/3
f 203/2/3 201/2/3 200/2/3
f 203/2/3 202/2/3 201/2/3
f 204/2/3 202/2/3 203/2/3
f 205/2/3 193/2/3 199/2/3
f 206/2/3 193/2/3 205/2/3
f 207/2/4 208/2/4 211/2/4
f 211/2/4 208/2/4 212/2/4
f 209/1/4 210/1/4 213/1/4
f 213/1/4 210/1/4 214/1/4
f 215/1/4 216/1/4 217/1/4
f 217/1/4 216/1/4 218/1/4
f 219/1/4 220/1/4 221/1/4
f 221/1/4 220/1/4 222/1/4
f 223/1/4 224/1/4 225/1/4
f 225/1/4 224/1/4 226/1/4
f 227/1/4 228/1/4 229/1/4
f 229/1/4 228/1/4 230/1/4
f 231/1/4 232/1/4 233/1/4
f 233/1/4 232/1/4 234/1/4
f 235/2/4 236/2/4 237/2/4
f 237/2/4 236/2/4 238/2/4
f 241/2/5 240/2/5 239/2/5
f 242/2/5 240/2/5 241/2/5
f 243/2/5 241/2/5 239/2/5
f 244/2/5 241/2/5 243/2/5
f 245/1/5 244/1/5 243/1/5
f 245/2/5 241/2/5 244/2/5
f 246/2/5 241/2/5 245/2/5
f 247/1/5 246/1/5 245/1/5
f 249/2/5 248/2/5 247/2/5
f 250/2/5 240/2/5 242/2/5
f 251/1/5 245/1/5 243/1/5
f 251/1/5 247/1/5 245/1/5
f 252/2/5 249/2/5 247/2/5
f 252/1/5 247/1/5 251/1/5
f 252/2/5 250/2/5 249/2/5
f 253/2/5 252/2/5 251/2/5
f 254/2/5 240/2/5 250/2/5
f 254/2/5 252/2/5 253/2/5
f 254/2/5 250/2/5 252/2/5
f 257/1/5 256/1/5 255/1/5
f 260/1/5 257/1/5 255/1/5
f 260/1/5 258/1/5 257/1/5
f 261/1/5 260/1/5 259/1/5
f 262/1/5 258/1/5 260/1/5
f 262/1/5 260/1/5 261/1/5
f 263/1/5 258/1/5 262/1/5
f 264/1/5 258/1/5 263/1/5
f 267/1/5 266/1/5 265/1/5
f 268/1/5 266/1/5 267/1/5
f 270/1/5 269/1/5 268/1/5
f 271/1/5 269/1/5 270/1/5
f 274/1/5 273/1/5 272/1/5
f 275/1/5 273/1/5 274/1/5
f 277/1/5 276/1/5 275/1/5
f 278/1/5 276/1/5 277/1/5
f 281/1/5 280/1/5 279/1/5
f 282/1/5 280/1/5 281/1/5
f 284/1/5 283/1/5 282/1/5
f 285/1/5 283/1/5 284/1/5
f 288/1/5 287/1/5 286/1/5
f 289/1/5 287/1/5 288/1/5
f 290/1/5 287/1/5 289/1/5
f 291/1/5 287/1/5 290/1/5
f 292/2/6 293/2/6 294/2/6
f 294/2/6 293/2/6 295/2/6
f 292/2/6 294/2/6 296/2/6
f 296/2/6 294/2/6 297/2/6
f 297/2/6 294/2/6 298/2/6
f 298/2/6 294/2/6 299/2/6
f 299/2/6 294/2/6 300/2/6
f 300/2/6 294/2/6 301/2/6
f 302/1/6 303/1/6 304/1/6
f 304/1/6 303/1/6 305/1/6
f 306/1/6 307/1/6 308/1/6
f 308/1/6 307/1/6 309/1/6
f 310/1/6 311/1/6 312/1/6
f 312/1/6 311/1/6 313/1/6
f 314/1/6 315/1/6 316/1/6
f 316/1/6 315/1/6 317/1/6
f 318/1/6 319/1/6 320/1/6
f 320/1/6 319/1/6 321/1/6
f 322/1/6 323/1/6 324/1/6
f 322/1/6 324/1/6 326/1/6
f 324/1/6 325/1/6 326/1/6
f 326/1/6 325/1/6 327/1/6
f 328/1/6 329/1/6 330/1/6
f 330/1/6 329/1/6 331/1/6
f 332/1/6 333/1/6 334/1/6
f 334/1/6 333/1/6 335/1/6
f 336/1/6 337/1/6 338/1/6
f 338/1/6 337/1/6 339/1/6
f 340/1/6 341/1/6 342/1/6
f 342/1/6 341/1/6 343/1/6
f 344/1/6 345/1/6 346/1/6
f 346/1/6 345/1/6 347/1/6
f 348/1/6 349/1/6 351/1/6
f 349/2/6 350/2/6 352/2/6
f 351/1/6 349/1/6 352/1/6
f 352/2/6 350/2/6 354/2/6
f 353/2/6 354/2/6 355/2/6
f 354/2/6 350/2/6 356/2/6
f 355/2/6 354/2/6 356/2/6
