# MagicaVoxel @ Ephtracy

# group
g woodcrate2

# material
mtllib woodcrate2.mtl
usemtl palette

# normals
vn -1 0 0
vn 1 0 0
vn 0 0 1
vn 0 0 -1
vn 0 -1 0
vn 0 1 0

# texcoords
vt 0.0332031 0.5
vt 0.0605469 0.5
vt 0.986328 0.5

# verts
v -15 0 -9
v -15 0 -38
v -15 1 -10
v -15 1 -37
v -15 2 -11
v -15 2 -36
v -15 28 -11
v -15 28 -36
v -15 29 -10
v -15 29 -37
v -15 30 -9
v -15 30 -38
v -14 2 -11
v -14 2 -14
v -14 2 -15
v -14 2 -20
v -14 2 -21
v -14 2 -26
v -14 2 -27
v -14 2 -32
v -14 2 -33
v -14 2 -36
v -14 28 -11
v -14 28 -14
v -14 28 -15
v -14 28 -20
v -14 28 -21
v -14 28 -26
v -14 28 -27
v -14 28 -32
v -14 28 -33
v -14 28 -36
v 12 2 -9
v 12 2 -10
v 12 2 -37
v 12 2 -38
v 12 28 -9
v 12 28 -10
v 12 28 -37
v 12 28 -38
v 12 29 -11
v 12 29 -36
v 12 30 -11
v 12 30 -36
v -13 2 -9
v -13 2 -10
v -13 2 -37
v -13 2 -38
v -13 28 -9
v -13 28 -10
v -13 28 -37
v -13 28 -38
v -13 29 -11
v -13 29 -36
v -13 30 -11
v -13 30 -36
v 13 2 -11
v 13 2 -14
v 13 2 -15
v 13 2 -20
v 13 2 -21
v 13 2 -26
v 13 2 -27
v 13 2 -32
v 13 2 -33
v 13 2 -36
v 13 28 -11
v 13 28 -14
v 13 28 -15
v 13 28 -20
v 13 28 -21
v 13 28 -26
v 13 28 -27
v 13 28 -32
v 13 28 -33
v 13 28 -36
v 14 0 -9
v 14 0 -38
v 14 1 -10
v 14 1 -37
v 14 2 -11
v 14 2 -36
v 14 28 -11
v 14 28 -36
v 14 29 -10
v 14 29 -37
v 14 30 -9
v 14 30 -38
v -15 0 -9
v -15 30 -9
v -14 1 -9
v -14 29 -9
v -13 2 -9
v -13 28 -9
v 12 2 -9
v 12 28 -9
v 13 1 -9
v 13 29 -9
v 14 0 -9
v 14 30 -9
v -13 2 -10
v -13 28 -10
v -10 2 -10
v -10 28 -10
v -9 2 -10
v -9 28 -10
v -4 2 -10
v -4 28 -10
v -3 2 -10
v -3 28 -10
v 2 2 -10
v 2 28 -10
v 3 2 -10
v 3 28 -10
v 8 2 -10
v 8 28 -10
v 9 2 -10
v 9 28 -10
v 12 2 -10
v 12 28 -10
v -15 2 -36
v -15 28 -36
v -14 2 -36
v -14 28 -36
v -13 29 -36
v -13 30 -36
v -12 29 -36
v -8 29 -36
v -7 29 -36
v -3 29 -36
v -2 29 -36
v 2 29 -36
v 3 29 -36
v 7 29 -36
v 8 29 -36
v 12 29 -36
v 12 30 -36
v 13 2 -36
v 13 28 -36
v 14 2 -36
v 14 28 -36
v -15 2 -11
v -15 28 -11
v -14 2 -11
v -14 28 -11
v -13 29 -11
v -13 30 -11
v -12 29 -11
v -8 29 -11
v -7 29 -11
v -3 29 -11
v -2 29 -11
v 2 29 -11
v 3 29 -11
v 7 29 -11
v 8 29 -11
v 12 29 -11
v 12 30 -11
v 13 2 -11
v 13 28 -11
v 14 2 -11
v 14 28 -11
v -13 2 -37
v -13 28 -37
v -10 2 -37
v -10 28 -37
v -9 2 -37
v -9 28 -37
v -4 2 -37
v -4 28 -37
v -3 2 -37
v -3 28 -37
v 2 2 -37
v 2 28 -37
v 3 2 -37
v 3 28 -37
v 8 2 -37
v 8 28 -37
v 9 2 -37
v 9 28 -37
v 12 2 -37
v 12 28 -37
v -15 0 -38
v -15 30 -38
v -14 1 -38
v -14 29 -38
v -13 2 -38
v -13 28 -38
v 12 2 -38
v 12 28 -38
v 13 1 -38
v 13 29 -38
v 14 0 -38
v 14 30 -38
v -15 0 -9
v 14 0 -9
v -14 0 -10
v 13 0 -10
v -14 0 -37
v 13 0 -37
v -15 0 -38
v 14 0 -38
v -13 28 -9
v 12 28 -9
v -13 28 -10
v -10 28 -10
v -9 28 -10
v -4 28 -10
v -3 28 -10
v 2 28 -10
v 3 28 -10
v 8 28 -10
v 9 28 -10
v 12 28 -10
v -15 28 -11
v -14 28 -11
v 13 28 -11
v 14 28 -11
v -14 28 -14
v 13 28 -14
v -14 28 -15
v 13 28 -15
v -14 28 -20
v 13 28 -20
v -14 28 -21
v 13 28 -21
v -14 28 -26
v 13 28 -26
v -14 28 -27
v 13 28 -27
v -14 28 -32
v 13 28 -32
v -14 28 -33
v 13 28 -33
v -15 28 -36
v -14 28 -36
v 13 28 -36
v 14 28 -36
v -13 28 -37
v -10 28 -37
v -9 28 -37
v -4 28 -37
v -3 28 -37
v 2 28 -37
v 3 28 -37
v 8 28 -37
v 9 28 -37
v 12 28 -37
v -13 28 -38
v 12 28 -38
v -13 2 -9
v 12 2 -9
v -13 2 -10
v -10 2 -10
v -9 2 -10
v -4 2 -10
v -3 2 -10
v 2 2 -10
v 3 2 -10
v 8 2 -10
v 9 2 -10
v 12 2 -10
v -15 2 -11
v -14 2 -11
v 13 2 -11
v 14 2 -11
v -14 2 -14
v 13 2 -14
v -14 2 -15
v 13 2 -15
v -14 2 -20
v 13 2 -20
v -14 2 -21
v 13 2 -21
v -14 2 -26
v 13 2 -26
v -14 2 -27
v 13 2 -27
v -14 2 -32
v 13 2 -32
v -14 2 -33
v 13 2 -33
v -15 2 -36
v -14 2 -36
v 13 2 -36
v 14 2 -36
v -13 2 -37
v -10 2 -37
v -9 2 -37
v -4 2 -37
v -3 2 -37
v 2 2 -37
v 3 2 -37
v 8 2 -37
v 9 2 -37
v 12 2 -37
v -13 2 -38
v 12 2 -38
v -13 29 -11
v -12 29 -11
v -8 29 -11
v -7 29 -11
v -3 29 -11
v -2 29 -11
v 2 29 -11
v 3 29 -11
v 7 29 -11
v 8 29 -11
v 12 29 -11
v -13 29 -36
v -12 29 -36
v -8 29 -36
v -7 29 -36
v -3 29 -36
v -2 29 -36
v 2 29 -36
v 3 29 -36
v 7 29 -36
v 8 29 -36
v 12 29 -36
v -15 30 -9
v 14 30 -9
v -14 30 -10
v 13 30 -10
v -13 30 -11
v 12 30 -11
v -13 30 -36
v 12 30 -36
v -14 30 -37
v 13 30 -37
v -15 30 -38
v 14 30 -38

# faces
f 3/3/1 2/3/1 1/3/1
f 4/3/1 2/3/1 3/3/1
f 5/2/1 4/2/1 3/2/1
f 6/2/1 4/2/1 5/2/1
f 7/2/1 5/2/1 3/2/1
f 8/2/1 4/2/1 6/2/1
f 9/3/1 3/3/1 1/3/1
f 9/2/1 8/2/1 7/2/1
f 9/2/1 7/2/1 3/2/1
f 10/2/1 4/2/1 8/2/1
f 10/2/1 8/2/1 9/2/1
f 10/3/1 2/3/1 4/3/1
f 11/3/1 9/3/1 1/3/1
f 11/3/1 10/3/1 9/3/1
f 12/3/1 2/3/1 10/3/1
f 12/3/1 10/3/1 11/3/1
f 23/1/1 14/1/1 13/1/1
f 24/2/1 15/2/1 14/2/1
f 24/1/1 14/1/1 23/1/1
f 25/1/1 16/1/1 15/1/1
f 25/2/1 15/2/1 24/2/1
f 26/2/1 17/2/1 16/2/1
f 26/1/1 16/1/1 25/1/1
f 27/1/1 18/1/1 17/1/1
f 27/2/1 17/2/1 26/2/1
f 28/2/1 19/2/1 18/2/1
f 28/1/1 18/1/1 27/1/1
f 29/1/1 20/1/1 19/1/1
f 29/2/1 19/2/1 28/2/1
f 30/2/1 21/2/1 20/2/1
f 30/1/1 20/1/1 29/1/1
f 31/1/1 22/1/1 21/1/1
f 31/2/1 21/2/1 30/2/1
f 32/1/1 22/1/1 31/1/1
f 37/2/1 34/2/1 33/2/1
f 38/2/1 34/2/1 37/2/1
f 39/2/1 36/2/1 35/2/1
f 40/2/1 36/2/1 39/2/1
f 43/2/1 42/2/1 41/2/1
f 44/2/1 42/2/1 43/2/1
f 45/2/2 46/2/2 49/2/2
f 49/2/2 46/2/2 50/2/2
f 47/2/2 48/2/2 51/2/2
f 51/2/2 48/2/2 52/2/2
f 53/2/2 54/2/2 55/2/2
f 55/2/2 54/2/2 56/2/2
f 57/1/2 58/1/2 67/1/2
f 58/2/2 59/2/2 68/2/2
f 67/1/2 58/1/2 68/1/2
f 59/1/2 60/1/2 69/1/2
f 68/2/2 59/2/2 69/2/2
f 60/2/2 61/2/2 70/2/2
f 69/1/2 60/1/2 70/1/2
f 61/1/2 62/1/2 71/1/2
f 70/2/2 61/2/2 71/2/2
f 62/2/2 63/2/2 72/2/2
f 71/1/2 62/1/2 72/1/2
f 63/1/2 64/1/2 73/1/2
f 72/2/2 63/2/2 73/2/2
f 64/2/2 65/2/2 74/2/2
f 73/1/2 64/1/2 74/1/2
f 65/1/2 66/1/2 75/1/2
f 74/2/2 65/2/2 75/2/2
f 75/1/2 66/1/2 76/1/2
f 77/3/2 78/3/2 79/3/2
f 79/3/2 78/3/2 80/3/2
f 79/2/2 80/2/2 81/2/2
f 81/2/2 80/2/2 82/2/2
f 79/2/2 81/2/2 83/2/2
f 82/2/2 80/2/2 84/2/2
f 77/3/2 79/3/2 85/3/2
f 83/2/2 84/2/2 85/2/2
f 79/2/2 83/2/2 85/2/2
f 84/2/2 80/2/2 86/2/2
f 85/2/2 84/2/2 86/2/2
f 80/3/2 78/3/2 86/3/2
f 77/3/2 85/3/2 87/3/2
f 85/3/2 86/3/2 87/3/2
f 86/3/2 78/3/2 88/3/2
f 87/3/2 86/3/2 88/3/2
f 91/3/3 90/3/3 89/3/3
f 92/3/3 90/3/3 91/3/3
f 93/2/3 92/2/3 91/2/3
f 94/2/3 92/2/3 93/2/3
f 95/2/3 93/2/3 91/2/3
f 96/2/3 92/2/3 94/2/3
f 97/3/3 91/3/3 89/3/3
f 97/2/3 96/2/3 95/2/3
f 97/2/3 95/2/3 91/2/3
f 98/2/3 92/2/3 96/2/3
f 98/2/3 96/2/3 97/2/3
f 98/3/3 90/3/3 92/3/3
f 99/3/3 97/3/3 89/3/3
f 99/3/3 98/3/3 97/3/3
f 100/3/3 90/3/3 98/3/3
f 100/3/3 98/3/3 99/3/3
f 103/1/3 102/1/3 101/1/3
f 104/1/3 102/1/3 103/1/3
f 105/2/3 104/2/3 103/2/3
f 106/2/3 104/2/3 105/2/3
f 107/1/3 106/1/3 105/1/3
f 108/1/3 106/1/3 107/1/3
f 109/2/3 108/2/3 107/2/3
f 110/2/3 108/2/3 109/2/3
f 111/1/3 110/1/3 109/1/3
f 112/1/3 110/1/3 111/1/3
f 113/2/3 112/2/3 111/2/3
f 114/2/3 112/2/3 113/2/3
f 115/1/3 114/1/3 113/1/3
f 116/1/3 114/1/3 115/1/3
f 117/2/3 116/2/3 115/2/3
f 118/2/3 116/2/3 117/2/3
f 119/1/3 118/1/3 117/1/3
f 120/1/3 118/1/3 119/1/3
f 123/2/3 122/2/3 121/2/3
f 124/2/3 122/2/3 123/2/3
f 127/2/3 126/2/3 125/2/3
f 128/2/3 126/2/3 127/2/3
f 129/2/3 126/2/3 128/2/3
f 130/2/3 126/2/3 129/2/3
f 131/2/3 126/2/3 130/2/3
f 132/2/3 126/2/3 131/2/3
f 133/2/3 126/2/3 132/2/3
f 134/2/3 126/2/3 133/2/3
f 135/2/3 126/2/3 134/2/3
f 136/2/3 126/2/3 135/2/3
f 137/2/3 126/2/3 136/2/3
f 140/2/3 139/2/3 138/2/3
f 141/2/3 139/2/3 140/2/3
f 142/2/4 143/2/4 144/2/4
f 144/2/4 143/2/4 145/2/4
f 146/2/4 147/2/4 148/2/4
f 148/2/4 147/2/4 149/2/4
f 149/2/4 147/2/4 150/2/4
f 150/2/4 147/2/4 151/2/4
f 151/2/4 147/2/4 152/2/4
f 152/2/4 147/2/4 153/2/4
f 153/2/4 147/2/4 154/2/4
f 154/2/4 147/2/4 155/2/4
f 155/2/4 147/2/4 156/2/4
f 156/2/4 147/2/4 157/2/4
f 157/2/4 147/2/4 158/2/4
f 159/2/4 160/2/4 161/2/4
f 161/2/4 160/2/4 162/2/4
f 163/1/4 164/1/4 165/1/4
f 165/1/4 164/1/4 166/1/4
f 165/2/4 166/2/4 167/2/4
f 167/2/4 166/2/4 168/2/4
f 167/1/4 168/1/4 169/1/4
f 169/1/4 168/1/4 170/1/4
f 169/2/4 170/2/4 171/2/4
f 171/2/4 170/2/4 172/2/4
f 171/1/4 172/1/4 173/1/4
f 173/1/4 172/1/4 174/1/4
f 173/2/4 174/2/4 175/2/4
f 175/2/4 174/2/4 176/2/4
f 175/1/4 176/1/4 177/1/4
f 177/1/4 176/1/4 178/1/4
f 177/2/4 178/2/4 179/2/4
f 179/2/4 178/2/4 180/2/4
f 179/1/4 180/1/4 181/1/4
f 181/1/4 180/1/4 182/1/4
f 183/3/4 184/3/4 185/3/4
f 185/3/4 184/3/4 186/3/4
f 185/2/4 186/2/4 187/2/4
f 187/2/4 186/2/4 188/2/4
f 185/2/4 187/2/4 189/2/4
f 188/2/4 186/2/4 190/2/4
f 183/3/4 185/3/4 191/3/4
f 189/2/4 190/2/4 191/2/4
f 185/2/4 189/2/4 191/2/4
f 190/2/4 186/2/4 192/2/4
f 191/2/4 190/2/4 192/2/4
f 186/3/4 184/3/4 192/3/4
f 183/3/4 191/3/4 193/3/4
f 191/3/4 192/3/4 193/3/4
f 192/3/4 184/3/4 194/3/4
f 193/3/4 192/3/4 194/3/4
f 197/3/5 196/3/5 195/3/5
f 198/3/5 196/3/5 197/3/5
f 199/3/5 197/3/5 195/3/5
f 199/1/5 198/1/5 197/1/5
f 200/3/5 196/3/5 198/3/5
f 200/1/5 198/1/5 199/1/5
f 201/3/5 199/3/5 195/3/5
f 201/3/5 200/3/5 199/3/5
f 202/3/5 196/3/5 200/3/5
f 202/3/5 200/3/5 201/3/5
f 205/2/5 204/2/5 203/2/5
f 206/2/5 204/2/5 205/2/5
f 207/2/5 204/2/5 206/2/5
f 208/2/5 204/2/5 207/2/5
f 209/2/5 204/2/5 208/2/5
f 210/2/5 204/2/5 209/2/5
f 211/2/5 204/2/5 210/2/5
f 212/2/5 204/2/5 211/2/5
f 213/2/5 204/2/5 212/2/5
f 214/2/5 204/2/5 213/2/5
f 219/2/5 216/2/5 215/2/5
f 220/2/5 218/2/5 217/2/5
f 221/2/5 219/2/5 215/2/5
f 222/2/5 218/2/5 220/2/5
f 223/2/5 221/2/5 215/2/5
f 224/2/5 218/2/5 222/2/5
f 225/2/5 223/2/5 215/2/5
f 226/2/5 218/2/5 224/2/5
f 227/2/5 225/2/5 215/2/5
f 228/2/5 218/2/5 226/2/5
f 229/2/5 227/2/5 215/2/5
f 230/2/5 218/2/5 228/2/5
f 231/2/5 229/2/5 215/2/5
f 232/2/5 218/2/5 230/2/5
f 233/2/5 231/2/5 215/2/5
f 234/2/5 218/2/5 232/2/5
f 235/2/5 233/2/5 215/2/5
f 236/2/5 233/2/5 235/2/5
f 237/2/5 218/2/5 234/2/5
f 238/2/5 218/2/5 237/2/5
f 249/2/5 240/2/5 239/2/5
f 249/2/5 248/2/5 247/2/5
f 249/2/5 247/2/5 246/2/5
f 249/2/5 246/2/5 245/2/5
f 249/2/5 245/2/5 244/2/5
f 249/2/5 244/2/5 243/2/5
f 249/2/5 243/2/5 242/2/5
f 249/2/5 242/2/5 241/2/5
f 249/2/5 241/2/5 240/2/5
f 250/2/5 248/2/5 249/2/5
f 251/2/6 252/2/6 253/2/6
f 253/2/6 252/2/6 254/2/6
f 254/2/6 252/2/6 255/2/6
f 255/2/6 252/2/6 256/2/6
f 256/2/6 252/2/6 257/2/6
f 257/2/6 252/2/6 258/2/6
f 258/2/6 252/2/6 259/2/6
f 259/2/6 252/2/6 260/2/6
f 260/2/6 252/2/6 261/2/6
f 261/2/6 252/2/6 262/2/6
f 263/2/6 264/2/6 267/2/6
f 265/2/6 266/2/6 268/2/6
f 263/2/6 267/2/6 269/2/6
f 268/2/6 266/2/6 270/2/6
f 263/2/6 269/2/6 271/2/6
f 270/2/6 266/2/6 272/2/6
f 263/2/6 271/2/6 273/2/6
f 272/2/6 266/2/6 274/2/6
f 263/2/6 273/2/6 275/2/6
f 274/2/6 266/2/6 276/2/6
f 263/2/6 275/2/6 277/2/6
f 276/2/6 266/2/6 278/2/6
f 263/2/6 277/2/6 279/2/6
f 278/2/6 266/2/6 280/2/6
f 263/2/6 279/2/6 281/2/6
f 280/2/6 266/2/6 282/2/6
f 263/2/6 281/2/6 283/2/6
f 283/2/6 281/2/6 284/2/6
f 282/2/6 266/2/6 285/2/6
f 285/2/6 266/2/6 286/2/6
f 287/2/6 288/2/6 297/2/6
f 295/2/6 296/2/6 297/2/6
f 294/2/6 295/2/6 297/2/6
f 293/2/6 294/2/6 297/2/6
f 292/2/6 293/2/6 297/2/6
f 291/2/6 292/2/6 297/2/6
f 290/2/6 291/2/6 297/2/6
f 289/2/6 290/2/6 297/2/6
f 288/2/6 289/2/6 297/2/6
f 297/2/6 296/2/6 298/2/6
f 299/2/6 300/2/6 310/2/6
f 300/1/6 301/1/6 311/1/6
f 310/2/6 300/2/6 311/2/6
f 301/2/6 302/2/6 312/2/6
f 311/1/6 301/1/6 312/1/6
f 302/1/6 303/1/6 313/1/6
f 312/2/6 302/2/6 313/2/6
f 303/2/6 304/2/6 314/2/6
f 313/1/6 303/1/6 314/1/6
f 304/1/6 305/1/6 315/1/6
f 314/2/6 304/2/6 315/2/6
f 305/2/6 306/2/6 316/2/6
f 315/1/6 305/1/6 316/1/6
f 306/1/6 307/1/6 317/1/6
f 316/2/6 306/2/6 317/2/6
f 307/2/6 308/2/6 318/2/6
f 317/1/6 307/1/6 318/1/6
f 308/1/6 309/1/6 319/1/6
f 318/2/6 308/2/6 319/2/6
f 319/1/6 309/1/6 320/1/6
f 321/3/6 322/3/6 323/3/6
f 323/3/6 322/3/6 324/3/6
f 323/2/6 324/2/6 325/2/6
f 325/2/6 324/2/6 326/2/6
f 323/2/6 325/2/6 327/2/6
f 326/2/6 324/2/6 328/2/6
f 321/3/6 323/3/6 329/3/6
f 327/2/6 328/2/6 329/2/6
f 323/2/6 327/2/6 329/2/6
f 328/2/6 324/2/6 330/2/6
f 329/2/6 328/2/6 330/2/6
f 324/3/6 322/3/6 330/3/6
f 321/3/6 329/3/6 331/3/6
f 329/3/6 330/3/6 331/3/6
f 330/3/6 322/3/6 332/3/6
f 331/3/6 330/3/6 332/3/6
