# MagicaVoxel @ Ephtracy

# group
g souricette

# material
mtllib souricette.mtl
usemtl palette

# normals
vn -1 0 0
vn 1 0 0
vn 0 0 1
vn 0 0 -1
vn 0 -1 0
vn 0 1 0

# texcoords
vt 0.533203 0.5
vt 0.982422 0.5
vt 0.986328 0.5
vt 0.994141 0.5

# verts
v -4 0 4
v -4 0 -4
v -4 2 6
v -4 2 5
v -4 4 6
v -4 4 5
v -4 4 4
v -4 4 -4
v -3 0 8
v -3 0 4
v -3 2 8
v -3 2 7
v -3 2 6
v -3 2 5
v -3 3 8
v -3 3 7
v -3 3 6
v -3 3 5
v -3 3 4
v -2 0 -4
v -2 0 -9
v -2 1 -4
v -2 1 -9
v -1 3 6
v -1 3 5
v -1 4 6
v -1 4 5
v -2 3 6
v -2 3 5
v -2 4 6
v -2 4 5
v -1 0 -4
v -1 0 -9
v -1 1 -4
v -1 1 -9
v 0 0 8
v 0 0 4
v 0 2 8
v 0 2 7
v 0 2 6
v 0 2 5
v 0 3 8
v 0 3 7
v 0 3 6
v 0 3 5
v 0 3 4
v 1 0 4
v 1 0 -4
v 1 2 6
v 1 2 5
v 1 4 6
v 1 4 5
v 1 4 4
v 1 4 -4
v -3 0 8
v -3 2 8
v -3 3 8
v -2 2 8
v -2 3 8
v -1 2 8
v -1 3 8
v 0 0 8
v 0 2 8
v 0 3 8
v -4 2 6
v -4 4 6
v -3 2 6
v -3 3 6
v -2 3 6
v -2 4 6
v -1 3 6
v -1 4 6
v 0 2 6
v 0 3 6
v 1 2 6
v 1 4 6
v -4 0 4
v -4 4 4
v -3 0 4
v -3 3 4
v 0 0 4
v 0 3 4
v 1 0 4
v 1 4 4
v -4 2 5
v -4 4 5
v -3 2 5
v -3 3 5
v -2 3 5
v -2 4 5
v -1 3 5
v -1 4 5
v 0 2 5
v 0 3 5
v 1 2 5
v 1 4 5
v -4 0 -4
v -4 4 -4
v -2 0 -4
v -2 1 -4
v -1 0 -4
v -1 1 -4
v 1 0 -4
v 1 4 -4
v -2 0 -9
v -2 1 -9
v -1 0 -9
v -1 1 -9
v -3 0 8
v 0 0 8
v -4 0 4
v -3 0 4
v 0 0 4
v 1 0 4
v -4 0 -4
v -2 0 -4
v -1 0 -4
v 1 0 -4
v -2 0 -9
v -1 0 -9
v -4 2 6
v -3 2 6
v 0 2 6
v 1 2 6
v -4 2 5
v -3 2 5
v 0 2 5
v 1 2 5
v -2 1 -4
v -1 1 -4
v -2 1 -9
v -1 1 -9
v -3 3 8
v -2 3 8
v -1 3 8
v 0 3 8
v -3 3 7
v -2 3 7
v -1 3 7
v 0 3 7
v -3 3 6
v -2 3 6
v -1 3 6
v 0 3 6
v -3 3 5
v -2 3 5
v -1 3 5
v 0 3 5
v -3 3 4
v 0 3 4
v -4 4 6
v -2 4 6
v -1 4 6
v 1 4 6
v -4 4 5
v -2 4 5
v -1 4 5
v 1 4 5
v -4 4 4
v 1 4 4
v -4 4 -4
v 1 4 -4

# faces
f 5/3/1 4/3/1 3/3/1
f 6/3/1 4/3/1 5/3/1
f 7/2/1 2/2/1 1/2/1
f 8/2/1 2/2/1 7/2/1
f 11/2/1 10/2/1 9/2/1
f 12/2/1 10/2/1 11/2/1
f 13/2/1 10/2/1 12/2/1
f 14/2/1 10/2/1 13/2/1
f 15/4/1 12/4/1 11/4/1
f 16/2/1 13/2/1 12/2/1
f 16/4/1 12/4/1 15/4/1
f 17/2/1 13/2/1 16/2/1
f 18/2/1 10/2/1 14/2/1
f 19/2/1 10/2/1 18/2/1
f 22/1/1 21/1/1 20/1/1
f 23/1/1 21/1/1 22/1/1
f 26/3/1 25/3/1 24/3/1
f 27/3/1 25/3/1 26/3/1
f 28/3/2 29/3/2 30/3/2
f 30/3/2 29/3/2 31/3/2
f 32/1/2 33/1/2 34/1/2
f 34/1/2 33/1/2 35/1/2
f 36/2/2 37/2/2 38/2/2
f 38/2/2 37/2/2 39/2/2
f 39/2/2 37/2/2 40/2/2
f 40/2/2 37/2/2 41/2/2
f 38/4/2 39/4/2 42/4/2
f 39/2/2 40/2/2 43/2/2
f 42/4/2 39/4/2 43/4/2
f 43/2/2 40/2/2 44/2/2
f 41/2/2 37/2/2 45/2/2
f 45/2/2 37/2/2 46/2/2
f 49/3/2 50/3/2 51/3/2
f 51/3/2 50/3/2 52/3/2
f 47/2/2 48/2/2 53/2/2
f 53/2/2 48/2/2 54/2/2
f 58/2/3 56/2/3 55/2/3
f 58/4/3 57/4/3 56/4/3
f 59/4/3 57/4/3 58/4/3
f 60/2/3 58/2/3 55/2/3
f 60/2/3 59/2/3 58/2/3
f 61/2/3 59/2/3 60/2/3
f 62/2/3 60/2/3 55/2/3
f 63/4/3 61/4/3 60/4/3
f 63/2/3 60/2/3 62/2/3
f 64/4/3 61/4/3 63/4/3
f 67/3/3 66/3/3 65/3/3
f 68/3/3 66/3/3 67/3/3
f 69/3/3 66/3/3 68/3/3
f 70/3/3 66/3/3 69/3/3
f 74/3/3 72/3/3 71/3/3
f 75/3/3 74/3/3 73/3/3
f 76/3/3 72/3/3 74/3/3
f 76/3/3 74/3/3 75/3/3
f 79/2/3 78/2/3 77/2/3
f 80/2/3 78/2/3 79/2/3
f 82/2/3 78/2/3 80/2/3
f 83/2/3 82/2/3 81/2/3
f 84/2/3 78/2/3 82/2/3
f 84/2/3 82/2/3 83/2/3
f 85/3/4 86/3/4 87/3/4
f 87/3/4 86/3/4 88/3/4
f 88/3/4 86/3/4 89/3/4
f 89/3/4 86/3/4 90/3/4
f 91/3/4 92/3/4 94/3/4
f 93/3/4 94/3/4 95/3/4
f 94/3/4 92/3/4 96/3/4
f 95/3/4 94/3/4 96/3/4
f 97/2/4 98/2/4 99/2/4
f 99/2/4 98/2/4 100/2/4
f 100/2/4 98/2/4 102/2/4
f 101/2/4 102/2/4 103/2/4
f 102/2/4 98/2/4 104/2/4
f 103/2/4 102/2/4 104/2/4
f 105/1/4 106/1/4 107/1/4
f 107/1/4 106/1/4 108/1/4
f 112/2/5 110/2/5 109/2/5
f 113/2/5 110/2/5 112/2/5
f 115/2/5 112/2/5 111/2/5
f 115/2/5 114/2/5 113/2/5
f 115/2/5 113/2/5 112/2/5
f 116/2/5 114/2/5 115/2/5
f 117/2/5 114/2/5 116/2/5
f 118/2/5 114/2/5 117/2/5
f 119/1/5 117/1/5 116/1/5
f 120/1/5 117/1/5 119/1/5
f 125/3/5 122/3/5 121/3/5
f 126/3/5 122/3/5 125/3/5
f 127/3/5 124/3/5 123/3/5
f 128/3/5 124/3/5 127/3/5
f 129/1/6 130/1/6 131/1/6
f 131/1/6 130/1/6 132/1/6
f 133/4/6 134/4/6 137/4/6
f 134/2/6 135/2/6 138/2/6
f 137/4/6 134/4/6 138/4/6
f 135/4/6 136/4/6 139/4/6
f 138/2/6 135/2/6 139/2/6
f 139/4/6 136/4/6 140/4/6
f 137/2/6 138/2/6 141/2/6
f 138/2/6 139/2/6 141/2/6
f 139/2/6 140/2/6 141/2/6
f 141/2/6 140/2/6 142/2/6
f 142/2/6 140/2/6 143/2/6
f 143/2/6 140/2/6 144/2/6
f 142/2/6 143/2/6 146/2/6
f 146/2/6 143/2/6 147/2/6
f 145/2/6 146/2/6 149/2/6
f 147/2/6 148/2/6 149/2/6
f 146/2/6 147/2/6 149/2/6
f 149/2/6 148/2/6 150/2/6
f 151/3/6 152/3/6 155/3/6
f 155/3/6 152/3/6 156/3/6
f 153/3/6 154/3/6 157/3/6
f 157/3/6 154/3/6 158/3/6
f 159/2/6 160/2/6 161/2/6
f 161/2/6 160/2/6 162/2/6
