# MagicaVoxel @ Ephtracy

# group
g classical grey --

# material
mtllib classical grey --.mtl
usemtl palette

# normals
vn -1 0 0
vn 1 0 0
vn 0 0 1
vn 0 0 -1
vn 0 -1 0
vn 0 1 0

# texcoords
vt 0.310547 0.5
vt 0.767578 0.5
vt 0.919922 0.5
vt 0.923828 0.5

# verts
v -50 0 50
v -50 0 -50
v -50 59 50
v -50 59 -50
v -42 48 -23
v -42 48 -31
v -42 52 -23
v -42 52 -31
v -41 15 17
v -41 15 -0
v -41 19 17
v -41 19 -0
v -47 0 50
v -47 0 26
v -47 0 20
v -47 0 -19
v -47 0 -25
v -47 0 -50
v -47 3 50
v -47 3 26
v -47 3 20
v -47 3 -19
v -47 3 -25
v -47 3 -50
v -47 4 50
v -47 4 36
v -47 4 35
v -47 4 21
v -47 4 20
v -47 4 6
v -47 4 5
v -47 4 -9
v -47 4 -10
v -47 4 -24
v -47 4 -25
v -47 4 -39
v -47 4 -40
v -47 4 -50
v -47 14 50
v -47 14 36
v -47 14 35
v -47 14 21
v -47 14 20
v -47 14 6
v -47 14 5
v -47 14 -9
v -47 14 -10
v -47 14 -24
v -47 14 -25
v -47 14 -39
v -47 14 -40
v -47 14 -50
v -47 15 50
v -47 15 36
v -47 15 35
v -47 15 21
v -47 15 20
v -47 15 6
v -47 15 5
v -47 15 -9
v -47 15 -10
v -47 15 -24
v -47 15 -25
v -47 15 -39
v -47 15 -40
v -47 15 -50
v -47 25 50
v -47 25 36
v -47 25 35
v -47 25 21
v -47 25 20
v -47 25 6
v -47 25 5
v -47 25 -9
v -47 25 -10
v -47 25 -24
v -47 25 -25
v -47 25 -39
v -47 25 -40
v -47 25 -50
v -47 26 50
v -47 26 36
v -47 26 35
v -47 26 21
v -47 26 20
v -47 26 6
v -47 26 5
v -47 26 -9
v -47 26 -10
v -47 26 -24
v -47 26 -25
v -47 26 -39
v -47 26 -40
v -47 26 -50
v -47 36 50
v -47 36 36
v -47 36 35
v -47 36 21
v -47 36 20
v -47 36 6
v -47 36 5
v -47 36 -9
v -47 36 -10
v -47 36 -24
v -47 36 -25
v -47 36 -39
v -47 36 -40
v -47 36 -50
v -47 37 50
v -47 37 36
v -47 37 35
v -47 37 21
v -47 37 20
v -47 37 6
v -47 37 5
v -47 37 -9
v -47 37 -10
v -47 37 -24
v -47 37 -25
v -47 37 -39
v -47 37 -40
v -47 37 -50
v -47 47 50
v -47 47 36
v -47 47 35
v -47 47 21
v -47 47 20
v -47 47 6
v -47 47 5
v -47 47 -9
v -47 47 -10
v -47 47 -24
v -47 47 -25
v -47 47 -39
v -47 47 -40
v -47 47 -50
v -47 48 50
v -47 48 36
v -47 48 35
v -47 48 21
v -47 48 20
v -47 48 6
v -47 48 5
v -47 48 -9
v -47 48 -10
v -47 48 -24
v -47 48 -25
v -47 48 -39
v -47 48 -40
v -47 48 -50
v -47 58 50
v -47 58 36
v -47 58 35
v -47 58 21
v -47 58 20
v -47 58 6
v -47 58 5
v -47 58 -9
v -47 58 -10
v -47 58 -24
v -47 58 -25
v -47 58 -39
v -47 58 -40
v -47 58 -50
v -34 0 26
v -34 0 20
v -34 0 -19
v -34 0 -25
v -34 3 50
v -34 3 26
v -34 3 20
v -34 3 -19
v -34 3 -25
v -34 3 -50
v -34 4 50
v -34 4 -50
v -34 14 50
v -34 14 -50
v -34 15 50
v -34 15 17
v -34 15 -0
v -34 15 -50
v -34 19 17
v -34 19 -0
v -34 25 50
v -34 25 -50
v -34 26 50
v -34 26 -50
v -34 36 50
v -34 36 -50
v -34 37 50
v -34 37 -50
v -34 47 50
v -34 47 -50
v -34 48 50
v -34 48 -23
v -34 48 -31
v -34 48 -50
v -34 52 -23
v -34 52 -31
v -34 58 50
v -34 58 -50
v -34 59 50
v -34 59 -50
v -50 0 50
v -50 59 50
v -47 0 50
v -47 3 50
v -47 4 50
v -47 14 50
v -47 15 50
v -47 25 50
v -47 26 50
v -47 36 50
v -47 37 50
v -47 47 50
v -47 48 50
v -47 58 50
v -34 3 50
v -34 4 50
v -34 14 50
v -34 15 50
v -34 25 50
v -34 26 50
v -34 36 50
v -34 37 50
v -34 47 50
v -34 48 50
v -34 58 50
v -34 59 50
v -47 0 26
v -47 3 26
v -34 0 26
v -34 3 26
v -41 15 17
v -41 19 17
v -34 15 17
v -34 19 17
v -47 0 -19
v -47 3 -19
v -34 0 -19
v -34 3 -19
v -42 48 -23
v -42 52 -23
v -34 48 -23
v -34 52 -23
v -47 0 20
v -47 3 20
v -34 0 20
v -34 3 20
v -41 15 -0
v -41 19 -0
v -34 15 -0
v -34 19 -0
v -47 0 -25
v -47 3 -25
v -34 0 -25
v -34 3 -25
v -42 48 -31
v -42 52 -31
v -34 48 -31
v -34 52 -31
v -50 0 -50
v -50 59 -50
v -47 0 -50
v -47 3 -50
v -47 4 -50
v -47 14 -50
v -47 15 -50
v -47 25 -50
v -47 26 -50
v -47 36 -50
v -47 37 -50
v -47 47 -50
v -47 48 -50
v -47 58 -50
v -34 3 -50
v -34 4 -50
v -34 14 -50
v -34 15 -50
v -34 25 -50
v -34 26 -50
v -34 36 -50
v -34 37 -50
v -34 47 -50
v -34 48 -50
v -34 58 -50
v -34 59 -50
v -50 0 50
v -47 0 50
v -47 0 26
v -34 0 26
v -47 0 20
v -34 0 20
v -47 0 -19
v -34 0 -19
v -47 0 -25
v -34 0 -25
v -50 0 -50
v -47 0 -50
v -47 3 50
v -34 3 50
v -47 3 26
v -34 3 26
v -47 3 20
v -34 3 20
v -47 3 -19
v -34 3 -19
v -47 3 -25
v -34 3 -25
v -47 3 -50
v -34 3 -50
v -47 14 50
v -34 14 50
v -47 14 36
v -47 14 35
v -47 14 21
v -47 14 20
v -47 14 6
v -47 14 5
v -47 14 -9
v -47 14 -10
v -47 14 -24
v -47 14 -25
v -47 14 -39
v -47 14 -40
v -47 14 -50
v -34 14 -50
v -47 25 50
v -34 25 50
v -47 25 36
v -47 25 35
v -47 25 21
v -47 25 20
v -47 25 6
v -47 25 5
v -47 25 -9
v -47 25 -10
v -47 25 -24
v -47 25 -25
v -47 25 -39
v -47 25 -40
v -47 25 -50
v -34 25 -50
v -47 36 50
v -34 36 50
v -47 36 36
v -47 36 35
v -47 36 21
v -47 36 20
v -47 36 6
v -47 36 5
v -47 36 -9
v -47 36 -10
v -47 36 -24
v -47 36 -25
v -47 36 -39
v -47 36 -40
v -47 36 -50
v -34 36 -50
v -47 47 50
v -34 47 50
v -47 47 36
v -47 47 35
v -47 47 21
v -47 47 20
v -47 47 6
v -47 47 5
v -47 47 -9
v -47 47 -10
v -47 47 -24
v -47 47 -25
v -47 47 -39
v -47 47 -40
v -47 47 -50
v -34 47 -50
v -47 58 50
v -34 58 50
v -47 58 36
v -47 58 35
v -47 58 21
v -47 58 20
v -47 58 6
v -47 58 5
v -47 58 -9
v -47 58 -10
v -47 58 -24
v -47 58 -25
v -47 58 -39
v -47 58 -40
v -47 58 -50
v -34 58 -50
v -47 4 50
v -34 4 50
v -47 4 36
v -47 4 35
v -47 4 21
v -47 4 20
v -47 4 6
v -47 4 5
v -47 4 -9
v -47 4 -10
v -47 4 -24
v -47 4 -25
v -47 4 -39
v -47 4 -40
v -47 4 -50
v -34 4 -50
v -47 15 50
v -34 15 50
v -47 15 36
v -47 15 35
v -47 15 21
v -47 15 20
v -41 15 17
v -34 15 17
v -47 15 6
v -47 15 5
v -41 15 -0
v -34 15 -0
v -47 15 -9
v -47 15 -10
v -47 15 -24
v -47 15 -25
v -47 15 -39
v -47 15 -40
v -47 15 -50
v -34 15 -50
v -41 19 17
v -34 19 17
v -41 19 -0
v -34 19 -0
v -47 26 50
v -34 26 50
v -47 26 36
v -47 26 35
v -47 26 21
v -47 26 20
v -47 26 6
v -47 26 5
v -47 26 -9
v -47 26 -10
v -47 26 -24
v -47 26 -25
v -47 26 -39
v -47 26 -40
v -47 26 -50
v -34 26 -50
v -47 37 50
v -34 37 50
v -47 37 36
v -47 37 35
v -47 37 21
v -47 37 20
v -47 37 6
v -47 37 5
v -47 37 -9
v -47 37 -10
v -47 37 -24
v -47 37 -25
v -47 37 -39
v -47 37 -40
v -47 37 -50
v -34 37 -50
v -47 48 50
v -34 48 50
v -47 48 36
v -47 48 35
v -47 48 21
v -47 48 20
v -47 48 6
v -47 48 5
v -47 48 -9
v -47 48 -10
v -42 48 -23
v -34 48 -23
v -47 48 -24
v -47 48 -25
v -42 48 -31
v -34 48 -31
v -47 48 -39
v -47 48 -40
v -47 48 -50
v -34 48 -50
v -42 52 -23
v -34 52 -23
v -42 52 -31
v -34 52 -31
v -50 59 50
v -34 59 50
v -50 59 -50
v -34 59 -50

# faces
f 3/3/1 2/3/1 1/3/1
f 4/3/1 2/3/1 3/3/1
f 7/1/1 6/1/1 5/1/1
f 8/1/1 6/1/1 7/1/1
f 11/2/1 10/2/1 9/2/1
f 12/2/1 10/2/1 11/2/1
f 13/3/2 14/3/2 19/3/2
f 19/3/2 14/3/2 20/3/2
f 15/3/2 16/3/2 21/3/2
f 21/3/2 16/3/2 22/3/2
f 17/3/2 18/3/2 23/3/2
f 23/3/2 18/3/2 24/3/2
f 25/3/2 26/3/2 39/3/2
f 26/4/2 27/4/2 40/4/2
f 39/3/2 26/3/2 40/3/2
f 27/3/2 28/3/2 41/3/2
f 40/4/2 27/4/2 41/4/2
f 28/4/2 29/4/2 42/4/2
f 41/3/2 28/3/2 42/3/2
f 29/3/2 30/3/2 43/3/2
f 42/4/2 29/4/2 43/4/2
f 30/4/2 31/4/2 44/4/2
f 43/3/2 30/3/2 44/3/2
f 31/3/2 32/3/2 45/3/2
f 44/4/2 31/4/2 45/4/2
f 32/4/2 33/4/2 46/4/2
f 45/3/2 32/3/2 46/3/2
f 33/3/2 34/3/2 47/3/2
f 46/4/2 33/4/2 47/4/2
f 34/4/2 35/4/2 48/4/2
f 47/3/2 34/3/2 48/3/2
f 35/3/2 36/3/2 49/3/2
f 48/4/2 35/4/2 49/4/2
f 36/4/2 37/4/2 50/4/2
f 49/3/2 36/3/2 50/3/2
f 37/3/2 38/3/2 51/3/2
f 50/4/2 37/4/2 51/4/2
f 51/3/2 38/3/2 52/3/2
f 53/3/2 54/3/2 67/3/2
f 54/4/2 55/4/2 68/4/2
f 67/3/2 54/3/2 68/3/2
f 55/3/2 56/3/2 69/3/2
f 68/4/2 55/4/2 69/4/2
f 56/4/2 57/4/2 70/4/2
f 69/3/2 56/3/2 70/3/2
f 57/3/2 58/3/2 71/3/2
f 70/4/2 57/4/2 71/4/2
f 58/4/2 59/4/2 72/4/2
f 71/3/2 58/3/2 72/3/2
f 59/3/2 60/3/2 73/3/2
f 72/4/2 59/4/2 73/4/2
f 60/4/2 61/4/2 74/4/2
f 73/3/2 60/3/2 74/3/2
f 61/3/2 62/3/2 75/3/2
f 74/4/2 61/4/2 75/4/2
f 62/4/2 63/4/2 76/4/2
f 75/3/2 62/3/2 76/3/2
f 63/3/2 64/3/2 77/3/2
f 76/4/2 63/4/2 77/4/2
f 64/4/2 65/4/2 78/4/2
f 77/3/2 64/3/2 78/3/2
f 65/3/2 66/3/2 79/3/2
f 78/4/2 65/4/2 79/4/2
f 79/3/2 66/3/2 80/3/2
f 81/3/2 82/3/2 95/3/2
f 82/4/2 83/4/2 96/4/2
f 95/3/2 82/3/2 96/3/2
f 83/3/2 84/3/2 97/3/2
f 96/4/2 83/4/2 97/4/2
f 84/4/2 85/4/2 98/4/2
f 97/3/2 84/3/2 98/3/2
f 85/3/2 86/3/2 99/3/2
f 98/4/2 85/4/2 99/4/2
f 86/4/2 87/4/2 100/4/2
f 99/3/2 86/3/2 100/3/2
f 87/3/2 88/3/2 101/3/2
f 100/4/2 87/4/2 101/4/2
f 88/4/2 89/4/2 102/4/2
f 101/3/2 88/3/2 102/3/2
f 89/3/2 90/3/2 103/3/2
f 102/4/2 89/4/2 103/4/2
f 90/4/2 91/4/2 104/4/2
f 103/3/2 90/3/2 104/3/2
f 91/3/2 92/3/2 105/3/2
f 104/4/2 91/4/2 105/4/2
f 92/4/2 93/4/2 106/4/2
f 105/3/2 92/3/2 106/3/2
f 93/3/2 94/3/2 107/3/2
f 106/4/2 93/4/2 107/4/2
f 107/3/2 94/3/2 108/3/2
f 109/3/2 110/3/2 123/3/2
f 110/4/2 111/4/2 124/4/2
f 123/3/2 110/3/2 124/3/2
f 111/3/2 112/3/2 125/3/2
f 124/4/2 111/4/2 125/4/2
f 112/4/2 113/4/2 126/4/2
f 125/3/2 112/3/2 126/3/2
f 113/3/2 114/3/2 127/3/2
f 126/4/2 113/4/2 127/4/2
f 114/4/2 115/4/2 128/4/2
f 127/3/2 114/3/2 128/3/2
f 115/3/2 116/3/2 129/3/2
f 128/4/2 115/4/2 129/4/2
f 116/4/2 117/4/2 130/4/2
f 129/3/2 116/3/2 130/3/2
f 117/3/2 118/3/2 131/3/2
f 130/4/2 117/4/2 131/4/2
f 118/4/2 119/4/2 132/4/2
f 131/3/2 118/3/2 132/3/2
f 119/3/2 120/3/2 133/3/2
f 132/4/2 119/4/2 133/4/2
f 120/4/2 121/4/2 134/4/2
f 133/3/2 120/3/2 134/3/2
f 121/3/2 122/3/2 135/3/2
f 134/4/2 121/4/2 135/4/2
f 135/3/2 122/3/2 136/3/2
f 137/3/2 138/3/2 151/3/2
f 138/4/2 139/4/2 152/4/2
f 151/3/2 138/3/2 152/3/2
f 139/3/2 140/3/2 153/3/2
f 152/4/2 139/4/2 153/4/2
f 140/4/2 141/4/2 154/4/2
f 153/3/2 140/3/2 154/3/2
f 141/3/2 142/3/2 155/3/2
f 154/4/2 141/4/2 155/4/2
f 142/4/2 143/4/2 156/4/2
f 155/3/2 142/3/2 156/3/2
f 143/3/2 144/3/2 157/3/2
f 156/4/2 143/4/2 157/4/2
f 144/4/2 145/4/2 158/4/2
f 157/3/2 144/3/2 158/3/2
f 145/3/2 146/3/2 159/3/2
f 158/4/2 145/4/2 159/4/2
f 146/4/2 147/4/2 160/4/2
f 159/3/2 146/3/2 160/3/2
f 147/3/2 148/3/2 161/3/2
f 160/4/2 147/4/2 161/4/2
f 148/4/2 149/4/2 162/4/2
f 161/3/2 148/3/2 162/3/2
f 149/3/2 150/3/2 163/3/2
f 162/4/2 149/4/2 163/4/2
f 163/3/2 150/3/2 164/3/2
f 165/3/2 166/3/2 170/3/2
f 170/3/2 166/3/2 171/3/2
f 167/3/2 168/3/2 172/3/2
f 172/3/2 168/3/2 173/3/2
f 170/3/2 171/3/2 175/3/2
f 173/3/2 174/3/2 175/3/2
f 172/3/2 173/3/2 175/3/2
f 171/3/2 172/3/2 175/3/2
f 169/3/2 170/3/2 175/3/2
f 175/3/2 174/3/2 176/3/2
f 177/3/2 178/3/2 179/3/2
f 179/3/2 178/3/2 180/3/2
f 180/3/2 178/3/2 181/3/2
f 181/3/2 178/3/2 182/3/2
f 180/2/2 181/2/2 183/2/2
f 183/2/2 181/2/2 184/2/2
f 185/3/2 186/3/2 187/3/2
f 187/3/2 186/3/2 188/3/2
f 189/3/2 190/3/2 191/3/2
f 191/3/2 190/3/2 192/3/2
f 193/3/2 194/3/2 195/3/2
f 195/3/2 194/3/2 196/3/2
f 196/3/2 194/3/2 197/3/2
f 197/3/2 194/3/2 198/3/2
f 196/1/2 197/1/2 199/1/2
f 199/1/2 197/1/2 200/1/2
f 201/3/2 202/3/2 203/3/2
f 203/3/2 202/3/2 204/3/2
f 207/3/3 206/3/3 205/3/3
f 208/3/3 206/3/3 207/3/3
f 209/3/3 206/3/3 208/3/3
f 210/3/3 206/3/3 209/3/3
f 211/3/3 206/3/3 210/3/3
f 212/3/3 206/3/3 211/3/3
f 213/3/3 206/3/3 212/3/3
f 214/3/3 206/3/3 213/3/3
f 215/3/3 206/3/3 214/3/3
f 216/3/3 206/3/3 215/3/3
f 217/3/3 206/3/3 216/3/3
f 218/3/3 206/3/3 217/3/3
f 219/3/3 209/3/3 208/3/3
f 220/3/3 209/3/3 219/3/3
f 221/3/3 211/3/3 210/3/3
f 222/3/3 211/3/3 221/3/3
f 223/3/3 213/3/3 212/3/3
f 224/3/3 213/3/3 223/3/3
f 225/3/3 215/3/3 214/3/3
f 226/3/3 215/3/3 225/3/3
f 227/3/3 217/3/3 216/3/3
f 228/3/3 217/3/3 227/3/3
f 229/3/3 206/3/3 218/3/3
f 230/3/3 206/3/3 229/3/3
f 233/3/3 232/3/3 231/3/3
f 234/3/3 232/3/3 233/3/3
f 237/2/3 236/2/3 235/2/3
f 238/2/3 236/2/3 237/2/3
f 241/3/3 240/3/3 239/3/3
f 242/3/3 240/3/3 241/3/3
f 245/1/3 244/1/3 243/1/3
f 246/1/3 244/1/3 245/1/3
f 247/3/4 248/3/4 249/3/4
f 249/3/4 248/3/4 250/3/4
f 251/2/4 252/2/4 253/2/4
f 253/2/4 252/2/4 254/2/4
f 255/3/4 256/3/4 257/3/4
f 257/3/4 256/3/4 258/3/4
f 259/1/4 260/1/4 261/1/4
f 261/1/4 260/1/4 262/1/4
f 263/3/4 264/3/4 265/3/4
f 265/3/4 264/3/4 266/3/4
f 266/3/4 264/3/4 267/3/4
f 267/3/4 264/3/4 268/3/4
f 268/3/4 264/3/4 269/3/4
f 269/3/4 264/3/4 270/3/4
f 270/3/4 264/3/4 271/3/4
f 271/3/4 264/3/4 272/3/4
f 272/3/4 264/3/4 273/3/4
f 273/3/4 264/3/4 274/3/4
f 274/3/4 264/3/4 275/3/4
f 275/3/4 264/3/4 276/3/4
f 266/3/4 267/3/4 277/3/4
f 277/3/4 267/3/4 278/3/4
f 268/3/4 269/3/4 279/3/4
f 279/3/4 269/3/4 280/3/4
f 270/3/4 271/3/4 281/3/4
f 281/3/4 271/3/4 282/3/4
f 272/3/4 273/3/4 283/3/4
f 283/3/4 273/3/4 284/3/4
f 274/3/4 275/3/4 285/3/4
f 285/3/4 275/3/4 286/3/4
f 276/3/4 264/3/4 287/3/4
f 287/3/4 264/3/4 288/3/4
f 291/3/5 290/3/5 289/3/5
f 293/3/5 291/3/5 289/3/5
f 293/3/5 292/3/5 291/3/5
f 294/3/5 292/3/5 293/3/5
f 295/3/5 293/3/5 289/3/5
f 297/3/5 295/3/5 289/3/5
f 297/3/5 296/3/5 295/3/5
f 298/3/5 296/3/5 297/3/5
f 299/3/5 297/3/5 289/3/5
f 300/3/5 297/3/5 299/3/5
f 303/3/5 302/3/5 301/3/5
f 304/3/5 302/3/5 303/3/5
f 307/3/5 306/3/5 305/3/5
f 308/3/5 306/3/5 307/3/5
f 311/3/5 310/3/5 309/3/5
f 312/3/5 310/3/5 311/3/5
f 315/3/5 314/3/5 313/3/5
f 316/3/5 314/3/5 315/3/5
f 317/3/5 314/3/5 316/3/5
f 318/3/5 314/3/5 317/3/5
f 319/3/5 314/3/5 318/3/5
f 320/3/5 314/3/5 319/3/5
f 321/3/5 314/3/5 320/3/5
f 322/3/5 314/3/5 321/3/5
f 323/3/5 314/3/5 322/3/5
f 324/3/5 314/3/5 323/3/5
f 325/3/5 314/3/5 324/3/5
f 326/3/5 314/3/5 325/3/5
f 327/3/5 314/3/5 326/3/5
f 328/3/5 314/3/5 327/3/5
f 331/3/5 330/3/5 329/3/5
f 332/3/5 330/3/5 331/3/5
f 333/3/5 330/3/5 332/3/5
f 334/3/5 330/3/5 333/3/5
f 335/3/5 330/3/5 334/3/5
f 336/3/5 330/3/5 335/3/5
f 337/3/5 330/3/5 336/3/5
f 338/3/5 330/3/5 337/3/5
f 339/3/5 330/3/5 338/3/5
f 340/3/5 330/3/5 339/3/5
f 341/3/5 330/3/5 340/3/5
f 342/3/5 330/3/5 341/3/5
f 343/3/5 330/3/5 342/3/5
f 344/3/5 330/3/5 343/3/5
f 347/3/5 346/3/5 345/3/5
f 348/3/5 346/3/5 347/3/5
f 349/3/5 346/3/5 348/3/5
f 350/3/5 346/3/5 349/3/5
f 351/3/5 346/3/5 350/3/5
f 352/3/5 346/3/5 351/3/5
f 353/3/5 346/3/5 352/3/5
f 354/3/5 346/3/5 353/3/5
f 355/3/5 346/3/5 354/3/5
f 356/3/5 346/3/5 355/3/5
f 357/3/5 346/3/5 356/3/5
f 358/3/5 346/3/5 357/3/5
f 359/3/5 346/3/5 358/3/5
f 360/3/5 346/3/5 359/3/5
f 363/3/5 362/3/5 361/3/5
f 364/3/5 362/3/5 363/3/5
f 365/3/5 362/3/5 364/3/5
f 366/3/5 362/3/5 365/3/5
f 367/3/5 362/3/5 366/3/5
f 368/3/5 362/3/5 367/3/5
f 369/3/5 362/3/5 368/3/5
f 370/3/5 362/3/5 369/3/5
f 371/3/5 362/3/5 370/3/5
f 372/3/5 362/3/5 371/3/5
f 373/3/5 362/3/5 372/3/5
f 374/3/5 362/3/5 373/3/5
f 375/3/5 362/3/5 374/3/5
f 376/3/5 362/3/5 375/3/5
f 379/3/5 378/3/5 377/3/5
f 380/3/5 378/3/5 379/3/5
f 381/3/5 378/3/5 380/3/5
f 382/3/5 378/3/5 381/3/5
f 383/3/5 378/3/5 382/3/5
f 384/3/5 378/3/5 383/3/5
f 385/3/5 378/3/5 384/3/5
f 386/3/5 378/3/5 385/3/5
f 387/3/5 378/3/5 386/3/5
f 388/3/5 378/3/5 387/3/5
f 389/3/5 378/3/5 388/3/5
f 390/3/5 378/3/5 389/3/5
f 391/3/5 378/3/5 390/3/5
f 392/3/5 378/3/5 391/3/5
f 393/3/6 394/3/6 395/3/6
f 395/3/6 394/3/6 396/3/6
f 396/3/6 394/3/6 397/3/6
f 397/3/6 394/3/6 398/3/6
f 398/3/6 394/3/6 399/3/6
f 399/3/6 394/3/6 400/3/6
f 400/3/6 394/3/6 401/3/6
f 401/3/6 394/3/6 402/3/6
f 402/3/6 394/3/6 403/3/6
f 403/3/6 394/3/6 404/3/6
f 404/3/6 394/3/6 405/3/6
f 405/3/6 394/3/6 406/3/6
f 406/3/6 394/3/6 407/3/6
f 407/3/6 394/3/6 408/3/6
f 409/3/6 410/3/6 411/3/6
f 411/3/6 410/3/6 412/3/6
f 412/3/6 410/3/6 413/3/6
f 413/3/6 410/3/6 414/3/6
f 414/3/6 410/3/6 415/3/6
f 415/3/6 410/3/6 416/3/6
f 414/3/6 415/3/6 417/3/6
f 417/3/6 415/3/6 418/3/6
f 418/3/6 415/3/6 419/3/6
f 418/3/6 419/3/6 421/3/6
f 419/3/6 420/3/6 421/3/6
f 421/3/6 420/3/6 422/3/6
f 422/3/6 420/3/6 423/3/6
f 423/3/6 420/3/6 424/3/6
f 424/3/6 420/3/6 425/3/6
f 425/3/6 420/3/6 426/3/6
f 426/3/6 420/3/6 427/3/6
f 427/3/6 420/3/6 428/3/6
f 429/2/6 430/2/6 431/2/6
f 431/2/6 430/2/6 432/2/6
f 433/3/6 434/3/6 435/3/6
f 435/3/6 434/3/6 436/3/6
f 436/3/6 434/3/6 437/3/6
f 437/3/6 434/3/6 438/3/6
f 438/3/6 434/3/6 439/3/6
f 439/3/6 434/3/6 440/3/6
f 440/3/6 434/3/6 441/3/6
f 441/3/6 434/3/6 442/3/6
f 442/3/6 434/3/6 443/3/6
f 443/3/6 434/3/6 444/3/6
f 444/3/6 434/3/6 445/3/6
f 445/3/6 434/3/6 446/3/6
f 446/3/6 434/3/6 447/3/6
f 447/3/6 434/3/6 448/3/6
f 449/3/6 450/3/6 451/3/6
f 451/3/6 450/3/6 452/3/6
f 452/3/6 450/3/6 453/3/6
f 453/3/6 450/3/6 454/3/6
f 454/3/6 450/3/6 455/3/6
f 455/3/6 450/3/6 456/3/6
f 456/3/6 450/3/6 457/3/6
f 457/3/6 450/3/6 458/3/6
f 458/3/6 450/3/6 459/3/6
f 459/3/6 450/3/6 460/3/6
f 460/3/6 450/3/6 461/3/6
f 461/3/6 450/3/6 462/3/6
f 462/3/6 450/3/6 463/3/6
f 463/3/6 450/3/6 464/3/6
f 465/3/6 466/3/6 467/3/6
f 467/3/6 466/3/6 468/3/6
f 468/3/6 466/3/6 469/3/6
f 469/3/6 466/3/6 470/3/6
f 470/3/6 466/3/6 471/3/6
f 471/3/6 466/3/6 472/3/6
f 472/3/6 466/3/6 473/3/6
f 473/3/6 466/3/6 474/3/6
f 474/3/6 466/3/6 475/3/6
f 475/3/6 466/3/6 476/3/6
f 474/3/6 475/3/6 477/3/6
f 477/3/6 475/3/6 478/3/6
f 478/3/6 475/3/6 479/3/6
f 478/3/6 479/3/6 481/3/6
f 479/3/6 480/3/6 481/3/6
f 481/3/6 480/3/6 482/3/6
f 482/3/6 480/3/6 483/3/6
f 483/3/6 480/3/6 484/3/6
f 485/1/6 486/1/6 487/1/6
f 487/1/6 486/1/6 488/1/6
f 489/3/6 490/3/6 491/3/6
f 491/3/6 490/3/6 492/3/6
