# MagicaVoxel @ Ephtracy

# group
g classical grey -

# material
mtllib classical grey -.mtl
usemtl palette

# normals
vn -1 0 0
vn 1 0 0
vn 0 0 1
vn 0 0 -1
vn 0 -1 0
vn 0 1 0

# texcoords
vt 0.0566406 0.5
vt 0.310547 0.5
vt 0.767578 0.5
vt 0.919922 0.5
vt 0.923828 0.5

# verts
v -50 0 50
v -50 0 -50
v -50 59 50
v -50 59 -50
v -42 4 -10
v -42 4 -22
v -42 10 -10
v -42 10 -22
v -42 26 42
v -42 26 33
v -42 31 42
v -42 31 33
v -42 48 -23
v -42 48 -31
v -42 52 -23
v -42 52 -31
v -41 37 26
v -41 37 19
v -41 41 26
v -41 41 19
v -47 0 50
v -47 0 26
v -47 0 20
v -47 0 -19
v -47 0 -25
v -47 0 -50
v -47 3 50
v -47 3 26
v -47 3 20
v -47 3 -19
v -47 3 -25
v -47 3 -50
v -47 4 50
v -47 4 36
v -47 4 35
v -47 4 21
v -47 4 20
v -47 4 6
v -47 4 5
v -47 4 -9
v -47 4 -10
v -47 4 -24
v -47 4 -25
v -47 4 -39
v -47 4 -40
v -47 4 -50
v -47 14 50
v -47 14 36
v -47 14 35
v -47 14 21
v -47 14 20
v -47 14 6
v -47 14 5
v -47 14 -9
v -47 14 -10
v -47 14 -24
v -47 14 -25
v -47 14 -39
v -47 14 -40
v -47 14 -50
v -47 15 50
v -47 15 36
v -47 15 35
v -47 15 21
v -47 15 20
v -47 15 6
v -47 15 5
v -47 15 -9
v -47 15 -10
v -47 15 -24
v -47 15 -25
v -47 15 -39
v -47 15 -40
v -47 15 -50
v -47 25 50
v -47 25 36
v -47 25 35
v -47 25 21
v -47 25 20
v -47 25 6
v -47 25 5
v -47 25 -9
v -47 25 -10
v -47 25 -24
v -47 25 -25
v -47 25 -39
v -47 25 -40
v -47 25 -50
v -47 26 50
v -47 26 36
v -47 26 35
v -47 26 21
v -47 26 20
v -47 26 6
v -47 26 5
v -47 26 -9
v -47 26 -10
v -47 26 -24
v -47 26 -25
v -47 26 -39
v -47 26 -40
v -47 26 -50
v -47 36 50
v -47 36 36
v -47 36 35
v -47 36 21
v -47 36 20
v -47 36 6
v -47 36 5
v -47 36 -9
v -47 36 -10
v -47 36 -24
v -47 36 -25
v -47 36 -39
v -47 36 -40
v -47 36 -50
v -47 37 50
v -47 37 36
v -47 37 35
v -47 37 21
v -47 37 20
v -47 37 6
v -47 37 5
v -47 37 -9
v -47 37 -10
v -47 37 -24
v -47 37 -25
v -47 37 -39
v -47 37 -40
v -47 37 -50
v -47 47 50
v -47 47 36
v -47 47 35
v -47 47 21
v -47 47 20
v -47 47 6
v -47 47 5
v -47 47 -9
v -47 47 -10
v -47 47 -24
v -47 47 -25
v -47 47 -39
v -47 47 -40
v -47 47 -50
v -47 48 50
v -47 48 36
v -47 48 35
v -47 48 21
v -47 48 20
v -47 48 6
v -47 48 5
v -47 48 -9
v -47 48 -10
v -47 48 -24
v -47 48 -25
v -47 48 -39
v -47 48 -40
v -47 48 -50
v -47 58 50
v -47 58 36
v -47 58 35
v -47 58 21
v -47 58 20
v -47 58 6
v -47 58 5
v -47 58 -9
v -47 58 -10
v -47 58 -24
v -47 58 -25
v -47 58 -39
v -47 58 -40
v -47 58 -50
v -34 0 26
v -34 0 20
v -34 0 -19
v -34 0 -25
v -34 3 50
v -34 3 26
v -34 3 20
v -34 3 -19
v -34 3 -25
v -34 3 -50
v -34 4 50
v -34 4 -10
v -34 4 -22
v -34 4 -50
v -34 10 -10
v -34 10 -22
v -34 14 50
v -34 14 -50
v -34 15 50
v -34 15 -50
v -34 25 50
v -34 25 -50
v -34 26 50
v -34 26 42
v -34 26 33
v -34 26 -50
v -34 31 42
v -34 31 33
v -34 36 50
v -34 36 -50
v -34 37 50
v -34 37 26
v -34 37 19
v -34 37 -50
v -34 41 26
v -34 41 19
v -34 47 50
v -34 47 -50
v -34 48 50
v -34 48 -23
v -34 48 -31
v -34 48 -50
v -34 52 -23
v -34 52 -31
v -34 58 50
v -34 58 -50
v -34 59 50
v -34 59 -50
v -50 0 50
v -50 59 50
v -47 0 50
v -47 3 50
v -47 4 50
v -47 14 50
v -47 15 50
v -47 25 50
v -47 26 50
v -47 36 50
v -47 37 50
v -47 47 50
v -47 48 50
v -47 58 50
v -34 3 50
v -34 4 50
v -34 14 50
v -34 15 50
v -34 25 50
v -34 26 50
v -34 36 50
v -34 37 50
v -34 47 50
v -34 48 50
v -34 58 50
v -34 59 50
v -42 26 42
v -42 31 42
v -34 26 42
v -34 31 42
v -47 0 26
v -47 3 26
v -41 37 26
v -41 41 26
v -34 0 26
v -34 3 26
v -34 37 26
v -34 41 26
v -42 4 -10
v -42 10 -10
v -34 4 -10
v -34 10 -10
v -47 0 -19
v -47 3 -19
v -34 0 -19
v -34 3 -19
v -42 48 -23
v -42 52 -23
v -34 48 -23
v -34 52 -23
v -42 26 33
v -42 31 33
v -34 26 33
v -34 31 33
v -47 0 20
v -47 3 20
v -34 0 20
v -34 3 20
v -41 37 19
v -41 41 19
v -34 37 19
v -34 41 19
v -42 4 -22
v -42 10 -22
v -34 4 -22
v -34 10 -22
v -47 0 -25
v -47 3 -25
v -34 0 -25
v -34 3 -25
v -42 48 -31
v -42 52 -31
v -34 48 -31
v -34 52 -31
v -50 0 -50
v -50 59 -50
v -47 0 -50
v -47 3 -50
v -47 4 -50
v -47 14 -50
v -47 15 -50
v -47 25 -50
v -47 26 -50
v -47 36 -50
v -47 37 -50
v -47 47 -50
v -47 48 -50
v -47 58 -50
v -34 3 -50
v -34 4 -50
v -34 14 -50
v -34 15 -50
v -34 25 -50
v -34 26 -50
v -34 36 -50
v -34 37 -50
v -34 47 -50
v -34 48 -50
v -34 58 -50
v -34 59 -50
v -50 0 50
v -47 0 50
v -47 0 26
v -34 0 26
v -47 0 20
v -34 0 20
v -47 0 -19
v -34 0 -19
v -47 0 -25
v -34 0 -25
v -50 0 -50
v -47 0 -50
v -47 3 50
v -34 3 50
v -47 3 26
v -34 3 26
v -47 3 20
v -34 3 20
v -47 3 -19
v -34 3 -19
v -47 3 -25
v -34 3 -25
v -47 3 -50
v -34 3 -50
v -47 14 50
v -34 14 50
v -47 14 36
v -47 14 35
v -47 14 21
v -47 14 20
v -47 14 6
v -47 14 5
v -47 14 -9
v -47 14 -10
v -47 14 -24
v -47 14 -25
v -47 14 -39
v -47 14 -40
v -47 14 -50
v -34 14 -50
v -47 25 50
v -34 25 50
v -47 25 36
v -47 25 35
v -47 25 21
v -47 25 20
v -47 25 6
v -47 25 5
v -47 25 -9
v -47 25 -10
v -47 25 -24
v -47 25 -25
v -47 25 -39
v -47 25 -40
v -47 25 -50
v -34 25 -50
v -47 36 50
v -34 36 50
v -47 36 36
v -47 36 35
v -47 36 21
v -47 36 20
v -47 36 6
v -47 36 5
v -47 36 -9
v -47 36 -10
v -47 36 -24
v -47 36 -25
v -47 36 -39
v -47 36 -40
v -47 36 -50
v -34 36 -50
v -47 47 50
v -34 47 50
v -47 47 36
v -47 47 35
v -47 47 21
v -47 47 20
v -47 47 6
v -47 47 5
v -47 47 -9
v -47 47 -10
v -47 47 -24
v -47 47 -25
v -47 47 -39
v -47 47 -40
v -47 47 -50
v -34 47 -50
v -47 58 50
v -34 58 50
v -47 58 36
v -47 58 35
v -47 58 21
v -47 58 20
v -47 58 6
v -47 58 5
v -47 58 -9
v -47 58 -10
v -47 58 -24
v -47 58 -25
v -47 58 -39
v -47 58 -40
v -47 58 -50
v -34 58 -50
v -47 4 50
v -34 4 50
v -47 4 36
v -47 4 35
v -47 4 21
v -47 4 20
v -47 4 6
v -47 4 5
v -47 4 -9
v -47 4 -10
v -42 4 -10
v -34 4 -10
v -42 4 -22
v -34 4 -22
v -47 4 -24
v -47 4 -25
v -47 4 -39
v -47 4 -40
v -47 4 -50
v -34 4 -50
v -42 10 -10
v -34 10 -10
v -42 10 -22
v -34 10 -22
v -47 15 50
v -34 15 50
v -47 15 36
v -47 15 35
v -47 15 21
v -47 15 20
v -47 15 6
v -47 15 5
v -47 15 -9
v -47 15 -10
v -47 15 -24
v -47 15 -25
v -47 15 -39
v -47 15 -40
v -47 15 -50
v -34 15 -50
v -47 26 50
v -34 26 50
v -42 26 42
v -34 26 42
v -47 26 36
v -47 26 35
v -42 26 33
v -34 26 33
v -47 26 21
v -47 26 20
v -47 26 6
v -47 26 5
v -47 26 -9
v -47 26 -10
v -47 26 -24
v -47 26 -25
v -47 26 -39
v -47 26 -40
v -47 26 -50
v -34 26 -50
v -42 31 42
v -34 31 42
v -42 31 33
v -34 31 33
v -47 37 50
v -34 37 50
v -47 37 36
v -47 37 35
v -41 37 26
v -34 37 26
v -47 37 21
v -47 37 20
v -41 37 19
v -34 37 19
v -47 37 6
v -47 37 5
v -47 37 -9
v -47 37 -10
v -47 37 -24
v -47 37 -25
v -47 37 -39
v -47 37 -40
v -47 37 -50
v -34 37 -50
v -41 41 26
v -34 41 26
v -41 41 19
v -34 41 19
v -47 48 50
v -34 48 50
v -47 48 36
v -47 48 35
v -47 48 21
v -47 48 20
v -47 48 6
v -47 48 5
v -47 48 -9
v -47 48 -10
v -42 48 -23
v -34 48 -23
v -47 48 -24
v -47 48 -25
v -42 48 -31
v -34 48 -31
v -47 48 -39
v -47 48 -40
v -47 48 -50
v -34 48 -50
v -42 52 -23
v -34 52 -23
v -42 52 -31
v -34 52 -31
v -50 59 50
v -34 59 50
v -50 59 -50
v -34 59 -50

# faces
f 3/4/1 2/4/1 1/4/1
f 4/4/1 2/4/1 3/4/1
f 7/1/1 6/1/1 5/1/1
f 8/1/1 6/1/1 7/1/1
f 11/2/1 10/2/1 9/2/1
f 12/2/1 10/2/1 11/2/1
f 15/2/1 14/2/1 13/2/1
f 16/2/1 14/2/1 15/2/1
f 19/3/1 18/3/1 17/3/1
f 20/3/1 18/3/1 19/3/1
f 21/4/2 22/4/2 27/4/2
f 27/4/2 22/4/2 28/4/2
f 23/4/2 24/4/2 29/4/2
f 29/4/2 24/4/2 30/4/2
f 25/4/2 26/4/2 31/4/2
f 31/4/2 26/4/2 32/4/2
f 33/4/2 34/4/2 47/4/2
f 34/5/2 35/5/2 48/5/2
f 47/4/2 34/4/2 48/4/2
f 35/4/2 36/4/2 49/4/2
f 48/5/2 35/5/2 49/5/2
f 36/5/2 37/5/2 50/5/2
f 49/4/2 36/4/2 50/4/2
f 37/4/2 38/4/2 51/4/2
f 50/5/2 37/5/2 51/5/2
f 38/5/2 39/5/2 52/5/2
f 51/4/2 38/4/2 52/4/2
f 39/4/2 40/4/2 53/4/2
f 52/5/2 39/5/2 53/5/2
f 40/5/2 41/5/2 54/5/2
f 53/4/2 40/4/2 54/4/2
f 41/4/2 42/4/2 55/4/2
f 54/5/2 41/5/2 55/5/2
f 42/5/2 43/5/2 56/5/2
f 55/4/2 42/4/2 56/4/2
f 43/4/2 44/4/2 57/4/2
f 56/5/2 43/5/2 57/5/2
f 44/5/2 45/5/2 58/5/2
f 57/4/2 44/4/2 58/4/2
f 45/4/2 46/4/2 59/4/2
f 58/5/2 45/5/2 59/5/2
f 59/4/2 46/4/2 60/4/2
f 61/4/2 62/4/2 75/4/2
f 62/5/2 63/5/2 76/5/2
f 75/4/2 62/4/2 76/4/2
f 63/4/2 64/4/2 77/4/2
f 76/5/2 63/5/2 77/5/2
f 64/5/2 65/5/2 78/5/2
f 77/4/2 64/4/2 78/4/2
f 65/4/2 66/4/2 79/4/2
f 78/5/2 65/5/2 79/5/2
f 66/5/2 67/5/2 80/5/2
f 79/4/2 66/4/2 80/4/2
f 67/4/2 68/4/2 81/4/2
f 80/5/2 67/5/2 81/5/2
f 68/5/2 69/5/2 82/5/2
f 81/4/2 68/4/2 82/4/2
f 69/4/2 70/4/2 83/4/2
f 82/5/2 69/5/2 83/5/2
f 70/5/2 71/5/2 84/5/2
f 83/4/2 70/4/2 84/4/2
f 71/4/2 72/4/2 85/4/2
f 84/5/2 71/5/2 85/5/2
f 72/5/2 73/5/2 86/5/2
f 85/4/2 72/4/2 86/4/2
f 73/4/2 74/4/2 87/4/2
f 86/5/2 73/5/2 87/5/2
f 87/4/2 74/4/2 88/4/2
f 89/4/2 90/4/2 103/4/2
f 90/5/2 91/5/2 104/5/2
f 103/4/2 90/4/2 104/4/2
f 91/4/2 92/4/2 105/4/2
f 104/5/2 91/5/2 105/5/2
f 92/5/2 93/5/2 106/5/2
f 105/4/2 92/4/2 106/4/2
f 93/4/2 94/4/2 107/4/2
f 106/5/2 93/5/2 107/5/2
f 94/5/2 95/5/2 108/5/2
f 107/4/2 94/4/2 108/4/2
f 95/4/2 96/4/2 109/4/2
f 108/5/2 95/5/2 109/5/2
f 96/5/2 97/5/2 110/5/2
f 109/4/2 96/4/2 110/4/2
f 97/4/2 98/4/2 111/4/2
f 110/5/2 97/5/2 111/5/2
f 98/5/2 99/5/2 112/5/2
f 111/4/2 98/4/2 112/4/2
f 99/4/2 100/4/2 113/4/2
f 112/5/2 99/5/2 113/5/2
f 100/5/2 101/5/2 114/5/2
f 113/4/2 100/4/2 114/4/2
f 101/4/2 102/4/2 115/4/2
f 114/5/2 101/5/2 115/5/2
f 115/4/2 102/4/2 116/4/2
f 117/4/2 118/4/2 131/4/2
f 118/5/2 119/5/2 132/5/2
f 131/4/2 118/4/2 132/4/2
f 119/4/2 120/4/2 133/4/2
f 132/5/2 119/5/2 133/5/2
f 120/5/2 121/5/2 134/5/2
f 133/4/2 120/4/2 134/4/2
f 121/4/2 122/4/2 135/4/2
f 134/5/2 121/5/2 135/5/2
f 122/5/2 123/5/2 136/5/2
f 135/4/2 122/4/2 136/4/2
f 123/4/2 124/4/2 137/4/2
f 136/5/2 123/5/2 137/5/2
f 124/5/2 125/5/2 138/5/2
f 137/4/2 124/4/2 138/4/2
f 125/4/2 126/4/2 139/4/2
f 138/5/2 125/5/2 139/5/2
f 126/5/2 127/5/2 140/5/2
f 139/4/2 126/4/2 140/4/2
f 127/4/2 128/4/2 141/4/2
f 140/5/2 127/5/2 141/5/2
f 128/5/2 129/5/2 142/5/2
f 141/4/2 128/4/2 142/4/2
f 129/4/2 130/4/2 143/4/2
f 142/5/2 129/5/2 143/5/2
f 143/4/2 130/4/2 144/4/2
f 145/4/2 146/4/2 159/4/2
f 146/5/2 147/5/2 160/5/2
f 159/4/2 146/4/2 160/4/2
f 147/4/2 148/4/2 161/4/2
f 160/5/2 147/5/2 161/5/2
f 148/5/2 149/5/2 162/5/2
f 161/4/2 148/4/2 162/4/2
f 149/4/2 150/4/2 163/4/2
f 162/5/2 149/5/2 163/5/2
f 150/5/2 151/5/2 164/5/2
f 163/4/2 150/4/2 164/4/2
f 151/4/2 152/4/2 165/4/2
f 164/5/2 151/5/2 165/5/2
f 152/5/2 153/5/2 166/5/2
f 165/4/2 152/4/2 166/4/2
f 153/4/2 154/4/2 167/4/2
f 166/5/2 153/5/2 167/5/2
f 154/5/2 155/5/2 168/5/2
f 167/4/2 154/4/2 168/4/2
f 155/4/2 156/4/2 169/4/2
f 168/5/2 155/5/2 169/5/2
f 156/5/2 157/5/2 170/5/2
f 169/4/2 156/4/2 170/4/2
f 157/4/2 158/4/2 171/4/2
f 170/5/2 157/5/2 171/5/2
f 171/4/2 158/4/2 172/4/2
f 173/4/2 174/4/2 178/4/2
f 178/4/2 174/4/2 179/4/2
f 175/4/2 176/4/2 180/4/2
f 180/4/2 176/4/2 181/4/2
f 178/4/2 179/4/2 183/4/2
f 181/4/2 182/4/2 183/4/2
f 180/4/2 181/4/2 183/4/2
f 179/4/2 180/4/2 183/4/2
f 177/4/2 178/4/2 183/4/2
f 183/4/2 182/4/2 184/4/2
f 184/4/2 182/4/2 185/4/2
f 185/4/2 182/4/2 186/4/2
f 184/1/2 185/1/2 187/1/2
f 187/1/2 185/1/2 188/1/2
f 189/4/2 190/4/2 191/4/2
f 191/4/2 190/4/2 192/4/2
f 193/4/2 194/4/2 195/4/2
f 195/4/2 194/4/2 196/4/2
f 196/4/2 194/4/2 197/4/2
f 197/4/2 194/4/2 198/4/2
f 196/2/2 197/2/2 199/2/2
f 199/2/2 197/2/2 200/2/2
f 201/4/2 202/4/2 203/4/2
f 203/4/2 202/4/2 204/4/2
f 204/4/2 202/4/2 205/4/2
f 205/4/2 202/4/2 206/4/2
f 204/3/2 205/3/2 207/3/2
f 207/3/2 205/3/2 208/3/2
f 209/4/2 210/4/2 211/4/2
f 211/4/2 210/4/2 212/4/2
f 212/4/2 210/4/2 213/4/2
f 213/4/2 210/4/2 214/4/2
f 212/2/2 213/2/2 215/2/2
f 215/2/2 213/2/2 216/2/2
f 217/4/2 218/4/2 219/4/2
f 219/4/2 218/4/2 220/4/2
f 223/4/3 222/4/3 221/4/3
f 224/4/3 222/4/3 223/4/3
f 225/4/3 222/4/3 224/4/3
f 226/4/3 222/4/3 225/4/3
f 227/4/3 222/4/3 226/4/3
f 228/4/3 222/4/3 227/4/3
f 229/4/3 222/4/3 228/4/3
f 230/4/3 222/4/3 229/4/3
f 231/4/3 222/4/3 230/4/3
f 232/4/3 222/4/3 231/4/3
f 233/4/3 222/4/3 232/4/3
f 234/4/3 222/4/3 233/4/3
f 235/4/3 225/4/3 224/4/3
f 236/4/3 225/4/3 235/4/3
f 237/4/3 227/4/3 226/4/3
f 238/4/3 227/4/3 237/4/3
f 239/4/3 229/4/3 228/4/3
f 240/4/3 229/4/3 239/4/3
f 241/4/3 231/4/3 230/4/3
f 242/4/3 231/4/3 241/4/3
f 243/4/3 233/4/3 232/4/3
f 244/4/3 233/4/3 243/4/3
f 245/4/3 222/4/3 234/4/3
f 246/4/3 222/4/3 245/4/3
f 249/2/3 248/2/3 247/2/3
f 250/2/3 248/2/3 249/2/3
f 255/4/3 252/4/3 251/4/3
f 256/4/3 252/4/3 255/4/3
f 257/3/3 254/3/3 253/3/3
f 258/3/3 254/3/3 257/3/3
f 261/1/3 260/1/3 259/1/3
f 262/1/3 260/1/3 261/1/3
f 265/4/3 264/4/3 263/4/3
f 266/4/3 264/4/3 265/4/3
f 269/2/3 268/2/3 267/2/3
f 270/2/3 268/2/3 269/2/3
f 271/2/4 272/2/4 273/2/4
f 273/2/4 272/2/4 274/2/4
f 275/4/4 276/4/4 277/4/4
f 277/4/4 276/4/4 278/4/4
f 279/3/4 280/3/4 281/3/4
f 281/3/4 280/3/4 282/3/4
f 283/1/4 284/1/4 285/1/4
f 285/1/4 284/1/4 286/1/4
f 287/4/4 288/4/4 289/4/4
f 289/4/4 288/4/4 290/4/4
f 291/2/4 292/2/4 293/2/4
f 293/2/4 292/2/4 294/2/4
f 295/4/4 296/4/4 297/4/4
f 297/4/4 296/4/4 298/4/4
f 298/4/4 296/4/4 299/4/4
f 299/4/4 296/4/4 300/4/4
f 300/4/4 296/4/4 301/4/4
f 301/4/4 296/4/4 302/4/4
f 302/4/4 296/4/4 303/4/4
f 303/4/4 296/4/4 304/4/4
f 304/4/4 296/4/4 305/4/4
f 305/4/4 296/4/4 306/4/4
f 306/4/4 296/4/4 307/4/4
f 307/4/4 296/4/4 308/4/4
f 298/4/4 299/4/4 309/4/4
f 309/4/4 299/4/4 310/4/4
f 300/4/4 301/4/4 311/4/4
f 311/4/4 301/4/4 312/4/4
f 302/4/4 303/4/4 313/4/4
f 313/4/4 303/4/4 314/4/4
f 304/4/4 305/4/4 315/4/4
f 315/4/4 305/4/4 316/4/4
f 306/4/4 307/4/4 317/4/4
f 317/4/4 307/4/4 318/4/4
f 308/4/4 296/4/4 319/4/4
f 319/4/4 296/4/4 320/4/4
f 323/4/5 322/4/5 321/4/5
f 325/4/5 323/4/5 321/4/5
f 325/4/5 324/4/5 323/4/5
f 326/4/5 324/4/5 325/4/5
f 327/4/5 325/4/5 321/4/5
f 329/4/5 327/4/5 321/4/5
f 329/4/5 328/4/5 327/4/5
f 330/4/5 328/4/5 329/4/5
f 331/4/5 329/4/5 321/4/5
f 332/4/5 329/4/5 331/4/5
f 335/4/5 334/4/5 333/4/5
f 336/4/5 334/4/5 335/4/5
f 339/4/5 338/4/5 337/4/5
f 340/4/5 338/4/5 339/4/5
f 343/4/5 342/4/5 341/4/5
f 344/4/5 342/4/5 343/4/5
f 347/4/5 346/4/5 345/4/5
f 348/4/5 346/4/5 347/4/5
f 349/4/5 346/4/5 348/4/5
f 350/4/5 346/4/5 349/4/5
f 351/4/5 346/4/5 350/4/5
f 352/4/5 346/4/5 351/4/5
f 353/4/5 346/4/5 352/4/5
f 354/4/5 346/4/5 353/4/5
f 355/4/5 346/4/5 354/4/5
f 356/4/5 346/4/5 355/4/5
f 357/4/5 346/4/5 356/4/5
f 358/4/5 346/4/5 357/4/5
f 359/4/5 346/4/5 358/4/5
f 360/4/5 346/4/5 359/4/5
f 363/4/5 362/4/5 361/4/5
f 364/4/5 362/4/5 363/4/5
f 365/4/5 362/4/5 364/4/5
f 366/4/5 362/4/5 365/4/5
f 367/4/5 362/4/5 366/4/5
f 368/4/5 362/4/5 367/4/5
f 369/4/5 362/4/5 368/4/5
f 370/4/5 362/4/5 369/4/5
f 371/4/5 362/4/5 370/4/5
f 372/4/5 362/4/5 371/4/5
f 373/4/5 362/4/5 372/4/5
f 374/4/5 362/4/5 373/4/5
f 375/4/5 362/4/5 374/4/5
f 376/4/5 362/4/5 375/4/5
f 379/4/5 378/4/5 377/4/5
f 380/4/5 378/4/5 379/4/5
f 381/4/5 378/4/5 380/4/5
f 382/4/5 378/4/5 381/4/5
f 383/4/5 378/4/5 382/4/5
f 384/4/5 378/4/5 383/4/5
f 385/4/5 378/4/5 384/4/5
f 386/4/5 378/4/5 385/4/5
f 387/4/5 378/4/5 386/4/5
f 388/4/5 378/4/5 387/4/5
f 389/4/5 378/4/5 388/4/5
f 390/4/5 378/4/5 389/4/5
f 391/4/5 378/4/5 390/4/5
f 392/4/5 378/4/5 391/4/5
f 395/4/5 394/4/5 393/4/5
f 396/4/5 394/4/5 395/4/5
f 397/4/5 394/4/5 396/4/5
f 398/4/5 394/4/5 397/4/5
f 399/4/5 394/4/5 398/4/5
f 400/4/5 394/4/5 399/4/5
f 401/4/5 394/4/5 400/4/5
f 402/4/5 394/4/5 401/4/5
f 403/4/5 394/4/5 402/4/5
f 404/4/5 394/4/5 403/4/5
f 405/4/5 394/4/5 404/4/5
f 406/4/5 394/4/5 405/4/5
f 407/4/5 394/4/5 406/4/5
f 408/4/5 394/4/5 407/4/5
f 411/4/5 410/4/5 409/4/5
f 412/4/5 410/4/5 411/4/5
f 413/4/5 410/4/5 412/4/5
f 414/4/5 410/4/5 413/4/5
f 415/4/5 410/4/5 414/4/5
f 416/4/5 410/4/5 415/4/5
f 417/4/5 410/4/5 416/4/5
f 418/4/5 410/4/5 417/4/5
f 419/4/5 410/4/5 418/4/5
f 420/4/5 410/4/5 419/4/5
f 421/4/5 410/4/5 420/4/5
f 422/4/5 410/4/5 421/4/5
f 423/4/5 410/4/5 422/4/5
f 424/4/5 410/4/5 423/4/5
f 425/4/6 426/4/6 427/4/6
f 427/4/6 426/4/6 428/4/6
f 428/4/6 426/4/6 429/4/6
f 429/4/6 426/4/6 430/4/6
f 430/4/6 426/4/6 431/4/6
f 431/4/6 426/4/6 432/4/6
f 432/4/6 426/4/6 433/4/6
f 433/4/6 426/4/6 434/4/6
f 434/4/6 426/4/6 435/4/6
f 435/4/6 426/4/6 436/4/6
f 434/4/6 435/4/6 437/4/6
f 434/4/6 437/4/6 439/4/6
f 437/4/6 438/4/6 439/4/6
f 439/4/6 438/4/6 440/4/6
f 440/4/6 438/4/6 441/4/6
f 441/4/6 438/4/6 442/4/6
f 442/4/6 438/4/6 443/4/6
f 443/4/6 438/4/6 444/4/6
f 445/1/6 446/1/6 447/1/6
f 447/1/6 446/1/6 448/1/6
f 449/4/6 450/4/6 451/4/6
f 451/4/6 450/4/6 452/4/6
f 452/4/6 450/4/6 453/4/6
f 453/4/6 450/4/6 454/4/6
f 454/4/6 450/4/6 455/4/6
f 455/4/6 450/4/6 456/4/6
f 456/4/6 450/4/6 457/4/6
f 457/4/6 450/4/6 458/4/6
f 458/4/6 450/4/6 459/4/6
f 459/4/6 450/4/6 460/4/6
f 460/4/6 450/4/6 461/4/6
f 461/4/6 450/4/6 462/4/6
f 462/4/6 450/4/6 463/4/6
f 463/4/6 450/4/6 464/4/6
f 465/4/6 466/4/6 467/4/6
f 467/4/6 466/4/6 468/4/6
f 465/4/6 467/4/6 469/4/6
f 469/4/6 467/4/6 470/4/6
f 470/4/6 467/4/6 471/4/6
f 470/4/6 471/4/6 473/4/6
f 471/4/6 472/4/6 473/4/6
f 473/4/6 472/4/6 474/4/6
f 474/4/6 472/4/6 475/4/6
f 475/4/6 472/4/6 476/4/6
f 476/4/6 472/4/6 477/4/6
f 477/4/6 472/4/6 478/4/6
f 478/4/6 472/4/6 479/4/6
f 479/4/6 472/4/6 480/4/6
f 480/4/6 472/4/6 481/4/6
f 481/4/6 472/4/6 482/4/6
f 482/4/6 472/4/6 483/4/6
f 483/4/6 472/4/6 484/4/6
f 485/2/6 486/2/6 487/2/6
f 487/2/6 486/2/6 488/2/6
f 489/4/6 490/4/6 491/4/6
f 491/4/6 490/4/6 492/4/6
f 492/4/6 490/4/6 493/4/6
f 493/4/6 490/4/6 494/4/6
f 492/4/6 493/4/6 495/4/6
f 495/4/6 493/4/6 496/4/6
f 496/4/6 493/4/6 497/4/6
f 496/4/6 497/4/6 499/4/6
f 497/4/6 498/4/6 499/4/6
f 499/4/6 498/4/6 500/4/6
f 500/4/6 498/4/6 501/4/6
f 501/4/6 498/4/6 502/4/6
f 502/4/6 498/4/6 503/4/6
f 503/4/6 498/4/6 504/4/6
f 504/4/6 498/4/6 505/4/6
f 505/4/6 498/4/6 506/4/6
f 506/4/6 498/4/6 507/4/6
f 507/4/6 498/4/6 508/4/6
f 509/3/6 510/3/6 511/3/6
f 511/3/6 510/3/6 512/3/6
f 513/4/6 514/4/6 515/4/6
f 515/4/6 514/4/6 516/4/6
f 516/4/6 514/4/6 517/4/6
f 517/4/6 514/4/6 518/4/6
f 518/4/6 514/4/6 519/4/6
f 519/4/6 514/4/6 520/4/6
f 520/4/6 514/4/6 521/4/6
f 521/4/6 514/4/6 522/4/6
f 522/4/6 514/4/6 523/4/6
f 523/4/6 514/4/6 524/4/6
f 522/4/6 523/4/6 525/4/6
f 525/4/6 523/4/6 526/4/6
f 526/4/6 523/4/6 527/4/6
f 526/4/6 527/4/6 529/4/6
f 527/4/6 528/4/6 529/4/6
f 529/4/6 528/4/6 530/4/6
f 530/4/6 528/4/6 531/4/6
f 531/4/6 528/4/6 532/4/6
f 533/2/6 534/2/6 535/2/6
f 535/2/6 534/2/6 536/2/6
f 537/4/6 538/4/6 539/4/6
f 539/4/6 538/4/6 540/4/6
