# MagicaVoxel @ Ephtracy

# group
g classical grey

# material
mtllib classical grey.mtl
usemtl palette

# normals
vn -1 0 0
vn 1 0 0
vn 0 0 1
vn 0 0 -1
vn 0 -1 0
vn 0 1 0

# texcoords
vt 0.919922 0.5
vt 0.923828 0.5

# verts
v -50 0 50
v -50 0 -50
v -50 59 50
v -50 59 -50
v -47 0 50
v -47 0 26
v -47 0 20
v -47 0 -19
v -47 0 -25
v -47 0 -50
v -47 3 50
v -47 3 26
v -47 3 20
v -47 3 -19
v -47 3 -25
v -47 3 -50
v -47 4 50
v -47 4 36
v -47 4 35
v -47 4 21
v -47 4 20
v -47 4 6
v -47 4 5
v -47 4 -9
v -47 4 -10
v -47 4 -24
v -47 4 -25
v -47 4 -39
v -47 4 -40
v -47 4 -50
v -47 14 50
v -47 14 36
v -47 14 35
v -47 14 21
v -47 14 20
v -47 14 6
v -47 14 5
v -47 14 -9
v -47 14 -10
v -47 14 -24
v -47 14 -25
v -47 14 -39
v -47 14 -40
v -47 14 -50
v -47 15 50
v -47 15 36
v -47 15 35
v -47 15 21
v -47 15 20
v -47 15 6
v -47 15 5
v -47 15 -9
v -47 15 -10
v -47 15 -24
v -47 15 -25
v -47 15 -39
v -47 15 -40
v -47 15 -50
v -47 25 50
v -47 25 36
v -47 25 35
v -47 25 21
v -47 25 20
v -47 25 6
v -47 25 5
v -47 25 -9
v -47 25 -10
v -47 25 -24
v -47 25 -25
v -47 25 -39
v -47 25 -40
v -47 25 -50
v -47 26 50
v -47 26 36
v -47 26 35
v -47 26 21
v -47 26 20
v -47 26 6
v -47 26 5
v -47 26 -9
v -47 26 -10
v -47 26 -24
v -47 26 -25
v -47 26 -39
v -47 26 -40
v -47 26 -50
v -47 36 50
v -47 36 36
v -47 36 35
v -47 36 21
v -47 36 20
v -47 36 6
v -47 36 5
v -47 36 -9
v -47 36 -10
v -47 36 -24
v -47 36 -25
v -47 36 -39
v -47 36 -40
v -47 36 -50
v -47 37 50
v -47 37 36
v -47 37 35
v -47 37 21
v -47 37 20
v -47 37 6
v -47 37 5
v -47 37 -9
v -47 37 -10
v -47 37 -24
v -47 37 -25
v -47 37 -39
v -47 37 -40
v -47 37 -50
v -47 47 50
v -47 47 36
v -47 47 35
v -47 47 21
v -47 47 20
v -47 47 6
v -47 47 5
v -47 47 -9
v -47 47 -10
v -47 47 -24
v -47 47 -25
v -47 47 -39
v -47 47 -40
v -47 47 -50
v -47 48 50
v -47 48 36
v -47 48 35
v -47 48 21
v -47 48 20
v -47 48 6
v -47 48 5
v -47 48 -9
v -47 48 -10
v -47 48 -24
v -47 48 -25
v -47 48 -39
v -47 48 -40
v -47 48 -50
v -47 58 50
v -47 58 36
v -47 58 35
v -47 58 21
v -47 58 20
v -47 58 6
v -47 58 5
v -47 58 -9
v -47 58 -10
v -47 58 -24
v -47 58 -25
v -47 58 -39
v -47 58 -40
v -47 58 -50
v -34 0 26
v -34 0 20
v -34 0 -19
v -34 0 -25
v -34 3 50
v -34 3 26
v -34 3 20
v -34 3 -19
v -34 3 -25
v -34 3 -50
v -34 4 50
v -34 4 -50
v -34 14 50
v -34 14 -50
v -34 15 50
v -34 15 -50
v -34 25 50
v -34 25 -50
v -34 26 50
v -34 26 -50
v -34 36 50
v -34 36 -50
v -34 37 50
v -34 37 -50
v -34 47 50
v -34 47 -50
v -34 48 50
v -34 48 -50
v -34 58 50
v -34 58 -50
v -34 59 50
v -34 59 -50
v -50 0 50
v -50 59 50
v -47 0 50
v -47 3 50
v -47 4 50
v -47 14 50
v -47 15 50
v -47 25 50
v -47 26 50
v -47 36 50
v -47 37 50
v -47 47 50
v -47 48 50
v -47 58 50
v -34 3 50
v -34 4 50
v -34 14 50
v -34 15 50
v -34 25 50
v -34 26 50
v -34 36 50
v -34 37 50
v -34 47 50
v -34 48 50
v -34 58 50
v -34 59 50
v -47 0 26
v -47 3 26
v -34 0 26
v -34 3 26
v -47 0 -19
v -47 3 -19
v -34 0 -19
v -34 3 -19
v -47 0 20
v -47 3 20
v -34 0 20
v -34 3 20
v -47 0 -25
v -47 3 -25
v -34 0 -25
v -34 3 -25
v -50 0 -50
v -50 59 -50
v -47 0 -50
v -47 3 -50
v -47 4 -50
v -47 14 -50
v -47 15 -50
v -47 25 -50
v -47 26 -50
v -47 36 -50
v -47 37 -50
v -47 47 -50
v -47 48 -50
v -47 58 -50
v -34 3 -50
v -34 4 -50
v -34 14 -50
v -34 15 -50
v -34 25 -50
v -34 26 -50
v -34 36 -50
v -34 37 -50
v -34 47 -50
v -34 48 -50
v -34 58 -50
v -34 59 -50
v -50 0 50
v -47 0 50
v -47 0 26
v -34 0 26
v -47 0 20
v -34 0 20
v -47 0 -19
v -34 0 -19
v -47 0 -25
v -34 0 -25
v -50 0 -50
v -47 0 -50
v -47 3 50
v -34 3 50
v -47 3 26
v -34 3 26
v -47 3 20
v -34 3 20
v -47 3 -19
v -34 3 -19
v -47 3 -25
v -34 3 -25
v -47 3 -50
v -34 3 -50
v -47 14 50
v -34 14 50
v -47 14 36
v -47 14 35
v -47 14 21
v -47 14 20
v -47 14 6
v -47 14 5
v -47 14 -9
v -47 14 -10
v -47 14 -24
v -47 14 -25
v -47 14 -39
v -47 14 -40
v -47 14 -50
v -34 14 -50
v -47 25 50
v -34 25 50
v -47 25 36
v -47 25 35
v -47 25 21
v -47 25 20
v -47 25 6
v -47 25 5
v -47 25 -9
v -47 25 -10
v -47 25 -24
v -47 25 -25
v -47 25 -39
v -47 25 -40
v -47 25 -50
v -34 25 -50
v -47 36 50
v -34 36 50
v -47 36 36
v -47 36 35
v -47 36 21
v -47 36 20
v -47 36 6
v -47 36 5
v -47 36 -9
v -47 36 -10
v -47 36 -24
v -47 36 -25
v -47 36 -39
v -47 36 -40
v -47 36 -50
v -34 36 -50
v -47 47 50
v -34 47 50
v -47 47 36
v -47 47 35
v -47 47 21
v -47 47 20
v -47 47 6
v -47 47 5
v -47 47 -9
v -47 47 -10
v -47 47 -24
v -47 47 -25
v -47 47 -39
v -47 47 -40
v -47 47 -50
v -34 47 -50
v -47 58 50
v -34 58 50
v -47 58 36
v -47 58 35
v -47 58 21
v -47 58 20
v -47 58 6
v -47 58 5
v -47 58 -9
v -47 58 -10
v -47 58 -24
v -47 58 -25
v -47 58 -39
v -47 58 -40
v -47 58 -50
v -34 58 -50
v -47 4 50
v -34 4 50
v -47 4 36
v -47 4 35
v -47 4 21
v -47 4 20
v -47 4 6
v -47 4 5
v -47 4 -9
v -47 4 -10
v -47 4 -24
v -47 4 -25
v -47 4 -39
v -47 4 -40
v -47 4 -50
v -34 4 -50
v -47 15 50
v -34 15 50
v -47 15 36
v -47 15 35
v -47 15 21
v -47 15 20
v -47 15 6
v -47 15 5
v -47 15 -9
v -47 15 -10
v -47 15 -24
v -47 15 -25
v -47 15 -39
v -47 15 -40
v -47 15 -50
v -34 15 -50
v -47 26 50
v -34 26 50
v -47 26 36
v -47 26 35
v -47 26 21
v -47 26 20
v -47 26 6
v -47 26 5
v -47 26 -9
v -47 26 -10
v -47 26 -24
v -47 26 -25
v -47 26 -39
v -47 26 -40
v -47 26 -50
v -34 26 -50
v -47 37 50
v -34 37 50
v -47 37 36
v -47 37 35
v -47 37 21
v -47 37 20
v -47 37 6
v -47 37 5
v -47 37 -9
v -47 37 -10
v -47 37 -24
v -47 37 -25
v -47 37 -39
v -47 37 -40
v -47 37 -50
v -34 37 -50
v -47 48 50
v -34 48 50
v -47 48 36
v -47 48 35
v -47 48 21
v -47 48 20
v -47 48 6
v -47 48 5
v -47 48 -9
v -47 48 -10
v -47 48 -24
v -47 48 -25
v -47 48 -39
v -47 48 -40
v -47 48 -50
v -34 48 -50
v -50 59 50
v -34 59 50
v -50 59 -50
v -34 59 -50

# faces
f 3/1/1 2/1/1 1/1/1
f 4/1/1 2/1/1 3/1/1
f 5/1/2 6/1/2 11/1/2
f 11/1/2 6/1/2 12/1/2
f 7/1/2 8/1/2 13/1/2
f 13/1/2 8/1/2 14/1/2
f 9/1/2 10/1/2 15/1/2
f 15/1/2 10/1/2 16/1/2
f 17/1/2 18/1/2 31/1/2
f 18/2/2 19/2/2 32/2/2
f 31/1/2 18/1/2 32/1/2
f 19/1/2 20/1/2 33/1/2
f 32/2/2 19/2/2 33/2/2
f 20/2/2 21/2/2 34/2/2
f 33/1/2 20/1/2 34/1/2
f 21/1/2 22/1/2 35/1/2
f 34/2/2 21/2/2 35/2/2
f 22/2/2 23/2/2 36/2/2
f 35/1/2 22/1/2 36/1/2
f 23/1/2 24/1/2 37/1/2
f 36/2/2 23/2/2 37/2/2
f 24/2/2 25/2/2 38/2/2
f 37/1/2 24/1/2 38/1/2
f 25/1/2 26/1/2 39/1/2
f 38/2/2 25/2/2 39/2/2
f 26/2/2 27/2/2 40/2/2
f 39/1/2 26/1/2 40/1/2
f 27/1/2 28/1/2 41/1/2
f 40/2/2 27/2/2 41/2/2
f 28/2/2 29/2/2 42/2/2
f 41/1/2 28/1/2 42/1/2
f 29/1/2 30/1/2 43/1/2
f 42/2/2 29/2/2 43/2/2
f 43/1/2 30/1/2 44/1/2
f 45/1/2 46/1/2 59/1/2
f 46/2/2 47/2/2 60/2/2
f 59/1/2 46/1/2 60/1/2
f 47/1/2 48/1/2 61/1/2
f 60/2/2 47/2/2 61/2/2
f 48/2/2 49/2/2 62/2/2
f 61/1/2 48/1/2 62/1/2
f 49/1/2 50/1/2 63/1/2
f 62/2/2 49/2/2 63/2/2
f 50/2/2 51/2/2 64/2/2
f 63/1/2 50/1/2 64/1/2
f 51/1/2 52/1/2 65/1/2
f 64/2/2 51/2/2 65/2/2
f 52/2/2 53/2/2 66/2/2
f 65/1/2 52/1/2 66/1/2
f 53/1/2 54/1/2 67/1/2
f 66/2/2 53/2/2 67/2/2
f 54/2/2 55/2/2 68/2/2
f 67/1/2 54/1/2 68/1/2
f 55/1/2 56/1/2 69/1/2
f 68/2/2 55/2/2 69/2/2
f 56/2/2 57/2/2 70/2/2
f 69/1/2 56/1/2 70/1/2
f 57/1/2 58/1/2 71/1/2
f 70/2/2 57/2/2 71/2/2
f 71/1/2 58/1/2 72/1/2
f 73/1/2 74/1/2 87/1/2
f 74/2/2 75/2/2 88/2/2
f 87/1/2 74/1/2 88/1/2
f 75/1/2 76/1/2 89/1/2
f 88/2/2 75/2/2 89/2/2
f 76/2/2 77/2/2 90/2/2
f 89/1/2 76/1/2 90/1/2
f 77/1/2 78/1/2 91/1/2
f 90/2/2 77/2/2 91/2/2
f 78/2/2 79/2/2 92/2/2
f 91/1/2 78/1/2 92/1/2
f 79/1/2 80/1/2 93/1/2
f 92/2/2 79/2/2 93/2/2
f 80/2/2 81/2/2 94/2/2
f 93/1/2 80/1/2 94/1/2
f 81/1/2 82/1/2 95/1/2
f 94/2/2 81/2/2 95/2/2
f 82/2/2 83/2/2 96/2/2
f 95/1/2 82/1/2 96/1/2
f 83/1/2 84/1/2 97/1/2
f 96/2/2 83/2/2 97/2/2
f 84/2/2 85/2/2 98/2/2
f 97/1/2 84/1/2 98/1/2
f 85/1/2 86/1/2 99/1/2
f 98/2/2 85/2/2 99/2/2
f 99/1/2 86/1/2 100/1/2
f 101/1/2 102/1/2 115/1/2
f 102/2/2 103/2/2 116/2/2
f 115/1/2 102/1/2 116/1/2
f 103/1/2 104/1/2 117/1/2
f 116/2/2 103/2/2 117/2/2
f 104/2/2 105/2/2 118/2/2
f 117/1/2 104/1/2 118/1/2
f 105/1/2 106/1/2 119/1/2
f 118/2/2 105/2/2 119/2/2
f 106/2/2 107/2/2 120/2/2
f 119/1/2 106/1/2 120/1/2
f 107/1/2 108/1/2 121/1/2
f 120/2/2 107/2/2 121/2/2
f 108/2/2 109/2/2 122/2/2
f 121/1/2 108/1/2 122/1/2
f 109/1/2 110/1/2 123/1/2
f 122/2/2 109/2/2 123/2/2
f 110/2/2 111/2/2 124/2/2
f 123/1/2 110/1/2 124/1/2
f 111/1/2 112/1/2 125/1/2
f 124/2/2 111/2/2 125/2/2
f 112/2/2 113/2/2 126/2/2
f 125/1/2 112/1/2 126/1/2
f 113/1/2 114/1/2 127/1/2
f 126/2/2 113/2/2 127/2/2
f 127/1/2 114/1/2 128/1/2
f 129/1/2 130/1/2 143/1/2
f 130/2/2 131/2/2 144/2/2
f 143/1/2 130/1/2 144/1/2
f 131/1/2 132/1/2 145/1/2
f 144/2/2 131/2/2 145/2/2
f 132/2/2 133/2/2 146/2/2
f 145/1/2 132/1/2 146/1/2
f 133/1/2 134/1/2 147/1/2
f 146/2/2 133/2/2 147/2/2
f 134/2/2 135/2/2 148/2/2
f 147/1/2 134/1/2 148/1/2
f 135/1/2 136/1/2 149/1/2
f 148/2/2 135/2/2 149/2/2
f 136/2/2 137/2/2 150/2/2
f 149/1/2 136/1/2 150/1/2
f 137/1/2 138/1/2 151/1/2
f 150/2/2 137/2/2 151/2/2
f 138/2/2 139/2/2 152/2/2
f 151/1/2 138/1/2 152/1/2
f 139/1/2 140/1/2 153/1/2
f 152/2/2 139/2/2 153/2/2
f 140/2/2 141/2/2 154/2/2
f 153/1/2 140/1/2 154/1/2
f 141/1/2 142/1/2 155/1/2
f 154/2/2 141/2/2 155/2/2
f 155/1/2 142/1/2 156/1/2
f 157/1/2 158/1/2 162/1/2
f 162/1/2 158/1/2 163/1/2
f 159/1/2 160/1/2 164/1/2
f 164/1/2 160/1/2 165/1/2
f 162/1/2 163/1/2 167/1/2
f 165/1/2 166/1/2 167/1/2
f 164/1/2 165/1/2 167/1/2
f 163/1/2 164/1/2 167/1/2
f 161/1/2 162/1/2 167/1/2
f 167/1/2 166/1/2 168/1/2
f 169/1/2 170/1/2 171/1/2
f 171/1/2 170/1/2 172/1/2
f 173/1/2 174/1/2 175/1/2
f 175/1/2 174/1/2 176/1/2
f 177/1/2 178/1/2 179/1/2
f 179/1/2 178/1/2 180/1/2
f 181/1/2 182/1/2 183/1/2
f 183/1/2 182/1/2 184/1/2
f 185/1/2 186/1/2 187/1/2
f 187/1/2 186/1/2 188/1/2
f 191/1/3 190/1/3 189/1/3
f 192/1/3 190/1/3 191/1/3
f 193/1/3 190/1/3 192/1/3
f 194/1/3 190/1/3 193/1/3
f 195/1/3 190/1/3 194/1/3
f 196/1/3 190/1/3 195/1/3
f 197/1/3 190/1/3 196/1/3
f 198/1/3 190/1/3 197/1/3
f 199/1/3 190/1/3 198/1/3
f 200/1/3 190/1/3 199/1/3
f 201/1/3 190/1/3 200/1/3
f 202/1/3 190/1/3 201/1/3
f 203/1/3 193/1/3 192/1/3
f 204/1/3 193/1/3 203/1/3
f 205/1/3 195/1/3 194/1/3
f 206/1/3 195/1/3 205/1/3
f 207/1/3 197/1/3 196/1/3
f 208/1/3 197/1/3 207/1/3
f 209/1/3 199/1/3 198/1/3
f 210/1/3 199/1/3 209/1/3
f 211/1/3 201/1/3 200/1/3
f 212/1/3 201/1/3 211/1/3
f 213/1/3 190/1/3 202/1/3
f 214/1/3 190/1/3 213/1/3
f 217/1/3 216/1/3 215/1/3
f 218/1/3 216/1/3 217/1/3
f 221/1/3 220/1/3 219/1/3
f 222/1/3 220/1/3 221/1/3
f 223/1/4 224/1/4 225/1/4
f 225/1/4 224/1/4 226/1/4
f 227/1/4 228/1/4 229/1/4
f 229/1/4 228/1/4 230/1/4
f 231/1/4 232/1/4 233/1/4
f 233/1/4 232/1/4 234/1/4
f 234/1/4 232/1/4 235/1/4
f 235/1/4 232/1/4 236/1/4
f 236/1/4 232/1/4 237/1/4
f 237/1/4 232/1/4 238/1/4
f 238/1/4 232/1/4 239/1/4
f 239/1/4 232/1/4 240/1/4
f 240/1/4 232/1/4 241/1/4
f 241/1/4 232/1/4 242/1/4
f 242/1/4 232/1/4 243/1/4
f 243/1/4 232/1/4 244/1/4
f 234/1/4 235/1/4 245/1/4
f 245/1/4 235/1/4 246/1/4
f 236/1/4 237/1/4 247/1/4
f 247/1/4 237/1/4 248/1/4
f 238/1/4 239/1/4 249/1/4
f 249/1/4 239/1/4 250/1/4
f 240/1/4 241/1/4 251/1/4
f 251/1/4 241/1/4 252/1/4
f 242/1/4 243/1/4 253/1/4
f 253/1/4 243/1/4 254/1/4
f 244/1/4 232/1/4 255/1/4
f 255/1/4 232/1/4 256/1/4
f 259/1/5 258/1/5 257/1/5
f 261/1/5 259/1/5 257/1/5
f 261/1/5 260/1/5 259/1/5
f 262/1/5 260/1/5 261/1/5
f 263/1/5 261/1/5 257/1/5
f 265/1/5 263/1/5 257/1/5
f 265/1/5 264/1/5 263/1/5
f 266/1/5 264/1/5 265/1/5
f 267/1/5 265/1/5 257/1/5
f 268/1/5 265/1/5 267/1/5
f 271/1/5 270/1/5 269/1/5
f 272/1/5 270/1/5 271/1/5
f 275/1/5 274/1/5 273/1/5
f 276/1/5 274/1/5 275/1/5
f 279/1/5 278/1/5 277/1/5
f 280/1/5 278/1/5 279/1/5
f 283/1/5 282/1/5 281/1/5
f 284/1/5 282/1/5 283/1/5
f 285/1/5 282/1/5 284/1/5
f 286/1/5 282/1/5 285/1/5
f 287/1/5 282/1/5 286/1/5
f 288/1/5 282/1/5 287/1/5
f 289/1/5 282/1/5 288/1/5
f 290/1/5 282/1/5 289/1/5
f 291/1/5 282/1/5 290/1/5
f 292/1/5 282/1/5 291/1/5
f 293/1/5 282/1/5 292/1/5
f 294/1/5 282/1/5 293/1/5
f 295/1/5 282/1/5 294/1/5
f 296/1/5 282/1/5 295/1/5
f 299/1/5 298/1/5 297/1/5
f 300/1/5 298/1/5 299/1/5
f 301/1/5 298/1/5 300/1/5
f 302/1/5 298/1/5 301/1/5
f 303/1/5 298/1/5 302/1/5
f 304/1/5 298/1/5 303/1/5
f 305/1/5 298/1/5 304/1/5
f 306/1/5 298/1/5 305/1/5
f 307/1/5 298/1/5 306/1/5
f 308/1/5 298/1/5 307/1/5
f 309/1/5 298/1/5 308/1/5
f 310/1/5 298/1/5 309/1/5
f 311/1/5 298/1/5 310/1/5
f 312/1/5 298/1/5 311/1/5
f 315/1/5 314/1/5 313/1/5
f 316/1/5 314/1/5 315/1/5
f 317/1/5 314/1/5 316/1/5
f 318/1/5 314/1/5 317/1/5
f 319/1/5 314/1/5 318/1/5
f 320/1/5 314/1/5 319/1/5
f 321/1/5 314/1/5 320/1/5
f 322/1/5 314/1/5 321/1/5
f 323/1/5 314/1/5 322/1/5
f 324/1/5 314/1/5 323/1/5
f 325/1/5 314/1/5 324/1/5
f 326/1/5 314/1/5 325/1/5
f 327/1/5 314/1/5 326/1/5
f 328/1/5 314/1/5 327/1/5
f 331/1/5 330/1/5 329/1/5
f 332/1/5 330/1/5 331/1/5
f 333/1/5 330/1/5 332/1/5
f 334/1/5 330/1/5 333/1/5
f 335/1/5 330/1/5 334/1/5
f 336/1/5 330/1/5 335/1/5
f 337/1/5 330/1/5 336/1/5
f 338/1/5 330/1/5 337/1/5
f 339/1/5 330/1/5 338/1/5
f 340/1/5 330/1/5 339/1/5
f 341/1/5 330/1/5 340/1/5
f 342/1/5 330/1/5 341/1/5
f 343/1/5 330/1/5 342/1/5
f 344/1/5 330/1/5 343/1/5
f 347/1/5 346/1/5 345/1/5
f 348/1/5 346/1/5 347/1/5
f 349/1/5 346/1/5 348/1/5
f 350/1/5 346/1/5 349/1/5
f 351/1/5 346/1/5 350/1/5
f 352/1/5 346/1/5 351/1/5
f 353/1/5 346/1/5 352/1/5
f 354/1/5 346/1/5 353/1/5
f 355/1/5 346/1/5 354/1/5
f 356/1/5 346/1/5 355/1/5
f 357/1/5 346/1/5 356/1/5
f 358/1/5 346/1/5 357/1/5
f 359/1/5 346/1/5 358/1/5
f 360/1/5 346/1/5 359/1/5
f 361/1/6 362/1/6 363/1/6
f 363/1/6 362/1/6 364/1/6
f 364/1/6 362/1/6 365/1/6
f 365/1/6 362/1/6 366/1/6
f 366/1/6 362/1/6 367/1/6
f 367/1/6 362/1/6 368/1/6
f 368/1/6 362/1/6 369/1/6
f 369/1/6 362/1/6 370/1/6
f 370/1/6 362/1/6 371/1/6
f 371/1/6 362/1/6 372/1/6
f 372/1/6 362/1/6 373/1/6
f 373/1/6 362/1/6 374/1/6
f 374/1/6 362/1/6 375/1/6
f 375/1/6 362/1/6 376/1/6
f 377/1/6 378/1/6 379/1/6
f 379/1/6 378/1/6 380/1/6
f 380/1/6 378/1/6 381/1/6
f 381/1/6 378/1/6 382/1/6
f 382/1/6 378/1/6 383/1/6
f 383/1/6 378/1/6 384/1/6
f 384/1/6 378/1/6 385/1/6
f 385/1/6 378/1/6 386/1/6
f 386/1/6 378/1/6 387/1/6
f 387/1/6 378/1/6 388/1/6
f 388/1/6 378/1/6 389/1/6
f 389/1/6 378/1/6 390/1/6
f 390/1/6 378/1/6 391/1/6
f 391/1/6 378/1/6 392/1/6
f 393/1/6 394/1/6 395/1/6
f 395/1/6 394/1/6 396/1/6
f 396/1/6 394/1/6 397/1/6
f 397/1/6 394/1/6 398/1/6
f 398/1/6 394/1/6 399/1/6
f 399/1/6 394/1/6 400/1/6
f 400/1/6 394/1/6 401/1/6
f 401/1/6 394/1/6 402/1/6
f 402/1/6 394/1/6 403/1/6
f 403/1/6 394/1/6 404/1/6
f 404/1/6 394/1/6 405/1/6
f 405/1/6 394/1/6 406/1/6
f 406/1/6 394/1/6 407/1/6
f 407/1/6 394/1/6 408/1/6
f 409/1/6 410/1/6 411/1/6
f 411/1/6 410/1/6 412/1/6
f 412/1/6 410/1/6 413/1/6
f 413/1/6 410/1/6 414/1/6
f 414/1/6 410/1/6 415/1/6
f 415/1/6 410/1/6 416/1/6
f 416/1/6 410/1/6 417/1/6
f 417/1/6 410/1/6 418/1/6
f 418/1/6 410/1/6 419/1/6
f 419/1/6 410/1/6 420/1/6
f 420/1/6 410/1/6 421/1/6
f 421/1/6 410/1/6 422/1/6
f 422/1/6 410/1/6 423/1/6
f 423/1/6 410/1/6 424/1/6
f 425/1/6 426/1/6 427/1/6
f 427/1/6 426/1/6 428/1/6
f 428/1/6 426/1/6 429/1/6
f 429/1/6 426/1/6 430/1/6
f 430/1/6 426/1/6 431/1/6
f 431/1/6 426/1/6 432/1/6
f 432/1/6 426/1/6 433/1/6
f 433/1/6 426/1/6 434/1/6
f 434/1/6 426/1/6 435/1/6
f 435/1/6 426/1/6 436/1/6
f 436/1/6 426/1/6 437/1/6
f 437/1/6 426/1/6 438/1/6
f 438/1/6 426/1/6 439/1/6
f 439/1/6 426/1/6 440/1/6
f 441/1/6 442/1/6 443/1/6
f 443/1/6 442/1/6 444/1/6
