# MagicaVoxel @ Ephtracy

# group
g 4x2 first (1)-1

# material
mtllib 4x2 first (1)-1.mtl
usemtl palette

# normals
vn -1 0 0
vn 1 0 0
vn 0 0 1
vn 0 0 -1
vn 0 -1 0
vn 0 1 0

# texcoords
vt 0.365234 0.5
vt 0.396484 0.5
vt 0.966797 0.5
vt 0.986328 0.5

# verts
v -63 0 63
v -63 0 -14
v -63 0 -44
v -63 0 -63
v -63 1 -14
v -63 1 -44
v -63 41 -14
v -63 41 -44
v -63 80 63
v -63 80 -63
v 61 1 63
v 61 1 -61
v 61 80 63
v 61 80 -61
v -62 1 63
v -62 1 -14
v -62 1 -44
v -62 1 -61
v -62 32 63
v -62 32 56
v -62 39 56
v -62 39 46
v -62 41 -14
v -62 41 -44
v -62 46 46
v -62 46 35
v -62 53 35
v -62 53 24
v -62 60 63
v -62 60 56
v -62 60 24
v -62 60 -1
v -62 67 56
v -62 67 46
v -62 74 46
v -62 74 35
v -62 80 63
v -62 80 35
v -62 80 -1
v -62 80 -61
v -23 32 63
v -23 32 56
v -23 39 56
v -23 39 46
v -23 46 46
v -23 46 35
v -23 53 35
v -23 53 24
v -23 60 63
v -23 60 56
v -23 60 24
v -23 60 -1
v -23 67 56
v -23 67 46
v -23 74 46
v -23 74 35
v -23 80 35
v -23 80 -1
v 63 0 63
v 63 0 -63
v 63 80 63
v 63 80 -63
v -63 0 63
v -63 80 63
v -62 0 63
v -62 1 63
v -62 32 63
v -62 60 63
v -62 80 63
v -23 32 63
v -23 60 63
v 61 0 63
v 61 1 63
v 61 80 63
v 62 0 63
v 62 80 63
v 63 0 63
v 63 80 63
v -62 60 56
v -62 67 56
v -23 60 56
v -23 67 56
v -62 67 46
v -62 74 46
v -23 67 46
v -23 74 46
v -62 74 35
v -62 80 35
v -23 74 35
v -23 80 35
v -63 1 -44
v -63 41 -44
v -62 1 -44
v -62 41 -44
v -62 1 -61
v -62 80 -61
v 61 1 -61
v 61 80 -61
v -62 32 56
v -62 39 56
v -23 32 56
v -23 39 56
v -62 39 46
v -62 46 46
v -23 39 46
v -23 46 46
v -62 46 35
v -62 53 35
v -23 46 35
v -23 53 35
v -62 53 24
v -62 60 24
v -23 53 24
v -23 60 24
v -62 60 -1
v -62 80 -1
v -23 60 -1
v -23 80 -1
v -63 1 -14
v -63 41 -14
v -62 1 -14
v -62 41 -14
v -63 0 -63
v -63 80 -63
v 62 0 -63
v 62 80 -63
v 63 0 -63
v 63 80 -63
v -63 0 63
v -62 0 63
v 61 0 63
v 62 0 63
v 63 0 63
v -63 0 -14
v -62 0 -14
v -63 0 -44
v -62 0 -44
v -62 0 -61
v 61 0 -61
v -63 0 -63
v 62 0 -63
v 63 0 -63
v -62 32 63
v -23 32 63
v -62 32 56
v -23 32 56
v -62 39 56
v -23 39 56
v -62 39 46
v -23 39 46
v -63 41 -14
v -62 41 -14
v -63 41 -44
v -62 41 -44
v -62 46 46
v -23 46 46
v -62 46 35
v -23 46 35
v -62 53 35
v -23 53 35
v -62 53 24
v -23 53 24
v -62 60 24
v -23 60 24
v -62 60 -1
v -23 60 -1
v -62 1 63
v 61 1 63
v -63 1 -14
v -62 1 -14
v -63 1 -44
v -62 1 -44
v -62 1 -61
v 61 1 -61
v -62 60 63
v -23 60 63
v -62 60 56
v -23 60 56
v -62 67 56
v -23 67 56
v -62 67 46
v -23 67 46
v -62 74 46
v -23 74 46
v -62 74 35
v -23 74 35
v -63 80 63
v -62 80 63
v 61 80 63
v 62 80 63
v 63 80 63
v -62 80 35
v -23 80 35
v -62 80 -1
v -23 80 -1
v -62 80 -61
v 61 80 -61
v -63 80 -63
v 62 80 -63
v 63 80 -63

# faces
f 5/3/1 2/3/1 1/3/1
f 5/1/1 3/1/1 2/1/1
f 6/3/1 4/3/1 3/3/1
f 6/1/1 3/1/1 5/1/1
f 7/3/1 5/3/1 1/3/1
f 8/3/1 4/3/1 6/3/1
f 9/3/1 7/3/1 1/3/1
f 9/3/1 8/3/1 7/3/1
f 10/3/1 4/3/1 8/3/1
f 10/3/1 8/3/1 9/3/1
f 13/3/1 12/3/1 11/3/1
f 14/3/1 12/3/1 13/3/1
f 15/3/2 16/3/2 19/3/2
f 19/3/2 16/3/2 20/3/2
f 20/3/2 16/3/2 21/3/2
f 21/3/2 16/3/2 22/3/2
f 22/3/2 16/3/2 23/3/2
f 17/3/2 18/3/2 24/3/2
f 22/3/2 23/3/2 25/3/2
f 23/3/2 24/3/2 25/3/2
f 25/3/2 24/3/2 26/3/2
f 26/3/2 24/3/2 27/3/2
f 27/3/2 24/3/2 28/3/2
f 28/3/2 24/3/2 31/3/2
f 31/3/2 24/3/2 32/3/2
f 29/3/2 30/3/2 33/3/2
f 33/3/2 34/3/2 35/3/2
f 29/3/2 33/3/2 37/3/2
f 35/3/2 36/3/2 37/3/2
f 33/3/2 35/3/2 37/3/2
f 37/3/2 36/3/2 38/3/2
f 32/3/2 24/3/2 39/3/2
f 24/3/2 18/3/2 40/3/2
f 39/3/2 24/3/2 40/3/2
f 41/2/2 42/2/2 43/2/2
f 43/2/2 44/2/2 45/2/2
f 45/2/2 46/2/2 47/2/2
f 41/2/2 43/2/2 49/2/2
f 47/2/2 48/2/2 49/2/2
f 45/2/2 47/2/2 49/2/2
f 43/2/2 45/2/2 49/2/2
f 49/2/2 48/2/2 50/2/2
f 50/2/2 48/2/2 51/2/2
f 51/2/2 52/2/2 53/2/2
f 50/2/2 51/2/2 53/2/2
f 53/2/2 52/2/2 54/2/2
f 54/2/2 52/2/2 55/2/2
f 55/2/2 52/2/2 56/2/2
f 56/2/2 52/2/2 57/2/2
f 57/2/2 52/2/2 58/2/2
f 59/4/2 60/4/2 61/4/2
f 61/4/2 60/4/2 62/4/2
f 65/3/3 64/3/3 63/3/3
f 66/3/3 64/3/3 65/3/3
f 67/3/3 64/3/3 66/3/3
f 68/3/3 64/3/3 67/3/3
f 69/3/3 64/3/3 68/3/3
f 70/2/3 68/2/3 67/2/3
f 71/2/3 68/2/3 70/2/3
f 72/1/3 66/1/3 65/1/3
f 73/1/3 66/1/3 72/1/3
f 75/3/3 73/3/3 72/3/3
f 75/3/3 74/3/3 73/3/3
f 76/3/3 74/3/3 75/3/3
f 77/4/3 76/4/3 75/4/3
f 78/4/3 76/4/3 77/4/3
f 81/2/3 80/2/3 79/2/3
f 82/2/3 80/2/3 81/2/3
f 85/2/3 84/2/3 83/2/3
f 86/2/3 84/2/3 85/2/3
f 89/2/3 88/2/3 87/2/3
f 90/2/3 88/2/3 89/2/3
f 93/3/3 92/3/3 91/3/3
f 94/3/3 92/3/3 93/3/3
f 97/3/3 96/3/3 95/3/3
f 98/3/3 96/3/3 97/3/3
f 99/2/4 100/2/4 101/2/4
f 101/2/4 100/2/4 102/2/4
f 103/2/4 104/2/4 105/2/4
f 105/2/4 104/2/4 106/2/4
f 107/2/4 108/2/4 109/2/4
f 109/2/4 108/2/4 110/2/4
f 111/2/4 112/2/4 113/2/4
f 113/2/4 112/2/4 114/2/4
f 115/2/4 116/2/4 117/2/4
f 117/2/4 116/2/4 118/2/4
f 119/3/4 120/3/4 121/3/4
f 121/3/4 120/3/4 122/3/4
f 123/3/4 124/3/4 125/3/4
f 125/3/4 124/3/4 126/3/4
f 125/4/4 126/4/4 127/4/4
f 127/4/4 126/4/4 128/4/4
f 134/3/5 130/3/5 129/3/5
f 135/1/5 131/1/5 130/1/5
f 135/3/5 130/3/5 134/3/5
f 136/1/5 135/1/5 134/1/5
f 137/1/5 131/1/5 135/1/5
f 137/1/5 135/1/5 136/1/5
f 138/3/5 137/3/5 136/3/5
f 138/1/5 131/1/5 137/1/5
f 139/3/5 132/3/5 131/3/5
f 139/1/5 131/1/5 138/1/5
f 140/3/5 138/3/5 136/3/5
f 140/3/5 139/3/5 138/3/5
f 141/4/5 133/4/5 132/4/5
f 141/3/5 139/3/5 140/3/5
f 141/3/5 132/3/5 139/3/5
f 142/4/5 133/4/5 141/4/5
f 145/2/5 144/2/5 143/2/5
f 146/2/5 144/2/5 145/2/5
f 149/2/5 148/2/5 147/2/5
f 150/2/5 148/2/5 149/2/5
f 153/3/5 152/3/5 151/3/5
f 154/3/5 152/3/5 153/3/5
f 157/2/5 156/2/5 155/2/5
f 158/2/5 156/2/5 157/2/5
f 161/2/5 160/2/5 159/2/5
f 162/2/5 160/2/5 161/2/5
f 165/2/5 164/2/5 163/2/5
f 166/2/5 164/2/5 165/2/5
f 167/1/6 168/1/6 170/1/6
f 169/1/6 170/1/6 171/1/6
f 170/1/6 168/1/6 172/1/6
f 171/1/6 170/1/6 172/1/6
f 172/1/6 168/1/6 173/1/6
f 173/1/6 168/1/6 174/1/6
f 175/2/6 176/2/6 177/2/6
f 177/2/6 176/2/6 178/2/6
f 179/2/6 180/2/6 181/2/6
f 181/2/6 180/2/6 182/2/6
f 183/2/6 184/2/6 185/2/6
f 185/2/6 184/2/6 186/2/6
f 187/3/6 188/3/6 192/3/6
f 187/3/6 192/3/6 194/3/6
f 192/2/6 193/2/6 194/2/6
f 194/2/6 193/2/6 195/2/6
f 187/3/6 194/3/6 196/3/6
f 189/3/6 190/3/6 197/3/6
f 187/3/6 196/3/6 198/3/6
f 196/3/6 197/3/6 198/3/6
f 190/4/6 191/4/6 199/4/6
f 198/3/6 197/3/6 199/3/6
f 197/3/6 190/3/6 199/3/6
f 199/4/6 191/4/6 200/4/6
