# MagicaVoxel @ Ephtracy

# group
g 4x2 fourth (1)-4

# material
mtllib 4x2 fourth (1)-4.mtl
usemtl palette

# normals
vn -1 0 0
vn 1 0 0
vn 0 0 1
vn 0 0 -1
vn 0 -1 0
vn 0 1 0

# texcoords
vt 0.873047 0.5
vt 0.966797 0.5
vt 0.974609 0.5
vt 0.986328 0.5

# verts
v -63 0 63
v -63 0 -63
v -63 80 63
v -63 80 -63
v 48 3 33
v 48 3 31
v 48 43 33
v 48 43 31
v -61 3 31
v -61 3 -63
v -61 80 31
v -61 80 -63
v -22 3 60
v -22 3 33
v -22 80 60
v -22 80 33
v -21 24 63
v -21 24 62
v -21 24 60
v -21 80 63
v -21 80 62
v -21 80 60
v 18 3 33
v 18 3 31
v 18 43 33
v 18 43 31
v 63 0 63
v 63 0 -63
v 63 2 32
v 63 2 -63
v 63 3 60
v 63 3 33
v 63 3 32
v 63 3 31
v 63 3 -63
v 63 24 63
v 63 24 60
v 63 80 33
v 63 80 31
v -63 0 63
v -63 80 63
v -21 0 63
v -21 24 63
v -21 80 63
v 27 18 63
v 27 24 63
v 30 4 63
v 30 13 63
v 31 13 63
v 31 18 63
v 35 4 63
v 35 12 63
v 36 3 63
v 36 12 63
v 39 0 63
v 39 3 63
v 42 0 63
v 42 24 63
v 63 0 63
v 63 24 63
v -22 3 33
v -22 80 33
v 18 3 33
v 18 43 33
v 48 3 33
v 48 43 33
v 63 3 33
v 63 80 33
v -22 3 60
v -22 80 60
v -21 24 60
v -21 80 60
v 25 16 60
v 25 17 60
v 26 16 60
v 26 17 60
v 29 19 60
v 29 20 60
v 30 19 60
v 30 20 60
v 31 10 60
v 31 14 60
v 33 3 60
v 33 10 60
v 33 14 60
v 33 24 60
v 41 3 60
v 41 24 60
v 63 3 60
v 63 24 60
v -61 3 31
v -61 80 31
v 18 3 31
v 18 43 31
v 48 3 31
v 48 43 31
v 63 3 31
v 63 80 31
v -63 0 -63
v -63 80 -63
v -62 0 -63
v -62 80 -63
v -61 2 -63
v -61 3 -63
v -61 80 -63
v 63 0 -63
v 63 2 -63
v 63 3 -63
v -63 0 63
v -21 0 63
v 39 0 63
v 42 0 63
v 63 0 63
v -62 0 62
v -21 0 62
v 39 0 62
v 42 0 62
v -63 0 -63
v -62 0 -63
v 63 0 -63
v 18 43 33
v 48 43 33
v 18 43 31
v 48 43 31
v -22 3 60
v 33 3 60
v 41 3 60
v 63 3 60
v 33 3 55
v 36 3 55
v 39 3 55
v 41 3 55
v 36 3 53
v 39 3 53
v 38 3 47
v 39 3 47
v 38 3 44
v 39 3 44
v 38 3 42
v 40 3 42
v 38 3 38
v 40 3 38
v 38 3 36
v 40 3 36
v -22 3 33
v 18 3 33
v 38 3 33
v 40 3 33
v 48 3 33
v 63 3 33
v -61 3 31
v 18 3 31
v 38 3 31
v 40 3 31
v 48 3 31
v 63 3 31
v 40 3 25
v 41 3 25
v 40 3 24
v 41 3 24
v 43 3 20
v 44 3 20
v 43 3 16
v 44 3 16
v 43 3 13
v 44 3 13
v 39 3 11
v 42 3 11
v 43 3 11
v 44 3 11
v 39 3 3
v 42 3 3
v 48 3 -8
v 49 3 -8
v 48 3 -9
v 49 3 -9
v 48 3 -10
v 50 3 -10
v 48 3 -14
v 50 3 -14
v 44 3 -16
v 45 3 -16
v 49 3 -19
v 51 3 -19
v 44 3 -20
v 45 3 -20
v 49 3 -21
v 51 3 -21
v 44 3 -31
v 45 3 -31
v 44 3 -33
v 45 3 -33
v 43 3 -46
v 44 3 -46
v 43 3 -50
v 44 3 -50
v 41 3 -51
v 43 3 -51
v 41 3 -60
v 43 3 -60
v -61 3 -63
v 63 3 -63
v -21 24 63
v 27 24 63
v 42 24 63
v 63 24 63
v -21 24 62
v 31 24 62
v 33 24 62
v 40 24 62
v 42 24 62
v 27 24 61
v 31 24 61
v 40 24 61
v 41 24 61
v -21 24 60
v 33 24 60
v 41 24 60
v 63 24 60
v -63 80 63
v -21 80 63
v -62 80 62
v -21 80 62
v -22 80 60
v -21 80 60
v -22 80 33
v 63 80 33
v -61 80 31
v 63 80 31
v -63 80 -63
v -62 80 -63
v -61 80 -63

# faces
f 3/4/1 2/4/1 1/4/1
f 4/4/1 2/4/1 3/4/1
f 7/2/1 6/2/1 5/2/1
f 8/2/1 6/2/1 7/2/1
f 9/2/2 10/2/2 11/2/2
f 11/2/2 10/2/2 12/2/2
f 13/2/2 14/2/2 15/2/2
f 15/2/2 14/2/2 16/2/2
f 17/4/2 18/4/2 20/4/2
f 18/2/2 19/2/2 21/2/2
f 20/4/2 18/4/2 21/4/2
f 21/2/2 19/2/2 22/2/2
f 23/2/2 24/2/2 25/2/2
f 25/2/2 24/2/2 26/2/2
f 27/2/2 28/2/2 29/2/2
f 29/2/2 28/2/2 30/2/2
f 27/2/2 29/2/2 31/2/2
f 31/2/2 29/2/2 32/2/2
f 29/3/2 30/3/2 33/3/2
f 32/2/2 29/2/2 33/2/2
f 33/3/2 30/3/2 34/3/2
f 34/3/2 30/3/2 35/3/2
f 27/2/2 31/2/2 36/2/2
f 36/2/2 31/2/2 37/2/2
f 33/2/2 34/2/2 38/2/2
f 32/2/2 33/2/2 38/2/2
f 38/2/2 34/2/2 39/2/2
f 42/4/3 41/4/3 40/4/3
f 43/4/3 41/4/3 42/4/3
f 44/4/3 41/4/3 43/4/3
f 45/2/3 43/2/3 42/2/3
f 46/2/3 43/2/3 45/2/3
f 47/2/3 45/2/3 42/2/3
f 48/2/3 45/2/3 47/2/3
f 49/1/3 48/1/3 47/1/3
f 49/2/3 45/2/3 48/2/3
f 50/1/3 46/1/3 45/1/3
f 50/2/3 45/2/3 49/2/3
f 51/1/3 49/1/3 47/1/3
f 51/2/3 47/2/3 42/2/3
f 51/1/3 50/1/3 49/1/3
f 52/1/3 50/1/3 51/1/3
f 53/2/3 51/2/3 42/2/3
f 53/2/3 52/2/3 51/2/3
f 54/1/3 50/1/3 52/1/3
f 54/2/3 52/2/3 53/2/3
f 55/2/3 53/2/3 42/2/3
f 56/1/3 54/1/3 53/1/3
f 56/2/3 53/2/3 55/2/3
f 57/1/3 56/1/3 55/1/3
f 58/1/3 46/1/3 50/1/3
f 58/1/3 56/1/3 57/1/3
f 58/1/3 50/1/3 54/1/3
f 58/1/3 54/1/3 56/1/3
f 59/2/3 58/2/3 57/2/3
f 60/2/3 58/2/3 59/2/3
f 63/2/3 62/2/3 61/2/3
f 64/2/3 62/2/3 63/2/3
f 66/2/3 62/2/3 64/2/3
f 67/2/3 66/2/3 65/2/3
f 68/2/3 62/2/3 66/2/3
f 68/2/3 66/2/3 67/2/3
f 69/2/4 70/2/4 71/2/4
f 71/2/4 70/2/4 72/2/4
f 69/2/4 71/2/4 73/2/4
f 73/2/4 71/2/4 74/2/4
f 69/2/4 73/2/4 75/2/4
f 73/1/4 74/1/4 75/1/4
f 74/2/4 71/2/4 76/2/4
f 75/1/4 74/1/4 76/1/4
f 75/2/4 76/2/4 77/2/4
f 76/2/4 71/2/4 77/2/4
f 77/2/4 71/2/4 78/2/4
f 75/2/4 77/2/4 79/2/4
f 77/1/4 78/1/4 79/1/4
f 78/2/4 71/2/4 80/2/4
f 79/1/4 78/1/4 80/1/4
f 69/2/4 75/2/4 81/2/4
f 75/2/4 79/2/4 81/2/4
f 79/2/4 80/2/4 81/2/4
f 81/2/4 80/2/4 82/2/4
f 69/2/4 81/2/4 83/2/4
f 81/1/4 82/1/4 84/1/4
f 83/2/4 81/2/4 84/2/4
f 82/2/4 80/2/4 85/2/4
f 84/1/4 82/1/4 85/1/4
f 80/2/4 71/2/4 86/2/4
f 85/2/4 80/2/4 86/2/4
f 84/1/4 85/1/4 87/1/4
f 83/1/4 84/1/4 87/1/4
f 85/1/4 86/1/4 87/1/4
f 87/1/4 86/1/4 88/1/4
f 87/2/4 88/2/4 89/2/4
f 89/2/4 88/2/4 90/2/4
f 91/2/4 92/2/4 93/2/4
f 93/2/4 92/2/4 94/2/4
f 94/2/4 92/2/4 96/2/4
f 95/2/4 96/2/4 97/2/4
f 96/2/4 92/2/4 98/2/4
f 97/2/4 96/2/4 98/2/4
f 99/4/4 100/4/4 101/4/4
f 101/4/4 100/4/4 102/4/4
f 101/2/4 102/2/4 103/2/4
f 103/2/4 102/2/4 104/2/4
f 104/2/4 102/2/4 105/2/4
f 101/2/4 103/2/4 106/2/4
f 103/3/4 104/3/4 107/3/4
f 106/2/4 103/2/4 107/2/4
f 107/3/4 104/3/4 108/3/4
f 114/4/5 110/4/5 109/4/5
f 115/2/5 111/2/5 110/2/5
f 115/4/5 110/4/5 114/4/5
f 116/1/5 112/1/5 111/1/5
f 116/2/5 111/2/5 115/2/5
f 117/2/5 113/2/5 112/2/5
f 117/1/5 112/1/5 116/1/5
f 118/4/5 114/4/5 109/4/5
f 119/2/5 116/2/5 115/2/5
f 119/4/5 114/4/5 118/4/5
f 119/2/5 115/2/5 114/2/5
f 119/2/5 117/2/5 116/2/5
f 120/2/5 113/2/5 117/2/5
f 120/2/5 117/2/5 119/2/5
f 123/2/5 122/2/5 121/2/5
f 124/2/5 122/2/5 123/2/5
f 125/2/6 126/2/6 129/2/6
f 126/1/6 127/1/6 129/1/6
f 129/1/6 127/1/6 130/1/6
f 130/1/6 127/1/6 131/1/6
f 127/2/6 128/2/6 132/2/6
f 131/1/6 127/1/6 132/1/6
f 130/1/6 131/1/6 133/1/6
f 129/2/6 130/2/6 133/2/6
f 131/2/6 132/2/6 134/2/6
f 133/1/6 131/1/6 134/1/6
f 133/2/6 134/2/6 135/2/6
f 134/2/6 132/2/6 136/2/6
f 135/2/6 134/2/6 136/2/6
f 133/2/6 135/2/6 137/2/6
f 135/1/6 136/1/6 137/1/6
f 136/2/6 132/2/6 138/2/6
f 137/1/6 136/1/6 138/1/6
f 133/2/6 137/2/6 139/2/6
f 137/2/6 138/2/6 139/2/6
f 138/2/6 132/2/6 140/2/6
f 139/2/6 138/2/6 140/2/6
f 133/2/6 139/2/6 141/2/6
f 139/1/6 140/1/6 141/1/6
f 140/2/6 132/2/6 142/2/6
f 141/1/6 140/1/6 142/1/6
f 133/2/6 141/2/6 143/2/6
f 141/2/6 142/2/6 143/2/6
f 142/2/6 132/2/6 144/2/6
f 143/2/6 142/2/6 144/2/6
f 125/2/6 129/2/6 145/2/6
f 129/2/6 133/2/6 145/2/6
f 133/2/6 143/2/6 145/2/6
f 145/2/6 143/2/6 146/2/6
f 143/1/6 144/1/6 147/1/6
f 146/2/6 143/2/6 147/2/6
f 144/2/6 132/2/6 148/2/6
f 147/1/6 144/1/6 148/1/6
f 132/2/6 128/2/6 149/2/6
f 148/2/6 132/2/6 149/2/6
f 149/2/6 128/2/6 150/2/6
f 146/3/6 147/3/6 152/3/6
f 147/1/6 148/1/6 153/1/6
f 152/3/6 147/3/6 153/3/6
f 148/3/6 149/3/6 154/3/6
f 153/1/6 148/1/6 154/1/6
f 154/3/6 149/3/6 155/3/6
f 151/3/6 152/3/6 157/3/6
f 155/3/6 156/3/6 157/3/6
f 154/3/6 155/3/6 157/3/6
f 153/3/6 154/3/6 157/3/6
f 152/3/6 153/3/6 157/3/6
f 157/3/6 156/3/6 158/3/6
f 151/3/6 157/3/6 159/3/6
f 157/1/6 158/1/6 159/1/6
f 158/3/6 156/3/6 160/3/6
f 159/1/6 158/1/6 160/1/6
f 159/3/6 160/3/6 161/3/6
f 160/3/6 156/3/6 161/3/6
f 161/3/6 156/3/6 162/3/6
f 159/3/6 161/3/6 163/3/6
f 161/1/6 162/1/6 163/1/6
f 162/3/6 156/3/6 164/3/6
f 163/1/6 162/1/6 164/1/6
f 159/3/6 163/3/6 165/3/6
f 163/3/6 164/3/6 165/3/6
f 164/3/6 156/3/6 166/3/6
f 165/3/6 164/3/6 166/3/6
f 151/3/6 159/3/6 167/3/6
f 159/3/6 165/3/6 167/3/6
f 167/3/6 165/3/6 168/3/6
f 165/1/6 166/1/6 169/1/6
f 168/3/6 165/3/6 169/3/6
f 166/3/6 156/3/6 170/3/6
f 169/1/6 166/1/6 170/1/6
f 167/1/6 168/1/6 171/1/6
f 151/3/6 167/3/6 171/3/6
f 168/3/6 169/3/6 172/3/6
f 171/1/6 168/1/6 172/1/6
f 169/3/6 170/3/6 172/3/6
f 170/3/6 156/3/6 173/3/6
f 172/3/6 170/3/6 173/3/6
f 171/3/6 172/3/6 173/3/6
f 173/3/6 156/3/6 174/3/6
f 171/3/6 173/3/6 175/3/6
f 173/1/6 174/1/6 175/1/6
f 174/3/6 156/3/6 176/3/6
f 175/1/6 174/1/6 176/1/6
f 171/3/6 175/3/6 177/3/6
f 175/3/6 176/3/6 177/3/6
f 176/3/6 156/3/6 178/3/6
f 177/3/6 176/3/6 178/3/6
f 171/3/6 177/3/6 179/3/6
f 177/1/6 178/1/6 179/1/6
f 178/3/6 156/3/6 180/3/6
f 179/1/6 178/1/6 180/1/6
f 171/3/6 179/3/6 181/3/6
f 179/3/6 180/3/6 181/3/6
f 181/3/6 180/3/6 182/3/6
f 182/3/6 180/3/6 183/3/6
f 180/3/6 156/3/6 184/3/6
f 183/3/6 180/3/6 184/3/6
f 171/3/6 181/3/6 185/3/6
f 181/1/6 182/1/6 185/1/6
f 182/3/6 183/3/6 186/3/6
f 185/1/6 182/1/6 186/1/6
f 183/1/6 184/1/6 187/1/6
f 186/3/6 183/3/6 187/3/6
f 185/3/6 186/3/6 187/3/6
f 184/3/6 156/3/6 188/3/6
f 187/1/6 184/1/6 188/1/6
f 171/3/6 185/3/6 189/3/6
f 185/3/6 187/3/6 189/3/6
f 187/3/6 188/3/6 189/3/6
f 189/3/6 188/3/6 190/3/6
f 171/3/6 189/3/6 191/3/6
f 189/1/6 190/1/6 191/1/6
f 190/3/6 188/3/6 192/3/6
f 191/1/6 190/1/6 192/1/6
f 171/3/6 191/3/6 193/3/6
f 191/3/6 192/3/6 193/3/6
f 193/3/6 192/3/6 194/3/6
f 171/3/6 193/3/6 195/3/6
f 193/1/6 194/1/6 195/1/6
f 194/3/6 192/3/6 196/3/6
f 195/1/6 194/1/6 196/1/6
f 171/3/6 195/3/6 197/3/6
f 195/3/6 196/3/6 197/3/6
f 197/3/6 196/3/6 198/3/6
f 171/3/6 197/3/6 199/3/6
f 197/1/6 198/1/6 199/1/6
f 198/3/6 196/3/6 200/3/6
f 199/1/6 198/1/6 200/1/6
f 151/3/6 171/3/6 201/3/6
f 171/3/6 199/3/6 201/3/6
f 199/3/6 200/3/6 201/3/6
f 200/3/6 196/3/6 202/3/6
f 201/3/6 200/3/6 202/3/6
f 188/3/6 156/3/6 202/3/6
f 196/3/6 192/3/6 202/3/6
f 192/3/6 188/3/6 202/3/6
f 203/2/6 204/2/6 207/2/6
f 204/1/6 205/1/6 208/1/6
f 208/1/6 205/1/6 209/1/6
f 209/1/6 205/1/6 210/1/6
f 205/2/6 206/2/6 211/2/6
f 210/1/6 205/1/6 211/1/6
f 207/2/6 204/2/6 212/2/6
f 204/1/6 208/1/6 212/1/6
f 208/2/6 209/2/6 213/2/6
f 212/1/6 208/1/6 213/1/6
f 209/1/6 210/1/6 214/1/6
f 210/2/6 211/2/6 214/2/6
f 214/2/6 211/2/6 215/2/6
f 212/2/6 213/2/6 216/2/6
f 207/2/6 212/2/6 216/2/6
f 213/2/6 209/2/6 217/2/6
f 216/2/6 213/2/6 217/2/6
f 214/1/6 215/1/6 217/1/6
f 209/1/6 214/1/6 217/1/6
f 215/2/6 211/2/6 218/2/6
f 217/1/6 215/1/6 218/1/6
f 211/2/6 206/2/6 219/2/6
f 218/2/6 211/2/6 219/2/6
f 220/4/6 221/4/6 222/4/6
f 222/4/6 221/4/6 223/4/6
f 222/2/6 223/2/6 224/2/6
f 224/2/6 223/2/6 225/2/6
f 222/2/6 224/2/6 226/2/6
f 222/2/6 226/2/6 228/2/6
f 226/2/6 227/2/6 228/2/6
f 228/2/6 227/2/6 229/2/6
f 220/4/6 222/4/6 230/4/6
f 222/2/6 228/2/6 231/2/6
f 230/4/6 222/4/6 231/4/6
f 231/2/6 228/2/6 232/2/6
