# MagicaVoxel @ Ephtracy

# group
g 4x2 first (1)-6

# material
mtllib 4x2 first (1)-6.mtl
usemtl palette

# normals
vn -1 0 0
vn 1 0 0
vn 0 0 1
vn 0 0 -1
vn 0 -1 0
vn 0 1 0

# texcoords
vt 0.962891 0.5
vt 0.966797 0.5
vt 0.970703 0.5

# verts
v -63 0 63
v -63 0 16
v -63 0 -63
v -63 1 63
v -63 1 16
v -63 1 -63
v -63 41 17
v -63 41 15
v -63 55 18
v -63 55 17
v -63 80 18
v -63 80 15
v -33 1 17
v -33 1 16
v -33 1 15
v -33 41 17
v -33 41 15
v -14 1 15
v -14 1 7
v -14 80 15
v -14 80 7
v -13 1 18
v -13 1 17
v -13 55 18
v -13 55 17
v -6 1 7
v -6 1 5
v -6 80 7
v -6 80 5
v 53 1 8
v 53 1 7
v 53 55 8
v 53 55 7
v 60 1 5
v 60 1 -4
v 60 80 5
v 60 80 -4
v -3 1 18
v -3 1 8
v -3 1 7
v -3 55 8
v -3 55 7
v -3 80 18
v -3 80 8
v 63 0 63
v 63 0 8
v 63 0 -2
v 63 0 -4
v 63 0 -63
v 63 1 63
v 63 1 8
v 63 1 -4
v 63 1 -63
v 63 80 8
v 63 80 -2
v 63 80 -4
v -63 0 63
v -63 1 63
v 63 0 63
v 63 1 63
v -63 55 18
v -63 80 18
v -13 1 18
v -13 55 18
v -13 80 18
v -3 1 18
v -3 80 18
v -63 41 17
v -63 55 17
v -33 1 17
v -33 41 17
v -13 1 17
v -13 55 17
v -3 55 8
v -3 80 8
v 53 1 8
v 53 55 8
v 53 80 8
v 63 1 8
v 63 80 8
v -3 1 7
v -3 55 7
v 53 1 7
v 53 55 7
v -63 41 15
v -63 80 15
v -33 1 15
v -33 41 15
v -14 1 15
v -14 80 15
v -14 1 7
v -14 80 7
v -6 1 7
v -6 80 7
v -6 1 5
v -6 80 5
v 60 1 5
v 60 80 5
v 60 1 -4
v 60 80 -4
v 63 1 -4
v 63 80 -4
v -63 0 -63
v -63 1 -63
v 63 0 -63
v 63 1 -63
v -63 0 63
v 63 0 63
v -63 0 16
v -33 0 16
v -33 0 15
v -14 0 15
v 62 0 8
v 63 0 8
v -14 0 7
v -6 0 7
v -6 0 5
v 60 0 5
v 62 0 -2
v 63 0 -2
v 60 0 -4
v 63 0 -4
v -63 0 -63
v 63 0 -63
v -63 41 17
v -33 41 17
v -63 41 15
v -33 41 15
v -63 55 18
v -13 55 18
v -63 55 17
v -13 55 17
v -3 55 8
v 53 55 8
v -3 55 7
v 53 55 7
v -63 1 63
v 63 1 63
v -13 1 18
v -3 1 18
v -33 1 17
v -13 1 17
v -63 1 16
v -33 1 16
v -33 1 15
v -14 1 15
v -3 1 8
v 53 1 8
v 63 1 8
v -14 1 7
v -6 1 7
v -3 1 7
v 53 1 7
v -6 1 5
v 60 1 5
v 60 1 -4
v 63 1 -4
v -63 1 -63
v 63 1 -63
v -63 80 18
v -13 80 18
v -3 80 18
v -13 80 17
v -4 80 17
v -63 80 15
v -14 80 15
v -4 80 8
v -3 80 8
v 53 80 8
v 63 80 8
v -14 80 7
v -6 80 7
v 53 80 7
v 62 80 7
v -6 80 5
v 60 80 5
v 62 80 -2
v 63 80 -2
v 60 80 -4
v 63 80 -4

# faces
f 4/2/1 2/2/1 1/2/1
f 5/3/1 3/3/1 2/3/1
f 5/2/1 2/2/1 4/2/1
f 6/3/1 3/3/1 5/3/1
f 10/2/1 8/2/1 7/2/1
f 11/2/1 10/2/1 9/2/1
f 12/2/1 8/2/1 10/2/1
f 12/2/1 10/2/1 11/2/1
f 16/2/1 14/2/1 13/2/1
f 16/2/1 15/2/1 14/2/1
f 17/2/1 15/2/1 16/2/1
f 20/2/1 19/2/1 18/2/1
f 21/2/1 19/2/1 20/2/1
f 24/1/1 23/1/1 22/1/1
f 25/1/1 23/1/1 24/1/1
f 28/2/1 27/2/1 26/2/1
f 29/2/1 27/2/1 28/2/1
f 32/1/1 31/1/1 30/1/1
f 33/1/1 31/1/1 32/1/1
f 36/2/1 35/2/1 34/2/1
f 37/2/1 35/2/1 36/2/1
f 38/1/2 39/1/2 41/1/2
f 39/2/2 40/2/2 41/2/2
f 41/2/2 40/2/2 42/2/2
f 38/1/2 41/1/2 43/1/2
f 43/1/2 41/1/2 44/1/2
f 45/2/2 46/2/2 50/2/2
f 46/1/2 47/1/2 51/1/2
f 50/2/2 46/2/2 51/2/2
f 48/3/2 49/3/2 52/3/2
f 47/2/2 48/2/2 52/2/2
f 52/3/2 49/3/2 53/3/2
f 51/1/2 47/1/2 54/1/2
f 47/2/2 52/2/2 55/2/2
f 54/1/2 47/1/2 55/1/2
f 55/2/2 52/2/2 56/2/2
f 59/2/3 58/2/3 57/2/3
f 60/2/3 58/2/3 59/2/3
f 64/2/3 62/2/3 61/2/3
f 65/2/3 62/2/3 64/2/3
f 66/1/3 64/1/3 63/1/3
f 66/1/3 65/1/3 64/1/3
f 67/1/3 65/1/3 66/1/3
f 71/2/3 69/2/3 68/2/3
f 72/2/3 71/2/3 70/2/3
f 73/2/3 69/2/3 71/2/3
f 73/2/3 71/2/3 72/2/3
f 77/2/3 75/2/3 74/2/3
f 78/2/3 75/2/3 77/2/3
f 79/1/3 77/1/3 76/1/3
f 79/1/3 78/1/3 77/1/3
f 80/1/3 78/1/3 79/1/3
f 83/2/3 82/2/3 81/2/3
f 84/2/3 82/2/3 83/2/3
f 85/2/4 86/2/4 88/2/4
f 87/2/4 88/2/4 89/2/4
f 88/2/4 86/2/4 90/2/4
f 89/2/4 88/2/4 90/2/4
f 91/2/4 92/2/4 93/2/4
f 93/2/4 92/2/4 94/2/4
f 95/2/4 96/2/4 97/2/4
f 97/2/4 96/2/4 98/2/4
f 99/2/4 100/2/4 101/2/4
f 101/2/4 100/2/4 102/2/4
f 103/3/4 104/3/4 105/3/4
f 105/3/4 104/3/4 106/3/4
f 109/2/5 108/2/5 107/2/5
f 110/2/5 108/2/5 109/2/5
f 111/3/5 110/3/5 109/3/5
f 111/2/5 108/2/5 110/2/5
f 112/2/5 108/2/5 111/2/5
f 113/2/5 108/2/5 112/2/5
f 114/2/5 108/2/5 113/2/5
f 115/3/5 112/3/5 111/3/5
f 115/2/5 113/2/5 112/2/5
f 116/2/5 113/2/5 115/2/5
f 117/3/5 116/3/5 115/3/5
f 117/2/5 113/2/5 116/2/5
f 118/2/5 113/2/5 117/2/5
f 119/1/5 114/1/5 113/1/5
f 119/2/5 113/2/5 118/2/5
f 120/1/5 114/1/5 119/1/5
f 121/3/5 118/3/5 117/3/5
f 121/2/5 119/2/5 118/2/5
f 121/2/5 120/2/5 119/2/5
f 122/2/5 120/2/5 121/2/5
f 123/3/5 111/3/5 109/3/5
f 123/3/5 115/3/5 111/3/5
f 123/3/5 122/3/5 121/3/5
f 123/3/5 121/3/5 117/3/5
f 123/3/5 117/3/5 115/3/5
f 124/3/5 122/3/5 123/3/5
f 127/2/5 126/2/5 125/2/5
f 128/2/5 126/2/5 127/2/5
f 131/2/5 130/2/5 129/2/5
f 132/2/5 130/2/5 131/2/5
f 135/2/5 134/2/5 133/2/5
f 136/2/5 134/2/5 135/2/5
f 137/2/6 138/2/6 139/2/6
f 139/2/6 138/2/6 140/2/6
f 137/2/6 139/2/6 141/2/6
f 141/2/6 139/2/6 142/2/6
f 137/2/6 141/2/6 143/2/6
f 143/2/6 141/2/6 144/2/6
f 143/3/6 144/3/6 145/3/6
f 140/2/6 138/2/6 147/2/6
f 147/2/6 138/2/6 148/2/6
f 148/2/6 138/2/6 149/2/6
f 145/3/6 146/3/6 150/3/6
f 147/2/6 148/2/6 152/2/6
f 152/2/6 148/2/6 153/2/6
f 150/3/6 151/3/6 154/3/6
f 154/3/6 155/3/6 156/3/6
f 143/3/6 145/3/6 158/3/6
f 156/3/6 157/3/6 158/3/6
f 154/3/6 156/3/6 158/3/6
f 150/3/6 154/3/6 158/3/6
f 145/3/6 150/3/6 158/3/6
f 158/3/6 157/3/6 159/3/6
f 160/2/6 161/2/6 163/2/6
f 161/1/6 162/1/6 163/1/6
f 163/1/6 162/1/6 164/1/6
f 160/2/6 163/2/6 165/2/6
f 163/2/6 164/2/6 165/2/6
f 165/2/6 164/2/6 166/2/6
f 164/1/6 162/1/6 167/1/6
f 166/2/6 164/2/6 167/2/6
f 167/1/6 162/1/6 168/1/6
f 166/2/6 167/2/6 171/2/6
f 167/2/6 168/2/6 171/2/6
f 168/2/6 169/2/6 171/2/6
f 171/2/6 169/2/6 172/2/6
f 169/1/6 170/1/6 173/1/6
f 172/2/6 169/2/6 173/2/6
f 173/1/6 170/1/6 174/1/6
f 172/2/6 173/2/6 175/2/6
f 173/2/6 174/2/6 175/2/6
f 175/2/6 174/2/6 176/2/6
f 174/1/6 170/1/6 177/1/6
f 176/2/6 174/2/6 177/2/6
f 177/1/6 170/1/6 178/1/6
f 176/2/6 177/2/6 179/2/6
f 177/2/6 178/2/6 179/2/6
f 179/2/6 178/2/6 180/2/6
