# MagicaVoxel @ Ephtracy

# group
g 4x2 first (2)-7

# material
mtllib 4x2 first (2)-7.mtl
usemtl palette

# normals
vn -1 0 0
vn 1 0 0
vn 0 0 1
vn 0 0 -1
vn 0 -1 0
vn 0 1 0

# texcoords
vt 0.365234 0.5
vt 0.396484 0.5
vt 0.966797 0.5
vt 0.986328 0.5

# verts
v -63 0 63
v -63 0 -63
v -63 80 63
v -63 80 -63
v -30 55 -4
v -30 55 -41
v -30 58 -4
v -30 58 -41
v -20 48 -4
v -20 48 -41
v -20 55 -4
v -20 55 -41
v -9 41 -4
v -9 41 -41
v -9 48 -4
v -9 48 -41
v 23 20 -59
v 23 20 -63
v 23 27 -49
v 23 27 -59
v 23 34 -38
v 23 34 -49
v 23 41 -38
v 23 41 -41
v 23 48 -59
v 23 48 -63
v 23 79 -41
v 23 79 -59
v 62 0 -4
v 62 0 -63
v 62 20 -59
v 62 20 -63
v 62 27 -49
v 62 27 -59
v 62 34 -38
v 62 34 -49
v 62 41 -4
v 62 41 -38
v 62 48 -59
v 62 48 -63
v 62 79 -59
v 62 79 -63
v -61 0 -4
v -61 0 -63
v -61 58 -4
v -61 58 -41
v -61 65 -41
v -61 65 -52
v -61 72 -52
v -61 72 -62
v -61 79 -62
v -61 79 -63
v -23 65 -41
v -23 65 -52
v -23 72 -52
v -23 72 -62
v -23 79 -41
v -23 79 -62
v -21 0 63
v -21 0 62
v -21 0 -2
v -21 25 -2
v -21 25 -3
v -21 79 63
v -21 79 62
v -21 79 -3
v 63 0 -2
v 63 0 -63
v 63 25 -2
v 63 25 -3
v 63 79 63
v 63 79 62
v 63 79 -3
v 63 80 63
v 63 80 62
v 63 80 -63
v -63 0 63
v -63 80 63
v -21 0 63
v -21 79 63
v 63 79 63
v 63 80 63
v -21 0 -2
v -21 25 -2
v 63 0 -2
v 63 25 -2
v -21 25 -3
v -21 79 -3
v 63 25 -3
v 63 79 -3
v 23 34 -38
v 23 41 -38
v 62 34 -38
v 62 41 -38
v 23 27 -49
v 23 34 -49
v 62 27 -49
v 62 34 -49
v 23 20 -59
v 23 27 -59
v 62 20 -59
v 62 27 -59
v -61 0 -4
v -61 58 -4
v -30 55 -4
v -30 58 -4
v -20 48 -4
v -20 55 -4
v -9 41 -4
v -9 48 -4
v 62 0 -4
v 62 41 -4
v -61 58 -41
v -61 65 -41
v -30 55 -41
v -30 58 -41
v -23 65 -41
v -23 79 -41
v -20 48 -41
v -20 55 -41
v -9 41 -41
v -9 48 -41
v 23 41 -41
v 23 79 -41
v -61 65 -52
v -61 72 -52
v -23 65 -52
v -23 72 -52
v 23 48 -59
v 23 79 -59
v 62 48 -59
v 62 79 -59
v -61 72 -62
v -61 79 -62
v -23 72 -62
v -23 79 -62
v -63 0 -63
v -63 80 -63
v -62 0 -63
v -62 80 -63
v -61 0 -63
v -61 79 -63
v -61 80 -63
v 23 20 -63
v 23 48 -63
v 62 0 -63
v 62 20 -63
v 62 48 -63
v 62 79 -63
v 62 80 -63
v 63 0 -63
v 63 80 -63
v -63 0 63
v -21 0 63
v -62 0 62
v -21 0 62
v -21 0 -2
v 63 0 -2
v -61 0 -4
v 62 0 -4
v -63 0 -63
v -62 0 -63
v -61 0 -63
v 62 0 -63
v 63 0 -63
v 23 20 -59
v 62 20 -59
v 23 20 -63
v 62 20 -63
v 23 27 -49
v 62 27 -49
v 23 27 -59
v 62 27 -59
v 23 34 -38
v 62 34 -38
v 23 34 -49
v 62 34 -49
v -9 41 -4
v 62 41 -4
v 23 41 -38
v 62 41 -38
v -9 41 -41
v 23 41 -41
v -20 48 -4
v -9 48 -4
v -20 48 -41
v -9 48 -41
v -30 55 -4
v -20 55 -4
v -30 55 -41
v -20 55 -41
v -61 58 -4
v -30 58 -4
v -61 58 -41
v -30 58 -41
v -61 65 -41
v -23 65 -41
v -61 65 -52
v -23 65 -52
v -61 72 -52
v -23 72 -52
v -61 72 -62
v -23 72 -62
v -21 79 63
v 63 79 63
v -21 79 62
v 63 79 62
v -21 79 -3
v 63 79 -3
v -23 79 -41
v 23 79 -41
v 23 79 -59
v 62 79 -59
v -61 79 -62
v -23 79 -62
v -61 79 -63
v 62 79 -63
v -21 25 -2
v 63 25 -2
v -21 25 -3
v 63 25 -3
v 23 48 -59
v 62 48 -59
v 23 48 -63
v 62 48 -63
v -63 80 63
v 63 80 63
v -62 80 62
v 63 80 62
v -61 80 -4
v 23 80 -4
v -23 80 -41
v 23 80 -41
v 23 80 -59
v 62 80 -59
v -61 80 -62
v -23 80 -62
v -63 80 -63
v -62 80 -63
v -61 80 -63
v 62 80 -63
v 63 80 -63

# faces
f 3/4/1 2/4/1 1/4/1
f 4/4/1 2/4/1 3/4/1
f 7/2/1 6/2/1 5/2/1
f 8/2/1 6/2/1 7/2/1
f 11/2/1 10/2/1 9/2/1
f 12/2/1 10/2/1 11/2/1
f 15/2/1 14/2/1 13/2/1
f 16/2/1 14/2/1 15/2/1
f 20/2/1 18/2/1 17/2/1
f 22/2/1 20/2/1 19/2/1
f 23/2/1 22/2/1 21/2/1
f 24/2/1 22/2/1 23/2/1
f 25/2/1 18/2/1 20/2/1
f 25/2/1 22/2/1 24/2/1
f 25/2/1 20/2/1 22/2/1
f 26/2/1 18/2/1 25/2/1
f 27/2/1 25/2/1 24/2/1
f 28/2/1 25/2/1 27/2/1
f 31/3/1 30/3/1 29/3/1
f 32/3/1 30/3/1 31/3/1
f 33/3/1 31/3/1 29/3/1
f 34/3/1 31/3/1 33/3/1
f 35/3/1 33/3/1 29/3/1
f 36/3/1 33/3/1 35/3/1
f 37/3/1 35/3/1 29/3/1
f 38/3/1 35/3/1 37/3/1
f 41/3/1 40/3/1 39/3/1
f 42/3/1 40/3/1 41/3/1
f 43/3/2 44/3/2 45/3/2
f 45/3/2 44/3/2 46/3/2
f 46/3/2 44/3/2 47/3/2
f 47/3/2 44/3/2 48/3/2
f 48/3/2 44/3/2 49/3/2
f 49/3/2 44/3/2 50/3/2
f 50/3/2 44/3/2 51/3/2
f 51/3/2 44/3/2 52/3/2
f 53/2/2 54/2/2 55/2/2
f 53/2/2 55/2/2 57/2/2
f 55/2/2 56/2/2 57/2/2
f 57/2/2 56/2/2 58/2/2
f 60/3/2 61/3/2 62/3/2
f 59/4/2 60/4/2 64/4/2
f 62/3/2 63/3/2 65/3/2
f 64/4/2 60/4/2 65/4/2
f 60/3/2 62/3/2 65/3/2
f 65/3/2 63/3/2 66/3/2
f 67/3/2 68/3/2 69/3/2
f 69/3/2 68/3/2 70/3/2
f 70/3/2 68/3/2 73/3/2
f 71/4/2 72/4/2 74/4/2
f 72/3/2 73/3/2 75/3/2
f 74/4/2 72/4/2 75/4/2
f 73/3/2 68/3/2 76/3/2
f 75/3/2 73/3/2 76/3/2
f 79/4/3 78/4/3 77/4/3
f 80/4/3 78/4/3 79/4/3
f 81/4/3 78/4/3 80/4/3
f 82/4/3 78/4/3 81/4/3
f 85/3/3 84/3/3 83/3/3
f 86/3/3 84/3/3 85/3/3
f 89/3/3 88/3/3 87/3/3
f 90/3/3 88/3/3 89/3/3
f 93/2/3 92/2/3 91/2/3
f 94/2/3 92/2/3 93/2/3
f 97/2/3 96/2/3 95/2/3
f 98/2/3 96/2/3 97/2/3
f 101/2/3 100/2/3 99/2/3
f 102/2/3 100/2/3 101/2/3
f 103/3/4 104/3/4 105/3/4
f 105/3/4 104/3/4 106/3/4
f 103/3/4 105/3/4 107/3/4
f 107/3/4 105/3/4 108/3/4
f 103/3/4 107/3/4 109/3/4
f 109/3/4 107/3/4 110/3/4
f 103/3/4 109/3/4 111/3/4
f 111/3/4 109/3/4 112/3/4
f 113/2/4 114/2/4 116/2/4
f 116/2/4 114/2/4 117/2/4
f 115/2/4 116/2/4 117/2/4
f 115/2/4 117/2/4 120/2/4
f 117/2/4 118/2/4 120/2/4
f 119/2/4 120/2/4 122/2/4
f 121/2/4 122/2/4 123/2/4
f 120/2/4 118/2/4 124/2/4
f 123/2/4 122/2/4 124/2/4
f 122/2/4 120/2/4 124/2/4
f 125/2/4 126/2/4 127/2/4
f 127/2/4 126/2/4 128/2/4
f 129/2/4 130/2/4 131/2/4
f 131/2/4 130/2/4 132/2/4
f 133/2/4 134/2/4 135/2/4
f 135/2/4 134/2/4 136/2/4
f 137/4/4 138/4/4 139/4/4
f 139/4/4 138/4/4 140/4/4
f 139/3/4 140/3/4 141/3/4
f 141/3/4 140/3/4 142/3/4
f 142/3/4 140/3/4 143/3/4
f 144/2/4 145/2/4 147/2/4
f 147/2/4 145/2/4 148/2/4
f 142/1/4 143/1/4 149/1/4
f 149/1/4 143/1/4 150/1/4
f 147/3/4 148/3/4 151/3/4
f 146/3/4 147/3/4 151/3/4
f 149/3/4 150/3/4 151/3/4
f 148/3/4 149/3/4 151/3/4
f 151/3/4 150/3/4 152/3/4
f 155/4/5 154/4/5 153/4/5
f 156/4/5 154/4/5 155/4/5
f 157/3/5 156/3/5 155/3/5
f 159/3/5 157/3/5 155/3/5
f 159/3/5 158/3/5 157/3/5
f 160/3/5 158/3/5 159/3/5
f 161/4/5 155/4/5 153/4/5
f 162/3/5 159/3/5 155/3/5
f 162/4/5 155/4/5 161/4/5
f 163/3/5 159/3/5 162/3/5
f 164/3/5 158/3/5 160/3/5
f 165/3/5 158/3/5 164/3/5
f 168/2/5 167/2/5 166/2/5
f 169/2/5 167/2/5 168/2/5
f 172/2/5 171/2/5 170/2/5
f 173/2/5 171/2/5 172/2/5
f 176/2/5 175/2/5 174/2/5
f 177/2/5 175/2/5 176/2/5
f 180/2/5 179/2/5 178/2/5
f 181/2/5 179/2/5 180/2/5
f 182/2/5 180/2/5 178/2/5
f 183/2/5 180/2/5 182/2/5
f 186/2/5 185/2/5 184/2/5
f 187/2/5 185/2/5 186/2/5
f 190/2/5 189/2/5 188/2/5
f 191/2/5 189/2/5 190/2/5
f 194/2/5 193/2/5 192/2/5
f 195/2/5 193/2/5 194/2/5
f 198/2/5 197/2/5 196/2/5
f 199/2/5 197/2/5 198/2/5
f 202/2/5 201/2/5 200/2/5
f 203/2/5 201/2/5 202/2/5
f 206/4/5 205/4/5 204/4/5
f 207/4/5 205/4/5 206/4/5
f 208/3/5 207/3/5 206/3/5
f 209/3/5 207/3/5 208/3/5
f 212/1/5 211/1/5 210/1/5
f 215/1/5 212/1/5 210/1/5
f 215/1/5 213/1/5 212/1/5
f 216/1/5 215/1/5 214/1/5
f 217/1/5 213/1/5 215/1/5
f 217/1/5 215/1/5 216/1/5
f 218/3/6 219/3/6 220/3/6
f 220/3/6 219/3/6 221/3/6
f 222/2/6 223/2/6 224/2/6
f 224/2/6 223/2/6 225/2/6
f 226/4/6 227/4/6 228/4/6
f 228/4/6 227/4/6 229/4/6
f 228/3/6 229/3/6 230/3/6
f 230/3/6 229/3/6 231/3/6
f 230/2/6 231/2/6 232/2/6
f 231/3/6 229/3/6 233/3/6
f 232/2/6 231/2/6 233/2/6
f 232/1/6 233/1/6 234/1/6
f 233/3/6 229/3/6 234/3/6
f 234/3/6 229/3/6 235/3/6
f 228/3/6 230/3/6 236/3/6
f 230/2/6 232/2/6 236/2/6
f 234/1/6 235/1/6 237/1/6
f 236/2/6 232/2/6 237/2/6
f 232/1/6 234/1/6 237/1/6
f 226/4/6 228/4/6 238/4/6
f 228/3/6 236/3/6 239/3/6
f 238/4/6 228/4/6 239/4/6
f 236/1/6 237/1/6 240/1/6
f 239/3/6 236/3/6 240/3/6
f 237/1/6 235/1/6 241/1/6
f 240/1/6 237/1/6 241/1/6
f 235/3/6 229/3/6 241/3/6
f 241/3/6 229/3/6 242/3/6
