# MagicaVoxel @ Ephtracy

# group
g 4x2 second (2)-4

# material
mtllib 4x2 second (2)-4.mtl
usemtl palette

# normals
vn -1 0 0
vn 1 0 0
vn 0 0 1
vn 0 0 -1
vn 0 -1 0
vn 0 1 0

# texcoords
vt 0.365234 0.5
vt 0.966797 0.5
vt 0.974609 0.5

# verts
v -63 0 63
v -63 0 -63
v -63 2 63
v -63 2 -18
v -63 3 63
v -63 3 -18
v -63 80 -18
v -63 80 -63
v 47 3 -18
v 47 3 -19
v 47 43 -18
v 47 43 -19
v 62 3 63
v 62 3 -18
v 62 80 63
v 62 80 -18
v -62 3 -19
v -62 3 -61
v -62 80 -19
v -62 80 -61
v 17 3 -18
v 17 3 -19
v 17 43 -18
v 17 43 -19
v 63 0 63
v 63 0 -63
v 63 2 -19
v 63 2 -61
v 63 3 -19
v 63 3 -61
v 63 80 63
v 63 80 -19
v 63 80 -61
v 63 80 -63
v -63 0 63
v -63 2 63
v -63 3 63
v 62 2 63
v 62 3 63
v 62 80 63
v 63 0 63
v 63 80 63
v -63 3 -18
v -63 80 -18
v 17 3 -18
v 17 43 -18
v 47 3 -18
v 47 43 -18
v 62 3 -18
v 62 80 -18
v -62 3 -61
v -62 80 -61
v 63 3 -61
v 63 80 -61
v -62 3 -19
v -62 80 -19
v 17 3 -19
v 17 43 -19
v 47 3 -19
v 47 43 -19
v 63 3 -19
v 63 80 -19
v -63 0 -63
v -63 80 -63
v 63 0 -63
v 63 80 -63
v -63 0 63
v 63 0 63
v -63 0 -63
v 63 0 -63
v 17 43 -18
v 47 43 -18
v 17 43 -19
v 47 43 -19
v -63 3 63
v 62 3 63
v -63 3 -18
v 17 3 -18
v 47 3 -18
v 62 3 -18
v -62 3 -19
v 17 3 -19
v 47 3 -19
v 63 3 -19
v -41 3 -28
v -35 3 -28
v -33 3 -29
v -23 3 -29
v -57 3 -35
v -53 3 -35
v -50 3 -35
v -41 3 -35
v -35 3 -35
v -33 3 -35
v -24 3 -35
v -23 3 -35
v -23 3 -36
v -17 3 -36
v -57 3 -40
v -53 3 -40
v -54 3 -41
v -51 3 -41
v -23 3 -41
v -17 3 -41
v -51 3 -48
v -50 3 -48
v -54 3 -49
v -52 3 -49
v -22 3 -49
v -14 3 -49
v -22 3 -51
v -14 3 -51
v -11 3 -51
v -52 3 -54
v -50 3 -54
v -14 3 -54
v -11 3 -54
v -50 3 -56
v -30 3 -56
v -24 3 -56
v -22 3 -56
v -30 3 -57
v -26 3 -57
v -26 3 -58
v -22 3 -58
v -62 3 -61
v 63 3 -61
v 62 80 63
v 63 80 63
v -63 80 -18
v 62 80 -18
v -62 80 -19
v 63 80 -19
v -62 80 -61
v 63 80 -61
v -63 80 -63
v 63 80 -63

# faces
f 3/2/1 2/2/1 1/2/1
f 4/2/1 2/2/1 3/2/1
f 5/3/1 4/3/1 3/3/1
f 6/2/1 2/2/1 4/2/1
f 6/3/1 4/3/1 5/3/1
f 7/2/1 2/2/1 6/2/1
f 8/2/1 2/2/1 7/2/1
f 11/2/1 10/2/1 9/2/1
f 12/2/1 10/2/1 11/2/1
f 15/2/1 14/2/1 13/2/1
f 16/2/1 14/2/1 15/2/1
f 17/2/2 18/2/2 19/2/2
f 19/2/2 18/2/2 20/2/2
f 21/2/2 22/2/2 23/2/2
f 23/2/2 22/2/2 24/2/2
f 25/2/2 26/2/2 27/2/2
f 27/2/2 26/2/2 28/2/2
f 25/2/2 27/2/2 29/2/2
f 27/1/2 28/1/2 29/1/2
f 28/2/2 26/2/2 30/2/2
f 29/1/2 28/1/2 30/1/2
f 25/2/2 29/2/2 31/2/2
f 31/2/2 29/2/2 32/2/2
f 30/2/2 26/2/2 33/2/2
f 33/2/2 26/2/2 34/2/2
f 38/2/3 36/2/3 35/2/3
f 38/3/3 37/3/3 36/3/3
f 39/3/3 37/3/3 38/3/3
f 41/2/3 38/2/3 35/2/3
f 41/2/3 40/2/3 39/2/3
f 41/2/3 39/2/3 38/2/3
f 42/2/3 40/2/3 41/2/3
f 45/2/3 44/2/3 43/2/3
f 46/2/3 44/2/3 45/2/3
f 48/2/3 44/2/3 46/2/3
f 49/2/3 48/2/3 47/2/3
f 50/2/3 44/2/3 48/2/3
f 50/2/3 48/2/3 49/2/3
f 53/2/3 52/2/3 51/2/3
f 54/2/3 52/2/3 53/2/3
f 55/2/4 56/2/4 57/2/4
f 57/2/4 56/2/4 58/2/4
f 58/2/4 56/2/4 60/2/4
f 59/2/4 60/2/4 61/2/4
f 60/2/4 56/2/4 62/2/4
f 61/2/4 60/2/4 62/2/4
f 63/2/4 64/2/4 65/2/4
f 65/2/4 64/2/4 66/2/4
f 69/2/5 68/2/5 67/2/5
f 70/2/5 68/2/5 69/2/5
f 73/2/5 72/2/5 71/2/5
f 74/2/5 72/2/5 73/2/5
f 75/3/6 76/3/6 77/3/6
f 77/3/6 76/3/6 78/3/6
f 78/3/6 76/3/6 79/3/6
f 79/3/6 76/3/6 80/3/6
f 78/1/6 79/1/6 82/1/6
f 82/1/6 79/1/6 83/1/6
f 82/1/6 83/1/6 85/1/6
f 83/1/6 84/1/6 85/1/6
f 81/1/6 82/1/6 85/1/6
f 85/1/6 84/1/6 86/1/6
f 86/1/6 84/1/6 87/1/6
f 87/1/6 84/1/6 88/1/6
f 81/1/6 85/1/6 89/1/6
f 89/1/6 85/1/6 90/1/6
f 90/1/6 85/1/6 91/1/6
f 85/2/6 86/2/6 92/2/6
f 91/1/6 85/1/6 92/1/6
f 86/1/6 87/1/6 93/1/6
f 92/2/6 86/2/6 93/2/6
f 87/2/6 88/2/6 94/2/6
f 93/1/6 87/1/6 94/1/6
f 94/2/6 88/2/6 95/2/6
f 88/1/6 84/1/6 96/1/6
f 95/2/6 88/2/6 96/2/6
f 95/1/6 96/1/6 97/1/6
f 96/1/6 84/1/6 97/1/6
f 97/1/6 84/1/6 98/1/6
f 81/1/6 89/1/6 99/1/6
f 89/2/6 90/2/6 99/2/6
f 90/1/6 91/1/6 100/1/6
f 99/2/6 90/2/6 100/2/6
f 99/1/6 100/1/6 101/1/6
f 100/1/6 91/1/6 102/1/6
f 101/1/6 100/1/6 102/1/6
f 97/2/6 98/2/6 103/2/6
f 95/1/6 97/1/6 103/1/6
f 98/1/6 84/1/6 104/1/6
f 103/2/6 98/2/6 104/2/6
f 102/1/6 91/1/6 105/1/6
f 101/2/6 102/2/6 105/2/6
f 94/2/6 95/2/6 106/2/6
f 105/1/6 91/1/6 106/1/6
f 91/2/6 92/2/6 106/2/6
f 92/2/6 93/2/6 106/2/6
f 93/2/6 94/2/6 106/2/6
f 101/2/6 105/2/6 107/2/6
f 99/1/6 101/1/6 107/1/6
f 105/2/6 106/2/6 107/2/6
f 107/2/6 106/2/6 108/2/6
f 103/1/6 104/1/6 109/1/6
f 104/1/6 84/1/6 110/1/6
f 109/1/6 104/1/6 110/1/6
f 103/1/6 109/1/6 111/1/6
f 109/2/6 110/2/6 111/2/6
f 110/1/6 84/1/6 112/1/6
f 111/2/6 110/2/6 112/2/6
f 112/1/6 84/1/6 113/1/6
f 108/2/6 106/2/6 114/2/6
f 107/1/6 108/1/6 114/1/6
f 106/2/6 95/2/6 115/2/6
f 114/2/6 106/2/6 115/2/6
f 112/2/6 113/2/6 116/2/6
f 111/1/6 112/1/6 116/1/6
f 113/1/6 84/1/6 117/1/6
f 116/2/6 113/2/6 117/2/6
f 115/2/6 95/2/6 118/2/6
f 114/1/6 115/1/6 118/1/6
f 118/2/6 95/2/6 119/2/6
f 103/1/6 111/1/6 120/1/6
f 119/2/6 95/2/6 120/2/6
f 111/1/6 116/1/6 120/1/6
f 95/1/6 103/1/6 120/1/6
f 116/1/6 117/1/6 120/1/6
f 120/1/6 117/1/6 121/1/6
f 118/1/6 119/1/6 122/1/6
f 119/2/6 120/2/6 122/2/6
f 120/2/6 121/2/6 122/2/6
f 122/2/6 121/2/6 123/2/6
f 122/1/6 123/1/6 124/1/6
f 123/2/6 121/2/6 124/2/6
f 121/1/6 117/1/6 125/1/6
f 124/2/6 121/2/6 125/2/6
f 107/1/6 114/1/6 126/1/6
f 81/1/6 99/1/6 126/1/6
f 124/1/6 125/1/6 126/1/6
f 118/1/6 122/1/6 126/1/6
f 99/1/6 107/1/6 126/1/6
f 122/1/6 124/1/6 126/1/6
f 114/1/6 118/1/6 126/1/6
f 125/1/6 117/1/6 127/1/6
f 126/1/6 125/1/6 127/1/6
f 117/1/6 84/1/6 127/1/6
f 128/2/6 129/2/6 131/2/6
f 130/2/6 131/2/6 132/2/6
f 131/2/6 129/2/6 133/2/6
f 132/2/6 131/2/6 133/2/6
f 130/2/6 132/2/6 134/2/6
f 130/2/6 134/2/6 136/2/6
f 134/2/6 135/2/6 136/2/6
f 136/2/6 135/2/6 137/2/6
