# MagicaVoxel @ Ephtracy

# group
g 4x2 fourth (1)-2

# material
mtllib 4x2 fourth (1)-2.mtl
usemtl palette

# normals
vn -1 0 0
vn 1 0 0
vn 0 0 1
vn 0 0 -1
vn 0 -1 0
vn 0 1 0

# texcoords
vt 0.361328 0.5
vt 0.365234 0.5
vt 0.966797 0.5
vt 0.986328 0.5

# verts
v -63 0 63
v -63 0 -63
v -63 2 -29
v -63 2 -59
v -63 3 -29
v -63 3 -59
v -63 43 -29
v -63 43 -59
v -63 80 63
v -63 80 -63
v -23 0 63
v -23 0 -25
v -23 2 63
v -23 2 34
v -23 2 24
v -23 2 -8
v -23 2 -22
v -23 2 -25
v -23 3 63
v -23 3 34
v -23 3 24
v -23 3 -8
v -23 3 -22
v -23 3 -25
v 61 3 63
v 61 3 -61
v 61 80 63
v 61 80 -61
v -62 0 63
v -62 0 -25
v -62 2 -25
v -62 3 -25
v -62 3 -29
v -62 3 -59
v -62 3 -61
v -62 43 -29
v -62 43 -59
v -62 80 63
v -62 80 -61
v 63 0 63
v 63 0 -63
v 63 80 63
v 63 80 -63
v -63 0 63
v -63 80 63
v -62 0 63
v -62 80 63
v -23 0 63
v -23 2 63
v -23 3 63
v 61 2 63
v 61 3 63
v 61 80 63
v 62 0 63
v 62 80 63
v 63 0 63
v 63 80 63
v -62 0 -25
v -62 2 -25
v -62 3 -25
v -23 0 -25
v -23 2 -25
v -23 3 -25
v -63 3 -59
v -63 43 -59
v -62 3 -59
v -62 43 -59
v -62 3 -61
v -62 80 -61
v 61 3 -61
v 61 80 -61
v -63 3 -29
v -63 43 -29
v -62 3 -29
v -62 43 -29
v -63 0 -63
v -63 80 -63
v 62 0 -63
v 62 80 -63
v 63 0 -63
v 63 80 -63
v -63 0 63
v -62 0 63
v -23 0 63
v 62 0 63
v 63 0 63
v -62 0 -25
v -23 0 -25
v -63 0 -63
v 62 0 -63
v 63 0 -63
v -63 43 -29
v -62 43 -29
v -63 43 -59
v -62 43 -59
v -23 3 63
v 61 3 63
v -13 3 41
v -10 3 41
v -13 3 39
v -10 3 39
v -15 3 37
v -8 3 37
v -18 3 36
v -15 3 36
v -2 3 36
v 4 3 36
v -21 3 35
v -18 3 35
v -14 3 35
v -12 3 35
v -8 3 35
v -5 3 35
v -23 3 34
v -21 3 34
v -14 3 34
v -12 3 34
v -9 3 34
v -5 3 34
v -2 3 34
v 4 3 34
v -12 3 33
v -9 3 33
v -9 3 32
v -3 3 32
v 5 3 32
v 10 3 32
v -12 3 31
v -9 3 31
v -3 3 31
v 5 3 31
v -21 3 29
v -12 3 29
v -20 3 28
v -12 3 28
v -11 3 28
v -6 3 28
v -21 3 27
v -20 3 27
v 17 3 26
v 18 3 26
v 10 3 25
v 12 3 25
v -23 3 24
v -11 3 24
v -6 3 24
v 0 3 24
v 0 3 23
v 2 3 23
v 17 3 23
v 18 3 23
v 13 3 22
v 15 3 22
v 12 3 21
v 13 3 21
v 12 3 20
v 13 3 20
v 0 3 19
v 2 3 19
v 2 3 18
v 5 3 18
v 13 3 15
v 15 3 15
v 0 3 14
v 2 3 14
v 4 3 14
v 5 3 14
v 12 3 14
v 13 3 14
v 14 3 13
v 15 3 13
v 12 3 9
v 13 3 9
v 12 3 8
v 14 3 8
v 15 3 8
v 16 3 8
v 1 3 6
v 4 3 6
v 0 3 3
v 1 3 3
v 9 3 3
v 1 3 -2
v 9 3 -2
v 0 3 -5
v 5 3 -5
v -23 3 -8
v -21 3 -8
v -18 3 -8
v -17 3 -8
v -11 3 -8
v -4 3 -8
v 10 3 -9
v 12 3 -9
v 15 3 -9
v 16 3 -9
v 10 3 -10
v 12 3 -10
v -4 3 -11
v 5 3 -11
v 13 3 -11
v 15 3 -11
v -17 3 -15
v -11 3 -15
v -21 3 -19
v -18 3 -19
v 10 3 -21
v 13 3 -21
v -23 3 -22
v -21 3 -22
v -9 3 -22
v -8 3 -22
v 1 3 -22
v 10 3 -22
v -9 3 -23
v -8 3 -23
v -62 3 -25
v -23 3 -25
v -9 3 -25
v -8 3 -25
v -9 3 -26
v -8 3 -26
v -9 3 -27
v -8 3 -27
v 9 3 -27
v 11 3 -27
v 9 3 -28
v 11 3 -28
v -63 3 -29
v -62 3 -29
v -8 3 -29
v -2 3 -29
v -2 3 -30
v 1 3 -30
v 2 3 -30
v 7 3 -30
v -21 3 -31
v -9 3 -31
v 2 3 -32
v 7 3 -32
v -63 3 -59
v -62 3 -59
v -62 3 -61
v 61 3 -61
v -63 80 63
v -62 80 63
v 61 80 63
v 62 80 63
v 63 80 63
v -62 80 -61
v 61 80 -61
v -63 80 -63
v 62 80 -63
v 63 80 -63

# faces
f 3/3/1 2/3/1 1/3/1
f 4/3/1 2/3/1 3/3/1
f 5/3/1 3/3/1 1/3/1
f 5/2/1 4/2/1 3/2/1
f 6/3/1 2/3/1 4/3/1
f 6/2/1 4/2/1 5/2/1
f 7/3/1 5/3/1 1/3/1
f 8/3/1 2/3/1 6/3/1
f 9/3/1 7/3/1 1/3/1
f 9/3/1 8/3/1 7/3/1
f 10/3/1 2/3/1 8/3/1
f 10/3/1 8/3/1 9/3/1
f 13/3/1 12/3/1 11/3/1
f 14/3/1 12/3/1 13/3/1
f 15/3/1 12/3/1 14/3/1
f 16/3/1 12/3/1 15/3/1
f 17/3/1 12/3/1 16/3/1
f 18/3/1 12/3/1 17/3/1
f 19/2/1 14/2/1 13/2/1
f 20/1/1 15/1/1 14/1/1
f 20/2/1 14/2/1 19/2/1
f 21/3/1 16/3/1 15/3/1
f 21/1/1 15/1/1 20/1/1
f 22/1/1 17/1/1 16/1/1
f 22/3/1 16/3/1 21/3/1
f 23/2/1 18/2/1 17/2/1
f 23/1/1 17/1/1 22/1/1
f 24/2/1 18/2/1 23/2/1
f 27/3/1 26/3/1 25/3/1
f 28/3/1 26/3/1 27/3/1
f 29/3/2 30/3/2 31/3/2
f 29/3/2 31/3/2 32/3/2
f 32/3/2 33/3/2 36/3/2
f 34/3/2 35/3/2 37/3/2
f 29/3/2 32/3/2 38/3/2
f 36/3/2 37/3/2 38/3/2
f 32/3/2 36/3/2 38/3/2
f 37/3/2 35/3/2 39/3/2
f 38/3/2 37/3/2 39/3/2
f 40/4/2 41/4/2 42/4/2
f 42/4/2 41/4/2 43/4/2
f 46/3/3 45/3/3 44/3/3
f 47/3/3 45/3/3 46/3/3
f 51/3/3 49/3/3 48/3/3
f 51/2/3 50/2/3 49/2/3
f 52/2/3 50/2/3 51/2/3
f 54/3/3 51/3/3 48/3/3
f 54/3/3 53/3/3 52/3/3
f 54/3/3 52/3/3 51/3/3
f 55/3/3 53/3/3 54/3/3
f 56/4/3 55/4/3 54/4/3
f 57/4/3 55/4/3 56/4/3
f 61/3/3 59/3/3 58/3/3
f 62/2/3 60/2/3 59/2/3
f 62/3/3 59/3/3 61/3/3
f 63/2/3 60/2/3 62/2/3
f 66/3/3 65/3/3 64/3/3
f 67/3/3 65/3/3 66/3/3
f 70/3/3 69/3/3 68/3/3
f 71/3/3 69/3/3 70/3/3
f 72/3/4 73/3/4 74/3/4
f 74/3/4 73/3/4 75/3/4
f 76/3/4 77/3/4 78/3/4
f 78/3/4 77/3/4 79/3/4
f 78/4/4 79/4/4 80/4/4
f 80/4/4 79/4/4 81/4/4
f 87/3/5 83/3/5 82/3/5
f 88/3/5 85/3/5 84/3/5
f 89/3/5 87/3/5 82/3/5
f 89/3/5 88/3/5 87/3/5
f 90/4/5 86/4/5 85/4/5
f 90/3/5 88/3/5 89/3/5
f 90/3/5 85/3/5 88/3/5
f 91/4/5 86/4/5 90/4/5
f 94/3/5 93/3/5 92/3/5
f 95/3/5 93/3/5 94/3/5
f 96/2/6 97/2/6 98/2/6
f 98/2/6 97/2/6 99/2/6
f 96/2/6 98/2/6 100/2/6
f 98/1/6 99/1/6 100/1/6
f 99/2/6 97/2/6 101/2/6
f 100/1/6 99/1/6 101/1/6
f 96/2/6 100/2/6 102/2/6
f 100/2/6 101/2/6 102/2/6
f 101/2/6 97/2/6 103/2/6
f 102/2/6 101/2/6 103/2/6
f 96/2/6 102/2/6 104/2/6
f 102/1/6 103/1/6 105/1/6
f 104/2/6 102/2/6 105/2/6
f 103/2/6 97/2/6 106/2/6
f 106/2/6 97/2/6 107/2/6
f 96/2/6 104/2/6 108/2/6
f 104/1/6 105/1/6 109/1/6
f 108/2/6 104/2/6 109/2/6
f 105/1/6 103/1/6 110/1/6
f 109/1/6 105/1/6 110/1/6
f 110/1/6 103/1/6 111/1/6
f 103/2/6 106/2/6 112/2/6
f 111/1/6 103/1/6 112/1/6
f 112/2/6 106/2/6 113/2/6
f 96/2/6 108/2/6 114/2/6
f 108/1/6 109/1/6 115/1/6
f 114/2/6 108/2/6 115/2/6
f 109/1/6 110/1/6 115/1/6
f 110/2/6 111/2/6 116/2/6
f 115/1/6 110/1/6 116/1/6
f 112/1/6 113/1/6 117/1/6
f 116/2/6 111/2/6 117/2/6
f 111/1/6 112/1/6 117/1/6
f 117/1/6 113/1/6 118/1/6
f 113/2/6 106/2/6 119/2/6
f 118/1/6 113/1/6 119/1/6
f 106/1/6 107/1/6 120/1/6
f 119/2/6 106/2/6 120/2/6
f 107/2/6 97/2/6 121/2/6
f 120/1/6 107/1/6 121/1/6
f 117/1/6 118/1/6 122/1/6
f 114/1/6 115/1/6 122/1/6
f 115/1/6 116/1/6 122/1/6
f 116/1/6 117/1/6 122/1/6
f 119/2/6 120/2/6 123/2/6
f 122/1/6 118/1/6 123/1/6
f 120/2/6 121/2/6 123/2/6
f 118/2/6 119/2/6 123/2/6
f 122/2/6 123/2/6 124/2/6
f 123/2/6 121/2/6 124/2/6
f 124/2/6 121/2/6 125/2/6
f 121/2/6 97/2/6 126/2/6
f 125/2/6 121/2/6 126/2/6
f 126/2/6 97/2/6 127/2/6
f 114/1/6 122/1/6 128/1/6
f 122/2/6 124/2/6 128/2/6
f 124/1/6 125/1/6 129/1/6
f 128/2/6 124/2/6 129/2/6
f 125/2/6 126/2/6 130/2/6
f 129/1/6 125/1/6 130/1/6
f 126/1/6 127/1/6 131/1/6
f 130/2/6 126/2/6 131/2/6
f 114/1/6 128/1/6 132/1/6
f 129/1/6 130/1/6 132/1/6
f 130/1/6 131/1/6 132/1/6
f 128/1/6 129/1/6 132/1/6
f 132/1/6 131/1/6 133/1/6
f 132/3/6 133/3/6 134/3/6
f 133/1/6 131/1/6 135/1/6
f 134/3/6 133/3/6 135/3/6
f 135/1/6 131/1/6 136/1/6
f 136/1/6 131/1/6 137/1/6
f 114/1/6 132/1/6 138/1/6
f 132/3/6 134/3/6 138/3/6
f 134/1/6 135/1/6 139/1/6
f 138/3/6 134/3/6 139/3/6
f 135/1/6 136/1/6 139/1/6
f 127/2/6 97/2/6 140/2/6
f 140/2/6 97/2/6 141/2/6
f 131/1/6 127/1/6 142/1/6
f 137/1/6 131/1/6 142/1/6
f 127/2/6 140/2/6 142/2/6
f 142/2/6 140/2/6 143/2/6
f 114/1/6 138/1/6 144/1/6
f 138/1/6 139/1/6 144/1/6
f 139/1/6 136/1/6 145/1/6
f 144/1/6 139/1/6 145/1/6
f 136/3/6 137/3/6 145/3/6
f 137/1/6 142/1/6 146/1/6
f 145/3/6 137/3/6 146/3/6
f 142/1/6 143/1/6 146/1/6
f 146/1/6 143/1/6 147/1/6
f 144/3/6 145/3/6 148/3/6
f 147/1/6 143/1/6 148/1/6
f 146/3/6 147/3/6 148/3/6
f 145/3/6 146/3/6 148/3/6
f 148/1/6 143/1/6 149/1/6
f 140/1/6 141/1/6 150/1/6
f 143/2/6 140/2/6 150/2/6
f 141/2/6 97/2/6 151/2/6
f 150/1/6 141/1/6 151/1/6
f 143/2/6 150/2/6 152/2/6
f 150/2/6 151/2/6 152/2/6
f 152/2/6 151/2/6 153/2/6
f 149/1/6 143/1/6 154/1/6
f 143/2/6 152/2/6 154/2/6
f 152/1/6 153/1/6 155/1/6
f 154/2/6 152/2/6 155/2/6
f 149/1/6 154/1/6 156/1/6
f 154/1/6 155/1/6 156/1/6
f 155/1/6 153/1/6 157/1/6
f 156/1/6 155/1/6 157/1/6
f 148/3/6 149/3/6 158/3/6
f 144/3/6 148/3/6 158/3/6
f 149/1/6 156/1/6 159/1/6
f 158/3/6 149/3/6 159/3/6
f 158/1/6 159/1/6 160/1/6
f 159/1/6 156/1/6 160/1/6
f 160/1/6 156/1/6 161/1/6
f 157/1/6 153/1/6 162/1/6
f 156/2/6 157/2/6 162/2/6
f 153/2/6 151/2/6 163/2/6
f 162/1/6 153/1/6 163/1/6
f 144/3/6 158/3/6 164/3/6
f 158/1/6 160/1/6 164/1/6
f 160/3/6 161/3/6 165/3/6
f 164/1/6 160/1/6 165/1/6
f 165/3/6 161/3/6 166/3/6
f 161/1/6 156/1/6 167/1/6
f 166/3/6 161/3/6 167/3/6
f 156/2/6 162/2/6 168/2/6
f 167/1/6 156/1/6 168/1/6
f 162/2/6 163/2/6 168/2/6
f 168/2/6 163/2/6 169/2/6
f 169/2/6 163/2/6 170/2/6
f 163/2/6 151/2/6 171/2/6
f 170/2/6 163/2/6 171/2/6
f 166/1/6 167/1/6 172/1/6
f 167/1/6 168/1/6 172/1/6
f 168/1/6 169/1/6 172/1/6
f 169/2/6 170/2/6 173/2/6
f 172/1/6 169/1/6 173/1/6
f 166/1/6 172/1/6 174/1/6
f 172/2/6 173/2/6 174/2/6
f 173/2/6 170/2/6 175/2/6
f 174/2/6 173/2/6 175/2/6
f 170/1/6 171/1/6 175/1/6
f 171/2/6 151/2/6 176/2/6
f 175/1/6 171/1/6 176/1/6
f 176/2/6 151/2/6 177/2/6
f 165/3/6 166/3/6 178/3/6
f 164/3/6 165/3/6 178/3/6
f 174/1/6 175/1/6 179/1/6
f 178/3/6 166/3/6 179/3/6
f 166/1/6 174/1/6 179/1/6
f 175/1/6 176/1/6 179/1/6
f 176/1/6 177/1/6 179/1/6
f 164/3/6 178/3/6 180/3/6
f 144/3/6 164/3/6 180/3/6
f 178/1/6 179/1/6 181/1/6
f 180/3/6 178/3/6 181/3/6
f 179/1/6 177/1/6 182/1/6
f 181/1/6 179/1/6 182/1/6
f 180/1/6 181/1/6 183/1/6
f 181/3/6 182/3/6 183/3/6
f 182/1/6 177/1/6 184/1/6
f 183/3/6 182/3/6 184/3/6
f 180/1/6 183/1/6 185/1/6
f 144/3/6 180/3/6 185/3/6
f 183/1/6 184/1/6 185/1/6
f 185/1/6 184/1/6 186/1/6
f 144/3/6 185/3/6 187/3/6
f 185/3/6 186/3/6 187/3/6
f 187/3/6 186/3/6 188/3/6
f 188/3/6 186/3/6 189/3/6
f 189/3/6 186/3/6 190/3/6
f 190/3/6 186/3/6 191/3/6
f 191/3/6 186/3/6 192/3/6
f 184/1/6 177/1/6 193/1/6
f 186/1/6 184/1/6 193/1/6
f 193/1/6 177/1/6 194/1/6
f 194/1/6 177/1/6 195/1/6
f 177/2/6 151/2/6 196/2/6
f 195/1/6 177/1/6 196/1/6
f 186/1/6 193/1/6 197/1/6
f 193/2/6 194/2/6 197/2/6
f 194/1/6 195/1/6 198/1/6
f 197/2/6 194/2/6 198/2/6
f 192/3/6 186/3/6 199/3/6
f 191/1/6 192/1/6 199/1/6
f 186/1/6 197/1/6 200/1/6
f 199/3/6 186/3/6 200/3/6
f 197/1/6 198/1/6 200/1/6
f 198/1/6 195/1/6 201/1/6
f 200/1/6 198/1/6 201/1/6
f 195/2/6 196/2/6 202/2/6
f 201/1/6 195/1/6 202/1/6
f 189/1/6 190/1/6 203/1/6
f 190/3/6 191/3/6 203/3/6
f 199/1/6 200/1/6 204/1/6
f 203/3/6 191/3/6 204/3/6
f 191/1/6 199/1/6 204/1/6
f 200/1/6 201/1/6 204/1/6
f 187/1/6 188/1/6 205/1/6
f 188/3/6 189/3/6 205/3/6
f 189/1/6 203/1/6 206/1/6
f 205/3/6 189/3/6 206/3/6
f 203/1/6 204/1/6 206/1/6
f 204/1/6 201/1/6 207/1/6
f 206/1/6 204/1/6 207/1/6
f 205/1/6 206/1/6 207/1/6
f 201/2/6 202/2/6 208/2/6
f 207/1/6 201/1/6 208/1/6
f 187/1/6 205/1/6 209/1/6
f 205/1/6 207/1/6 209/1/6
f 209/1/6 207/1/6 210/1/6
f 210/1/6 207/1/6 211/1/6
f 211/1/6 207/1/6 212/1/6
f 212/1/6 207/1/6 213/1/6
f 207/2/6 208/2/6 214/2/6
f 213/1/6 207/1/6 214/1/6
f 210/1/6 211/1/6 215/1/6
f 211/2/6 212/2/6 215/2/6
f 212/1/6 213/1/6 216/1/6
f 215/2/6 212/2/6 216/2/6
f 209/2/6 210/2/6 218/2/6
f 210/1/6 215/1/6 219/1/6
f 215/1/6 216/1/6 219/1/6
f 216/1/6 213/1/6 220/1/6
f 219/1/6 216/1/6 220/1/6
f 210/1/6 219/1/6 221/1/6
f 219/2/6 220/2/6 221/2/6
f 220/1/6 213/1/6 222/1/6
f 221/2/6 220/2/6 222/2/6
f 210/1/6 221/1/6 223/1/6
f 221/1/6 222/1/6 223/1/6
f 222/1/6 213/1/6 224/1/6
f 223/1/6 222/1/6 224/1/6
f 213/2/6 214/2/6 225/2/6
f 214/2/6 208/2/6 226/2/6
f 225/2/6 214/2/6 226/2/6
f 213/2/6 225/2/6 227/2/6
f 225/1/6 226/1/6 227/1/6
f 226/2/6 208/2/6 228/2/6
f 227/1/6 226/1/6 228/1/6
f 217/2/6 218/2/6 230/2/6
f 224/1/6 213/1/6 231/1/6
f 223/2/6 224/2/6 231/2/6
f 231/1/6 213/1/6 232/1/6
f 231/2/6 232/2/6 233/2/6
f 232/1/6 213/1/6 233/1/6
f 213/2/6 227/2/6 234/2/6
f 233/1/6 213/1/6 234/1/6
f 227/2/6 228/2/6 234/2/6
f 234/2/6 228/2/6 235/2/6
f 235/2/6 228/2/6 236/2/6
f 210/1/6 223/1/6 237/1/6
f 229/2/6 230/2/6 237/2/6
f 218/2/6 210/2/6 237/2/6
f 230/2/6 218/2/6 237/2/6
f 231/2/6 233/2/6 238/2/6
f 237/1/6 223/1/6 238/1/6
f 234/2/6 235/2/6 238/2/6
f 233/2/6 234/2/6 238/2/6
f 223/2/6 231/2/6 238/2/6
f 235/1/6 236/1/6 239/1/6
f 238/2/6 235/2/6 239/2/6
f 237/2/6 238/2/6 239/2/6
f 236/2/6 228/2/6 240/2/6
f 239/1/6 236/1/6 240/1/6
f 237/2/6 239/2/6 241/2/6
f 229/2/6 237/2/6 241/2/6
f 239/2/6 240/2/6 241/2/6
f 241/2/6 240/2/6 242/2/6
f 242/2/6 240/2/6 243/2/6
f 151/2/6 97/2/6 244/2/6
f 243/2/6 240/2/6 244/2/6
f 208/2/6 202/2/6 244/2/6
f 196/2/6 151/2/6 244/2/6
f 228/2/6 208/2/6 244/2/6
f 202/2/6 196/2/6 244/2/6
f 240/2/6 228/2/6 244/2/6
f 245/3/6 246/3/6 250/3/6
f 247/3/6 248/3/6 251/3/6
f 245/3/6 250/3/6 252/3/6
f 250/3/6 251/3/6 252/3/6
f 248/4/6 249/4/6 253/4/6
f 252/3/6 251/3/6 253/3/6
f 251/3/6 248/3/6 253/3/6
f 253/4/6 249/4/6 254/4/6
