# MagicaVoxel @ Ephtracy

# group
g 4x2 second (2)-2

# material
mtllib 4x2 second (2)-2.mtl
usemtl palette

# normals
vn -1 0 0
vn 1 0 0
vn 0 0 1
vn 0 0 -1
vn 0 -1 0
vn 0 1 0

# texcoords
vt 0.365234 0.5
vt 0.396484 0.5
vt 0.966797 0.5
vt 0.974609 0.5
vt 0.986328 0.5

# verts
v -63 0 63
v -63 0 -63
v -63 3 8
v -63 3 -18
v -63 3 -29
v -63 3 -59
v -63 4 -29
v -63 4 -59
v -63 6 12
v -63 6 11
v -63 6 10
v -63 6 8
v -63 7 12
v -63 7 11
v -63 7 10
v -63 7 8
v -63 8 9
v -63 8 8
v -63 12 -18
v -63 12 -20
v -63 13 9
v -63 13 8
v -63 18 11
v -63 18 10
v -63 19 8
v -63 19 5
v -63 20 5
v -63 20 2
v -63 20 -1
v -63 20 -2
v -63 20 -4
v -63 20 -9
v -63 21 -19
v -63 21 -20
v -63 22 11
v -63 22 10
v -63 22 -1
v -63 22 -2
v -63 22 -9
v -63 22 -18
v -63 23 -18
v -63 23 -19
v -63 24 -3
v -63 24 -4
v -63 24 -5
v -63 24 -6
v -63 24 -9
v -63 24 -15
v -63 26 -1
v -63 26 -3
v -63 26 -5
v -63 26 -6
v -63 26 -9
v -63 26 -15
v -63 27 2
v -63 27 -1
v -63 43 -29
v -63 43 -59
v -63 80 63
v -63 80 -63
v -61 32 63
v -61 32 7
v -61 39 63
v -61 39 28
v -61 39 7
v -61 39 -4
v -61 46 28
v -61 46 17
v -61 46 -4
v -61 46 -14
v -61 53 17
v -61 53 7
v -61 53 -14
v -61 53 -25
v -61 60 7
v -61 60 -4
v -61 60 -25
v -61 60 -36
v -61 67 -4
v -61 67 -14
v -61 67 -36
v -61 67 -61
v -61 74 -14
v -61 74 -25
v -61 80 -25
v -61 80 -61
v -23 0 63
v -23 0 -25
v -23 3 63
v -23 3 -25
v -23 4 63
v -23 4 -25
v -22 4 63
v -22 4 25
v -22 32 63
v -22 32 25
v 24 4 25
v 24 4 4
v 24 8 14
v 24 8 4
v 24 15 25
v 24 15 14
v 61 4 4
v 61 4 -61
v 61 8 14
v 61 8 4
v 61 15 25
v 61 15 14
v 61 22 63
v 61 22 25
v 61 80 63
v 61 80 -61
v -62 0 63
v -62 0 -25
v -62 3 8
v -62 3 -18
v -62 3 -25
v -62 4 -25
v -62 4 -29
v -62 4 -59
v -62 4 -61
v -62 6 12
v -62 6 11
v -62 6 10
v -62 6 8
v -62 7 12
v -62 7 11
v -62 7 10
v -62 7 8
v -62 8 9
v -62 8 8
v -62 12 -18
v -62 12 -20
v -62 13 9
v -62 13 8
v -62 18 11
v -62 18 10
v -62 19 8
v -62 19 5
v -62 20 5
v -62 20 2
v -62 20 -1
v -62 20 -2
v -62 20 -4
v -62 20 -9
v -62 21 -19
v -62 21 -20
v -62 22 11
v -62 22 10
v -62 22 -1
v -62 22 -2
v -62 22 -9
v -62 22 -18
v -62 23 -18
v -62 23 -19
v -62 24 -3
v -62 24 -4
v -62 24 -5
v -62 24 -6
v -62 24 -9
v -62 24 -15
v -62 26 -1
v -62 26 -3
v -62 26 -5
v -62 26 -6
v -62 26 -9
v -62 26 -15
v -62 27 2
v -62 27 -1
v -62 43 -29
v -62 43 -59
v -62 80 63
v -62 80 -61
v -22 32 25
v -22 32 7
v -22 39 28
v -22 39 25
v -22 39 7
v -22 39 -4
v -22 46 28
v -22 46 17
v -22 46 -4
v -22 46 -14
v -22 53 17
v -22 53 7
v -22 53 -14
v -22 53 -25
v -22 60 7
v -22 60 -4
v -22 60 -25
v -22 60 -36
v -22 67 -4
v -22 67 -14
v -22 67 -36
v -22 67 -61
v -22 74 -14
v -22 74 -25
v -22 80 -25
v -22 80 -61
v 10 32 63
v 10 32 25
v 10 39 63
v 10 39 25
v 21 25 63
v 21 25 25
v 21 32 63
v 21 32 25
v 31 22 63
v 31 22 25
v 31 25 63
v 31 25 25
v 63 0 63
v 63 0 -63
v 63 80 63
v 63 80 -63
v -63 0 63
v -63 80 63
v -62 0 63
v -62 80 63
v -61 32 63
v -61 39 63
v -23 0 63
v -23 3 63
v -23 4 63
v -22 3 63
v -22 4 63
v -22 32 63
v 10 32 63
v 10 39 63
v 21 25 63
v 21 32 63
v 31 22 63
v 31 25 63
v 61 3 63
v 61 22 63
v 61 80 63
v 62 0 63
v 62 80 63
v 63 0 63
v 63 80 63
v -61 39 28
v -61 46 28
v -22 39 28
v -22 46 28
v -61 46 17
v -61 53 17
v -22 46 17
v -22 53 17
v -61 53 7
v -61 60 7
v -22 53 7
v -22 60 7
v -61 60 -4
v -61 67 -4
v -22 60 -4
v -22 67 -4
v -61 67 -14
v -61 74 -14
v -22 67 -14
v -22 74 -14
v -62 0 -25
v -62 3 -25
v -62 4 -25
v -61 74 -25
v -61 80 -25
v -23 0 -25
v -23 3 -25
v -23 4 -25
v -22 74 -25
v -22 80 -25
v -63 4 -59
v -63 43 -59
v -62 4 -59
v -62 43 -59
v -62 4 -61
v -62 80 -61
v -61 67 -61
v -61 80 -61
v -22 67 -61
v -22 80 -61
v 61 4 -61
v 61 80 -61
v -22 4 25
v -22 32 25
v -22 39 25
v 10 32 25
v 10 39 25
v 21 25 25
v 21 32 25
v 24 4 25
v 24 15 25
v 31 22 25
v 31 25 25
v 61 15 25
v 61 22 25
v 24 8 14
v 24 15 14
v 61 8 14
v 61 15 14
v -61 32 7
v -61 39 7
v -22 32 7
v -22 39 7
v 24 4 4
v 24 8 4
v 61 4 4
v 61 8 4
v -61 39 -4
v -61 46 -4
v -22 39 -4
v -22 46 -4
v -61 46 -14
v -61 53 -14
v -22 46 -14
v -22 53 -14
v -61 53 -25
v -61 60 -25
v -22 53 -25
v -22 60 -25
v -63 4 -29
v -63 43 -29
v -62 4 -29
v -62 43 -29
v -61 60 -36
v -61 67 -36
v -22 60 -36
v -22 67 -36
v -63 0 -63
v -63 80 -63
v 62 0 -63
v 62 80 -63
v 63 0 -63
v 63 80 -63
v -63 0 63
v -62 0 63
v -23 0 63
v 62 0 63
v 63 0 63
v -22 0 62
v 62 0 62
v -22 0 25
v 24 0 25
v 24 0 4
v 62 0 4
v -62 0 -25
v -23 0 -25
v -63 0 -63
v 62 0 -63
v 63 0 -63
v -61 32 63
v -22 32 63
v -22 32 25
v -61 32 7
v -22 32 7
v -61 39 7
v -22 39 7
v -61 39 -4
v -22 39 -4
v -63 43 -29
v -62 43 -29
v -63 43 -59
v -62 43 -59
v -61 46 -4
v -22 46 -4
v -61 46 -14
v -22 46 -14
v -61 53 -14
v -22 53 -14
v -61 53 -25
v -22 53 -25
v -61 60 -25
v -22 60 -25
v -61 60 -36
v -22 60 -36
v -61 67 -36
v -22 67 -36
v -61 67 -61
v -22 67 -61
v -23 4 63
v -22 4 63
v -22 4 25
v 24 4 25
v 24 4 4
v 61 4 4
v -62 4 -25
v -23 4 -25
v -63 4 -29
v -62 4 -29
v -63 4 -59
v -62 4 -59
v -62 4 -61
v 61 4 -61
v 24 8 14
v 61 8 14
v 24 8 4
v 61 8 4
v 24 15 25
v 61 15 25
v 24 15 14
v 61 15 14
v 31 22 63
v 61 22 63
v 31 22 25
v 61 22 25
v 21 25 63
v 31 25 63
v 21 25 25
v 31 25 25
v 10 32 63
v 21 32 63
v 10 32 25
v 21 32 25
v -61 39 63
v 10 39 63
v -61 39 28
v -22 39 28
v -22 39 25
v 10 39 25
v -61 46 28
v -22 46 28
v -61 46 17
v -22 46 17
v -61 53 17
v -22 53 17
v -61 53 7
v -22 53 7
v -61 60 7
v -22 60 7
v -61 60 -4
v -22 60 -4
v -61 67 -4
v -22 67 -4
v -61 67 -14
v -22 67 -14
v -61 74 -14
v -22 74 -14
v -61 74 -25
v -22 74 -25
v -63 80 63
v -62 80 63
v 61 80 63
v 62 80 63
v 63 80 63
v -61 80 -25
v -22 80 -25
v -62 80 -61
v -61 80 -61
v -22 80 -61
v 61 80 -61
v -63 80 -63
v 62 80 -63
v 63 80 -63

# faces
f 3/3/1 2/3/1 1/3/1
f 4/3/1 2/3/1 3/3/1
f 5/3/1 2/3/1 4/3/1
f 6/3/1 2/3/1 5/3/1
f 7/3/1 5/3/1 4/3/1
f 7/1/1 6/1/1 5/1/1
f 8/3/1 2/3/1 6/3/1
f 8/1/1 6/1/1 7/1/1
f 9/3/1 3/3/1 1/3/1
f 10/3/1 3/3/1 9/3/1
f 11/3/1 3/3/1 10/3/1
f 12/4/1 4/4/1 3/4/1
f 12/3/1 3/3/1 11/3/1
f 13/3/1 9/3/1 1/3/1
f 13/4/1 10/4/1 9/4/1
f 14/3/1 11/3/1 10/3/1
f 14/4/1 10/4/1 13/4/1
f 15/4/1 12/4/1 11/4/1
f 15/3/1 11/3/1 14/3/1
f 16/4/1 4/4/1 12/4/1
f 16/4/1 12/4/1 15/4/1
f 17/3/1 15/3/1 14/3/1
f 17/3/1 14/3/1 13/3/1
f 17/3/1 16/3/1 15/3/1
f 18/4/1 4/4/1 16/4/1
f 18/3/1 16/3/1 17/3/1
f 19/3/1 7/3/1 4/3/1
f 19/4/1 4/4/1 18/4/1
f 19/4/1 18/4/1 17/4/1
f 20/3/1 7/3/1 19/3/1
f 21/3/1 17/3/1 13/3/1
f 21/4/1 19/4/1 17/4/1
f 21/4/1 20/4/1 19/4/1
f 22/4/1 20/4/1 21/4/1
f 23/3/1 21/3/1 13/3/1
f 23/3/1 22/3/1 21/3/1
f 24/3/1 22/3/1 23/3/1
f 25/4/1 20/4/1 22/4/1
f 25/3/1 22/3/1 24/3/1
f 26/4/1 20/4/1 25/4/1
f 27/3/1 26/3/1 25/3/1
f 27/4/1 20/4/1 26/4/1
f 28/4/1 20/4/1 27/4/1
f 29/4/1 20/4/1 28/4/1
f 30/4/1 20/4/1 29/4/1
f 31/4/1 20/4/1 30/4/1
f 32/4/1 20/4/1 31/4/1
f 33/4/1 20/4/1 32/4/1
f 34/3/1 7/3/1 20/3/1
f 34/4/1 20/4/1 33/4/1
f 35/4/1 24/4/1 23/4/1
f 35/3/1 23/3/1 13/3/1
f 36/3/1 25/3/1 24/3/1
f 36/4/1 24/4/1 35/4/1
f 36/3/1 27/3/1 25/3/1
f 36/3/1 28/3/1 27/3/1
f 37/4/1 29/4/1 28/4/1
f 37/3/1 30/3/1 29/3/1
f 38/4/1 31/4/1 30/4/1
f 38/3/1 30/3/1 37/3/1
f 39/4/1 33/4/1 32/4/1
f 39/3/1 32/3/1 31/3/1
f 40/4/1 33/4/1 39/4/1
f 41/3/1 40/3/1 39/3/1
f 41/4/1 33/4/1 40/4/1
f 42/3/1 34/3/1 33/3/1
f 42/4/1 33/4/1 41/4/1
f 43/4/1 31/4/1 38/4/1
f 43/4/1 38/4/1 37/4/1
f 44/3/1 41/3/1 39/3/1
f 44/4/1 31/4/1 43/4/1
f 44/3/1 42/3/1 41/3/1
f 44/3/1 39/3/1 31/3/1
f 45/3/1 42/3/1 44/3/1
f 46/3/1 42/3/1 45/3/1
f 47/3/1 42/3/1 46/3/1
f 48/3/1 42/3/1 47/3/1
f 49/4/1 43/4/1 37/4/1
f 49/4/1 37/4/1 28/4/1
f 50/3/1 44/3/1 43/3/1
f 50/4/1 43/4/1 49/4/1
f 50/3/1 45/3/1 44/3/1
f 51/4/1 46/4/1 45/4/1
f 51/3/1 45/3/1 50/3/1
f 52/3/1 47/3/1 46/3/1
f 52/4/1 46/4/1 51/4/1
f 53/4/1 48/4/1 47/4/1
f 53/3/1 47/3/1 52/3/1
f 54/3/1 42/3/1 48/3/1
f 54/4/1 48/4/1 53/4/1
f 55/3/1 36/3/1 35/3/1
f 55/3/1 28/3/1 36/3/1
f 55/4/1 49/4/1 28/4/1
f 56/3/1 53/3/1 52/3/1
f 56/4/1 49/4/1 55/4/1
f 56/3/1 52/3/1 51/3/1
f 56/3/1 51/3/1 50/3/1
f 56/3/1 50/3/1 49/3/1
f 56/3/1 54/3/1 53/3/1
f 57/3/1 34/3/1 42/3/1
f 57/3/1 54/3/1 56/3/1
f 57/3/1 56/3/1 55/3/1
f 57/3/1 42/3/1 54/3/1
f 57/3/1 7/3/1 34/3/1
f 58/3/1 2/3/1 8/3/1
f 59/3/1 57/3/1 55/3/1
f 59/3/1 58/3/1 57/3/1
f 59/3/1 13/3/1 1/3/1
f 59/3/1 35/3/1 13/3/1
f 59/3/1 55/3/1 35/3/1
f 60/3/1 2/3/1 58/3/1
f 60/3/1 58/3/1 59/3/1
f 63/2/1 62/2/1 61/2/1
f 64/2/1 62/2/1 63/2/1
f 65/2/1 62/2/1 64/2/1
f 67/2/1 66/2/1 65/2/1
f 67/2/1 65/2/1 64/2/1
f 68/2/1 66/2/1 67/2/1
f 69/2/1 66/2/1 68/2/1
f 71/2/1 70/2/1 69/2/1
f 71/2/1 69/2/1 68/2/1
f 72/2/1 70/2/1 71/2/1
f 73/2/1 70/2/1 72/2/1
f 75/2/1 74/2/1 73/2/1
f 75/2/1 73/2/1 72/2/1
f 76/2/1 74/2/1 75/2/1
f 77/2/1 74/2/1 76/2/1
f 79/2/1 78/2/1 77/2/1
f 79/2/1 77/2/1 76/2/1
f 80/2/1 78/2/1 79/2/1
f 81/2/1 78/2/1 80/2/1
f 83/2/1 82/2/1 81/2/1
f 83/2/1 81/2/1 80/2/1
f 84/2/1 82/2/1 83/2/1
f 85/2/1 82/2/1 84/2/1
f 86/2/1 82/2/1 85/2/1
f 89/3/1 88/3/1 87/3/1
f 90/3/1 88/3/1 89/3/1
f 91/1/1 90/1/1 89/1/1
f 92/1/1 90/1/1 91/1/1
f 95/2/1 94/2/1 93/2/1
f 96/2/1 94/2/1 95/2/1
f 99/2/1 98/2/1 97/2/1
f 100/2/1 98/2/1 99/2/1
f 101/2/1 99/2/1 97/2/1
f 102/2/1 99/2/1 101/2/1
f 106/3/1 104/3/1 103/3/1
f 108/3/1 106/3/1 105/3/1
f 110/3/1 108/3/1 107/3/1
f 111/3/1 110/3/1 109/3/1
f 112/3/1 104/3/1 106/3/1
f 112/3/1 110/3/1 111/3/1
f 112/3/1 106/3/1 108/3/1
f 112/3/1 108/3/1 110/3/1
f 113/3/2 114/3/2 115/3/2
f 115/3/2 114/3/2 116/3/2
f 116/3/2 114/3/2 117/3/2
f 116/3/2 117/3/2 118/3/2
f 113/3/2 115/3/2 122/3/2
f 122/3/2 115/3/2 123/3/2
f 123/3/2 115/3/2 124/3/2
f 115/4/2 116/4/2 125/4/2
f 124/3/2 115/3/2 125/3/2
f 113/3/2 122/3/2 126/3/2
f 122/4/2 123/4/2 126/4/2
f 123/3/2 124/3/2 127/3/2
f 126/4/2 123/4/2 127/4/2
f 124/4/2 125/4/2 128/4/2
f 127/3/2 124/3/2 128/3/2
f 125/4/2 116/4/2 129/4/2
f 128/4/2 125/4/2 129/4/2
f 127/3/2 128/3/2 130/3/2
f 126/3/2 127/3/2 130/3/2
f 128/3/2 129/3/2 130/3/2
f 129/4/2 116/4/2 131/4/2
f 130/3/2 129/3/2 131/3/2
f 116/3/2 118/3/2 132/3/2
f 131/4/2 116/4/2 132/4/2
f 130/4/2 131/4/2 132/4/2
f 118/3/2 119/3/2 132/3/2
f 132/3/2 119/3/2 133/3/2
f 126/3/2 130/3/2 134/3/2
f 130/4/2 132/4/2 134/4/2
f 132/4/2 133/4/2 134/4/2
f 134/4/2 133/4/2 135/4/2
f 126/3/2 134/3/2 136/3/2
f 134/3/2 135/3/2 136/3/2
f 136/3/2 135/3/2 137/3/2
f 135/4/2 133/4/2 138/4/2
f 137/3/2 135/3/2 138/3/2
f 138/4/2 133/4/2 139/4/2
f 138/3/2 139/3/2 140/3/2
f 139/4/2 133/4/2 140/4/2
f 140/4/2 133/4/2 141/4/2
f 141/4/2 133/4/2 142/4/2
f 142/4/2 133/4/2 143/4/2
f 143/4/2 133/4/2 144/4/2
f 144/4/2 133/4/2 145/4/2
f 145/4/2 133/4/2 146/4/2
f 133/3/2 119/3/2 147/3/2
f 146/4/2 133/4/2 147/4/2
f 136/4/2 137/4/2 148/4/2
f 126/3/2 136/3/2 148/3/2
f 137/3/2 138/3/2 149/3/2
f 148/4/2 137/4/2 149/4/2
f 138/3/2 140/3/2 149/3/2
f 140/3/2 141/3/2 149/3/2
f 141/4/2 142/4/2 150/4/2
f 142/3/2 143/3/2 150/3/2
f 143/4/2 144/4/2 151/4/2
f 150/3/2 143/3/2 151/3/2
f 145/4/2 146/4/2 152/4/2
f 144/3/2 145/3/2 152/3/2
f 152/4/2 146/4/2 153/4/2
f 152/3/2 153/3/2 154/3/2
f 153/4/2 146/4/2 154/4/2
f 146/3/2 147/3/2 155/3/2
f 154/4/2 146/4/2 155/4/2
f 151/4/2 144/4/2 156/4/2
f 150/4/2 151/4/2 156/4/2
f 152/3/2 154/3/2 157/3/2
f 156/4/2 144/4/2 157/4/2
f 154/3/2 155/3/2 157/3/2
f 144/3/2 152/3/2 157/3/2
f 157/3/2 155/3/2 158/3/2
f 158/3/2 155/3/2 159/3/2
f 159/3/2 155/3/2 160/3/2
f 160/3/2 155/3/2 161/3/2
f 150/4/2 156/4/2 162/4/2
f 141/4/2 150/4/2 162/4/2
f 156/3/2 157/3/2 163/3/2
f 162/4/2 156/4/2 163/4/2
f 157/3/2 158/3/2 163/3/2
f 158/4/2 159/4/2 164/4/2
f 163/3/2 158/3/2 164/3/2
f 159/3/2 160/3/2 165/3/2
f 164/4/2 159/4/2 165/4/2
f 160/4/2 161/4/2 166/4/2
f 165/3/2 160/3/2 166/3/2
f 161/3/2 155/3/2 167/3/2
f 166/4/2 161/4/2 167/4/2
f 148/3/2 149/3/2 168/3/2
f 149/3/2 141/3/2 168/3/2
f 141/4/2 162/4/2 168/4/2
f 165/3/2 166/3/2 169/3/2
f 168/4/2 162/4/2 169/4/2
f 164/3/2 165/3/2 169/3/2
f 163/3/2 164/3/2 169/3/2
f 162/3/2 163/3/2 169/3/2
f 166/3/2 167/3/2 169/3/2
f 155/3/2 147/3/2 170/3/2
f 169/3/2 167/3/2 170/3/2
f 168/3/2 169/3/2 170/3/2
f 167/3/2 155/3/2 170/3/2
f 147/3/2 119/3/2 170/3/2
f 120/3/2 121/3/2 171/3/2
f 168/3/2 170/3/2 172/3/2
f 170/3/2 171/3/2 172/3/2
f 113/3/2 126/3/2 172/3/2
f 126/3/2 148/3/2 172/3/2
f 148/3/2 168/3/2 172/3/2
f 171/3/2 121/3/2 173/3/2
f 172/3/2 171/3/2 173/3/2
f 174/2/2 175/2/2 177/2/2
f 177/2/2 175/2/2 178/2/2
f 176/2/2 177/2/2 180/2/2
f 178/2/2 179/2/2 180/2/2
f 177/2/2 178/2/2 180/2/2
f 180/2/2 179/2/2 181/2/2
f 181/2/2 179/2/2 182/2/2
f 182/2/2 183/2/2 184/2/2
f 181/2/2 182/2/2 184/2/2
f 184/2/2 183/2/2 185/2/2
f 185/2/2 183/2/2 186/2/2
f 186/2/2 187/2/2 188/2/2
f 185/2/2 186/2/2 188/2/2
f 188/2/2 187/2/2 189/2/2
f 189/2/2 187/2/2 190/2/2
f 190/2/2 191/2/2 192/2/2
f 189/2/2 190/2/2 192/2/2
f 192/2/2 191/2/2 193/2/2
f 193/2/2 191/2/2 194/2/2
f 194/2/2 195/2/2 196/2/2
f 193/2/2 194/2/2 196/2/2
f 196/2/2 195/2/2 197/2/2
f 197/2/2 195/2/2 198/2/2
f 198/2/2 195/2/2 199/2/2
f 200/2/2 201/2/2 202/2/2
f 202/2/2 201/2/2 203/2/2
f 204/2/2 205/2/2 206/2/2
f 206/2/2 205/2/2 207/2/2
f 208/2/2 209/2/2 210/2/2
f 210/2/2 209/2/2 211/2/2
f 212/5/2 213/5/2 214/5/2
f 214/5/2 213/5/2 215/5/2
f 218/3/3 217/3/3 216/3/3
f 219/3/3 217/3/3 218/3/3
f 225/3/3 223/3/3 222/3/3
f 225/1/3 224/1/3 223/1/3
f 226/1/3 224/1/3 225/1/3
f 227/2/3 221/2/3 220/2/3
f 228/2/3 226/2/3 225/2/3
f 228/2/3 227/2/3 226/2/3
f 228/2/3 221/2/3 227/2/3
f 229/2/3 221/2/3 228/2/3
f 230/2/3 228/2/3 225/2/3
f 231/2/3 228/2/3 230/2/3
f 232/2/3 230/2/3 225/2/3
f 233/2/3 230/2/3 232/2/3
f 234/3/3 225/3/3 222/3/3
f 234/2/3 232/2/3 225/2/3
f 235/2/3 232/2/3 234/2/3
f 237/3/3 235/3/3 234/3/3
f 237/3/3 236/3/3 235/3/3
f 237/3/3 234/3/3 222/3/3
f 238/3/3 236/3/3 237/3/3
f 239/5/3 238/5/3 237/5/3
f 240/5/3 238/5/3 239/5/3
f 243/2/3 242/2/3 241/2/3
f 244/2/3 242/2/3 243/2/3
f 247/2/3 246/2/3 245/2/3
f 248/2/3 246/2/3 247/2/3
f 251/2/3 250/2/3 249/2/3
f 252/2/3 250/2/3 251/2/3
f 255/2/3 254/2/3 253/2/3
f 256/2/3 254/2/3 255/2/3
f 259/2/3 258/2/3 257/2/3
f 260/2/3 258/2/3 259/2/3
f 266/3/3 262/3/3 261/3/3
f 267/1/3 263/1/3 262/1/3
f 267/3/3 262/3/3 266/3/3
f 268/1/3 263/1/3 267/1/3
f 269/2/3 265/2/3 264/2/3
f 270/2/3 265/2/3 269/2/3
f 273/3/3 272/3/3 271/3/3
f 274/3/3 272/3/3 273/3/3
f 277/3/3 276/3/3 275/3/3
f 278/3/3 276/3/3 277/3/3
f 279/3/3 277/3/3 275/3/3
f 281/3/3 279/3/3 275/3/3
f 281/3/3 280/3/3 279/3/3
f 282/3/3 280/3/3 281/3/3
f 283/2/4 284/2/4 286/2/4
f 284/2/4 285/2/4 286/2/4
f 286/2/4 285/2/4 287/2/4
f 283/2/4 286/2/4 288/2/4
f 288/2/4 286/2/4 289/2/4
f 283/2/4 288/2/4 290/2/4
f 290/2/4 288/2/4 291/2/4
f 291/2/4 288/2/4 292/2/4
f 292/2/4 288/2/4 293/2/4
f 291/2/4 292/2/4 294/2/4
f 294/2/4 292/2/4 295/2/4
f 296/2/4 297/2/4 298/2/4
f 298/2/4 297/2/4 299/2/4
f 300/2/4 301/2/4 302/2/4
f 302/2/4 301/2/4 303/2/4
f 304/2/4 305/2/4 306/2/4
f 306/2/4 305/2/4 307/2/4
f 308/2/4 309/2/4 310/2/4
f 310/2/4 309/2/4 311/2/4
f 312/2/4 313/2/4 314/2/4
f 314/2/4 313/2/4 315/2/4
f 316/2/4 317/2/4 318/2/4
f 318/2/4 317/2/4 319/2/4
f 320/3/4 321/3/4 322/3/4
f 322/3/4 321/3/4 323/3/4
f 324/2/4 325/2/4 326/2/4
f 326/2/4 325/2/4 327/2/4
f 328/3/4 329/3/4 330/3/4
f 330/3/4 329/3/4 331/3/4
f 330/5/4 331/5/4 332/5/4
f 332/5/4 331/5/4 333/5/4
f 339/3/5 337/3/5 336/3/5
f 340/5/5 338/5/5 337/5/5
f 340/3/5 337/3/5 339/3/5
f 341/3/5 339/3/5 336/3/5
f 341/2/5 340/2/5 339/2/5
f 342/2/5 340/2/5 341/2/5
f 343/3/5 342/3/5 341/3/5
f 343/2/5 340/2/5 342/2/5
f 344/5/5 338/5/5 340/5/5
f 344/2/5 340/2/5 343/2/5
f 345/3/5 335/3/5 334/3/5
f 346/3/5 343/3/5 341/3/5
f 346/3/5 341/3/5 336/3/5
f 346/3/5 344/3/5 343/3/5
f 347/3/5 345/3/5 334/3/5
f 347/3/5 346/3/5 345/3/5
f 348/5/5 338/5/5 344/5/5
f 348/3/5 346/3/5 347/3/5
f 348/3/5 344/3/5 346/3/5
f 349/5/5 338/5/5 348/5/5
f 352/2/5 351/2/5 350/2/5
f 353/2/5 352/2/5 350/2/5
f 354/2/5 352/2/5 353/2/5
f 357/2/5 356/2/5 355/2/5
f 358/2/5 356/2/5 357/2/5
f 361/3/5 360/3/5 359/3/5
f 362/3/5 360/3/5 361/3/5
f 365/2/5 364/2/5 363/2/5
f 366/2/5 364/2/5 365/2/5
f 369/2/5 368/2/5 367/2/5
f 370/2/5 368/2/5 369/2/5
f 373/2/5 372/2/5 371/2/5
f 374/2/5 372/2/5 373/2/5
f 377/2/5 376/2/5 375/2/5
f 378/2/5 376/2/5 377/2/5
f 379/1/6 380/1/6 381/1/6
f 381/1/6 382/1/6 383/1/6
f 379/1/6 381/1/6 386/1/6
f 383/1/6 384/1/6 386/1/6
f 381/1/6 383/1/6 386/1/6
f 385/1/6 386/1/6 388/1/6
f 387/1/6 388/1/6 389/1/6
f 388/1/6 386/1/6 390/1/6
f 389/1/6 388/1/6 390/1/6
f 390/1/6 386/1/6 391/1/6
f 386/1/6 384/1/6 392/1/6
f 391/1/6 386/1/6 392/1/6
f 393/2/6 394/2/6 395/2/6
f 395/2/6 394/2/6 396/2/6
f 397/2/6 398/2/6 399/2/6
f 399/2/6 398/2/6 400/2/6
f 401/2/6 402/2/6 403/2/6
f 403/2/6 402/2/6 404/2/6
f 405/2/6 406/2/6 407/2/6
f 407/2/6 406/2/6 408/2/6
f 409/2/6 410/2/6 411/2/6
f 411/2/6 410/2/6 412/2/6
f 413/2/6 414/2/6 415/2/6
f 415/2/6 414/2/6 416/2/6
f 416/2/6 414/2/6 417/2/6
f 417/2/6 414/2/6 418/2/6
f 419/2/6 420/2/6 421/2/6
f 421/2/6 420/2/6 422/2/6
f 423/2/6 424/2/6 425/2/6
f 425/2/6 424/2/6 426/2/6
f 427/2/6 428/2/6 429/2/6
f 429/2/6 428/2/6 430/2/6
f 431/2/6 432/2/6 433/2/6
f 433/2/6 432/2/6 434/2/6
f 435/2/6 436/2/6 437/2/6
f 437/2/6 436/2/6 438/2/6
f 439/3/6 440/3/6 446/3/6
f 444/2/6 445/2/6 447/2/6
f 447/2/6 445/2/6 448/2/6
f 441/3/6 442/3/6 449/3/6
f 439/3/6 446/3/6 450/3/6
f 448/3/6 449/3/6 450/3/6
f 447/3/6 448/3/6 450/3/6
f 446/3/6 447/3/6 450/3/6
f 449/3/6 442/3/6 451/3/6
f 450/3/6 449/3/6 451/3/6
f 442/5/6 443/5/6 451/5/6
f 451/5/6 443/5/6 452/5/6
