# MagicaVoxel @ Ephtracy

# group
g 4x2 fourth (1)-6

# material
mtllib 4x2 fourth (1)-6.mtl
usemtl palette

# normals
vn -1 0 0
vn 1 0 0
vn 0 0 1
vn 0 0 -1
vn 0 -1 0
vn 0 1 0

# texcoords
vt 0.966797 0.5
vt 0.970703 0.5
vt 0.974609 0.5
vt 0.978516 0.5

# verts
v -63 0 63
v -63 0 -63
v -63 2 32
v -63 2 -63
v -63 3 60
v -63 3 33
v -63 3 32
v -63 3 31
v -63 3 -63
v -63 24 63
v -63 24 60
v -63 80 33
v -63 80 31
v 62 3 60
v 62 3 33
v 62 3 31
v 62 3 -63
v 62 24 63
v 62 24 60
v 62 80 63
v 62 80 33
v 62 80 31
v 62 80 -63
v 63 0 63
v 63 0 -63
v 63 80 63
v 63 80 -63
v -63 0 63
v -63 24 63
v -43 21 63
v -43 22 63
v -43 23 63
v -43 24 63
v -42 21 63
v -42 22 63
v -41 23 63
v -41 24 63
v -40 15 63
v -40 24 63
v -38 12 63
v -38 15 63
v -37 16 63
v -37 24 63
v -35 4 63
v -35 12 63
v -35 16 63
v -35 24 63
v -33 2 63
v -33 4 63
v 15 2 63
v 15 6 63
v 17 23 63
v 17 24 63
v 18 3 63
v 18 6 63
v 21 6 63
v 21 9 63
v 21 18 63
v 21 23 63
v 23 4 63
v 23 6 63
v 25 3 63
v 25 4 63
v 28 9 63
v 28 18 63
v 62 24 63
v 62 80 63
v 63 0 63
v 63 80 63
v -63 3 33
v -63 80 33
v 62 3 33
v 62 80 33
v -63 3 60
v -63 24 60
v -33 3 60
v -33 8 60
v -26 8 60
v -26 24 60
v 15 3 60
v 15 18 60
v 15 22 60
v 15 23 60
v 16 3 60
v 17 18 60
v 17 22 60
v 17 23 60
v 17 24 60
v 20 3 60
v 20 13 60
v 31 3 60
v 31 13 60
v 62 3 60
v 62 24 60
v -63 3 31
v -63 80 31
v 62 3 31
v 62 80 31
v -63 0 -63
v -63 2 -63
v -63 3 -63
v -43 2 -63
v -43 3 -63
v 8 2 -63
v 8 3 -63
v 62 2 -63
v 62 3 -63
v 62 80 -63
v 63 0 -63
v 63 80 -63
v -63 0 63
v 63 0 63
v -63 0 -63
v 63 0 -63
v -63 3 60
v -33 3 60
v 15 3 60
v 16 3 60
v 20 3 60
v 31 3 60
v 62 3 60
v 15 3 59
v 16 3 59
v 32 3 57
v 34 3 57
v -39 3 56
v -37 3 56
v 17 3 56
v 20 3 56
v 32 3 56
v 34 3 56
v 15 3 55
v 17 3 55
v 20 3 55
v 33 3 55
v 34 3 55
v -20 3 54
v -6 3 54
v 14 3 54
v 15 3 54
v 33 3 54
v 34 3 54
v -6 3 53
v 11 3 53
v 12 3 53
v 14 3 53
v 17 3 53
v 27 3 53
v -20 3 51
v -14 3 51
v -9 3 51
v -6 3 51
v 14 3 51
v 19 3 51
v -39 3 50
v -37 3 50
v -3 3 50
v 9 3 50
v 14 3 49
v 19 3 49
v 27 3 49
v 31 3 49
v -40 3 47
v -33 3 47
v -9 3 47
v -6 3 47
v -14 3 46
v -9 3 46
v -17 3 45
v -14 3 45
v 11 3 45
v 12 3 45
v -20 3 44
v -17 3 44
v -5 3 44
v -3 3 44
v -40 3 43
v -33 3 43
v -1 3 43
v 9 3 43
v -14 3 42
v -9 3 42
v -5 3 39
v -1 3 39
v -33 3 35
v -20 3 35
v -63 3 33
v 62 3 33
v -63 3 31
v 62 3 31
v -22 3 -48
v -15 3 -48
v -10 3 -48
v -4 3 -48
v 1 3 -49
v 2 3 -49
v -39 3 -50
v -34 3 -50
v -10 3 -50
v -4 3 -50
v -2 3 -50
v 1 3 -50
v 2 3 -50
v -31 3 -51
v -27 3 -51
v -22 3 -51
v -15 3 -51
v -41 3 -53
v -39 3 -53
v -34 3 -53
v -31 3 -53
v -49 3 -54
v -42 3 -54
v -25 3 -55
v -11 3 -55
v -2 3 -55
v 1 3 -55
v -42 3 -56
v -41 3 -56
v -27 3 -56
v -25 3 -56
v -11 3 -56
v 8 3 -56
v -51 3 -60
v -50 3 -60
v -51 3 -61
v -50 3 -61
v -49 3 -61
v -43 3 -61
v -63 3 -63
v -43 3 -63
v 8 3 -63
v 62 3 -63
v -63 24 63
v -43 24 63
v -41 24 63
v -40 24 63
v -37 24 63
v -35 24 63
v 17 24 63
v 62 24 63
v -43 24 62
v -41 24 62
v -40 24 62
v -37 24 62
v -35 24 62
v -26 24 62
v -63 24 60
v -26 24 60
v 17 24 60
v 62 24 60
v 62 80 63
v 63 80 63
v -63 80 33
v 62 80 33
v -63 80 31
v 62 80 31
v 62 80 -63
v 63 80 -63

# faces
f 3/1/1 2/1/1 1/1/1
f 4/1/1 2/1/1 3/1/1
f 5/1/1 3/1/1 1/1/1
f 6/1/1 3/1/1 5/1/1
f 7/3/1 4/3/1 3/3/1
f 7/1/1 3/1/1 6/1/1
f 8/3/1 4/3/1 7/3/1
f 9/3/1 4/3/1 8/3/1
f 10/1/1 5/1/1 1/1/1
f 11/1/1 5/1/1 10/1/1
f 12/1/1 8/1/1 7/1/1
f 12/1/1 7/1/1 6/1/1
f 13/1/1 8/1/1 12/1/1
f 19/1/1 15/1/1 14/1/1
f 20/1/1 19/1/1 18/1/1
f 21/1/1 15/1/1 19/1/1
f 21/1/1 19/1/1 20/1/1
f 22/1/1 17/1/1 16/1/1
f 23/1/1 17/1/1 22/1/1
f 24/1/2 25/1/2 26/1/2
f 26/1/2 25/1/2 27/1/2
f 30/1/3 29/1/3 28/1/3
f 31/1/3 29/1/3 30/1/3
f 32/1/3 29/1/3 31/1/3
f 33/1/3 29/1/3 32/1/3
f 34/1/3 30/1/3 28/1/3
f 34/2/3 31/2/3 30/2/3
f 35/1/3 32/1/3 31/1/3
f 35/2/3 31/2/3 34/2/3
f 36/2/3 33/2/3 32/2/3
f 36/1/3 32/1/3 35/1/3
f 36/1/3 35/1/3 34/1/3
f 37/2/3 33/2/3 36/2/3
f 38/1/3 34/1/3 28/1/3
f 38/1/3 36/1/3 34/1/3
f 38/1/3 37/1/3 36/1/3
f 39/1/3 37/1/3 38/1/3
f 40/1/3 38/1/3 28/1/3
f 41/2/3 39/2/3 38/2/3
f 41/1/3 38/1/3 40/1/3
f 42/2/3 41/2/3 40/2/3
f 42/2/3 39/2/3 41/2/3
f 43/2/3 39/2/3 42/2/3
f 44/1/3 40/1/3 28/1/3
f 45/2/3 42/2/3 40/2/3
f 45/1/3 40/1/3 44/1/3
f 46/1/3 43/1/3 42/1/3
f 46/2/3 42/2/3 45/2/3
f 47/1/3 43/1/3 46/1/3
f 48/1/3 44/1/3 28/1/3
f 49/2/3 45/2/3 44/2/3
f 49/1/3 44/1/3 48/1/3
f 49/2/3 46/2/3 45/2/3
f 49/2/3 47/2/3 46/2/3
f 50/1/3 48/1/3 28/1/3
f 50/2/3 49/2/3 48/2/3
f 51/2/3 47/2/3 49/2/3
f 51/2/3 49/2/3 50/2/3
f 52/2/3 47/2/3 51/2/3
f 53/2/3 47/2/3 52/2/3
f 54/1/3 51/1/3 50/1/3
f 55/2/3 52/2/3 51/2/3
f 55/1/3 51/1/3 54/1/3
f 56/2/3 55/2/3 54/2/3
f 56/2/3 52/2/3 55/2/3
f 57/2/3 52/2/3 56/2/3
f 58/2/3 52/2/3 57/2/3
f 59/1/3 53/1/3 52/1/3
f 59/2/3 52/2/3 58/2/3
f 60/2/3 56/2/3 54/2/3
f 61/1/3 57/1/3 56/1/3
f 61/2/3 56/2/3 60/2/3
f 62/1/3 54/1/3 50/1/3
f 62/2/3 60/2/3 54/2/3
f 63/1/3 61/1/3 60/1/3
f 63/2/3 60/2/3 62/2/3
f 64/1/3 57/1/3 61/1/3
f 64/1/3 61/1/3 63/1/3
f 64/1/3 63/1/3 62/1/3
f 64/2/3 58/2/3 57/2/3
f 65/1/3 59/1/3 58/1/3
f 65/2/3 58/2/3 64/2/3
f 66/1/3 53/1/3 59/1/3
f 66/1/3 59/1/3 65/1/3
f 66/1/3 65/1/3 64/1/3
f 68/1/3 66/1/3 64/1/3
f 68/1/3 67/1/3 66/1/3
f 68/1/3 50/1/3 28/1/3
f 68/1/3 64/1/3 62/1/3
f 68/1/3 62/1/3 50/1/3
f 69/1/3 67/1/3 68/1/3
f 72/1/3 71/1/3 70/1/3
f 73/1/3 71/1/3 72/1/3
f 74/1/4 75/1/4 76/1/4
f 76/1/4 75/1/4 77/1/4
f 76/2/4 77/2/4 78/2/4
f 77/1/4 75/1/4 78/1/4
f 78/1/4 75/1/4 79/1/4
f 76/2/4 78/2/4 80/2/4
f 78/2/4 79/2/4 80/2/4
f 80/2/4 79/2/4 81/2/4
f 81/2/4 79/2/4 82/2/4
f 82/2/4 79/2/4 83/2/4
f 80/1/4 81/1/4 84/1/4
f 81/2/4 82/2/4 85/2/4
f 84/1/4 81/1/4 85/1/4
f 82/1/4 83/1/4 86/1/4
f 85/2/4 82/2/4 86/2/4
f 83/2/4 79/2/4 87/2/4
f 86/1/4 83/1/4 87/1/4
f 87/2/4 79/2/4 88/2/4
f 85/1/4 86/1/4 89/1/4
f 84/1/4 85/1/4 89/1/4
f 87/1/4 88/1/4 89/1/4
f 86/1/4 87/1/4 89/1/4
f 89/1/4 88/1/4 90/1/4
f 89/2/4 90/2/4 91/2/4
f 90/1/4 88/1/4 92/1/4
f 91/2/4 90/2/4 92/2/4
f 91/1/4 92/1/4 93/1/4
f 92/1/4 88/1/4 94/1/4
f 93/1/4 92/1/4 94/1/4
f 95/1/4 96/1/4 97/1/4
f 97/1/4 96/1/4 98/1/4
f 99/1/4 100/1/4 102/1/4
f 100/3/4 101/3/4 102/3/4
f 102/3/4 101/3/4 103/3/4
f 99/1/4 102/1/4 104/1/4
f 102/4/4 103/4/4 104/4/4
f 104/4/4 103/4/4 105/4/4
f 99/1/4 104/1/4 106/1/4
f 104/3/4 105/3/4 106/3/4
f 106/3/4 105/3/4 107/3/4
f 106/1/4 107/1/4 109/1/4
f 107/1/4 108/1/4 109/1/4
f 99/1/4 106/1/4 109/1/4
f 109/1/4 108/1/4 110/1/4
f 113/1/5 112/1/5 111/1/5
f 114/1/5 112/1/5 113/1/5
f 116/2/6 117/2/6 122/2/6
f 117/1/6 118/1/6 122/1/6
f 119/2/6 120/2/6 123/2/6
f 122/1/6 118/1/6 123/1/6
f 118/2/6 119/2/6 123/2/6
f 120/1/6 121/1/6 124/1/6
f 124/1/6 121/1/6 125/1/6
f 115/1/6 116/1/6 126/1/6
f 126/1/6 116/1/6 127/1/6
f 123/2/6 120/2/6 128/2/6
f 122/2/6 123/2/6 128/2/6
f 128/2/6 120/2/6 129/2/6
f 120/1/6 124/1/6 130/1/6
f 124/2/6 125/2/6 130/2/6
f 125/1/6 121/1/6 131/1/6
f 130/2/6 125/2/6 131/2/6
f 116/2/6 122/2/6 132/2/6
f 122/2/6 128/2/6 132/2/6
f 128/1/6 129/1/6 133/1/6
f 132/2/6 128/2/6 133/2/6
f 129/2/6 120/2/6 134/2/6
f 133/1/6 129/1/6 134/1/6
f 130/1/6 131/1/6 135/1/6
f 131/1/6 121/1/6 136/1/6
f 135/1/6 131/1/6 136/1/6
f 116/2/6 132/2/6 137/2/6
f 137/2/6 132/2/6 138/2/6
f 138/2/6 132/2/6 139/2/6
f 132/1/6 133/1/6 140/1/6
f 139/2/6 132/2/6 140/2/6
f 130/1/6 135/1/6 141/1/6
f 135/2/6 136/2/6 141/2/6
f 136/1/6 121/1/6 142/1/6
f 141/2/6 136/2/6 142/2/6
f 138/2/6 139/2/6 143/2/6
f 137/1/6 138/1/6 143/1/6
f 143/2/6 139/2/6 144/2/6
f 144/2/6 139/2/6 145/2/6
f 139/1/6 140/1/6 146/1/6
f 145/2/6 139/2/6 146/2/6
f 140/1/6 133/1/6 147/1/6
f 146/1/6 140/1/6 147/1/6
f 133/2/6 134/2/6 147/2/6
f 134/2/6 120/2/6 148/2/6
f 147/2/6 134/2/6 148/2/6
f 143/1/6 144/1/6 149/1/6
f 116/2/6 137/2/6 149/2/6
f 137/1/6 143/1/6 149/1/6
f 149/1/6 144/1/6 150/1/6
f 150/1/6 144/1/6 151/1/6
f 151/1/6 144/1/6 152/1/6
f 145/1/6 146/1/6 153/1/6
f 146/1/6 147/1/6 153/1/6
f 147/1/6 148/1/6 153/1/6
f 153/1/6 148/1/6 154/1/6
f 126/2/6 127/2/6 155/2/6
f 115/1/6 126/1/6 155/1/6
f 127/1/6 116/1/6 156/1/6
f 155/2/6 127/2/6 156/2/6
f 152/1/6 144/1/6 157/1/6
f 157/1/6 144/1/6 158/1/6
f 153/2/6 154/2/6 159/2/6
f 145/1/6 153/1/6 159/1/6
f 154/1/6 148/1/6 160/1/6
f 159/2/6 154/2/6 160/2/6
f 148/2/6 120/2/6 161/2/6
f 160/1/6 148/1/6 161/1/6
f 120/1/6 130/1/6 162/1/6
f 161/2/6 120/2/6 162/2/6
f 130/1/6 141/1/6 162/1/6
f 141/1/6 142/1/6 162/1/6
f 115/1/6 155/1/6 163/1/6
f 155/1/6 156/1/6 163/1/6
f 156/1/6 116/1/6 164/1/6
f 163/1/6 156/1/6 164/1/6
f 116/2/6 149/2/6 164/2/6
f 149/2/6 150/2/6 164/2/6
f 151/2/6 152/2/6 165/2/6
f 150/1/6 151/1/6 165/1/6
f 152/1/6 157/1/6 166/1/6
f 165/2/6 152/2/6 166/2/6
f 150/1/6 165/1/6 167/1/6
f 164/2/6 150/2/6 167/2/6
f 165/1/6 166/1/6 167/1/6
f 163/2/6 164/2/6 167/2/6
f 167/1/6 166/1/6 168/1/6
f 163/2/6 167/2/6 169/2/6
f 167/2/6 168/2/6 169/2/6
f 169/2/6 168/2/6 170/2/6
f 158/1/6 144/1/6 171/1/6
f 144/2/6 145/2/6 171/2/6
f 160/1/6 161/1/6 172/1/6
f 171/2/6 145/2/6 172/2/6
f 145/1/6 159/1/6 172/1/6
f 159/1/6 160/1/6 172/1/6
f 161/1/6 162/1/6 172/1/6
f 163/2/6 169/2/6 173/2/6
f 169/1/6 170/1/6 174/1/6
f 173/2/6 169/2/6 174/2/6
f 166/1/6 157/1/6 175/1/6
f 168/1/6 166/1/6 175/1/6
f 157/2/6 158/2/6 176/2/6
f 175/1/6 157/1/6 176/1/6
f 115/1/6 163/1/6 177/1/6
f 163/2/6 173/2/6 177/2/6
f 177/2/6 173/2/6 178/2/6
f 176/2/6 158/2/6 179/2/6
f 175/2/6 176/2/6 179/2/6
f 158/1/6 171/1/6 180/1/6
f 179/2/6 158/2/6 180/2/6
f 171/1/6 172/1/6 180/1/6
f 174/1/6 170/1/6 181/1/6
f 170/2/6 168/2/6 181/2/6
f 173/1/6 174/1/6 181/1/6
f 168/1/6 175/1/6 182/1/6
f 181/2/6 168/2/6 182/2/6
f 175/2/6 179/2/6 183/2/6
f 182/1/6 175/1/6 183/1/6
f 181/1/6 182/1/6 183/1/6
f 179/1/6 180/1/6 184/1/6
f 183/2/6 179/2/6 184/2/6
f 177/1/6 178/1/6 185/1/6
f 178/2/6 173/2/6 185/2/6
f 183/1/6 184/1/6 186/1/6
f 185/2/6 173/2/6 186/2/6
f 181/1/6 183/1/6 186/1/6
f 173/1/6 181/1/6 186/1/6
f 177/1/6 185/1/6 187/1/6
f 115/1/6 177/1/6 187/1/6
f 185/1/6 186/1/6 187/1/6
f 184/1/6 180/1/6 188/1/6
f 187/1/6 186/1/6 188/1/6
f 162/1/6 142/1/6 188/1/6
f 180/1/6 172/1/6 188/1/6
f 142/1/6 121/1/6 188/1/6
f 172/1/6 162/1/6 188/1/6
f 186/1/6 184/1/6 188/1/6
f 189/3/6 190/3/6 191/3/6
f 191/3/6 190/3/6 192/3/6
f 192/3/6 190/3/6 193/3/6
f 193/3/6 190/3/6 194/3/6
f 194/3/6 190/3/6 195/3/6
f 195/3/6 190/3/6 196/3/6
f 189/3/6 191/3/6 197/3/6
f 197/3/6 191/3/6 198/3/6
f 192/3/6 193/3/6 199/3/6
f 193/4/6 194/4/6 199/4/6
f 194/3/6 195/3/6 200/3/6
f 199/4/6 194/4/6 200/4/6
f 200/3/6 195/3/6 201/3/6
f 195/4/6 196/4/6 202/4/6
f 201/3/6 195/3/6 202/3/6
f 196/3/6 190/3/6 203/3/6
f 202/4/6 196/4/6 203/4/6
f 198/3/6 191/3/6 204/3/6
f 204/3/6 191/3/6 205/3/6
f 191/4/6 192/4/6 206/4/6
f 205/3/6 191/3/6 206/3/6
f 192/3/6 199/3/6 207/3/6
f 206/4/6 192/4/6 207/4/6
f 200/3/6 201/3/6 207/3/6
f 199/3/6 200/3/6 207/3/6
f 189/3/6 197/3/6 208/3/6
f 197/4/6 198/4/6 209/4/6
f 208/3/6 197/3/6 209/3/6
f 198/3/6 204/3/6 210/3/6
f 209/4/6 198/4/6 210/4/6
f 204/4/6 205/4/6 211/4/6
f 210/3/6 204/3/6 211/3/6
f 189/3/6 208/3/6 212/3/6
f 212/3/6 208/3/6 213/3/6
f 205/3/6 206/3/6 214/3/6
f 206/3/6 207/3/6 214/3/6
f 207/3/6 201/3/6 215/3/6
f 214/3/6 207/3/6 215/3/6
f 201/4/6 202/4/6 216/4/6
f 215/3/6 201/3/6 216/3/6
f 202/3/6 203/3/6 217/3/6
f 216/4/6 202/4/6 217/4/6
f 213/3/6 208/3/6 218/3/6
f 212/4/6 213/4/6 218/4/6
f 209/4/6 210/4/6 219/4/6
f 218/3/6 208/3/6 219/3/6
f 208/4/6 209/4/6 219/4/6
f 210/4/6 211/4/6 219/4/6
f 211/4/6 205/4/6 220/4/6
f 219/4/6 211/4/6 220/4/6
f 205/3/6 214/3/6 220/3/6
f 214/4/6 215/4/6 221/4/6
f 220/3/6 214/3/6 221/3/6
f 216/3/6 217/3/6 222/3/6
f 221/4/6 215/4/6 222/4/6
f 215/3/6 216/3/6 222/3/6
f 203/3/6 190/3/6 223/3/6
f 222/3/6 217/3/6 223/3/6
f 217/3/6 203/3/6 223/3/6
f 189/3/6 212/3/6 224/3/6
f 224/3/6 212/3/6 225/3/6
f 189/3/6 224/3/6 226/3/6
f 224/4/6 225/4/6 226/4/6
f 225/3/6 212/3/6 227/3/6
f 226/4/6 225/4/6 227/4/6
f 219/4/6 220/4/6 228/4/6
f 227/3/6 212/3/6 228/3/6
f 212/4/6 218/4/6 228/4/6
f 221/4/6 222/4/6 228/4/6
f 222/4/6 223/4/6 228/4/6
f 218/4/6 219/4/6 228/4/6
f 220/4/6 221/4/6 228/4/6
f 228/4/6 223/4/6 229/4/6
f 226/3/6 227/3/6 230/3/6
f 189/3/6 226/3/6 230/3/6
f 228/3/6 229/3/6 230/3/6
f 227/3/6 228/3/6 230/3/6
f 229/4/6 223/4/6 231/4/6
f 230/3/6 229/3/6 231/3/6
f 223/3/6 190/3/6 232/3/6
f 231/4/6 223/4/6 232/4/6
f 232/3/6 190/3/6 233/3/6
f 234/1/6 235/1/6 242/1/6
f 235/2/6 236/2/6 242/2/6
f 236/1/6 237/1/6 243/1/6
f 242/2/6 236/2/6 243/2/6
f 237/2/6 238/2/6 244/2/6
f 243/1/6 237/1/6 244/1/6
f 238/1/6 239/1/6 245/1/6
f 244/2/6 238/2/6 245/2/6
f 239/2/6 240/2/6 246/2/6
f 245/1/6 239/1/6 246/1/6
f 246/2/6 240/2/6 247/2/6
f 244/1/6 245/1/6 248/1/6
f 234/1/6 242/1/6 248/1/6
f 246/1/6 247/1/6 248/1/6
f 245/1/6 246/1/6 248/1/6
f 243/1/6 244/1/6 248/1/6
f 242/1/6 243/1/6 248/1/6
f 247/2/6 240/2/6 249/2/6
f 248/1/6 247/1/6 249/1/6
f 240/1/6 241/1/6 250/1/6
f 249/2/6 240/2/6 250/2/6
f 250/1/6 241/1/6 251/1/6
f 252/1/6 253/1/6 255/1/6
f 254/1/6 255/1/6 256/1/6
f 255/1/6 253/1/6 257/1/6
f 256/1/6 255/1/6 257/1/6
f 257/1/6 253/1/6 258/1/6
f 258/1/6 253/1/6 259/1/6
