# MagicaVoxel @ Ephtracy

# group
g 4x2 first (2)-4

# material
mtllib 4x2 first (2)-4.mtl
usemtl palette

# normals
vn -1 0 0
vn 1 0 0
vn 0 0 1
vn 0 0 -1
vn 0 -1 0
vn 0 1 0

# texcoords
vt 0.966797 0.5
vt 0.970703 0.5

# verts
v -63 0 63
v -63 0 -8
v -63 0 -38
v -63 0 -63
v -63 1 -8
v -63 1 -38
v -63 41 -8
v -63 41 -38
v -63 80 63
v -63 80 -63
v -60 1 63
v -60 1 -8
v -60 1 -38
v -60 1 -61
v -60 41 -8
v -60 41 -38
v -60 80 63
v -60 80 -61
v 63 0 63
v 63 0 -61
v 63 0 -63
v 63 1 63
v 63 1 -61
v 63 80 -61
v 63 80 -63
v -63 0 63
v -63 80 63
v -60 0 63
v -60 1 63
v -60 80 63
v 63 0 63
v 63 1 63
v -63 1 -38
v -63 41 -38
v -60 1 -38
v -60 41 -38
v -60 1 -61
v -60 80 -61
v 63 1 -61
v 63 80 -61
v -63 1 -8
v -63 41 -8
v -60 1 -8
v -60 41 -8
v -63 0 -63
v -63 80 -63
v 63 0 -63
v 63 80 -63
v -63 0 63
v -60 0 63
v 63 0 63
v -63 0 -8
v -60 0 -8
v -63 0 -38
v -60 0 -38
v -60 0 -61
v 63 0 -61
v -63 0 -63
v 63 0 -63
v -63 41 -8
v -60 41 -8
v -63 41 -38
v -60 41 -38
v -60 1 63
v 63 1 63
v -63 1 -8
v -60 1 -8
v -63 1 -38
v -60 1 -38
v -60 1 -61
v 63 1 -61
v -63 80 63
v -60 80 63
v -60 80 -61
v 63 80 -61
v -63 80 -63
v 63 80 -63

# faces
f 5/1/1 2/1/1 1/1/1
f 5/2/1 3/2/1 2/2/1
f 6/1/1 4/1/1 3/1/1
f 6/2/1 3/2/1 5/2/1
f 7/1/1 5/1/1 1/1/1
f 8/1/1 4/1/1 6/1/1
f 9/1/1 7/1/1 1/1/1
f 9/1/1 8/1/1 7/1/1
f 10/1/1 4/1/1 8/1/1
f 10/1/1 8/1/1 9/1/1
f 11/1/2 12/1/2 15/1/2
f 13/1/2 14/1/2 16/1/2
f 11/1/2 15/1/2 17/1/2
f 15/1/2 16/1/2 17/1/2
f 16/1/2 14/1/2 18/1/2
f 17/1/2 16/1/2 18/1/2
f 19/2/2 20/2/2 22/2/2
f 20/1/2 21/1/2 23/1/2
f 22/2/2 20/2/2 23/2/2
f 23/1/2 21/1/2 24/1/2
f 24/1/2 21/1/2 25/1/2
f 28/1/3 27/1/3 26/1/3
f 29/1/3 27/1/3 28/1/3
f 30/1/3 27/1/3 29/1/3
f 31/2/3 29/2/3 28/2/3
f 32/2/3 29/2/3 31/2/3
f 35/1/3 34/1/3 33/1/3
f 36/1/3 34/1/3 35/1/3
f 39/1/3 38/1/3 37/1/3
f 40/1/3 38/1/3 39/1/3
f 41/1/4 42/1/4 43/1/4
f 43/1/4 42/1/4 44/1/4
f 45/1/4 46/1/4 47/1/4
f 47/1/4 46/1/4 48/1/4
f 52/1/5 50/1/5 49/1/5
f 53/2/5 51/2/5 50/2/5
f 53/1/5 50/1/5 52/1/5
f 54/2/5 53/2/5 52/2/5
f 55/2/5 51/2/5 53/2/5
f 55/2/5 53/2/5 54/2/5
f 56/1/5 55/1/5 54/1/5
f 56/2/5 51/2/5 55/2/5
f 57/2/5 51/2/5 56/2/5
f 58/1/5 56/1/5 54/1/5
f 58/1/5 57/1/5 56/1/5
f 59/1/5 57/1/5 58/1/5
f 62/1/5 61/1/5 60/1/5
f 63/1/5 61/1/5 62/1/5
f 64/2/6 65/2/6 67/2/6
f 66/2/6 67/2/6 68/2/6
f 67/2/6 65/2/6 69/2/6
f 68/2/6 67/2/6 69/2/6
f 69/2/6 65/2/6 70/2/6
f 70/2/6 65/2/6 71/2/6
f 72/1/6 73/1/6 74/1/6
f 72/1/6 74/1/6 76/1/6
f 74/1/6 75/1/6 76/1/6
f 76/1/6 75/1/6 77/1/6
