# MagicaVoxel @ Ephtracy

# group
g 4x2 first (2)-5

# material
mtllib 4x2 first (2)-5.mtl
usemtl palette

# normals
vn -1 0 0
vn 1 0 0
vn 0 0 1
vn 0 0 -1
vn 0 -1 0
vn 0 1 0

# texcoords
vt 0.962891 0.5
vt 0.966797 0.5
vt 0.970703 0.5

# verts
v -63 0 63
v -63 0 -63
v -63 1 63
v -63 1 8
v -63 1 -2
v -63 24 -7
v -63 24 -59
v -63 51 -7
v -63 51 -59
v -63 80 8
v -63 80 -2
v -63 80 -63
v 3 1 18
v 3 1 8
v 3 1 7
v 3 55 8
v 3 55 7
v 3 80 18
v 3 80 8
v -60 1 5
v -60 1 -63
v -60 23 -6
v -60 23 -60
v -60 24 -6
v -60 24 -7
v -60 24 -59
v -60 24 -60
v -60 51 -7
v -60 51 -59
v -60 80 5
v -60 80 -63
v -56 23 -6
v -56 23 -60
v -56 24 -6
v -56 24 -60
v -53 1 8
v -53 1 7
v -53 55 8
v -53 55 7
v 5 1 7
v 5 1 5
v 5 80 7
v 5 80 5
v 13 1 18
v 13 1 17
v 13 55 18
v 13 55 17
v 14 1 15
v 14 1 7
v 14 80 15
v 14 80 7
v 33 1 17
v 33 1 16
v 33 1 15
v 33 41 17
v 33 41 15
v 63 0 63
v 63 0 16
v 63 0 -63
v 63 1 63
v 63 1 16
v 63 1 -63
v 63 41 17
v 63 41 15
v 63 55 18
v 63 55 17
v 63 80 18
v 63 80 15
v -63 0 63
v -63 1 63
v 63 0 63
v 63 1 63
v 3 1 18
v 3 80 18
v 13 1 18
v 13 55 18
v 13 80 18
v 63 55 18
v 63 80 18
v 13 1 17
v 13 55 17
v 33 1 17
v 33 41 17
v 63 41 17
v 63 55 17
v -63 1 8
v -63 80 8
v -53 1 8
v -53 55 8
v -53 80 8
v 3 55 8
v 3 80 8
v -53 1 7
v -53 55 7
v 3 1 7
v 3 55 7
v -60 23 -6
v -60 24 -6
v -56 23 -6
v -56 24 -6
v -63 24 -59
v -63 51 -59
v -60 24 -59
v -60 51 -59
v 14 1 15
v 14 80 15
v 33 1 15
v 33 41 15
v 63 41 15
v 63 80 15
v 5 1 7
v 5 80 7
v 14 1 7
v 14 80 7
v -60 1 5
v -60 80 5
v 5 1 5
v 5 80 5
v -63 24 -7
v -63 51 -7
v -60 24 -7
v -60 51 -7
v -60 23 -60
v -60 24 -60
v -56 23 -60
v -56 24 -60
v -63 0 -63
v -63 80 -63
v -60 0 -63
v -60 1 -63
v -60 80 -63
v 63 0 -63
v 63 1 -63
v -63 0 63
v 63 0 63
v 33 0 16
v 63 0 16
v 14 0 15
v 33 0 15
v 5 0 7
v 14 0 7
v -60 0 5
v 5 0 5
v -63 0 -63
v -60 0 -63
v 63 0 -63
v -60 23 -6
v -56 23 -6
v -60 23 -60
v -56 23 -60
v 33 41 17
v 63 41 17
v 33 41 15
v 63 41 15
v -63 51 -7
v -60 51 -7
v -63 51 -59
v -60 51 -59
v 13 55 18
v 63 55 18
v 13 55 17
v 63 55 17
v -53 55 8
v 3 55 8
v -53 55 7
v 3 55 7
v -63 1 63
v 63 1 63
v 3 1 18
v 13 1 18
v 13 1 17
v 33 1 17
v 33 1 16
v 63 1 16
v 14 1 15
v 33 1 15
v -63 1 8
v -53 1 8
v 3 1 8
v -53 1 7
v 3 1 7
v 5 1 7
v 14 1 7
v -60 1 5
v 5 1 5
v -60 1 -63
v 63 1 -63
v -60 24 -6
v -56 24 -6
v -63 24 -7
v -60 24 -7
v -63 24 -59
v -60 24 -59
v -60 24 -60
v -56 24 -60
v 3 80 18
v 13 80 18
v 63 80 18
v 4 80 17
v 13 80 17
v 14 80 15
v 63 80 15
v -63 80 8
v -53 80 8
v 3 80 8
v 4 80 8
v -62 80 7
v -53 80 7
v 5 80 7
v 14 80 7
v -60 80 5
v 5 80 5
v -63 80 -2
v -62 80 -2
v -63 80 -63
v -60 80 -63

# faces
f 3/2/1 2/2/1 1/2/1
f 4/2/1 2/2/1 3/2/1
f 5/2/1 2/2/1 4/2/1
f 6/2/1 2/2/1 5/2/1
f 7/2/1 2/2/1 6/2/1
f 8/2/1 6/2/1 5/2/1
f 9/2/1 2/2/1 7/2/1
f 10/1/1 5/1/1 4/1/1
f 11/2/1 9/2/1 8/2/1
f 11/1/1 5/1/1 10/1/1
f 11/2/1 8/2/1 5/2/1
f 12/2/1 2/2/1 9/2/1
f 12/2/1 9/2/1 11/2/1
f 16/1/1 14/1/1 13/1/1
f 16/2/1 15/2/1 14/2/1
f 17/2/1 15/2/1 16/2/1
f 18/1/1 16/1/1 13/1/1
f 19/1/1 16/1/1 18/1/1
f 20/2/2 21/2/2 22/2/2
f 22/2/2 21/2/2 23/2/2
f 20/2/2 22/2/2 24/2/2
f 23/2/2 21/2/2 27/2/2
f 24/2/2 25/2/2 28/2/2
f 26/2/2 27/2/2 29/2/2
f 24/2/2 28/2/2 30/2/2
f 28/2/2 29/2/2 30/2/2
f 20/2/2 24/2/2 30/2/2
f 29/2/2 27/2/2 31/2/2
f 30/2/2 29/2/2 31/2/2
f 27/2/2 21/2/2 31/2/2
f 32/2/2 33/2/2 34/2/2
f 34/2/2 33/2/2 35/2/2
f 36/1/2 37/1/2 38/1/2
f 38/1/2 37/1/2 39/1/2
f 40/2/2 41/2/2 42/2/2
f 42/2/2 41/2/2 43/2/2
f 44/1/2 45/1/2 46/1/2
f 46/1/2 45/1/2 47/1/2
f 48/2/2 49/2/2 50/2/2
f 50/2/2 49/2/2 51/2/2
f 52/2/2 53/2/2 55/2/2
f 53/2/2 54/2/2 55/2/2
f 55/2/2 54/2/2 56/2/2
f 57/2/2 58/2/2 60/2/2
f 58/3/2 59/3/2 61/3/2
f 60/2/2 58/2/2 61/2/2
f 61/3/2 59/3/2 62/3/2
f 63/2/2 64/2/2 66/2/2
f 65/2/2 66/2/2 67/2/2
f 66/2/2 64/2/2 68/2/2
f 67/2/2 66/2/2 68/2/2
f 71/2/3 70/2/3 69/2/3
f 72/2/3 70/2/3 71/2/3
f 75/1/3 74/1/3 73/1/3
f 76/1/3 74/1/3 75/1/3
f 77/1/3 74/1/3 76/1/3
f 78/2/3 77/2/3 76/2/3
f 79/2/3 77/2/3 78/2/3
f 82/2/3 81/2/3 80/2/3
f 83/2/3 81/2/3 82/2/3
f 84/2/3 81/2/3 83/2/3
f 85/2/3 81/2/3 84/2/3
f 88/1/3 87/1/3 86/1/3
f 89/1/3 87/1/3 88/1/3
f 90/1/3 87/1/3 89/1/3
f 91/2/3 90/2/3 89/2/3
f 92/2/3 90/2/3 91/2/3
f 95/2/3 94/2/3 93/2/3
f 96/2/3 94/2/3 95/2/3
f 99/2/3 98/2/3 97/2/3
f 100/2/3 98/2/3 99/2/3
f 103/2/3 102/2/3 101/2/3
f 104/2/3 102/2/3 103/2/3
f 105/2/4 106/2/4 107/2/4
f 107/2/4 106/2/4 108/2/4
f 108/2/4 106/2/4 109/2/4
f 109/2/4 106/2/4 110/2/4
f 111/2/4 112/2/4 113/2/4
f 113/2/4 112/2/4 114/2/4
f 115/2/4 116/2/4 117/2/4
f 117/2/4 116/2/4 118/2/4
f 119/2/4 120/2/4 121/2/4
f 121/2/4 120/2/4 122/2/4
f 123/2/4 124/2/4 125/2/4
f 125/2/4 124/2/4 126/2/4
f 127/2/4 128/2/4 129/2/4
f 129/2/4 128/2/4 130/2/4
f 130/2/4 128/2/4 131/2/4
f 129/3/4 130/3/4 132/3/4
f 132/3/4 130/3/4 133/3/4
f 136/2/5 135/2/5 134/2/5
f 137/2/5 135/2/5 136/2/5
f 138/2/5 136/2/5 134/2/5
f 139/3/5 137/3/5 136/3/5
f 139/2/5 136/2/5 138/2/5
f 140/2/5 138/2/5 134/2/5
f 141/3/5 139/3/5 138/3/5
f 141/2/5 138/2/5 140/2/5
f 142/2/5 140/2/5 134/2/5
f 143/3/5 141/3/5 140/3/5
f 143/2/5 140/2/5 142/2/5
f 144/2/5 142/2/5 134/2/5
f 145/3/5 143/3/5 142/3/5
f 145/2/5 142/2/5 144/2/5
f 146/3/5 137/3/5 139/3/5
f 146/3/5 143/3/5 145/3/5
f 146/3/5 139/3/5 141/3/5
f 146/3/5 141/3/5 143/3/5
f 149/2/5 148/2/5 147/2/5
f 150/2/5 148/2/5 149/2/5
f 153/2/5 152/2/5 151/2/5
f 154/2/5 152/2/5 153/2/5
f 157/2/5 156/2/5 155/2/5
f 158/2/5 156/2/5 157/2/5
f 161/2/5 160/2/5 159/2/5
f 162/2/5 160/2/5 161/2/5
f 165/2/5 164/2/5 163/2/5
f 166/2/5 164/2/5 165/2/5
f 167/2/6 168/2/6 169/2/6
f 169/2/6 168/2/6 170/2/6
f 170/2/6 168/2/6 171/2/6
f 171/2/6 168/2/6 172/2/6
f 172/2/6 168/2/6 173/2/6
f 173/2/6 168/2/6 174/2/6
f 173/3/6 174/3/6 176/3/6
f 167/2/6 169/2/6 177/2/6
f 177/2/6 169/2/6 178/2/6
f 178/2/6 169/2/6 179/2/6
f 178/2/6 179/2/6 180/2/6
f 180/2/6 179/2/6 181/2/6
f 175/3/6 176/3/6 183/3/6
f 182/3/6 183/3/6 185/3/6
f 184/3/6 185/3/6 186/3/6
f 176/3/6 174/3/6 187/3/6
f 186/3/6 185/3/6 187/3/6
f 183/3/6 176/3/6 187/3/6
f 185/3/6 183/3/6 187/3/6
f 188/2/6 189/2/6 191/2/6
f 190/2/6 191/2/6 192/2/6
f 191/2/6 189/2/6 193/2/6
f 192/2/6 191/2/6 193/2/6
f 193/2/6 189/2/6 194/2/6
f 194/2/6 189/2/6 195/2/6
f 196/1/6 197/1/6 199/1/6
f 197/2/6 198/2/6 200/2/6
f 199/1/6 197/1/6 200/1/6
f 199/2/6 200/2/6 201/2/6
f 200/2/6 198/2/6 201/2/6
f 201/2/6 198/2/6 202/2/6
f 196/1/6 199/1/6 205/1/6
f 199/2/6 201/2/6 206/2/6
f 205/1/6 199/1/6 206/1/6
f 203/1/6 204/1/6 207/1/6
f 204/2/6 205/2/6 208/2/6
f 207/1/6 204/1/6 208/1/6
f 205/2/6 206/2/6 208/2/6
f 206/2/6 201/2/6 209/2/6
f 208/2/6 206/2/6 209/2/6
f 209/2/6 201/2/6 210/2/6
f 207/2/6 208/2/6 211/2/6
f 208/2/6 209/2/6 211/2/6
f 211/2/6 209/2/6 212/2/6
f 203/1/6 207/1/6 213/1/6
f 207/2/6 211/2/6 214/2/6
f 213/1/6 207/1/6 214/1/6
f 213/2/6 214/2/6 215/2/6
f 214/2/6 211/2/6 216/2/6
f 215/2/6 214/2/6 216/2/6
