# MagicaVoxel @ Ephtracy

# group
g 4x2 first (2)-0

# material
mtllib 4x2 first (2)-0.mtl
usemtl palette

# normals
vn -1 0 0
vn 1 0 0
vn 0 0 1
vn 0 0 -1
vn 0 -1 0
vn 0 1 0

# texcoords
vt 0.966797 0.5
vt 0.970703 0.5

# verts
v -63 0 63
v -63 0 -61
v -63 0 -63
v -63 1 63
v -63 1 -61
v -63 80 -61
v -63 80 -63
v 63 0 63
v 63 0 -61
v 63 0 -63
v 63 1 63
v 63 1 -61
v 63 80 -61
v 63 80 -63
v -63 0 63
v -63 1 63
v 63 0 63
v 63 1 63
v -63 1 -61
v -63 80 -61
v 63 1 -61
v 63 80 -61
v -63 0 -63
v -63 80 -63
v 63 0 -63
v 63 80 -63
v -63 0 63
v 63 0 63
v -63 0 -61
v 63 0 -61
v -63 0 -63
v 63 0 -63
v -63 1 63
v 63 1 63
v -63 1 -61
v 63 1 -61
v -63 80 -61
v 63 80 -61
v -63 80 -63
v 63 80 -63

# faces
f 4/2/1 2/2/1 1/2/1
f 5/1/1 3/1/1 2/1/1
f 5/2/1 2/2/1 4/2/1
f 6/1/1 3/1/1 5/1/1
f 7/1/1 3/1/1 6/1/1
f 8/2/2 9/2/2 11/2/2
f 9/1/2 10/1/2 12/1/2
f 11/2/2 9/2/2 12/2/2
f 12/1/2 10/1/2 13/1/2
f 13/1/2 10/1/2 14/1/2
f 17/2/3 16/2/3 15/2/3
f 18/2/3 16/2/3 17/2/3
f 21/1/3 20/1/3 19/1/3
f 22/1/3 20/1/3 21/1/3
f 23/1/4 24/1/4 25/1/4
f 25/1/4 24/1/4 26/1/4
f 29/2/5 28/2/5 27/2/5
f 30/2/5 28/2/5 29/2/5
f 31/1/5 30/1/5 29/1/5
f 32/1/5 30/1/5 31/1/5
f 33/2/6 34/2/6 35/2/6
f 35/2/6 34/2/6 36/2/6
f 37/1/6 38/1/6 39/1/6
f 39/1/6 38/1/6 40/1/6
