# MagicaVoxel @ Ephtracy

# group
g 4x2 second (2)-3

# material
mtllib 4x2 second (2)-3.mtl
usemtl palette

# normals
vn -1 0 0
vn 1 0 0
vn 0 0 1
vn 0 0 -1
vn 0 -1 0
vn 0 1 0

# texcoords
vt 0.966797 0.5
vt 0.986328 0.5
vt 0.990234 0.5

# verts
v -63 0 63
v -63 0 -63
v -63 80 63
v -63 80 -63
v 52 3 63
v 52 3 62
v 52 43 63
v 52 43 62
v 62 3 62
v 62 3 -61
v 62 80 62
v 62 80 -61
v -61 3 62
v -61 3 -61
v -61 80 62
v -61 80 -61
v 22 3 63
v 22 3 62
v 22 4 63
v 22 4 62
v 22 43 63
v 22 43 62
v 63 0 63
v 63 0 -63
v 63 80 63
v 63 80 -63
v -63 0 63
v -63 80 63
v -62 0 63
v -62 80 63
v 14 2 63
v 14 4 63
v 22 2 63
v 22 3 63
v 22 4 63
v 22 43 63
v 52 2 63
v 52 3 63
v 52 43 63
v 63 0 63
v 63 80 63
v -61 3 -61
v -61 80 -61
v 62 3 -61
v 62 80 -61
v -61 3 62
v -61 80 62
v 14 3 62
v 14 4 62
v 22 3 62
v 22 4 62
v 22 43 62
v 52 3 62
v 52 43 62
v 62 3 62
v 62 80 62
v -63 0 -63
v -63 80 -63
v -62 0 -63
v -62 80 -63
v 63 0 -63
v 63 80 -63
v -63 0 63
v -62 0 63
v 63 0 63
v -63 0 -63
v -62 0 -63
v 63 0 -63
v 22 43 63
v 52 43 63
v 22 43 62
v 52 43 62
v 22 3 63
v 52 3 63
v -61 3 62
v 14 3 62
v 22 3 62
v 52 3 62
v 62 3 62
v -61 3 -61
v 62 3 -61
v -63 80 63
v -62 80 63
v 63 80 63
v -61 80 62
v 62 80 62
v -61 80 -61
v 62 80 -61
v -63 80 -63
v -62 80 -63
v 63 80 -63

# faces
f 3/2/1 2/2/1 1/2/1
f 4/2/1 2/2/1 3/2/1
f 7/1/1 6/1/1 5/1/1
f 8/1/1 6/1/1 7/1/1
f 11/1/1 10/1/1 9/1/1
f 12/1/1 10/1/1 11/1/1
f 13/1/2 14/1/2 15/1/2
f 15/1/2 14/1/2 16/1/2
f 17/3/2 18/3/2 19/3/2
f 19/3/2 18/3/2 20/3/2
f 19/1/2 20/1/2 21/1/2
f 21/1/2 20/1/2 22/1/2
f 23/1/2 24/1/2 25/1/2
f 25/1/2 24/1/2 26/1/2
f 29/2/3 28/2/3 27/2/3
f 30/2/3 28/2/3 29/2/3
f 31/1/3 30/1/3 29/1/3
f 32/1/3 30/1/3 31/1/3
f 33/1/3 31/1/3 29/1/3
f 33/3/3 32/3/3 31/3/3
f 34/3/3 32/3/3 33/3/3
f 35/1/3 30/1/3 32/1/3
f 35/3/3 32/3/3 34/3/3
f 36/1/3 30/1/3 35/1/3
f 37/2/3 34/2/3 33/2/3
f 37/1/3 33/1/3 29/1/3
f 38/2/3 34/2/3 37/2/3
f 39/1/3 30/1/3 36/1/3
f 40/1/3 38/1/3 37/1/3
f 40/1/3 39/1/3 38/1/3
f 40/1/3 37/1/3 29/1/3
f 41/1/3 30/1/3 39/1/3
f 41/1/3 39/1/3 40/1/3
f 44/1/3 43/1/3 42/1/3
f 45/1/3 43/1/3 44/1/3
f 46/1/4 47/1/4 48/1/4
f 48/1/4 47/1/4 49/1/4
f 48/3/4 49/3/4 50/3/4
f 49/1/4 47/1/4 51/1/4
f 50/3/4 49/3/4 51/3/4
f 51/1/4 47/1/4 52/1/4
f 52/1/4 47/1/4 54/1/4
f 53/1/4 54/1/4 55/1/4
f 54/1/4 47/1/4 56/1/4
f 55/1/4 54/1/4 56/1/4
f 57/2/4 58/2/4 59/2/4
f 59/2/4 58/2/4 60/2/4
f 59/1/4 60/1/4 61/1/4
f 61/1/4 60/1/4 62/1/4
f 66/2/5 64/2/5 63/2/5
f 67/1/5 65/1/5 64/1/5
f 67/2/5 64/2/5 66/2/5
f 68/1/5 65/1/5 67/1/5
f 71/1/5 70/1/5 69/1/5
f 72/1/5 70/1/5 71/1/5
f 73/2/6 74/2/6 77/2/6
f 77/2/6 74/2/6 78/2/6
f 75/2/6 76/2/6 80/2/6
f 78/2/6 79/2/6 80/2/6
f 77/2/6 78/2/6 80/2/6
f 76/2/6 77/2/6 80/2/6
f 80/2/6 79/2/6 81/2/6
f 83/1/6 84/1/6 85/1/6
f 85/1/6 84/1/6 86/1/6
f 83/1/6 85/1/6 87/1/6
f 86/1/6 84/1/6 88/1/6
f 82/2/6 83/2/6 89/2/6
f 87/1/6 88/1/6 90/1/6
f 89/2/6 83/2/6 90/2/6
f 83/1/6 87/1/6 90/1/6
f 88/1/6 84/1/6 91/1/6
f 90/1/6 88/1/6 91/1/6
