# MagicaVoxel @ Ephtracy

# group
g 4x2 second (1)-4

# material
mtllib 4x2 second (1)-4.mtl
usemtl palette

# normals
vn -1 0 0
vn 1 0 0
vn 0 0 1
vn 0 0 -1
vn 0 -1 0
vn 0 1 0

# texcoords
vt 0.966797 0.5
vt 0.974609 0.5
vt 0.982422 0.5
vt 0.986328 0.5

# verts
v -63 0 63
v -63 0 -63
v -63 80 63
v -63 80 -63
v 48 3 33
v 48 3 32
v 48 43 33
v 48 43 32
v -61 3 32
v -61 3 -63
v -61 80 32
v -61 80 -63
v -22 3 60
v -22 3 33
v -22 80 60
v -22 80 33
v -21 24 63
v -21 24 62
v -21 24 60
v -21 80 63
v -21 80 62
v -21 80 60
v 18 3 33
v 18 3 32
v 18 43 33
v 18 43 32
v 63 0 63
v 63 0 -63
v 63 2 32
v 63 2 -63
v 63 3 60
v 63 3 33
v 63 3 32
v 63 3 -63
v 63 24 63
v 63 24 60
v 63 80 33
v 63 80 32
v -63 0 63
v -63 80 63
v -21 0 63
v -21 24 63
v -21 80 63
v 63 0 63
v 63 24 63
v -22 3 33
v -22 80 33
v 18 3 33
v 18 43 33
v 48 3 33
v 48 43 33
v 63 3 33
v 63 80 33
v -22 3 60
v -22 80 60
v -21 24 60
v -21 80 60
v 63 3 60
v 63 24 60
v -61 3 32
v -61 80 32
v 18 3 32
v 18 43 32
v 48 3 32
v 48 43 32
v 63 3 32
v 63 80 32
v -63 0 -63
v -63 80 -63
v -62 0 -63
v -62 80 -63
v -61 2 -63
v -61 3 -63
v -61 80 -63
v 11 2 -63
v 11 3 -63
v 55 2 -63
v 55 3 -63
v 56 2 -63
v 56 3 -63
v 58 2 -63
v 58 3 -63
v 63 0 -63
v 63 2 -63
v 63 3 -63
v -63 0 63
v -21 0 63
v 63 0 63
v -62 0 62
v -21 0 62
v -63 0 -63
v -62 0 -63
v 63 0 -63
v 18 43 33
v 48 43 33
v 18 43 32
v 48 43 32
v -22 3 60
v 63 3 60
v -22 3 33
v 18 3 33
v 48 3 33
v 63 3 33
v -61 3 32
v 18 3 32
v 48 3 32
v 63 3 32
v 30 3 -40
v 37 3 -40
v 25 3 -41
v 29 3 -41
v 39 3 -41
v 40 3 -41
v 20 3 -42
v 22 3 -42
v 25 3 -42
v 29 3 -42
v 30 3 -42
v 37 3 -42
v 47 3 -43
v 49 3 -43
v 15 3 -44
v 16 3 -44
v 18 3 -44
v 20 3 -44
v 22 3 -44
v 23 3 -44
v 25 3 -44
v 44 3 -44
v 47 3 -44
v 10 3 -45
v 12 3 -45
v 21 3 -45
v 23 3 -45
v 25 3 -45
v 39 3 -45
v 40 3 -45
v 43 3 -45
v 47 3 -45
v 49 3 -45
v 12 3 -46
v 15 3 -46
v 16 3 -46
v 18 3 -46
v 43 3 -46
v 44 3 -46
v 47 3 -46
v 52 3 -46
v 10 3 -47
v 13 3 -47
v 54 3 -47
v 55 3 -47
v 20 3 -48
v 21 3 -48
v 54 3 -48
v 55 3 -48
v 6 3 -50
v 13 3 -50
v 52 3 -53
v 54 3 -53
v 54 3 -54
v 55 3 -54
v 55 3 -55
v 58 3 -55
v 2 3 -56
v 6 3 -56
v 10 3 -56
v 11 3 -56
v 55 3 -58
v 56 3 -58
v 55 3 -59
v 56 3 -59
v 55 3 -61
v 56 3 -61
v 2 3 -62
v 10 3 -62
v -61 3 -63
v 11 3 -63
v 55 3 -63
v 56 3 -63
v 58 3 -63
v 63 3 -63
v -21 24 63
v 63 24 63
v -21 24 62
v -21 24 60
v 63 24 60
v -63 80 63
v -21 80 63
v -62 80 62
v -21 80 62
v -22 80 60
v -21 80 60
v -22 80 33
v 63 80 33
v -61 80 32
v 63 80 32
v -63 80 -63
v -62 80 -63
v -61 80 -63

# faces
f 3/4/1 2/4/1 1/4/1
f 4/4/1 2/4/1 3/4/1
f 7/1/1 6/1/1 5/1/1
f 8/1/1 6/1/1 7/1/1
f 9/1/2 10/1/2 11/1/2
f 11/1/2 10/1/2 12/1/2
f 13/1/2 14/1/2 15/1/2
f 15/1/2 14/1/2 16/1/2
f 17/4/2 18/4/2 20/4/2
f 18/1/2 19/1/2 21/1/2
f 20/4/2 18/4/2 21/4/2
f 21/1/2 19/1/2 22/1/2
f 23/1/2 24/1/2 25/1/2
f 25/1/2 24/1/2 26/1/2
f 27/1/2 28/1/2 29/1/2
f 29/1/2 28/1/2 30/1/2
f 27/1/2 29/1/2 31/1/2
f 31/1/2 29/1/2 32/1/2
f 29/2/2 30/2/2 33/2/2
f 32/1/2 29/1/2 33/1/2
f 33/2/2 30/2/2 34/2/2
f 27/1/2 31/1/2 35/1/2
f 35/1/2 31/1/2 36/1/2
f 32/1/2 33/1/2 37/1/2
f 37/1/2 33/1/2 38/1/2
f 41/4/3 40/4/3 39/4/3
f 42/4/3 40/4/3 41/4/3
f 43/4/3 40/4/3 42/4/3
f 44/1/3 42/1/3 41/1/3
f 45/1/3 42/1/3 44/1/3
f 48/1/3 47/1/3 46/1/3
f 49/1/3 47/1/3 48/1/3
f 51/1/3 47/1/3 49/1/3
f 52/1/3 51/1/3 50/1/3
f 53/1/3 47/1/3 51/1/3
f 53/1/3 51/1/3 52/1/3
f 54/1/4 55/1/4 56/1/4
f 56/1/4 55/1/4 57/1/4
f 54/1/4 56/1/4 58/1/4
f 58/1/4 56/1/4 59/1/4
f 60/1/4 61/1/4 62/1/4
f 62/1/4 61/1/4 63/1/4
f 63/1/4 61/1/4 65/1/4
f 64/1/4 65/1/4 66/1/4
f 65/1/4 61/1/4 67/1/4
f 66/1/4 65/1/4 67/1/4
f 68/4/4 69/4/4 70/4/4
f 70/4/4 69/4/4 71/4/4
f 70/1/4 71/1/4 72/1/4
f 72/1/4 71/1/4 73/1/4
f 73/1/4 71/1/4 74/1/4
f 70/1/4 72/1/4 75/1/4
f 72/2/4 73/2/4 75/2/4
f 75/2/4 73/2/4 76/2/4
f 70/1/4 75/1/4 77/1/4
f 75/3/4 76/3/4 77/3/4
f 77/3/4 76/3/4 78/3/4
f 70/1/4 77/1/4 79/1/4
f 77/2/4 78/2/4 79/2/4
f 79/2/4 78/2/4 80/2/4
f 70/1/4 79/1/4 81/1/4
f 79/3/4 80/3/4 81/3/4
f 81/3/4 80/3/4 82/3/4
f 70/1/4 81/1/4 83/1/4
f 81/2/4 82/2/4 84/2/4
f 83/1/4 81/1/4 84/1/4
f 84/2/4 82/2/4 85/2/4
f 89/4/5 87/4/5 86/4/5
f 90/1/5 88/1/5 87/1/5
f 90/4/5 87/4/5 89/4/5
f 91/4/5 89/4/5 86/4/5
f 92/1/5 90/1/5 89/1/5
f 92/4/5 89/4/5 91/4/5
f 93/1/5 88/1/5 90/1/5
f 93/1/5 90/1/5 92/1/5
f 96/1/5 95/1/5 94/1/5
f 97/1/5 95/1/5 96/1/5
f 98/1/6 99/1/6 100/1/6
f 100/1/6 99/1/6 101/1/6
f 101/1/6 99/1/6 102/1/6
f 102/1/6 99/1/6 103/1/6
f 101/2/6 102/2/6 105/2/6
f 105/2/6 102/2/6 106/2/6
f 104/2/6 105/2/6 108/2/6
f 106/2/6 107/2/6 108/2/6
f 105/2/6 106/2/6 108/2/6
f 108/2/6 107/2/6 109/2/6
f 104/2/6 108/2/6 110/2/6
f 110/2/6 108/2/6 111/2/6
f 109/2/6 107/2/6 112/2/6
f 112/2/6 107/2/6 113/2/6
f 104/2/6 110/2/6 114/2/6
f 114/2/6 110/2/6 115/2/6
f 110/3/6 111/3/6 116/3/6
f 115/2/6 110/2/6 116/2/6
f 111/2/6 108/2/6 117/2/6
f 116/3/6 111/3/6 117/3/6
f 108/3/6 109/3/6 118/3/6
f 117/2/6 108/2/6 118/2/6
f 109/2/6 112/2/6 119/2/6
f 118/3/6 109/3/6 119/3/6
f 113/2/6 107/2/6 120/2/6
f 120/2/6 107/2/6 121/2/6
f 104/2/6 114/2/6 122/2/6
f 122/2/6 114/2/6 123/2/6
f 123/2/6 114/2/6 124/2/6
f 114/3/6 115/3/6 125/3/6
f 124/2/6 114/2/6 125/2/6
f 115/2/6 116/2/6 126/2/6
f 125/3/6 115/3/6 126/3/6
f 116/2/6 117/2/6 126/2/6
f 117/2/6 118/2/6 126/2/6
f 118/2/6 119/2/6 126/2/6
f 126/2/6 119/2/6 127/2/6
f 127/2/6 119/2/6 128/2/6
f 113/2/6 120/2/6 129/2/6
f 120/3/6 121/3/6 130/3/6
f 129/2/6 120/2/6 130/2/6
f 104/2/6 122/2/6 131/2/6
f 131/2/6 122/2/6 132/2/6
f 125/2/6 126/2/6 133/2/6
f 126/2/6 127/2/6 133/2/6
f 127/3/6 128/3/6 134/3/6
f 133/2/6 127/2/6 134/2/6
f 128/2/6 119/2/6 135/2/6
f 134/3/6 128/3/6 135/3/6
f 119/2/6 112/2/6 136/2/6
f 135/2/6 119/2/6 136/2/6
f 112/3/6 113/3/6 136/3/6
f 113/2/6 129/2/6 137/2/6
f 136/3/6 113/3/6 137/3/6
f 137/2/6 129/2/6 138/2/6
f 130/3/6 121/3/6 139/3/6
f 129/3/6 130/3/6 139/3/6
f 121/2/6 107/2/6 140/2/6
f 139/3/6 121/3/6 140/3/6
f 132/2/6 122/2/6 141/2/6
f 131/3/6 132/3/6 141/3/6
f 122/3/6 123/3/6 142/3/6
f 141/2/6 122/2/6 142/2/6
f 123/2/6 124/2/6 143/2/6
f 142/3/6 123/3/6 143/3/6
f 124/3/6 125/3/6 144/3/6
f 143/2/6 124/2/6 144/2/6
f 134/3/6 135/3/6 145/3/6
f 138/2/6 129/2/6 145/2/6
f 135/3/6 136/3/6 145/3/6
f 136/3/6 137/3/6 145/3/6
f 137/3/6 138/3/6 145/3/6
f 133/3/6 134/3/6 145/3/6
f 129/3/6 139/3/6 146/3/6
f 145/2/6 129/2/6 146/2/6
f 139/2/6 140/2/6 147/2/6
f 146/3/6 139/3/6 147/3/6
f 140/2/6 107/2/6 148/2/6
f 147/2/6 140/2/6 148/2/6
f 142/3/6 143/3/6 149/3/6
f 131/3/6 141/3/6 149/3/6
f 141/3/6 142/3/6 149/3/6
f 143/3/6 144/3/6 149/3/6
f 104/2/6 131/2/6 149/2/6
f 149/3/6 144/3/6 150/3/6
f 148/2/6 107/2/6 151/2/6
f 151/2/6 107/2/6 152/2/6
f 150/3/6 144/3/6 153/3/6
f 144/3/6 125/3/6 153/3/6
f 125/2/6 133/2/6 153/2/6
f 147/3/6 148/3/6 154/3/6
f 153/2/6 133/2/6 154/2/6
f 146/3/6 147/3/6 154/3/6
f 145/3/6 146/3/6 154/3/6
f 133/3/6 145/3/6 154/3/6
f 151/3/6 152/3/6 155/3/6
f 148/2/6 151/2/6 155/2/6
f 152/2/6 107/2/6 156/2/6
f 155/3/6 152/3/6 156/3/6
f 149/2/6 150/2/6 157/2/6
f 104/2/6 149/2/6 157/2/6
f 150/3/6 153/3/6 158/3/6
f 157/2/6 150/2/6 158/2/6
f 153/3/6 154/3/6 158/3/6
f 148/2/6 155/2/6 159/2/6
f 158/3/6 154/3/6 159/3/6
f 157/3/6 158/3/6 159/3/6
f 155/2/6 156/2/6 159/2/6
f 154/3/6 148/3/6 159/3/6
f 159/2/6 156/2/6 160/2/6
f 159/3/6 160/3/6 161/3/6
f 160/2/6 156/2/6 161/2/6
f 156/2/6 107/2/6 162/2/6
f 161/2/6 156/2/6 162/2/6
f 161/3/6 162/3/6 163/3/6
f 162/2/6 107/2/6 163/2/6
f 163/2/6 107/2/6 164/2/6
f 104/2/6 157/2/6 165/2/6
f 159/3/6 161/3/6 166/3/6
f 165/2/6 157/2/6 166/2/6
f 157/3/6 159/3/6 166/3/6
f 163/3/6 164/3/6 166/3/6
f 161/3/6 163/3/6 166/3/6
f 166/3/6 164/3/6 167/3/6
f 167/3/6 164/3/6 168/3/6
f 168/3/6 164/3/6 169/3/6
f 169/3/6 164/3/6 170/3/6
f 168/3/6 169/3/6 171/3/6
f 169/2/6 170/2/6 171/2/6
f 170/3/6 164/3/6 172/3/6
f 171/2/6 170/2/6 172/2/6
f 168/3/6 171/3/6 173/3/6
f 171/3/6 172/3/6 173/3/6
f 172/3/6 164/3/6 174/3/6
f 173/3/6 172/3/6 174/3/6
f 104/2/6 165/2/6 175/2/6
f 165/3/6 166/3/6 175/3/6
f 166/3/6 167/3/6 175/3/6
f 167/2/6 168/2/6 176/2/6
f 175/3/6 167/3/6 176/3/6
f 104/2/6 175/2/6 177/2/6
f 175/2/6 176/2/6 177/2/6
f 168/3/6 173/3/6 178/3/6
f 177/2/6 176/2/6 178/2/6
f 176/2/6 168/2/6 178/2/6
f 173/2/6 174/2/6 179/2/6
f 178/3/6 173/3/6 179/3/6
f 174/3/6 164/3/6 180/3/6
f 179/2/6 174/2/6 180/2/6
f 164/2/6 107/2/6 181/2/6
f 180/3/6 164/3/6 181/3/6
f 181/2/6 107/2/6 182/2/6
f 183/1/6 184/1/6 185/1/6
f 185/1/6 184/1/6 186/1/6
f 186/1/6 184/1/6 187/1/6
f 188/4/6 189/4/6 190/4/6
f 190/4/6 189/4/6 191/4/6
f 190/1/6 191/1/6 192/1/6
f 192/1/6 191/1/6 193/1/6
f 190/1/6 192/1/6 194/1/6
f 190/1/6 194/1/6 196/1/6
f 194/1/6 195/1/6 196/1/6
f 196/1/6 195/1/6 197/1/6
f 188/4/6 190/4/6 198/4/6
f 190/1/6 196/1/6 199/1/6
f 198/4/6 190/4/6 199/4/6
f 199/1/6 196/1/6 200/1/6
