# MagicaVoxel @ Ephtracy

# group
g 4x2 first (1)-2

# material
mtllib 4x2 first (1)-2.mtl
usemtl palette

# normals
vn -1 0 0
vn 1 0 0
vn 0 0 1
vn 0 0 -1
vn 0 -1 0
vn 0 1 0

# texcoords
vt 0.966797 0.5
vt 0.974609 0.5
vt 0.978516 0.5
vt 0.986328 0.5

# verts
v -63 0 63
v -63 0 -63
v -63 80 63
v -63 80 -63
v -61 1 63
v -61 1 -18
v -61 1 -34
v -61 1 -36
v -61 1 -60
v -61 1 -61
v -61 2 -34
v -61 2 -36
v -61 3 -60
v -61 3 -61
v -61 4 -55
v -61 4 -57
v -61 5 -55
v -61 5 -57
v -61 9 -18
v -61 9 -25
v -61 12 -38
v -61 12 -41
v -61 13 -17
v -61 13 -19
v -61 13 -25
v -61 13 -38
v -61 14 -41
v -61 14 -42
v -61 15 -22
v -61 15 -24
v -61 15 -42
v -61 15 -54
v -61 16 -17
v -61 16 -19
v -61 18 -22
v -61 18 -24
v -61 18 -29
v -61 18 -37
v -61 19 -39
v -61 19 -47
v -61 20 -54
v -61 20 -61
v -61 21 -29
v -61 21 -37
v -61 21 -39
v -61 21 -47
v -61 80 63
v -61 80 -61
v 63 0 63
v 63 0 -63
v 63 1 63
v 63 1 -61
v 63 80 -61
v 63 80 -63
v -63 0 63
v -63 80 63
v -62 0 63
v -62 80 63
v -61 1 63
v -61 80 63
v -50 0 63
v -50 1 63
v -47 0 63
v -47 1 63
v -32 0 63
v -32 1 63
v -29 0 63
v -29 1 63
v -14 0 63
v -14 1 63
v -11 0 63
v -11 1 63
v 4 0 63
v 4 1 63
v 7 0 63
v 7 1 63
v 22 0 63
v 22 1 63
v 25 0 63
v 25 1 63
v 40 0 63
v 40 1 63
v 43 0 63
v 43 1 63
v 58 0 63
v 58 1 63
v 61 0 63
v 61 1 63
v 63 0 63
v 63 1 63
v -61 1 -61
v -61 3 -61
v -61 20 -61
v -61 80 -61
v -57 1 -61
v -57 3 -61
v -56 20 -61
v -56 23 -61
v -52 13 -61
v -52 20 -61
v -50 20 -61
v -50 23 -61
v -49 20 -61
v -49 23 -61
v -47 16 -61
v -47 18 -61
v -47 20 -61
v -47 23 -61
v -45 1 -61
v -45 4 -61
v -44 13 -61
v -44 15 -61
v -44 16 -61
v -44 18 -61
v -43 4 -61
v -43 6 -61
v -43 16 -61
v -43 17 -61
v -38 2 -61
v -38 6 -61
v -37 7 -61
v -37 15 -61
v -37 16 -61
v -37 17 -61
v -33 1 -61
v -32 1 -61
v -32 2 -61
v -32 7 -61
v -29 1 -61
v -14 1 -61
v -11 1 -61
v 4 1 -61
v 7 1 -61
v 22 1 -61
v 25 1 -61
v 40 1 -61
v 43 1 -61
v 58 1 -61
v 61 1 -61
v 63 1 -61
v 63 80 -61
v -63 0 -63
v -63 80 -63
v -62 0 -63
v -62 80 -63
v 63 0 -63
v 63 80 -63
v -63 0 63
v -62 0 63
v -50 0 63
v -47 0 63
v -32 0 63
v -29 0 63
v -14 0 63
v -11 0 63
v 4 0 63
v 7 0 63
v 22 0 63
v 25 0 63
v 40 0 63
v 43 0 63
v 58 0 63
v 61 0 63
v 63 0 63
v -52 0 -3
v -50 0 -3
v -49 0 -3
v -52 0 -5
v -50 0 -5
v -49 0 -5
v -55 0 -6
v -53 0 -6
v -55 0 -8
v -53 0 -8
v -50 0 -8
v -47 0 -8
v -42 0 -8
v -60 0 -10
v -57 0 -10
v -54 0 -10
v -50 0 -10
v -52 0 -12
v -51 0 -12
v -60 0 -13
v -57 0 -13
v -51 0 -13
v -50 0 -13
v -51 0 -15
v -50 0 -15
v -59 0 -16
v -54 0 -16
v -42 0 -16
v -33 0 -16
v -51 0 -17
v -50 0 -17
v -62 0 -18
v -59 0 -18
v -52 0 -18
v -50 0 -18
v -33 0 -20
v -32 0 -20
v -29 0 -20
v -28 0 -20
v -29 0 -22
v -28 0 -22
v -28 0 -30
v -27 0 -30
v -62 0 -34
v -61 0 -34
v -28 0 -35
v -27 0 -35
v -62 0 -36
v -61 0 -36
v -33 0 -37
v -32 0 -37
v -32 0 -38
v -29 0 -38
v -33 0 -40
v -32 0 -40
v -29 0 -40
v -29 0 -46
v -27 0 -46
v -33 0 -49
v -32 0 -49
v -31 0 -49
v -31 0 -50
v -29 0 -50
v -27 0 -50
v -30 0 -51
v -29 0 -51
v -62 0 -55
v -61 0 -55
v -62 0 -57
v -61 0 -57
v -30 0 -57
v -29 0 -57
v -62 0 -60
v -61 0 -60
v -61 0 -61
v -57 0 -61
v -45 0 -61
v -33 0 -61
v -32 0 -61
v -29 0 -61
v -14 0 -61
v -11 0 -61
v 4 0 -61
v 7 0 -61
v 22 0 -61
v 25 0 -61
v 40 0 -61
v 43 0 -61
v 58 0 -61
v 61 0 -61
v -57 0 -62
v -45 0 -62
v -63 0 -63
v -62 0 -63
v 63 0 -63
v -61 1 63
v -50 1 63
v -47 1 63
v -32 1 63
v -29 1 63
v -14 1 63
v -11 1 63
v 4 1 63
v 7 1 63
v 22 1 63
v 25 1 63
v 40 1 63
v 43 1 63
v 58 1 63
v 61 1 63
v 63 1 63
v -52 1 -3
v -50 1 -3
v -49 1 -3
v -52 1 -5
v -50 1 -5
v -49 1 -5
v -55 1 -6
v -53 1 -6
v -55 1 -8
v -53 1 -8
v -50 1 -8
v -47 1 -8
v -42 1 -8
v -60 1 -10
v -57 1 -10
v -54 1 -10
v -50 1 -10
v -52 1 -12
v -51 1 -12
v -60 1 -13
v -57 1 -13
v -51 1 -13
v -50 1 -13
v -51 1 -15
v -50 1 -15
v -59 1 -16
v -54 1 -16
v -42 1 -16
v -33 1 -16
v -51 1 -17
v -50 1 -17
v -61 1 -18
v -59 1 -18
v -52 1 -18
v -50 1 -18
v -33 1 -20
v -32 1 -20
v -29 1 -20
v -28 1 -20
v -29 1 -22
v -28 1 -22
v -28 1 -30
v -27 1 -30
v -61 1 -34
v -28 1 -35
v -27 1 -35
v -61 1 -36
v -33 1 -37
v -32 1 -37
v -32 1 -38
v -29 1 -38
v -33 1 -40
v -32 1 -40
v -29 1 -40
v -29 1 -46
v -27 1 -46
v -33 1 -49
v -32 1 -49
v -31 1 -49
v -31 1 -50
v -29 1 -50
v -27 1 -50
v -30 1 -51
v -29 1 -51
v -30 1 -57
v -29 1 -57
v -61 1 -60
v -61 1 -61
v -57 1 -61
v -45 1 -61
v -33 1 -61
v -32 1 -61
v -29 1 -61
v -14 1 -61
v -11 1 -61
v 4 1 -61
v 7 1 -61
v 22 1 -61
v 25 1 -61
v 40 1 -61
v 43 1 -61
v 58 1 -61
v 61 1 -61
v 63 1 -61
v -63 80 63
v -62 80 63
v -61 80 63
v -61 80 -61
v 63 80 -61
v -63 80 -63
v -62 80 -63
v 63 80 -63

# faces
f 3/4/1 2/4/1 1/4/1
f 4/4/1 2/4/1 3/4/1
f 6/3/2 7/3/2 11/3/2
f 7/1/2 8/1/2 11/1/2
f 8/3/2 9/3/2 12/3/2
f 11/1/2 8/1/2 12/1/2
f 9/1/2 10/1/2 13/1/2
f 12/3/2 9/3/2 13/3/2
f 11/3/2 12/3/2 13/3/2
f 13/1/2 10/1/2 14/1/2
f 11/3/2 13/3/2 15/3/2
f 13/3/2 14/3/2 15/3/2
f 15/3/2 14/3/2 16/3/2
f 11/3/2 15/3/2 17/3/2
f 15/1/2 16/1/2 17/1/2
f 16/3/2 14/3/2 18/3/2
f 17/1/2 16/1/2 18/1/2
f 5/1/2 6/1/2 19/1/2
f 6/3/2 11/3/2 19/3/2
f 17/3/2 18/3/2 19/3/2
f 11/3/2 17/3/2 19/3/2
f 19/3/2 18/3/2 20/3/2
f 20/3/2 18/3/2 21/3/2
f 21/3/2 18/3/2 22/3/2
f 5/1/2 19/1/2 23/1/2
f 19/1/2 20/1/2 23/1/2
f 23/1/2 20/1/2 24/1/2
f 20/3/2 21/3/2 25/3/2
f 24/1/2 20/1/2 25/1/2
f 21/1/2 22/1/2 26/1/2
f 25/3/2 21/3/2 26/3/2
f 22/3/2 18/3/2 27/3/2
f 26/1/2 22/1/2 27/1/2
f 25/1/2 26/1/2 27/1/2
f 24/1/2 25/1/2 27/1/2
f 27/3/2 18/3/2 28/3/2
f 24/1/2 27/1/2 29/1/2
f 27/1/2 28/1/2 29/1/2
f 29/1/2 28/1/2 30/1/2
f 28/3/2 18/3/2 31/3/2
f 30/1/2 28/1/2 31/1/2
f 31/3/2 18/3/2 32/3/2
f 5/1/2 23/1/2 33/1/2
f 23/3/2 24/3/2 33/3/2
f 24/1/2 29/1/2 34/1/2
f 33/3/2 24/3/2 34/3/2
f 29/3/2 30/3/2 35/3/2
f 34/1/2 29/1/2 35/1/2
f 33/1/2 34/1/2 35/1/2
f 31/1/2 32/1/2 36/1/2
f 35/3/2 30/3/2 36/3/2
f 30/1/2 31/1/2 36/1/2
f 36/1/2 32/1/2 37/1/2
f 37/1/2 32/1/2 38/1/2
f 38/1/2 32/1/2 39/1/2
f 39/1/2 32/1/2 40/1/2
f 32/3/2 18/3/2 41/3/2
f 40/1/2 32/1/2 41/1/2
f 18/3/2 14/3/2 42/3/2
f 41/3/2 18/3/2 42/3/2
f 35/1/2 36/1/2 43/1/2
f 36/1/2 37/1/2 43/1/2
f 37/3/2 38/3/2 43/3/2
f 38/1/2 39/1/2 44/1/2
f 43/3/2 38/3/2 44/3/2
f 39/3/2 40/3/2 45/3/2
f 44/1/2 39/1/2 45/1/2
f 40/1/2 41/1/2 46/1/2
f 45/3/2 40/3/2 46/3/2
f 41/1/2 42/1/2 46/1/2
f 44/1/2 45/1/2 47/1/2
f 43/1/2 44/1/2 47/1/2
f 45/1/2 46/1/2 47/1/2
f 35/1/2 43/1/2 47/1/2
f 33/1/2 35/1/2 47/1/2
f 5/1/2 33/1/2 47/1/2
f 46/1/2 42/1/2 48/1/2
f 47/1/2 46/1/2 48/1/2
f 49/1/2 50/1/2 51/1/2
f 51/1/2 50/1/2 52/1/2
f 52/1/2 50/1/2 53/1/2
f 53/1/2 50/1/2 54/1/2
f 57/4/3 56/4/3 55/4/3
f 58/4/3 56/4/3 57/4/3
f 59/1/3 58/1/3 57/1/3
f 60/1/3 58/1/3 59/1/3
f 61/1/3 59/1/3 57/1/3
f 62/1/3 59/1/3 61/1/3
f 63/2/3 62/2/3 61/2/3
f 64/2/3 62/2/3 63/2/3
f 65/1/3 64/1/3 63/1/3
f 66/1/3 64/1/3 65/1/3
f 67/2/3 66/2/3 65/2/3
f 68/2/3 66/2/3 67/2/3
f 69/1/3 68/1/3 67/1/3
f 70/1/3 68/1/3 69/1/3
f 71/2/3 70/2/3 69/2/3
f 72/2/3 70/2/3 71/2/3
f 73/1/3 72/1/3 71/1/3
f 74/1/3 72/1/3 73/1/3
f 75/2/3 74/2/3 73/2/3
f 76/2/3 74/2/3 75/2/3
f 77/1/3 76/1/3 75/1/3
f 78/1/3 76/1/3 77/1/3
f 79/2/3 78/2/3 77/2/3
f 80/2/3 78/2/3 79/2/3
f 81/1/3 80/1/3 79/1/3
f 82/1/3 80/1/3 81/1/3
f 83/2/3 82/2/3 81/2/3
f 84/2/3 82/2/3 83/2/3
f 85/1/3 84/1/3 83/1/3
f 86/1/3 84/1/3 85/1/3
f 87/2/3 86/2/3 85/2/3
f 88/2/3 86/2/3 87/2/3
f 89/1/3 88/1/3 87/1/3
f 90/1/3 88/1/3 89/1/3
f 95/1/3 92/1/3 91/1/3
f 96/3/3 93/3/3 92/3/3
f 96/1/3 92/1/3 95/1/3
f 97/1/3 94/1/3 93/1/3
f 97/3/3 93/3/3 96/3/3
f 97/3/3 96/3/3 95/3/3
f 98/1/3 94/1/3 97/1/3
f 99/3/3 97/3/3 95/3/3
f 99/3/3 98/3/3 97/3/3
f 100/3/3 98/3/3 99/3/3
f 101/1/3 100/1/3 99/1/3
f 101/3/3 98/3/3 100/3/3
f 102/1/3 94/1/3 98/1/3
f 102/3/3 98/3/3 101/3/3
f 103/1/3 101/1/3 99/1/3
f 103/1/3 102/1/3 101/1/3
f 104/1/3 94/1/3 102/1/3
f 104/1/3 102/1/3 103/1/3
f 105/1/3 103/1/3 99/1/3
f 106/1/3 103/1/3 105/1/3
f 107/3/3 104/3/3 103/3/3
f 107/1/3 103/1/3 106/1/3
f 108/1/3 94/1/3 104/1/3
f 108/3/3 104/3/3 107/3/3
f 109/3/3 99/3/3 95/3/3
f 110/3/3 99/3/3 109/3/3
f 111/1/3 105/1/3 99/1/3
f 111/3/3 99/3/3 110/3/3
f 112/1/3 105/1/3 111/1/3
f 113/3/3 106/3/3 105/3/3
f 113/1/3 105/1/3 112/1/3
f 114/1/3 107/1/3 106/1/3
f 114/3/3 106/3/3 113/3/3
f 114/1/3 108/1/3 107/1/3
f 115/3/3 112/3/3 111/3/3
f 115/1/3 110/1/3 109/1/3
f 115/3/3 111/3/3 110/3/3
f 116/3/3 112/3/3 115/3/3
f 117/1/3 113/1/3 112/1/3
f 117/1/3 114/1/3 113/1/3
f 118/1/3 114/1/3 117/1/3
f 119/1/3 116/1/3 115/1/3
f 119/1/3 115/1/3 109/1/3
f 120/3/3 112/3/3 116/3/3
f 120/1/3 116/1/3 119/1/3
f 121/3/3 120/3/3 119/3/3
f 121/3/3 112/3/3 120/3/3
f 122/1/3 117/1/3 112/1/3
f 122/3/3 112/3/3 121/3/3
f 123/3/3 118/3/3 117/3/3
f 123/1/3 117/1/3 122/1/3
f 124/1/3 114/1/3 118/1/3
f 124/3/3 118/3/3 123/3/3
f 125/1/3 119/1/3 109/1/3
f 126/1/3 119/1/3 125/1/3
f 127/3/3 121/3/3 119/3/3
f 127/1/3 119/1/3 126/1/3
f 128/1/3 123/1/3 122/1/3
f 128/3/3 121/3/3 127/3/3
f 128/1/3 122/1/3 121/1/3
f 128/1/3 124/1/3 123/1/3
f 129/1/3 127/1/3 126/1/3
f 129/1/3 128/1/3 127/1/3
f 130/1/3 128/1/3 129/1/3
f 131/1/3 128/1/3 130/1/3
f 132/1/3 128/1/3 131/1/3
f 133/1/3 128/1/3 132/1/3
f 134/1/3 128/1/3 133/1/3
f 135/1/3 128/1/3 134/1/3
f 136/1/3 128/1/3 135/1/3
f 137/1/3 128/1/3 136/1/3
f 138/1/3 128/1/3 137/1/3
f 139/1/3 128/1/3 138/1/3
f 140/1/3 128/1/3 139/1/3
f 141/1/3 114/1/3 124/1/3
f 141/1/3 128/1/3 140/1/3
f 141/1/3 94/1/3 108/1/3
f 141/1/3 108/1/3 114/1/3
f 141/1/3 124/1/3 128/1/3
f 142/4/4 143/4/4 144/4/4
f 144/4/4 143/4/4 145/4/4
f 144/1/4 145/1/4 146/1/4
f 146/1/4 145/1/4 147/1/4
f 165/1/5 150/1/5 149/1/5
f 166/2/5 151/2/5 150/2/5
f 166/1/5 150/1/5 165/1/5
f 167/2/5 151/2/5 166/2/5
f 168/1/5 165/1/5 149/1/5
f 168/3/5 166/3/5 165/3/5
f 168/3/5 167/3/5 166/3/5
f 169/3/5 167/3/5 168/3/5
f 170/2/5 151/2/5 167/2/5
f 170/3/5 167/3/5 169/3/5
f 171/1/5 169/1/5 168/1/5
f 171/1/5 168/1/5 149/1/5
f 172/1/5 169/1/5 171/1/5
f 173/1/5 171/1/5 149/1/5
f 173/3/5 172/3/5 171/3/5
f 174/1/5 169/1/5 172/1/5
f 174/3/5 172/3/5 173/3/5
f 175/2/5 170/2/5 169/2/5
f 175/1/5 169/1/5 174/1/5
f 176/2/5 151/2/5 170/2/5
f 176/2/5 170/2/5 175/2/5
f 176/1/5 152/1/5 151/1/5
f 177/1/5 152/1/5 176/1/5
f 178/1/5 175/1/5 174/1/5
f 178/1/5 173/1/5 149/1/5
f 178/1/5 174/1/5 173/1/5
f 179/1/5 175/1/5 178/1/5
f 180/1/5 175/1/5 179/1/5
f 181/3/5 177/3/5 176/3/5
f 181/1/5 175/1/5 180/1/5
f 181/3/5 176/3/5 175/3/5
f 182/3/5 181/3/5 180/3/5
f 183/3/5 181/3/5 182/3/5
f 184/3/5 179/3/5 178/3/5
f 184/1/5 178/1/5 149/1/5
f 185/1/5 180/1/5 179/1/5
f 185/3/5 179/3/5 184/3/5
f 186/3/5 181/3/5 183/3/5
f 186/1/5 183/1/5 182/1/5
f 187/3/5 177/3/5 181/3/5
f 187/3/5 181/3/5 186/3/5
f 188/1/5 186/1/5 182/1/5
f 188/1/5 187/1/5 186/1/5
f 189/3/5 177/3/5 187/3/5
f 189/1/5 187/1/5 188/1/5
f 190/1/5 185/1/5 184/1/5
f 191/1/5 180/1/5 185/1/5
f 191/1/5 185/1/5 190/1/5
f 191/3/5 182/3/5 180/3/5
f 192/1/5 152/1/5 177/1/5
f 192/3/5 177/3/5 189/3/5
f 192/3/5 189/3/5 188/3/5
f 193/1/5 152/1/5 192/1/5
f 194/1/5 188/1/5 182/1/5
f 194/3/5 192/3/5 188/3/5
f 194/3/5 193/3/5 192/3/5
f 195/3/5 193/3/5 194/3/5
f 196/4/5 149/4/5 148/4/5
f 196/1/5 184/1/5 149/1/5
f 196/1/5 190/1/5 184/1/5
f 197/3/5 191/3/5 190/3/5
f 197/1/5 190/1/5 196/1/5
f 198/3/5 182/3/5 191/3/5
f 198/3/5 191/3/5 197/3/5
f 198/1/5 195/1/5 194/1/5
f 198/1/5 194/1/5 182/1/5
f 199/3/5 193/3/5 195/3/5
f 199/1/5 195/1/5 198/1/5
f 200/3/5 198/3/5 197/3/5
f 200/3/5 193/3/5 199/3/5
f 200/3/5 199/3/5 198/3/5
f 200/3/5 197/3/5 196/3/5
f 200/1/5 152/1/5 193/1/5
f 201/2/5 153/2/5 152/2/5
f 201/1/5 152/1/5 200/1/5
f 202/1/5 154/1/5 153/1/5
f 202/2/5 153/2/5 201/2/5
f 203/1/5 154/1/5 202/1/5
f 204/3/5 201/3/5 200/3/5
f 204/3/5 202/3/5 201/3/5
f 204/3/5 203/3/5 202/3/5
f 205/1/5 154/1/5 203/1/5
f 205/3/5 203/3/5 204/3/5
f 206/1/5 205/1/5 204/1/5
f 206/1/5 154/1/5 205/1/5
f 207/1/5 154/1/5 206/1/5
f 208/4/5 196/4/5 148/4/5
f 208/3/5 200/3/5 196/3/5
f 208/3/5 204/3/5 200/3/5
f 209/3/5 204/3/5 208/3/5
f 210/3/5 207/3/5 206/3/5
f 210/1/5 206/1/5 204/1/5
f 211/1/5 154/1/5 207/1/5
f 211/3/5 207/3/5 210/3/5
f 212/1/5 209/1/5 208/1/5
f 212/4/5 208/4/5 148/4/5
f 213/3/5 204/3/5 209/3/5
f 213/1/5 209/1/5 212/1/5
f 214/3/5 213/3/5 212/3/5
f 214/3/5 204/3/5 213/3/5
f 215/3/5 204/3/5 214/3/5
f 216/1/5 215/1/5 214/1/5
f 216/3/5 204/3/5 215/3/5
f 217/1/5 210/1/5 204/1/5
f 217/3/5 204/3/5 216/3/5
f 217/1/5 211/1/5 210/1/5
f 218/1/5 216/1/5 214/1/5
f 218/3/5 214/3/5 212/3/5
f 219/2/5 217/2/5 216/2/5
f 219/1/5 216/1/5 218/1/5
f 220/1/5 211/1/5 217/1/5
f 220/2/5 217/2/5 219/2/5
f 221/3/5 219/3/5 218/3/5
f 221/1/5 211/1/5 220/1/5
f 221/3/5 220/3/5 219/3/5
f 222/1/5 154/1/5 211/1/5
f 222/1/5 211/1/5 221/1/5
f 223/3/5 218/3/5 212/3/5
f 223/3/5 221/3/5 218/3/5
f 223/3/5 222/3/5 221/3/5
f 224/3/5 222/3/5 223/3/5
f 225/3/5 222/3/5 224/3/5
f 226/2/5 225/2/5 224/2/5
f 226/3/5 222/3/5 225/3/5
f 227/3/5 222/3/5 226/3/5
f 228/1/5 154/1/5 222/1/5
f 228/3/5 222/3/5 227/3/5
f 229/2/5 227/2/5 226/2/5
f 230/1/5 228/1/5 227/1/5
f 230/2/5 227/2/5 229/2/5
f 231/4/5 212/4/5 148/4/5
f 231/3/5 223/3/5 212/3/5
f 232/3/5 223/3/5 231/3/5
f 233/4/5 231/4/5 148/4/5
f 233/1/5 232/1/5 231/1/5
f 234/3/5 223/3/5 232/3/5
f 234/1/5 232/1/5 233/1/5
f 235/3/5 230/3/5 229/3/5
f 235/2/5 229/2/5 226/2/5
f 236/1/5 228/1/5 230/1/5
f 236/3/5 230/3/5 235/3/5
f 237/3/5 234/3/5 233/3/5
f 237/4/5 233/4/5 148/4/5
f 238/3/5 223/3/5 234/3/5
f 238/3/5 234/3/5 237/3/5
f 239/1/5 238/1/5 237/1/5
f 239/3/5 223/3/5 238/3/5
f 240/3/5 223/3/5 239/3/5
f 241/3/5 223/3/5 240/3/5
f 242/1/5 224/1/5 223/1/5
f 242/3/5 223/3/5 241/3/5
f 243/2/5 235/2/5 226/2/5
f 243/1/5 224/1/5 242/1/5
f 243/2/5 226/2/5 224/2/5
f 243/2/5 236/2/5 235/2/5
f 244/1/5 228/1/5 236/1/5
f 244/2/5 236/2/5 243/2/5
f 245/1/5 154/1/5 228/1/5
f 245/1/5 228/1/5 244/1/5
f 245/2/5 155/2/5 154/2/5
f 246/1/5 156/1/5 155/1/5
f 246/2/5 155/2/5 245/2/5
f 247/2/5 157/2/5 156/2/5
f 247/1/5 156/1/5 246/1/5
f 248/1/5 158/1/5 157/1/5
f 248/2/5 157/2/5 247/2/5
f 249/2/5 159/2/5 158/2/5
f 249/1/5 158/1/5 248/1/5
f 250/1/5 160/1/5 159/1/5
f 250/2/5 159/2/5 249/2/5
f 251/2/5 161/2/5 160/2/5
f 251/1/5 160/1/5 250/1/5
f 252/1/5 162/1/5 161/1/5
f 252/2/5 161/2/5 251/2/5
f 253/2/5 163/2/5 162/2/5
f 253/1/5 162/1/5 252/1/5
f 254/1/5 164/1/5 163/1/5
f 254/2/5 163/2/5 253/2/5
f 255/3/5 241/3/5 240/3/5
f 255/1/5 240/1/5 239/1/5
f 256/1/5 244/1/5 243/1/5
f 256/3/5 241/3/5 255/3/5
f 256/1/5 253/1/5 252/1/5
f 256/1/5 243/1/5 242/1/5
f 256/1/5 254/1/5 253/1/5
f 256/1/5 252/1/5 251/1/5
f 256/1/5 251/1/5 250/1/5
f 256/1/5 249/1/5 248/1/5
f 256/1/5 248/1/5 247/1/5
f 256/1/5 247/1/5 246/1/5
f 256/1/5 246/1/5 245/1/5
f 256/1/5 245/1/5 244/1/5
f 256/1/5 242/1/5 241/1/5
f 256/1/5 250/1/5 249/1/5
f 257/4/5 237/4/5 148/4/5
f 258/1/5 255/1/5 239/1/5
f 258/4/5 237/4/5 257/4/5
f 258/1/5 239/1/5 237/1/5
f 258/1/5 256/1/5 255/1/5
f 259/1/5 164/1/5 254/1/5
f 259/1/5 256/1/5 258/1/5
f 259/1/5 254/1/5 256/1/5
f 260/1/6 261/1/6 276/1/6
f 261/2/6 262/2/6 277/2/6
f 276/1/6 261/1/6 277/1/6
f 277/2/6 262/2/6 278/2/6
f 260/1/6 276/1/6 279/1/6
f 276/3/6 277/3/6 279/3/6
f 277/3/6 278/3/6 279/3/6
f 279/3/6 278/3/6 280/3/6
f 278/2/6 262/2/6 281/2/6
f 280/3/6 278/3/6 281/3/6
f 279/1/6 280/1/6 282/1/6
f 260/1/6 279/1/6 282/1/6
f 282/1/6 280/1/6 283/1/6
f 260/1/6 282/1/6 284/1/6
f 282/3/6 283/3/6 284/3/6
f 283/1/6 280/1/6 285/1/6
f 284/3/6 283/3/6 285/3/6
f 280/2/6 281/2/6 286/2/6
f 285/1/6 280/1/6 286/1/6
f 281/2/6 262/2/6 287/2/6
f 286/2/6 281/2/6 287/2/6
f 262/1/6 263/1/6 287/1/6
f 287/1/6 263/1/6 288/1/6
f 285/1/6 286/1/6 289/1/6
f 260/1/6 284/1/6 289/1/6
f 284/1/6 285/1/6 289/1/6
f 289/1/6 286/1/6 290/1/6
f 290/1/6 286/1/6 291/1/6
f 287/3/6 288/3/6 292/3/6
f 291/1/6 286/1/6 292/1/6
f 286/3/6 287/3/6 292/3/6
f 291/3/6 292/3/6 293/3/6
f 293/3/6 292/3/6 294/3/6
f 289/3/6 290/3/6 295/3/6
f 260/1/6 289/1/6 295/1/6
f 290/1/6 291/1/6 296/1/6
f 295/3/6 290/3/6 296/3/6
f 294/3/6 292/3/6 297/3/6
f 293/1/6 294/1/6 297/1/6
f 292/3/6 288/3/6 298/3/6
f 297/3/6 292/3/6 298/3/6
f 293/1/6 297/1/6 299/1/6
f 297/1/6 298/1/6 299/1/6
f 298/3/6 288/3/6 300/3/6
f 299/1/6 298/1/6 300/1/6
f 295/1/6 296/1/6 301/1/6
f 296/1/6 291/1/6 302/1/6
f 301/1/6 296/1/6 302/1/6
f 291/3/6 293/3/6 302/3/6
f 288/1/6 263/1/6 303/1/6
f 300/3/6 288/3/6 303/3/6
f 299/3/6 300/3/6 303/3/6
f 303/1/6 263/1/6 304/1/6
f 293/1/6 299/1/6 305/1/6
f 299/3/6 303/3/6 305/3/6
f 303/3/6 304/3/6 305/3/6
f 305/3/6 304/3/6 306/3/6
f 260/1/6 295/1/6 307/1/6
f 295/1/6 301/1/6 307/1/6
f 301/3/6 302/3/6 308/3/6
f 307/1/6 301/1/6 308/1/6
f 302/3/6 293/3/6 309/3/6
f 308/3/6 302/3/6 309/3/6
f 305/1/6 306/1/6 309/1/6
f 293/1/6 305/1/6 309/1/6
f 306/3/6 304/3/6 310/3/6
f 309/1/6 306/1/6 310/1/6
f 307/3/6 308/3/6 311/3/6
f 310/3/6 304/3/6 311/3/6
f 309/3/6 310/3/6 311/3/6
f 308/3/6 309/3/6 311/3/6
f 304/1/6 263/1/6 311/1/6
f 263/2/6 264/2/6 312/2/6
f 311/1/6 263/1/6 312/1/6
f 264/1/6 265/1/6 313/1/6
f 312/2/6 264/2/6 313/2/6
f 313/1/6 265/1/6 314/1/6
f 311/3/6 312/3/6 315/3/6
f 312/3/6 313/3/6 315/3/6
f 313/3/6 314/3/6 315/3/6
f 314/1/6 265/1/6 316/1/6
f 315/3/6 314/3/6 316/3/6
f 315/1/6 316/1/6 317/1/6
f 316/1/6 265/1/6 317/1/6
f 317/1/6 265/1/6 318/1/6
f 307/3/6 311/3/6 319/3/6
f 311/3/6 315/3/6 319/3/6
f 317/3/6 318/3/6 320/3/6
f 315/1/6 317/1/6 320/1/6
f 318/1/6 265/1/6 321/1/6
f 320/3/6 318/3/6 321/3/6
f 319/3/6 315/3/6 322/3/6
f 322/3/6 315/3/6 323/3/6
f 323/3/6 315/3/6 324/3/6
f 323/1/6 324/1/6 325/1/6
f 324/3/6 315/3/6 325/3/6
f 315/1/6 320/1/6 326/1/6
f 325/3/6 315/3/6 326/3/6
f 320/1/6 321/1/6 326/1/6
f 323/1/6 325/1/6 327/1/6
f 322/3/6 323/3/6 327/3/6
f 325/2/6 326/2/6 328/2/6
f 327/1/6 325/1/6 328/1/6
f 326/1/6 321/1/6 329/1/6
f 328/2/6 326/2/6 329/2/6
f 327/3/6 328/3/6 330/3/6
f 329/1/6 321/1/6 330/1/6
f 328/3/6 329/3/6 330/3/6
f 321/1/6 265/1/6 331/1/6
f 330/1/6 321/1/6 331/1/6
f 327/3/6 330/3/6 332/3/6
f 322/3/6 327/3/6 332/3/6
f 330/3/6 331/3/6 332/3/6
f 332/3/6 331/3/6 333/3/6
f 333/3/6 331/3/6 334/3/6
f 333/2/6 334/2/6 335/2/6
f 334/3/6 331/3/6 335/3/6
f 335/3/6 331/3/6 336/3/6
f 331/1/6 265/1/6 337/1/6
f 336/3/6 331/3/6 337/3/6
f 335/2/6 336/2/6 338/2/6
f 336/1/6 337/1/6 339/1/6
f 338/2/6 336/2/6 339/2/6
f 335/2/6 338/2/6 340/2/6
f 338/3/6 339/3/6 340/3/6
f 339/1/6 337/1/6 341/1/6
f 340/3/6 339/3/6 341/3/6
f 322/3/6 332/3/6 342/3/6
f 342/3/6 332/3/6 343/3/6
f 343/3/6 332/3/6 344/3/6
f 344/3/6 332/3/6 345/3/6
f 332/1/6 333/1/6 346/1/6
f 345/3/6 332/3/6 346/3/6
f 333/2/6 335/2/6 347/2/6
f 346/1/6 333/1/6 347/1/6
f 335/2/6 340/2/6 347/2/6
f 340/2/6 341/2/6 347/2/6
f 341/1/6 337/1/6 348/1/6
f 347/2/6 341/2/6 348/2/6
f 337/1/6 265/1/6 349/1/6
f 348/1/6 337/1/6 349/1/6
f 265/2/6 266/2/6 349/2/6
f 266/1/6 267/1/6 350/1/6
f 349/2/6 266/2/6 350/2/6
f 267/2/6 268/2/6 351/2/6
f 350/1/6 267/1/6 351/1/6
f 268/1/6 269/1/6 352/1/6
f 351/2/6 268/2/6 352/2/6
f 269/2/6 270/2/6 353/2/6
f 352/1/6 269/1/6 353/1/6
f 270/1/6 271/1/6 354/1/6
f 353/2/6 270/2/6 354/2/6
f 271/2/6 272/2/6 355/2/6
f 354/1/6 271/1/6 355/1/6
f 272/1/6 273/1/6 356/1/6
f 355/2/6 272/2/6 356/2/6
f 273/2/6 274/2/6 357/2/6
f 356/1/6 273/1/6 357/1/6
f 274/1/6 275/1/6 358/1/6
f 357/2/6 274/2/6 358/2/6
f 358/1/6 275/1/6 359/1/6
f 361/1/6 362/1/6 363/1/6
f 360/4/6 361/4/6 365/4/6
f 363/1/6 364/1/6 366/1/6
f 365/4/6 361/4/6 366/4/6
f 361/1/6 363/1/6 366/1/6
f 366/1/6 364/1/6 367/1/6
