# MagicaVoxel @ Ephtracy

# group
g 4x2 fourth (1)-7

# material
mtllib 4x2 fourth (1)-7.mtl
usemtl palette

# normals
vn -1 0 0
vn 1 0 0
vn 0 0 1
vn 0 0 -1
vn 0 -1 0
vn 0 1 0

# texcoords
vt 0.533203 0.5
vt 0.537109 0.5
vt 0.966797 0.5
vt 0.970703 0.5
vt 0.974609 0.5
vt 0.986328 0.5
vt 0.990234 0.5

# verts
v -63 0 63
v -63 0 -63
v -63 80 63
v -63 80 -63
v 48 4 33
v 48 4 31
v 48 43 33
v 48 43 31
v 62 4 31
v 62 4 -18
v 62 4 -48
v 62 4 -62
v 62 43 -18
v 62 43 -48
v 62 80 31
v 62 80 -62
v -61 4 31
v -61 4 -45
v -61 4 -62
v -61 5 -45
v -61 5 -46
v -61 6 -43
v -61 6 -45
v -61 12 -43
v -61 12 -45
v -61 21 -42
v -61 21 -46
v -61 22 -62
v -61 23 -46
v -61 23 -62
v -61 25 -61
v -61 25 -62
v -61 26 -42
v -61 26 -46
v -61 30 -61
v -61 30 -62
v -61 80 31
v -61 80 -62
v -22 3 60
v -22 3 59
v -22 3 58
v -22 3 56
v -22 3 33
v -22 4 59
v -22 4 58
v -22 5 56
v -22 5 55
v -22 14 55
v -22 14 52
v -22 16 53
v -22 16 52
v -22 20 53
v -22 20 52
v -22 25 52
v -22 25 51
v -22 30 38
v -22 30 37
v -22 34 37
v -22 34 33
v -22 35 48
v -22 35 38
v -22 35 37
v -22 35 35
v -22 35 33
v -22 36 51
v -22 36 48
v -22 36 37
v -22 36 35
v -22 80 60
v -22 80 33
v -21 24 63
v -21 24 62
v -21 24 60
v -21 80 63
v -21 80 62
v -21 80 60
v 18 4 33
v 18 4 31
v 18 43 33
v 18 43 31
v 63 0 63
v 63 0 -63
v 63 2 -18
v 63 2 -48
v 63 3 60
v 63 3 33
v 63 3 31
v 63 3 -18
v 63 3 -48
v 63 3 -63
v 63 4 31
v 63 4 -18
v 63 4 -48
v 63 4 -63
v 63 24 63
v 63 24 60
v 63 43 -18
v 63 43 -48
v 63 80 33
v 63 80 -63
v -63 0 63
v -63 80 63
v -21 0 63
v -21 24 63
v -21 80 63
v 63 0 63
v 63 24 63
v -22 3 33
v -22 34 33
v -22 35 33
v -22 80 33
v -19 30 33
v -19 31 33
v -19 33 33
v -19 35 33
v -9 33 33
v -9 35 33
v -7 33 33
v -7 35 33
v -6 34 33
v -6 36 33
v -5 30 33
v -5 31 33
v -3 34 33
v -3 36 33
v -2 30 33
v -2 33 33
v -2 34 33
v -2 35 33
v -1 30 33
v -1 31 33
v 0 33 33
v 0 34 33
v 0 35 33
v 0 38 33
v 1 30 33
v 1 31 33
v 2 33 33
v 2 34 33
v 3 15 33
v 3 30 33
v 3 35 33
v 3 38 33
v 4 18 33
v 4 24 33
v 6 17 33
v 6 18 33
v 6 19 33
v 6 24 33
v 8 3 33
v 8 15 33
v 8 17 33
v 8 19 33
v 18 3 33
v 18 4 33
v 18 43 33
v 48 3 33
v 48 4 33
v 48 43 33
v 63 3 33
v 63 80 33
v 62 4 -48
v 62 43 -48
v 63 4 -48
v 63 43 -48
v -61 4 -62
v -61 22 -62
v -61 23 -62
v -61 25 -62
v -61 30 -62
v -61 80 -62
v -55 25 -62
v -55 30 -62
v -45 26 -62
v -45 27 -62
v -43 26 -62
v -43 27 -62
v -40 34 -62
v -40 38 -62
v -36 6 -62
v -36 22 -62
v -35 34 -62
v -35 38 -62
v -32 9 -62
v -32 16 -62
v -32 25 -62
v -32 26 -62
v -31 26 -62
v -31 32 -62
v -30 4 -62
v -30 6 -62
v -29 9 -62
v -29 16 -62
v -29 25 -62
v -29 32 -62
v -26 4 -62
v -25 4 -62
v -18 4 -62
v -17 4 -62
v -10 4 -62
v -9 4 -62
v -2 4 -62
v -1 4 -62
v 6 4 -62
v 7 4 -62
v 14 4 -62
v 15 4 -62
v 22 4 -62
v 23 4 -62
v 30 4 -62
v 31 4 -62
v 38 4 -62
v 39 4 -62
v 46 4 -62
v 47 4 -62
v 54 4 -62
v 55 4 -62
v 62 4 -62
v 62 80 -62
v -22 3 60
v -22 80 60
v -21 24 60
v -21 80 60
v 63 3 60
v 63 24 60
v -61 4 31
v -61 80 31
v -58 4 31
v -57 4 31
v -50 4 31
v -49 4 31
v -42 4 31
v -41 4 31
v -34 4 31
v -33 4 31
v -26 4 31
v -25 4 31
v -18 4 31
v -17 4 31
v -10 4 31
v -9 4 31
v -2 4 31
v -1 4 31
v 6 4 31
v 7 4 31
v 14 4 31
v 15 4 31
v 18 4 31
v 18 43 31
v 48 4 31
v 48 43 31
v 54 4 31
v 55 4 31
v 62 4 31
v 62 80 31
v 62 4 -18
v 62 43 -18
v 63 4 -18
v 63 43 -18
v -63 0 -63
v -63 80 -63
v -62 0 -63
v -62 25 -63
v -62 30 -63
v -62 80 -63
v -61 3 -63
v -61 22 -63
v -55 25 -63
v -55 30 -63
v -45 26 -63
v -45 27 -63
v -43 26 -63
v -43 27 -63
v -40 34 -63
v -40 38 -63
v -36 6 -63
v -36 22 -63
v -35 34 -63
v -35 38 -63
v -32 9 -63
v -32 16 -63
v -32 25 -63
v -32 26 -63
v -31 26 -63
v -31 32 -63
v -30 3 -63
v -30 4 -63
v -30 6 -63
v -29 9 -63
v -29 16 -63
v -29 25 -63
v -29 32 -63
v -26 3 -63
v -26 4 -63
v -25 3 -63
v -25 4 -63
v -18 3 -63
v -18 4 -63
v -17 3 -63
v -17 4 -63
v -10 3 -63
v -10 4 -63
v -9 3 -63
v -9 4 -63
v -2 3 -63
v -2 4 -63
v -1 3 -63
v -1 4 -63
v 6 3 -63
v 6 4 -63
v 7 3 -63
v 7 4 -63
v 14 3 -63
v 14 4 -63
v 15 3 -63
v 15 4 -63
v 22 3 -63
v 22 4 -63
v 23 3 -63
v 23 4 -63
v 30 3 -63
v 30 4 -63
v 31 3 -63
v 31 4 -63
v 38 3 -63
v 38 4 -63
v 39 3 -63
v 39 4 -63
v 46 3 -63
v 46 4 -63
v 47 3 -63
v 47 4 -63
v 54 3 -63
v 54 4 -63
v 55 3 -63
v 55 4 -63
v 62 3 -63
v 62 4 -63
v 63 0 -63
v 63 3 -63
v 63 4 -63
v 63 80 -63
v -63 0 63
v -21 0 63
v 63 0 63
v -62 0 62
v -21 0 62
v -63 0 -63
v -62 0 -63
v 63 0 -63
v 18 43 33
v 48 43 33
v 18 43 31
v 48 43 31
v 62 43 -18
v 63 43 -18
v 62 43 -48
v 63 43 -48
v -22 3 60
v 63 3 60
v -22 3 59
v -22 3 58
v -22 3 56
v -19 3 56
v -3 3 56
v -1 3 56
v -19 3 55
v -9 3 55
v -9 3 54
v -8 3 54
v -3 3 54
v -1 3 54
v -9 3 53
v -8 3 53
v -2 3 53
v 0 3 53
v -9 3 51
v -2 3 51
v 0 3 51
v 5 3 51
v 4 3 49
v 5 3 49
v 5 3 47
v 6 3 47
v 5 3 43
v 6 3 43
v 8 3 43
v 4 3 40
v 6 3 40
v -22 3 33
v 8 3 33
v 18 3 33
v 48 3 33
v 63 3 33
v 18 4 33
v 48 4 33
v -61 4 31
v -58 4 31
v -57 4 31
v -50 4 31
v -49 4 31
v -42 4 31
v -41 4 31
v -34 4 31
v -33 4 31
v -26 4 31
v -25 4 31
v -18 4 31
v -17 4 31
v -10 4 31
v -9 4 31
v -2 4 31
v -1 4 31
v 6 4 31
v 7 4 31
v 14 4 31
v 15 4 31
v 18 4 31
v 22 4 31
v 23 4 31
v 30 4 31
v 31 4 31
v 38 4 31
v 39 4 31
v 46 4 31
v 47 4 31
v 48 4 31
v 54 4 31
v 55 4 31
v 62 4 31
v 62 4 -18
v 63 4 -18
v -39 4 -37
v -34 4 -37
v -52 4 -41
v -50 4 -41
v -49 4 -41
v -43 4 -41
v -39 4 -42
v -34 4 -42
v -34 4 -43
v -33 4 -43
v -32 4 -43
v -61 4 -45
v -58 4 -45
v -57 4 -45
v -52 4 -45
v -50 4 -45
v -49 4 -45
v -43 4 -45
v -57 4 -46
v -50 4 -46
v -49 4 -46
v -42 4 -46
v -41 4 -46
v -36 4 -46
v -34 4 -47
v -33 4 -47
v -32 4 -47
v 62 4 -48
v 63 4 -48
v -34 4 -50
v -33 4 -50
v -34 4 -56
v -33 4 -56
v -36 4 -57
v -34 4 -57
v -33 4 -57
v -30 4 -57
v -61 4 -62
v -30 4 -62
v -26 4 -62
v -25 4 -62
v -18 4 -62
v -17 4 -62
v -10 4 -62
v -9 4 -62
v -2 4 -62
v -1 4 -62
v 6 4 -62
v 7 4 -62
v 14 4 -62
v 15 4 -62
v 22 4 -62
v 23 4 -62
v 30 4 -62
v 31 4 -62
v 38 4 -62
v 39 4 -62
v 46 4 -62
v 47 4 -62
v 54 4 -62
v 55 4 -62
v 62 4 -62
v -21 24 63
v 63 24 63
v -21 24 62
v -21 24 60
v 63 24 60
v -63 80 63
v -21 80 63
v -62 80 62
v -21 80 62
v -22 80 60
v -21 80 60
v -22 80 33
v 63 80 33
v -61 80 31
v 62 80 31
v -61 80 -62
v 62 80 -62
v -63 80 -63
v -62 80 -63
v 63 80 -63

# faces
f 3/6/1 2/6/1 1/6/1
f 4/6/1 2/6/1 3/6/1
f 7/3/1 6/3/1 5/3/1
f 8/3/1 6/3/1 7/3/1
f 13/3/1 10/3/1 9/3/1
f 14/3/1 12/3/1 11/3/1
f 15/3/1 13/3/1 9/3/1
f 15/3/1 14/3/1 13/3/1
f 16/3/1 12/3/1 14/3/1
f 16/3/1 14/3/1 15/3/1
f 17/3/2 18/3/2 20/3/2
f 18/7/2 19/7/2 20/7/2
f 20/7/2 19/7/2 21/7/2
f 17/3/2 20/3/2 22/3/2
f 20/3/2 21/3/2 22/3/2
f 22/3/2 21/3/2 23/3/2
f 17/3/2 22/3/2 24/3/2
f 22/7/2 23/7/2 24/7/2
f 23/3/2 21/3/2 25/3/2
f 24/7/2 23/7/2 25/7/2
f 17/3/2 24/3/2 26/3/2
f 24/3/2 25/3/2 26/3/2
f 21/7/2 19/7/2 27/7/2
f 26/3/2 25/3/2 27/3/2
f 25/3/2 21/3/2 27/3/2
f 26/7/2 27/7/2 28/7/2
f 27/7/2 19/7/2 28/7/2
f 26/7/2 28/7/2 29/7/2
f 29/7/2 28/7/2 30/7/2
f 29/3/2 30/3/2 31/3/2
f 31/3/2 30/3/2 32/3/2
f 17/3/2 26/3/2 33/3/2
f 26/7/2 29/7/2 33/7/2
f 29/3/2 31/3/2 34/3/2
f 33/7/2 29/7/2 34/7/2
f 31/7/2 32/7/2 35/7/2
f 34/3/2 31/3/2 35/3/2
f 33/3/2 34/3/2 35/3/2
f 35/7/2 32/7/2 36/7/2
f 17/3/2 33/3/2 37/3/2
f 33/3/2 35/3/2 37/3/2
f 35/3/2 36/3/2 37/3/2
f 37/3/2 36/3/2 38/3/2
f 39/3/2 40/3/2 44/3/2
f 40/4/2 41/4/2 44/4/2
f 41/3/2 42/3/2 45/3/2
f 44/4/2 41/4/2 45/4/2
f 42/4/2 43/4/2 46/4/2
f 45/3/2 42/3/2 46/3/2
f 44/3/2 45/3/2 46/3/2
f 46/4/2 43/4/2 47/4/2
f 46/3/2 47/3/2 48/3/2
f 47/4/2 43/4/2 48/4/2
f 48/4/2 43/4/2 49/4/2
f 48/3/2 49/3/2 50/3/2
f 49/4/2 43/4/2 51/4/2
f 50/3/2 49/3/2 51/3/2
f 48/3/2 50/3/2 52/3/2
f 50/4/2 51/4/2 52/4/2
f 51/4/2 43/4/2 53/4/2
f 52/4/2 51/4/2 53/4/2
f 52/3/2 53/3/2 54/3/2
f 53/4/2 43/4/2 54/4/2
f 54/4/2 43/4/2 55/4/2
f 55/4/2 43/4/2 56/4/2
f 56/4/2 43/4/2 57/4/2
f 56/3/2 57/3/2 58/3/2
f 57/4/2 43/4/2 58/4/2
f 58/4/2 43/4/2 59/4/2
f 55/4/2 56/4/2 60/4/2
f 56/3/2 58/3/2 61/3/2
f 60/4/2 56/4/2 61/4/2
f 58/3/2 59/3/2 61/3/2
f 61/3/2 59/3/2 62/3/2
f 62/3/2 59/3/2 63/3/2
f 63/3/2 59/3/2 64/3/2
f 54/3/2 55/3/2 65/3/2
f 55/4/2 60/4/2 65/4/2
f 60/3/2 61/3/2 66/3/2
f 65/4/2 60/4/2 66/4/2
f 61/3/2 62/3/2 66/3/2
f 62/4/2 63/4/2 67/4/2
f 66/3/2 62/3/2 67/3/2
f 63/3/2 64/3/2 68/3/2
f 67/4/2 63/4/2 68/4/2
f 39/3/2 44/3/2 69/3/2
f 44/3/2 46/3/2 69/3/2
f 67/3/2 68/3/2 69/3/2
f 65/3/2 66/3/2 69/3/2
f 54/3/2 65/3/2 69/3/2
f 66/3/2 67/3/2 69/3/2
f 46/3/2 48/3/2 69/3/2
f 48/3/2 52/3/2 69/3/2
f 52/3/2 54/3/2 69/3/2
f 68/3/2 64/3/2 70/3/2
f 69/3/2 68/3/2 70/3/2
f 71/6/2 72/6/2 74/6/2
f 72/3/2 73/3/2 75/3/2
f 74/6/2 72/6/2 75/6/2
f 75/3/2 73/3/2 76/3/2
f 77/3/2 78/3/2 79/3/2
f 79/3/2 78/3/2 80/3/2
f 81/3/2 82/3/2 83/3/2
f 83/3/2 82/3/2 84/3/2
f 81/3/2 83/3/2 85/3/2
f 85/3/2 83/3/2 86/3/2
f 86/3/2 83/3/2 87/3/2
f 83/5/2 84/5/2 88/5/2
f 87/3/2 83/3/2 88/3/2
f 84/3/2 82/3/2 89/3/2
f 88/5/2 84/5/2 89/5/2
f 89/3/2 82/3/2 90/3/2
f 87/1/2 88/1/2 91/1/2
f 86/3/2 87/3/2 91/3/2
f 89/1/2 90/1/2 91/1/2
f 88/1/2 89/1/2 91/1/2
f 91/1/2 90/1/2 92/1/2
f 92/1/2 90/1/2 93/1/2
f 93/1/2 90/1/2 94/1/2
f 81/3/2 85/3/2 95/3/2
f 95/3/2 85/3/2 96/3/2
f 91/3/2 92/3/2 97/3/2
f 93/3/2 94/3/2 98/3/2
f 86/3/2 91/3/2 99/3/2
f 97/3/2 98/3/2 99/3/2
f 91/3/2 97/3/2 99/3/2
f 98/3/2 94/3/2 100/3/2
f 99/3/2 98/3/2 100/3/2
f 103/6/3 102/6/3 101/6/3
f 104/6/3 102/6/3 103/6/3
f 105/6/3 102/6/3 104/6/3
f 106/3/3 104/3/3 103/3/3
f 107/3/3 104/3/3 106/3/3
f 112/4/3 109/4/3 108/4/3
f 112/4/3 110/4/3 109/4/3
f 113/4/3 110/4/3 112/4/3
f 114/4/3 110/4/3 113/4/3
f 115/3/3 111/3/3 110/3/3
f 115/4/3 110/4/3 114/4/3
f 116/4/3 114/4/3 113/4/3
f 116/3/3 115/3/3 114/3/3
f 117/3/3 111/3/3 115/3/3
f 117/3/3 115/3/3 116/3/3
f 118/4/3 116/4/3 113/4/3
f 118/4/3 117/4/3 116/4/3
f 119/3/3 111/3/3 117/3/3
f 119/4/3 117/4/3 118/4/3
f 120/3/3 119/3/3 118/3/3
f 121/3/3 111/3/3 119/3/3
f 121/3/3 119/3/3 120/3/3
f 122/4/3 112/4/3 108/4/3
f 122/3/3 113/3/3 112/3/3
f 123/4/3 118/4/3 113/4/3
f 123/3/3 113/3/3 122/3/3
f 124/4/3 121/4/3 120/4/3
f 124/3/3 120/3/3 118/3/3
f 125/3/3 111/3/3 121/3/3
f 125/4/3 121/4/3 124/4/3
f 126/4/3 122/4/3 108/4/3
f 126/4/3 123/4/3 122/4/3
f 127/3/3 124/3/3 118/3/3
f 127/4/3 123/4/3 126/4/3
f 127/4/3 118/4/3 123/4/3
f 127/3/3 125/3/3 124/3/3
f 128/3/3 125/3/3 127/3/3
f 129/3/3 125/3/3 128/3/3
f 130/4/3 126/4/3 108/4/3
f 130/3/3 127/3/3 126/3/3
f 130/3/3 128/3/3 127/3/3
f 131/3/3 128/3/3 130/3/3
f 132/3/3 128/3/3 131/3/3
f 133/4/3 129/4/3 128/4/3
f 133/3/3 128/3/3 132/3/3
f 134/3/3 125/3/3 129/3/3
f 134/4/3 129/4/3 133/4/3
f 135/3/3 111/3/3 125/3/3
f 135/3/3 125/3/3 134/3/3
f 136/4/3 130/4/3 108/4/3
f 136/4/3 131/4/3 130/4/3
f 137/3/3 132/3/3 131/3/3
f 137/4/3 131/4/3 136/4/3
f 138/4/3 133/4/3 132/4/3
f 138/3/3 132/3/3 137/3/3
f 138/3/3 137/3/3 136/3/3
f 139/3/3 134/3/3 133/3/3
f 139/4/3 133/4/3 138/4/3
f 140/4/3 136/4/3 108/4/3
f 141/3/3 138/3/3 136/3/3
f 141/4/3 136/4/3 140/4/3
f 141/3/3 139/3/3 138/3/3
f 142/4/3 135/4/3 134/4/3
f 142/3/3 139/3/3 141/3/3
f 142/3/3 134/3/3 139/3/3
f 143/3/3 111/3/3 135/3/3
f 143/4/3 135/4/3 142/4/3
f 144/3/3 141/3/3 140/3/3
f 144/3/3 142/3/3 141/3/3
f 144/3/3 143/3/3 142/3/3
f 145/3/3 143/3/3 144/3/3
f 146/3/3 144/3/3 140/3/3
f 147/4/3 145/4/3 144/4/3
f 147/3/3 144/3/3 146/3/3
f 148/4/3 145/4/3 147/4/3
f 149/3/3 143/3/3 145/3/3
f 149/4/3 145/4/3 148/4/3
f 150/4/3 140/4/3 108/4/3
f 151/3/3 146/3/3 140/3/3
f 151/4/3 140/4/3 150/4/3
f 152/4/3 148/4/3 147/4/3
f 152/3/3 146/3/3 151/3/3
f 152/4/3 147/4/3 146/4/3
f 153/3/3 149/3/3 148/3/3
f 153/4/3 148/4/3 152/4/3
f 154/3/3 151/3/3 150/3/3
f 154/3/3 152/3/3 151/3/3
f 154/3/3 153/3/3 152/3/3
f 155/3/3 153/3/3 154/3/3
f 156/3/3 143/3/3 149/3/3
f 156/3/3 153/3/3 155/3/3
f 156/3/3 111/3/3 143/3/3
f 156/3/3 149/3/3 153/3/3
f 157/2/3 155/2/3 154/2/3
f 158/2/3 155/2/3 157/2/3
f 159/3/3 111/3/3 156/3/3
f 160/3/3 158/3/3 157/3/3
f 160/3/3 159/3/3 158/3/3
f 161/3/3 111/3/3 159/3/3
f 161/3/3 159/3/3 160/3/3
f 164/3/3 163/3/3 162/3/3
f 165/3/3 163/3/3 164/3/3
f 172/3/3 168/3/3 167/3/3
f 172/3/3 169/3/3 168/3/3
f 172/7/3 170/7/3 169/7/3
f 173/3/3 171/3/3 170/3/3
f 173/7/3 170/7/3 172/7/3
f 174/3/3 173/3/3 172/3/3
f 175/3/3 173/3/3 174/3/3
f 176/3/3 174/3/3 172/3/3
f 176/7/3 175/7/3 174/7/3
f 177/3/3 173/3/3 175/3/3
f 177/7/3 175/7/3 176/7/3
f 178/3/3 171/3/3 173/3/3
f 178/3/3 173/3/3 177/3/3
f 178/3/3 177/3/3 176/3/3
f 179/3/3 171/3/3 178/3/3
f 180/7/3 167/7/3 166/7/3
f 181/3/3 172/3/3 167/3/3
f 181/7/3 167/7/3 180/7/3
f 181/3/3 176/3/3 172/3/3
f 181/3/3 178/3/3 176/3/3
f 182/7/3 179/7/3 178/7/3
f 182/3/3 178/3/3 181/3/3
f 182/3/3 181/3/3 180/3/3
f 183/3/3 171/3/3 179/3/3
f 183/7/3 179/7/3 182/7/3
f 184/3/3 182/3/3 180/3/3
f 184/3/3 183/3/3 182/3/3
f 185/3/3 183/3/3 184/3/3
f 186/3/3 183/3/3 185/3/3
f 187/3/3 183/3/3 186/3/3
f 188/7/3 187/7/3 186/7/3
f 188/3/3 183/3/3 187/3/3
f 189/3/3 183/3/3 188/3/3
f 190/7/3 180/7/3 166/7/3
f 191/3/3 184/3/3 180/3/3
f 191/7/3 180/7/3 190/7/3
f 192/7/3 185/7/3 184/7/3
f 192/3/3 184/3/3 191/3/3
f 192/3/3 191/3/3 190/3/3
f 193/3/3 186/3/3 185/3/3
f 193/7/3 185/7/3 192/7/3
f 194/7/3 189/7/3 188/7/3
f 194/3/3 186/3/3 193/3/3
f 194/7/3 188/7/3 186/7/3
f 195/3/3 183/3/3 189/3/3
f 195/7/3 189/7/3 194/7/3
f 196/3/3 194/3/3 193/3/3
f 196/3/3 193/3/3 192/3/3
f 196/3/3 195/3/3 194/3/3
f 196/3/3 192/3/3 190/3/3
f 197/3/3 195/3/3 196/3/3
f 198/3/3 195/3/3 197/3/3
f 199/3/3 195/3/3 198/3/3
f 200/3/3 195/3/3 199/3/3
f 201/3/3 195/3/3 200/3/3
f 202/3/3 195/3/3 201/3/3
f 203/3/3 195/3/3 202/3/3
f 204/3/3 195/3/3 203/3/3
f 205/3/3 195/3/3 204/3/3
f 206/3/3 195/3/3 205/3/3
f 207/3/3 195/3/3 206/3/3
f 208/3/3 195/3/3 207/3/3
f 209/3/3 195/3/3 208/3/3
f 210/3/3 195/3/3 209/3/3
f 211/3/3 195/3/3 210/3/3
f 212/3/3 195/3/3 211/3/3
f 213/3/3 195/3/3 212/3/3
f 214/3/3 195/3/3 213/3/3
f 215/3/3 195/3/3 214/3/3
f 216/3/3 195/3/3 215/3/3
f 217/3/3 195/3/3 216/3/3
f 218/3/3 195/3/3 217/3/3
f 219/3/3 171/3/3 183/3/3
f 219/3/3 195/3/3 218/3/3
f 219/3/3 183/3/3 195/3/3
f 220/3/4 221/3/4 222/3/4
f 222/3/4 221/3/4 223/3/4
f 220/3/4 222/3/4 224/3/4
f 224/3/4 222/3/4 225/3/4
f 226/3/4 227/3/4 228/3/4
f 228/3/4 227/3/4 229/3/4
f 229/3/4 227/3/4 230/3/4
f 230/3/4 227/3/4 231/3/4
f 231/3/4 227/3/4 232/3/4
f 232/3/4 227/3/4 233/3/4
f 233/3/4 227/3/4 234/3/4
f 234/3/4 227/3/4 235/3/4
f 235/3/4 227/3/4 236/3/4
f 236/3/4 227/3/4 237/3/4
f 237/3/4 227/3/4 238/3/4
f 238/3/4 227/3/4 239/3/4
f 239/3/4 227/3/4 240/3/4
f 240/3/4 227/3/4 241/3/4
f 241/3/4 227/3/4 242/3/4
f 242/3/4 227/3/4 243/3/4
f 243/3/4 227/3/4 244/3/4
f 244/3/4 227/3/4 245/3/4
f 245/3/4 227/3/4 246/3/4
f 246/3/4 227/3/4 247/3/4
f 247/3/4 227/3/4 248/3/4
f 248/3/4 227/3/4 249/3/4
f 249/3/4 227/3/4 251/3/4
f 250/3/4 251/3/4 252/3/4
f 252/3/4 251/3/4 253/3/4
f 253/3/4 251/3/4 254/3/4
f 251/3/4 227/3/4 255/3/4
f 254/3/4 251/3/4 255/3/4
f 256/3/4 257/3/4 258/3/4
f 258/3/4 257/3/4 259/3/4
f 260/6/4 261/6/4 262/6/4
f 262/6/4 261/6/4 263/6/4
f 263/6/4 261/6/4 264/6/4
f 264/6/4 261/6/4 265/6/4
f 262/3/4 263/3/4 266/3/4
f 266/3/4 263/3/4 267/3/4
f 263/7/4 264/7/4 268/7/4
f 267/3/4 263/3/4 268/3/4
f 264/3/4 265/3/4 269/3/4
f 268/7/4 264/7/4 269/7/4
f 268/3/4 269/3/4 270/3/4
f 270/3/4 269/3/4 271/3/4
f 268/3/4 270/3/4 272/3/4
f 270/7/4 271/7/4 272/7/4
f 271/3/4 269/3/4 273/3/4
f 272/7/4 271/7/4 273/7/4
f 269/3/4 265/3/4 274/3/4
f 273/3/4 269/3/4 274/3/4
f 272/3/4 273/3/4 274/3/4
f 274/3/4 265/3/4 275/3/4
f 266/7/4 267/7/4 276/7/4
f 267/3/4 268/3/4 277/3/4
f 276/7/4 267/7/4 277/7/4
f 268/3/4 272/3/4 277/3/4
f 272/3/4 274/3/4 277/3/4
f 274/7/4 275/7/4 278/7/4
f 277/3/4 274/3/4 278/3/4
f 276/3/4 277/3/4 278/3/4
f 275/3/4 265/3/4 279/3/4
f 278/7/4 275/7/4 279/7/4
f 276/3/4 278/3/4 280/3/4
f 278/3/4 279/3/4 280/3/4
f 280/3/4 279/3/4 281/3/4
f 281/3/4 279/3/4 282/3/4
f 282/3/4 279/3/4 283/3/4
f 282/7/4 283/7/4 284/7/4
f 283/3/4 279/3/4 284/3/4
f 284/3/4 279/3/4 285/3/4
f 266/7/4 276/7/4 286/7/4
f 262/3/4 266/3/4 286/3/4
f 286/7/4 276/7/4 287/7/4
f 276/3/4 280/3/4 288/3/4
f 287/7/4 276/7/4 288/7/4
f 280/7/4 281/7/4 289/7/4
f 288/3/4 280/3/4 289/3/4
f 287/3/4 288/3/4 289/3/4
f 281/3/4 282/3/4 290/3/4
f 289/7/4 281/7/4 290/7/4
f 284/7/4 285/7/4 291/7/4
f 290/3/4 282/3/4 291/3/4
f 282/7/4 284/7/4 291/7/4
f 285/3/4 279/3/4 292/3/4
f 291/7/4 285/7/4 292/7/4
f 286/2/4 287/2/4 293/2/4
f 262/3/4 286/3/4 293/3/4
f 290/3/4 291/3/4 294/3/4
f 293/2/4 287/2/4 294/2/4
f 289/3/4 290/3/4 294/3/4
f 287/3/4 289/3/4 294/3/4
f 291/3/4 292/3/4 294/3/4
f 262/3/4 293/3/4 295/3/4
f 293/1/4 294/1/4 295/1/4
f 294/3/4 292/3/4 296/3/4
f 295/1/4 294/1/4 296/1/4
f 262/3/4 295/3/4 297/3/4
f 295/2/4 296/2/4 297/2/4
f 296/3/4 292/3/4 298/3/4
f 297/2/4 296/2/4 298/2/4
f 262/3/4 297/3/4 299/3/4
f 297/1/4 298/1/4 299/1/4
f 298/3/4 292/3/4 300/3/4
f 299/1/4 298/1/4 300/1/4
f 262/3/4 299/3/4 301/3/4
f 299/2/4 300/2/4 301/2/4
f 300/3/4 292/3/4 302/3/4
f 301/2/4 300/2/4 302/2/4
f 262/3/4 301/3/4 303/3/4
f 301/1/4 302/1/4 303/1/4
f 302/3/4 292/3/4 304/3/4
f 303/1/4 302/1/4 304/1/4
f 262/3/4 303/3/4 305/3/4
f 303/2/4 304/2/4 305/2/4
f 304/3/4 292/3/4 306/3/4
f 305/2/4 304/2/4 306/2/4
f 262/3/4 305/3/4 307/3/4
f 305/1/4 306/1/4 307/1/4
f 306/3/4 292/3/4 308/3/4
f 307/1/4 306/1/4 308/1/4
f 262/3/4 307/3/4 309/3/4
f 307/2/4 308/2/4 309/2/4
f 308/3/4 292/3/4 310/3/4
f 309/2/4 308/2/4 310/2/4
f 262/3/4 309/3/4 311/3/4
f 309/1/4 310/1/4 311/1/4
f 310/3/4 292/3/4 312/3/4
f 311/1/4 310/1/4 312/1/4
f 262/3/4 311/3/4 313/3/4
f 311/2/4 312/2/4 313/2/4
f 312/3/4 292/3/4 314/3/4
f 313/2/4 312/2/4 314/2/4
f 262/3/4 313/3/4 315/3/4
f 313/1/4 314/1/4 315/1/4
f 314/3/4 292/3/4 316/3/4
f 315/1/4 314/1/4 316/1/4
f 262/3/4 315/3/4 317/3/4
f 315/2/4 316/2/4 317/2/4
f 316/3/4 292/3/4 318/3/4
f 317/2/4 316/2/4 318/2/4
f 262/3/4 317/3/4 319/3/4
f 317/1/4 318/1/4 319/1/4
f 318/3/4 292/3/4 320/3/4
f 319/1/4 318/1/4 320/1/4
f 262/3/4 319/3/4 321/3/4
f 319/2/4 320/2/4 321/2/4
f 320/3/4 292/3/4 322/3/4
f 321/2/4 320/2/4 322/2/4
f 262/3/4 321/3/4 323/3/4
f 321/1/4 322/1/4 323/1/4
f 322/3/4 292/3/4 324/3/4
f 323/1/4 322/1/4 324/1/4
f 262/3/4 323/3/4 325/3/4
f 323/2/4 324/2/4 325/2/4
f 324/3/4 292/3/4 326/3/4
f 325/2/4 324/2/4 326/2/4
f 262/3/4 325/3/4 327/3/4
f 325/1/4 326/1/4 327/1/4
f 326/3/4 292/3/4 328/3/4
f 327/1/4 326/1/4 328/1/4
f 262/3/4 327/3/4 329/3/4
f 327/2/4 328/2/4 329/2/4
f 328/3/4 292/3/4 330/3/4
f 329/2/4 328/2/4 330/2/4
f 262/3/4 329/3/4 331/3/4
f 329/1/4 330/1/4 331/1/4
f 330/3/4 292/3/4 332/3/4
f 331/1/4 330/1/4 332/1/4
f 262/3/4 331/3/4 333/3/4
f 331/2/4 332/2/4 333/2/4
f 332/3/4 292/3/4 334/3/4
f 333/2/4 332/2/4 334/2/4
f 262/3/4 333/3/4 335/3/4
f 333/1/4 334/1/4 335/1/4
f 334/3/4 292/3/4 336/3/4
f 335/1/4 334/1/4 336/1/4
f 262/3/4 335/3/4 337/3/4
f 335/2/4 336/2/4 337/2/4
f 336/3/4 292/3/4 338/3/4
f 337/2/4 336/2/4 338/2/4
f 262/3/4 337/3/4 339/3/4
f 337/1/4 338/1/4 340/1/4
f 339/3/4 337/3/4 340/3/4
f 338/3/4 292/3/4 341/3/4
f 340/1/4 338/1/4 341/1/4
f 279/3/4 265/3/4 342/3/4
f 341/3/4 292/3/4 342/3/4
f 292/3/4 279/3/4 342/3/4
f 346/6/5 344/6/5 343/6/5
f 347/3/5 345/3/5 344/3/5
f 347/6/5 344/6/5 346/6/5
f 348/6/5 346/6/5 343/6/5
f 349/3/5 347/3/5 346/3/5
f 349/6/5 346/6/5 348/6/5
f 350/3/5 345/3/5 347/3/5
f 350/3/5 347/3/5 349/3/5
f 353/3/5 352/3/5 351/3/5
f 354/3/5 352/3/5 353/3/5
f 357/3/5 356/3/5 355/3/5
f 358/3/5 356/3/5 357/3/5
f 359/3/6 360/3/6 361/3/6
f 361/3/6 360/3/6 362/3/6
f 362/3/6 360/3/6 363/3/6
f 363/3/6 360/3/6 364/3/6
f 364/3/6 360/3/6 365/3/6
f 365/3/6 360/3/6 366/3/6
f 363/4/6 364/4/6 367/4/6
f 364/3/6 365/3/6 367/3/6
f 367/3/6 365/3/6 368/3/6
f 367/4/6 368/4/6 369/4/6
f 368/3/6 365/3/6 369/3/6
f 369/3/6 365/3/6 370/3/6
f 365/4/6 366/4/6 371/4/6
f 370/3/6 365/3/6 371/3/6
f 366/3/6 360/3/6 372/3/6
f 371/4/6 366/4/6 372/4/6
f 369/4/6 370/4/6 373/4/6
f 367/4/6 369/4/6 373/4/6
f 370/3/6 371/3/6 374/3/6
f 373/4/6 370/4/6 374/4/6
f 371/3/6 372/3/6 374/3/6
f 374/3/6 372/3/6 375/3/6
f 372/3/6 360/3/6 376/3/6
f 375/3/6 372/3/6 376/3/6
f 367/4/6 373/4/6 377/4/6
f 374/3/6 375/3/6 377/3/6
f 373/3/6 374/3/6 377/3/6
f 375/4/6 376/4/6 378/4/6
f 377/3/6 375/3/6 378/3/6
f 376/3/6 360/3/6 379/3/6
f 378/4/6 376/4/6 379/4/6
f 379/3/6 360/3/6 380/3/6
f 377/4/6 378/4/6 381/4/6
f 378/4/6 379/4/6 381/4/6
f 379/4/6 380/4/6 381/4/6
f 380/3/6 360/3/6 382/3/6
f 381/4/6 380/4/6 382/4/6
f 381/3/6 382/3/6 383/3/6
f 382/3/6 360/3/6 383/3/6
f 383/3/6 360/3/6 384/3/6
f 381/3/6 383/3/6 385/3/6
f 383/4/6 384/4/6 385/4/6
f 384/3/6 360/3/6 386/3/6
f 385/4/6 384/4/6 386/4/6
f 386/3/6 360/3/6 387/3/6
f 377/4/6 381/4/6 388/4/6
f 381/3/6 385/3/6 388/3/6
f 385/3/6 386/3/6 388/3/6
f 386/4/6 387/4/6 389/4/6
f 388/3/6 386/3/6 389/3/6
f 367/4/6 377/4/6 390/4/6
f 363/4/6 367/4/6 390/4/6
f 388/4/6 389/4/6 390/4/6
f 377/4/6 388/4/6 390/4/6
f 387/3/6 360/3/6 391/3/6
f 390/4/6 389/4/6 391/4/6
f 389/4/6 387/4/6 391/4/6
f 391/3/6 360/3/6 392/3/6
f 392/3/6 360/3/6 393/3/6
f 393/3/6 360/3/6 394/3/6
f 395/2/6 396/2/6 418/2/6
f 418/2/6 396/2/6 419/2/6
f 419/2/6 396/2/6 420/2/6
f 420/2/6 396/2/6 421/2/6
f 421/2/6 396/2/6 422/2/6
f 422/2/6 396/2/6 423/2/6
f 423/2/6 396/2/6 424/2/6
f 424/2/6 396/2/6 425/2/6
f 425/2/6 396/2/6 426/2/6
f 426/2/6 396/2/6 427/2/6
f 429/2/6 430/2/6 431/2/6
f 403/2/6 404/2/6 433/2/6
f 404/1/6 405/1/6 434/1/6
f 433/2/6 404/2/6 434/2/6
f 399/2/6 400/2/6 435/2/6
f 400/1/6 401/1/6 436/1/6
f 435/2/6 400/2/6 436/2/6
f 401/2/6 402/2/6 437/2/6
f 436/1/6 401/1/6 437/1/6
f 437/2/6 402/2/6 438/2/6
f 403/2/6 433/2/6 439/2/6
f 433/7/6 434/7/6 439/7/6
f 434/1/6 405/1/6 440/1/6
f 439/7/6 434/7/6 440/7/6
f 439/2/6 440/2/6 441/2/6
f 440/1/6 405/1/6 441/1/6
f 405/2/6 406/2/6 442/2/6
f 441/1/6 405/1/6 442/1/6
f 442/2/6 406/2/6 443/2/6
f 397/2/6 398/2/6 444/2/6
f 398/1/6 399/1/6 445/1/6
f 444/2/6 398/2/6 445/2/6
f 399/2/6 435/2/6 446/2/6
f 445/1/6 399/1/6 446/1/6
f 435/7/6 436/7/6 447/7/6
f 446/2/6 435/2/6 447/2/6
f 437/7/6 438/7/6 447/7/6
f 436/7/6 437/7/6 447/7/6
f 447/7/6 438/7/6 448/7/6
f 448/7/6 438/7/6 449/7/6
f 438/2/6 402/2/6 450/2/6
f 449/7/6 438/7/6 450/7/6
f 444/7/6 445/7/6 451/7/6
f 445/7/6 446/7/6 451/7/6
f 446/2/6 447/2/6 451/2/6
f 447/2/6 448/2/6 451/2/6
f 448/1/6 449/1/6 452/1/6
f 451/2/6 448/2/6 452/2/6
f 449/2/6 450/2/6 453/2/6
f 452/1/6 449/1/6 453/1/6
f 450/2/6 402/2/6 454/2/6
f 453/2/6 450/2/6 454/2/6
f 402/1/6 403/1/6 454/1/6
f 403/2/6 439/2/6 455/2/6
f 454/1/6 403/1/6 455/1/6
f 439/2/6 441/2/6 455/2/6
f 455/2/6 441/2/6 456/2/6
f 441/7/6 442/7/6 457/7/6
f 456/2/6 441/2/6 457/2/6
f 442/7/6 443/7/6 457/7/6
f 457/7/6 443/7/6 458/7/6
f 443/2/6 406/2/6 459/2/6
f 458/7/6 443/7/6 459/7/6
f 431/1/6 432/1/6 460/1/6
f 429/2/6 431/2/6 460/2/6
f 460/1/6 432/1/6 461/1/6
f 457/1/6 458/1/6 462/1/6
f 456/2/6 457/2/6 462/2/6
f 458/2/6 459/2/6 463/2/6
f 462/1/6 458/1/6 463/1/6
f 456/2/6 462/2/6 464/2/6
f 462/7/6 463/7/6 464/7/6
f 463/2/6 459/2/6 465/2/6
f 464/7/6 463/7/6 465/7/6
f 453/7/6 454/7/6 466/7/6
f 452/7/6 453/7/6 466/7/6
f 451/7/6 452/7/6 466/7/6
f 455/7/6 456/7/6 466/7/6
f 456/2/6 464/2/6 466/2/6
f 454/7/6 455/7/6 466/7/6
f 464/1/6 465/1/6 467/1/6
f 466/2/6 464/2/6 467/2/6
f 465/2/6 459/2/6 468/2/6
f 467/1/6 465/1/6 468/1/6
f 459/2/6 406/2/6 469/2/6
f 468/2/6 459/2/6 469/2/6
f 466/7/6 467/7/6 470/7/6
f 451/7/6 466/7/6 470/7/6
f 468/7/6 469/7/6 470/7/6
f 467/7/6 468/7/6 470/7/6
f 444/7/6 451/7/6 470/7/6
f 469/2/6 406/2/6 471/2/6
f 470/7/6 469/7/6 471/7/6
f 406/1/6 407/1/6 472/1/6
f 471/2/6 406/2/6 472/2/6
f 407/2/6 408/2/6 473/2/6
f 472/1/6 407/1/6 473/1/6
f 408/1/6 409/1/6 474/1/6
f 473/2/6 408/2/6 474/2/6
f 409/2/6 410/2/6 475/2/6
f 474/1/6 409/1/6 475/1/6
f 410/1/6 411/1/6 476/1/6
f 475/2/6 410/2/6 476/2/6
f 411/2/6 412/2/6 477/2/6
f 476/1/6 411/1/6 477/1/6
f 412/1/6 413/1/6 478/1/6
f 477/2/6 412/2/6 478/2/6
f 413/2/6 414/2/6 479/2/6
f 478/1/6 413/1/6 479/1/6
f 414/1/6 415/1/6 480/1/6
f 479/2/6 414/2/6 480/2/6
f 415/2/6 416/2/6 481/2/6
f 480/1/6 415/1/6 481/1/6
f 416/1/6 417/1/6 482/1/6
f 481/2/6 416/2/6 482/2/6
f 417/2/6 418/2/6 483/2/6
f 482/1/6 417/1/6 483/1/6
f 418/2/6 419/2/6 483/2/6
f 419/1/6 420/1/6 484/1/6
f 483/2/6 419/2/6 484/2/6
f 420/2/6 421/2/6 485/2/6
f 484/1/6 420/1/6 485/1/6
f 421/1/6 422/1/6 486/1/6
f 485/2/6 421/2/6 486/2/6
f 422/2/6 423/2/6 487/2/6
f 486/1/6 422/1/6 487/1/6
f 423/1/6 424/1/6 488/1/6
f 487/2/6 423/2/6 488/2/6
f 424/2/6 425/2/6 489/2/6
f 488/1/6 424/1/6 489/1/6
f 425/1/6 426/1/6 490/1/6
f 489/2/6 425/2/6 490/2/6
f 426/2/6 427/2/6 491/2/6
f 490/1/6 426/1/6 491/1/6
f 427/2/6 428/2/6 491/2/6
f 428/1/6 429/1/6 492/1/6
f 491/2/6 428/2/6 492/2/6
f 429/2/6 460/2/6 493/2/6
f 492/1/6 429/1/6 493/1/6
f 493/2/6 460/2/6 494/2/6
f 495/3/6 496/3/6 497/3/6
f 497/3/6 496/3/6 498/3/6
f 498/3/6 496/3/6 499/3/6
f 500/6/6 501/6/6 502/6/6
f 502/6/6 501/6/6 503/6/6
f 502/3/6 503/3/6 504/3/6
f 504/3/6 503/3/6 505/3/6
f 502/3/6 504/3/6 506/3/6
f 502/3/6 506/3/6 508/3/6
f 506/3/6 507/3/6 508/3/6
f 508/3/6 507/3/6 509/3/6
f 502/3/6 508/3/6 510/3/6
f 509/3/6 507/3/6 511/3/6
f 500/6/6 502/6/6 512/6/6
f 510/3/6 511/3/6 513/3/6
f 512/6/6 502/6/6 513/6/6
f 502/3/6 510/3/6 513/3/6
f 511/3/6 507/3/6 514/3/6
f 513/3/6 511/3/6 514/3/6
