# MagicaVoxel @ Ephtracy

# group
g 4x2 roof (1)-3

# material
mtllib 4x2 roof (1)-3.mtl
usemtl palette

# normals
vn -1 0 0
vn 1 0 0
vn 0 0 1
vn 0 0 -1
vn 0 -1 0
vn 0 1 0

# texcoords
vt 0.966797 0.5
vt 0.978516 0.5

# verts
v -63 0 63
v -63 0 -63
v -63 1 63
v -63 1 42
v -63 2 63
v -63 2 42
v -63 2 -46
v -63 15 -46
v -63 15 -63
v 63 0 63
v 63 0 -63
v 63 2 63
v 63 2 -46
v 63 15 -46
v 63 15 -63
v -63 0 63
v -63 1 63
v -63 2 63
v -58 1 63
v -58 2 63
v -54 1 63
v -54 2 63
v -45 1 63
v -45 2 63
v 63 0 63
v 63 2 63
v -63 2 -46
v -63 15 -46
v 63 2 -46
v 63 15 -46
v -63 0 -63
v -63 15 -63
v 63 0 -63
v 63 15 -63
v -63 0 63
v 63 0 63
v -63 0 -63
v 63 0 -63
v -63 2 63
v -58 2 63
v -54 2 63
v -45 2 63
v 63 2 63
v -58 2 62
v -54 2 62
v -45 2 62
v -39 2 62
v -50 2 59
v -39 2 59
v -50 2 58
v -49 2 58
v -58 2 52
v -53 2 52
v -53 2 51
v -49 2 51
v -63 2 42
v -58 2 42
v -63 2 -46
v 63 2 -46
v -63 15 -46
v 63 15 -46
v -63 15 -63
v 63 15 -63

# faces
f 3/1/1 2/1/1 1/1/1
f 4/1/1 2/1/1 3/1/1
f 5/2/1 4/2/1 3/2/1
f 6/1/1 2/1/1 4/1/1
f 6/2/1 4/2/1 5/2/1
f 7/1/1 2/1/1 6/1/1
f 8/1/1 2/1/1 7/1/1
f 9/1/1 2/1/1 8/1/1
f 10/1/2 11/1/2 12/1/2
f 12/1/2 11/1/2 13/1/2
f 13/1/2 11/1/2 14/1/2
f 14/1/2 11/1/2 15/1/2
f 19/1/3 17/1/3 16/1/3
f 19/2/3 18/2/3 17/2/3
f 20/2/3 18/2/3 19/2/3
f 21/1/3 19/1/3 16/1/3
f 21/1/3 20/1/3 19/1/3
f 22/1/3 20/1/3 21/1/3
f 23/1/3 21/1/3 16/1/3
f 23/2/3 22/2/3 21/2/3
f 24/2/3 22/2/3 23/2/3
f 25/1/3 23/1/3 16/1/3
f 25/1/3 24/1/3 23/1/3
f 26/1/3 24/1/3 25/1/3
f 29/1/3 28/1/3 27/1/3
f 30/1/3 28/1/3 29/1/3
f 31/1/4 32/1/4 33/1/4
f 33/1/4 32/1/4 34/1/4
f 37/1/5 36/1/5 35/1/5
f 38/1/5 36/1/5 37/1/5
f 39/2/6 40/2/6 44/2/6
f 40/1/6 41/1/6 44/1/6
f 41/2/6 42/2/6 45/2/6
f 44/1/6 41/1/6 45/1/6
f 42/1/6 43/1/6 46/1/6
f 45/2/6 42/2/6 46/2/6
f 46/1/6 43/1/6 47/1/6
f 44/2/6 45/2/6 48/2/6
f 45/2/6 46/2/6 48/2/6
f 46/2/6 47/2/6 48/2/6
f 47/1/6 43/1/6 49/1/6
f 48/2/6 47/2/6 49/2/6
f 44/2/6 48/2/6 50/2/6
f 48/1/6 49/1/6 50/1/6
f 50/1/6 49/1/6 51/1/6
f 39/2/6 44/2/6 52/2/6
f 44/2/6 50/2/6 52/2/6
f 50/2/6 51/2/6 52/2/6
f 52/2/6 51/2/6 53/2/6
f 52/1/6 53/1/6 54/1/6
f 53/2/6 51/2/6 54/2/6
f 51/1/6 49/1/6 55/1/6
f 54/2/6 51/2/6 55/2/6
f 39/2/6 52/2/6 56/2/6
f 52/1/6 54/1/6 57/1/6
f 56/2/6 52/2/6 57/2/6
f 54/1/6 55/1/6 57/1/6
f 56/1/6 57/1/6 58/1/6
f 49/1/6 43/1/6 59/1/6
f 58/1/6 57/1/6 59/1/6
f 55/1/6 49/1/6 59/1/6
f 57/1/6 55/1/6 59/1/6
f 60/1/6 61/1/6 62/1/6
f 62/1/6 61/1/6 63/1/6
