# MagicaVoxel @ Ephtracy

# group
g 4x2 second (1)-2

# material
mtllib 4x2 second (1)-2.mtl
usemtl palette

# normals
vn -1 0 0
vn 1 0 0
vn 0 0 1
vn 0 0 -1
vn 0 -1 0
vn 0 1 0

# texcoords
vt 0.365234 0.5
vt 0.396484 0.5
vt 0.966797 0.5
vt 0.986328 0.5

# verts
v -63 0 63
v -63 0 -63
v -63 3 -29
v -63 3 -59
v -63 4 -29
v -63 4 -59
v -63 43 -29
v -63 43 -59
v -63 80 63
v -63 80 -63
v -61 32 63
v -61 32 7
v -61 39 63
v -61 39 28
v -61 39 7
v -61 39 -4
v -61 46 28
v -61 46 17
v -61 46 -4
v -61 46 -14
v -61 53 17
v -61 53 7
v -61 53 -14
v -61 53 -25
v -61 60 7
v -61 60 -4
v -61 60 -25
v -61 60 -36
v -61 67 -4
v -61 67 -14
v -61 67 -36
v -61 67 -61
v -61 74 -14
v -61 74 -25
v -61 80 -25
v -61 80 -61
v -23 0 63
v -23 0 -25
v -23 3 63
v -23 3 -25
v -23 4 63
v -23 4 -25
v -22 4 63
v -22 4 25
v -22 32 63
v -22 32 25
v 24 4 25
v 24 4 4
v 24 8 14
v 24 8 4
v 24 15 25
v 24 15 14
v 61 4 4
v 61 4 -61
v 61 8 14
v 61 8 4
v 61 15 25
v 61 15 14
v 61 22 63
v 61 22 25
v 61 80 63
v 61 80 -61
v -62 0 63
v -62 0 -25
v -62 3 -25
v -62 4 -25
v -62 4 -29
v -62 4 -59
v -62 4 -61
v -62 43 -29
v -62 43 -59
v -62 80 63
v -62 80 -61
v -22 32 25
v -22 32 7
v -22 39 28
v -22 39 25
v -22 39 7
v -22 39 -4
v -22 46 28
v -22 46 17
v -22 46 -4
v -22 46 -14
v -22 53 17
v -22 53 7
v -22 53 -14
v -22 53 -25
v -22 60 7
v -22 60 -4
v -22 60 -25
v -22 60 -36
v -22 67 -4
v -22 67 -14
v -22 67 -36
v -22 67 -61
v -22 74 -14
v -22 74 -25
v -22 80 -25
v -22 80 -61
v 10 32 63
v 10 32 25
v 10 39 63
v 10 39 25
v 21 25 63
v 21 25 25
v 21 32 63
v 21 32 25
v 31 22 63
v 31 22 25
v 31 25 63
v 31 25 25
v 63 0 63
v 63 0 -63
v 63 80 63
v 63 80 -63
v -63 0 63
v -63 80 63
v -62 0 63
v -62 80 63
v -61 32 63
v -61 39 63
v -23 0 63
v -23 3 63
v -23 4 63
v -22 3 63
v -22 4 63
v -22 32 63
v 10 32 63
v 10 39 63
v 21 25 63
v 21 32 63
v 31 22 63
v 31 25 63
v 61 3 63
v 61 22 63
v 61 80 63
v 62 0 63
v 62 80 63
v 63 0 63
v 63 80 63
v -61 39 28
v -61 46 28
v -22 39 28
v -22 46 28
v -61 46 17
v -61 53 17
v -22 46 17
v -22 53 17
v -61 53 7
v -61 60 7
v -22 53 7
v -22 60 7
v -61 60 -4
v -61 67 -4
v -22 60 -4
v -22 67 -4
v -61 67 -14
v -61 74 -14
v -22 67 -14
v -22 74 -14
v -62 0 -25
v -62 3 -25
v -62 4 -25
v -61 74 -25
v -61 80 -25
v -23 0 -25
v -23 3 -25
v -23 4 -25
v -22 74 -25
v -22 80 -25
v -63 4 -59
v -63 43 -59
v -62 4 -59
v -62 43 -59
v -62 4 -61
v -62 80 -61
v -61 67 -61
v -61 80 -61
v -22 67 -61
v -22 80 -61
v 61 4 -61
v 61 80 -61
v -22 4 25
v -22 32 25
v -22 39 25
v 10 32 25
v 10 39 25
v 21 25 25
v 21 32 25
v 24 4 25
v 24 15 25
v 31 22 25
v 31 25 25
v 61 15 25
v 61 22 25
v 24 8 14
v 24 15 14
v 61 8 14
v 61 15 14
v -61 32 7
v -61 39 7
v -22 32 7
v -22 39 7
v 24 4 4
v 24 8 4
v 61 4 4
v 61 8 4
v -61 39 -4
v -61 46 -4
v -22 39 -4
v -22 46 -4
v -61 46 -14
v -61 53 -14
v -22 46 -14
v -22 53 -14
v -61 53 -25
v -61 60 -25
v -22 53 -25
v -22 60 -25
v -63 4 -29
v -63 43 -29
v -62 4 -29
v -62 43 -29
v -61 60 -36
v -61 67 -36
v -22 60 -36
v -22 67 -36
v -63 0 -63
v -63 80 -63
v 62 0 -63
v 62 80 -63
v 63 0 -63
v 63 80 -63
v -63 0 63
v -62 0 63
v -23 0 63
v 62 0 63
v 63 0 63
v -22 0 62
v 62 0 62
v -22 0 25
v 24 0 25
v 24 0 4
v 62 0 4
v -62 0 -25
v -23 0 -25
v -63 0 -63
v 62 0 -63
v 63 0 -63
v -61 32 63
v -22 32 63
v -22 32 25
v -61 32 7
v -22 32 7
v -61 39 7
v -22 39 7
v -61 39 -4
v -22 39 -4
v -63 43 -29
v -62 43 -29
v -63 43 -59
v -62 43 -59
v -61 46 -4
v -22 46 -4
v -61 46 -14
v -22 46 -14
v -61 53 -14
v -22 53 -14
v -61 53 -25
v -22 53 -25
v -61 60 -25
v -22 60 -25
v -61 60 -36
v -22 60 -36
v -61 67 -36
v -22 67 -36
v -61 67 -61
v -22 67 -61
v -23 4 63
v -22 4 63
v -22 4 25
v 24 4 25
v 24 4 4
v 61 4 4
v -62 4 -25
v -23 4 -25
v -63 4 -29
v -62 4 -29
v -63 4 -59
v -62 4 -59
v -62 4 -61
v 61 4 -61
v 24 8 14
v 61 8 14
v 24 8 4
v 61 8 4
v 24 15 25
v 61 15 25
v 24 15 14
v 61 15 14
v 31 22 63
v 61 22 63
v 31 22 25
v 61 22 25
v 21 25 63
v 31 25 63
v 21 25 25
v 31 25 25
v 10 32 63
v 21 32 63
v 10 32 25
v 21 32 25
v -61 39 63
v 10 39 63
v -61 39 28
v -22 39 28
v -22 39 25
v 10 39 25
v -61 46 28
v -22 46 28
v -61 46 17
v -22 46 17
v -61 53 17
v -22 53 17
v -61 53 7
v -22 53 7
v -61 60 7
v -22 60 7
v -61 60 -4
v -22 60 -4
v -61 67 -4
v -22 67 -4
v -61 67 -14
v -22 67 -14
v -61 74 -14
v -22 74 -14
v -61 74 -25
v -22 74 -25
v -63 80 63
v -62 80 63
v 61 80 63
v 62 80 63
v 63 80 63
v -61 80 -25
v -22 80 -25
v -62 80 -61
v -61 80 -61
v -22 80 -61
v 61 80 -61
v -63 80 -63
v 62 80 -63
v 63 80 -63

# faces
f 3/3/1 2/3/1 1/3/1
f 4/3/1 2/3/1 3/3/1
f 5/3/1 3/3/1 1/3/1
f 5/1/1 4/1/1 3/1/1
f 6/3/1 2/3/1 4/3/1
f 6/1/1 4/1/1 5/1/1
f 7/3/1 5/3/1 1/3/1
f 8/3/1 2/3/1 6/3/1
f 9/3/1 7/3/1 1/3/1
f 9/3/1 8/3/1 7/3/1
f 10/3/1 2/3/1 8/3/1
f 10/3/1 8/3/1 9/3/1
f 13/2/1 12/2/1 11/2/1
f 14/2/1 12/2/1 13/2/1
f 15/2/1 12/2/1 14/2/1
f 17/2/1 16/2/1 15/2/1
f 17/2/1 15/2/1 14/2/1
f 18/2/1 16/2/1 17/2/1
f 19/2/1 16/2/1 18/2/1
f 21/2/1 20/2/1 19/2/1
f 21/2/1 19/2/1 18/2/1
f 22/2/1 20/2/1 21/2/1
f 23/2/1 20/2/1 22/2/1
f 25/2/1 24/2/1 23/2/1
f 25/2/1 23/2/1 22/2/1
f 26/2/1 24/2/1 25/2/1
f 27/2/1 24/2/1 26/2/1
f 29/2/1 28/2/1 27/2/1
f 29/2/1 27/2/1 26/2/1
f 30/2/1 28/2/1 29/2/1
f 31/2/1 28/2/1 30/2/1
f 33/2/1 32/2/1 31/2/1
f 33/2/1 31/2/1 30/2/1
f 34/2/1 32/2/1 33/2/1
f 35/2/1 32/2/1 34/2/1
f 36/2/1 32/2/1 35/2/1
f 39/3/1 38/3/1 37/3/1
f 40/3/1 38/3/1 39/3/1
f 41/1/1 40/1/1 39/1/1
f 42/1/1 40/1/1 41/1/1
f 45/2/1 44/2/1 43/2/1
f 46/2/1 44/2/1 45/2/1
f 49/2/1 48/2/1 47/2/1
f 50/2/1 48/2/1 49/2/1
f 51/2/1 49/2/1 47/2/1
f 52/2/1 49/2/1 51/2/1
f 56/3/1 54/3/1 53/3/1
f 58/3/1 56/3/1 55/3/1
f 60/3/1 58/3/1 57/3/1
f 61/3/1 60/3/1 59/3/1
f 62/3/1 54/3/1 56/3/1
f 62/3/1 60/3/1 61/3/1
f 62/3/1 56/3/1 58/3/1
f 62/3/1 58/3/1 60/3/1
f 63/3/2 64/3/2 65/3/2
f 63/3/2 65/3/2 66/3/2
f 66/3/2 67/3/2 70/3/2
f 68/3/2 69/3/2 71/3/2
f 63/3/2 66/3/2 72/3/2
f 70/3/2 71/3/2 72/3/2
f 66/3/2 70/3/2 72/3/2
f 71/3/2 69/3/2 73/3/2
f 72/3/2 71/3/2 73/3/2
f 74/2/2 75/2/2 77/2/2
f 77/2/2 75/2/2 78/2/2
f 76/2/2 77/2/2 80/2/2
f 78/2/2 79/2/2 80/2/2
f 77/2/2 78/2/2 80/2/2
f 80/2/2 79/2/2 81/2/2
f 81/2/2 79/2/2 82/2/2
f 82/2/2 83/2/2 84/2/2
f 81/2/2 82/2/2 84/2/2
f 84/2/2 83/2/2 85/2/2
f 85/2/2 83/2/2 86/2/2
f 86/2/2 87/2/2 88/2/2
f 85/2/2 86/2/2 88/2/2
f 88/2/2 87/2/2 89/2/2
f 89/2/2 87/2/2 90/2/2
f 90/2/2 91/2/2 92/2/2
f 89/2/2 90/2/2 92/2/2
f 92/2/2 91/2/2 93/2/2
f 93/2/2 91/2/2 94/2/2
f 94/2/2 95/2/2 96/2/2
f 93/2/2 94/2/2 96/2/2
f 96/2/2 95/2/2 97/2/2
f 97/2/2 95/2/2 98/2/2
f 98/2/2 95/2/2 99/2/2
f 100/2/2 101/2/2 102/2/2
f 102/2/2 101/2/2 103/2/2
f 104/2/2 105/2/2 106/2/2
f 106/2/2 105/2/2 107/2/2
f 108/2/2 109/2/2 110/2/2
f 110/2/2 109/2/2 111/2/2
f 112/4/2 113/4/2 114/4/2
f 114/4/2 113/4/2 115/4/2
f 118/3/3 117/3/3 116/3/3
f 119/3/3 117/3/3 118/3/3
f 125/3/3 123/3/3 122/3/3
f 125/1/3 124/1/3 123/1/3
f 126/1/3 124/1/3 125/1/3
f 127/2/3 121/2/3 120/2/3
f 128/2/3 126/2/3 125/2/3
f 128/2/3 127/2/3 126/2/3
f 128/2/3 121/2/3 127/2/3
f 129/2/3 121/2/3 128/2/3
f 130/2/3 128/2/3 125/2/3
f 131/2/3 128/2/3 130/2/3
f 132/2/3 130/2/3 125/2/3
f 133/2/3 130/2/3 132/2/3
f 134/3/3 125/3/3 122/3/3
f 134/2/3 132/2/3 125/2/3
f 135/2/3 132/2/3 134/2/3
f 137/3/3 135/3/3 134/3/3
f 137/3/3 136/3/3 135/3/3
f 137/3/3 134/3/3 122/3/3
f 138/3/3 136/3/3 137/3/3
f 139/4/3 138/4/3 137/4/3
f 140/4/3 138/4/3 139/4/3
f 143/2/3 142/2/3 141/2/3
f 144/2/3 142/2/3 143/2/3
f 147/2/3 146/2/3 145/2/3
f 148/2/3 146/2/3 147/2/3
f 151/2/3 150/2/3 149/2/3
f 152/2/3 150/2/3 151/2/3
f 155/2/3 154/2/3 153/2/3
f 156/2/3 154/2/3 155/2/3
f 159/2/3 158/2/3 157/2/3
f 160/2/3 158/2/3 159/2/3
f 166/3/3 162/3/3 161/3/3
f 167/1/3 163/1/3 162/1/3
f 167/3/3 162/3/3 166/3/3
f 168/1/3 163/1/3 167/1/3
f 169/2/3 165/2/3 164/2/3
f 170/2/3 165/2/3 169/2/3
f 173/3/3 172/3/3 171/3/3
f 174/3/3 172/3/3 173/3/3
f 177/3/3 176/3/3 175/3/3
f 178/3/3 176/3/3 177/3/3
f 179/3/3 177/3/3 175/3/3
f 181/3/3 179/3/3 175/3/3
f 181/3/3 180/3/3 179/3/3
f 182/3/3 180/3/3 181/3/3
f 183/2/4 184/2/4 186/2/4
f 184/2/4 185/2/4 186/2/4
f 186/2/4 185/2/4 187/2/4
f 183/2/4 186/2/4 188/2/4
f 188/2/4 186/2/4 189/2/4
f 183/2/4 188/2/4 190/2/4
f 190/2/4 188/2/4 191/2/4
f 191/2/4 188/2/4 192/2/4
f 192/2/4 188/2/4 193/2/4
f 191/2/4 192/2/4 194/2/4
f 194/2/4 192/2/4 195/2/4
f 196/2/4 197/2/4 198/2/4
f 198/2/4 197/2/4 199/2/4
f 200/2/4 201/2/4 202/2/4
f 202/2/4 201/2/4 203/2/4
f 204/2/4 205/2/4 206/2/4
f 206/2/4 205/2/4 207/2/4
f 208/2/4 209/2/4 210/2/4
f 210/2/4 209/2/4 211/2/4
f 212/2/4 213/2/4 214/2/4
f 214/2/4 213/2/4 215/2/4
f 216/2/4 217/2/4 218/2/4
f 218/2/4 217/2/4 219/2/4
f 220/3/4 221/3/4 222/3/4
f 222/3/4 221/3/4 223/3/4
f 224/2/4 225/2/4 226/2/4
f 226/2/4 225/2/4 227/2/4
f 228/3/4 229/3/4 230/3/4
f 230/3/4 229/3/4 231/3/4
f 230/4/4 231/4/4 232/4/4
f 232/4/4 231/4/4 233/4/4
f 239/3/5 237/3/5 236/3/5
f 240/4/5 238/4/5 237/4/5
f 240/3/5 237/3/5 239/3/5
f 241/3/5 239/3/5 236/3/5
f 241/2/5 240/2/5 239/2/5
f 242/2/5 240/2/5 241/2/5
f 243/3/5 242/3/5 241/3/5
f 243/2/5 240/2/5 242/2/5
f 244/4/5 238/4/5 240/4/5
f 244/2/5 240/2/5 243/2/5
f 245/3/5 235/3/5 234/3/5
f 246/3/5 243/3/5 241/3/5
f 246/3/5 241/3/5 236/3/5
f 246/3/5 244/3/5 243/3/5
f 247/3/5 245/3/5 234/3/5
f 247/3/5 246/3/5 245/3/5
f 248/4/5 238/4/5 244/4/5
f 248/3/5 246/3/5 247/3/5
f 248/3/5 244/3/5 246/3/5
f 249/4/5 238/4/5 248/4/5
f 252/2/5 251/2/5 250/2/5
f 253/2/5 252/2/5 250/2/5
f 254/2/5 252/2/5 253/2/5
f 257/2/5 256/2/5 255/2/5
f 258/2/5 256/2/5 257/2/5
f 261/3/5 260/3/5 259/3/5
f 262/3/5 260/3/5 261/3/5
f 265/2/5 264/2/5 263/2/5
f 266/2/5 264/2/5 265/2/5
f 269/2/5 268/2/5 267/2/5
f 270/2/5 268/2/5 269/2/5
f 273/2/5 272/2/5 271/2/5
f 274/2/5 272/2/5 273/2/5
f 277/2/5 276/2/5 275/2/5
f 278/2/5 276/2/5 277/2/5
f 279/1/6 280/1/6 281/1/6
f 281/1/6 282/1/6 283/1/6
f 279/1/6 281/1/6 286/1/6
f 283/1/6 284/1/6 286/1/6
f 281/1/6 283/1/6 286/1/6
f 285/1/6 286/1/6 288/1/6
f 287/1/6 288/1/6 289/1/6
f 288/1/6 286/1/6 290/1/6
f 289/1/6 288/1/6 290/1/6
f 290/1/6 286/1/6 291/1/6
f 286/1/6 284/1/6 292/1/6
f 291/1/6 286/1/6 292/1/6
f 293/2/6 294/2/6 295/2/6
f 295/2/6 294/2/6 296/2/6
f 297/2/6 298/2/6 299/2/6
f 299/2/6 298/2/6 300/2/6
f 301/2/6 302/2/6 303/2/6
f 303/2/6 302/2/6 304/2/6
f 305/2/6 306/2/6 307/2/6
f 307/2/6 306/2/6 308/2/6
f 309/2/6 310/2/6 311/2/6
f 311/2/6 310/2/6 312/2/6
f 313/2/6 314/2/6 315/2/6
f 315/2/6 314/2/6 316/2/6
f 316/2/6 314/2/6 317/2/6
f 317/2/6 314/2/6 318/2/6
f 319/2/6 320/2/6 321/2/6
f 321/2/6 320/2/6 322/2/6
f 323/2/6 324/2/6 325/2/6
f 325/2/6 324/2/6 326/2/6
f 327/2/6 328/2/6 329/2/6
f 329/2/6 328/2/6 330/2/6
f 331/2/6 332/2/6 333/2/6
f 333/2/6 332/2/6 334/2/6
f 335/2/6 336/2/6 337/2/6
f 337/2/6 336/2/6 338/2/6
f 339/3/6 340/3/6 346/3/6
f 344/2/6 345/2/6 347/2/6
f 347/2/6 345/2/6 348/2/6
f 341/3/6 342/3/6 349/3/6
f 339/3/6 346/3/6 350/3/6
f 348/3/6 349/3/6 350/3/6
f 347/3/6 348/3/6 350/3/6
f 346/3/6 347/3/6 350/3/6
f 349/3/6 342/3/6 351/3/6
f 350/3/6 349/3/6 351/3/6
f 342/4/6 343/4/6 351/4/6
f 351/4/6 343/4/6 352/4/6
