# MagicaVoxel @ Ephtracy

# group
g 4x2 first (1)-3

# material
mtllib 4x2 first (1)-3.mtl
usemtl palette

# normals
vn -1 0 0
vn 1 0 0
vn 0 0 1
vn 0 0 -1
vn 0 -1 0
vn 0 1 0

# texcoords
vt 0.966797 0.5
vt 0.974609 0.5
vt 0.986328 0.5

# verts
v -63 0 63
v -63 0 -63
v -63 80 63
v -63 80 -63
v -15 1 -62
v -15 1 -63
v -15 41 -62
v -15 41 -63
v -61 1 -4
v -61 1 -62
v -61 80 -4
v -61 80 -62
v -45 1 -62
v -45 1 -63
v -45 41 -62
v -45 41 -63
v -21 1 63
v -21 1 62
v -21 1 -3
v -21 55 -2
v -21 55 -3
v -21 80 63
v -21 80 62
v -21 80 -2
v 63 0 63
v 63 0 62
v 63 0 -63
v 63 1 63
v 63 1 62
v 63 1 -3
v 63 1 -4
v 63 1 -62
v 63 55 -2
v 63 55 -3
v 63 80 -2
v 63 80 -4
v 63 80 -62
v 63 80 -63
v -63 0 63
v -63 80 63
v -21 1 63
v -21 80 63
v 63 0 63
v 63 1 63
v -21 55 -2
v -21 80 -2
v 63 55 -2
v 63 80 -2
v -21 1 -3
v -21 55 -3
v 63 1 -3
v 63 55 -3
v -61 1 -62
v -61 80 -62
v -50 1 -62
v -47 1 -62
v -45 1 -62
v -45 41 -62
v -15 1 -62
v -15 41 -62
v -14 1 -62
v -11 1 -62
v 4 1 -62
v 7 1 -62
v 22 1 -62
v 25 1 -62
v 40 1 -62
v 43 1 -62
v 58 1 -62
v 61 1 -62
v 63 1 -62
v 63 80 -62
v -61 1 -4
v -61 80 -4
v -50 1 -4
v -47 1 -4
v -32 1 -4
v -29 1 -4
v -14 1 -4
v -11 1 -4
v 4 1 -4
v 7 1 -4
v 22 1 -4
v 25 1 -4
v 40 1 -4
v 43 1 -4
v 58 1 -4
v 61 1 -4
v 63 1 -4
v 63 80 -4
v -63 0 -63
v -63 80 -63
v -62 0 -63
v -62 80 -63
v -50 0 -63
v -50 1 -63
v -47 0 -63
v -47 1 -63
v -45 1 -63
v -45 41 -63
v -32 0 -63
v -32 1 -63
v -29 0 -63
v -29 1 -63
v -15 1 -63
v -15 41 -63
v -14 0 -63
v -14 1 -63
v -11 0 -63
v -11 1 -63
v 4 0 -63
v 4 1 -63
v 7 0 -63
v 7 1 -63
v 22 0 -63
v 22 1 -63
v 25 0 -63
v 25 1 -63
v 40 0 -63
v 40 1 -63
v 43 0 -63
v 43 1 -63
v 58 0 -63
v 58 1 -63
v 61 0 -63
v 61 1 -63
v 63 0 -63
v 63 80 -63
v -63 0 63
v 63 0 63
v -62 0 62
v 63 0 62
v -50 0 -4
v -47 0 -4
v -32 0 -4
v -29 0 -4
v -14 0 -4
v -11 0 -4
v 4 0 -4
v 7 0 -4
v 22 0 -4
v 25 0 -4
v 40 0 -4
v 43 0 -4
v 58 0 -4
v 61 0 -4
v -63 0 -63
v -62 0 -63
v -50 0 -63
v -47 0 -63
v -32 0 -63
v -29 0 -63
v -14 0 -63
v -11 0 -63
v 4 0 -63
v 7 0 -63
v 22 0 -63
v 25 0 -63
v 40 0 -63
v 43 0 -63
v 58 0 -63
v 61 0 -63
v 63 0 -63
v -45 41 -62
v -15 41 -62
v -45 41 -63
v -15 41 -63
v -21 55 -2
v 63 55 -2
v -21 55 -3
v 63 55 -3
v -21 1 63
v 63 1 63
v -21 1 62
v 63 1 62
v -21 1 -3
v 63 1 -3
v -61 1 -4
v -50 1 -4
v -47 1 -4
v -32 1 -4
v -29 1 -4
v -14 1 -4
v -11 1 -4
v 4 1 -4
v 7 1 -4
v 22 1 -4
v 25 1 -4
v 40 1 -4
v 43 1 -4
v 58 1 -4
v 61 1 -4
v 63 1 -4
v -61 1 -62
v -50 1 -62
v -47 1 -62
v -45 1 -62
v -15 1 -62
v -14 1 -62
v -11 1 -62
v 4 1 -62
v 7 1 -62
v 22 1 -62
v 25 1 -62
v 40 1 -62
v 43 1 -62
v 58 1 -62
v 61 1 -62
v 63 1 -62
v -45 1 -63
v -32 1 -63
v -29 1 -63
v -15 1 -63
v -63 80 63
v -21 80 63
v -62 80 62
v -21 80 62
v -21 80 -2
v 63 80 -2
v -61 80 -4
v 63 80 -4
v -61 80 -62
v 63 80 -62
v -63 80 -63
v -62 80 -63
v 63 80 -63

# faces
f 3/3/1 2/3/1 1/3/1
f 4/3/1 2/3/1 3/3/1
f 7/1/1 6/1/1 5/1/1
f 8/1/1 6/1/1 7/1/1
f 9/1/2 10/1/2 11/1/2
f 11/1/2 10/1/2 12/1/2
f 13/1/2 14/1/2 15/1/2
f 15/1/2 14/1/2 16/1/2
f 18/1/2 19/1/2 20/1/2
f 20/1/2 19/1/2 21/1/2
f 17/3/2 18/3/2 22/3/2
f 18/1/2 20/1/2 23/1/2
f 22/3/2 18/3/2 23/3/2
f 23/1/2 20/1/2 24/1/2
f 25/3/2 26/3/2 28/3/2
f 26/1/2 27/1/2 29/1/2
f 28/3/2 26/3/2 29/3/2
f 29/1/2 27/1/2 30/1/2
f 30/1/2 27/1/2 31/1/2
f 31/1/2 27/1/2 32/1/2
f 30/1/2 31/1/2 34/1/2
f 33/1/2 34/1/2 35/1/2
f 34/1/2 31/1/2 36/1/2
f 35/1/2 34/1/2 36/1/2
f 32/1/2 27/1/2 37/1/2
f 37/1/2 27/1/2 38/1/2
f 41/3/3 40/3/3 39/3/3
f 42/3/3 40/3/3 41/3/3
f 43/3/3 41/3/3 39/3/3
f 44/3/3 41/3/3 43/3/3
f 47/1/3 46/1/3 45/1/3
f 48/1/3 46/1/3 47/1/3
f 51/1/3 50/1/3 49/1/3
f 52/1/3 50/1/3 51/1/3
f 55/1/3 54/1/3 53/1/3
f 56/1/3 54/1/3 55/1/3
f 57/1/3 54/1/3 56/1/3
f 58/1/3 54/1/3 57/1/3
f 60/1/3 54/1/3 58/1/3
f 61/1/3 60/1/3 59/1/3
f 62/1/3 60/1/3 61/1/3
f 63/1/3 60/1/3 62/1/3
f 64/1/3 60/1/3 63/1/3
f 65/1/3 60/1/3 64/1/3
f 66/1/3 60/1/3 65/1/3
f 67/1/3 60/1/3 66/1/3
f 68/1/3 60/1/3 67/1/3
f 69/1/3 60/1/3 68/1/3
f 70/1/3 60/1/3 69/1/3
f 71/1/3 60/1/3 70/1/3
f 72/1/3 54/1/3 60/1/3
f 72/1/3 60/1/3 71/1/3
f 73/1/4 74/1/4 75/1/4
f 75/1/4 74/1/4 76/1/4
f 76/1/4 74/1/4 77/1/4
f 77/1/4 74/1/4 78/1/4
f 78/1/4 74/1/4 79/1/4
f 79/1/4 74/1/4 80/1/4
f 80/1/4 74/1/4 81/1/4
f 81/1/4 74/1/4 82/1/4
f 82/1/4 74/1/4 83/1/4
f 83/1/4 74/1/4 84/1/4
f 84/1/4 74/1/4 85/1/4
f 85/1/4 74/1/4 86/1/4
f 86/1/4 74/1/4 87/1/4
f 87/1/4 74/1/4 88/1/4
f 88/1/4 74/1/4 89/1/4
f 89/1/4 74/1/4 90/1/4
f 91/3/4 92/3/4 93/3/4
f 93/3/4 92/3/4 94/3/4
f 93/1/4 94/1/4 95/1/4
f 95/1/4 94/1/4 96/1/4
f 95/2/4 96/2/4 97/2/4
f 96/1/4 94/1/4 98/1/4
f 97/2/4 96/2/4 98/2/4
f 97/1/4 98/1/4 99/1/4
f 98/1/4 94/1/4 99/1/4
f 99/1/4 94/1/4 100/1/4
f 97/1/4 99/1/4 101/1/4
f 101/1/4 99/1/4 102/1/4
f 101/2/4 102/2/4 103/2/4
f 103/2/4 102/2/4 104/2/4
f 103/1/4 104/1/4 105/1/4
f 100/1/4 94/1/4 106/1/4
f 103/1/4 105/1/4 107/1/4
f 105/1/4 106/1/4 107/1/4
f 107/1/4 106/1/4 108/1/4
f 107/2/4 108/2/4 109/2/4
f 108/1/4 106/1/4 110/1/4
f 109/2/4 108/2/4 110/2/4
f 109/1/4 110/1/4 111/1/4
f 110/1/4 106/1/4 112/1/4
f 111/1/4 110/1/4 112/1/4
f 111/2/4 112/2/4 113/2/4
f 112/1/4 106/1/4 114/1/4
f 113/2/4 112/2/4 114/2/4
f 113/1/4 114/1/4 115/1/4
f 114/1/4 106/1/4 116/1/4
f 115/1/4 114/1/4 116/1/4
f 115/2/4 116/2/4 117/2/4
f 116/1/4 106/1/4 118/1/4
f 117/2/4 116/2/4 118/2/4
f 117/1/4 118/1/4 119/1/4
f 118/1/4 106/1/4 120/1/4
f 119/1/4 118/1/4 120/1/4
f 119/2/4 120/2/4 121/2/4
f 120/1/4 106/1/4 122/1/4
f 121/2/4 120/2/4 122/2/4
f 121/1/4 122/1/4 123/1/4
f 122/1/4 106/1/4 124/1/4
f 123/1/4 122/1/4 124/1/4
f 123/2/4 124/2/4 125/2/4
f 124/1/4 106/1/4 126/1/4
f 125/2/4 124/2/4 126/2/4
f 125/1/4 126/1/4 127/1/4
f 106/1/4 94/1/4 128/1/4
f 127/1/4 126/1/4 128/1/4
f 126/1/4 106/1/4 128/1/4
f 131/3/5 130/3/5 129/3/5
f 132/3/5 130/3/5 131/3/5
f 133/1/5 132/1/5 131/1/5
f 134/1/5 132/1/5 133/1/5
f 135/1/5 132/1/5 134/1/5
f 136/1/5 132/1/5 135/1/5
f 137/1/5 132/1/5 136/1/5
f 138/1/5 132/1/5 137/1/5
f 139/1/5 132/1/5 138/1/5
f 140/1/5 132/1/5 139/1/5
f 141/1/5 132/1/5 140/1/5
f 142/1/5 132/1/5 141/1/5
f 143/1/5 132/1/5 142/1/5
f 144/1/5 132/1/5 143/1/5
f 145/1/5 132/1/5 144/1/5
f 146/1/5 132/1/5 145/1/5
f 147/3/5 131/3/5 129/3/5
f 148/1/5 133/1/5 131/1/5
f 148/3/5 131/3/5 147/3/5
f 149/2/5 134/2/5 133/2/5
f 149/1/5 133/1/5 148/1/5
f 150/1/5 135/1/5 134/1/5
f 150/2/5 134/2/5 149/2/5
f 151/2/5 136/2/5 135/2/5
f 151/1/5 135/1/5 150/1/5
f 152/1/5 137/1/5 136/1/5
f 152/2/5 136/2/5 151/2/5
f 153/2/5 138/2/5 137/2/5
f 153/1/5 137/1/5 152/1/5
f 154/1/5 139/1/5 138/1/5
f 154/2/5 138/2/5 153/2/5
f 155/2/5 140/2/5 139/2/5
f 155/1/5 139/1/5 154/1/5
f 156/1/5 141/1/5 140/1/5
f 156/2/5 140/2/5 155/2/5
f 157/2/5 142/2/5 141/2/5
f 157/1/5 141/1/5 156/1/5
f 158/1/5 143/1/5 142/1/5
f 158/2/5 142/2/5 157/2/5
f 159/2/5 144/2/5 143/2/5
f 159/1/5 143/1/5 158/1/5
f 160/1/5 145/1/5 144/1/5
f 160/2/5 144/2/5 159/2/5
f 161/2/5 146/2/5 145/2/5
f 161/1/5 145/1/5 160/1/5
f 162/1/5 132/1/5 146/1/5
f 162/2/5 146/2/5 161/2/5
f 163/1/5 132/1/5 162/1/5
f 166/1/5 165/1/5 164/1/5
f 167/1/5 165/1/5 166/1/5
f 170/1/5 169/1/5 168/1/5
f 171/1/5 169/1/5 170/1/5
f 172/3/6 173/3/6 174/3/6
f 174/3/6 173/3/6 175/3/6
f 174/1/6 175/1/6 176/1/6
f 176/1/6 175/1/6 177/1/6
f 178/1/6 179/1/6 194/1/6
f 179/2/6 180/2/6 195/2/6
f 194/1/6 179/1/6 195/1/6
f 180/1/6 181/1/6 196/1/6
f 195/2/6 180/2/6 196/2/6
f 196/1/6 181/1/6 197/1/6
f 182/1/6 183/1/6 198/1/6
f 183/2/6 184/2/6 199/2/6
f 198/1/6 183/1/6 199/1/6
f 184/1/6 185/1/6 200/1/6
f 199/2/6 184/2/6 200/2/6
f 185/2/6 186/2/6 201/2/6
f 200/1/6 185/1/6 201/1/6
f 186/1/6 187/1/6 202/1/6
f 201/2/6 186/2/6 202/2/6
f 187/2/6 188/2/6 203/2/6
f 202/1/6 187/1/6 203/1/6
f 188/1/6 189/1/6 204/1/6
f 203/2/6 188/2/6 204/2/6
f 189/2/6 190/2/6 205/2/6
f 204/1/6 189/1/6 205/1/6
f 190/1/6 191/1/6 206/1/6
f 205/2/6 190/2/6 206/2/6
f 191/2/6 192/2/6 207/2/6
f 206/1/6 191/1/6 207/1/6
f 192/1/6 193/1/6 208/1/6
f 207/2/6 192/2/6 208/2/6
f 208/1/6 193/1/6 209/1/6
f 197/1/6 181/1/6 210/1/6
f 181/2/6 182/2/6 211/2/6
f 210/1/6 181/1/6 211/1/6
f 182/1/6 198/1/6 212/1/6
f 211/2/6 182/2/6 212/2/6
f 212/1/6 198/1/6 213/1/6
f 214/3/6 215/3/6 216/3/6
f 216/3/6 215/3/6 217/3/6
f 216/1/6 217/1/6 218/1/6
f 216/1/6 218/1/6 220/1/6
f 218/1/6 219/1/6 220/1/6
f 220/1/6 219/1/6 221/1/6
f 216/1/6 220/1/6 222/1/6
f 214/3/6 216/3/6 224/3/6
f 222/1/6 223/1/6 225/1/6
f 224/3/6 216/3/6 225/3/6
f 216/1/6 222/1/6 225/1/6
f 225/1/6 223/1/6 226/1/6
