# MagicaVoxel @ Ephtracy

# group
g 4x2 fourth (1)-3

# material
mtllib 4x2 fourth (1)-3.mtl
usemtl palette

# normals
vn -1 0 0
vn 1 0 0
vn 0 0 1
vn 0 0 -1
vn 0 -1 0
vn 0 1 0

# texcoords
vt 0.373047 0.5
vt 0.873047 0.5
vt 0.966797 0.5
vt 0.974609 0.5
vt 0.986328 0.5

# verts
v -63 0 63
v -63 0 -63
v -63 80 63
v -63 80 -63
v 52 4 63
v 52 4 62
v 52 43 63
v 52 43 62
v 62 4 62
v 62 4 -30
v 62 4 -61
v 62 8 -30
v 62 8 -35
v 62 8 -36
v 62 8 -41
v 62 9 -35
v 62 9 -36
v 62 10 -36
v 62 10 -41
v 62 14 -36
v 62 14 -42
v 62 15 -42
v 62 15 -48
v 62 16 -34
v 62 16 -43
v 62 18 -34
v 62 18 -36
v 62 19 -36
v 62 19 -43
v 62 24 -44
v 62 24 -45
v 62 25 -48
v 62 25 -59
v 62 26 -44
v 62 26 -45
v 62 28 -53
v 62 28 -55
v 62 29 -53
v 62 29 -55
v 62 29 -59
v 62 29 -61
v 62 80 62
v 62 80 -61
v -61 4 62
v -61 4 -61
v -61 80 62
v -61 80 -61
v 22 4 63
v 22 4 62
v 22 43 63
v 22 43 62
v 63 0 63
v 63 0 -63
v 63 3 -30
v 63 3 -61
v 63 8 -30
v 63 8 -35
v 63 8 -36
v 63 8 -41
v 63 9 -35
v 63 9 -36
v 63 10 -36
v 63 10 -41
v 63 11 -61
v 63 11 -62
v 63 14 -36
v 63 14 -42
v 63 15 -42
v 63 15 -48
v 63 16 -34
v 63 16 -43
v 63 18 -34
v 63 18 -36
v 63 19 -36
v 63 19 -43
v 63 24 -44
v 63 24 -45
v 63 25 -48
v 63 25 -59
v 63 26 -44
v 63 26 -45
v 63 28 -53
v 63 28 -55
v 63 29 -53
v 63 29 -55
v 63 29 -59
v 63 29 -62
v 63 80 63
v 63 80 -63
v -63 0 63
v -63 80 63
v -62 0 63
v -62 80 63
v 22 2 63
v 22 3 63
v 22 4 63
v 22 43 63
v 36 3 63
v 36 4 63
v 36 43 63
v 36 58 63
v 39 3 63
v 39 4 63
v 39 43 63
v 39 58 63
v 52 2 63
v 52 3 63
v 52 4 63
v 52 43 63
v 63 0 63
v 63 80 63
v -61 4 -61
v -61 80 -61
v 21 4 -61
v 21 8 -61
v 23 4 -61
v 23 8 -61
v 24 10 -61
v 24 14 -61
v 25 24 -61
v 25 26 -61
v 26 4 -61
v 27 10 -61
v 27 14 -61
v 28 4 -61
v 28 24 -61
v 28 26 -61
v 28 27 -61
v 32 24 -61
v 32 26 -61
v 32 27 -61
v 32 33 -61
v 38 32 -61
v 38 33 -61
v 45 24 -61
v 45 26 -61
v 45 28 -61
v 45 32 -61
v 45 34 -61
v 45 36 -61
v 46 32 -61
v 46 34 -61
v 47 24 -61
v 47 26 -61
v 47 28 -61
v 47 29 -61
v 47 32 -61
v 47 36 -61
v 50 29 -61
v 50 33 -61
v 54 29 -61
v 54 33 -61
v 62 4 -61
v 62 29 -61
v 62 80 -61
v -61 4 62
v -61 80 62
v 22 4 62
v 22 43 62
v 36 43 62
v 36 58 62
v 39 43 62
v 39 58 62
v 52 4 62
v 52 43 62
v 62 4 62
v 62 80 62
v -63 0 -63
v -63 80 -63
v -62 0 -63
v -62 80 -63
v 63 0 -63
v 63 80 -63
v -63 0 63
v -62 0 63
v 63 0 63
v -63 0 -63
v -62 0 -63
v 63 0 -63
v 22 43 63
v 36 43 63
v 39 43 63
v 52 43 63
v 22 43 62
v 36 43 62
v 39 43 62
v 52 43 62
v 22 4 63
v 36 4 63
v 39 4 63
v 52 4 63
v -61 4 62
v 22 4 62
v 36 4 62
v 39 4 62
v 52 4 62
v 62 4 62
v 42 4 59
v 44 4 59
v 42 4 57
v 44 4 57
v 47 4 57
v 51 4 57
v 41 4 53
v 43 4 53
v 47 4 52
v 51 4 52
v 38 4 48
v 40 4 48
v 41 4 45
v 42 4 45
v 38 4 43
v 40 4 43
v 43 4 41
v 44 4 41
v 45 4 40
v 46 4 40
v 36 4 39
v 39 4 39
v 43 4 39
v 44 4 39
v 45 4 37
v 46 4 37
v 46 4 35
v 47 4 35
v 42 4 33
v 43 4 33
v 42 4 31
v 43 4 31
v 44 4 31
v 45 4 31
v 36 4 30
v 39 4 30
v 46 4 29
v 47 4 29
v 44 4 28
v 45 4 28
v 42 4 27
v 43 4 27
v 47 4 23
v 49 4 23
v 43 4 21
v 44 4 21
v 41 4 15
v 43 4 15
v 47 4 10
v 49 4 10
v 48 4 6
v 50 4 6
v 41 4 5
v 44 4 5
v 38 4 -0
v 41 4 -0
v 48 4 -1
v 50 4 -1
v 41 4 -4
v 42 4 -4
v 45 4 -4
v 47 4 -4
v 45 4 -6
v 47 4 -6
v 46 4 -7
v 50 4 -7
v 49 4 -12
v 50 4 -12
v 50 4 -14
v 57 4 -14
v 41 4 -15
v 42 4 -15
v 32 4 -16
v 36 4 -16
v 38 4 -18
v 41 4 -18
v 40 4 -19
v 42 4 -19
v 32 4 -25
v 36 4 -25
v 43 4 -26
v 46 4 -26
v 50 4 -27
v 57 4 -27
v 43 4 -28
v 46 4 -28
v 45 4 -29
v 46 4 -29
v 22 4 -30
v 26 4 -30
v 34 4 -30
v 36 4 -30
v 55 4 -30
v 62 4 -30
v 40 4 -32
v 42 4 -32
v 44 4 -33
v 45 4 -33
v 46 4 -33
v 48 4 -33
v 49 4 -33
v 46 4 -34
v 48 4 -34
v 54 4 -34
v 55 4 -34
v 22 4 -35
v 26 4 -35
v 44 4 -35
v 45 4 -35
v 29 4 -36
v 34 4 -36
v 36 4 -36
v 54 4 -36
v 18 4 -37
v 20 4 -37
v 26 4 -38
v 29 4 -38
v 26 4 -40
v 29 4 -40
v 22 4 -41
v 26 4 -41
v 18 4 -43
v 20 4 -43
v 22 4 -43
v 26 4 -43
v 21 4 -46
v 22 4 -46
v 26 4 -48
v 29 4 -48
v 21 4 -52
v 22 4 -52
v 21 4 -53
v 23 4 -53
v -61 4 -61
v 21 4 -61
v 23 4 -61
v 26 4 -61
v 28 4 -61
v 62 4 -61
v -63 80 63
v -62 80 63
v 63 80 63
v -61 80 62
v 62 80 62
v -61 80 -61
v 62 80 -61
v -63 80 -63
v -62 80 -63
v 63 80 -63

# faces
f 3/5/1 2/5/1 1/5/1
f 4/5/1 2/5/1 3/5/1
f 7/3/1 6/3/1 5/3/1
f 8/3/1 6/3/1 7/3/1
f 12/3/1 10/3/1 9/3/1
f 12/2/1 11/2/1 10/2/1
f 13/2/1 11/2/1 12/2/1
f 14/2/1 11/2/1 13/2/1
f 15/2/1 11/2/1 14/2/1
f 16/3/1 13/3/1 12/3/1
f 16/2/1 14/2/1 13/2/1
f 17/3/1 15/3/1 14/3/1
f 17/2/1 14/2/1 16/2/1
f 18/3/1 17/3/1 16/3/1
f 18/3/1 15/3/1 17/3/1
f 19/2/1 11/2/1 15/2/1
f 19/3/1 15/3/1 18/3/1
f 20/3/1 18/3/1 16/3/1
f 20/2/1 19/2/1 18/2/1
f 21/2/1 11/2/1 19/2/1
f 21/2/1 19/2/1 20/2/1
f 22/3/1 21/3/1 20/3/1
f 22/2/1 11/2/1 21/2/1
f 23/2/1 11/2/1 22/2/1
f 24/3/1 20/3/1 16/3/1
f 24/3/1 16/3/1 12/3/1
f 24/3/1 23/3/1 22/3/1
f 24/3/1 22/3/1 20/3/1
f 25/3/1 23/3/1 24/3/1
f 26/3/1 24/3/1 12/3/1
f 26/2/1 25/2/1 24/2/1
f 27/2/1 25/2/1 26/2/1
f 28/3/1 27/3/1 26/3/1
f 28/2/1 25/2/1 27/2/1
f 29/3/1 23/3/1 25/3/1
f 29/2/1 25/2/1 28/2/1
f 30/3/1 29/3/1 28/3/1
f 30/3/1 23/3/1 29/3/1
f 31/3/1 23/3/1 30/3/1
f 32/2/1 11/2/1 23/2/1
f 32/3/1 23/3/1 31/3/1
f 33/2/1 11/2/1 32/2/1
f 34/2/1 31/2/1 30/2/1
f 34/3/1 30/3/1 28/3/1
f 35/3/1 33/3/1 32/3/1
f 35/2/1 31/2/1 34/2/1
f 35/3/1 32/3/1 31/3/1
f 36/3/1 35/3/1 34/3/1
f 36/3/1 33/3/1 35/3/1
f 37/3/1 33/3/1 36/3/1
f 38/3/1 36/3/1 34/3/1
f 38/2/1 37/2/1 36/2/1
f 39/3/1 33/3/1 37/3/1
f 39/2/1 37/2/1 38/2/1
f 40/2/1 11/2/1 33/2/1
f 40/3/1 33/3/1 39/3/1
f 41/2/1 11/2/1 40/2/1
f 42/3/1 12/3/1 9/3/1
f 42/3/1 39/3/1 38/3/1
f 42/3/1 41/3/1 40/3/1
f 42/3/1 40/3/1 39/3/1
f 42/3/1 38/3/1 34/3/1
f 42/3/1 34/3/1 28/3/1
f 42/3/1 26/3/1 12/3/1
f 42/3/1 28/3/1 26/3/1
f 43/3/1 41/3/1 42/3/1
f 44/3/2 45/3/2 46/3/2
f 46/3/2 45/3/2 47/3/2
f 48/3/2 49/3/2 50/3/2
f 50/3/2 49/3/2 51/3/2
f 52/3/2 53/3/2 54/3/2
f 54/3/2 53/3/2 55/3/2
f 52/3/2 54/3/2 56/3/2
f 54/2/2 55/2/2 56/2/2
f 56/2/2 55/2/2 57/2/2
f 57/2/2 55/2/2 58/2/2
f 58/2/2 55/2/2 59/2/2
f 56/3/2 57/3/2 60/3/2
f 57/2/2 58/2/2 60/2/2
f 58/3/2 59/3/2 61/3/2
f 60/2/2 58/2/2 61/2/2
f 60/3/2 61/3/2 62/3/2
f 61/3/2 59/3/2 62/3/2
f 59/2/2 55/2/2 63/2/2
f 62/3/2 59/3/2 63/3/2
f 55/3/2 53/3/2 64/3/2
f 63/2/2 55/2/2 64/2/2
f 62/2/2 63/2/2 64/2/2
f 64/3/2 53/3/2 65/3/2
f 60/3/2 62/3/2 66/3/2
f 62/2/2 64/2/2 66/2/2
f 64/2/2 65/2/2 66/2/2
f 66/2/2 65/2/2 67/2/2
f 66/3/2 67/3/2 68/3/2
f 67/2/2 65/2/2 68/2/2
f 68/2/2 65/2/2 69/2/2
f 56/3/2 60/3/2 70/3/2
f 60/3/2 66/3/2 70/3/2
f 68/3/2 69/3/2 70/3/2
f 66/3/2 68/3/2 70/3/2
f 70/3/2 69/3/2 71/3/2
f 56/3/2 70/3/2 72/3/2
f 70/2/2 71/2/2 72/2/2
f 72/2/2 71/2/2 73/2/2
f 72/3/2 73/3/2 74/3/2
f 73/2/2 71/2/2 74/2/2
f 71/3/2 69/3/2 75/3/2
f 74/2/2 71/2/2 75/2/2
f 74/3/2 75/3/2 76/3/2
f 75/3/2 69/3/2 76/3/2
f 76/3/2 69/3/2 77/3/2
f 69/2/2 65/2/2 78/2/2
f 77/3/2 69/3/2 78/3/2
f 78/2/2 65/2/2 79/2/2
f 76/2/2 77/2/2 80/2/2
f 74/3/2 76/3/2 80/3/2
f 78/3/2 79/3/2 81/3/2
f 80/2/2 77/2/2 81/2/2
f 77/3/2 78/3/2 81/3/2
f 80/3/2 81/3/2 82/3/2
f 81/3/2 79/3/2 82/3/2
f 82/3/2 79/3/2 83/3/2
f 80/3/2 82/3/2 84/3/2
f 82/2/2 83/2/2 84/2/2
f 83/3/2 79/3/2 85/3/2
f 84/2/2 83/2/2 85/2/2
f 79/2/2 65/2/2 86/2/2
f 85/3/2 79/3/2 86/3/2
f 65/3/2 53/3/2 87/3/2
f 86/2/2 65/2/2 87/2/2
f 84/3/2 85/3/2 88/3/2
f 52/3/2 56/3/2 88/3/2
f 86/3/2 87/3/2 88/3/2
f 80/3/2 84/3/2 88/3/2
f 74/3/2 80/3/2 88/3/2
f 56/3/2 72/3/2 88/3/2
f 72/3/2 74/3/2 88/3/2
f 85/3/2 86/3/2 88/3/2
f 87/3/2 53/3/2 89/3/2
f 88/3/2 87/3/2 89/3/2
f 92/5/3 91/5/3 90/5/3
f 93/5/3 91/5/3 92/5/3
f 94/3/3 93/3/3 92/3/3
f 95/3/3 93/3/3 94/3/3
f 96/3/3 93/3/3 95/3/3
f 97/3/3 93/3/3 96/3/3
f 98/4/3 95/4/3 94/4/3
f 98/1/3 96/1/3 95/1/3
f 99/1/3 96/1/3 98/1/3
f 100/3/3 93/3/3 97/3/3
f 101/3/3 93/3/3 100/3/3
f 102/2/3 99/2/3 98/2/3
f 102/4/3 98/4/3 94/4/3
f 103/2/3 99/2/3 102/2/3
f 104/2/3 101/2/3 100/2/3
f 105/3/3 93/3/3 101/3/3
f 105/2/3 101/2/3 104/2/3
f 106/3/3 94/3/3 92/3/3
f 106/4/3 102/4/3 94/4/3
f 107/1/3 103/1/3 102/1/3
f 107/4/3 102/4/3 106/4/3
f 108/1/3 103/1/3 107/1/3
f 109/3/3 105/3/3 104/3/3
f 110/3/3 106/3/3 92/3/3
f 110/3/3 109/3/3 108/3/3
f 110/3/3 108/3/3 107/3/3
f 110/3/3 107/3/3 106/3/3
f 111/3/3 93/3/3 105/3/3
f 111/3/3 109/3/3 110/3/3
f 111/3/3 105/3/3 109/3/3
f 114/3/3 113/3/3 112/3/3
f 115/3/3 113/3/3 114/3/3
f 116/2/3 115/2/3 114/2/3
f 117/3/3 113/3/3 115/3/3
f 117/2/3 115/2/3 116/2/3
f 118/3/3 117/3/3 116/3/3
f 118/3/3 113/3/3 117/3/3
f 119/3/3 113/3/3 118/3/3
f 120/3/3 113/3/3 119/3/3
f 121/3/3 113/3/3 120/3/3
f 122/3/3 118/3/3 116/3/3
f 123/2/3 119/2/3 118/2/3
f 123/3/3 118/3/3 122/3/3
f 124/3/3 120/3/3 119/3/3
f 124/2/3 119/2/3 123/2/3
f 125/3/3 123/3/3 122/3/3
f 125/3/3 124/3/3 123/3/3
f 126/3/3 120/3/3 124/3/3
f 126/3/3 124/3/3 125/3/3
f 126/2/3 121/2/3 120/2/3
f 127/3/3 113/3/3 121/3/3
f 127/2/3 121/2/3 126/2/3
f 128/3/3 113/3/3 127/3/3
f 129/2/3 126/2/3 125/2/3
f 129/3/3 127/3/3 126/3/3
f 130/2/3 128/2/3 127/2/3
f 130/3/3 127/3/3 129/3/3
f 131/3/3 113/3/3 128/3/3
f 131/2/3 128/2/3 130/2/3
f 132/3/3 113/3/3 131/3/3
f 133/2/3 130/2/3 129/2/3
f 133/2/3 131/2/3 130/2/3
f 133/2/3 132/2/3 131/2/3
f 134/3/3 113/3/3 132/3/3
f 134/2/3 132/2/3 133/2/3
f 135/2/3 133/2/3 129/2/3
f 135/2/3 129/2/3 125/2/3
f 136/2/3 133/2/3 135/2/3
f 137/2/3 133/2/3 136/2/3
f 138/3/3 134/3/3 133/3/3
f 138/2/3 133/2/3 137/2/3
f 139/3/3 113/3/3 134/3/3
f 139/3/3 134/3/3 138/3/3
f 140/3/3 113/3/3 139/3/3
f 141/3/3 138/3/3 137/3/3
f 141/3/3 139/3/3 138/3/3
f 142/2/3 140/2/3 139/2/3
f 142/3/3 139/3/3 141/3/3
f 143/2/3 135/2/3 125/2/3
f 143/3/3 136/3/3 135/3/3
f 144/2/3 137/2/3 136/2/3
f 144/3/3 136/3/3 143/3/3
f 145/3/3 141/3/3 137/3/3
f 145/2/3 137/2/3 144/2/3
f 146/3/3 141/3/3 145/3/3
f 147/2/3 142/2/3 141/2/3
f 147/3/3 141/3/3 146/3/3
f 148/3/3 113/3/3 140/3/3
f 148/2/3 142/2/3 147/2/3
f 148/2/3 140/2/3 142/2/3
f 149/3/3 147/3/3 146/3/3
f 149/2/3 145/2/3 144/2/3
f 149/3/3 148/3/3 147/3/3
f 149/2/3 144/2/3 143/2/3
f 149/2/3 146/2/3 145/2/3
f 150/3/3 148/3/3 149/3/3
f 151/2/3 149/2/3 143/2/3
f 151/2/3 150/2/3 149/2/3
f 152/3/3 148/3/3 150/3/3
f 152/2/3 150/2/3 151/2/3
f 153/2/3 143/2/3 125/2/3
f 153/2/3 151/2/3 143/2/3
f 154/3/3 152/3/3 151/3/3
f 154/2/3 151/2/3 153/2/3
f 155/3/3 113/3/3 148/3/3
f 155/3/3 152/3/3 154/3/3
f 155/3/3 148/3/3 152/3/3
f 156/3/4 157/3/4 158/3/4
f 158/3/4 157/3/4 159/3/4
f 159/3/4 157/3/4 160/3/4
f 160/3/4 157/3/4 161/3/4
f 160/2/4 161/2/4 162/2/4
f 161/3/4 157/3/4 163/3/4
f 162/2/4 161/2/4 163/2/4
f 162/3/4 163/3/4 165/3/4
f 164/3/4 165/3/4 166/3/4
f 163/3/4 157/3/4 167/3/4
f 166/3/4 165/3/4 167/3/4
f 165/3/4 163/3/4 167/3/4
f 168/5/4 169/5/4 170/5/4
f 170/5/4 169/5/4 171/5/4
f 170/3/4 171/3/4 172/3/4
f 172/3/4 171/3/4 173/3/4
f 177/5/5 175/5/5 174/5/5
f 178/3/5 176/3/5 175/3/5
f 178/5/5 175/5/5 177/5/5
f 179/3/5 176/3/5 178/3/5
f 184/3/5 181/3/5 180/3/5
f 185/2/5 182/2/5 181/2/5
f 185/3/5 181/3/5 184/3/5
f 186/3/5 183/3/5 182/3/5
f 186/2/5 182/2/5 185/2/5
f 187/3/5 183/3/5 186/3/5
f 188/1/6 189/1/6 193/1/6
f 189/2/6 190/2/6 194/2/6
f 193/1/6 189/1/6 194/1/6
f 190/1/6 191/1/6 195/1/6
f 194/2/6 190/2/6 195/2/6
f 195/1/6 191/1/6 196/1/6
f 193/1/6 194/1/6 198/1/6
f 196/1/6 197/1/6 198/1/6
f 195/1/6 196/1/6 198/1/6
f 194/1/6 195/1/6 198/1/6
f 192/1/6 193/1/6 198/1/6
f 198/1/6 197/1/6 199/1/6
f 192/1/6 198/1/6 200/1/6
f 198/2/6 199/2/6 200/2/6
f 199/1/6 197/1/6 201/1/6
f 200/2/6 199/2/6 201/2/6
f 201/1/6 197/1/6 202/1/6
f 202/1/6 197/1/6 203/1/6
f 192/1/6 200/1/6 204/1/6
f 200/1/6 201/1/6 204/1/6
f 201/1/6 202/1/6 204/1/6
f 204/1/6 202/1/6 205/1/6
f 202/2/6 203/2/6 206/2/6
f 205/1/6 202/1/6 206/1/6
f 203/1/6 197/1/6 207/1/6
f 206/2/6 203/2/6 207/2/6
f 192/1/6 204/1/6 208/1/6
f 208/1/6 204/1/6 209/1/6
f 204/2/6 205/2/6 210/2/6
f 209/1/6 204/1/6 210/1/6
f 210/2/6 205/2/6 211/2/6
f 208/2/6 209/2/6 212/2/6
f 192/1/6 208/1/6 212/1/6
f 210/1/6 211/1/6 213/1/6
f 212/2/6 209/2/6 213/2/6
f 209/1/6 210/1/6 213/1/6
f 205/1/6 206/1/6 214/1/6
f 211/2/6 205/2/6 214/2/6
f 206/1/6 207/1/6 214/1/6
f 214/1/6 207/1/6 215/1/6
f 215/1/6 207/1/6 216/1/6
f 216/1/6 207/1/6 217/1/6
f 212/1/6 213/1/6 218/1/6
f 192/1/6 212/1/6 218/1/6
f 218/1/6 213/1/6 219/1/6
f 211/2/6 214/2/6 220/2/6
f 214/2/6 215/2/6 220/2/6
f 215/1/6 216/1/6 221/1/6
f 220/2/6 215/2/6 221/2/6
f 216/2/6 217/2/6 222/2/6
f 221/1/6 216/1/6 222/1/6
f 220/1/6 221/1/6 222/1/6
f 217/1/6 207/1/6 223/1/6
f 222/2/6 217/2/6 223/2/6
f 222/1/6 223/1/6 224/1/6
f 223/1/6 207/1/6 224/1/6
f 224/1/6 207/1/6 225/1/6
f 213/1/6 211/1/6 226/1/6
f 219/1/6 213/1/6 226/1/6
f 211/2/6 220/2/6 226/2/6
f 220/1/6 222/1/6 227/1/6
f 226/2/6 220/2/6 227/2/6
f 222/1/6 224/1/6 227/1/6
f 219/1/6 226/1/6 228/1/6
f 226/1/6 227/1/6 228/1/6
f 227/1/6 224/1/6 229/1/6
f 228/1/6 227/1/6 229/1/6
f 229/1/6 224/1/6 230/1/6
f 230/1/6 224/1/6 231/1/6
f 192/1/6 218/1/6 232/1/6
f 218/2/6 219/2/6 232/2/6
f 219/1/6 228/1/6 233/1/6
f 232/2/6 219/2/6 233/2/6
f 231/1/6 224/1/6 234/1/6
f 224/2/6 225/2/6 234/2/6
f 225/1/6 207/1/6 235/1/6
f 234/2/6 225/2/6 235/2/6
f 230/2/6 231/2/6 236/2/6
f 229/1/6 230/1/6 236/1/6
f 231/1/6 234/1/6 237/1/6
f 236/2/6 231/2/6 237/2/6
f 234/1/6 235/1/6 237/1/6
f 233/1/6 228/1/6 238/1/6
f 232/1/6 233/1/6 238/1/6
f 228/2/6 229/2/6 238/2/6
f 229/1/6 236/1/6 239/1/6
f 238/2/6 229/2/6 239/2/6
f 236/1/6 237/1/6 239/1/6
f 237/1/6 235/1/6 240/1/6
f 239/1/6 237/1/6 240/1/6
f 238/1/6 239/1/6 240/1/6
f 235/1/6 207/1/6 240/1/6
f 240/1/6 207/1/6 241/1/6
f 238/1/6 240/1/6 242/1/6
f 242/1/6 240/1/6 243/1/6
f 232/1/6 238/1/6 244/1/6
f 238/1/6 242/1/6 244/1/6
f 242/2/6 243/2/6 245/2/6
f 244/1/6 242/1/6 245/1/6
f 243/1/6 240/1/6 246/1/6
f 240/2/6 241/2/6 246/2/6
f 241/1/6 207/1/6 247/1/6
f 246/2/6 241/2/6 247/2/6
f 246/1/6 247/1/6 248/1/6
f 247/1/6 207/1/6 249/1/6
f 248/1/6 247/1/6 249/1/6
f 244/2/6 245/2/6 250/2/6
f 232/1/6 244/1/6 250/1/6
f 245/2/6 243/2/6 251/2/6
f 250/2/6 245/2/6 251/2/6
f 243/1/6 246/1/6 251/1/6
f 246/1/6 248/1/6 251/1/6
f 232/1/6 250/1/6 252/1/6
f 250/1/6 251/1/6 252/1/6
f 252/1/6 251/1/6 253/1/6
f 251/1/6 248/1/6 254/1/6
f 253/1/6 251/1/6 254/1/6
f 248/2/6 249/2/6 254/2/6
f 249/1/6 207/1/6 255/1/6
f 254/2/6 249/2/6 255/2/6
f 252/2/6 253/2/6 256/2/6
f 253/1/6 254/1/6 256/1/6
f 254/1/6 255/1/6 256/1/6
f 256/1/6 255/1/6 257/1/6
f 257/1/6 255/1/6 258/1/6
f 258/1/6 255/1/6 259/1/6
f 257/1/6 258/1/6 260/1/6
f 258/2/6 259/2/6 260/2/6
f 259/1/6 255/1/6 261/1/6
f 260/2/6 259/2/6 261/2/6
f 260/1/6 261/1/6 262/1/6
f 255/1/6 207/1/6 263/1/6
f 262/1/6 261/1/6 263/1/6
f 261/1/6 255/1/6 263/1/6
f 262/2/6 263/2/6 264/2/6
f 263/1/6 207/1/6 265/1/6
f 264/2/6 263/2/6 265/2/6
f 264/1/6 265/1/6 266/1/6
f 265/1/6 207/1/6 266/1/6
f 207/1/6 197/1/6 267/1/6
f 266/1/6 207/1/6 267/1/6
f 252/2/6 256/2/6 268/2/6
f 256/2/6 257/2/6 268/2/6
f 260/1/6 262/1/6 269/1/6
f 268/2/6 257/2/6 269/2/6
f 257/1/6 260/1/6 269/1/6
f 192/1/6 232/1/6 270/1/6
f 232/1/6 252/1/6 270/1/6
f 270/1/6 252/1/6 271/1/6
f 252/2/6 268/2/6 272/2/6
f 271/1/6 252/1/6 272/1/6
f 268/1/6 269/1/6 273/1/6
f 272/2/6 268/2/6 273/2/6
f 272/1/6 273/1/6 274/1/6
f 269/1/6 262/1/6 275/1/6
f 274/1/6 273/1/6 275/1/6
f 273/1/6 269/1/6 275/1/6
f 270/2/6 271/2/6 276/2/6
f 192/1/6 270/1/6 276/1/6
f 272/1/6 274/1/6 277/1/6
f 276/2/6 271/2/6 277/2/6
f 271/1/6 272/1/6 277/1/6
f 275/1/6 262/1/6 278/1/6
f 262/2/6 264/2/6 279/2/6
f 278/1/6 262/1/6 279/1/6
f 264/1/6 266/1/6 280/1/6
f 266/2/6 267/2/6 280/2/6
f 267/1/6 197/1/6 281/1/6
f 280/2/6 267/2/6 281/2/6
f 278/2/6 279/2/6 282/2/6
f 275/1/6 278/1/6 282/1/6
f 279/2/6 264/2/6 283/2/6
f 282/2/6 279/2/6 283/2/6
f 282/1/6 283/1/6 284/1/6
f 283/2/6 264/2/6 285/2/6
f 284/1/6 283/1/6 285/1/6
f 192/1/6 276/1/6 286/1/6
f 276/1/6 277/1/6 286/1/6
f 286/1/6 277/1/6 287/1/6
f 287/1/6 277/1/6 288/1/6
f 277/1/6 274/1/6 289/1/6
f 288/1/6 277/1/6 289/1/6
f 280/1/6 281/1/6 290/1/6
f 281/1/6 197/1/6 291/1/6
f 290/1/6 281/1/6 291/1/6
f 274/2/6 275/2/6 292/2/6
f 289/1/6 274/1/6 292/1/6
f 275/1/6 282/1/6 293/1/6
f 292/2/6 275/2/6 293/2/6
f 282/1/6 284/1/6 293/1/6
f 292/1/6 293/1/6 294/1/6
f 293/1/6 284/1/6 294/1/6
f 284/2/6 285/2/6 295/2/6
f 294/1/6 284/1/6 295/1/6
f 285/2/6 264/2/6 296/2/6
f 295/2/6 285/2/6 296/2/6
f 296/2/6 264/2/6 297/2/6
f 264/1/6 280/1/6 298/1/6
f 297/2/6 264/2/6 298/2/6
f 280/1/6 290/1/6 298/1/6
f 296/2/6 297/2/6 299/2/6
f 295/1/6 296/1/6 299/1/6
f 297/1/6 298/1/6 300/1/6
f 299/2/6 297/2/6 300/2/6
f 298/1/6 290/1/6 301/1/6
f 300/1/6 298/1/6 301/1/6
f 290/2/6 291/2/6 302/2/6
f 301/1/6 290/1/6 302/1/6
f 192/1/6 286/1/6 303/1/6
f 286/2/6 287/2/6 303/2/6
f 287/1/6 288/1/6 304/1/6
f 303/2/6 287/2/6 304/2/6
f 294/2/6 295/2/6 305/2/6
f 292/1/6 294/1/6 305/1/6
f 299/1/6 300/1/6 306/1/6
f 305/2/6 295/2/6 306/2/6
f 295/1/6 299/1/6 306/1/6
f 300/1/6 301/1/6 306/1/6
f 304/1/6 288/1/6 307/1/6
f 303/1/6 304/1/6 307/1/6
f 288/2/6 289/2/6 308/2/6
f 307/1/6 288/1/6 308/1/6
f 289/1/6 292/1/6 309/1/6
f 308/2/6 289/2/6 309/2/6
f 292/1/6 305/1/6 309/1/6
f 305/1/6 306/1/6 309/1/6
f 306/1/6 301/1/6 310/1/6
f 309/1/6 306/1/6 310/1/6
f 301/2/6 302/2/6 310/2/6
f 192/1/6 303/1/6 311/1/6
f 303/1/6 307/1/6 311/1/6
f 311/1/6 307/1/6 312/1/6
f 312/1/6 307/1/6 313/1/6
f 308/2/6 309/2/6 314/2/6
f 313/1/6 307/1/6 314/1/6
f 307/2/6 308/2/6 314/2/6
f 309/2/6 310/2/6 314/2/6
f 312/1/6 313/1/6 315/1/6
f 313/2/6 314/2/6 315/2/6
f 314/2/6 310/2/6 316/2/6
f 315/2/6 314/2/6 316/2/6
f 312/1/6 315/1/6 317/1/6
f 315/1/6 316/1/6 317/1/6
f 317/1/6 316/1/6 318/1/6
f 311/2/6 312/2/6 319/2/6
f 192/1/6 311/1/6 319/1/6
f 312/1/6 317/1/6 320/1/6
f 319/2/6 312/2/6 320/2/6
f 317/2/6 318/2/6 321/2/6
f 320/1/6 317/1/6 321/1/6
f 318/1/6 316/1/6 322/1/6
f 321/2/6 318/2/6 322/2/6
f 320/1/6 321/1/6 323/1/6
f 319/1/6 320/1/6 323/1/6
f 321/1/6 322/1/6 323/1/6
f 323/1/6 322/1/6 324/1/6
f 322/1/6 316/1/6 325/1/6
f 324/1/6 322/1/6 325/1/6
f 316/2/6 310/2/6 326/2/6
f 325/1/6 316/1/6 326/1/6
f 323/2/6 324/2/6 327/2/6
f 319/1/6 323/1/6 327/1/6
f 324/1/6 325/1/6 328/1/6
f 327/2/6 324/2/6 328/2/6
f 319/1/6 327/1/6 329/1/6
f 327/1/6 328/1/6 329/1/6
f 328/1/6 325/1/6 330/1/6
f 329/1/6 328/1/6 330/1/6
f 319/1/6 329/1/6 331/1/6
f 192/1/6 319/1/6 331/1/6
f 329/2/6 330/2/6 332/2/6
f 331/1/6 329/1/6 332/1/6
f 330/1/6 325/1/6 333/1/6
f 332/2/6 330/2/6 333/2/6
f 325/2/6 326/2/6 334/2/6
f 333/1/6 325/1/6 334/1/6
f 334/2/6 326/2/6 335/2/6
f 310/2/6 302/2/6 336/2/6
f 335/2/6 326/2/6 336/2/6
f 326/2/6 310/2/6 336/2/6
f 302/2/6 291/2/6 336/2/6
f 338/3/6 339/3/6 340/3/6
f 340/3/6 339/3/6 341/3/6
f 338/3/6 340/3/6 342/3/6
f 341/3/6 339/3/6 343/3/6
f 337/5/6 338/5/6 344/5/6
f 342/3/6 343/3/6 345/3/6
f 344/5/6 338/5/6 345/5/6
f 338/3/6 342/3/6 345/3/6
f 343/3/6 339/3/6 346/3/6
f 345/3/6 343/3/6 346/3/6
