# MagicaVoxel @ Ephtracy

# group
g 4x2 second (1)-0

# material
mtllib 4x2 second (1)-0.mtl
usemtl palette

# normals
vn -1 0 0
vn 1 0 0
vn 0 0 1
vn 0 0 -1
vn 0 -1 0
vn 0 1 0

# texcoords
vt 0.365234 0.5
vt 0.966797 0.5
vt 0.974609 0.5

# verts
v -63 0 63
v -63 0 -63
v -63 2 -19
v -63 2 -61
v -63 3 -19
v -63 3 -61
v -63 80 63
v -63 80 -19
v -63 80 -61
v -63 80 -63
v -15 3 -18
v -15 3 -19
v -15 43 -18
v -15 43 -19
v 50 3 63
v 50 3 62
v 50 43 63
v 50 43 62
v -62 3 62
v -62 3 -18
v -62 80 62
v -62 80 -18
v -45 3 -18
v -45 3 -19
v -45 43 -18
v -45 43 -19
v 20 3 63
v 20 3 62
v 20 43 63
v 20 43 62
v 63 0 63
v 63 0 -63
v 63 2 62
v 63 2 -18
v 63 2 -19
v 63 2 -61
v 63 3 62
v 63 3 -18
v 63 3 -19
v 63 3 -61
v 63 80 63
v 63 80 62
v 63 80 -18
v 63 80 -19
v 63 80 -61
v 63 80 -63
v -63 0 63
v -63 80 63
v 20 2 63
v 20 3 63
v 20 43 63
v 50 2 63
v 50 3 63
v 50 43 63
v 63 0 63
v 63 80 63
v -62 3 -18
v -62 80 -18
v -45 3 -18
v -45 43 -18
v -15 3 -18
v -15 43 -18
v 63 3 -18
v 63 80 -18
v -63 3 -61
v -63 80 -61
v 63 3 -61
v 63 80 -61
v -62 3 62
v -62 80 62
v 20 3 62
v 20 43 62
v 50 3 62
v 50 43 62
v 63 3 62
v 63 80 62
v -63 3 -19
v -63 80 -19
v -45 3 -19
v -45 43 -19
v -15 3 -19
v -15 43 -19
v 63 3 -19
v 63 80 -19
v -63 0 -63
v -63 80 -63
v 63 0 -63
v 63 80 -63
v -63 0 63
v 63 0 63
v -63 0 -63
v 63 0 -63
v 20 43 63
v 50 43 63
v 20 43 62
v 50 43 62
v -45 43 -18
v -15 43 -18
v -45 43 -19
v -15 43 -19
v 20 3 63
v 50 3 63
v -62 3 62
v 20 3 62
v 50 3 62
v 63 3 62
v -62 3 -18
v -45 3 -18
v -15 3 -18
v 63 3 -18
v -63 3 -19
v -45 3 -19
v -15 3 -19
v 63 3 -19
v -63 3 -61
v 63 3 -61
v -63 80 63
v 63 80 63
v -62 80 62
v 63 80 62
v -62 80 -18
v 63 80 -18
v -63 80 -19
v 63 80 -19
v -63 80 -61
v 63 80 -61
v -63 80 -63
v 63 80 -63

# faces
f 3/2/1 2/2/1 1/2/1
f 4/2/1 2/2/1 3/2/1
f 5/2/1 3/2/1 1/2/1
f 5/1/1 4/1/1 3/1/1
f 6/2/1 2/2/1 4/2/1
f 6/1/1 4/1/1 5/1/1
f 7/2/1 5/2/1 1/2/1
f 8/2/1 5/2/1 7/2/1
f 9/2/1 2/2/1 6/2/1
f 10/2/1 2/2/1 9/2/1
f 13/2/1 12/2/1 11/2/1
f 14/2/1 12/2/1 13/2/1
f 17/2/1 16/2/1 15/2/1
f 18/2/1 16/2/1 17/2/1
f 19/2/2 20/2/2 21/2/2
f 21/2/2 20/2/2 22/2/2
f 23/2/2 24/2/2 25/2/2
f 25/2/2 24/2/2 26/2/2
f 27/2/2 28/2/2 29/2/2
f 29/2/2 28/2/2 30/2/2
f 31/2/2 32/2/2 33/2/2
f 33/2/2 32/2/2 34/2/2
f 34/2/2 32/2/2 35/2/2
f 35/2/2 32/2/2 36/2/2
f 31/2/2 33/2/2 37/2/2
f 33/3/2 34/3/2 37/3/2
f 34/2/2 35/2/2 38/2/2
f 37/3/2 34/3/2 38/3/2
f 35/1/2 36/1/2 39/1/2
f 38/2/2 35/2/2 39/2/2
f 36/2/2 32/2/2 40/2/2
f 39/1/2 36/1/2 40/1/2
f 31/2/2 37/2/2 41/2/2
f 41/2/2 37/2/2 42/2/2
f 38/2/2 39/2/2 43/2/2
f 43/2/2 39/2/2 44/2/2
f 40/2/2 32/2/2 45/2/2
f 45/2/2 32/2/2 46/2/2
f 49/2/3 48/2/3 47/2/3
f 50/2/3 48/2/3 49/2/3
f 51/2/3 48/2/3 50/2/3
f 52/2/3 49/2/3 47/2/3
f 52/3/3 50/3/3 49/3/3
f 53/3/3 50/3/3 52/3/3
f 54/2/3 48/2/3 51/2/3
f 55/2/3 53/2/3 52/2/3
f 55/2/3 54/2/3 53/2/3
f 55/2/3 52/2/3 47/2/3
f 56/2/3 48/2/3 54/2/3
f 56/2/3 54/2/3 55/2/3
f 59/2/3 58/2/3 57/2/3
f 60/2/3 58/2/3 59/2/3
f 62/2/3 58/2/3 60/2/3
f 63/2/3 62/2/3 61/2/3
f 64/2/3 58/2/3 62/2/3
f 64/2/3 62/2/3 63/2/3
f 67/2/3 66/2/3 65/2/3
f 68/2/3 66/2/3 67/2/3
f 69/2/4 70/2/4 71/2/4
f 71/2/4 70/2/4 72/2/4
f 72/2/4 70/2/4 74/2/4
f 73/2/4 74/2/4 75/2/4
f 74/2/4 70/2/4 76/2/4
f 75/2/4 74/2/4 76/2/4
f 77/2/4 78/2/4 79/2/4
f 79/2/4 78/2/4 80/2/4
f 80/2/4 78/2/4 82/2/4
f 81/2/4 82/2/4 83/2/4
f 82/2/4 78/2/4 84/2/4
f 83/2/4 82/2/4 84/2/4
f 85/2/4 86/2/4 87/2/4
f 87/2/4 86/2/4 88/2/4
f 91/2/5 90/2/5 89/2/5
f 92/2/5 90/2/5 91/2/5
f 95/2/5 94/2/5 93/2/5
f 96/2/5 94/2/5 95/2/5
f 99/2/5 98/2/5 97/2/5
f 100/2/5 98/2/5 99/2/5
f 101/3/6 102/3/6 104/3/6
f 104/3/6 102/3/6 105/3/6
f 103/3/6 104/3/6 107/3/6
f 105/3/6 106/3/6 107/3/6
f 104/3/6 105/3/6 107/3/6
f 107/3/6 106/3/6 108/3/6
f 108/3/6 106/3/6 109/3/6
f 109/3/6 106/3/6 110/3/6
f 108/1/6 109/1/6 112/1/6
f 112/1/6 109/1/6 113/1/6
f 111/1/6 112/1/6 115/1/6
f 113/1/6 114/1/6 115/1/6
f 112/1/6 113/1/6 115/1/6
f 115/1/6 114/1/6 116/1/6
f 117/2/6 118/2/6 119/2/6
f 119/2/6 118/2/6 120/2/6
f 117/2/6 119/2/6 121/2/6
f 117/2/6 121/2/6 123/2/6
f 121/2/6 122/2/6 123/2/6
f 123/2/6 122/2/6 124/2/6
f 125/2/6 126/2/6 127/2/6
f 127/2/6 126/2/6 128/2/6
