# MagicaVoxel @ Ephtracy

# group
g evier2

# material
mtllib evier2.mtl
usemtl palette

# normals
vn -1 0 0
vn 1 0 0
vn 0 0 1
vn 0 0 -1
vn 0 -1 0
vn 0 1 0

# texcoords
vt 0.228516 0.5
vt 0.232422 0.5
vt 0.958984 0.5
vt 0.966797 0.5
vt 0.978516 0.5
vt 0.986328 0.5

# verts
v -18 0 6
v -18 0 -8
v -18 13 6
v -18 13 -8
v -18 16 6
v -18 16 1
v -18 16 -3
v -18 16 -8
v -18 17 1
v -18 17 -0
v -18 17 -2
v -18 17 -3
v -18 18 -0
v -18 18 -2
v -17 18 -0
v -17 18 -2
v -17 20 -0
v -17 20 -2
v -15 17 -0
v -15 17 -1
v -15 18 -1
v -15 18 -2
v -15 19 -0
v -15 19 -2
v -10 14 3
v -10 14 2
v -10 14 1
v -10 14 -3
v -10 14 -5
v -10 15 3
v -10 15 2
v -10 15 1
v -10 15 -3
v -10 15 -5
v -9 15 4
v -9 15 3
v -9 15 2
v -9 15 1
v -9 15 -3
v -9 15 -6
v -9 16 4
v -9 16 3
v -9 16 -6
v -16 15 4
v -16 15 3
v -16 15 1
v -16 15 -6
v -16 16 4
v -16 16 1
v -16 16 -3
v -16 16 -6
v -16 17 1
v -16 17 -0
v -16 17 -2
v -16 17 -3
v -16 19 -0
v -16 19 -2
v -15 14 3
v -15 14 1
v -15 14 -5
v -15 15 3
v -15 15 1
v -15 15 -5
v -14 17 -0
v -14 17 -1
v -14 18 -1
v -14 18 -2
v -14 19 -0
v -14 19 -2
v -14 20 -0
v -14 20 -2
v -8 0 6
v -8 0 -8
v -8 1 5
v -8 1 -7
v -8 2 4
v -8 2 -6
v -8 4 -0
v -8 4 -2
v -8 5 4
v -8 5 -0
v -8 5 -2
v -8 5 -6
v -8 7 4
v -8 7 -6
v -8 9 -0
v -8 9 -2
v -8 10 -0
v -8 10 -2
v -8 11 4
v -8 11 -6
v -8 12 5
v -8 12 -7
v -8 13 6
v -8 13 -8
v -8 14 5
v -8 14 3
v -8 16 6
v -8 16 5
v -8 16 3
v -8 16 -8
v -7 4 -0
v -7 4 -2
v -7 5 -0
v -7 5 -2
v -7 9 -0
v -7 9 -2
v -7 10 -0
v -7 10 -2
v -18 0 6
v -18 13 6
v -18 16 6
v -8 0 6
v -8 13 6
v -8 16 6
v -18 16 1
v -18 17 1
v -16 16 1
v -16 17 1
v -18 17 -0
v -18 18 -0
v -17 18 -0
v -17 20 -0
v -16 17 -0
v -16 19 -0
v -15 17 -0
v -15 19 -0
v -14 17 -0
v -14 19 -0
v -14 20 -0
v -8 4 -0
v -8 5 -0
v -8 9 -0
v -8 10 -0
v -7 4 -0
v -7 5 -0
v -7 9 -0
v -7 10 -0
v -15 14 -5
v -15 15 -5
v -13 14 -5
v -13 15 -5
v -11 14 -5
v -10 14 -5
v -10 15 -5
v -16 15 -6
v -16 16 -6
v -15 15 -6
v -15 16 -6
v -13 15 -6
v -13 16 -6
v -9 15 -6
v -9 16 -6
v -16 15 4
v -16 16 4
v -10 15 4
v -10 16 4
v -9 15 4
v -9 16 4
v -15 14 3
v -15 15 3
v -11 14 3
v -10 14 3
v -10 15 3
v -15 17 -1
v -15 18 -1
v -14 17 -1
v -14 18 -1
v -18 17 -2
v -18 18 -2
v -17 18 -2
v -17 20 -2
v -16 17 -2
v -16 19 -2
v -15 18 -2
v -15 19 -2
v -14 18 -2
v -14 19 -2
v -14 20 -2
v -8 4 -2
v -8 5 -2
v -8 9 -2
v -8 10 -2
v -7 4 -2
v -7 5 -2
v -7 9 -2
v -7 10 -2
v -18 16 -3
v -18 17 -3
v -16 16 -3
v -16 17 -3
v -18 0 -8
v -18 13 -8
v -18 16 -8
v -15 15 -8
v -15 16 -8
v -13 15 -8
v -13 16 -8
v -8 0 -8
v -8 13 -8
v -8 16 -8
v -18 0 6
v -8 0 6
v -16 0 5
v -9 0 5
v -16 0 -7
v -9 0 -7
v -18 0 -8
v -8 0 -8
v -8 4 -0
v -7 4 -0
v -8 4 -2
v -7 4 -2
v -8 9 -0
v -7 9 -0
v -8 9 -2
v -7 9 -2
v -15 17 -0
v -14 17 -0
v -15 17 -1
v -14 17 -1
v -15 18 -1
v -14 18 -1
v -15 18 -2
v -14 18 -2
v -16 19 -0
v -15 19 -0
v -16 19 -2
v -15 19 -2
v -8 5 -0
v -7 5 -0
v -8 5 -2
v -7 5 -2
v -8 10 -0
v -7 10 -0
v -8 10 -2
v -7 10 -2
v -15 14 3
v -11 14 3
v -10 14 3
v -10 14 2
v -15 14 1
v -12 14 1
v -10 14 1
v -12 14 -0
v -11 14 -0
v -13 14 -1
v -12 14 -1
v -13 14 -3
v -12 14 -3
v -11 14 -3
v -10 14 -3
v -13 14 -4
v -12 14 -4
v -15 14 -5
v -13 14 -5
v -11 14 -5
v -10 14 -5
v -16 15 4
v -10 15 4
v -9 15 4
v -16 15 3
v -15 15 3
v -10 15 3
v -9 15 3
v -10 15 2
v -9 15 2
v -16 15 1
v -15 15 1
v -10 15 1
v -9 15 1
v -10 15 -3
v -9 15 -3
v -15 15 -5
v -13 15 -5
v -10 15 -5
v -16 15 -6
v -15 15 -6
v -13 15 -6
v -9 15 -6
v -18 16 6
v -8 16 6
v -10 16 5
v -8 16 5
v -16 16 4
v -10 16 4
v -9 16 4
v -9 16 3
v -8 16 3
v -18 16 1
v -16 16 1
v -18 16 -3
v -16 16 -3
v -16 16 -6
v -15 16 -6
v -13 16 -6
v -9 16 -6
v -18 16 -8
v -15 16 -8
v -13 16 -8
v -8 16 -8
v -18 17 1
v -16 17 1
v -18 17 -0
v -16 17 -0
v -18 17 -2
v -16 17 -2
v -18 17 -3
v -16 17 -3
v -18 18 -0
v -17 18 -0
v -18 18 -2
v -17 18 -2
v -17 20 -0
v -14 20 -0
v -17 20 -2
v -14 20 -2

# faces
f 3/4/1 2/4/1 1/4/1
f 4/4/1 2/4/1 3/4/1
f 5/3/1 4/3/1 3/3/1
f 6/3/1 4/3/1 5/3/1
f 7/3/1 4/3/1 6/3/1
f 8/3/1 4/3/1 7/3/1
f 9/6/1 7/6/1 6/6/1
f 10/6/1 7/6/1 9/6/1
f 11/6/1 7/6/1 10/6/1
f 12/6/1 7/6/1 11/6/1
f 13/6/1 11/6/1 10/6/1
f 14/6/1 11/6/1 13/6/1
f 17/6/1 16/6/1 15/6/1
f 18/6/1 16/6/1 17/6/1
f 21/5/1 20/5/1 19/5/1
f 23/5/1 21/5/1 19/5/1
f 23/5/1 22/5/1 21/5/1
f 24/5/1 22/5/1 23/5/1
f 30/4/1 26/4/1 25/4/1
f 31/3/1 27/3/1 26/3/1
f 31/4/1 26/4/1 30/4/1
f 32/4/1 28/4/1 27/4/1
f 32/3/1 27/3/1 31/3/1
f 33/3/1 29/3/1 28/3/1
f 33/4/1 28/4/1 32/4/1
f 34/3/1 29/3/1 33/3/1
f 41/4/1 36/4/1 35/4/1
f 42/3/1 40/3/1 39/3/1
f 42/4/1 36/4/1 41/4/1
f 42/3/1 37/3/1 36/3/1
f 42/3/1 39/3/1 38/3/1
f 42/3/1 38/3/1 37/3/1
f 43/3/1 40/3/1 42/3/1
f 44/3/2 45/3/2 48/3/2
f 46/3/2 47/3/2 48/3/2
f 45/3/2 46/3/2 48/3/2
f 48/3/2 47/3/2 49/3/2
f 49/3/2 47/3/2 50/3/2
f 50/3/2 47/3/2 51/3/2
f 49/6/2 50/6/2 52/6/2
f 52/6/2 50/6/2 53/6/2
f 53/6/2 50/6/2 54/6/2
f 54/6/2 50/6/2 55/6/2
f 53/6/2 54/6/2 56/6/2
f 56/6/2 54/6/2 57/6/2
f 58/4/2 59/4/2 61/4/2
f 59/3/2 60/3/2 62/3/2
f 61/4/2 59/4/2 62/4/2
f 62/3/2 60/3/2 63/3/2
f 64/5/2 65/5/2 66/5/2
f 64/5/2 66/5/2 68/5/2
f 66/5/2 67/5/2 68/5/2
f 68/5/2 67/5/2 69/5/2
f 68/6/2 69/6/2 70/6/2
f 70/6/2 69/6/2 71/6/2
f 72/4/2 73/4/2 74/4/2
f 74/4/2 73/4/2 75/4/2
f 74/2/2 75/2/2 76/2/2
f 76/2/2 75/2/2 77/2/2
f 76/1/2 77/1/2 78/1/2
f 78/1/2 77/1/2 79/1/2
f 74/2/2 76/2/2 80/2/2
f 76/1/2 78/1/2 80/1/2
f 80/1/2 78/1/2 81/1/2
f 79/1/2 77/1/2 82/1/2
f 77/2/2 75/2/2 83/2/2
f 82/1/2 77/1/2 83/1/2
f 80/2/2 81/2/2 84/2/2
f 81/2/2 82/2/2 84/2/2
f 82/2/2 83/2/2 84/2/2
f 74/2/2 80/2/2 84/2/2
f 83/2/2 75/2/2 85/2/2
f 84/2/2 83/2/2 85/2/2
f 84/1/2 85/1/2 86/1/2
f 86/1/2 85/1/2 87/1/2
f 84/1/2 86/1/2 88/1/2
f 87/1/2 85/1/2 89/1/2
f 74/2/2 84/2/2 90/2/2
f 88/1/2 89/1/2 90/1/2
f 84/1/2 88/1/2 90/1/2
f 89/1/2 85/1/2 91/1/2
f 90/1/2 89/1/2 91/1/2
f 85/2/2 75/2/2 91/2/2
f 72/4/2 74/4/2 92/4/2
f 74/2/2 90/2/2 92/2/2
f 90/2/2 91/2/2 92/2/2
f 91/2/2 75/2/2 93/2/2
f 92/2/2 91/2/2 93/2/2
f 75/4/2 73/4/2 93/4/2
f 72/4/2 92/4/2 94/4/2
f 92/4/2 93/4/2 94/4/2
f 93/4/2 73/4/2 95/4/2
f 94/4/2 93/4/2 95/4/2
f 94/3/2 95/3/2 96/3/2
f 96/3/2 95/3/2 97/3/2
f 94/3/2 96/3/2 98/3/2
f 96/4/2 97/4/2 99/4/2
f 98/3/2 96/3/2 99/3/2
f 97/3/2 95/3/2 100/3/2
f 99/4/2 97/4/2 100/4/2
f 100/3/2 95/3/2 101/3/2
f 102/6/2 103/6/2 104/6/2
f 104/6/2 103/6/2 105/6/2
f 106/6/2 107/6/2 108/6/2
f 108/6/2 107/6/2 109/6/2
f 113/4/3 111/4/3 110/4/3
f 114/3/3 112/3/3 111/3/3
f 114/4/3 111/4/3 113/4/3
f 115/3/3 112/3/3 114/3/3
f 118/6/3 117/6/3 116/6/3
f 119/6/3 117/6/3 118/6/3
f 122/6/3 121/6/3 120/6/3
f 124/6/3 122/6/3 120/6/3
f 124/6/3 123/6/3 122/6/3
f 125/6/3 123/6/3 124/6/3
f 127/6/3 123/6/3 125/6/3
f 128/5/3 127/5/3 126/5/3
f 129/6/3 123/6/3 127/6/3
f 129/5/3 127/5/3 128/5/3
f 130/6/3 123/6/3 129/6/3
f 135/6/3 132/6/3 131/6/3
f 136/6/3 132/6/3 135/6/3
f 137/6/3 134/6/3 133/6/3
f 138/6/3 134/6/3 137/6/3
f 141/4/3 140/4/3 139/4/3
f 142/4/3 140/4/3 141/4/3
f 143/3/3 142/3/3 141/3/3
f 144/3/3 142/3/3 143/3/3
f 145/3/3 142/3/3 144/3/3
f 148/3/3 147/3/3 146/3/3
f 149/3/3 147/3/3 148/3/3
f 150/4/3 149/4/3 148/4/3
f 151/4/3 149/4/3 150/4/3
f 152/3/3 151/3/3 150/3/3
f 153/3/3 151/3/3 152/3/3
f 154/3/4 155/3/4 156/3/4
f 156/3/4 155/3/4 157/3/4
f 156/4/4 157/4/4 158/4/4
f 158/4/4 157/4/4 159/4/4
f 160/3/4 161/3/4 162/3/4
f 162/3/4 161/3/4 163/3/4
f 163/3/4 161/3/4 164/3/4
f 165/5/4 166/5/4 167/5/4
f 167/5/4 166/5/4 168/5/4
f 169/6/4 170/6/4 171/6/4
f 169/6/4 171/6/4 173/6/4
f 171/6/4 172/6/4 173/6/4
f 173/6/4 172/6/4 174/6/4
f 174/6/4 172/6/4 176/6/4
f 175/5/4 176/5/4 177/5/4
f 176/6/4 172/6/4 178/6/4
f 177/5/4 176/5/4 178/5/4
f 178/6/4 172/6/4 179/6/4
f 180/6/4 181/6/4 184/6/4
f 184/6/4 181/6/4 185/6/4
f 182/6/4 183/6/4 186/6/4
f 186/6/4 183/6/4 187/6/4
f 188/6/4 189/6/4 190/6/4
f 190/6/4 189/6/4 191/6/4
f 193/3/4 194/3/4 195/3/4
f 195/3/4 194/3/4 196/3/4
f 193/3/4 195/3/4 197/3/4
f 195/4/4 196/4/4 197/4/4
f 197/4/4 196/4/4 198/4/4
f 192/4/4 193/4/4 199/4/4
f 193/3/4 197/3/4 200/3/4
f 199/4/4 193/4/4 200/4/4
f 197/3/4 198/3/4 200/3/4
f 200/3/4 198/3/4 201/3/4
f 204/4/5 203/4/5 202/4/5
f 205/4/5 203/4/5 204/4/5
f 206/4/5 204/4/5 202/4/5
f 206/1/5 205/1/5 204/1/5
f 207/4/5 203/4/5 205/4/5
f 207/1/5 205/1/5 206/1/5
f 208/4/5 206/4/5 202/4/5
f 208/4/5 207/4/5 206/4/5
f 209/4/5 203/4/5 207/4/5
f 209/4/5 207/4/5 208/4/5
f 212/6/5 211/6/5 210/6/5
f 213/6/5 211/6/5 212/6/5
f 216/6/5 215/6/5 214/6/5
f 217/6/5 215/6/5 216/6/5
f 220/5/5 219/5/5 218/5/5
f 221/5/5 219/5/5 220/5/5
f 224/5/5 223/5/5 222/5/5
f 225/5/5 223/5/5 224/5/5
f 228/6/5 227/6/5 226/6/5
f 229/6/5 227/6/5 228/6/5
f 230/6/6 231/6/6 232/6/6
f 232/6/6 231/6/6 233/6/6
f 234/6/6 235/6/6 236/6/6
f 236/6/6 235/6/6 237/6/6
f 239/3/6 240/3/6 241/3/6
f 238/4/6 239/4/6 242/4/6
f 242/4/6 239/4/6 243/4/6
f 239/3/6 241/3/6 244/3/6
f 243/4/6 239/4/6 245/4/6
f 242/3/6 243/3/6 245/3/6
f 239/3/6 244/3/6 246/3/6
f 245/4/6 239/4/6 246/4/6
f 242/3/6 245/3/6 247/3/6
f 245/3/6 246/3/6 247/3/6
f 247/3/6 246/3/6 248/3/6
f 242/3/6 247/3/6 249/3/6
f 247/4/6 248/4/6 249/4/6
f 248/3/6 246/3/6 250/3/6
f 249/4/6 248/4/6 250/4/6
f 246/3/6 244/3/6 251/3/6
f 250/3/6 246/3/6 251/3/6
f 251/3/6 244/3/6 252/3/6
f 249/3/6 250/3/6 253/3/6
f 242/3/6 249/3/6 253/3/6
f 250/4/6 251/4/6 254/4/6
f 253/3/6 250/3/6 254/3/6
f 242/3/6 253/3/6 255/3/6
f 253/4/6 254/4/6 256/4/6
f 255/3/6 253/3/6 256/3/6
f 251/3/6 252/3/6 257/3/6
f 256/4/6 254/4/6 257/4/6
f 254/4/6 251/4/6 257/4/6
f 257/3/6 252/3/6 258/3/6
f 259/3/6 260/3/6 262/3/6
f 262/3/6 260/3/6 263/3/6
f 260/4/6 261/4/6 264/4/6
f 263/3/6 260/3/6 264/3/6
f 264/4/6 261/4/6 265/4/6
f 264/4/6 265/4/6 266/4/6
f 266/4/6 265/4/6 267/4/6
f 262/4/6 263/4/6 268/4/6
f 268/4/6 263/4/6 269/4/6
f 266/3/6 267/3/6 270/3/6
f 270/3/6 267/3/6 271/3/6
f 270/4/6 271/4/6 272/4/6
f 272/4/6 271/4/6 273/4/6
f 268/3/6 269/3/6 274/3/6
f 272/3/6 273/3/6 276/3/6
f 268/3/6 274/3/6 277/3/6
f 274/4/6 275/4/6 278/4/6
f 277/3/6 274/3/6 278/3/6
f 275/3/6 276/3/6 279/3/6
f 278/4/6 275/4/6 279/4/6
f 276/3/6 273/3/6 280/3/6
f 279/3/6 276/3/6 280/3/6
f 281/3/6 282/3/6 283/3/6
f 283/3/6 282/3/6 284/3/6
f 281/3/6 283/3/6 285/3/6
f 283/4/6 284/4/6 286/4/6
f 285/3/6 283/3/6 286/3/6
f 286/4/6 284/4/6 287/4/6
f 287/4/6 284/4/6 288/4/6
f 288/4/6 284/4/6 289/4/6
f 281/3/6 285/3/6 290/3/6
f 290/3/6 285/3/6 291/3/6
f 292/3/6 293/3/6 294/3/6
f 288/3/6 289/3/6 297/3/6
f 292/3/6 294/3/6 298/3/6
f 294/3/6 295/3/6 298/3/6
f 295/4/6 296/4/6 299/4/6
f 298/3/6 295/3/6 299/3/6
f 296/3/6 297/3/6 300/3/6
f 299/4/6 296/4/6 300/4/6
f 297/3/6 289/3/6 301/3/6
f 300/3/6 297/3/6 301/3/6
f 302/6/6 303/6/6 304/6/6
f 304/6/6 303/6/6 305/6/6
f 306/6/6 307/6/6 308/6/6
f 308/6/6 307/6/6 309/6/6
f 310/6/6 311/6/6 312/6/6
f 312/6/6 311/6/6 313/6/6
f 314/6/6 315/6/6 316/6/6
f 316/6/6 315/6/6 317/6/6
