# MagicaVoxel @ Ephtracy

# group
g metal wall

# material
mtllib metal wall.mtl
usemtl palette

# normals
vn -1 0 0
vn 1 0 0
vn 0 0 1
vn 0 0 -1
vn 0 -1 0
vn 0 1 0

# texcoords
vt 0.966797 0.5
vt 0.970703 0.5
vt 0.978516 0.5

# verts
v -2 0 15
v -2 0 12
v -2 71 15
v -2 71 12
v 63 0 15
v 63 0 12
v 63 71 15
v 63 71 12
v -2 0 15
v -2 71 15
v -1 1 15
v -1 70 15
v 1 30 15
v 1 54 15
v 18 1 15
v 18 10 15
v 18 30 15
v 18 54 15
v 22 18 15
v 22 57 15
v 28 1 15
v 28 5 15
v 28 10 15
v 28 18 15
v 28 32 15
v 42 32 15
v 42 37 15
v 42 55 15
v 42 57 15
v 53 37 15
v 53 55 15
v 54 5 15
v 54 32 15
v 62 1 15
v 62 70 15
v 63 0 15
v 63 71 15
v -2 0 12
v -2 71 12
v -1 1 12
v -1 70 12
v 0 51 12
v 0 66 12
v 1 36 12
v 1 51 12
v 10 10 12
v 10 26 12
v 17 10 12
v 17 26 12
v 21 16 12
v 21 31 12
v 28 2 12
v 28 16 12
v 28 22 12
v 28 36 12
v 28 44 12
v 32 22 12
v 32 31 12
v 35 44 12
v 35 56 12
v 38 56 12
v 38 66 12
v 44 39 12
v 44 42 12
v 47 39 12
v 47 42 12
v 49 36 12
v 49 44 12
v 49 56 12
v 50 2 12
v 50 22 12
v 54 36 12
v 54 44 12
v 62 1 12
v 62 70 12
v 63 0 12
v 63 71 12
v -2 0 15
v 63 0 15
v -2 0 12
v 63 0 12
v -2 71 15
v 63 71 15
v -2 71 12
v 63 71 12

# faces
f 3/3/1 2/3/1 1/3/1
f 4/3/1 2/3/1 3/3/1
f 5/3/2 6/3/2 7/3/2
f 7/3/2 6/3/2 8/3/2
f 11/3/3 10/3/3 9/3/3
f 12/3/3 10/3/3 11/3/3
f 13/2/3 12/2/3 11/2/3
f 14/2/3 12/2/3 13/2/3
f 15/3/3 11/3/3 9/3/3
f 15/2/3 13/2/3 11/2/3
f 16/2/3 13/2/3 15/2/3
f 17/3/3 14/3/3 13/3/3
f 17/2/3 13/2/3 16/2/3
f 18/2/3 12/2/3 14/2/3
f 18/3/3 14/3/3 17/3/3
f 19/2/3 17/2/3 16/2/3
f 19/2/3 18/2/3 17/2/3
f 20/2/3 12/2/3 18/2/3
f 20/2/3 18/2/3 19/2/3
f 21/1/3 16/1/3 15/1/3
f 21/3/3 15/3/3 9/3/3
f 22/1/3 16/1/3 21/1/3
f 23/2/3 19/2/3 16/2/3
f 23/1/3 16/1/3 22/1/3
f 24/1/3 20/1/3 19/1/3
f 24/2/3 19/2/3 23/2/3
f 25/1/3 20/1/3 24/1/3
f 26/3/3 23/3/3 22/3/3
f 26/1/3 20/1/3 25/1/3
f 26/3/3 25/3/3 24/3/3
f 26/3/3 24/3/3 23/3/3
f 27/1/3 20/1/3 26/1/3
f 28/1/3 20/1/3 27/1/3
f 29/2/3 12/2/3 20/2/3
f 29/1/3 20/1/3 28/1/3
f 30/1/3 28/1/3 27/1/3
f 30/2/3 27/2/3 26/2/3
f 31/2/3 29/2/3 28/2/3
f 31/1/3 28/1/3 30/1/3
f 32/2/3 22/2/3 21/2/3
f 32/3/3 26/3/3 22/3/3
f 33/2/3 31/2/3 30/2/3
f 33/3/3 26/3/3 32/3/3
f 33/2/3 30/2/3 26/2/3
f 34/3/3 21/3/3 9/3/3
f 34/2/3 32/2/3 21/2/3
f 34/2/3 33/2/3 32/2/3
f 35/2/3 29/2/3 31/2/3
f 35/2/3 33/2/3 34/2/3
f 35/3/3 10/3/3 12/3/3
f 35/2/3 31/2/3 33/2/3
f 35/2/3 12/2/3 29/2/3
f 36/3/3 34/3/3 9/3/3
f 36/3/3 35/3/3 34/3/3
f 37/3/3 10/3/3 35/3/3
f 37/3/3 35/3/3 36/3/3
f 38/3/4 39/3/4 40/3/4
f 40/3/4 39/3/4 41/3/4
f 40/2/4 41/2/4 42/2/4
f 42/2/4 41/2/4 43/2/4
f 40/2/4 42/2/4 44/2/4
f 42/1/4 43/1/4 45/1/4
f 44/2/4 42/2/4 45/2/4
f 40/2/4 44/2/4 46/2/4
f 46/2/4 44/2/4 47/2/4
f 40/2/4 46/2/4 48/2/4
f 46/1/4 47/1/4 48/1/4
f 47/2/4 44/2/4 49/2/4
f 48/1/4 47/1/4 49/1/4
f 48/2/4 49/2/4 50/2/4
f 49/2/4 44/2/4 51/2/4
f 50/2/4 49/2/4 51/2/4
f 40/2/4 48/2/4 52/2/4
f 48/2/4 50/2/4 52/2/4
f 50/1/4 51/1/4 53/1/4
f 52/2/4 50/2/4 53/2/4
f 53/1/4 51/1/4 54/1/4
f 44/1/4 45/1/4 55/1/4
f 51/2/4 44/2/4 55/2/4
f 55/1/4 45/1/4 56/1/4
f 54/1/4 51/1/4 57/1/4
f 53/3/4 54/3/4 57/3/4
f 52/3/4 53/3/4 57/3/4
f 55/2/4 56/2/4 58/2/4
f 57/1/4 51/1/4 58/1/4
f 51/2/4 55/2/4 58/2/4
f 56/1/4 45/1/4 59/1/4
f 58/2/4 56/2/4 59/2/4
f 57/2/4 58/2/4 59/2/4
f 45/1/4 43/1/4 60/1/4
f 59/1/4 45/1/4 60/1/4
f 59/3/4 60/3/4 61/3/4
f 60/1/4 43/1/4 61/1/4
f 43/2/4 41/2/4 62/2/4
f 61/1/4 43/1/4 62/1/4
f 57/2/4 59/2/4 63/2/4
f 63/2/4 59/2/4 64/2/4
f 57/2/4 63/2/4 65/2/4
f 63/3/4 64/3/4 65/3/4
f 64/2/4 59/2/4 66/2/4
f 65/3/4 64/3/4 66/3/4
f 57/2/4 65/2/4 67/2/4
f 65/2/4 66/2/4 67/2/4
f 59/3/4 61/3/4 68/3/4
f 67/2/4 66/2/4 68/2/4
f 66/2/4 59/2/4 68/2/4
f 61/2/4 62/2/4 69/2/4
f 68/3/4 61/3/4 69/3/4
f 40/2/4 52/2/4 70/2/4
f 52/3/4 57/3/4 70/3/4
f 57/2/4 67/2/4 71/2/4
f 70/3/4 57/3/4 71/3/4
f 67/3/4 68/3/4 72/3/4
f 71/2/4 67/2/4 72/2/4
f 70/2/4 71/2/4 72/2/4
f 68/2/4 69/2/4 73/2/4
f 72/3/4 68/3/4 73/3/4
f 38/3/4 40/3/4 74/3/4
f 40/2/4 70/2/4 74/2/4
f 72/2/4 73/2/4 74/2/4
f 70/2/4 72/2/4 74/2/4
f 73/2/4 69/2/4 75/2/4
f 74/2/4 73/2/4 75/2/4
f 41/3/4 39/3/4 75/3/4
f 62/2/4 41/2/4 75/2/4
f 69/2/4 62/2/4 75/2/4
f 38/3/4 74/3/4 76/3/4
f 74/3/4 75/3/4 76/3/4
f 75/3/4 39/3/4 77/3/4
f 76/3/4 75/3/4 77/3/4
f 80/3/5 79/3/5 78/3/5
f 81/3/5 79/3/5 80/3/5
f 82/3/6 83/3/6 84/3/6
f 84/3/6 83/3/6 85/3/6
