# MagicaVoxel @ Ephtracy

# group
g wood wall

# material
mtllib wood wall.mtl
usemtl palette

# normals
vn -1 0 0
vn 1 0 0
vn 0 0 1
vn 0 0 -1
vn 0 -1 0
vn 0 1 0

# texcoords
vt 0.0644531 0.5
vt 0.0917969 0.5

# verts
v -2 0 -13
v -2 0 -17
v -2 71 -13
v -2 71 -17
v 59 0 -13
v 59 0 -14
v 59 0 -16
v 59 0 -17
v 59 3 -16
v 59 4 -14
v 59 11 -14
v 59 11 -16
v 59 14 -14
v 59 14 -16
v 59 23 -14
v 59 23 -16
v 59 26 -14
v 59 26 -16
v 59 35 -14
v 59 35 -16
v 59 38 -14
v 59 38 -16
v 59 47 -14
v 59 47 -16
v 59 50 -14
v 59 50 -16
v 59 59 -14
v 59 59 -16
v 59 62 -14
v 59 62 -16
v 59 67 -14
v 59 67 -16
v 59 71 -13
v 59 71 -14
v 59 71 -16
v 59 71 -17
v 2 0 -13
v 2 0 -14
v 2 0 -16
v 2 0 -17
v 2 3 -16
v 2 4 -14
v 2 11 -14
v 2 11 -16
v 2 14 -14
v 2 14 -16
v 2 23 -14
v 2 23 -16
v 2 26 -14
v 2 26 -16
v 2 35 -14
v 2 35 -16
v 2 38 -14
v 2 38 -16
v 2 47 -14
v 2 47 -16
v 2 50 -14
v 2 50 -16
v 2 59 -14
v 2 59 -16
v 2 62 -14
v 2 62 -16
v 2 67 -14
v 2 67 -16
v 2 71 -13
v 2 71 -14
v 2 71 -16
v 2 71 -17
v 63 0 -13
v 63 0 -17
v 63 71 -13
v 63 71 -17
v -2 0 -13
v -2 71 -13
v 2 0 -13
v 2 71 -13
v 59 0 -13
v 59 71 -13
v 63 0 -13
v 63 71 -13
v 2 0 -14
v 2 4 -14
v 2 11 -14
v 2 14 -14
v 2 23 -14
v 2 26 -14
v 2 35 -14
v 2 38 -14
v 2 47 -14
v 2 50 -14
v 2 59 -14
v 2 62 -14
v 2 67 -14
v 2 71 -14
v 59 0 -14
v 59 4 -14
v 59 11 -14
v 59 14 -14
v 59 23 -14
v 59 26 -14
v 59 35 -14
v 59 38 -14
v 59 47 -14
v 59 50 -14
v 59 59 -14
v 59 62 -14
v 59 67 -14
v 59 71 -14
v 2 0 -16
v 2 3 -16
v 2 11 -16
v 2 14 -16
v 2 23 -16
v 2 26 -16
v 2 35 -16
v 2 38 -16
v 2 47 -16
v 2 50 -16
v 2 59 -16
v 2 62 -16
v 2 67 -16
v 2 71 -16
v 59 0 -16
v 59 3 -16
v 59 11 -16
v 59 14 -16
v 59 23 -16
v 59 26 -16
v 59 35 -16
v 59 38 -16
v 59 47 -16
v 59 50 -16
v 59 59 -16
v 59 62 -16
v 59 67 -16
v 59 71 -16
v -2 0 -17
v -2 71 -17
v 2 0 -17
v 2 71 -17
v 59 0 -17
v 59 71 -17
v 63 0 -17
v 63 71 -17
v -2 0 -13
v 2 0 -13
v 59 0 -13
v 63 0 -13
v 2 0 -14
v 59 0 -14
v 2 0 -16
v 59 0 -16
v -2 0 -17
v 2 0 -17
v 59 0 -17
v 63 0 -17
v 2 14 -14
v 59 14 -14
v 2 14 -16
v 59 14 -16
v 2 26 -14
v 59 26 -14
v 2 26 -16
v 59 26 -16
v 2 38 -14
v 59 38 -14
v 2 38 -16
v 59 38 -16
v 2 50 -14
v 59 50 -14
v 2 50 -16
v 59 50 -16
v 2 62 -14
v 59 62 -14
v 2 62 -16
v 59 62 -16
v 2 11 -14
v 59 11 -14
v 2 11 -16
v 59 11 -16
v 2 23 -14
v 59 23 -14
v 2 23 -16
v 59 23 -16
v 2 35 -14
v 59 35 -14
v 2 35 -16
v 59 35 -16
v 2 47 -14
v 59 47 -14
v 2 47 -16
v 59 47 -16
v 2 59 -14
v 59 59 -14
v 2 59 -16
v 59 59 -16
v -2 71 -13
v 2 71 -13
v 59 71 -13
v 63 71 -13
v 2 71 -14
v 59 71 -14
v 2 71 -16
v 59 71 -16
v -2 71 -17
v 2 71 -17
v 59 71 -17
v 63 71 -17

# faces
f 3/2/1 2/2/1 1/2/1
f 4/2/1 2/2/1 3/2/1
f 9/2/1 8/2/1 7/2/1
f 10/2/1 6/2/1 5/2/1
f 11/2/1 10/2/1 5/2/1
f 12/2/1 8/2/1 9/2/1
f 13/2/1 11/2/1 5/2/1
f 13/1/1 12/1/1 11/1/1
f 14/2/1 8/2/1 12/2/1
f 14/1/1 12/1/1 13/1/1
f 15/2/1 13/2/1 5/2/1
f 16/2/1 8/2/1 14/2/1
f 17/2/1 15/2/1 5/2/1
f 17/1/1 16/1/1 15/1/1
f 18/2/1 8/2/1 16/2/1
f 18/1/1 16/1/1 17/1/1
f 19/2/1 17/2/1 5/2/1
f 20/2/1 8/2/1 18/2/1
f 21/2/1 19/2/1 5/2/1
f 21/1/1 20/1/1 19/1/1
f 22/2/1 8/2/1 20/2/1
f 22/1/1 20/1/1 21/1/1
f 23/2/1 21/2/1 5/2/1
f 24/2/1 8/2/1 22/2/1
f 25/2/1 23/2/1 5/2/1
f 25/1/1 24/1/1 23/1/1
f 26/2/1 8/2/1 24/2/1
f 26/1/1 24/1/1 25/1/1
f 27/2/1 25/2/1 5/2/1
f 28/2/1 8/2/1 26/2/1
f 29/2/1 27/2/1 5/2/1
f 29/1/1 28/1/1 27/1/1
f 30/2/1 8/2/1 28/2/1
f 30/1/1 28/1/1 29/1/1
f 31/2/1 29/2/1 5/2/1
f 32/2/1 8/2/1 30/2/1
f 33/2/1 31/2/1 5/2/1
f 34/2/1 31/2/1 33/2/1
f 35/2/1 8/2/1 32/2/1
f 36/2/1 8/2/1 35/2/1
f 39/2/2 40/2/2 41/2/2
f 37/2/2 38/2/2 42/2/2
f 37/2/2 42/2/2 43/2/2
f 41/2/2 40/2/2 44/2/2
f 37/2/2 43/2/2 45/2/2
f 43/1/2 44/1/2 45/1/2
f 44/2/2 40/2/2 46/2/2
f 45/1/2 44/1/2 46/1/2
f 37/2/2 45/2/2 47/2/2
f 46/2/2 40/2/2 48/2/2
f 37/2/2 47/2/2 49/2/2
f 47/1/2 48/1/2 49/1/2
f 48/2/2 40/2/2 50/2/2
f 49/1/2 48/1/2 50/1/2
f 37/2/2 49/2/2 51/2/2
f 50/2/2 40/2/2 52/2/2
f 37/2/2 51/2/2 53/2/2
f 51/1/2 52/1/2 53/1/2
f 52/2/2 40/2/2 54/2/2
f 53/1/2 52/1/2 54/1/2
f 37/2/2 53/2/2 55/2/2
f 54/2/2 40/2/2 56/2/2
f 37/2/2 55/2/2 57/2/2
f 55/1/2 56/1/2 57/1/2
f 56/2/2 40/2/2 58/2/2
f 57/1/2 56/1/2 58/1/2
f 37/2/2 57/2/2 59/2/2
f 58/2/2 40/2/2 60/2/2
f 37/2/2 59/2/2 61/2/2
f 59/1/2 60/1/2 61/1/2
f 60/2/2 40/2/2 62/2/2
f 61/1/2 60/1/2 62/1/2
f 37/2/2 61/2/2 63/2/2
f 62/2/2 40/2/2 64/2/2
f 37/2/2 63/2/2 65/2/2
f 65/2/2 63/2/2 66/2/2
f 64/2/2 40/2/2 67/2/2
f 67/2/2 40/2/2 68/2/2
f 69/2/2 70/2/2 71/2/2
f 71/2/2 70/2/2 72/2/2
f 75/2/3 74/2/3 73/2/3
f 76/2/3 74/2/3 75/2/3
f 79/2/3 78/2/3 77/2/3
f 80/2/3 78/2/3 79/2/3
f 95/2/3 82/2/3 81/2/3
f 96/1/3 83/1/3 82/1/3
f 96/2/3 82/2/3 95/2/3
f 97/1/3 83/1/3 96/1/3
f 98/1/3 85/1/3 84/1/3
f 99/1/3 85/1/3 98/1/3
f 100/1/3 87/1/3 86/1/3
f 101/1/3 87/1/3 100/1/3
f 102/1/3 89/1/3 88/1/3
f 103/1/3 89/1/3 102/1/3
f 104/1/3 91/1/3 90/1/3
f 105/1/3 91/1/3 104/1/3
f 106/1/3 93/1/3 92/1/3
f 107/2/3 94/2/3 93/2/3
f 107/1/3 93/1/3 106/1/3
f 108/2/3 94/2/3 107/2/3
f 109/2/4 110/2/4 123/2/4
f 110/1/4 111/1/4 124/1/4
f 123/2/4 110/2/4 124/2/4
f 124/1/4 111/1/4 125/1/4
f 112/1/4 113/1/4 126/1/4
f 126/1/4 113/1/4 127/1/4
f 114/1/4 115/1/4 128/1/4
f 128/1/4 115/1/4 129/1/4
f 116/1/4 117/1/4 130/1/4
f 130/1/4 117/1/4 131/1/4
f 118/1/4 119/1/4 132/1/4
f 132/1/4 119/1/4 133/1/4
f 120/1/4 121/1/4 134/1/4
f 121/2/4 122/2/4 135/2/4
f 134/1/4 121/1/4 135/1/4
f 135/2/4 122/2/4 136/2/4
f 137/2/4 138/2/4 139/2/4
f 139/2/4 138/2/4 140/2/4
f 141/2/4 142/2/4 143/2/4
f 143/2/4 142/2/4 144/2/4
f 149/2/5 146/2/5 145/2/5
f 150/2/5 148/2/5 147/2/5
f 151/2/5 149/2/5 145/2/5
f 151/2/5 150/2/5 149/2/5
f 152/2/5 148/2/5 150/2/5
f 152/2/5 150/2/5 151/2/5
f 153/2/5 151/2/5 145/2/5
f 154/2/5 151/2/5 153/2/5
f 155/2/5 148/2/5 152/2/5
f 156/2/5 148/2/5 155/2/5
f 159/1/5 158/1/5 157/1/5
f 160/1/5 158/1/5 159/1/5
f 163/1/5 162/1/5 161/1/5
f 164/1/5 162/1/5 163/1/5
f 167/1/5 166/1/5 165/1/5
f 168/1/5 166/1/5 167/1/5
f 171/1/5 170/1/5 169/1/5
f 172/1/5 170/1/5 171/1/5
f 175/1/5 174/1/5 173/1/5
f 176/1/5 174/1/5 175/1/5
f 177/1/6 178/1/6 179/1/6
f 179/1/6 178/1/6 180/1/6
f 181/1/6 182/1/6 183/1/6
f 183/1/6 182/1/6 184/1/6
f 185/1/6 186/1/6 187/1/6
f 187/1/6 186/1/6 188/1/6
f 189/1/6 190/1/6 191/1/6
f 191/1/6 190/1/6 192/1/6
f 193/1/6 194/1/6 195/1/6
f 195/1/6 194/1/6 196/1/6
f 197/2/6 198/2/6 201/2/6
f 199/2/6 200/2/6 202/2/6
f 197/2/6 201/2/6 203/2/6
f 201/2/6 202/2/6 203/2/6
f 202/2/6 200/2/6 204/2/6
f 203/2/6 202/2/6 204/2/6
f 197/2/6 203/2/6 205/2/6
f 205/2/6 203/2/6 206/2/6
f 204/2/6 200/2/6 207/2/6
f 207/2/6 200/2/6 208/2/6
