# MagicaVoxel @ Ephtracy

# group
g greenclassicalbin

# material
mtllib greenclassicalbin.mtl
usemtl palette

# normals
vn -1 0 0
vn 1 0 0
vn 0 0 1
vn 0 0 -1
vn 0 -1 0
vn 0 1 0

# texcoords
vt 0.908203 0.5
vt 0.978516 0.5
vt 0.982422 0.5
vt 0.994141 0.5

# verts
v 1 19 4
v 1 19 -8
v 1 20 4
v 1 20 -8
v 1 21 4
v 1 21 -8
v 1 22 4
v 1 22 -8
v 2 0 2
v 2 0 -6
v 2 0 -7
v 2 0 -10
v 2 1 -6
v 2 1 -7
v 2 1 -10
v 2 1 -11
v 2 2 -8
v 2 2 -9
v 2 3 -8
v 2 3 -9
v 2 4 -6
v 2 4 -7
v 2 4 -10
v 2 4 -11
v 2 5 -7
v 2 5 -10
v 2 8 -6
v 2 8 -7
v 2 10 3
v 2 10 2
v 2 11 -7
v 2 11 -8
v 2 19 3
v 2 19 -8
v 2 20 3
v 2 20 -8
v 2 21 3
v 2 21 -8
v 3 0 3
v 3 0 2
v 3 10 3
v 3 10 2
v 4 0 -6
v 4 0 -9
v 4 2 -8
v 4 2 -9
v 4 3 -8
v 4 8 -6
v 4 8 -7
v 4 9 -8
v 4 9 -9
v 4 11 -7
v 4 11 -8
v 4 20 -8
v 4 20 -9
v 4 20 -10
v 4 21 -8
v 4 21 -10
v 4 21 -11
v 4 22 2
v 4 22 -6
v 4 22 -8
v 4 22 -11
v 4 23 2
v 4 23 -6
v 11 20 -8
v 11 20 -9
v 11 20 -10
v 11 21 -8
v 11 21 -10
v 11 22 -8
v 11 22 -10
v 13 0 -7
v 13 0 -10
v 13 1 -6
v 13 1 -7
v 13 1 -10
v 13 1 -11
v 13 2 -8
v 13 2 -9
v 13 3 -8
v 13 3 -9
v 13 4 -6
v 13 4 -7
v 13 4 -10
v 13 4 -11
v 13 5 -7
v 13 5 -10
v 3 0 -7
v 3 0 -10
v 3 1 -6
v 3 1 -7
v 3 1 -10
v 3 1 -11
v 3 2 -8
v 3 2 -9
v 3 3 -8
v 3 3 -9
v 3 4 -6
v 3 4 -7
v 3 4 -10
v 3 4 -11
v 3 5 -7
v 3 5 -10
v 5 20 -8
v 5 20 -9
v 5 20 -10
v 5 21 -8
v 5 21 -10
v 5 22 -8
v 5 22 -10
v 12 0 -6
v 12 0 -9
v 12 2 -8
v 12 2 -9
v 12 3 -8
v 12 8 -6
v 12 8 -7
v 12 9 -8
v 12 9 -9
v 12 11 -7
v 12 11 -8
v 12 20 -8
v 12 20 -9
v 12 20 -10
v 12 21 -8
v 12 21 -10
v 12 21 -11
v 12 22 2
v 12 22 -6
v 12 22 -8
v 12 22 -11
v 12 23 2
v 12 23 -6
v 13 0 3
v 13 0 2
v 13 10 3
v 13 10 2
v 14 0 2
v 14 0 -6
v 14 0 -7
v 14 0 -10
v 14 1 -6
v 14 1 -7
v 14 1 -10
v 14 1 -11
v 14 2 -8
v 14 2 -9
v 14 3 -8
v 14 3 -9
v 14 4 -6
v 14 4 -7
v 14 4 -10
v 14 4 -11
v 14 5 -7
v 14 5 -10
v 14 8 -6
v 14 8 -7
v 14 10 3
v 14 10 2
v 14 11 -7
v 14 11 -8
v 14 19 3
v 14 19 -8
v 14 20 3
v 14 20 -8
v 14 21 3
v 14 21 -8
v 15 19 4
v 15 19 -8
v 15 20 4
v 15 20 -8
v 15 21 4
v 15 21 -8
v 15 22 4
v 15 22 -8
v 1 19 4
v 1 20 4
v 1 21 4
v 1 22 4
v 15 19 4
v 15 20 4
v 15 21 4
v 15 22 4
v 2 10 3
v 2 19 3
v 2 20 3
v 2 21 3
v 3 0 3
v 3 10 3
v 13 0 3
v 13 10 3
v 14 10 3
v 14 19 3
v 14 20 3
v 14 21 3
v 2 0 2
v 2 10 2
v 3 0 2
v 3 10 2
v 4 22 2
v 4 23 2
v 12 22 2
v 12 23 2
v 13 0 2
v 13 10 2
v 14 0 2
v 14 10 2
v 2 0 -7
v 2 1 -7
v 2 4 -7
v 2 5 -7
v 3 0 -7
v 3 1 -7
v 3 4 -7
v 3 5 -7
v 13 0 -7
v 13 1 -7
v 13 4 -7
v 13 5 -7
v 14 0 -7
v 14 1 -7
v 14 4 -7
v 14 5 -7
v 3 2 -8
v 3 3 -8
v 4 2 -8
v 4 3 -8
v 12 2 -8
v 12 3 -8
v 13 2 -8
v 13 3 -8
v 5 21 -10
v 5 22 -10
v 11 21 -10
v 11 22 -10
v 2 0 -6
v 2 1 -6
v 2 4 -6
v 2 8 -6
v 3 1 -6
v 3 4 -6
v 4 0 -6
v 4 8 -6
v 4 22 -6
v 4 23 -6
v 12 0 -6
v 12 8 -6
v 12 22 -6
v 12 23 -6
v 13 1 -6
v 13 4 -6
v 14 0 -6
v 14 1 -6
v 14 4 -6
v 14 8 -6
v 2 8 -7
v 2 11 -7
v 4 8 -7
v 4 11 -7
v 12 8 -7
v 12 11 -7
v 14 8 -7
v 14 11 -7
v 1 19 -8
v 1 20 -8
v 1 21 -8
v 1 22 -8
v 2 11 -8
v 2 19 -8
v 2 20 -8
v 2 21 -8
v 3 21 -8
v 3 22 -8
v 4 3 -8
v 4 9 -8
v 4 11 -8
v 4 20 -8
v 4 21 -8
v 4 22 -8
v 5 20 -8
v 5 21 -8
v 5 22 -8
v 11 20 -8
v 11 21 -8
v 11 22 -8
v 12 3 -8
v 12 9 -8
v 12 11 -8
v 12 20 -8
v 12 21 -8
v 12 22 -8
v 13 21 -8
v 13 22 -8
v 14 11 -8
v 14 19 -8
v 14 20 -8
v 14 21 -8
v 15 19 -8
v 15 20 -8
v 15 21 -8
v 15 22 -8
v 3 2 -9
v 3 3 -9
v 4 0 -9
v 4 2 -9
v 4 9 -9
v 4 20 -9
v 5 20 -9
v 11 20 -9
v 12 0 -9
v 12 2 -9
v 12 9 -9
v 12 20 -9
v 13 2 -9
v 13 3 -9
v 2 0 -10
v 2 1 -10
v 2 4 -10
v 2 5 -10
v 3 0 -10
v 3 1 -10
v 3 4 -10
v 3 5 -10
v 4 20 -10
v 4 21 -10
v 5 20 -10
v 5 21 -10
v 11 20 -10
v 11 21 -10
v 12 20 -10
v 12 21 -10
v 13 0 -10
v 13 1 -10
v 13 4 -10
v 13 5 -10
v 14 0 -10
v 14 1 -10
v 14 4 -10
v 14 5 -10
v 2 1 -11
v 2 4 -11
v 3 1 -11
v 3 4 -11
v 4 21 -11
v 4 22 -11
v 12 21 -11
v 12 22 -11
v 13 1 -11
v 13 4 -11
v 14 1 -11
v 14 4 -11
v 3 0 3
v 13 0 3
v 2 0 2
v 3 0 2
v 13 0 2
v 14 0 2
v 2 0 -6
v 4 0 -6
v 12 0 -6
v 14 0 -6
v 2 0 -7
v 3 0 -7
v 13 0 -7
v 14 0 -7
v 4 0 -9
v 12 0 -9
v 2 0 -10
v 3 0 -10
v 13 0 -10
v 14 0 -10
v 2 1 -6
v 3 1 -6
v 13 1 -6
v 14 1 -6
v 2 1 -7
v 3 1 -7
v 13 1 -7
v 14 1 -7
v 2 1 -10
v 3 1 -10
v 13 1 -10
v 14 1 -10
v 2 1 -11
v 3 1 -11
v 13 1 -11
v 14 1 -11
v 3 2 -8
v 4 2 -8
v 12 2 -8
v 13 2 -8
v 3 2 -9
v 4 2 -9
v 12 2 -9
v 13 2 -9
v 2 8 -6
v 4 8 -6
v 12 8 -6
v 14 8 -6
v 2 8 -7
v 4 8 -7
v 12 8 -7
v 14 8 -7
v 4 9 -8
v 12 9 -8
v 4 9 -9
v 12 9 -9
v 2 10 3
v 3 10 3
v 13 10 3
v 14 10 3
v 2 10 2
v 3 10 2
v 13 10 2
v 14 10 2
v 2 11 -7
v 4 11 -7
v 12 11 -7
v 14 11 -7
v 2 11 -8
v 4 11 -8
v 12 11 -8
v 14 11 -8
v 1 19 4
v 15 19 4
v 2 19 3
v 14 19 3
v 1 19 -8
v 2 19 -8
v 14 19 -8
v 15 19 -8
v 4 20 -9
v 5 20 -9
v 11 20 -9
v 12 20 -9
v 4 20 -10
v 5 20 -10
v 11 20 -10
v 12 20 -10
v 1 21 4
v 15 21 4
v 2 21 3
v 14 21 3
v 1 21 -8
v 2 21 -8
v 14 21 -8
v 15 21 -8
v 4 21 -10
v 5 21 -10
v 11 21 -10
v 12 21 -10
v 4 21 -11
v 12 21 -11
v 3 3 -8
v 4 3 -8
v 12 3 -8
v 13 3 -8
v 3 3 -9
v 13 3 -9
v 2 4 -6
v 3 4 -6
v 13 4 -6
v 14 4 -6
v 2 4 -7
v 3 4 -7
v 13 4 -7
v 14 4 -7
v 2 4 -10
v 3 4 -10
v 13 4 -10
v 14 4 -10
v 2 4 -11
v 3 4 -11
v 13 4 -11
v 14 4 -11
v 2 5 -7
v 3 5 -7
v 13 5 -7
v 14 5 -7
v 2 5 -10
v 3 5 -10
v 13 5 -10
v 14 5 -10
v 1 20 4
v 15 20 4
v 2 20 3
v 14 20 3
v 1 20 -8
v 2 20 -8
v 5 20 -8
v 11 20 -8
v 14 20 -8
v 15 20 -8
v 5 20 -9
v 11 20 -9
v 1 22 4
v 15 22 4
v 4 22 2
v 12 22 2
v 4 22 -6
v 12 22 -6
v 3 22 -7
v 13 22 -7
v 1 22 -8
v 3 22 -8
v 4 22 -8
v 5 22 -8
v 11 22 -8
v 12 22 -8
v 13 22 -8
v 15 22 -8
v 5 22 -10
v 11 22 -10
v 4 22 -11
v 12 22 -11
v 4 23 2
v 12 23 2
v 4 23 -6
v 12 23 -6

# faces
f 3/3/1 2/3/1 1/3/1
f 4/3/1 2/3/1 3/3/1
f 7/1/1 6/1/1 5/1/1
f 8/1/1 6/1/1 7/1/1
f 13/3/1 10/3/1 9/3/1
f 14/4/1 12/4/1 11/4/1
f 15/4/1 12/4/1 14/4/1
f 17/4/1 14/4/1 13/4/1
f 17/4/1 16/4/1 15/4/1
f 17/4/1 15/4/1 14/4/1
f 18/4/1 16/4/1 17/4/1
f 19/4/1 17/4/1 13/4/1
f 19/2/1 18/2/1 17/2/1
f 20/4/1 16/4/1 18/4/1
f 20/2/1 18/2/1 19/2/1
f 21/3/1 13/3/1 9/3/1
f 21/4/1 19/4/1 13/4/1
f 21/4/1 20/4/1 19/4/1
f 22/4/1 20/4/1 21/4/1
f 23/4/1 16/4/1 20/4/1
f 23/4/1 20/4/1 22/4/1
f 24/4/1 16/4/1 23/4/1
f 25/4/1 23/4/1 22/4/1
f 26/4/1 23/4/1 25/4/1
f 27/3/1 21/3/1 9/3/1
f 30/3/1 27/3/1 9/3/1
f 30/3/1 28/3/1 27/3/1
f 31/3/1 28/3/1 30/3/1
f 31/3/1 30/3/1 29/3/1
f 33/3/1 31/3/1 29/3/1
f 33/3/1 32/3/1 31/3/1
f 34/3/1 32/3/1 33/3/1
f 37/1/1 36/1/1 35/1/1
f 38/1/1 36/1/1 37/1/1
f 41/3/1 40/3/1 39/3/1
f 42/3/1 40/3/1 41/3/1
f 45/3/1 44/3/1 43/3/1
f 46/3/1 44/3/1 45/3/1
f 47/3/1 45/3/1 43/3/1
f 48/3/1 47/3/1 43/3/1
f 49/3/1 47/3/1 48/3/1
f 50/3/1 47/3/1 49/3/1
f 52/3/1 50/3/1 49/3/1
f 52/3/1 51/3/1 50/3/1
f 53/3/1 51/3/1 52/3/1
f 54/3/1 51/3/1 53/3/1
f 55/3/1 51/3/1 54/3/1
f 57/3/1 55/3/1 54/3/1
f 57/3/1 56/3/1 55/3/1
f 58/3/1 56/3/1 57/3/1
f 62/3/1 58/3/1 57/3/1
f 62/3/1 59/3/1 58/3/1
f 63/3/1 59/3/1 62/3/1
f 64/1/1 61/1/1 60/1/1
f 65/1/1 61/1/1 64/1/1
f 69/3/1 67/3/1 66/3/1
f 69/3/1 68/3/1 67/3/1
f 70/3/1 68/3/1 69/3/1
f 71/3/1 70/3/1 69/3/1
f 72/3/1 70/3/1 71/3/1
f 76/4/1 74/4/1 73/4/1
f 77/4/1 74/4/1 76/4/1
f 79/4/1 76/4/1 75/4/1
f 79/4/1 78/4/1 77/4/1
f 79/4/1 77/4/1 76/4/1
f 80/4/1 78/4/1 79/4/1
f 81/4/1 79/4/1 75/4/1
f 82/4/1 78/4/1 80/4/1
f 83/4/1 81/4/1 75/4/1
f 83/4/1 82/4/1 81/4/1
f 84/4/1 82/4/1 83/4/1
f 85/4/1 78/4/1 82/4/1
f 85/4/1 82/4/1 84/4/1
f 86/4/1 78/4/1 85/4/1
f 87/4/1 85/4/1 84/4/1
f 88/4/1 85/4/1 87/4/1
f 89/4/2 90/4/2 92/4/2
f 92/4/2 90/4/2 93/4/2
f 91/4/2 92/4/2 95/4/2
f 93/4/2 94/4/2 95/4/2
f 92/4/2 93/4/2 95/4/2
f 95/4/2 94/4/2 96/4/2
f 91/4/2 95/4/2 97/4/2
f 96/4/2 94/4/2 98/4/2
f 91/4/2 97/4/2 99/4/2
f 97/4/2 98/4/2 99/4/2
f 99/4/2 98/4/2 100/4/2
f 98/4/2 94/4/2 101/4/2
f 100/4/2 98/4/2 101/4/2
f 101/4/2 94/4/2 102/4/2
f 100/4/2 101/4/2 103/4/2
f 103/4/2 101/4/2 104/4/2
f 105/3/2 106/3/2 108/3/2
f 106/3/2 107/3/2 108/3/2
f 108/3/2 107/3/2 109/3/2
f 108/3/2 109/3/2 110/3/2
f 110/3/2 109/3/2 111/3/2
f 112/3/2 113/3/2 114/3/2
f 114/3/2 113/3/2 115/3/2
f 112/3/2 114/3/2 116/3/2
f 112/3/2 116/3/2 117/3/2
f 117/3/2 116/3/2 118/3/2
f 118/3/2 116/3/2 119/3/2
f 118/3/2 119/3/2 121/3/2
f 119/3/2 120/3/2 121/3/2
f 121/3/2 120/3/2 122/3/2
f 122/3/2 120/3/2 123/3/2
f 123/3/2 120/3/2 124/3/2
f 123/3/2 124/3/2 126/3/2
f 124/3/2 125/3/2 126/3/2
f 126/3/2 125/3/2 127/3/2
f 126/3/2 127/3/2 131/3/2
f 127/3/2 128/3/2 131/3/2
f 131/3/2 128/3/2 132/3/2
f 129/1/2 130/1/2 133/1/2
f 133/1/2 130/1/2 134/1/2
f 135/3/2 136/3/2 137/3/2
f 137/3/2 136/3/2 138/3/2
f 139/3/2 140/3/2 143/3/2
f 141/4/2 142/4/2 144/4/2
f 144/4/2 142/4/2 145/4/2
f 143/4/2 144/4/2 147/4/2
f 145/4/2 146/4/2 147/4/2
f 144/4/2 145/4/2 147/4/2
f 147/4/2 146/4/2 148/4/2
f 143/4/2 147/4/2 149/4/2
f 147/2/2 148/2/2 149/2/2
f 148/4/2 146/4/2 150/4/2
f 149/2/2 148/2/2 150/2/2
f 139/3/2 143/3/2 151/3/2
f 143/4/2 149/4/2 151/4/2
f 149/4/2 150/4/2 151/4/2
f 151/4/2 150/4/2 152/4/2
f 150/4/2 146/4/2 153/4/2
f 152/4/2 150/4/2 153/4/2
f 153/4/2 146/4/2 154/4/2
f 152/4/2 153/4/2 155/4/2
f 155/4/2 153/4/2 156/4/2
f 139/3/2 151/3/2 157/3/2
f 139/3/2 157/3/2 160/3/2
f 157/3/2 158/3/2 160/3/2
f 160/3/2 158/3/2 161/3/2
f 159/3/2 160/3/2 161/3/2
f 159/3/2 161/3/2 163/3/2
f 161/3/2 162/3/2 163/3/2
f 163/3/2 162/3/2 164/3/2
f 165/1/2 166/1/2 167/1/2
f 167/1/2 166/1/2 168/1/2
f 169/3/2 170/3/2 171/3/2
f 171/3/2 170/3/2 172/3/2
f 173/1/2 174/1/2 175/1/2
f 175/1/2 174/1/2 176/1/2
f 181/3/3 178/3/3 177/3/3
f 182/3/3 178/3/3 181/3/3
f 183/1/3 180/1/3 179/1/3
f 184/1/3 180/1/3 183/1/3
f 190/3/3 186/3/3 185/3/3
f 191/3/3 190/3/3 189/3/3
f 192/3/3 186/3/3 190/3/3
f 192/3/3 190/3/3 191/3/3
f 193/3/3 186/3/3 192/3/3
f 194/3/3 186/3/3 193/3/3
f 195/1/3 188/1/3 187/1/3
f 196/1/3 188/1/3 195/1/3
f 199/3/3 198/3/3 197/3/3
f 200/3/3 198/3/3 199/3/3
f 203/1/3 202/1/3 201/1/3
f 204/1/3 202/1/3 203/1/3
f 207/3/3 206/3/3 205/3/3
f 208/3/3 206/3/3 207/3/3
f 213/4/3 210/4/3 209/4/3
f 214/4/3 210/4/3 213/4/3
f 215/4/3 212/4/3 211/4/3
f 216/4/3 212/4/3 215/4/3
f 221/4/3 218/4/3 217/4/3
f 222/4/3 218/4/3 221/4/3
f 223/4/3 220/4/3 219/4/3
f 224/4/3 220/4/3 223/4/3
f 227/2/3 226/2/3 225/2/3
f 228/2/3 226/2/3 227/2/3
f 231/2/3 230/2/3 229/2/3
f 232/2/3 230/2/3 231/2/3
f 235/3/3 234/3/3 233/3/3
f 236/3/3 234/3/3 235/3/3
f 237/3/4 238/3/4 241/3/4
f 239/3/4 240/3/4 242/3/4
f 237/3/4 241/3/4 243/3/4
f 241/3/4 242/3/4 243/3/4
f 242/3/4 240/3/4 244/3/4
f 243/3/4 242/3/4 244/3/4
f 245/1/4 246/1/4 249/1/4
f 249/1/4 246/1/4 250/1/4
f 247/3/4 248/3/4 251/3/4
f 251/3/4 248/3/4 252/3/4
f 247/3/4 251/3/4 253/3/4
f 253/3/4 251/3/4 254/3/4
f 252/3/4 248/3/4 255/3/4
f 255/3/4 248/3/4 256/3/4
f 257/3/4 258/3/4 259/3/4
f 259/3/4 258/3/4 260/3/4
f 261/3/4 262/3/4 263/3/4
f 263/3/4 262/3/4 264/3/4
f 265/3/4 266/3/4 270/3/4
f 270/3/4 266/3/4 271/3/4
f 267/1/4 268/1/4 272/1/4
f 272/1/4 268/1/4 273/1/4
f 271/1/4 272/1/4 273/1/4
f 273/1/4 268/1/4 274/1/4
f 270/3/4 271/3/4 277/3/4
f 269/3/4 270/3/4 277/3/4
f 271/1/4 273/1/4 278/1/4
f 277/3/4 271/3/4 278/3/4
f 273/2/4 274/2/4 279/2/4
f 278/1/4 273/1/4 279/1/4
f 279/2/4 274/2/4 280/2/4
f 281/1/4 282/1/4 284/1/4
f 282/2/4 283/2/4 285/2/4
f 284/1/4 282/1/4 285/1/4
f 285/2/4 283/2/4 286/2/4
f 275/3/4 276/3/4 287/3/4
f 287/3/4 276/3/4 288/3/4
f 291/2/4 292/2/4 293/2/4
f 290/1/4 291/1/4 293/1/4
f 293/2/4 292/2/4 294/2/4
f 289/3/4 290/3/4 295/3/4
f 295/3/4 290/3/4 296/3/4
f 290/1/4 293/1/4 297/1/4
f 296/3/4 290/3/4 297/3/4
f 293/1/4 294/1/4 297/1/4
f 297/1/4 294/1/4 298/1/4
f 296/3/4 297/3/4 299/3/4
f 299/3/4 297/3/4 300/3/4
f 298/1/4 294/1/4 301/1/4
f 301/1/4 294/1/4 302/1/4
f 303/2/4 304/2/4 306/2/4
f 307/3/4 308/3/4 309/3/4
f 307/3/4 309/3/4 310/3/4
f 305/3/4 306/3/4 311/3/4
f 306/2/4 304/2/4 312/2/4
f 311/3/4 306/3/4 312/3/4
f 307/3/4 310/3/4 313/3/4
f 313/3/4 310/3/4 314/3/4
f 312/2/4 304/2/4 315/2/4
f 315/2/4 304/2/4 316/2/4
f 317/4/4 318/4/4 321/4/4
f 321/4/4 318/4/4 322/4/4
f 319/4/4 320/4/4 323/4/4
f 323/4/4 320/4/4 324/4/4
f 325/3/4 326/3/4 327/3/4
f 327/3/4 326/3/4 328/3/4
f 329/3/4 330/3/4 331/3/4
f 331/3/4 330/3/4 332/3/4
f 333/4/4 334/4/4 337/4/4
f 337/4/4 334/4/4 338/4/4
f 335/4/4 336/4/4 339/4/4
f 339/4/4 336/4/4 340/4/4
f 341/4/4 342/4/4 343/4/4
f 343/4/4 342/4/4 344/4/4
f 345/3/4 346/3/4 347/3/4
f 347/3/4 346/3/4 348/3/4
f 349/4/4 350/4/4 351/4/4
f 351/4/4 350/4/4 352/4/4
f 356/3/5 354/3/5 353/3/5
f 357/3/5 354/3/5 356/3/5
f 359/3/5 356/3/5 355/3/5
f 359/3/5 358/3/5 357/3/5
f 359/3/5 357/3/5 356/3/5
f 360/3/5 358/3/5 359/3/5
f 361/3/5 358/3/5 360/3/5
f 362/3/5 358/3/5 361/3/5
f 367/3/5 361/3/5 360/3/5
f 368/3/5 361/3/5 367/3/5
f 369/4/5 364/4/5 363/4/5
f 370/4/5 364/4/5 369/4/5
f 371/4/5 366/4/5 365/4/5
f 372/4/5 366/4/5 371/4/5
f 377/4/5 374/4/5 373/4/5
f 378/4/5 374/4/5 377/4/5
f 379/4/5 376/4/5 375/4/5
f 380/4/5 376/4/5 379/4/5
f 385/4/5 382/4/5 381/4/5
f 386/4/5 382/4/5 385/4/5
f 387/4/5 384/4/5 383/4/5
f 388/4/5 384/4/5 387/4/5
f 393/2/5 390/2/5 389/2/5
f 394/2/5 390/2/5 393/2/5
f 395/2/5 392/2/5 391/2/5
f 396/2/5 392/2/5 395/2/5
f 401/3/5 398/3/5 397/3/5
f 402/3/5 398/3/5 401/3/5
f 403/3/5 400/3/5 399/3/5
f 404/3/5 400/3/5 403/3/5
f 407/3/5 406/3/5 405/3/5
f 408/3/5 406/3/5 407/3/5
f 413/3/5 410/3/5 409/3/5
f 414/3/5 410/3/5 413/3/5
f 415/3/5 412/3/5 411/3/5
f 416/3/5 412/3/5 415/3/5
f 421/3/5 418/3/5 417/3/5
f 422/3/5 418/3/5 421/3/5
f 423/3/5 420/3/5 419/3/5
f 424/3/5 420/3/5 423/3/5
f 427/3/5 426/3/5 425/3/5
f 428/3/5 426/3/5 427/3/5
f 429/3/5 427/3/5 425/3/5
f 430/3/5 427/3/5 429/3/5
f 431/3/5 426/3/5 428/3/5
f 432/3/5 426/3/5 431/3/5
f 437/3/5 434/3/5 433/3/5
f 438/3/5 434/3/5 437/3/5
f 439/3/5 436/3/5 435/3/5
f 440/3/5 436/3/5 439/3/5
f 443/1/5 442/1/5 441/1/5
f 444/1/5 442/1/5 443/1/5
f 445/1/5 443/1/5 441/1/5
f 446/1/5 443/1/5 445/1/5
f 447/1/5 442/1/5 444/1/5
f 448/1/5 442/1/5 447/1/5
f 453/3/5 450/3/5 449/3/5
f 453/3/5 452/3/5 451/3/5
f 453/3/5 451/3/5 450/3/5
f 454/3/5 452/3/5 453/3/5
f 455/2/6 456/2/6 459/2/6
f 457/2/6 458/2/6 459/2/6
f 456/2/6 457/2/6 459/2/6
f 459/2/6 458/2/6 460/2/6
f 461/4/6 462/4/6 465/4/6
f 465/4/6 462/4/6 466/4/6
f 463/4/6 464/4/6 467/4/6
f 467/4/6 464/4/6 468/4/6
f 469/4/6 470/4/6 473/4/6
f 473/4/6 470/4/6 474/4/6
f 471/4/6 472/4/6 475/4/6
f 475/4/6 472/4/6 476/4/6
f 477/4/6 478/4/6 481/4/6
f 481/4/6 478/4/6 482/4/6
f 479/4/6 480/4/6 483/4/6
f 483/4/6 480/4/6 484/4/6
f 485/3/6 486/3/6 487/3/6
f 487/3/6 486/3/6 488/3/6
f 485/3/6 487/3/6 489/3/6
f 489/3/6 487/3/6 490/3/6
f 488/3/6 486/3/6 493/3/6
f 493/3/6 486/3/6 494/3/6
f 491/3/6 492/3/6 495/3/6
f 495/3/6 492/3/6 496/3/6
f 497/1/6 498/1/6 499/1/6
f 499/1/6 498/1/6 500/1/6
f 497/1/6 499/1/6 501/1/6
f 500/1/6 498/1/6 502/1/6
f 497/1/6 501/1/6 503/1/6
f 501/1/6 502/1/6 503/1/6
f 502/1/6 498/1/6 504/1/6
f 503/1/6 502/1/6 504/1/6
f 497/1/6 503/1/6 505/1/6
f 503/2/6 504/2/6 506/2/6
f 505/1/6 503/1/6 506/1/6
f 506/2/6 504/2/6 507/2/6
f 507/2/6 504/2/6 508/2/6
f 508/2/6 504/2/6 509/2/6
f 509/2/6 504/2/6 510/2/6
f 504/1/6 498/1/6 511/1/6
f 510/2/6 504/2/6 511/2/6
f 511/1/6 498/1/6 512/1/6
f 507/3/6 508/3/6 513/3/6
f 509/3/6 510/3/6 514/3/6
f 507/3/6 513/3/6 515/3/6
f 513/3/6 514/3/6 515/3/6
f 514/3/6 510/3/6 516/3/6
f 515/3/6 514/3/6 516/3/6
f 517/1/6 518/1/6 519/1/6
f 519/1/6 518/1/6 520/1/6
