# MagicaVoxel @ Ephtracy

# group
g officebin

# material
mtllib officebin.mtl
usemtl palette

# normals
vn -1 0 0
vn 1 0 0
vn 0 0 1
vn 0 0 -1
vn 0 -1 0
vn 0 1 0

# texcoords
vt 0.947266 0.5
vt 0.958984 0.5
vt 0.966797 0.5
vt 0.978516 0.5
vt 0.990234 0.5

# verts
v 4 3 8
v 4 3 -0
v 4 8 9
v 4 8 8
v 4 8 -0
v 4 8 -1
v 4 11 9
v 4 11 -1
v 5 0 8
v 5 0 -0
v 5 3 9
v 5 3 8
v 5 3 -0
v 5 3 -1
v 5 8 9
v 5 8 8
v 5 8 -0
v 5 8 -1
v 7 6 8
v 7 6 4
v 7 7 8
v 7 7 4
v 8 3 4
v 8 3 1
v 8 3 -0
v 8 4 4
v 8 5 4
v 8 5 -0
v 9 5 8
v 9 5 4
v 9 6 8
v 9 6 4
v 11 0 7
v 11 0 1
v 11 3 7
v 11 3 4
v 11 3 1
v 12 3 8
v 12 3 4
v 12 5 8
v 12 5 4
v 12 5 -0
v 12 6 8
v 12 6 4
v 12 11 8
v 12 11 -0
v 5 3 8
v 5 3 -0
v 5 4 8
v 5 4 4
v 5 5 4
v 5 5 -0
v 5 6 8
v 5 6 4
v 5 7 4
v 5 7 -0
v 5 11 8
v 5 11 -0
v 6 0 7
v 6 0 1
v 6 3 7
v 6 3 1
v 8 4 8
v 8 4 4
v 8 5 4
v 8 6 8
v 8 6 4
v 9 5 4
v 9 5 -0
v 9 6 4
v 9 7 4
v 9 7 -0
v 10 6 8
v 10 6 4
v 10 7 8
v 10 7 4
v 12 0 8
v 12 0 -0
v 12 3 9
v 12 3 8
v 12 3 -0
v 12 3 -1
v 12 8 9
v 12 8 8
v 12 8 -0
v 12 8 -1
v 13 3 8
v 13 3 -0
v 13 8 9
v 13 8 8
v 13 8 -0
v 13 8 -1
v 13 11 9
v 13 11 -1
v 4 8 9
v 4 11 9
v 5 3 9
v 5 8 9
v 12 3 9
v 12 8 9
v 13 8 9
v 13 11 9
v 4 3 8
v 4 8 8
v 5 0 8
v 5 3 8
v 5 8 8
v 12 0 8
v 12 3 8
v 12 8 8
v 13 3 8
v 13 8 8
v 5 6 4
v 5 7 4
v 7 6 4
v 7 7 4
v 8 3 4
v 8 4 4
v 8 5 4
v 8 6 4
v 9 5 4
v 9 6 4
v 11 3 4
v 12 3 4
v 12 5 4
v 6 0 1
v 6 3 1
v 8 3 1
v 11 0 1
v 11 3 1
v 5 3 -0
v 5 5 -0
v 5 7 -0
v 5 11 -0
v 8 3 -0
v 8 5 -0
v 9 5 -0
v 9 7 -0
v 12 5 -0
v 12 11 -0
v 5 3 8
v 5 4 8
v 5 6 8
v 5 11 8
v 7 6 8
v 7 7 8
v 8 4 8
v 8 6 8
v 9 5 8
v 9 6 8
v 10 6 8
v 10 7 8
v 12 3 8
v 12 5 8
v 12 6 8
v 12 11 8
v 6 0 7
v 6 3 7
v 11 0 7
v 11 3 7
v 5 4 4
v 5 5 4
v 8 4 4
v 8 5 4
v 9 5 4
v 9 6 4
v 9 7 4
v 10 6 4
v 10 7 4
v 12 5 4
v 12 6 4
v 4 3 -0
v 4 8 -0
v 5 0 -0
v 5 3 -0
v 5 8 -0
v 12 0 -0
v 12 3 -0
v 12 8 -0
v 13 3 -0
v 13 8 -0
v 4 8 -1
v 4 11 -1
v 5 3 -1
v 5 8 -1
v 12 3 -1
v 12 8 -1
v 13 8 -1
v 13 11 -1
v 5 0 8
v 12 0 8
v 6 0 7
v 11 0 7
v 6 0 1
v 11 0 1
v 5 0 -0
v 12 0 -0
v 5 3 9
v 12 3 9
v 4 3 8
v 5 3 8
v 12 3 8
v 13 3 8
v 8 3 4
v 11 3 4
v 8 3 1
v 11 3 1
v 4 3 -0
v 5 3 -0
v 12 3 -0
v 13 3 -0
v 5 3 -1
v 12 3 -1
v 5 4 8
v 8 4 8
v 5 4 4
v 8 4 4
v 9 5 8
v 12 5 8
v 5 5 4
v 8 5 4
v 9 5 4
v 12 5 4
v 5 5 -0
v 8 5 -0
v 8 6 8
v 9 6 8
v 8 6 4
v 9 6 4
v 4 8 9
v 5 8 9
v 12 8 9
v 13 8 9
v 4 8 8
v 5 8 8
v 12 8 8
v 13 8 8
v 4 8 -0
v 5 8 -0
v 12 8 -0
v 13 8 -0
v 4 8 -1
v 5 8 -1
v 12 8 -1
v 13 8 -1
v 5 3 8
v 12 3 8
v 6 3 7
v 11 3 7
v 11 3 4
v 12 3 4
v 6 3 1
v 8 3 1
v 5 3 -0
v 8 3 -0
v 9 5 4
v 12 5 4
v 9 5 -0
v 12 5 -0
v 5 6 8
v 7 6 8
v 10 6 8
v 12 6 8
v 5 6 4
v 7 6 4
v 10 6 4
v 12 6 4
v 7 7 8
v 10 7 8
v 5 7 4
v 7 7 4
v 9 7 4
v 10 7 4
v 5 7 -0
v 9 7 -0
v 4 11 9
v 13 11 9
v 5 11 8
v 12 11 8
v 5 11 -0
v 12 11 -0
v 4 11 -1
v 13 11 -1

# faces
f 4/5/1 2/5/1 1/5/1
f 5/5/1 2/5/1 4/5/1
f 7/5/1 4/5/1 3/5/1
f 7/5/1 6/5/1 5/5/1
f 7/5/1 5/5/1 4/5/1
f 8/5/1 6/5/1 7/5/1
f 12/5/1 10/5/1 9/5/1
f 13/5/1 10/5/1 12/5/1
f 15/5/1 12/5/1 11/5/1
f 16/5/1 12/5/1 15/5/1
f 17/5/1 14/5/1 13/5/1
f 18/5/1 14/5/1 17/5/1
f 21/2/1 20/2/1 19/2/1
f 22/2/1 20/2/1 21/2/1
f 26/3/1 24/3/1 23/3/1
f 26/3/1 25/3/1 24/3/1
f 27/3/1 25/3/1 26/3/1
f 28/3/1 25/3/1 27/3/1
f 31/4/1 30/4/1 29/4/1
f 32/4/1 30/4/1 31/4/1
f 35/5/1 34/5/1 33/5/1
f 36/5/1 34/5/1 35/5/1
f 37/5/1 34/5/1 36/5/1
f 40/5/1 39/5/1 38/5/1
f 41/5/1 39/5/1 40/5/1
f 44/5/1 42/5/1 41/5/1
f 45/5/1 44/5/1 43/5/1
f 46/5/1 42/5/1 44/5/1
f 46/5/1 44/5/1 45/5/1
f 47/5/2 48/5/2 49/5/2
f 49/5/2 48/5/2 50/5/2
f 50/5/2 48/5/2 51/5/2
f 51/5/2 48/5/2 52/5/2
f 53/5/2 54/5/2 55/5/2
f 53/5/2 55/5/2 57/5/2
f 55/5/2 56/5/2 57/5/2
f 57/5/2 56/5/2 58/5/2
f 59/5/2 60/5/2 61/5/2
f 61/5/2 60/5/2 62/5/2
f 63/4/2 64/4/2 65/4/2
f 63/4/2 65/4/2 66/4/2
f 66/4/2 65/4/2 67/4/2
f 68/1/2 69/1/2 70/1/2
f 70/1/2 69/1/2 71/1/2
f 71/1/2 69/1/2 72/1/2
f 73/2/2 74/2/2 75/2/2
f 75/2/2 74/2/2 76/2/2
f 77/5/2 78/5/2 80/5/2
f 80/5/2 78/5/2 81/5/2
f 79/5/2 80/5/2 83/5/2
f 83/5/2 80/5/2 84/5/2
f 81/5/2 82/5/2 85/5/2
f 85/5/2 82/5/2 86/5/2
f 87/5/2 88/5/2 90/5/2
f 90/5/2 88/5/2 91/5/2
f 89/5/2 90/5/2 93/5/2
f 91/5/2 92/5/2 93/5/2
f 90/5/2 91/5/2 93/5/2
f 93/5/2 92/5/2 94/5/2
f 98/5/3 96/5/3 95/5/3
f 99/5/3 98/5/3 97/5/3
f 100/5/3 96/5/3 98/5/3
f 100/5/3 98/5/3 99/5/3
f 101/5/3 96/5/3 100/5/3
f 102/5/3 96/5/3 101/5/3
f 106/5/3 104/5/3 103/5/3
f 107/5/3 104/5/3 106/5/3
f 108/5/3 106/5/3 105/5/3
f 109/5/3 106/5/3 108/5/3
f 111/5/3 110/5/3 109/5/3
f 112/5/3 110/5/3 111/5/3
f 115/1/3 114/1/3 113/1/3
f 116/1/3 114/1/3 115/1/3
f 121/3/3 118/3/3 117/3/3
f 121/1/3 120/1/3 119/1/3
f 121/3/3 119/3/3 118/3/3
f 122/1/3 120/1/3 121/1/3
f 123/3/3 121/3/3 117/3/3
f 124/3/3 121/3/3 123/3/3
f 125/3/3 121/3/3 124/3/3
f 128/5/3 127/5/3 126/5/3
f 129/5/3 128/5/3 126/5/3
f 130/5/3 128/5/3 129/5/3
f 135/5/3 132/5/3 131/5/3
f 136/5/3 132/5/3 135/5/3
f 138/5/3 134/5/3 133/5/3
f 139/5/3 138/5/3 137/5/3
f 140/5/3 134/5/3 138/5/3
f 140/5/3 138/5/3 139/5/3
f 143/5/4 144/5/4 145/5/4
f 145/5/4 144/5/4 146/5/4
f 141/5/4 142/5/4 147/5/4
f 147/5/4 148/5/4 149/5/4
f 149/5/4 148/5/4 150/5/4
f 146/5/4 144/5/4 152/5/4
f 147/5/4 149/5/4 153/5/4
f 141/5/4 147/5/4 153/5/4
f 153/5/4 149/5/4 154/5/4
f 151/5/4 152/5/4 155/5/4
f 152/5/4 144/5/4 156/5/4
f 155/5/4 152/5/4 156/5/4
f 157/5/4 158/5/4 159/5/4
f 159/5/4 158/5/4 160/5/4
f 161/4/4 162/4/4 163/4/4
f 163/4/4 162/4/4 164/4/4
f 165/4/4 166/4/4 168/4/4
f 166/2/4 167/2/4 168/2/4
f 168/2/4 167/2/4 169/2/4
f 165/4/4 168/4/4 170/4/4
f 170/4/4 168/4/4 171/4/4
f 172/5/4 173/5/4 175/5/4
f 175/5/4 173/5/4 176/5/4
f 174/5/4 175/5/4 177/5/4
f 177/5/4 175/5/4 178/5/4
f 178/5/4 179/5/4 180/5/4
f 180/5/4 179/5/4 181/5/4
f 182/5/4 183/5/4 185/5/4
f 184/5/4 185/5/4 186/5/4
f 185/5/4 183/5/4 187/5/4
f 186/5/4 185/5/4 187/5/4
f 187/5/4 183/5/4 188/5/4
f 188/5/4 183/5/4 189/5/4
f 192/5/5 191/5/5 190/5/5
f 193/5/5 191/5/5 192/5/5
f 194/5/5 192/5/5 190/5/5
f 195/5/5 191/5/5 193/5/5
f 196/5/5 194/5/5 190/5/5
f 196/5/5 195/5/5 194/5/5
f 197/5/5 191/5/5 195/5/5
f 197/5/5 195/5/5 196/5/5
f 201/5/5 199/5/5 198/5/5
f 202/5/5 199/5/5 201/5/5
f 206/3/5 205/3/5 204/3/5
f 207/3/5 205/3/5 206/3/5
f 208/5/5 201/5/5 200/5/5
f 209/5/5 201/5/5 208/5/5
f 210/5/5 203/5/5 202/5/5
f 211/5/5 203/5/5 210/5/5
f 212/5/5 210/5/5 209/5/5
f 213/5/5 210/5/5 212/5/5
f 216/4/5 215/4/5 214/4/5
f 217/4/5 215/4/5 216/4/5
f 222/4/5 219/4/5 218/4/5
f 223/4/5 219/4/5 222/4/5
f 224/1/5 221/1/5 220/1/5
f 225/1/5 221/1/5 224/1/5
f 228/2/5 227/2/5 226/2/5
f 229/2/5 227/2/5 228/2/5
f 234/5/5 231/5/5 230/5/5
f 235/5/5 231/5/5 234/5/5
f 236/5/5 233/5/5 232/5/5
f 237/5/5 233/5/5 236/5/5
f 242/5/5 239/5/5 238/5/5
f 243/5/5 239/5/5 242/5/5
f 244/5/5 241/5/5 240/5/5
f 245/5/5 241/5/5 244/5/5
f 246/5/6 247/5/6 248/5/6
f 248/5/6 247/5/6 249/5/6
f 249/5/6 247/5/6 250/5/6
f 250/5/6 247/5/6 251/5/6
f 246/5/6 248/5/6 252/5/6
f 246/5/6 252/5/6 254/5/6
f 252/5/6 253/5/6 254/5/6
f 254/5/6 253/5/6 255/5/6
f 256/3/6 257/3/6 258/3/6
f 258/3/6 257/3/6 259/3/6
f 260/4/6 261/4/6 264/4/6
f 264/4/6 261/4/6 265/4/6
f 262/4/6 263/4/6 266/4/6
f 266/4/6 263/4/6 267/4/6
f 268/2/6 269/2/6 271/2/6
f 271/2/6 269/2/6 272/2/6
f 272/2/6 269/2/6 273/2/6
f 270/1/6 271/1/6 274/1/6
f 271/1/6 272/1/6 274/1/6
f 274/1/6 272/1/6 275/1/6
f 276/5/6 277/5/6 278/5/6
f 278/5/6 277/5/6 279/5/6
f 276/5/6 278/5/6 280/5/6
f 279/5/6 277/5/6 281/5/6
f 276/5/6 280/5/6 282/5/6
f 280/5/6 281/5/6 282/5/6
f 281/5/6 277/5/6 283/5/6
f 282/5/6 281/5/6 283/5/6
