# MagicaVoxel @ Ephtracy

# group
g Base_classical_fridge-1

# material
mtllib Base_classical_fridge-1.mtl
usemtl palette

# normals
vn -1 0 0
vn 1 0 0
vn 0 0 1
vn 0 0 -1
vn 0 -1 0
vn 0 1 0

# texcoords
vt 0.701172 0.5
vt 0.955078 0.5
vt 0.958984 0.5
vt 0.974609 0.5
vt 0.990234 0.5

# verts
v 7 0 50
v 7 0 45
v 7 0 35
v 7 0 30
v 7 3 50
v 7 3 45
v 7 3 35
v 7 3 30
v 7 80 50
v 7 80 30
v 8 2 45
v 8 2 35
v 8 3 45
v 8 3 35
v 8 80 49
v 8 80 31
v 8 81 49
v 8 81 31
v 26 29 30
v 26 29 29
v 26 31 30
v 26 31 29
v 26 31 28
v 26 78 30
v 26 78 29
v 26 78 28
v 26 80 30
v 26 80 29
v 27 31 30
v 27 31 29
v 27 78 30
v 27 78 29
v 30 29 30
v 30 29 29
v 30 31 29
v 30 31 28
v 30 39 36
v 30 39 32
v 30 55 33
v 30 55 32
v 30 58 35
v 30 58 33
v 30 60 36
v 30 60 35
v 30 78 29
v 30 78 28
v 30 80 30
v 30 80 29
v 31 38 32
v 31 38 31
v 31 39 32
v 31 55 32
v 31 59 35
v 31 59 32
v 31 60 35
v 31 60 31
v 32 41 35
v 32 41 33
v 32 41 32
v 32 42 35
v 32 42 32
v 33 21 43
v 33 21 32
v 33 38 32
v 33 39 36
v 33 39 32
v 33 40 43
v 33 40 36
v 35 51 34
v 35 51 33
v 35 59 34
v 35 59 33
v 40 51 34
v 40 51 33
v 40 59 34
v 40 59 33
v 44 0 50
v 44 0 49
v 44 2 49
v 44 3 50
v 44 3 49
v 44 41 31
v 44 41 30
v 44 42 34
v 44 42 31
v 44 53 34
v 44 53 31
v 44 53 30
v 45 0 31
v 45 0 30
v 45 2 31
v 45 3 31
v 45 3 30
v 45 40 35
v 45 40 32
v 45 41 34
v 45 41 32
v 45 42 34
v 45 53 34
v 45 53 31
v 45 54 33
v 45 54 32
v 45 58 34
v 45 58 33
v 45 59 35
v 45 59 34
v 45 59 32
v 45 59 31
v 48 79 49
v 48 79 48
v 48 80 49
v 48 80 48
v 49 0 49
v 49 0 46
v 49 0 34
v 49 0 31
v 49 2 49
v 49 2 46
v 49 2 34
v 49 2 31
v 49 4 49
v 49 4 31
v 49 21 43
v 49 21 32
v 49 40 43
v 49 40 32
v 49 79 49
v 49 79 48
v 49 80 48
v 49 80 31
v 8 0 49
v 8 0 45
v 8 0 35
v 8 0 31
v 8 2 49
v 8 2 45
v 8 2 35
v 8 2 31
v 8 4 49
v 8 4 31
v 8 79 32
v 8 79 31
v 8 80 49
v 8 80 32
v 9 79 32
v 9 79 31
v 9 80 32
v 9 80 31
v 12 0 50
v 12 0 49
v 12 2 49
v 12 3 50
v 12 3 49
v 13 0 31
v 13 0 30
v 13 2 31
v 13 3 31
v 13 3 30
v 28 29 30
v 28 29 29
v 28 31 29
v 28 31 28
v 28 78 29
v 28 78 28
v 28 80 30
v 28 80 29
v 31 31 30
v 31 31 29
v 31 40 33
v 31 40 32
v 31 41 35
v 31 41 33
v 31 55 33
v 31 55 32
v 31 57 35
v 31 57 33
v 31 78 30
v 31 78 29
v 32 29 30
v 32 29 29
v 32 31 30
v 32 31 29
v 32 31 28
v 32 41 31
v 32 41 30
v 32 42 32
v 32 42 31
v 32 53 31
v 32 53 30
v 32 57 35
v 32 57 33
v 32 58 35
v 32 58 33
v 32 59 32
v 32 59 31
v 32 78 30
v 32 78 29
v 32 78 28
v 32 80 30
v 32 80 29
v 34 40 34
v 34 40 33
v 34 41 34
v 34 41 33
v 36 51 34
v 36 51 33
v 36 59 34
v 36 59 33
v 41 51 34
v 41 51 33
v 41 59 34
v 41 59 33
v 44 40 35
v 44 40 34
v 44 41 35
v 44 41 34
v 44 42 35
v 44 42 34
v 46 38 32
v 46 38 31
v 46 40 36
v 46 40 32
v 46 54 33
v 46 54 32
v 46 58 34
v 46 58 33
v 46 59 34
v 46 59 32
v 46 60 36
v 46 60 31
v 49 2 46
v 49 2 34
v 49 3 46
v 49 3 34
v 49 80 49
v 49 80 31
v 49 81 49
v 49 81 31
v 50 0 50
v 50 0 46
v 50 0 34
v 50 0 30
v 50 3 50
v 50 3 46
v 50 3 34
v 50 3 30
v 50 80 50
v 50 80 30
v 7 0 50
v 7 3 50
v 7 80 50
v 12 0 50
v 12 3 50
v 44 0 50
v 44 3 50
v 50 0 50
v 50 3 50
v 50 80 50
v 8 80 49
v 8 81 49
v 12 2 49
v 12 3 49
v 44 2 49
v 44 3 49
v 49 80 49
v 49 81 49
v 33 21 43
v 33 40 43
v 49 21 43
v 49 40 43
v 30 39 36
v 30 60 36
v 33 39 36
v 33 40 36
v 34 42 36
v 34 54 36
v 37 42 36
v 37 54 36
v 39 42 36
v 39 54 36
v 42 42 36
v 42 54 36
v 46 40 36
v 46 60 36
v 7 0 35
v 7 3 35
v 8 0 35
v 8 2 35
v 8 3 35
v 35 51 34
v 35 59 34
v 36 51 34
v 36 59 34
v 40 51 34
v 40 59 34
v 41 51 34
v 41 59 34
v 44 41 34
v 44 42 34
v 44 53 34
v 45 41 34
v 45 42 34
v 45 53 34
v 49 0 34
v 49 2 34
v 49 3 34
v 50 0 34
v 50 3 34
v 8 79 32
v 8 80 32
v 9 79 32
v 9 80 32
v 31 38 32
v 31 39 32
v 31 40 32
v 31 55 32
v 31 59 32
v 32 41 32
v 32 42 32
v 32 59 32
v 33 38 32
v 33 39 32
v 44 41 32
v 45 40 32
v 45 41 32
v 45 54 32
v 45 59 32
v 46 54 32
v 46 59 32
v 8 0 31
v 8 2 31
v 8 4 31
v 8 79 31
v 9 79 31
v 9 80 31
v 13 0 31
v 13 2 31
v 28 4 31
v 28 80 31
v 30 4 31
v 30 80 31
v 31 38 31
v 31 60 31
v 32 53 31
v 32 59 31
v 33 54 31
v 33 55 31
v 35 54 31
v 35 55 31
v 36 54 31
v 36 55 31
v 40 54 31
v 40 55 31
v 41 54 31
v 41 55 31
v 43 54 31
v 43 55 31
v 44 53 31
v 44 59 31
v 45 0 31
v 45 2 31
v 45 53 31
v 45 59 31
v 46 38 31
v 46 60 31
v 49 0 31
v 49 2 31
v 49 4 31
v 49 80 31
v 26 31 29
v 26 78 29
v 27 31 29
v 27 78 29
v 31 31 29
v 31 78 29
v 32 31 29
v 32 78 29
v 8 0 49
v 8 2 49
v 8 4 49
v 8 80 49
v 12 0 49
v 12 2 49
v 44 0 49
v 44 2 49
v 48 79 49
v 48 80 49
v 49 0 49
v 49 2 49
v 49 4 49
v 49 79 49
v 48 79 48
v 48 80 48
v 49 79 48
v 49 80 48
v 49 0 46
v 49 2 46
v 49 3 46
v 50 0 46
v 50 3 46
v 7 0 45
v 7 3 45
v 8 0 45
v 8 2 45
v 8 3 45
v 30 58 35
v 30 60 35
v 31 41 35
v 31 57 35
v 31 59 35
v 31 60 35
v 32 41 35
v 32 42 35
v 32 57 35
v 32 58 35
v 34 42 35
v 34 54 35
v 37 42 35
v 37 54 35
v 39 42 35
v 39 54 35
v 42 42 35
v 42 54 35
v 44 40 35
v 44 41 35
v 44 42 35
v 45 40 35
v 45 59 35
v 34 40 34
v 34 41 34
v 44 40 34
v 44 41 34
v 45 58 34
v 45 59 34
v 46 58 34
v 46 59 34
v 30 55 33
v 30 58 33
v 31 40 33
v 31 41 33
v 31 55 33
v 31 57 33
v 32 41 33
v 32 57 33
v 32 58 33
v 34 40 33
v 34 41 33
v 35 51 33
v 35 59 33
v 36 51 33
v 36 59 33
v 40 51 33
v 40 59 33
v 41 51 33
v 41 59 33
v 45 54 33
v 45 58 33
v 46 54 33
v 46 58 33
v 30 39 32
v 30 55 32
v 31 39 32
v 31 55 32
v 33 21 32
v 33 38 32
v 46 38 32
v 46 40 32
v 49 21 32
v 49 40 32
v 8 80 31
v 8 81 31
v 13 2 31
v 13 3 31
v 28 3 31
v 28 80 31
v 30 3 31
v 30 80 31
v 32 41 31
v 32 42 31
v 44 41 31
v 44 42 31
v 45 2 31
v 45 3 31
v 49 80 31
v 49 81 31
v 7 0 30
v 7 3 30
v 7 80 30
v 13 0 30
v 13 3 30
v 26 29 30
v 26 31 30
v 26 78 30
v 26 80 30
v 27 31 30
v 27 78 30
v 28 3 30
v 28 29 30
v 28 80 30
v 30 3 30
v 30 29 30
v 30 80 30
v 31 31 30
v 31 78 30
v 32 29 30
v 32 31 30
v 32 40 30
v 32 41 30
v 32 53 30
v 32 59 30
v 32 78 30
v 32 80 30
v 33 54 30
v 33 55 30
v 35 54 30
v 35 55 30
v 36 54 30
v 36 55 30
v 40 54 30
v 40 55 30
v 41 54 30
v 41 55 30
v 43 54 30
v 43 55 30
v 44 40 30
v 44 41 30
v 44 53 30
v 44 59 30
v 45 0 30
v 45 3 30
v 50 0 30
v 50 3 30
v 50 80 30
v 26 29 29
v 26 31 29
v 26 78 29
v 26 80 29
v 28 29 29
v 28 31 29
v 28 78 29
v 28 80 29
v 30 29 29
v 30 31 29
v 30 78 29
v 30 80 29
v 32 29 29
v 32 31 29
v 32 78 29
v 32 80 29
v 26 31 28
v 26 78 28
v 28 31 28
v 28 78 28
v 30 31 28
v 30 78 28
v 32 31 28
v 32 78 28
v 7 0 50
v 12 0 50
v 44 0 50
v 50 0 50
v 8 0 49
v 12 0 49
v 44 0 49
v 49 0 49
v 49 0 46
v 50 0 46
v 7 0 45
v 8 0 45
v 7 0 35
v 8 0 35
v 49 0 34
v 50 0 34
v 8 0 31
v 13 0 31
v 45 0 31
v 49 0 31
v 7 0 30
v 13 0 30
v 45 0 30
v 50 0 30
v 8 2 49
v 12 2 49
v 44 2 49
v 49 2 49
v 49 2 46
v 8 2 45
v 8 2 35
v 49 2 34
v 8 2 31
v 13 2 31
v 45 2 31
v 49 2 31
v 12 3 50
v 44 3 50
v 12 3 49
v 44 3 49
v 49 3 46
v 50 3 46
v 7 3 45
v 8 3 45
v 7 3 35
v 8 3 35
v 49 3 34
v 50 3 34
v 13 3 31
v 28 3 31
v 30 3 31
v 45 3 31
v 13 3 30
v 28 3 30
v 30 3 30
v 45 3 30
v 33 21 43
v 49 21 43
v 33 21 32
v 49 21 32
v 26 29 30
v 28 29 30
v 30 29 30
v 32 29 30
v 26 29 29
v 28 29 29
v 30 29 29
v 32 29 29
v 26 31 29
v 28 31 29
v 30 31 29
v 32 31 29
v 26 31 28
v 28 31 28
v 30 31 28
v 32 31 28
v 31 38 32
v 33 38 32
v 46 38 32
v 31 38 31
v 46 38 31
v 30 39 36
v 33 39 36
v 30 39 32
v 31 39 32
v 33 39 32
v 34 41 34
v 44 41 34
v 45 41 34
v 32 41 33
v 34 41 33
v 32 41 32
v 44 41 32
v 45 41 32
v 35 51 34
v 36 51 34
v 40 51 34
v 41 51 34
v 35 51 33
v 36 51 33
v 40 51 33
v 41 51 33
v 32 53 31
v 44 53 31
v 32 53 30
v 44 53 30
v 31 57 35
v 32 57 35
v 31 57 33
v 32 57 33
v 31 59 35
v 45 59 35
v 35 59 34
v 36 59 34
v 40 59 34
v 41 59 34
v 45 59 34
v 46 59 34
v 35 59 33
v 36 59 33
v 40 59 33
v 41 59 33
v 31 59 32
v 32 59 32
v 45 59 32
v 46 59 32
v 32 59 31
v 44 59 31
v 45 59 31
v 26 78 30
v 27 78 30
v 31 78 30
v 32 78 30
v 26 78 29
v 27 78 29
v 31 78 29
v 32 78 29
v 48 79 49
v 49 79 49
v 48 79 48
v 49 79 48
v 8 79 32
v 9 79 32
v 8 79 31
v 9 79 31
v 8 80 49
v 48 80 49
v 48 80 48
v 49 80 48
v 8 80 32
v 9 80 32
v 9 80 31
v 28 80 31
v 30 80 31
v 49 80 31
v 8 4 49
v 49 4 49
v 8 4 31
v 28 4 31
v 30 4 31
v 49 4 31
v 26 31 30
v 27 31 30
v 31 31 30
v 32 31 30
v 26 31 29
v 27 31 29
v 31 31 29
v 32 31 29
v 33 40 43
v 49 40 43
v 33 40 36
v 46 40 36
v 44 40 35
v 45 40 35
v 34 40 34
v 44 40 34
v 31 40 33
v 34 40 33
v 31 40 32
v 45 40 32
v 46 40 32
v 49 40 32
v 31 41 35
v 32 41 35
v 31 41 33
v 32 41 33
v 32 41 31
v 44 41 31
v 32 41 30
v 44 41 30
v 32 42 35
v 34 42 35
v 37 42 35
v 39 42 35
v 42 42 35
v 44 42 35
v 44 42 34
v 32 42 32
v 32 42 31
v 44 42 31
v 44 53 34
v 45 53 34
v 44 53 31
v 45 53 31
v 45 54 33
v 46 54 33
v 45 54 32
v 46 54 32
v 30 55 33
v 31 55 33
v 30 55 32
v 31 55 32
v 30 58 35
v 32 58 35
v 45 58 34
v 46 58 34
v 30 58 33
v 32 58 33
v 45 58 33
v 46 58 33
v 30 60 36
v 46 60 36
v 30 60 35
v 31 60 35
v 31 60 31
v 46 60 31
v 26 78 29
v 28 78 29
v 30 78 29
v 32 78 29
v 26 78 28
v 28 78 28
v 30 78 28
v 32 78 28
v 7 80 50
v 50 80 50
v 8 80 49
v 49 80 49
v 8 80 31
v 28 80 31
v 30 80 31
v 49 80 31
v 7 80 30
v 26 80 30
v 28 80 30
v 30 80 30
v 32 80 30
v 50 80 30
v 26 80 29
v 28 80 29
v 30 80 29
v 32 80 29
v 8 81 49
v 49 81 49
v 8 81 31
v 49 81 31

# faces
f 5/4/1 2/4/1 1/4/1
f 6/4/1 2/4/1 5/4/1
f 7/4/1 4/4/1 3/4/1
f 8/4/1 4/4/1 7/4/1
f 9/5/1 6/5/1 5/5/1
f 9/5/1 7/5/1 6/5/1
f 9/5/1 8/5/1 7/5/1
f 10/5/1 8/5/1 9/5/1
f 13/5/1 12/5/1 11/5/1
f 14/5/1 12/5/1 13/5/1
f 17/5/1 16/5/1 15/5/1
f 18/5/1 16/5/1 17/5/1
f 21/3/1 20/3/1 19/3/1
f 22/3/1 20/3/1 21/3/1
f 25/3/1 23/3/1 22/3/1
f 26/3/1 23/3/1 25/3/1
f 27/3/1 25/3/1 24/3/1
f 28/3/1 25/3/1 27/3/1
f 31/3/1 30/3/1 29/3/1
f 32/3/1 30/3/1 31/3/1
f 35/3/1 34/3/1 33/3/1
f 39/2/1 38/2/1 37/2/1
f 40/2/1 38/2/1 39/2/1
f 41/2/1 39/2/1 37/2/1
f 42/2/1 39/2/1 41/2/1
f 43/2/1 41/2/1 37/2/1
f 44/2/1 41/2/1 43/2/1
f 45/3/1 35/3/1 33/3/1
f 45/3/1 36/3/1 35/3/1
f 46/3/1 36/3/1 45/3/1
f 47/3/1 45/3/1 33/3/1
f 48/3/1 45/3/1 47/3/1
f 51/2/1 50/2/1 49/2/1
f 52/2/1 50/2/1 51/2/1
f 54/2/1 50/2/1 52/2/1
f 55/2/1 54/2/1 53/2/1
f 56/2/1 50/2/1 54/2/1
f 56/2/1 54/2/1 55/2/1
f 60/1/1 58/1/1 57/1/1
f 60/1/1 59/1/1 58/1/1
f 61/1/1 59/1/1 60/1/1
f 64/2/1 63/2/1 62/2/1
f 65/2/1 64/2/1 62/2/1
f 66/2/1 64/2/1 65/2/1
f 67/2/1 65/2/1 62/2/1
f 68/2/1 65/2/1 67/2/1
f 71/3/1 70/3/1 69/3/1
f 72/3/1 70/3/1 71/3/1
f 75/3/1 74/3/1 73/3/1
f 76/3/1 74/3/1 75/3/1
f 79/4/1 78/4/1 77/4/1
f 80/4/1 79/4/1 77/4/1
f 81/4/1 79/4/1 80/4/1
f 85/5/1 83/5/1 82/5/1
f 86/2/1 85/2/1 84/2/1
f 87/5/1 83/5/1 85/5/1
f 87/2/1 85/2/1 86/2/1
f 88/5/1 83/5/1 87/5/1
f 91/4/1 90/4/1 89/4/1
f 92/4/1 90/4/1 91/4/1
f 93/4/1 90/4/1 92/4/1
f 96/2/1 95/2/1 94/2/1
f 97/2/1 95/2/1 96/2/1
f 98/2/1 96/2/1 94/2/1
f 99/2/1 98/2/1 94/2/1
f 101/2/1 100/2/1 99/2/1
f 102/2/1 100/2/1 101/2/1
f 103/2/1 99/2/1 94/2/1
f 103/2/1 101/2/1 99/2/1
f 104/2/1 101/2/1 103/2/1
f 105/2/1 103/2/1 94/2/1
f 106/2/1 103/2/1 105/2/1
f 107/2/1 100/2/1 102/2/1
f 108/2/1 100/2/1 107/2/1
f 111/5/1 110/5/1 109/5/1
f 112/5/1 110/5/1 111/5/1
f 117/4/1 114/4/1 113/4/1
f 118/4/1 114/4/1 117/4/1
f 119/4/1 116/4/1 115/4/1
f 120/4/1 116/4/1 119/4/1
f 123/5/1 122/5/1 121/5/1
f 124/5/1 122/5/1 123/5/1
f 125/5/1 123/5/1 121/5/1
f 126/5/1 122/5/1 124/5/1
f 127/5/1 125/5/1 121/5/1
f 127/5/1 126/5/1 125/5/1
f 128/5/1 126/5/1 127/5/1
f 129/5/1 126/5/1 128/5/1
f 130/5/1 122/5/1 126/5/1
f 130/5/1 126/5/1 129/5/1
f 131/4/2 132/4/2 135/4/2
f 135/4/2 132/4/2 136/4/2
f 133/4/2 134/4/2 137/4/2
f 137/4/2 134/4/2 138/4/2
f 139/5/2 140/5/2 141/5/2
f 141/5/2 140/5/2 142/5/2
f 139/5/2 141/5/2 143/5/2
f 143/5/2 141/5/2 144/5/2
f 145/5/2 146/5/2 147/5/2
f 147/5/2 146/5/2 148/5/2
f 149/4/2 150/4/2 151/4/2
f 149/4/2 151/4/2 152/4/2
f 152/4/2 151/4/2 153/4/2
f 154/4/2 155/4/2 156/4/2
f 156/4/2 155/4/2 157/4/2
f 157/4/2 155/4/2 158/4/2
f 159/3/2 160/3/2 161/3/2
f 159/3/2 161/3/2 163/3/2
f 161/3/2 162/3/2 163/3/2
f 163/3/2 162/3/2 164/3/2
f 159/3/2 163/3/2 165/3/2
f 165/3/2 163/3/2 166/3/2
f 169/2/2 170/2/2 172/2/2
f 172/2/2 170/2/2 173/2/2
f 171/2/2 172/2/2 173/2/2
f 173/2/2 170/2/2 174/2/2
f 171/2/2 173/2/2 175/2/2
f 175/2/2 173/2/2 176/2/2
f 167/3/2 168/3/2 177/3/2
f 177/3/2 168/3/2 178/3/2
f 179/3/2 180/3/2 181/3/2
f 181/3/2 180/3/2 182/3/2
f 184/5/2 185/5/2 187/5/2
f 187/5/2 185/5/2 188/5/2
f 186/2/2 187/2/2 188/2/2
f 188/5/2 185/5/2 189/5/2
f 190/2/2 191/2/2 192/2/2
f 192/2/2 191/2/2 193/2/2
f 186/2/2 188/2/2 194/2/2
f 194/2/2 188/2/2 195/2/2
f 182/3/2 183/3/2 197/3/2
f 197/3/2 183/3/2 198/3/2
f 196/3/2 197/3/2 199/3/2
f 199/3/2 197/3/2 200/3/2
f 201/2/2 202/2/2 203/2/2
f 203/2/2 202/2/2 204/2/2
f 205/3/2 206/3/2 207/3/2
f 207/3/2 206/3/2 208/3/2
f 209/3/2 210/3/2 211/3/2
f 211/3/2 210/3/2 212/3/2
f 213/2/2 214/2/2 215/2/2
f 215/2/2 214/2/2 216/2/2
f 215/1/2 216/1/2 217/1/2
f 217/1/2 216/1/2 218/1/2
f 219/2/2 220/2/2 222/2/2
f 221/2/2 222/2/2 223/2/2
f 222/2/2 220/2/2 224/2/2
f 223/2/2 222/2/2 224/2/2
f 221/2/2 223/2/2 225/2/2
f 225/2/2 223/2/2 226/2/2
f 221/2/2 225/2/2 227/2/2
f 224/2/2 220/2/2 228/2/2
f 221/2/2 227/2/2 229/2/2
f 227/2/2 228/2/2 229/2/2
f 228/2/2 220/2/2 230/2/2
f 229/2/2 228/2/2 230/2/2
f 231/5/2 232/5/2 233/5/2
f 233/5/2 232/5/2 234/5/2
f 235/5/2 236/5/2 237/5/2
f 237/5/2 236/5/2 238/5/2
f 239/4/2 240/4/2 243/4/2
f 243/4/2 240/4/2 244/4/2
f 241/4/2 242/4/2 245/4/2
f 245/4/2 242/4/2 246/4/2
f 243/5/2 244/5/2 247/5/2
f 244/5/2 245/5/2 247/5/2
f 245/5/2 246/5/2 247/5/2
f 247/5/2 246/5/2 248/5/2
f 252/4/3 250/4/3 249/4/3
f 253/5/3 251/5/3 250/5/3
f 253/4/3 250/4/3 252/4/3
f 255/5/3 251/5/3 253/5/3
f 256/4/3 255/4/3 254/4/3
f 257/5/3 251/5/3 255/5/3
f 257/4/3 255/4/3 256/4/3
f 258/5/3 251/5/3 257/5/3
f 263/5/3 262/5/3 261/5/3
f 264/5/3 262/5/3 263/5/3
f 265/5/3 260/5/3 259/5/3
f 266/5/3 260/5/3 265/5/3
f 269/2/3 268/2/3 267/2/3
f 270/2/3 268/2/3 269/2/3
f 273/2/3 272/2/3 271/2/3
f 274/2/3 272/2/3 273/2/3
f 275/2/3 272/2/3 274/2/3
f 276/2/3 272/2/3 275/2/3
f 277/2/3 275/2/3 274/2/3
f 277/4/3 276/4/3 275/4/3
f 278/2/3 272/2/3 276/2/3
f 278/4/3 276/4/3 277/4/3
f 279/2/3 277/2/3 274/2/3
f 279/2/3 278/2/3 277/2/3
f 280/2/3 272/2/3 278/2/3
f 280/2/3 278/2/3 279/2/3
f 281/2/3 279/2/3 274/2/3
f 281/4/3 280/4/3 279/4/3
f 282/2/3 272/2/3 280/2/3
f 282/4/3 280/4/3 281/4/3
f 283/2/3 281/2/3 274/2/3
f 283/2/3 282/2/3 281/2/3
f 284/2/3 272/2/3 282/2/3
f 284/2/3 282/2/3 283/2/3
f 287/4/3 286/4/3 285/4/3
f 288/4/3 286/4/3 287/4/3
f 289/4/3 286/4/3 288/4/3
f 292/3/3 291/3/3 290/3/3
f 293/3/3 291/3/3 292/3/3
f 296/3/3 295/3/3 294/3/3
f 297/3/3 295/3/3 296/3/3
f 301/5/3 299/5/3 298/5/3
f 302/2/3 300/2/3 299/2/3
f 302/5/3 299/5/3 301/5/3
f 303/2/3 300/2/3 302/2/3
f 307/4/3 305/4/3 304/4/3
f 307/4/3 306/4/3 305/4/3
f 308/4/3 306/4/3 307/4/3
f 311/5/3 310/5/3 309/5/3
f 312/5/3 310/5/3 311/5/3
f 318/2/3 316/2/3 315/2/3
f 318/2/3 317/2/3 316/2/3
f 319/2/3 317/2/3 318/2/3
f 320/2/3 317/2/3 319/2/3
f 321/2/3 314/2/3 313/2/3
f 322/2/3 314/2/3 321/2/3
f 323/2/3 318/2/3 315/2/3
f 324/2/3 323/2/3 315/2/3
f 325/2/3 323/2/3 324/2/3
f 328/2/3 327/2/3 326/2/3
f 329/2/3 327/2/3 328/2/3
f 334/5/3 333/5/3 332/5/3
f 336/4/3 331/4/3 330/4/3
f 337/4/3 331/4/3 336/4/3
f 338/5/3 335/5/3 334/5/3
f 338/5/3 334/5/3 332/5/3
f 339/5/3 335/5/3 338/5/3
f 340/1/3 339/1/3 338/1/3
f 341/1/3 339/1/3 340/1/3
f 342/5/3 341/5/3 340/5/3
f 343/5/3 341/5/3 342/5/3
f 346/4/3 345/4/3 344/4/3
f 347/4/3 345/4/3 346/4/3
f 348/4/3 346/4/3 344/4/3
f 348/3/3 347/3/3 346/3/3
f 349/4/3 345/4/3 347/4/3
f 349/3/3 347/3/3 348/3/3
f 350/4/3 348/4/3 344/4/3
f 350/4/3 349/4/3 348/4/3
f 351/4/3 345/4/3 349/4/3
f 351/4/3 349/4/3 350/4/3
f 352/4/3 350/4/3 344/4/3
f 352/3/3 351/3/3 350/3/3
f 353/4/3 345/4/3 351/4/3
f 353/3/3 351/3/3 352/3/3
f 354/4/3 352/4/3 344/4/3
f 354/4/3 353/4/3 352/4/3
f 355/4/3 345/4/3 353/4/3
f 355/4/3 353/4/3 354/4/3
f 356/4/3 354/4/3 344/4/3
f 356/3/3 355/3/3 354/3/3
f 357/4/3 345/4/3 355/4/3
f 357/3/3 355/3/3 356/3/3
f 358/4/3 356/4/3 344/4/3
f 358/4/3 357/4/3 356/4/3
f 359/4/3 345/4/3 357/4/3
f 359/4/3 357/4/3 358/4/3
f 362/5/3 359/5/3 358/5/3
f 363/5/3 359/5/3 362/5/3
f 364/5/3 342/5/3 340/5/3
f 365/5/3 341/5/3 343/5/3
f 366/4/3 361/4/3 360/4/3
f 367/4/3 361/4/3 366/4/3
f 368/5/3 364/5/3 340/5/3
f 368/5/3 365/5/3 364/5/3
f 369/5/3 341/5/3 365/5/3
f 369/5/3 365/5/3 368/5/3
f 372/3/3 371/3/3 370/3/3
f 373/3/3 371/3/3 372/3/3
f 376/3/3 375/3/3 374/3/3
f 377/3/3 375/3/3 376/3/3
f 378/4/4 379/4/4 382/4/4
f 382/4/4 379/4/4 383/4/4
f 380/5/4 381/5/4 386/5/4
f 386/5/4 381/5/4 387/5/4
f 384/4/4 385/4/4 388/4/4
f 388/4/4 385/4/4 389/4/4
f 380/5/4 386/5/4 390/5/4
f 390/5/4 386/5/4 391/5/4
f 392/5/4 393/5/4 394/5/4
f 394/5/4 393/5/4 395/5/4
f 396/4/4 397/4/4 399/4/4
f 397/4/4 398/4/4 399/4/4
f 399/4/4 398/4/4 400/4/4
f 401/4/4 402/4/4 403/4/4
f 403/4/4 402/4/4 404/4/4
f 404/4/4 402/4/4 405/4/4
f 406/2/4 407/2/4 410/2/4
f 410/2/4 407/2/4 411/2/4
f 408/2/4 409/2/4 412/2/4
f 412/2/4 409/2/4 413/2/4
f 413/2/4 409/2/4 414/2/4
f 406/2/4 410/2/4 415/2/4
f 413/2/4 414/2/4 416/2/4
f 414/2/4 415/2/4 416/2/4
f 416/2/4 415/2/4 417/2/4
f 416/4/4 417/4/4 418/4/4
f 417/2/4 415/2/4 419/2/4
f 418/4/4 417/4/4 419/4/4
f 418/2/4 419/2/4 420/2/4
f 419/2/4 415/2/4 421/2/4
f 420/2/4 419/2/4 421/2/4
f 420/4/4 421/4/4 422/4/4
f 421/2/4 415/2/4 423/2/4
f 422/4/4 421/4/4 423/4/4
f 422/2/4 423/2/4 426/2/4
f 424/2/4 425/2/4 427/2/4
f 425/2/4 426/2/4 427/2/4
f 415/2/4 410/2/4 428/2/4
f 427/2/4 426/2/4 428/2/4
f 426/2/4 423/2/4 428/2/4
f 423/2/4 415/2/4 428/2/4
f 429/2/4 430/2/4 431/2/4
f 431/2/4 430/2/4 432/2/4
f 433/2/4 434/2/4 435/2/4
f 435/2/4 434/2/4 436/2/4
f 437/2/4 438/2/4 441/2/4
f 441/2/4 438/2/4 442/2/4
f 439/2/4 440/2/4 443/2/4
f 442/2/4 438/2/4 444/2/4
f 444/2/4 438/2/4 445/2/4
f 439/2/4 443/2/4 446/2/4
f 446/2/4 443/2/4 447/2/4
f 448/3/4 449/3/4 450/3/4
f 450/3/4 449/3/4 451/3/4
f 452/3/4 453/3/4 454/3/4
f 454/3/4 453/3/4 455/3/4
f 456/2/4 457/2/4 458/2/4
f 458/2/4 457/2/4 459/2/4
f 460/2/4 461/2/4 462/2/4
f 462/2/4 461/2/4 463/2/4
f 464/2/4 465/2/4 466/2/4
f 464/2/4 466/2/4 468/2/4
f 466/2/4 467/2/4 468/2/4
f 468/2/4 467/2/4 469/2/4
f 472/5/4 473/5/4 474/5/4
f 470/5/4 471/5/4 475/5/4
f 472/5/4 474/5/4 476/5/4
f 475/5/4 471/5/4 477/5/4
f 478/1/4 479/1/4 480/1/4
f 480/1/4 479/1/4 481/1/4
f 472/5/4 476/5/4 482/5/4
f 482/5/4 476/5/4 483/5/4
f 477/5/4 471/5/4 484/5/4
f 484/5/4 471/5/4 485/5/4
f 486/4/4 487/4/4 489/4/4
f 487/5/4 488/5/4 490/5/4
f 489/4/4 487/4/4 490/4/4
f 490/5/4 488/5/4 491/5/4
f 491/5/4 488/5/4 492/5/4
f 492/5/4 488/5/4 493/5/4
f 493/5/4 488/5/4 494/5/4
f 492/5/4 493/5/4 495/5/4
f 495/5/4 493/5/4 496/5/4
f 490/5/4 491/5/4 497/5/4
f 497/5/4 491/5/4 498/5/4
f 497/1/4 498/1/4 500/1/4
f 498/1/4 499/1/4 500/1/4
f 500/1/4 499/1/4 501/1/4
f 501/1/4 499/1/4 502/1/4
f 500/5/4 501/5/4 505/5/4
f 503/5/4 504/5/4 506/5/4
f 506/5/4 504/5/4 507/5/4
f 507/5/4 504/5/4 508/5/4
f 508/5/4 504/5/4 509/5/4
f 509/5/4 504/5/4 510/5/4
f 510/5/4 504/5/4 511/5/4
f 509/4/4 510/4/4 513/4/4
f 513/4/4 510/4/4 514/4/4
f 509/4/4 513/4/4 515/4/4
f 513/3/4 514/3/4 515/3/4
f 514/4/4 510/4/4 516/4/4
f 515/3/4 514/3/4 516/3/4
f 509/4/4 515/4/4 517/4/4
f 515/4/4 516/4/4 517/4/4
f 516/4/4 510/4/4 518/4/4
f 517/4/4 516/4/4 518/4/4
f 509/4/4 517/4/4 519/4/4
f 517/3/4 518/3/4 519/3/4
f 518/4/4 510/4/4 520/4/4
f 519/3/4 518/3/4 520/3/4
f 509/4/4 519/4/4 521/4/4
f 519/4/4 520/4/4 521/4/4
f 520/4/4 510/4/4 522/4/4
f 521/4/4 520/4/4 522/4/4
f 509/4/4 521/4/4 523/4/4
f 521/3/4 522/3/4 523/3/4
f 522/4/4 510/4/4 524/4/4
f 523/3/4 522/3/4 524/3/4
f 505/5/4 506/5/4 525/5/4
f 506/5/4 507/5/4 525/5/4
f 507/4/4 508/4/4 525/4/4
f 525/4/4 508/4/4 526/4/4
f 523/4/4 524/4/4 527/4/4
f 509/4/4 523/4/4 527/4/4
f 524/4/4 510/4/4 528/4/4
f 511/5/4 512/5/4 528/5/4
f 527/4/4 524/4/4 528/4/4
f 510/5/4 511/5/4 528/5/4
f 500/5/4 505/5/4 530/5/4
f 526/5/4 527/5/4 530/5/4
f 527/5/4 528/5/4 530/5/4
f 525/5/4 526/5/4 530/5/4
f 505/5/4 525/5/4 530/5/4
f 529/4/4 530/4/4 531/4/4
f 530/5/4 528/5/4 532/5/4
f 531/4/4 530/4/4 532/4/4
f 528/5/4 512/5/4 533/5/4
f 532/5/4 528/5/4 533/5/4
f 534/3/4 535/3/4 538/3/4
f 538/3/4 535/3/4 539/3/4
f 536/3/4 537/3/4 540/3/4
f 540/3/4 537/3/4 541/3/4
f 542/3/4 543/3/4 546/3/4
f 546/3/4 543/3/4 547/3/4
f 544/3/4 545/3/4 548/3/4
f 548/3/4 545/3/4 549/3/4
f 550/3/4 551/3/4 552/3/4
f 552/3/4 551/3/4 553/3/4
f 554/3/4 555/3/4 556/3/4
f 556/3/4 555/3/4 557/3/4
f 562/4/5 559/4/5 558/4/5
f 563/4/5 559/4/5 562/4/5
f 564/4/5 561/4/5 560/4/5
f 565/4/5 561/4/5 564/4/5
f 566/4/5 561/4/5 565/4/5
f 567/4/5 561/4/5 566/4/5
f 568/4/5 562/4/5 558/4/5
f 569/4/5 562/4/5 568/4/5
f 574/4/5 571/4/5 570/4/5
f 577/4/5 573/4/5 572/4/5
f 578/4/5 575/4/5 574/4/5
f 578/4/5 574/4/5 570/4/5
f 579/4/5 575/4/5 578/4/5
f 580/4/5 577/4/5 576/4/5
f 581/4/5 573/4/5 577/4/5
f 581/4/5 577/4/5 580/4/5
f 586/5/5 583/5/5 582/5/5
f 586/5/5 585/5/5 584/5/5
f 586/5/5 584/5/5 583/5/5
f 587/5/5 586/5/5 582/5/5
f 588/5/5 586/5/5 587/5/5
f 589/5/5 586/5/5 588/5/5
f 590/5/5 589/5/5 588/5/5
f 591/5/5 589/5/5 590/5/5
f 592/5/5 589/5/5 591/5/5
f 593/5/5 589/5/5 592/5/5
f 596/5/5 595/5/5 594/5/5
f 597/5/5 595/5/5 596/5/5
f 602/5/5 601/5/5 600/5/5
f 603/5/5 601/5/5 602/5/5
f 604/5/5 599/5/5 598/5/5
f 605/5/5 599/5/5 604/5/5
f 610/5/5 607/5/5 606/5/5
f 611/1/5 608/1/5 607/1/5
f 611/5/5 607/5/5 610/5/5
f 612/5/5 609/5/5 608/5/5
f 612/1/5 608/1/5 611/1/5
f 613/5/5 609/5/5 612/5/5
f 616/2/5 615/2/5 614/2/5
f 617/2/5 615/2/5 616/2/5
f 622/3/5 619/3/5 618/3/5
f 623/3/5 619/3/5 622/3/5
f 624/3/5 621/3/5 620/3/5
f 625/3/5 621/3/5 624/3/5
f 630/3/5 627/3/5 626/3/5
f 631/3/5 627/3/5 630/3/5
f 632/3/5 629/3/5 628/3/5
f 633/3/5 629/3/5 632/3/5
f 637/2/5 635/2/5 634/2/5
f 637/2/5 636/2/5 635/2/5
f 638/2/5 636/2/5 637/2/5
f 641/2/5 640/2/5 639/2/5
f 642/2/5 640/2/5 641/2/5
f 643/2/5 640/2/5 642/2/5
f 648/1/5 645/1/5 644/1/5
f 649/1/5 648/1/5 647/1/5
f 650/5/5 646/5/5 645/5/5
f 650/1/5 648/1/5 649/1/5
f 650/1/5 645/1/5 648/1/5
f 651/5/5 646/5/5 650/5/5
f 656/3/5 653/3/5 652/3/5
f 657/3/5 653/3/5 656/3/5
f 658/3/5 655/3/5 654/3/5
f 659/3/5 655/3/5 658/3/5
f 662/4/5 661/4/5 660/4/5
f 663/4/5 661/4/5 662/4/5
f 666/2/5 665/2/5 664/2/5
f 667/2/5 665/2/5 666/2/5
f 670/2/5 669/2/5 668/2/5
f 671/2/5 669/2/5 670/2/5
f 672/2/5 669/2/5 671/2/5
f 673/2/5 669/2/5 672/2/5
f 674/2/5 669/2/5 673/2/5
f 676/2/5 670/2/5 668/2/5
f 677/2/5 672/2/5 671/2/5
f 678/2/5 672/2/5 677/2/5
f 679/2/5 675/2/5 674/2/5
f 679/2/5 674/2/5 673/2/5
f 680/2/5 678/2/5 677/2/5
f 680/2/5 679/2/5 678/2/5
f 680/2/5 677/2/5 676/2/5
f 680/2/5 676/2/5 668/2/5
f 681/2/5 679/2/5 680/2/5
f 682/2/5 675/2/5 679/2/5
f 682/2/5 679/2/5 681/2/5
f 683/2/5 675/2/5 682/2/5
f 684/2/5 682/2/5 681/2/5
f 685/2/5 682/2/5 684/2/5
f 686/2/5 682/2/5 685/2/5
f 691/3/5 688/3/5 687/3/5
f 692/3/5 688/3/5 691/3/5
f 693/3/5 690/3/5 689/3/5
f 694/3/5 690/3/5 693/3/5
f 697/5/5 696/5/5 695/5/5
f 698/5/5 696/5/5 697/5/5
f 701/5/5 700/5/5 699/5/5
f 702/5/5 700/5/5 701/5/5
f 705/5/5 704/5/5 703/5/5
f 707/5/5 705/5/5 703/5/5
f 707/5/5 706/5/5 705/5/5
f 708/5/5 706/5/5 707/5/5
f 709/5/5 706/5/5 708/5/5
f 710/5/5 706/5/5 709/5/5
f 711/5/5 706/5/5 710/5/5
f 712/5/5 706/5/5 711/5/5
f 713/5/6 714/5/6 715/5/6
f 715/5/6 714/5/6 716/5/6
f 716/5/6 714/5/6 717/5/6
f 717/5/6 714/5/6 718/5/6
f 719/3/6 720/3/6 723/3/6
f 723/3/6 720/3/6 724/3/6
f 721/3/6 722/3/6 725/3/6
f 725/3/6 722/3/6 726/3/6
f 727/2/6 728/2/6 729/2/6
f 729/2/6 728/2/6 730/2/6
f 731/2/6 732/2/6 734/2/6
f 733/2/6 734/2/6 736/2/6
f 735/2/6 736/2/6 737/2/6
f 734/2/6 732/2/6 738/2/6
f 737/2/6 736/2/6 738/2/6
f 736/2/6 734/2/6 738/2/6
f 730/2/6 728/2/6 739/2/6
f 739/2/6 728/2/6 740/2/6
f 741/2/6 742/2/6 743/2/6
f 743/2/6 742/2/6 744/2/6
f 745/4/6 746/4/6 747/4/6
f 747/4/6 746/4/6 748/4/6
f 749/1/6 750/1/6 755/1/6
f 753/1/6 754/1/6 755/1/6
f 752/1/6 753/1/6 755/1/6
f 751/1/6 752/1/6 755/1/6
f 750/1/6 751/1/6 755/1/6
f 749/1/6 755/1/6 756/1/6
f 756/1/6 755/1/6 757/1/6
f 757/1/6 755/1/6 758/1/6
f 759/2/6 760/2/6 761/2/6
f 761/2/6 760/2/6 762/2/6
f 763/2/6 764/2/6 765/2/6
f 765/2/6 764/2/6 766/2/6
f 767/2/6 768/2/6 769/2/6
f 769/2/6 768/2/6 770/2/6
f 771/2/6 772/2/6 775/2/6
f 775/2/6 772/2/6 776/2/6
f 773/2/6 774/2/6 777/2/6
f 777/2/6 774/2/6 778/2/6
f 779/2/6 780/2/6 781/2/6
f 781/2/6 780/2/6 782/2/6
f 782/2/6 780/2/6 783/2/6
f 783/2/6 780/2/6 784/2/6
f 785/3/6 786/3/6 789/3/6
f 789/3/6 786/3/6 790/3/6
f 787/3/6 788/3/6 791/3/6
f 791/3/6 788/3/6 792/3/6
f 793/5/6 794/5/6 795/5/6
f 795/5/6 794/5/6 796/5/6
f 793/5/6 795/5/6 797/5/6
f 796/5/6 794/5/6 800/5/6
f 793/5/6 797/5/6 801/5/6
f 797/5/6 798/5/6 801/5/6
f 801/5/6 798/5/6 802/5/6
f 798/1/6 799/1/6 803/1/6
f 802/5/6 798/5/6 803/5/6
f 799/5/6 800/5/6 804/5/6
f 803/1/6 799/1/6 804/1/6
f 804/5/6 800/5/6 805/5/6
f 800/5/6 794/5/6 806/5/6
f 805/5/6 800/5/6 806/5/6
f 802/3/6 803/3/6 807/3/6
f 807/3/6 803/3/6 808/3/6
f 804/3/6 805/3/6 809/3/6
f 809/3/6 805/3/6 810/3/6
f 811/5/6 812/5/6 813/5/6
f 813/5/6 812/5/6 814/5/6
