# MagicaVoxel @ Ephtracy

# group
g 2x2 roof

# material
mtllib 2x2 roof.mtl
usemtl palette

# normals
vn -1 0 0
vn 1 0 0
vn 0 0 1
vn 0 0 -1
vn 0 -1 0
vn 0 1 0

# texcoords
vt 0.978516 0.5
vt 0.990234 0.5

# verts
v -63 0 63
v -63 0 -63
v -63 1 63
v -63 1 -63
v -63 2 63
v -63 2 -54
v -63 12 -54
v -63 12 -63
v 54 2 63
v 54 2 -54
v 54 12 63
v 54 12 -54
v 63 0 63
v 63 0 -63
v 63 1 63
v 63 1 -63
v 63 12 63
v 63 12 -63
v -63 0 63
v -63 1 63
v -63 2 63
v 54 2 63
v 54 12 63
v 63 0 63
v 63 1 63
v 63 12 63
v -63 2 -54
v -63 12 -54
v 54 2 -54
v 54 12 -54
v -63 0 -63
v -63 1 -63
v -63 12 -63
v 63 0 -63
v 63 1 -63
v 63 12 -63
v -63 0 63
v 63 0 63
v -63 0 -63
v 63 0 -63
v -63 2 63
v 54 2 63
v -63 2 -54
v 54 2 -54
v 54 12 63
v 63 12 63
v -63 12 -54
v 54 12 -54
v -63 12 -63
v 63 12 -63

# faces
f 3/2/1 2/2/1 1/2/1
f 4/2/1 2/2/1 3/2/1
f 5/1/1 4/1/1 3/1/1
f 6/1/1 4/1/1 5/1/1
f 7/1/1 4/1/1 6/1/1
f 8/1/1 4/1/1 7/1/1
f 11/1/1 10/1/1 9/1/1
f 12/1/1 10/1/1 11/1/1
f 13/2/2 14/2/2 15/2/2
f 15/2/2 14/2/2 16/2/2
f 15/1/2 16/1/2 17/1/2
f 17/1/2 16/1/2 18/1/2
f 22/1/3 21/1/3 20/1/3
f 24/2/3 20/2/3 19/2/3
f 25/1/3 23/1/3 22/1/3
f 25/2/3 20/2/3 24/2/3
f 25/1/3 22/1/3 20/1/3
f 26/1/3 23/1/3 25/1/3
f 29/1/3 28/1/3 27/1/3
f 30/1/3 28/1/3 29/1/3
f 31/2/4 32/2/4 34/2/4
f 32/1/4 33/1/4 35/1/4
f 34/2/4 32/2/4 35/2/4
f 35/1/4 33/1/4 36/1/4
f 39/2/5 38/2/5 37/2/5
f 40/2/5 38/2/5 39/2/5
f 41/1/6 42/1/6 43/1/6
f 43/1/6 42/1/6 44/1/6
f 45/1/6 46/1/6 48/1/6
f 47/1/6 48/1/6 49/1/6
f 48/1/6 46/1/6 50/1/6
f 49/1/6 48/1/6 50/1/6
