# MagicaVoxel @ Ephtracy

# group
g 2x2 first (1)-2

# material
mtllib 2x2 first (1)-2.mtl
usemtl palette

# normals
vn -1 0 0
vn 1 0 0
vn 0 0 1
vn 0 0 -1
vn 0 -1 0
vn 0 1 0

# texcoords
vt 0.177734 0.5
vt 0.373047 0.5
vt 0.619141 0.5
vt 0.958984 0.5
vt 0.966797 0.5
vt 0.970703 0.5
vt 0.986328 0.5
vt 0.990234 0.5
vt 0.994141 0.5

# verts
v -63 0 63
v -63 0 -63
v -63 4 63
v -63 4 53
v -63 4 -29
v -63 4 -59
v -63 5 63
v -63 5 53
v -63 5 -29
v -63 5 -59
v -63 5 -61
v -63 5 -63
v -63 45 -29
v -63 45 -59
v -63 80 53
v -63 80 -61
v -63 80 -63
v 61 5 63
v 61 5 31
v 61 5 29
v 61 5 -16
v 61 5 -61
v 61 80 63
v 61 80 -61
v -62 5 53
v -62 5 31
v -62 5 13
v -62 5 -29
v -62 5 -59
v -62 5 -61
v -62 25 31
v -62 25 13
v -62 45 -29
v -62 45 -59
v -62 80 53
v -62 80 -61
v 31 5 31
v 31 5 29
v 31 5 13
v 31 25 31
v 31 25 13
v 63 0 63
v 63 0 -63
v 63 5 63
v 63 5 -63
v 63 80 63
v 63 80 -63
v -63 0 63
v -63 4 63
v -63 5 63
v 61 4 63
v 61 5 63
v 61 80 63
v 62 5 63
v 62 80 63
v 63 0 63
v 63 5 63
v 63 80 63
v -63 5 53
v -63 80 53
v -62 5 53
v -62 80 53
v -62 5 31
v -62 25 31
v 31 5 31
v 31 25 31
v -63 5 -59
v -63 45 -59
v -62 5 -59
v -62 45 -59
v -62 5 -61
v -62 80 -61
v 3 5 -61
v 61 5 -61
v 61 80 -61
v -62 5 13
v -62 25 13
v 31 5 13
v 31 25 13
v -63 5 -29
v -63 45 -29
v -62 5 -29
v -62 45 -29
v -63 0 -63
v -63 5 -63
v -63 80 -63
v 63 0 -63
v 63 5 -63
v 63 80 -63
v -63 0 63
v 63 0 63
v -63 0 -63
v 63 0 -63
v -63 45 -29
v -62 45 -29
v -63 45 -59
v -62 45 -59
v -63 5 63
v 61 5 63
v -63 5 53
v -62 5 53
v -62 5 31
v 31 5 31
v 61 5 31
v 31 5 29
v 61 5 29
v -62 5 13
v 31 5 13
v 1 5 3
v 20 5 3
v -14 5 -5
v 1 5 -5
v 23 5 -5
v 34 5 -5
v 20 5 -8
v 23 5 -8
v 35 5 -11
v 49 5 -11
v 34 5 -13
v 35 5 -13
v 49 5 -14
v 55 5 -14
v 55 5 -16
v 61 5 -16
v -35 5 -19
v -34 5 -19
v -35 5 -20
v -34 5 -20
v -36 5 -23
v -33 5 -23
v -36 5 -26
v -33 5 -26
v -24 5 -27
v -19 5 -27
v -29 5 -28
v -24 5 -28
v -63 5 -29
v -62 5 -29
v -14 5 -30
v -6 5 -30
v -21 5 -32
v -19 5 -32
v -8 5 -32
v -6 5 -32
v -21 5 -34
v -20 5 -34
v -29 5 -39
v -20 5 -39
v -8 5 -44
v -3 5 -44
v -3 5 -45
v -2 5 -45
v -2 5 -47
v -1 5 -47
v -1 5 -53
v 3 5 -53
v -63 5 -59
v -62 5 -59
v -62 5 -61
v 3 5 -61
v 61 5 -61
v -62 25 31
v 31 25 31
v -43 25 29
v -17 25 29
v 2 25 29
v 28 25 29
v -43 25 16
v -17 25 16
v 2 25 16
v 28 25 16
v -62 25 13
v 31 25 13
v 61 80 63
v 62 80 63
v 63 80 63
v -63 80 53
v -62 80 53
v -63 80 -61
v -62 80 -61
v 61 80 -61
v 62 80 -61
v -62 80 -62
v 61 80 -62
v -63 80 -63
v 63 80 -63

# faces
f 3/5/1 2/5/1 1/5/1
f 4/5/1 2/5/1 3/5/1
f 5/5/1 2/5/1 4/5/1
f 6/5/1 2/5/1 5/5/1
f 7/2/1 4/2/1 3/2/1
f 8/5/1 5/5/1 4/5/1
f 8/2/1 4/2/1 7/2/1
f 9/4/1 6/4/1 5/4/1
f 9/5/1 5/5/1 8/5/1
f 10/5/1 2/5/1 6/5/1
f 10/4/1 6/4/1 9/4/1
f 11/5/1 2/5/1 10/5/1
f 12/5/1 2/5/1 11/5/1
f 13/5/1 9/5/1 8/5/1
f 14/5/1 11/5/1 10/5/1
f 15/5/1 13/5/1 8/5/1
f 15/5/1 14/5/1 13/5/1
f 16/8/1 12/8/1 11/8/1
f 16/5/1 14/5/1 15/5/1
f 16/5/1 11/5/1 14/5/1
f 17/8/1 12/8/1 16/8/1
f 23/1/1 19/1/1 18/1/1
f 23/1/1 22/1/1 21/1/1
f 23/1/1 21/1/1 20/1/1
f 23/1/1 20/1/1 19/1/1
f 24/1/1 22/1/1 23/1/1
f 25/5/2 26/5/2 31/5/2
f 27/5/2 28/5/2 32/5/2
f 32/5/2 28/5/2 33/5/2
f 31/5/2 32/5/2 33/5/2
f 29/5/2 30/5/2 34/5/2
f 31/5/2 33/5/2 35/5/2
f 33/5/2 34/5/2 35/5/2
f 25/5/2 31/5/2 35/5/2
f 34/5/2 30/5/2 36/5/2
f 35/5/2 34/5/2 36/5/2
f 37/6/2 38/6/2 40/6/2
f 38/6/2 39/6/2 40/6/2
f 40/6/2 39/6/2 41/6/2
f 42/5/2 43/5/2 44/5/2
f 44/5/2 43/5/2 45/5/2
f 44/8/2 45/8/2 46/8/2
f 46/8/2 45/8/2 47/8/2
f 51/5/3 49/5/3 48/5/3
f 51/2/3 50/2/3 49/2/3
f 52/2/3 50/2/3 51/2/3
f 54/5/3 52/5/3 51/5/3
f 54/1/3 53/1/3 52/1/3
f 55/1/3 53/1/3 54/1/3
f 56/5/3 51/5/3 48/5/3
f 56/5/3 54/5/3 51/5/3
f 57/8/3 55/8/3 54/8/3
f 57/5/3 54/5/3 56/5/3
f 58/8/3 55/8/3 57/8/3
f 61/5/3 60/5/3 59/5/3
f 62/5/3 60/5/3 61/5/3
f 65/6/3 64/6/3 63/6/3
f 66/6/3 64/6/3 65/6/3
f 69/5/3 68/5/3 67/5/3
f 70/5/3 68/5/3 69/5/3
f 73/1/3 72/1/3 71/1/3
f 74/1/3 72/1/3 73/1/3
f 75/1/3 72/1/3 74/1/3
f 76/6/4 77/6/4 78/6/4
f 78/6/4 77/6/4 79/6/4
f 80/5/4 81/5/4 82/5/4
f 82/5/4 81/5/4 83/5/4
f 84/5/4 85/5/4 87/5/4
f 85/8/4 86/8/4 88/8/4
f 87/5/4 85/5/4 88/5/4
f 88/8/4 86/8/4 89/8/4
f 92/5/5 91/5/5 90/5/5
f 93/5/5 91/5/5 92/5/5
f 96/5/5 95/5/5 94/5/5
f 97/5/5 95/5/5 96/5/5
f 98/2/6 99/2/6 100/2/6
f 100/2/6 99/2/6 101/2/6
f 101/2/6 99/2/6 102/2/6
f 102/2/6 99/2/6 103/2/6
f 103/2/6 99/2/6 104/2/6
f 103/9/6 104/9/6 105/9/6
f 105/9/6 104/9/6 106/9/6
f 105/4/6 106/4/6 108/4/6
f 107/4/6 108/4/6 109/4/6
f 109/4/6 108/4/6 110/4/6
f 107/4/6 109/4/6 111/4/6
f 109/3/6 110/3/6 112/3/6
f 111/4/6 109/4/6 112/4/6
f 110/4/6 108/4/6 113/4/6
f 108/4/6 106/4/6 114/4/6
f 113/4/6 108/4/6 114/4/6
f 110/4/6 113/4/6 115/4/6
f 112/3/6 110/3/6 115/3/6
f 111/3/6 112/3/6 115/3/6
f 113/3/6 114/3/6 116/3/6
f 115/4/6 113/4/6 116/4/6
f 114/4/6 106/4/6 117/4/6
f 117/4/6 106/4/6 118/4/6
f 116/3/6 114/3/6 119/3/6
f 115/3/6 116/3/6 119/3/6
f 114/4/6 117/4/6 119/4/6
f 117/3/6 118/3/6 120/3/6
f 119/4/6 117/4/6 120/4/6
f 118/4/6 106/4/6 121/4/6
f 120/3/6 118/3/6 121/3/6
f 119/3/6 120/3/6 121/3/6
f 121/4/6 106/4/6 122/4/6
f 121/3/6 122/3/6 123/3/6
f 122/4/6 106/4/6 123/4/6
f 123/4/6 106/4/6 124/4/6
f 107/4/6 111/4/6 125/4/6
f 125/4/6 111/4/6 126/4/6
f 107/4/6 125/4/6 127/4/6
f 125/3/6 126/3/6 127/3/6
f 126/4/6 111/4/6 128/4/6
f 127/3/6 126/3/6 128/3/6
f 107/4/6 127/4/6 129/4/6
f 127/4/6 128/4/6 129/4/6
f 128/4/6 111/4/6 130/4/6
f 129/4/6 128/4/6 130/4/6
f 107/4/6 129/4/6 131/4/6
f 129/3/6 130/3/6 131/3/6
f 130/4/6 111/4/6 132/4/6
f 131/3/6 130/3/6 132/3/6
f 131/4/6 132/4/6 133/4/6
f 132/4/6 111/4/6 133/4/6
f 133/4/6 111/4/6 134/4/6
f 131/4/6 133/4/6 135/4/6
f 133/3/6 134/3/6 136/3/6
f 135/4/6 133/4/6 136/4/6
f 107/4/6 131/4/6 138/4/6
f 131/4/6 135/4/6 138/4/6
f 115/3/6 119/3/6 139/3/6
f 111/3/6 115/3/6 139/3/6
f 119/3/6 121/3/6 139/3/6
f 121/3/6 123/3/6 139/3/6
f 123/3/6 124/3/6 139/3/6
f 134/4/6 111/4/6 139/4/6
f 139/3/6 124/3/6 140/3/6
f 135/3/6 136/3/6 141/3/6
f 136/3/6 134/3/6 141/3/6
f 139/4/6 140/4/6 142/4/6
f 141/3/6 134/3/6 142/3/6
f 134/4/6 139/4/6 142/4/6
f 142/4/6 140/4/6 143/4/6
f 140/3/6 124/3/6 144/3/6
f 143/4/6 140/4/6 144/4/6
f 142/4/6 143/4/6 145/4/6
f 135/3/6 141/3/6 145/3/6
f 141/4/6 142/4/6 145/4/6
f 145/4/6 143/4/6 146/4/6
f 137/4/6 138/4/6 147/4/6
f 138/4/6 135/4/6 147/4/6
f 145/3/6 146/3/6 147/3/6
f 135/3/6 145/3/6 147/3/6
f 146/4/6 143/4/6 148/4/6
f 147/3/6 146/3/6 148/3/6
f 143/3/6 144/3/6 149/3/6
f 148/4/6 143/4/6 149/4/6
f 147/4/6 148/4/6 149/4/6
f 144/3/6 124/3/6 150/3/6
f 149/3/6 144/3/6 150/3/6
f 149/4/6 150/4/6 151/4/6
f 150/3/6 124/3/6 151/3/6
f 151/3/6 124/3/6 152/3/6
f 151/4/6 152/4/6 153/4/6
f 152/3/6 124/3/6 153/3/6
f 153/3/6 124/3/6 154/3/6
f 153/4/6 154/4/6 155/4/6
f 154/3/6 124/3/6 155/3/6
f 155/3/6 124/3/6 156/3/6
f 137/4/6 147/4/6 157/4/6
f 147/4/6 149/4/6 157/4/6
f 155/4/6 156/4/6 157/4/6
f 153/4/6 155/4/6 157/4/6
f 151/4/6 153/4/6 157/4/6
f 149/4/6 151/4/6 157/4/6
f 157/4/6 156/4/6 158/4/6
f 158/4/6 156/4/6 159/4/6
f 156/3/6 124/3/6 160/3/6
f 159/4/6 156/4/6 160/4/6
f 160/3/6 124/3/6 161/3/6
f 162/6/6 163/6/6 164/6/6
f 164/6/6 163/6/6 165/6/6
f 165/6/6 163/6/6 166/6/6
f 166/6/6 163/6/6 167/6/6
f 162/6/6 164/6/6 168/6/6
f 164/7/6 165/7/6 168/7/6
f 165/6/6 166/6/6 169/6/6
f 168/7/6 165/7/6 169/7/6
f 166/7/6 167/7/6 170/7/6
f 169/6/6 166/6/6 170/6/6
f 167/6/6 163/6/6 171/6/6
f 170/7/6 167/7/6 171/7/6
f 169/6/6 170/6/6 172/6/6
f 168/6/6 169/6/6 172/6/6
f 170/6/6 171/6/6 172/6/6
f 162/6/6 168/6/6 172/6/6
f 171/6/6 163/6/6 173/6/6
f 172/6/6 171/6/6 173/6/6
f 177/5/6 178/5/6 179/5/6
f 179/5/6 178/5/6 180/5/6
f 174/1/6 175/1/6 181/1/6
f 175/8/6 176/8/6 182/8/6
f 181/1/6 175/1/6 182/1/6
f 179/8/6 180/8/6 183/8/6
f 180/1/6 181/1/6 183/1/6
f 181/8/6 182/8/6 184/8/6
f 183/1/6 181/1/6 184/1/6
f 179/8/6 183/8/6 185/8/6
f 183/8/6 184/8/6 185/8/6
f 182/8/6 176/8/6 186/8/6
f 185/8/6 184/8/6 186/8/6
f 184/8/6 182/8/6 186/8/6
