# MagicaVoxel @ Ephtracy

# group
g 2x2 first-3

# material
mtllib 2x2 first-3.mtl
usemtl palette

# normals
vn -1 0 0
vn 1 0 0
vn 0 0 1
vn 0 0 -1
vn 0 -1 0
vn 0 1 0

# texcoords
vt 0.908203 0.5
vt 0.958984 0.5
vt 0.966797 0.5
vt 0.974609 0.5
vt 0.990234 0.5
vt 0.994141 0.5

# verts
v -63 0 63
v -63 0 -63
v -63 5 63
v -63 5 57
v -63 5 56
v -63 5 55
v -63 5 -63
v -63 7 57
v -63 7 56
v -63 8 57
v -63 8 56
v -63 59 57
v -63 59 56
v -63 74 59
v -63 74 57
v -63 74 56
v -63 76 59
v -63 76 57
v -63 76 56
v -63 79 57
v -63 79 55
v -63 80 57
v -63 80 55
v -56 63 59
v -56 63 57
v -56 75 59
v -56 75 57
v -55 62 59
v -55 62 57
v -55 63 59
v -55 63 57
v -55 75 59
v -55 75 57
v -55 76 59
v -55 76 57
v -48 64 59
v -48 64 57
v -48 74 59
v -48 74 57
v -41 62 59
v -41 62 57
v -41 76 59
v -41 76 57
v -34 62 59
v -34 62 57
v -34 66 59
v -34 66 57
v -34 68 59
v -34 68 57
v -34 74 59
v -34 74 57
v -27 62 59
v -27 62 57
v -27 76 59
v -27 76 57
v 0 66 61
v 0 66 57
v 0 73 61
v 0 73 57
v 4 62 61
v 4 62 57
v 4 66 61
v 4 66 57
v 4 73 61
v 4 73 57
v 4 77 61
v 4 77 57
v 61 5 55
v 61 5 -63
v 61 80 55
v 61 80 -63
v -61 74 59
v -61 74 57
v -61 76 59
v -61 76 57
v -54 64 59
v -54 64 57
v -54 74 59
v -54 74 57
v -47 62 59
v -47 62 57
v -47 63 59
v -47 63 57
v -47 75 59
v -47 75 57
v -47 76 59
v -47 76 57
v -46 63 59
v -46 63 57
v -46 75 59
v -46 75 57
v -39 62 59
v -39 62 57
v -39 66 59
v -39 66 57
v -39 68 59
v -39 68 57
v -39 74 59
v -39 74 57
v -33 66 59
v -33 66 57
v -33 68 59
v -33 68 57
v -33 75 59
v -33 75 57
v -33 76 59
v -33 76 57
v -32 62 59
v -32 62 57
v -32 66 59
v -32 66 57
v -32 68 59
v -32 68 57
v -32 75 59
v -32 75 57
v -25 64 59
v -25 64 57
v -25 68 59
v -25 68 57
v -25 70 59
v -25 70 57
v -25 74 59
v -25 74 57
v -20 68 59
v -20 68 57
v -20 70 59
v -20 70 57
v -19 62 59
v -19 62 57
v -19 64 59
v -19 64 57
v -19 74 59
v -19 74 57
v -19 76 59
v -19 76 57
v 11 62 61
v 11 62 57
v 11 66 61
v 11 66 57
v 11 73 61
v 11 73 57
v 11 77 61
v 11 77 57
v 15 66 61
v 15 66 57
v 15 73 61
v 15 73 57
v 63 0 63
v 63 0 -63
v 63 5 63
v 63 5 57
v 63 5 -63
v 63 80 57
v 63 80 -63
v -63 0 63
v -63 5 63
v 63 0 63
v 63 5 63
v 0 66 61
v 0 73 61
v 4 62 61
v 4 66 61
v 4 73 61
v 4 77 61
v 11 62 61
v 11 66 61
v 11 73 61
v 11 77 61
v 15 66 61
v 15 73 61
v -63 74 59
v -63 76 59
v -61 74 59
v -61 76 59
v -56 63 59
v -56 75 59
v -55 62 59
v -55 63 59
v -55 75 59
v -55 76 59
v -54 64 59
v -54 74 59
v -48 64 59
v -48 74 59
v -47 62 59
v -47 63 59
v -47 75 59
v -47 76 59
v -46 63 59
v -46 75 59
v -41 62 59
v -41 76 59
v -39 62 59
v -39 66 59
v -39 68 59
v -39 74 59
v -34 62 59
v -34 66 59
v -34 68 59
v -34 74 59
v -33 66 59
v -33 68 59
v -33 75 59
v -33 76 59
v -32 62 59
v -32 66 59
v -32 68 59
v -32 75 59
v -27 62 59
v -27 76 59
v -25 64 59
v -25 68 59
v -25 70 59
v -25 74 59
v -20 68 59
v -20 70 59
v -19 62 59
v -19 64 59
v -19 74 59
v -19 76 59
v -63 5 57
v -63 7 57
v -63 8 57
v -63 59 57
v -63 74 57
v -63 76 57
v -63 79 57
v -63 80 57
v -61 74 57
v -61 76 57
v -56 63 57
v -56 75 57
v -55 62 57
v -55 63 57
v -55 75 57
v -55 76 57
v -54 64 57
v -54 74 57
v -48 64 57
v -48 74 57
v -47 62 57
v -47 63 57
v -47 75 57
v -47 76 57
v -46 63 57
v -46 75 57
v -41 62 57
v -41 76 57
v -39 62 57
v -39 66 57
v -39 68 57
v -39 74 57
v -34 62 57
v -34 66 57
v -34 68 57
v -34 74 57
v -33 66 57
v -33 68 57
v -33 75 57
v -33 76 57
v -32 62 57
v -32 66 57
v -32 68 57
v -32 75 57
v -27 62 57
v -27 76 57
v -25 64 57
v -25 68 57
v -25 70 57
v -25 74 57
v -20 68 57
v -20 70 57
v -19 62 57
v -19 64 57
v -19 74 57
v -19 76 57
v 0 66 57
v 0 73 57
v 4 62 57
v 4 66 57
v 4 73 57
v 4 77 57
v 11 62 57
v 11 66 57
v 11 73 57
v 11 77 57
v 15 66 57
v 15 73 57
v 20 7 57
v 20 8 57
v 20 59 57
v 20 79 57
v 22 5 57
v 22 80 57
v 63 5 57
v 63 80 57
v -63 5 55
v -63 79 55
v -63 80 55
v -20 79 55
v -20 80 55
v 61 5 55
v 61 80 55
v -63 0 -63
v -63 5 -63
v 61 5 -63
v 61 80 -63
v 63 0 -63
v 63 5 -63
v 63 80 -63
v -63 0 63
v 63 0 63
v -63 0 -63
v 63 0 -63
v 4 62 61
v 11 62 61
v -55 62 59
v -47 62 59
v -41 62 59
v -39 62 59
v -34 62 59
v -32 62 59
v -27 62 59
v -19 62 59
v -55 62 57
v -47 62 57
v -41 62 57
v -39 62 57
v -34 62 57
v -32 62 57
v -27 62 57
v -19 62 57
v 4 62 57
v 11 62 57
v -56 63 59
v -55 63 59
v -47 63 59
v -46 63 59
v -56 63 57
v -55 63 57
v -47 63 57
v -46 63 57
v 0 66 61
v 4 66 61
v 11 66 61
v 15 66 61
v -39 66 59
v -34 66 59
v -39 66 57
v -34 66 57
v 0 66 57
v 4 66 57
v 11 66 57
v 15 66 57
v -33 68 59
v -32 68 59
v -25 68 59
v -20 68 59
v -33 68 57
v -32 68 57
v -25 68 57
v -20 68 57
v -63 74 59
v -61 74 59
v -54 74 59
v -48 74 59
v -39 74 59
v -34 74 59
v -25 74 59
v -19 74 59
v -63 74 57
v -61 74 57
v -54 74 57
v -48 74 57
v -39 74 57
v -34 74 57
v -25 74 57
v -19 74 57
v -63 5 63
v 63 5 63
v -63 5 57
v 22 5 57
v 63 5 57
v -63 5 55
v 61 5 55
v -63 5 -63
v 61 5 -63
v -54 64 59
v -48 64 59
v -25 64 59
v -19 64 59
v -54 64 57
v -48 64 57
v -25 64 57
v -19 64 57
v -33 66 59
v -32 66 59
v -33 66 57
v -32 66 57
v -39 68 59
v -34 68 59
v -39 68 57
v -34 68 57
v -25 70 59
v -20 70 59
v -25 70 57
v -20 70 57
v 0 73 61
v 4 73 61
v 11 73 61
v 15 73 61
v 0 73 57
v 4 73 57
v 11 73 57
v 15 73 57
v -56 75 59
v -55 75 59
v -47 75 59
v -46 75 59
v -33 75 59
v -32 75 59
v -56 75 57
v -55 75 57
v -47 75 57
v -46 75 57
v -33 75 57
v -32 75 57
v -63 76 59
v -61 76 59
v -55 76 59
v -47 76 59
v -41 76 59
v -33 76 59
v -27 76 59
v -19 76 59
v -63 76 57
v -61 76 57
v -55 76 57
v -47 76 57
v -41 76 57
v -33 76 57
v -27 76 57
v -19 76 57
v 4 77 61
v 11 77 61
v 4 77 57
v 11 77 57
v -63 80 57
v 22 80 57
v 63 80 57
v -20 80 56
v 22 80 56
v -63 80 55
v -20 80 55
v 61 80 55
v 61 80 -63
v 63 80 -63

# faces
f 3/3/1 2/3/1 1/3/1
f 4/3/1 2/3/1 3/3/1
f 5/3/1 2/3/1 4/3/1
f 6/3/1 2/3/1 5/3/1
f 7/3/1 2/3/1 6/3/1
f 8/6/1 5/6/1 4/6/1
f 9/5/1 6/5/1 5/5/1
f 9/6/1 5/6/1 8/6/1
f 10/5/1 9/5/1 8/5/1
f 11/5/1 6/5/1 9/5/1
f 11/5/1 9/5/1 10/5/1
f 12/1/1 11/1/1 10/1/1
f 13/5/1 6/5/1 11/5/1
f 13/1/1 11/1/1 12/1/1
f 15/5/1 13/5/1 12/5/1
f 16/5/1 6/5/1 13/5/1
f 16/5/1 13/5/1 15/5/1
f 17/2/1 15/2/1 14/2/1
f 17/2/1 16/2/1 15/2/1
f 18/2/1 16/2/1 17/2/1
f 19/5/1 6/5/1 16/5/1
f 19/2/1 16/2/1 18/2/1
f 20/5/1 19/5/1 18/5/1
f 21/5/1 6/5/1 19/5/1
f 21/5/1 19/5/1 20/5/1
f 22/6/1 21/6/1 20/6/1
f 23/6/1 21/6/1 22/6/1
f 26/2/1 25/2/1 24/2/1
f 27/2/1 25/2/1 26/2/1
f 30/2/1 29/2/1 28/2/1
f 31/2/1 29/2/1 30/2/1
f 34/2/1 33/2/1 32/2/1
f 35/2/1 33/2/1 34/2/1
f 38/2/1 37/2/1 36/2/1
f 39/2/1 37/2/1 38/2/1
f 42/2/1 41/2/1 40/2/1
f 43/2/1 41/2/1 42/2/1
f 46/2/1 45/2/1 44/2/1
f 47/2/1 45/2/1 46/2/1
f 50/2/1 49/2/1 48/2/1
f 51/2/1 49/2/1 50/2/1
f 54/2/1 53/2/1 52/2/1
f 55/2/1 53/2/1 54/2/1
f 58/4/1 57/4/1 56/4/1
f 59/4/1 57/4/1 58/4/1
f 62/4/1 61/4/1 60/4/1
f 63/4/1 61/4/1 62/4/1
f 66/4/1 65/4/1 64/4/1
f 67/4/1 65/4/1 66/4/1
f 70/5/1 69/5/1 68/5/1
f 71/5/1 69/5/1 70/5/1
f 72/2/2 73/2/2 74/2/2
f 74/2/2 73/2/2 75/2/2
f 76/2/2 77/2/2 78/2/2
f 78/2/2 77/2/2 79/2/2
f 80/2/2 81/2/2 82/2/2
f 82/2/2 81/2/2 83/2/2
f 84/2/2 85/2/2 86/2/2
f 86/2/2 85/2/2 87/2/2
f 88/2/2 89/2/2 90/2/2
f 90/2/2 89/2/2 91/2/2
f 92/2/2 93/2/2 94/2/2
f 94/2/2 93/2/2 95/2/2
f 96/2/2 97/2/2 98/2/2
f 98/2/2 97/2/2 99/2/2
f 100/2/2 101/2/2 102/2/2
f 102/2/2 101/2/2 103/2/2
f 104/2/2 105/2/2 106/2/2
f 106/2/2 105/2/2 107/2/2
f 108/2/2 109/2/2 110/2/2
f 110/2/2 109/2/2 111/2/2
f 112/2/2 113/2/2 114/2/2
f 114/2/2 113/2/2 115/2/2
f 116/2/2 117/2/2 118/2/2
f 118/2/2 117/2/2 119/2/2
f 120/2/2 121/2/2 122/2/2
f 122/2/2 121/2/2 123/2/2
f 124/2/2 125/2/2 126/2/2
f 126/2/2 125/2/2 127/2/2
f 128/2/2 129/2/2 130/2/2
f 130/2/2 129/2/2 131/2/2
f 132/2/2 133/2/2 134/2/2
f 134/2/2 133/2/2 135/2/2
f 136/4/2 137/4/2 138/4/2
f 138/4/2 137/4/2 139/4/2
f 140/4/2 141/4/2 142/4/2
f 142/4/2 141/4/2 143/4/2
f 144/4/2 145/4/2 146/4/2
f 146/4/2 145/4/2 147/4/2
f 148/3/2 149/3/2 150/3/2
f 150/3/2 149/3/2 151/3/2
f 151/3/2 149/3/2 152/3/2
f 151/5/2 152/5/2 153/5/2
f 153/5/2 152/5/2 154/5/2
f 157/3/3 156/3/3 155/3/3
f 158/3/3 156/3/3 157/3/3
f 162/4/3 160/4/3 159/4/3
f 163/4/3 160/4/3 162/4/3
f 165/4/3 162/4/3 161/4/3
f 165/4/3 164/4/3 163/4/3
f 165/4/3 163/4/3 162/4/3
f 166/4/3 164/4/3 165/4/3
f 167/4/3 164/4/3 166/4/3
f 168/4/3 164/4/3 167/4/3
f 169/4/3 167/4/3 166/4/3
f 170/4/3 167/4/3 169/4/3
f 173/2/3 172/2/3 171/2/3
f 174/2/3 172/2/3 173/2/3
f 178/2/3 176/2/3 175/2/3
f 179/2/3 176/2/3 178/2/3
f 181/2/3 178/2/3 177/2/3
f 181/2/3 180/2/3 179/2/3
f 181/2/3 179/2/3 178/2/3
f 182/2/3 180/2/3 181/2/3
f 183/2/3 181/2/3 177/2/3
f 184/2/3 180/2/3 182/2/3
f 185/2/3 183/2/3 177/2/3
f 185/2/3 184/2/3 183/2/3
f 186/2/3 184/2/3 185/2/3
f 187/2/3 180/2/3 184/2/3
f 187/2/3 184/2/3 186/2/3
f 188/2/3 180/2/3 187/2/3
f 189/2/3 187/2/3 186/2/3
f 190/2/3 187/2/3 189/2/3
f 193/2/3 192/2/3 191/2/3
f 194/2/3 192/2/3 193/2/3
f 195/2/3 192/2/3 194/2/3
f 196/2/3 192/2/3 195/2/3
f 198/2/3 195/2/3 194/2/3
f 199/2/3 195/2/3 198/2/3
f 200/2/3 192/2/3 196/2/3
f 201/2/3 199/2/3 198/2/3
f 201/2/3 200/2/3 199/2/3
f 201/2/3 198/2/3 197/2/3
f 202/2/3 200/2/3 201/2/3
f 203/2/3 192/2/3 200/2/3
f 203/2/3 200/2/3 202/2/3
f 204/2/3 192/2/3 203/2/3
f 205/2/3 201/2/3 197/2/3
f 206/2/3 201/2/3 205/2/3
f 207/2/3 203/2/3 202/2/3
f 208/2/3 203/2/3 207/2/3
f 211/2/3 210/2/3 209/2/3
f 212/2/3 210/2/3 211/2/3
f 213/2/3 210/2/3 212/2/3
f 214/2/3 210/2/3 213/2/3
f 215/2/3 213/2/3 212/2/3
f 216/2/3 213/2/3 215/2/3
f 217/2/3 211/2/3 209/2/3
f 218/2/3 211/2/3 217/2/3
f 219/2/3 210/2/3 214/2/3
f 220/2/3 210/2/3 219/2/3
f 229/5/3 225/5/3 224/5/3
f 230/5/3 227/5/3 226/5/3
f 231/5/3 229/5/3 224/5/3
f 231/5/3 230/5/3 229/5/3
f 232/5/3 230/5/3 231/5/3
f 233/5/3 231/5/3 224/5/3
f 234/5/3 231/5/3 233/5/3
f 235/5/3 230/5/3 232/5/3
f 236/5/3 227/5/3 230/5/3
f 236/5/3 230/5/3 235/5/3
f 239/5/3 238/5/3 237/5/3
f 240/5/3 238/5/3 239/5/3
f 241/5/3 233/5/3 224/5/3
f 244/5/3 227/5/3 236/5/3
f 245/5/3 242/5/3 241/5/3
f 246/5/3 244/5/3 243/5/3
f 247/5/3 241/5/3 224/5/3
f 247/5/3 246/5/3 245/5/3
f 247/5/3 245/5/3 241/5/3
f 248/5/3 244/5/3 246/5/3
f 248/5/3 246/5/3 247/5/3
f 248/5/3 227/5/3 244/5/3
f 249/5/3 247/5/3 224/5/3
f 253/5/3 249/5/3 224/5/3
f 253/5/3 250/5/3 249/5/3
f 254/5/3 250/5/3 253/5/3
f 255/5/3 252/5/3 251/5/3
f 256/5/3 252/5/3 255/5/3
f 260/5/3 227/5/3 248/5/3
f 261/5/3 253/5/3 224/5/3
f 262/5/3 258/5/3 257/5/3
f 263/5/3 258/5/3 262/5/3
f 264/5/3 260/5/3 259/5/3
f 265/5/3 261/5/3 224/5/3
f 265/5/3 264/5/3 263/5/3
f 265/5/3 263/5/3 262/5/3
f 265/5/3 262/5/3 261/5/3
f 266/5/3 260/5/3 264/5/3
f 266/5/3 264/5/3 265/5/3
f 266/5/3 227/5/3 260/5/3
f 271/5/3 268/5/3 267/5/3
f 272/5/3 270/5/3 269/5/3
f 273/5/3 265/5/3 224/5/3
f 274/5/3 272/5/3 271/5/3
f 274/5/3 271/5/3 267/5/3
f 275/5/3 270/5/3 272/5/3
f 275/5/3 272/5/3 274/5/3
f 276/5/3 227/5/3 266/5/3
f 277/5/3 275/5/3 274/5/3
f 277/5/3 276/5/3 275/5/3
f 277/5/3 274/5/3 273/5/3
f 278/5/3 276/5/3 277/5/3
f 279/5/3 273/5/3 224/5/3
f 279/5/3 277/5/3 273/5/3
f 280/5/3 277/5/3 279/5/3
f 281/5/3 276/5/3 278/5/3
f 282/5/3 227/5/3 276/5/3
f 282/5/3 276/5/3 281/5/3
f 283/5/3 279/5/3 224/5/3
f 286/5/3 227/5/3 282/5/3
f 287/5/3 284/5/3 283/5/3
f 288/5/3 286/5/3 285/5/3
f 289/6/3 222/6/3 221/6/3
f 289/5/3 223/5/3 222/5/3
f 290/1/3 224/1/3 223/1/3
f 290/5/3 223/5/3 289/5/3
f 291/5/3 288/5/3 287/5/3
f 291/1/3 224/1/3 290/1/3
f 291/5/3 287/5/3 283/5/3
f 291/5/3 283/5/3 224/5/3
f 292/5/3 286/5/3 288/5/3
f 292/5/3 288/5/3 291/5/3
f 292/6/3 228/6/3 227/6/3
f 292/5/3 227/5/3 286/5/3
f 293/6/3 290/6/3 289/6/3
f 293/6/3 291/6/3 290/6/3
f 293/6/3 292/6/3 291/6/3
f 293/6/3 289/6/3 221/6/3
f 294/6/3 228/6/3 292/6/3
f 294/6/3 292/6/3 293/6/3
f 295/5/3 294/5/3 293/5/3
f 296/5/3 294/5/3 295/5/3
f 297/5/4 298/5/4 300/5/4
f 298/6/4 299/6/4 300/6/4
f 300/6/4 299/6/4 301/6/4
f 297/5/4 300/5/4 302/5/4
f 300/5/4 301/5/4 302/5/4
f 302/5/4 301/5/4 303/5/4
f 304/3/4 305/3/4 306/3/4
f 304/3/4 306/3/4 308/3/4
f 306/5/4 307/5/4 309/5/4
f 308/3/4 306/3/4 309/3/4
f 309/5/4 307/5/4 310/5/4
f 313/3/5 312/3/5 311/3/5
f 314/3/5 312/3/5 313/3/5
f 325/2/5 318/2/5 317/2/5
f 326/2/5 318/2/5 325/2/5
f 327/2/5 320/2/5 319/2/5
f 328/2/5 320/2/5 327/2/5
f 329/2/5 322/2/5 321/2/5
f 330/2/5 322/2/5 329/2/5
f 331/2/5 324/2/5 323/2/5
f 332/2/5 324/2/5 331/2/5
f 333/4/5 316/4/5 315/4/5
f 334/4/5 316/4/5 333/4/5
f 339/2/5 336/2/5 335/2/5
f 340/2/5 336/2/5 339/2/5
f 341/2/5 338/2/5 337/2/5
f 342/2/5 338/2/5 341/2/5
f 349/2/5 348/2/5 347/2/5
f 350/2/5 348/2/5 349/2/5
f 351/4/5 344/4/5 343/4/5
f 352/4/5 344/4/5 351/4/5
f 353/4/5 346/4/5 345/4/5
f 354/4/5 346/4/5 353/4/5
f 359/2/5 356/2/5 355/2/5
f 360/2/5 356/2/5 359/2/5
f 361/2/5 358/2/5 357/2/5
f 362/2/5 358/2/5 361/2/5
f 371/2/5 364/2/5 363/2/5
f 372/2/5 364/2/5 371/2/5
f 373/2/5 366/2/5 365/2/5
f 374/2/5 366/2/5 373/2/5
f 375/2/5 368/2/5 367/2/5
f 376/2/5 368/2/5 375/2/5
f 377/2/5 370/2/5 369/2/5
f 378/2/5 370/2/5 377/2/5
f 379/3/6 380/3/6 381/3/6
f 381/3/6 380/3/6 382/3/6
f 382/3/6 380/3/6 383/3/6
f 384/3/6 385/3/6 386/3/6
f 386/3/6 385/3/6 387/3/6
f 388/2/6 389/2/6 392/2/6
f 392/2/6 389/2/6 393/2/6
f 390/2/6 391/2/6 394/2/6
f 394/2/6 391/2/6 395/2/6
f 396/2/6 397/2/6 398/2/6
f 398/2/6 397/2/6 399/2/6
f 400/2/6 401/2/6 402/2/6
f 402/2/6 401/2/6 403/2/6
f 404/2/6 405/2/6 406/2/6
f 406/2/6 405/2/6 407/2/6
f 408/4/6 409/4/6 412/4/6
f 412/4/6 409/4/6 413/4/6
f 410/4/6 411/4/6 414/4/6
f 414/4/6 411/4/6 415/4/6
f 416/2/6 417/2/6 422/2/6
f 422/2/6 417/2/6 423/2/6
f 418/2/6 419/2/6 424/2/6
f 424/2/6 419/2/6 425/2/6
f 420/2/6 421/2/6 426/2/6
f 426/2/6 421/2/6 427/2/6
f 428/2/6 429/2/6 436/2/6
f 436/2/6 429/2/6 437/2/6
f 430/2/6 431/2/6 438/2/6
f 438/2/6 431/2/6 439/2/6
f 432/2/6 433/2/6 440/2/6
f 440/2/6 433/2/6 441/2/6
f 434/2/6 435/2/6 442/2/6
f 442/2/6 435/2/6 443/2/6
f 444/4/6 445/4/6 446/4/6
f 446/4/6 445/4/6 447/4/6
f 448/6/6 449/6/6 451/6/6
f 449/5/6 450/5/6 452/5/6
f 451/6/6 449/6/6 452/6/6
f 448/6/6 451/6/6 453/6/6
f 451/5/6 452/5/6 454/5/6
f 453/6/6 451/6/6 454/6/6
f 452/5/6 450/5/6 455/5/6
f 454/5/6 452/5/6 455/5/6
f 455/5/6 450/5/6 456/5/6
f 456/5/6 450/5/6 457/5/6
