# MagicaVoxel @ Ephtracy

# group
g 4x2 first-2

# material
mtllib 4x2 first-2.mtl
usemtl palette

# normals
vn -1 0 0
vn 1 0 0
vn 0 0 1
vn 0 0 -1
vn 0 -1 0
vn 0 1 0

# texcoords
vt 0.962891 0.5
vt 0.966797 0.5
vt 0.974609 0.5
vt 0.982422 0.5

# verts
v -63 0 63
v -63 0 -63
v -63 3 63
v -63 3 -61
v -63 80 -61
v -63 80 -63
v 61 27 3
v 61 27 -8
v 61 32 1
v 61 32 -5
v 61 33 -6
v 61 33 -7
v 61 34 1
v 61 34 -5
v 61 34 -6
v 61 34 -7
v 61 35 3
v 61 35 -8
v 62 3 63
v 62 3 -12
v 62 3 -42
v 62 3 -61
v 62 27 3
v 62 27 -8
v 62 35 3
v 62 35 -8
v 62 43 -12
v 62 43 -42
v 62 80 63
v 62 80 -61
v 63 0 63
v 63 0 -63
v 63 3 -12
v 63 3 -42
v 63 43 -12
v 63 43 -42
v 63 80 63
v 63 80 -63
v -63 0 63
v -63 3 63
v 62 3 63
v 62 80 63
v 63 0 63
v 63 80 63
v 61 27 3
v 61 35 3
v 62 27 3
v 62 35 3
v 62 3 -42
v 62 43 -42
v 63 3 -42
v 63 43 -42
v -63 3 -61
v -63 80 -61
v 62 3 -61
v 62 80 -61
v 61 27 -8
v 61 35 -8
v 62 27 -8
v 62 35 -8
v 62 3 -12
v 62 43 -12
v 63 3 -12
v 63 43 -12
v -63 0 -63
v -63 80 -63
v 63 0 -63
v 63 80 -63
v -63 0 63
v 63 0 63
v -63 0 -63
v 63 0 -63
v 61 27 3
v 62 27 3
v 61 27 -8
v 62 27 -8
v 62 43 -12
v 63 43 -12
v 62 43 -42
v 63 43 -42
v -63 3 63
v 62 3 63
v 62 3 -12
v 63 3 -12
v 62 3 -42
v 63 3 -42
v -63 3 -61
v 62 3 -61
v 61 35 3
v 62 35 3
v 61 35 -8
v 62 35 -8
v 62 80 63
v 63 80 63
v -63 80 -61
v 62 80 -61
v -63 80 -63
v 63 80 -63

# faces
f 3/2/1 2/2/1 1/2/1
f 4/2/1 2/2/1 3/2/1
f 5/2/1 2/2/1 4/2/1
f 6/2/1 2/2/1 5/2/1
f 9/3/1 8/3/1 7/3/1
f 10/3/1 8/3/1 9/3/1
f 11/3/1 8/3/1 10/3/1
f 12/3/1 8/3/1 11/3/1
f 13/3/1 9/3/1 7/3/1
f 13/1/1 10/1/1 9/1/1
f 14/3/1 11/3/1 10/3/1
f 14/1/1 10/1/1 13/1/1
f 15/4/1 12/4/1 11/4/1
f 15/3/1 11/3/1 14/3/1
f 16/3/1 8/3/1 12/3/1
f 16/4/1 12/4/1 15/4/1
f 17/3/1 15/3/1 14/3/1
f 17/3/1 14/3/1 13/3/1
f 17/3/1 16/3/1 15/3/1
f 17/3/1 13/3/1 7/3/1
f 18/3/1 8/3/1 16/3/1
f 18/3/1 16/3/1 17/3/1
f 23/2/1 20/2/1 19/2/1
f 24/2/1 20/2/1 23/2/1
f 25/2/1 23/2/1 19/2/1
f 26/2/1 20/2/1 24/2/1
f 27/2/1 20/2/1 26/2/1
f 27/2/1 26/2/1 25/2/1
f 28/2/1 22/2/1 21/2/1
f 29/2/1 27/2/1 25/2/1
f 29/2/1 28/2/1 27/2/1
f 29/2/1 25/2/1 19/2/1
f 30/2/1 22/2/1 28/2/1
f 30/2/1 28/2/1 29/2/1
f 31/2/2 32/2/2 33/2/2
f 33/2/2 32/2/2 34/2/2
f 31/2/2 33/2/2 35/2/2
f 34/2/2 32/2/2 36/2/2
f 31/2/2 35/2/2 37/2/2
f 35/2/2 36/2/2 37/2/2
f 36/2/2 32/2/2 38/2/2
f 37/2/2 36/2/2 38/2/2
f 41/2/3 40/2/3 39/2/3
f 43/2/3 41/2/3 39/2/3
f 43/2/3 42/2/3 41/2/3
f 44/2/3 42/2/3 43/2/3
f 47/3/3 46/3/3 45/3/3
f 48/3/3 46/3/3 47/3/3
f 51/2/3 50/2/3 49/2/3
f 52/2/3 50/2/3 51/2/3
f 55/2/3 54/2/3 53/2/3
f 56/2/3 54/2/3 55/2/3
f 57/3/4 58/3/4 59/3/4
f 59/3/4 58/3/4 60/3/4
f 61/2/4 62/2/4 63/2/4
f 63/2/4 62/2/4 64/2/4
f 65/2/4 66/2/4 67/2/4
f 67/2/4 66/2/4 68/2/4
f 71/2/5 70/2/5 69/2/5
f 72/2/5 70/2/5 71/2/5
f 75/3/5 74/3/5 73/3/5
f 76/3/5 74/3/5 75/3/5
f 79/2/5 78/2/5 77/2/5
f 80/2/5 78/2/5 79/2/5
f 81/2/6 82/2/6 83/2/6
f 81/2/6 83/2/6 85/2/6
f 83/2/6 84/2/6 85/2/6
f 85/2/6 84/2/6 86/2/6
f 81/2/6 85/2/6 87/2/6
f 87/2/6 85/2/6 88/2/6
f 89/3/6 90/3/6 91/3/6
f 91/3/6 90/3/6 92/3/6
f 93/2/6 94/2/6 96/2/6
f 95/2/6 96/2/6 97/2/6
f 96/2/6 94/2/6 98/2/6
f 97/2/6 96/2/6 98/2/6
