# MagicaVoxel @ Ephtracy

# group
g 4x4 first-3

# material
mtllib 4x4 first-3.mtl
usemtl palette

# normals
vn -1 0 0
vn 1 0 0
vn 0 0 1
vn 0 0 -1
vn 0 -1 0
vn 0 1 0

# texcoords
vt 0.396484 0.5
vt 0.966797 0.5

# verts
v -63 0 63
v -63 0 -63
v -63 80 63
v -63 80 -63
v 23 3 24
v 23 3 3
v 23 8 13
v 23 8 3
v 23 15 24
v 23 15 13
v 61 3 3
v 61 3 -63
v 61 8 13
v 61 8 3
v 61 15 24
v 61 15 13
v 61 22 61
v 61 22 24
v 61 80 61
v 61 80 -63
v -61 3 6
v -61 3 -63
v -61 32 6
v -61 32 -5
v -61 39 61
v -61 39 27
v -61 39 -5
v -61 39 -15
v -61 46 27
v -61 46 16
v -61 46 -15
v -61 46 -26
v -61 53 16
v -61 53 6
v -61 53 -26
v -61 53 -37
v -61 60 6
v -61 60 -5
v -61 60 -37
v -61 60 -62
v -61 67 -5
v -61 67 -15
v -61 74 -15
v -61 74 -26
v -61 80 61
v -61 80 -26
v -61 80 -62
v -61 80 -63
v -23 3 24
v -23 3 6
v -23 32 6
v -23 32 -5
v -23 39 27
v -23 39 24
v -23 39 -5
v -23 39 -15
v -23 46 27
v -23 46 16
v -23 46 -15
v -23 46 -26
v -23 53 16
v -23 53 6
v -23 53 -26
v -23 53 -37
v -23 60 6
v -23 60 -5
v -23 60 -37
v -23 60 -62
v -23 67 -5
v -23 67 -15
v -23 74 -15
v -23 74 -26
v -23 80 -26
v -23 80 -62
v 9 32 61
v 9 32 24
v 9 39 61
v 9 39 24
v 20 25 61
v 20 25 24
v 20 32 61
v 20 32 24
v 30 22 61
v 30 22 24
v 30 25 61
v 30 25 24
v 63 0 63
v 63 0 -63
v 63 80 63
v 63 80 -63
v -63 0 63
v -63 80 63
v 63 0 63
v 63 80 63
v -61 39 27
v -61 46 27
v -23 39 27
v -23 46 27
v -61 46 16
v -61 53 16
v -23 46 16
v -23 53 16
v -61 53 6
v -61 60 6
v -23 53 6
v -23 60 6
v -61 60 -5
v -61 67 -5
v -23 60 -5
v -23 67 -5
v -61 67 -15
v -61 74 -15
v -23 67 -15
v -23 74 -15
v -61 74 -26
v -61 80 -26
v -23 74 -26
v -23 80 -26
v -61 39 61
v -61 80 61
v 9 32 61
v 9 39 61
v 20 25 61
v 20 32 61
v 30 22 61
v 30 25 61
v 61 22 61
v 61 80 61
v -23 3 24
v -23 39 24
v 9 32 24
v 9 39 24
v 20 25 24
v 20 32 24
v 23 3 24
v 23 15 24
v 30 22 24
v 30 25 24
v 61 15 24
v 61 22 24
v 23 8 13
v 23 15 13
v 61 8 13
v 61 15 13
v -61 3 6
v -61 32 6
v -23 3 6
v -23 32 6
v 23 3 3
v 23 8 3
v 61 3 3
v 61 8 3
v -61 32 -5
v -61 39 -5
v -23 32 -5
v -23 39 -5
v -61 39 -15
v -61 46 -15
v -23 39 -15
v -23 46 -15
v -61 46 -26
v -61 53 -26
v -23 46 -26
v -23 53 -26
v -61 53 -37
v -61 60 -37
v -23 53 -37
v -23 60 -37
v -61 60 -62
v -61 80 -62
v -23 60 -62
v -23 80 -62
v -63 0 -63
v -63 80 -63
v -61 3 -63
v -61 80 -63
v 61 3 -63
v 61 80 -63
v 63 0 -63
v 63 80 -63
v -63 0 63
v 63 0 63
v -23 0 61
v 61 0 61
v -23 0 24
v 23 0 24
v 23 0 3
v 61 0 3
v -63 0 -63
v 63 0 -63
v -61 32 6
v -23 32 6
v -61 32 -5
v -23 32 -5
v -61 39 -5
v -23 39 -5
v -61 39 -15
v -23 39 -15
v -61 46 -15
v -23 46 -15
v -61 46 -26
v -23 46 -26
v -61 53 -26
v -23 53 -26
v -61 53 -37
v -23 53 -37
v -61 60 -37
v -23 60 -37
v -61 60 -62
v -23 60 -62
v -23 3 24
v 23 3 24
v -61 3 6
v -23 3 6
v 23 3 3
v 61 3 3
v -61 3 -63
v 61 3 -63
v 23 8 13
v 61 8 13
v 23 8 3
v 61 8 3
v 23 15 24
v 61 15 24
v 23 15 13
v 61 15 13
v 30 22 61
v 61 22 61
v 30 22 24
v 61 22 24
v 20 25 61
v 30 25 61
v 20 25 24
v 30 25 24
v 9 32 61
v 20 32 61
v 9 32 24
v 20 32 24
v -61 39 61
v 9 39 61
v -61 39 27
v -23 39 27
v -23 39 24
v 9 39 24
v -61 46 27
v -23 46 27
v -61 46 16
v -23 46 16
v -61 53 16
v -23 53 16
v -61 53 6
v -23 53 6
v -61 60 6
v -23 60 6
v -61 60 -5
v -23 60 -5
v -61 67 -5
v -23 67 -5
v -61 67 -15
v -23 67 -15
v -61 74 -15
v -23 74 -15
v -61 74 -26
v -23 74 -26
v -63 80 63
v 63 80 63
v -61 80 61
v 61 80 61
v -62 80 -26
v -61 80 -26
v -23 80 -26
v -62 80 -62
v -61 80 -62
v -23 80 -62
v -63 80 -63
v -61 80 -63
v 61 80 -63
v 63 80 -63

# faces
f 3/2/1 2/2/1 1/2/1
f 4/2/1 2/2/1 3/2/1
f 7/1/1 6/1/1 5/1/1
f 8/1/1 6/1/1 7/1/1
f 9/1/1 7/1/1 5/1/1
f 10/1/1 7/1/1 9/1/1
f 14/2/1 12/2/1 11/2/1
f 16/2/1 14/2/1 13/2/1
f 18/2/1 16/2/1 15/2/1
f 19/2/1 18/2/1 17/2/1
f 20/2/1 12/2/1 14/2/1
f 20/2/1 18/2/1 19/2/1
f 20/2/1 14/2/1 16/2/1
f 20/2/1 16/2/1 18/2/1
f 21/2/2 22/2/2 23/2/2
f 23/2/2 22/2/2 24/2/2
f 24/2/2 22/2/2 27/2/2
f 27/2/2 22/2/2 28/2/2
f 25/2/2 26/2/2 29/2/2
f 28/2/2 22/2/2 31/2/2
f 31/2/2 22/2/2 32/2/2
f 29/2/2 30/2/2 33/2/2
f 32/2/2 22/2/2 35/2/2
f 35/2/2 22/2/2 36/2/2
f 33/2/2 34/2/2 37/2/2
f 36/2/2 22/2/2 39/2/2
f 39/2/2 22/2/2 40/2/2
f 37/2/2 38/2/2 41/2/2
f 41/2/2 42/2/2 43/2/2
f 25/2/2 29/2/2 45/2/2
f 43/2/2 44/2/2 45/2/2
f 41/2/2 43/2/2 45/2/2
f 37/2/2 41/2/2 45/2/2
f 29/2/2 33/2/2 45/2/2
f 33/2/2 37/2/2 45/2/2
f 45/2/2 44/2/2 46/2/2
f 40/2/2 22/2/2 47/2/2
f 47/2/2 22/2/2 48/2/2
f 49/1/2 50/1/2 51/1/2
f 49/1/2 51/1/2 54/1/2
f 51/1/2 52/1/2 54/1/2
f 54/1/2 52/1/2 55/1/2
f 53/1/2 54/1/2 57/1/2
f 55/1/2 56/1/2 57/1/2
f 54/1/2 55/1/2 57/1/2
f 57/1/2 56/1/2 58/1/2
f 58/1/2 56/1/2 59/1/2
f 59/1/2 60/1/2 61/1/2
f 58/1/2 59/1/2 61/1/2
f 61/1/2 60/1/2 62/1/2
f 62/1/2 60/1/2 63/1/2
f 63/1/2 64/1/2 65/1/2
f 62/1/2 63/1/2 65/1/2
f 65/1/2 64/1/2 66/1/2
f 66/1/2 64/1/2 67/1/2
f 67/1/2 68/1/2 69/1/2
f 66/1/2 67/1/2 69/1/2
f 69/1/2 68/1/2 70/1/2
f 70/1/2 68/1/2 71/1/2
f 71/1/2 68/1/2 72/1/2
f 72/1/2 68/1/2 73/1/2
f 73/1/2 68/1/2 74/1/2
f 75/1/2 76/1/2 77/1/2
f 77/1/2 76/1/2 78/1/2
f 79/1/2 80/1/2 81/1/2
f 81/1/2 80/1/2 82/1/2
f 83/1/2 84/1/2 85/1/2
f 85/1/2 84/1/2 86/1/2
f 87/2/2 88/2/2 89/2/2
f 89/2/2 88/2/2 90/2/2
f 93/2/3 92/2/3 91/2/3
f 94/2/3 92/2/3 93/2/3
f 97/1/3 96/1/3 95/1/3
f 98/1/3 96/1/3 97/1/3
f 101/1/3 100/1/3 99/1/3
f 102/1/3 100/1/3 101/1/3
f 105/1/3 104/1/3 103/1/3
f 106/1/3 104/1/3 105/1/3
f 109/1/3 108/1/3 107/1/3
f 110/1/3 108/1/3 109/1/3
f 113/1/3 112/1/3 111/1/3
f 114/1/3 112/1/3 113/1/3
f 117/1/3 116/1/3 115/1/3
f 118/1/3 116/1/3 117/1/3
f 119/2/4 120/2/4 122/2/4
f 121/2/4 122/2/4 124/2/4
f 123/2/4 124/2/4 126/2/4
f 125/2/4 126/2/4 127/2/4
f 122/2/4 120/2/4 128/2/4
f 127/2/4 126/2/4 128/2/4
f 124/2/4 122/2/4 128/2/4
f 126/2/4 124/2/4 128/2/4
f 129/1/4 130/1/4 131/1/4
f 131/1/4 130/1/4 132/1/4
f 129/1/4 131/1/4 133/1/4
f 133/1/4 131/1/4 134/1/4
f 129/1/4 133/1/4 135/1/4
f 135/1/4 133/1/4 136/1/4
f 136/1/4 133/1/4 137/1/4
f 137/1/4 133/1/4 138/1/4
f 136/1/4 137/1/4 139/1/4
f 139/1/4 137/1/4 140/1/4
f 141/1/4 142/1/4 143/1/4
f 143/1/4 142/1/4 144/1/4
f 145/1/4 146/1/4 147/1/4
f 147/1/4 146/1/4 148/1/4
f 149/1/4 150/1/4 151/1/4
f 151/1/4 150/1/4 152/1/4
f 153/1/4 154/1/4 155/1/4
f 155/1/4 154/1/4 156/1/4
f 157/1/4 158/1/4 159/1/4
f 159/1/4 158/1/4 160/1/4
f 161/1/4 162/1/4 163/1/4
f 163/1/4 162/1/4 164/1/4
f 165/1/4 166/1/4 167/1/4
f 167/1/4 166/1/4 168/1/4
f 169/1/4 170/1/4 171/1/4
f 171/1/4 170/1/4 172/1/4
f 173/2/4 174/2/4 175/2/4
f 175/2/4 174/2/4 176/2/4
f 173/2/4 175/2/4 177/2/4
f 173/2/4 177/2/4 179/2/4
f 177/2/4 178/2/4 179/2/4
f 179/2/4 178/2/4 180/2/4
f 183/2/5 182/2/5 181/2/5
f 184/2/5 182/2/5 183/2/5
f 185/2/5 183/2/5 181/2/5
f 185/1/5 184/1/5 183/1/5
f 186/1/5 184/1/5 185/1/5
f 187/2/5 186/2/5 185/2/5
f 187/1/5 184/1/5 186/1/5
f 188/2/5 182/2/5 184/2/5
f 188/1/5 184/1/5 187/1/5
f 189/2/5 187/2/5 185/2/5
f 189/2/5 185/2/5 181/2/5
f 189/2/5 188/2/5 187/2/5
f 190/2/5 182/2/5 188/2/5
f 190/2/5 188/2/5 189/2/5
f 193/1/5 192/1/5 191/1/5
f 194/1/5 192/1/5 193/1/5
f 197/1/5 196/1/5 195/1/5
f 198/1/5 196/1/5 197/1/5
f 201/1/5 200/1/5 199/1/5
f 202/1/5 200/1/5 201/1/5
f 205/1/5 204/1/5 203/1/5
f 206/1/5 204/1/5 205/1/5
f 209/1/5 208/1/5 207/1/5
f 210/1/5 208/1/5 209/1/5
f 211/2/6 212/2/6 214/2/6
f 214/2/6 212/2/6 215/2/6
f 213/2/6 214/2/6 215/2/6
f 213/2/6 215/2/6 217/2/6
f 215/2/6 216/2/6 217/2/6
f 217/2/6 216/2/6 218/2/6
f 219/1/6 220/1/6 221/1/6
f 221/1/6 220/1/6 222/1/6
f 223/1/6 224/1/6 225/1/6
f 225/1/6 224/1/6 226/1/6
f 227/1/6 228/1/6 229/1/6
f 229/1/6 228/1/6 230/1/6
f 231/1/6 232/1/6 233/1/6
f 233/1/6 232/1/6 234/1/6
f 235/1/6 236/1/6 237/1/6
f 237/1/6 236/1/6 238/1/6
f 239/1/6 240/1/6 241/1/6
f 241/1/6 240/1/6 242/1/6
f 242/1/6 240/1/6 243/1/6
f 243/1/6 240/1/6 244/1/6
f 245/1/6 246/1/6 247/1/6
f 247/1/6 246/1/6 248/1/6
f 249/1/6 250/1/6 251/1/6
f 251/1/6 250/1/6 252/1/6
f 253/1/6 254/1/6 255/1/6
f 255/1/6 254/1/6 256/1/6
f 257/1/6 258/1/6 259/1/6
f 259/1/6 258/1/6 260/1/6
f 261/1/6 262/1/6 263/1/6
f 263/1/6 262/1/6 264/1/6
f 265/2/6 266/2/6 267/2/6
f 267/2/6 266/2/6 268/2/6
f 265/2/6 267/2/6 269/2/6
f 269/2/6 267/2/6 270/2/6
f 265/2/6 269/2/6 272/2/6
f 270/1/6 271/1/6 272/1/6
f 269/1/6 270/1/6 272/1/6
f 272/1/6 271/1/6 273/1/6
f 273/1/6 271/1/6 274/1/6
f 265/2/6 272/2/6 275/2/6
f 272/2/6 273/2/6 275/2/6
f 275/2/6 273/2/6 276/2/6
f 268/2/6 266/2/6 277/2/6
f 277/2/6 266/2/6 278/2/6
