# MagicaVoxel @ Ephtracy

# group
g 4x4 first-7

# material
mtllib 4x4 first-7.mtl
usemtl palette

# normals
vn -1 0 0
vn 1 0 0
vn 0 0 1
vn 0 0 -1
vn 0 -1 0
vn 0 1 0

# texcoords
vt 0.962891 0.5
vt 0.966797 0.5
vt 0.974609 0.5
vt 0.978516 0.5
vt 0.982422 0.5

# verts
v -63 0 63
v -63 0 -63
v -63 80 63
v -63 80 -63
v -26 47 30
v -26 47 29
v -26 61 30
v -26 61 29
v 18 5 29
v 18 5 25
v 18 45 29
v 18 45 25
v 41 21 61
v 41 21 31
v 41 23 60
v 41 23 54
v 41 23 50
v 41 23 44
v 41 23 40
v 41 23 34
v 41 24 53
v 41 24 52
v 41 24 43
v 41 24 42
v 41 24 33
v 41 24 32
v 41 25 60
v 41 25 54
v 41 25 53
v 41 25 52
v 41 25 50
v 41 25 44
v 41 25 43
v 41 25 42
v 41 25 40
v 41 25 34
v 41 25 33
v 41 25 32
v 41 26 60
v 41 26 54
v 41 26 50
v 41 26 44
v 41 26 40
v 41 26 34
v 41 27 53
v 41 27 52
v 41 27 43
v 41 27 42
v 41 27 33
v 41 27 32
v 41 28 60
v 41 28 54
v 41 28 53
v 41 28 52
v 41 28 50
v 41 28 44
v 41 28 43
v 41 28 42
v 41 28 40
v 41 28 34
v 41 28 33
v 41 28 32
v 41 29 60
v 41 29 54
v 41 29 50
v 41 29 44
v 41 29 40
v 41 29 34
v 41 30 53
v 41 30 52
v 41 30 43
v 41 30 42
v 41 30 33
v 41 30 32
v 41 31 60
v 41 31 54
v 41 31 53
v 41 31 52
v 41 31 50
v 41 31 44
v 41 31 43
v 41 31 42
v 41 31 40
v 41 31 34
v 41 31 33
v 41 31 32
v 41 32 60
v 41 32 54
v 41 32 50
v 41 32 44
v 41 32 40
v 41 32 34
v 41 33 53
v 41 33 52
v 41 33 43
v 41 33 42
v 41 33 33
v 41 33 32
v 41 34 60
v 41 34 54
v 41 34 53
v 41 34 52
v 41 34 50
v 41 34 44
v 41 34 43
v 41 34 42
v 41 34 40
v 41 34 34
v 41 34 33
v 41 34 32
v 41 35 60
v 41 35 54
v 41 35 50
v 41 35 44
v 41 35 40
v 41 35 34
v 41 36 53
v 41 36 52
v 41 36 43
v 41 36 42
v 41 36 33
v 41 36 32
v 41 37 60
v 41 37 54
v 41 37 53
v 41 37 52
v 41 37 50
v 41 37 44
v 41 37 43
v 41 37 42
v 41 37 40
v 41 37 34
v 41 37 33
v 41 37 32
v 41 38 60
v 41 38 54
v 41 38 50
v 41 38 44
v 41 38 40
v 41 38 34
v 41 39 53
v 41 39 52
v 41 39 43
v 41 39 42
v 41 39 33
v 41 39 32
v 41 40 60
v 41 40 54
v 41 40 53
v 41 40 52
v 41 40 50
v 41 40 44
v 41 40 43
v 41 40 42
v 41 40 40
v 41 40 34
v 41 40 33
v 41 40 32
v 41 41 60
v 41 41 54
v 41 41 50
v 41 41 44
v 41 41 40
v 41 41 34
v 41 42 53
v 41 42 52
v 41 42 43
v 41 42 42
v 41 42 33
v 41 42 32
v 41 43 60
v 41 43 54
v 41 43 53
v 41 43 52
v 41 43 50
v 41 43 44
v 41 43 43
v 41 43 42
v 41 43 40
v 41 43 34
v 41 43 33
v 41 43 32
v 41 45 61
v 41 45 31
v 42 5 63
v 42 5 29
v 42 21 61
v 42 21 31
v 42 45 61
v 42 45 31
v 42 80 63
v 42 80 29
v 62 5 25
v 62 5 -63
v 62 80 25
v 62 80 -63
v -62 5 25
v -62 5 -63
v -62 80 25
v -62 80 -63
v -38 5 63
v -38 5 29
v -38 80 63
v -38 80 29
v -12 5 29
v -12 5 25
v -12 45 29
v -12 45 25
v 30 47 30
v 30 47 29
v 30 61 30
v 30 61 29
v 63 0 63
v 63 0 -63
v 63 80 63
v 63 80 -63
v -63 0 63
v -63 80 63
v -38 5 63
v -38 80 63
v 42 5 63
v 42 80 63
v 63 0 63
v 63 80 63
v 41 21 61
v 41 45 61
v 42 21 61
v 42 45 61
v -26 47 30
v -26 61 30
v -25 48 30
v -25 60 30
v 29 48 30
v 29 60 30
v 30 47 30
v 30 61 30
v -38 5 29
v -38 80 29
v -26 47 29
v -26 61 29
v -12 5 29
v -12 45 29
v 18 5 29
v 18 45 29
v 30 47 29
v 30 61 29
v 42 5 29
v 42 80 29
v 41 21 31
v 41 45 31
v 42 21 31
v 42 45 31
v -62 5 25
v -62 80 25
v -12 5 25
v -12 45 25
v 18 5 25
v 18 45 25
v 62 5 25
v 62 80 25
v -63 0 -63
v -63 80 -63
v -62 5 -63
v -62 80 -63
v 62 5 -63
v 62 80 -63
v 63 0 -63
v 63 80 -63
v -63 0 63
v 63 0 63
v -63 0 -63
v 63 0 -63
v 41 21 61
v 42 21 61
v 41 21 31
v 42 21 31
v -12 45 29
v 18 45 29
v -12 45 25
v 18 45 25
v -26 47 30
v 30 47 30
v -26 47 29
v 30 47 29
v -38 5 63
v 42 5 63
v -38 5 29
v -12 5 29
v 18 5 29
v 42 5 29
v -62 5 25
v -12 5 25
v 18 5 25
v 62 5 25
v -62 5 -63
v 62 5 -63
v 41 45 61
v 42 45 61
v 41 45 31
v 42 45 31
v -26 61 30
v 30 61 30
v -26 61 29
v 30 61 29
v -63 80 63
v -38 80 63
v 42 80 63
v 63 80 63
v -38 80 29
v 42 80 29
v -62 80 25
v 62 80 25
v -63 80 -63
v -62 80 -63
v 62 80 -63
v 63 80 -63

# faces
f 3/2/1 2/2/1 1/2/1
f 4/2/1 2/2/1 3/2/1
f 7/4/1 6/4/1 5/4/1
f 8/4/1 6/4/1 7/4/1
f 11/2/1 10/2/1 9/2/1
f 12/2/1 10/2/1 11/2/1
f 15/3/1 14/3/1 13/3/1
f 16/3/1 14/3/1 15/3/1
f 17/3/1 14/3/1 16/3/1
f 18/3/1 14/3/1 17/3/1
f 19/3/1 14/3/1 18/3/1
f 20/3/1 14/3/1 19/3/1
f 21/3/1 17/3/1 16/3/1
f 22/3/1 17/3/1 21/3/1
f 23/3/1 19/3/1 18/3/1
f 24/3/1 19/3/1 23/3/1
f 25/3/1 14/3/1 20/3/1
f 26/3/1 14/3/1 25/3/1
f 27/3/1 15/3/1 13/3/1
f 27/1/1 16/1/1 15/1/1
f 28/3/1 21/3/1 16/3/1
f 28/1/1 16/1/1 27/1/1
f 29/5/1 22/5/1 21/5/1
f 29/3/1 21/3/1 28/3/1
f 30/3/1 17/3/1 22/3/1
f 30/5/1 22/5/1 29/5/1
f 31/1/1 18/1/1 17/1/1
f 31/3/1 17/3/1 30/3/1
f 32/3/1 23/3/1 18/3/1
f 32/1/1 18/1/1 31/1/1
f 33/5/1 24/5/1 23/5/1
f 33/3/1 23/3/1 32/3/1
f 34/3/1 19/3/1 24/3/1
f 34/5/1 24/5/1 33/5/1
f 35/1/1 20/1/1 19/1/1
f 35/3/1 19/3/1 34/3/1
f 36/3/1 25/3/1 20/3/1
f 36/1/1 20/1/1 35/1/1
f 37/5/1 26/5/1 25/5/1
f 37/3/1 25/3/1 36/3/1
f 38/3/1 14/3/1 26/3/1
f 38/5/1 26/5/1 37/5/1
f 39/3/1 37/3/1 36/3/1
f 39/3/1 36/3/1 35/3/1
f 39/3/1 38/3/1 37/3/1
f 39/3/1 35/3/1 34/3/1
f 39/3/1 32/3/1 31/3/1
f 39/3/1 31/3/1 30/3/1
f 39/3/1 28/3/1 27/3/1
f 39/3/1 27/3/1 13/3/1
f 39/3/1 34/3/1 33/3/1
f 39/3/1 29/3/1 28/3/1
f 39/3/1 30/3/1 29/3/1
f 39/3/1 33/3/1 32/3/1
f 40/3/1 38/3/1 39/3/1
f 41/3/1 38/3/1 40/3/1
f 42/3/1 38/3/1 41/3/1
f 43/3/1 38/3/1 42/3/1
f 44/3/1 38/3/1 43/3/1
f 45/3/1 41/3/1 40/3/1
f 46/3/1 41/3/1 45/3/1
f 47/3/1 43/3/1 42/3/1
f 48/3/1 43/3/1 47/3/1
f 49/3/1 38/3/1 44/3/1
f 50/3/1 14/3/1 38/3/1
f 50/3/1 38/3/1 49/3/1
f 51/3/1 39/3/1 13/3/1
f 51/1/1 40/1/1 39/1/1
f 52/3/1 45/3/1 40/3/1
f 52/1/1 40/1/1 51/1/1
f 53/5/1 46/5/1 45/5/1
f 53/3/1 45/3/1 52/3/1
f 54/3/1 41/3/1 46/3/1
f 54/5/1 46/5/1 53/5/1
f 55/1/1 42/1/1 41/1/1
f 55/3/1 41/3/1 54/3/1
f 56/3/1 47/3/1 42/3/1
f 56/1/1 42/1/1 55/1/1
f 57/5/1 48/5/1 47/5/1
f 57/3/1 47/3/1 56/3/1
f 58/3/1 43/3/1 48/3/1
f 58/5/1 48/5/1 57/5/1
f 59/1/1 44/1/1 43/1/1
f 59/3/1 43/3/1 58/3/1
f 60/3/1 49/3/1 44/3/1
f 60/1/1 44/1/1 59/1/1
f 61/5/1 50/5/1 49/5/1
f 61/3/1 49/3/1 60/3/1
f 62/3/1 14/3/1 50/3/1
f 62/5/1 50/5/1 61/5/1
f 63/3/1 59/3/1 58/3/1
f 63/3/1 61/3/1 60/3/1
f 63/3/1 62/3/1 61/3/1
f 63/3/1 56/3/1 55/3/1
f 63/3/1 55/3/1 54/3/1
f 63/3/1 52/3/1 51/3/1
f 63/3/1 51/3/1 13/3/1
f 63/3/1 58/3/1 57/3/1
f 63/3/1 53/3/1 52/3/1
f 63/3/1 54/3/1 53/3/1
f 63/3/1 57/3/1 56/3/1
f 63/3/1 60/3/1 59/3/1
f 64/3/1 62/3/1 63/3/1
f 65/3/1 62/3/1 64/3/1
f 66/3/1 62/3/1 65/3/1
f 67/3/1 62/3/1 66/3/1
f 68/3/1 62/3/1 67/3/1
f 69/3/1 65/3/1 64/3/1
f 70/3/1 65/3/1 69/3/1
f 71/3/1 67/3/1 66/3/1
f 72/3/1 67/3/1 71/3/1
f 73/3/1 62/3/1 68/3/1
f 74/3/1 14/3/1 62/3/1
f 74/3/1 62/3/1 73/3/1
f 75/3/1 63/3/1 13/3/1
f 75/1/1 64/1/1 63/1/1
f 76/3/1 69/3/1 64/3/1
f 76/1/1 64/1/1 75/1/1
f 77/5/1 70/5/1 69/5/1
f 77/3/1 69/3/1 76/3/1
f 78/3/1 65/3/1 70/3/1
f 78/5/1 70/5/1 77/5/1
f 79/1/1 66/1/1 65/1/1
f 79/3/1 65/3/1 78/3/1
f 80/3/1 71/3/1 66/3/1
f 80/1/1 66/1/1 79/1/1
f 81/5/1 72/5/1 71/5/1
f 81/3/1 71/3/1 80/3/1
f 82/3/1 67/3/1 72/3/1
f 82/5/1 72/5/1 81/5/1
f 83/1/1 68/1/1 67/1/1
f 83/3/1 67/3/1 82/3/1
f 84/3/1 73/3/1 68/3/1
f 84/1/1 68/1/1 83/1/1
f 85/5/1 74/5/1 73/5/1
f 85/3/1 73/3/1 84/3/1
f 86/3/1 14/3/1 74/3/1
f 86/5/1 74/5/1 85/5/1
f 87/3/1 83/3/1 82/3/1
f 87/3/1 85/3/1 84/3/1
f 87/3/1 86/3/1 85/3/1
f 87/3/1 80/3/1 79/3/1
f 87/3/1 79/3/1 78/3/1
f 87/3/1 76/3/1 75/3/1
f 87/3/1 75/3/1 13/3/1
f 87/3/1 82/3/1 81/3/1
f 87/3/1 77/3/1 76/3/1
f 87/3/1 78/3/1 77/3/1
f 87/3/1 81/3/1 80/3/1
f 87/3/1 84/3/1 83/3/1
f 88/3/1 86/3/1 87/3/1
f 89/3/1 86/3/1 88/3/1
f 90/3/1 86/3/1 89/3/1
f 91/3/1 86/3/1 90/3/1
f 92/3/1 86/3/1 91/3/1
f 93/3/1 89/3/1 88/3/1
f 94/3/1 89/3/1 93/3/1
f 95/3/1 91/3/1 90/3/1
f 96/3/1 91/3/1 95/3/1
f 97/3/1 86/3/1 92/3/1
f 98/3/1 14/3/1 86/3/1
f 98/3/1 86/3/1 97/3/1
f 99/3/1 87/3/1 13/3/1
f 99/1/1 88/1/1 87/1/1
f 100/3/1 93/3/1 88/3/1
f 100/1/1 88/1/1 99/1/1
f 101/5/1 94/5/1 93/5/1
f 101/3/1 93/3/1 100/3/1
f 102/3/1 89/3/1 94/3/1
f 102/5/1 94/5/1 101/5/1
f 103/1/1 90/1/1 89/1/1
f 103/3/1 89/3/1 102/3/1
f 104/3/1 95/3/1 90/3/1
f 104/1/1 90/1/1 103/1/1
f 105/5/1 96/5/1 95/5/1
f 105/3/1 95/3/1 104/3/1
f 106/3/1 91/3/1 96/3/1
f 106/5/1 96/5/1 105/5/1
f 107/1/1 92/1/1 91/1/1
f 107/3/1 91/3/1 106/3/1
f 108/3/1 97/3/1 92/3/1
f 108/1/1 92/1/1 107/1/1
f 109/5/1 98/5/1 97/5/1
f 109/3/1 97/3/1 108/3/1
f 110/3/1 14/3/1 98/3/1
f 110/5/1 98/5/1 109/5/1
f 111/3/1 107/3/1 106/3/1
f 111/3/1 109/3/1 108/3/1
f 111/3/1 110/3/1 109/3/1
f 111/3/1 104/3/1 103/3/1
f 111/3/1 103/3/1 102/3/1
f 111/3/1 100/3/1 99/3/1
f 111/3/1 99/3/1 13/3/1
f 111/3/1 106/3/1 105/3/1
f 111/3/1 101/3/1 100/3/1
f 111/3/1 102/3/1 101/3/1
f 111/3/1 105/3/1 104/3/1
f 111/3/1 108/3/1 107/3/1
f 112/3/1 110/3/1 111/3/1
f 113/3/1 110/3/1 112/3/1
f 114/3/1 110/3/1 113/3/1
f 115/3/1 110/3/1 114/3/1
f 116/3/1 110/3/1 115/3/1
f 117/3/1 113/3/1 112/3/1
f 118/3/1 113/3/1 117/3/1
f 119/3/1 115/3/1 114/3/1
f 120/3/1 115/3/1 119/3/1
f 121/3/1 110/3/1 116/3/1
f 122/3/1 14/3/1 110/3/1
f 122/3/1 110/3/1 121/3/1
f 123/3/1 111/3/1 13/3/1
f 123/1/1 112/1/1 111/1/1
f 124/3/1 117/3/1 112/3/1
f 124/1/1 112/1/1 123/1/1
f 125/5/1 118/5/1 117/5/1
f 125/3/1 117/3/1 124/3/1
f 126/3/1 113/3/1 118/3/1
f 126/5/1 118/5/1 125/5/1
f 127/1/1 114/1/1 113/1/1
f 127/3/1 113/3/1 126/3/1
f 128/3/1 119/3/1 114/3/1
f 128/1/1 114/1/1 127/1/1
f 129/5/1 120/5/1 119/5/1
f 129/3/1 119/3/1 128/3/1
f 130/3/1 115/3/1 120/3/1
f 130/5/1 120/5/1 129/5/1
f 131/1/1 116/1/1 115/1/1
f 131/3/1 115/3/1 130/3/1
f 132/3/1 121/3/1 116/3/1
f 132/1/1 116/1/1 131/1/1
f 133/5/1 122/5/1 121/5/1
f 133/3/1 121/3/1 132/3/1
f 134/3/1 14/3/1 122/3/1
f 134/5/1 122/5/1 133/5/1
f 135/3/1 131/3/1 130/3/1
f 135/3/1 133/3/1 132/3/1
f 135/3/1 134/3/1 133/3/1
f 135/3/1 128/3/1 127/3/1
f 135/3/1 127/3/1 126/3/1
f 135/3/1 124/3/1 123/3/1
f 135/3/1 123/3/1 13/3/1
f 135/3/1 130/3/1 129/3/1
f 135/3/1 125/3/1 124/3/1
f 135/3/1 126/3/1 125/3/1
f 135/3/1 129/3/1 128/3/1
f 135/3/1 132/3/1 131/3/1
f 136/3/1 134/3/1 135/3/1
f 137/3/1 134/3/1 136/3/1
f 138/3/1 134/3/1 137/3/1
f 139/3/1 134/3/1 138/3/1
f 140/3/1 134/3/1 139/3/1
f 141/3/1 137/3/1 136/3/1
f 142/3/1 137/3/1 141/3/1
f 143/3/1 139/3/1 138/3/1
f 144/3/1 139/3/1 143/3/1
f 145/3/1 134/3/1 140/3/1
f 146/3/1 14/3/1 134/3/1
f 146/3/1 134/3/1 145/3/1
f 147/3/1 135/3/1 13/3/1
f 147/1/1 136/1/1 135/1/1
f 148/3/1 141/3/1 136/3/1
f 148/1/1 136/1/1 147/1/1
f 149/5/1 142/5/1 141/5/1
f 149/3/1 141/3/1 148/3/1
f 150/3/1 137/3/1 142/3/1
f 150/5/1 142/5/1 149/5/1
f 151/1/1 138/1/1 137/1/1
f 151/3/1 137/3/1 150/3/1
f 152/3/1 143/3/1 138/3/1
f 152/1/1 138/1/1 151/1/1
f 153/5/1 144/5/1 143/5/1
f 153/3/1 143/3/1 152/3/1
f 154/3/1 139/3/1 144/3/1
f 154/5/1 144/5/1 153/5/1
f 155/1/1 140/1/1 139/1/1
f 155/3/1 139/3/1 154/3/1
f 156/3/1 145/3/1 140/3/1
f 156/1/1 140/1/1 155/1/1
f 157/5/1 146/5/1 145/5/1
f 157/3/1 145/3/1 156/3/1
f 158/3/1 14/3/1 146/3/1
f 158/5/1 146/5/1 157/5/1
f 159/3/1 155/3/1 154/3/1
f 159/3/1 157/3/1 156/3/1
f 159/3/1 158/3/1 157/3/1
f 159/3/1 152/3/1 151/3/1
f 159/3/1 151/3/1 150/3/1
f 159/3/1 148/3/1 147/3/1
f 159/3/1 147/3/1 13/3/1
f 159/3/1 154/3/1 153/3/1
f 159/3/1 149/3/1 148/3/1
f 159/3/1 150/3/1 149/3/1
f 159/3/1 153/3/1 152/3/1
f 159/3/1 156/3/1 155/3/1
f 160/3/1 158/3/1 159/3/1
f 161/3/1 158/3/1 160/3/1
f 162/3/1 158/3/1 161/3/1
f 163/3/1 158/3/1 162/3/1
f 164/3/1 158/3/1 163/3/1
f 165/3/1 161/3/1 160/3/1
f 166/3/1 161/3/1 165/3/1
f 167/3/1 163/3/1 162/3/1
f 168/3/1 163/3/1 167/3/1
f 169/3/1 158/3/1 164/3/1
f 170/3/1 14/3/1 158/3/1
f 170/3/1 158/3/1 169/3/1
f 171/3/1 159/3/1 13/3/1
f 171/1/1 160/1/1 159/1/1
f 172/3/1 165/3/1 160/3/1
f 172/1/1 160/1/1 171/1/1
f 173/5/1 166/5/1 165/5/1
f 173/3/1 165/3/1 172/3/1
f 174/3/1 161/3/1 166/3/1
f 174/5/1 166/5/1 173/5/1
f 175/1/1 162/1/1 161/1/1
f 175/3/1 161/3/1 174/3/1
f 176/3/1 167/3/1 162/3/1
f 176/1/1 162/1/1 175/1/1
f 177/5/1 168/5/1 167/5/1
f 177/3/1 167/3/1 176/3/1
f 178/3/1 163/3/1 168/3/1
f 178/5/1 168/5/1 177/5/1
f 179/1/1 164/1/1 163/1/1
f 179/3/1 163/3/1 178/3/1
f 180/3/1 169/3/1 164/3/1
f 180/1/1 164/1/1 179/1/1
f 181/5/1 170/5/1 169/5/1
f 181/3/1 169/3/1 180/3/1
f 182/3/1 14/3/1 170/3/1
f 182/5/1 170/5/1 181/5/1
f 183/3/1 179/3/1 178/3/1
f 183/3/1 181/3/1 180/3/1
f 183/3/1 182/3/1 181/3/1
f 183/3/1 176/3/1 175/3/1
f 183/3/1 175/3/1 174/3/1
f 183/3/1 172/3/1 171/3/1
f 183/3/1 171/3/1 13/3/1
f 183/3/1 178/3/1 177/3/1
f 183/3/1 173/3/1 172/3/1
f 183/3/1 174/3/1 173/3/1
f 183/3/1 177/3/1 176/3/1
f 183/3/1 180/3/1 179/3/1
f 184/3/1 14/3/1 182/3/1
f 184/3/1 182/3/1 183/3/1
f 187/2/1 186/2/1 185/2/1
f 188/2/1 186/2/1 187/2/1
f 189/2/1 187/2/1 185/2/1
f 190/2/1 186/2/1 188/2/1
f 191/2/1 189/2/1 185/2/1
f 191/2/1 190/2/1 189/2/1
f 192/2/1 186/2/1 190/2/1
f 192/2/1 190/2/1 191/2/1
f 195/2/1 194/2/1 193/2/1
f 196/2/1 194/2/1 195/2/1
f 197/2/2 198/2/2 199/2/2
f 199/2/2 198/2/2 200/2/2
f 201/2/2 202/2/2 203/2/2
f 203/2/2 202/2/2 204/2/2
f 205/2/2 206/2/2 207/2/2
f 207/2/2 206/2/2 208/2/2
f 209/4/2 210/4/2 211/4/2
f 211/4/2 210/4/2 212/4/2
f 213/2/2 214/2/2 215/2/2
f 215/2/2 214/2/2 216/2/2
f 219/2/3 218/2/3 217/2/3
f 220/2/3 218/2/3 219/2/3
f 221/2/3 219/2/3 217/2/3
f 223/2/3 221/2/3 217/2/3
f 223/2/3 222/2/3 221/2/3
f 224/2/3 222/2/3 223/2/3
f 227/3/3 226/3/3 225/3/3
f 228/3/3 226/3/3 227/3/3
f 231/4/3 230/4/3 229/4/3
f 232/4/3 230/4/3 231/4/3
f 233/4/3 231/4/3 229/4/3
f 233/3/3 232/3/3 231/3/3
f 234/4/3 230/4/3 232/4/3
f 234/3/3 232/3/3 233/3/3
f 235/4/3 233/4/3 229/4/3
f 235/4/3 234/4/3 233/4/3
f 236/4/3 230/4/3 234/4/3
f 236/4/3 234/4/3 235/4/3
f 239/2/3 238/2/3 237/2/3
f 240/2/3 238/2/3 239/2/3
f 241/2/3 239/2/3 237/2/3
f 242/2/3 239/2/3 241/2/3
f 244/2/3 239/2/3 242/2/3
f 245/2/3 239/2/3 244/2/3
f 245/2/3 244/2/3 243/2/3
f 246/2/3 238/2/3 240/2/3
f 247/2/3 245/2/3 243/2/3
f 247/2/3 246/2/3 245/2/3
f 248/2/3 238/2/3 246/2/3
f 248/2/3 246/2/3 247/2/3
f 249/3/4 250/3/4 251/3/4
f 251/3/4 250/3/4 252/3/4
f 253/2/4 254/2/4 255/2/4
f 255/2/4 254/2/4 256/2/4
f 256/2/4 254/2/4 258/2/4
f 257/2/4 258/2/4 259/2/4
f 258/2/4 254/2/4 260/2/4
f 259/2/4 258/2/4 260/2/4
f 261/2/4 262/2/4 263/2/4
f 263/2/4 262/2/4 264/2/4
f 261/2/4 263/2/4 265/2/4
f 261/2/4 265/2/4 267/2/4
f 265/2/4 266/2/4 267/2/4
f 267/2/4 266/2/4 268/2/4
f 271/2/5 270/2/5 269/2/5
f 272/2/5 270/2/5 271/2/5
f 275/3/5 274/3/5 273/3/5
f 276/3/5 274/3/5 275/3/5
f 279/2/5 278/2/5 277/2/5
f 280/2/5 278/2/5 279/2/5
f 283/4/5 282/4/5 281/4/5
f 284/4/5 282/4/5 283/4/5
f 285/2/6 286/2/6 287/2/6
f 287/2/6 286/2/6 288/2/6
f 288/2/6 286/2/6 289/2/6
f 289/2/6 286/2/6 290/2/6
f 288/2/6 289/2/6 292/2/6
f 292/2/6 289/2/6 293/2/6
f 292/2/6 293/2/6 295/2/6
f 293/2/6 294/2/6 295/2/6
f 291/2/6 292/2/6 295/2/6
f 295/2/6 294/2/6 296/2/6
f 297/3/6 298/3/6 299/3/6
f 299/3/6 298/3/6 300/3/6
f 301/4/6 302/4/6 303/4/6
f 303/4/6 302/4/6 304/4/6
f 305/2/6 306/2/6 309/2/6
f 307/2/6 308/2/6 310/2/6
f 305/2/6 309/2/6 311/2/6
f 309/2/6 310/2/6 311/2/6
f 310/2/6 308/2/6 312/2/6
f 311/2/6 310/2/6 312/2/6
f 305/2/6 311/2/6 313/2/6
f 313/2/6 311/2/6 314/2/6
f 312/2/6 308/2/6 315/2/6
f 315/2/6 308/2/6 316/2/6
