# MagicaVoxel @ Ephtracy

# group
g 4x4 second-0

# material
mtllib 4x4 second-0.mtl
usemtl palette

# normals
vn -1 0 0
vn 1 0 0
vn 0 0 1
vn 0 0 -1
vn 0 -1 0
vn 0 1 0

# texcoords
vt 0.966797 0.5

# verts
v -63 0 63
v -63 0 -63
v -63 80 63
v -63 80 -63
v -61 3 63
v -61 3 36
v -61 3 35
v -61 3 -61
v -61 80 63
v -61 80 36
v -61 80 35
v -61 80 -61
v 63 0 63
v 63 0 -63
v 63 3 63
v 63 3 36
v 63 3 35
v 63 3 -61
v 63 80 36
v 63 80 35
v 63 80 -61
v 63 80 -63
v -63 0 63
v -63 80 63
v -61 3 63
v -61 80 63
v 63 0 63
v 63 3 63
v -61 3 36
v -61 80 36
v 63 3 36
v 63 80 36
v -61 3 -61
v -61 80 -61
v 63 3 -61
v 63 80 -61
v -61 3 35
v -61 80 35
v 63 3 35
v 63 80 35
v -63 0 -63
v -63 80 -63
v 63 0 -63
v 63 80 -63
v -63 0 63
v 63 0 63
v -63 0 -63
v 63 0 -63
v -61 3 63
v 63 3 63
v -61 3 36
v 63 3 36
v -61 3 35
v 63 3 35
v -61 3 -61
v 63 3 -61
v -63 80 63
v -61 80 63
v -61 80 36
v 63 80 36
v -61 80 35
v 63 80 35
v -61 80 -61
v 63 80 -61
v -63 80 -63
v 63 80 -63

# faces
f 3/1/1 2/1/1 1/1/1
f 4/1/1 2/1/1 3/1/1
f 5/1/2 6/1/2 9/1/2
f 9/1/2 6/1/2 10/1/2
f 7/1/2 8/1/2 11/1/2
f 11/1/2 8/1/2 12/1/2
f 13/1/2 14/1/2 15/1/2
f 15/1/2 14/1/2 16/1/2
f 16/1/2 14/1/2 17/1/2
f 17/1/2 14/1/2 18/1/2
f 16/1/2 17/1/2 19/1/2
f 19/1/2 17/1/2 20/1/2
f 18/1/2 14/1/2 21/1/2
f 21/1/2 14/1/2 22/1/2
f 25/1/3 24/1/3 23/1/3
f 26/1/3 24/1/3 25/1/3
f 27/1/3 25/1/3 23/1/3
f 28/1/3 25/1/3 27/1/3
f 31/1/3 30/1/3 29/1/3
f 32/1/3 30/1/3 31/1/3
f 35/1/3 34/1/3 33/1/3
f 36/1/3 34/1/3 35/1/3
f 37/1/4 38/1/4 39/1/4
f 39/1/4 38/1/4 40/1/4
f 41/1/4 42/1/4 43/1/4
f 43/1/4 42/1/4 44/1/4
f 47/1/5 46/1/5 45/1/5
f 48/1/5 46/1/5 47/1/5
f 49/1/6 50/1/6 51/1/6
f 51/1/6 50/1/6 52/1/6
f 53/1/6 54/1/6 55/1/6
f 55/1/6 54/1/6 56/1/6
f 57/1/6 58/1/6 59/1/6
f 57/1/6 59/1/6 61/1/6
f 59/1/6 60/1/6 61/1/6
f 61/1/6 60/1/6 62/1/6
f 57/1/6 61/1/6 63/1/6
f 57/1/6 63/1/6 65/1/6
f 63/1/6 64/1/6 65/1/6
f 65/1/6 64/1/6 66/1/6
