# MagicaVoxel @ Ephtracy

# group
g 4x4 second-5

# material
mtllib 4x4 second-5.mtl
usemtl palette

# normals
vn -1 0 0
vn 1 0 0
vn 0 0 1
vn 0 0 -1
vn 0 -1 0
vn 0 1 0

# texcoords
vt 0.962891 0.5
vt 0.966797 0.5
vt 0.974609 0.5
vt 0.982422 0.5

# verts
v -63 0 63
v -63 0 -63
v -63 3 62
v -63 3 -63
v -63 80 63
v -63 80 62
v 3 3 62
v 3 3 -21
v 3 3 -51
v 3 3 -63
v 3 43 -21
v 3 43 -51
v 3 80 62
v 3 80 -63
v 44 3 -9
v 44 3 -10
v 44 43 -9
v 44 43 -10
v 47 27 -8
v 47 27 -9
v 47 35 -8
v 47 35 -9
v 61 27 57
v 61 27 46
v 61 32 55
v 61 32 49
v 61 33 48
v 61 33 47
v 61 34 55
v 61 34 49
v 61 34 48
v 61 34 47
v 61 35 57
v 61 35 46
v 62 3 -10
v 62 3 -63
v 62 80 -10
v 62 80 -63
v 4 3 63
v 4 3 -9
v 4 3 -10
v 4 3 -21
v 4 3 -51
v 4 3 -63
v 4 43 -21
v 4 43 -51
v 4 80 63
v 4 80 -9
v 4 80 -10
v 4 80 -63
v 14 3 -9
v 14 3 -10
v 14 43 -9
v 14 43 -10
v 58 27 -8
v 58 27 -9
v 58 35 -8
v 58 35 -9
v 62 27 57
v 62 27 46
v 62 32 55
v 62 32 49
v 62 33 48
v 62 33 47
v 62 34 55
v 62 34 49
v 62 34 48
v 62 34 47
v 62 35 57
v 62 35 46
v 63 0 63
v 63 0 -63
v 63 3 63
v 63 3 -9
v 63 80 -9
v 63 80 -63
v -63 0 63
v -63 80 63
v 4 3 63
v 4 80 63
v 63 0 63
v 63 3 63
v 61 27 57
v 61 35 57
v 62 27 57
v 62 35 57
v 47 27 -8
v 47 35 -8
v 48 33 -8
v 48 34 -8
v 49 33 -8
v 49 34 -8
v 50 32 -8
v 50 34 -8
v 56 32 -8
v 56 34 -8
v 58 27 -8
v 58 35 -8
v 4 3 -9
v 4 80 -9
v 14 3 -9
v 14 43 -9
v 44 3 -9
v 44 43 -9
v 47 27 -9
v 47 35 -9
v 58 27 -9
v 58 35 -9
v 63 3 -9
v 63 80 -9
v 3 3 -51
v 3 43 -51
v 4 3 -51
v 4 43 -51
v -63 3 62
v -63 80 62
v 3 3 62
v 3 80 62
v 61 27 46
v 61 35 46
v 62 27 46
v 62 35 46
v 4 3 -10
v 4 80 -10
v 14 3 -10
v 14 43 -10
v 44 3 -10
v 44 43 -10
v 62 3 -10
v 62 80 -10
v 3 3 -21
v 3 43 -21
v 4 3 -21
v 4 43 -21
v -63 0 -63
v -63 3 -63
v 3 3 -63
v 3 80 -63
v 4 3 -63
v 4 80 -63
v 62 3 -63
v 62 80 -63
v 63 0 -63
v 63 80 -63
v -63 0 63
v 63 0 63
v -63 0 -63
v 63 0 -63
v 61 27 57
v 62 27 57
v 61 27 46
v 62 27 46
v 47 27 -8
v 58 27 -8
v 47 27 -9
v 58 27 -9
v 14 43 -9
v 44 43 -9
v 14 43 -10
v 44 43 -10
v 3 43 -21
v 4 43 -21
v 3 43 -51
v 4 43 -51
v 4 3 63
v 63 3 63
v -63 3 62
v 3 3 62
v 4 3 -9
v 14 3 -9
v 44 3 -9
v 63 3 -9
v 4 3 -10
v 14 3 -10
v 44 3 -10
v 62 3 -10
v 3 3 -21
v 4 3 -21
v 3 3 -51
v 4 3 -51
v -63 3 -63
v 3 3 -63
v 4 3 -63
v 62 3 -63
v 61 35 57
v 62 35 57
v 61 35 46
v 62 35 46
v 47 35 -8
v 58 35 -8
v 47 35 -9
v 58 35 -9
v -63 80 63
v 4 80 63
v -63 80 62
v 3 80 62
v 4 80 -9
v 63 80 -9
v 4 80 -10
v 62 80 -10
v 3 80 -63
v 4 80 -63
v 62 80 -63
v 63 80 -63

# faces
f 3/2/1 2/2/1 1/2/1
f 4/2/1 2/2/1 3/2/1
f 5/2/1 3/2/1 1/2/1
f 6/2/1 3/2/1 5/2/1
f 11/2/1 8/2/1 7/2/1
f 12/2/1 10/2/1 9/2/1
f 13/2/1 11/2/1 7/2/1
f 13/2/1 12/2/1 11/2/1
f 14/2/1 10/2/1 12/2/1
f 14/2/1 12/2/1 13/2/1
f 17/2/1 16/2/1 15/2/1
f 18/2/1 16/2/1 17/2/1
f 21/3/1 20/3/1 19/3/1
f 22/3/1 20/3/1 21/3/1
f 25/3/1 24/3/1 23/3/1
f 26/3/1 24/3/1 25/3/1
f 27/3/1 24/3/1 26/3/1
f 28/3/1 24/3/1 27/3/1
f 29/3/1 25/3/1 23/3/1
f 29/1/1 26/1/1 25/1/1
f 30/3/1 27/3/1 26/3/1
f 30/1/1 26/1/1 29/1/1
f 31/4/1 28/4/1 27/4/1
f 31/3/1 27/3/1 30/3/1
f 32/3/1 24/3/1 28/3/1
f 32/4/1 28/4/1 31/4/1
f 33/3/1 31/3/1 30/3/1
f 33/3/1 30/3/1 29/3/1
f 33/3/1 32/3/1 31/3/1
f 33/3/1 29/3/1 23/3/1
f 34/3/1 24/3/1 32/3/1
f 34/3/1 32/3/1 33/3/1
f 37/2/1 36/2/1 35/2/1
f 38/2/1 36/2/1 37/2/1
f 41/2/2 42/2/2 45/2/2
f 43/2/2 44/2/2 46/2/2
f 39/2/2 40/2/2 47/2/2
f 47/2/2 40/2/2 48/2/2
f 45/2/2 46/2/2 49/2/2
f 41/2/2 45/2/2 49/2/2
f 46/2/2 44/2/2 50/2/2
f 49/2/2 46/2/2 50/2/2
f 51/2/2 52/2/2 53/2/2
f 53/2/2 52/2/2 54/2/2
f 55/3/2 56/3/2 57/3/2
f 57/3/2 56/3/2 58/3/2
f 59/3/2 60/3/2 61/3/2
f 61/3/2 60/3/2 62/3/2
f 62/3/2 60/3/2 63/3/2
f 63/3/2 60/3/2 64/3/2
f 59/3/2 61/3/2 65/3/2
f 61/1/2 62/1/2 65/1/2
f 62/3/2 63/3/2 66/3/2
f 65/1/2 62/1/2 66/1/2
f 63/4/2 64/4/2 67/4/2
f 66/3/2 63/3/2 67/3/2
f 64/3/2 60/3/2 68/3/2
f 67/4/2 64/4/2 68/4/2
f 66/3/2 67/3/2 69/3/2
f 65/3/2 66/3/2 69/3/2
f 67/3/2 68/3/2 69/3/2
f 59/3/2 65/3/2 69/3/2
f 68/3/2 60/3/2 70/3/2
f 69/3/2 68/3/2 70/3/2
f 71/2/2 72/2/2 73/2/2
f 73/2/2 72/2/2 74/2/2
f 74/2/2 72/2/2 75/2/2
f 75/2/2 72/2/2 76/2/2
f 79/2/3 78/2/3 77/2/3
f 80/2/3 78/2/3 79/2/3
f 81/2/3 79/2/3 77/2/3
f 82/2/3 79/2/3 81/2/3
f 85/3/3 84/3/3 83/3/3
f 86/3/3 84/3/3 85/3/3
f 89/3/3 88/3/3 87/3/3
f 90/3/3 88/3/3 89/3/3
f 91/3/3 89/3/3 87/3/3
f 91/4/3 90/4/3 89/4/3
f 92/3/3 88/3/3 90/3/3
f 92/4/3 90/4/3 91/4/3
f 93/3/3 91/3/3 87/3/3
f 93/3/3 92/3/3 91/3/3
f 94/3/3 88/3/3 92/3/3
f 94/3/3 92/3/3 93/3/3
f 95/3/3 93/3/3 87/3/3
f 95/1/3 94/1/3 93/1/3
f 96/3/3 88/3/3 94/3/3
f 96/1/3 94/1/3 95/1/3
f 97/3/3 95/3/3 87/3/3
f 97/3/3 96/3/3 95/3/3
f 98/3/3 88/3/3 96/3/3
f 98/3/3 96/3/3 97/3/3
f 101/2/3 100/2/3 99/2/3
f 102/2/3 100/2/3 101/2/3
f 104/2/3 100/2/3 102/2/3
f 105/2/3 104/2/3 103/2/3
f 106/2/3 104/2/3 105/2/3
f 107/2/3 105/2/3 103/2/3
f 108/2/3 104/2/3 106/2/3
f 109/2/3 107/2/3 103/2/3
f 109/2/3 108/2/3 107/2/3
f 110/2/3 100/2/3 104/2/3
f 110/2/3 108/2/3 109/2/3
f 110/2/3 104/2/3 108/2/3
f 113/2/3 112/2/3 111/2/3
f 114/2/3 112/2/3 113/2/3
f 115/2/4 116/2/4 117/2/4
f 117/2/4 116/2/4 118/2/4
f 119/3/4 120/3/4 121/3/4
f 121/3/4 120/3/4 122/3/4
f 123/2/4 124/2/4 125/2/4
f 125/2/4 124/2/4 126/2/4
f 126/2/4 124/2/4 128/2/4
f 127/2/4 128/2/4 129/2/4
f 128/2/4 124/2/4 130/2/4
f 129/2/4 128/2/4 130/2/4
f 131/2/4 132/2/4 133/2/4
f 133/2/4 132/2/4 134/2/4
f 135/2/4 136/2/4 137/2/4
f 135/2/4 137/2/4 139/2/4
f 137/2/4 138/2/4 139/2/4
f 139/2/4 138/2/4 140/2/4
f 135/2/4 139/2/4 141/2/4
f 135/2/4 141/2/4 143/2/4
f 141/2/4 142/2/4 143/2/4
f 143/2/4 142/2/4 144/2/4
f 147/2/5 146/2/5 145/2/5
f 148/2/5 146/2/5 147/2/5
f 151/3/5 150/3/5 149/3/5
f 152/3/5 150/3/5 151/3/5
f 155/3/5 154/3/5 153/3/5
f 156/3/5 154/3/5 155/3/5
f 159/2/5 158/2/5 157/2/5
f 160/2/5 158/2/5 159/2/5
f 163/2/5 162/2/5 161/2/5
f 164/2/5 162/2/5 163/2/5
f 165/2/6 166/2/6 169/2/6
f 169/2/6 166/2/6 170/2/6
f 170/2/6 166/2/6 171/2/6
f 171/2/6 166/2/6 172/2/6
f 170/2/6 171/2/6 174/2/6
f 174/2/6 171/2/6 175/2/6
f 167/2/6 168/2/6 177/2/6
f 175/2/6 176/2/6 178/2/6
f 173/2/6 174/2/6 178/2/6
f 174/2/6 175/2/6 178/2/6
f 167/2/6 177/2/6 179/2/6
f 177/2/6 178/2/6 179/2/6
f 178/2/6 176/2/6 180/2/6
f 179/2/6 178/2/6 180/2/6
f 167/2/6 179/2/6 181/2/6
f 181/2/6 179/2/6 182/2/6
f 180/2/6 176/2/6 183/2/6
f 183/2/6 176/2/6 184/2/6
f 185/3/6 186/3/6 187/3/6
f 187/3/6 186/3/6 188/3/6
f 189/3/6 190/3/6 191/3/6
f 191/3/6 190/3/6 192/3/6
f 193/2/6 194/2/6 195/2/6
f 195/2/6 194/2/6 196/2/6
f 196/2/6 194/2/6 197/2/6
f 196/2/6 197/2/6 199/2/6
f 197/2/6 198/2/6 199/2/6
f 199/2/6 198/2/6 200/2/6
f 196/2/6 199/2/6 201/2/6
f 201/2/6 199/2/6 202/2/6
f 200/2/6 198/2/6 203/2/6
f 203/2/6 198/2/6 204/2/6
