# MagicaVoxel @ Ephtracy

# group
g 4x2 fourth-4

# material
mtllib 4x2 fourth-4.mtl
usemtl palette

# normals
vn -1 0 0
vn 1 0 0
vn 0 0 1
vn 0 0 -1
vn 0 -1 0
vn 0 1 0

# texcoords
vt 0.966797 0.5
vt 0.986328 0.5

# verts
v -63 0 63
v -63 0 -63
v -63 80 63
v -63 80 -63
v 48 3 33
v 48 3 32
v 48 43 33
v 48 43 32
v -61 3 32
v -61 3 -63
v -61 80 32
v -61 80 -63
v -22 3 60
v -22 3 33
v -22 80 60
v -22 80 33
v -21 24 63
v -21 24 62
v -21 24 60
v -21 80 63
v -21 80 62
v -21 80 60
v 18 3 33
v 18 3 32
v 18 43 33
v 18 43 32
v 63 0 63
v 63 0 -63
v 63 3 60
v 63 3 33
v 63 3 32
v 63 3 -63
v 63 24 63
v 63 24 60
v 63 80 33
v 63 80 32
v -63 0 63
v -63 80 63
v -21 0 63
v -21 24 63
v -21 80 63
v 63 0 63
v 63 24 63
v -22 3 33
v -22 80 33
v 18 3 33
v 18 43 33
v 48 3 33
v 48 43 33
v 63 3 33
v 63 80 33
v -22 3 60
v -22 80 60
v -21 24 60
v -21 80 60
v 63 3 60
v 63 24 60
v -61 3 32
v -61 80 32
v 18 3 32
v 18 43 32
v 48 3 32
v 48 43 32
v 63 3 32
v 63 80 32
v -63 0 -63
v -63 80 -63
v -62 0 -63
v -62 80 -63
v -61 3 -63
v -61 80 -63
v 63 0 -63
v 63 3 -63
v -63 0 63
v -21 0 63
v 63 0 63
v -62 0 62
v -21 0 62
v -63 0 -63
v -62 0 -63
v 63 0 -63
v 18 43 33
v 48 43 33
v 18 43 32
v 48 43 32
v -22 3 60
v 63 3 60
v -22 3 33
v 18 3 33
v 48 3 33
v 63 3 33
v -61 3 32
v 18 3 32
v 48 3 32
v 63 3 32
v -61 3 -63
v 63 3 -63
v -21 24 63
v 63 24 63
v -21 24 62
v -21 24 60
v 63 24 60
v -63 80 63
v -21 80 63
v -62 80 62
v -21 80 62
v -22 80 60
v -21 80 60
v -22 80 33
v 63 80 33
v -61 80 32
v 63 80 32
v -63 80 -63
v -62 80 -63
v -61 80 -63

# faces
f 3/2/1 2/2/1 1/2/1
f 4/2/1 2/2/1 3/2/1
f 7/1/1 6/1/1 5/1/1
f 8/1/1 6/1/1 7/1/1
f 9/1/2 10/1/2 11/1/2
f 11/1/2 10/1/2 12/1/2
f 13/1/2 14/1/2 15/1/2
f 15/1/2 14/1/2 16/1/2
f 17/2/2 18/2/2 20/2/2
f 18/1/2 19/1/2 21/1/2
f 20/2/2 18/2/2 21/2/2
f 21/1/2 19/1/2 22/1/2
f 23/1/2 24/1/2 25/1/2
f 25/1/2 24/1/2 26/1/2
f 27/1/2 28/1/2 29/1/2
f 29/1/2 28/1/2 30/1/2
f 30/1/2 28/1/2 31/1/2
f 31/1/2 28/1/2 32/1/2
f 27/1/2 29/1/2 33/1/2
f 33/1/2 29/1/2 34/1/2
f 30/1/2 31/1/2 35/1/2
f 35/1/2 31/1/2 36/1/2
f 39/2/3 38/2/3 37/2/3
f 40/2/3 38/2/3 39/2/3
f 41/2/3 38/2/3 40/2/3
f 42/1/3 40/1/3 39/1/3
f 43/1/3 40/1/3 42/1/3
f 46/1/3 45/1/3 44/1/3
f 47/1/3 45/1/3 46/1/3
f 49/1/3 45/1/3 47/1/3
f 50/1/3 49/1/3 48/1/3
f 51/1/3 45/1/3 49/1/3
f 51/1/3 49/1/3 50/1/3
f 52/1/4 53/1/4 54/1/4
f 54/1/4 53/1/4 55/1/4
f 52/1/4 54/1/4 56/1/4
f 56/1/4 54/1/4 57/1/4
f 58/1/4 59/1/4 60/1/4
f 60/1/4 59/1/4 61/1/4
f 61/1/4 59/1/4 63/1/4
f 62/1/4 63/1/4 64/1/4
f 63/1/4 59/1/4 65/1/4
f 64/1/4 63/1/4 65/1/4
f 66/2/4 67/2/4 68/2/4
f 68/2/4 67/2/4 69/2/4
f 68/1/4 69/1/4 70/1/4
f 70/1/4 69/1/4 71/1/4
f 68/1/4 70/1/4 72/1/4
f 72/1/4 70/1/4 73/1/4
f 77/2/5 75/2/5 74/2/5
f 78/1/5 76/1/5 75/1/5
f 78/2/5 75/2/5 77/2/5
f 79/2/5 77/2/5 74/2/5
f 80/1/5 78/1/5 77/1/5
f 80/2/5 77/2/5 79/2/5
f 81/1/5 76/1/5 78/1/5
f 81/1/5 78/1/5 80/1/5
f 84/1/5 83/1/5 82/1/5
f 85/1/5 83/1/5 84/1/5
f 86/1/6 87/1/6 88/1/6
f 88/1/6 87/1/6 89/1/6
f 89/1/6 87/1/6 90/1/6
f 90/1/6 87/1/6 91/1/6
f 89/1/6 90/1/6 93/1/6
f 93/1/6 90/1/6 94/1/6
f 92/1/6 93/1/6 96/1/6
f 94/1/6 95/1/6 96/1/6
f 93/1/6 94/1/6 96/1/6
f 96/1/6 95/1/6 97/1/6
f 98/1/6 99/1/6 100/1/6
f 100/1/6 99/1/6 101/1/6
f 101/1/6 99/1/6 102/1/6
f 103/2/6 104/2/6 105/2/6
f 105/2/6 104/2/6 106/2/6
f 105/1/6 106/1/6 107/1/6
f 107/1/6 106/1/6 108/1/6
f 105/1/6 107/1/6 109/1/6
f 105/1/6 109/1/6 111/1/6
f 109/1/6 110/1/6 111/1/6
f 111/1/6 110/1/6 112/1/6
f 103/2/6 105/2/6 113/2/6
f 105/1/6 111/1/6 114/1/6
f 113/2/6 105/2/6 114/2/6
f 114/1/6 111/1/6 115/1/6
