# MagicaVoxel @ Ephtracy

# group
g 4x2 second-0

# material
mtllib 4x2 second-0.mtl
usemtl palette

# normals
vn -1 0 0
vn 1 0 0
vn 0 0 1
vn 0 0 -1
vn 0 -1 0
vn 0 1 0

# texcoords
vt 0.533203 0.5
vt 0.537109 0.5
vt 0.966797 0.5
vt 0.974609 0.5
vt 0.978516 0.5

# verts
v -63 0 63
v -63 0 -63
v -63 3 -5
v -63 3 -14
v -63 4 -4
v -63 4 -5
v -63 6 -4
v -63 6 -5
v -63 8 -15
v -63 8 -16
v -63 9 -15
v -63 9 -16
v -63 16 -5
v -63 16 -11
v -63 16 -13
v -63 16 -14
v -63 18 40
v -63 18 9
v -63 18 -11
v -63 18 -13
v -63 18 -19
v -63 18 -49
v -63 20 -8
v -63 20 -11
v -63 23 -8
v -63 23 -11
v -63 53 40
v -63 53 9
v -63 53 -19
v -63 53 -49
v -63 80 63
v -63 80 -63
v -61 0 63
v -61 0 -63
v -61 4 63
v -61 4 -4
v -61 4 -5
v -61 4 -14
v -61 4 -61
v -61 5 63
v -61 5 -4
v -61 5 -5
v -61 5 -14
v -61 5 -61
v -61 80 -61
v -61 80 -63
v 44 5 63
v 44 5 -4
v 44 5 -5
v 44 5 -22
v 44 5 -52
v 44 5 -61
v 44 45 -22
v 44 45 -52
v 44 80 63
v 44 80 -4
v 44 80 -5
v 44 80 -61
v -62 0 63
v -62 0 -63
v -62 3 -5
v -62 3 -14
v -62 4 -4
v -62 4 -5
v -62 8 -15
v -62 8 -16
v -62 9 -15
v -62 9 -16
v -62 16 -4
v -62 16 -5
v -62 16 -11
v -62 16 -13
v -62 16 -14
v -62 18 40
v -62 18 9
v -62 18 -11
v -62 18 -13
v -62 18 -19
v -62 18 -49
v -62 20 -8
v -62 20 -11
v -62 23 -8
v -62 23 -11
v -62 53 40
v -62 53 9
v -62 53 -19
v -62 53 -49
v -62 80 63
v -62 80 -4
v -62 80 -5
v -62 80 -63
v 45 5 62
v 45 5 -22
v 45 5 -52
v 45 5 -61
v 45 45 -22
v 45 45 -52
v 45 80 62
v 45 80 -61
v 63 0 63
v 63 0 -63
v 63 4 62
v 63 4 -61
v 63 5 62
v 63 5 -61
v 63 80 63
v 63 80 62
v 63 80 -61
v 63 80 -63
v -63 0 63
v -63 80 63
v -62 0 63
v -62 80 63
v -61 0 63
v -61 4 63
v -61 5 63
v 44 4 63
v 44 5 63
v 44 80 63
v 63 0 63
v 63 80 63
v -63 18 9
v -63 53 9
v -62 18 9
v -62 53 9
v -62 4 -4
v -62 16 -4
v -62 80 -4
v -61 4 -4
v -61 5 -4
v -61 16 -4
v -61 17 -4
v -59 16 -4
v -59 17 -4
v -56 16 -4
v -56 18 -4
v -56 19 -4
v -56 20 -4
v -55 19 -4
v -55 20 -4
v -52 18 -4
v -52 20 -4
v -50 17 -4
v -50 20 -4
v -49 17 -4
v -49 21 -4
v -48 17 -4
v -48 21 -4
v -47 16 -4
v -47 17 -4
v -46 5 -4
v -46 6 -4
v -46 12 -4
v -46 16 -4
v -44 6 -4
v -44 7 -4
v -44 12 -4
v -44 14 -4
v -44 15 -4
v -44 18 -4
v -42 7 -4
v -42 8 -4
v -42 10 -4
v -42 14 -4
v -42 15 -4
v -42 18 -4
v -41 8 -4
v -41 10 -4
v 44 5 -4
v 44 80 -4
v -63 18 -49
v -63 53 -49
v -62 18 -49
v -62 53 -49
v 44 5 -52
v 44 45 -52
v 45 5 -52
v 45 45 -52
v -61 5 -61
v -61 80 -61
v 44 5 -61
v 44 80 -61
v 45 5 -61
v 45 80 -61
v 63 5 -61
v 63 80 -61
v 45 5 62
v 45 80 62
v 63 5 62
v 63 80 62
v -63 18 40
v -63 53 40
v -62 18 40
v -62 53 40
v -62 4 -5
v -62 16 -5
v -62 80 -5
v -61 4 -5
v -61 5 -5
v -61 16 -5
v -61 17 -5
v -59 16 -5
v -59 17 -5
v -56 16 -5
v -56 18 -5
v -56 19 -5
v -56 20 -5
v -55 19 -5
v -55 20 -5
v -52 18 -5
v -52 20 -5
v -50 17 -5
v -50 20 -5
v -49 17 -5
v -49 21 -5
v -48 17 -5
v -48 21 -5
v -47 16 -5
v -47 17 -5
v -46 5 -5
v -46 6 -5
v -46 12 -5
v -46 16 -5
v -44 5 -5
v -44 6 -5
v -44 7 -5
v -44 12 -5
v -44 14 -5
v -44 15 -5
v -44 18 -5
v -42 7 -5
v -42 8 -5
v -42 10 -5
v -42 14 -5
v -42 15 -5
v -42 18 -5
v -41 8 -5
v -41 10 -5
v 44 5 -5
v 44 80 -5
v -63 18 -19
v -63 53 -19
v -62 18 -19
v -62 53 -19
v 44 5 -22
v 44 45 -22
v 45 5 -22
v 45 45 -22
v -63 0 -63
v -63 80 -63
v -62 0 -63
v -62 80 -63
v -61 0 -63
v -61 80 -63
v 63 0 -63
v 63 80 -63
v -63 0 63
v -62 0 63
v -61 0 63
v 63 0 63
v -63 0 -63
v -62 0 -63
v -61 0 -63
v 63 0 -63
v -62 4 -4
v -61 4 -4
v -62 4 -5
v -61 4 -5
v 44 45 -22
v 45 45 -22
v 44 45 -52
v 45 45 -52
v -63 53 40
v -62 53 40
v -63 53 9
v -62 53 9
v -63 53 -19
v -62 53 -19
v -63 53 -49
v -62 53 -49
v -61 5 63
v 44 5 63
v 45 5 62
v 63 5 62
v -61 5 -4
v -46 5 -4
v 44 5 -4
v -61 5 -5
v -46 5 -5
v -44 5 -5
v 44 5 -5
v -43 5 -9
v -39 5 -9
v -44 5 -12
v -43 5 -12
v -42 5 -12
v -39 5 -12
v -42 5 -13
v -39 5 -13
v -61 5 -14
v -60 5 -14
v -52 5 -14
v -48 5 -14
v -60 5 -15
v -59 5 -15
v -52 5 -15
v -48 5 -15
v -45 5 -15
v -44 5 -15
v -60 5 -16
v -59 5 -16
v -58 5 -16
v -44 5 -16
v -39 5 -16
v -59 5 -18
v -58 5 -18
v -57 5 -18
v -56 5 -18
v -53 5 -18
v -45 5 -18
v -56 5 -19
v -53 5 -19
v -60 5 -21
v -57 5 -21
v 44 5 -22
v 45 5 -22
v 44 5 -52
v 45 5 -52
v -61 5 -61
v 44 5 -61
v 45 5 -61
v 63 5 -61
v -63 18 40
v -62 18 40
v -63 18 9
v -62 18 9
v -63 18 -19
v -62 18 -19
v -63 18 -49
v -62 18 -49
v -63 80 63
v -62 80 63
v 44 80 63
v 63 80 63
v 45 80 62
v 63 80 62
v -62 80 -4
v 44 80 -4
v -62 80 -5
v 44 80 -5
v -61 80 -61
v 44 80 -61
v 45 80 -61
v 63 80 -61
v -63 80 -63
v -62 80 -63
v -61 80 -63
v 63 80 -63

# faces
f 3/3/1 2/3/1 1/3/1
f 4/3/1 2/3/1 3/3/1
f 5/3/1 3/3/1 1/3/1
f 6/4/1 4/4/1 3/4/1
f 6/3/1 3/3/1 5/3/1
f 7/3/1 5/3/1 1/3/1
f 7/4/1 6/4/1 5/4/1
f 8/4/1 4/4/1 6/4/1
f 8/4/1 6/4/1 7/4/1
f 9/3/1 2/3/1 4/3/1
f 10/3/1 2/3/1 9/3/1
f 11/3/1 9/3/1 4/3/1
f 11/4/1 10/4/1 9/4/1
f 12/3/1 2/3/1 10/3/1
f 12/4/1 10/4/1 11/4/1
f 13/4/1 4/4/1 8/4/1
f 13/3/1 8/3/1 7/3/1
f 14/4/1 4/4/1 13/4/1
f 15/4/1 4/4/1 14/4/1
f 16/3/1 12/3/1 11/3/1
f 16/4/1 4/4/1 15/4/1
f 16/3/1 11/3/1 4/3/1
f 17/3/1 7/3/1 1/3/1
f 17/3/1 14/3/1 13/3/1
f 17/3/1 13/3/1 7/3/1
f 18/3/1 14/3/1 17/3/1
f 19/4/1 15/4/1 14/4/1
f 19/3/1 14/3/1 18/3/1
f 20/3/1 16/3/1 15/3/1
f 20/4/1 15/4/1 19/4/1
f 21/3/1 2/3/1 12/3/1
f 21/3/1 16/3/1 20/3/1
f 21/3/1 12/3/1 16/3/1
f 22/3/1 2/3/1 21/3/1
f 23/3/1 20/3/1 19/3/1
f 23/3/1 21/3/1 20/3/1
f 23/3/1 19/3/1 18/3/1
f 24/3/1 21/3/1 23/3/1
f 25/3/1 23/3/1 18/3/1
f 25/4/1 24/4/1 23/4/1
f 26/3/1 21/3/1 24/3/1
f 26/4/1 24/4/1 25/4/1
f 27/3/1 17/3/1 1/3/1
f 28/3/1 25/3/1 18/3/1
f 28/3/1 26/3/1 25/3/1
f 29/3/1 21/3/1 26/3/1
f 29/3/1 26/3/1 28/3/1
f 30/3/1 2/3/1 22/3/1
f 31/3/1 29/3/1 28/3/1
f 31/3/1 30/3/1 29/3/1
f 31/3/1 28/3/1 27/3/1
f 31/3/1 27/3/1 1/3/1
f 32/3/1 2/3/1 30/3/1
f 32/3/1 30/3/1 31/3/1
f 35/3/1 34/3/1 33/3/1
f 36/3/1 34/3/1 35/3/1
f 37/3/1 34/3/1 36/3/1
f 38/3/1 34/3/1 37/3/1
f 39/3/1 34/3/1 38/3/1
f 40/5/1 36/5/1 35/5/1
f 41/5/1 36/5/1 40/5/1
f 42/1/1 38/1/1 37/1/1
f 43/2/1 39/2/1 38/2/1
f 43/1/1 38/1/1 42/1/1
f 44/3/1 34/3/1 39/3/1
f 44/2/1 39/2/1 43/2/1
f 45/3/1 34/3/1 44/3/1
f 46/3/1 34/3/1 45/3/1
f 53/3/1 50/3/1 49/3/1
f 54/3/1 52/3/1 51/3/1
f 55/3/1 48/3/1 47/3/1
f 56/3/1 48/3/1 55/3/1
f 57/3/1 54/3/1 53/3/1
f 57/3/1 53/3/1 49/3/1
f 58/3/1 52/3/1 54/3/1
f 58/3/1 54/3/1 57/3/1
f 59/3/2 60/3/2 61/3/2
f 61/3/2 60/3/2 62/3/2
f 59/3/2 61/3/2 63/3/2
f 61/4/2 62/4/2 64/4/2
f 63/3/2 61/3/2 64/3/2
f 62/3/2 60/3/2 65/3/2
f 65/3/2 60/3/2 66/3/2
f 62/3/2 65/3/2 67/3/2
f 65/4/2 66/4/2 67/4/2
f 66/3/2 60/3/2 68/3/2
f 67/4/2 66/4/2 68/4/2
f 59/3/2 63/3/2 69/3/2
f 64/4/2 62/4/2 70/4/2
f 70/4/2 62/4/2 71/4/2
f 71/4/2 62/4/2 72/4/2
f 62/3/2 67/3/2 73/3/2
f 72/4/2 62/4/2 73/4/2
f 67/3/2 68/3/2 73/3/2
f 59/3/2 69/3/2 74/3/2
f 74/3/2 69/3/2 75/3/2
f 71/4/2 72/4/2 76/4/2
f 70/3/2 71/3/2 76/3/2
f 72/3/2 73/3/2 77/3/2
f 76/4/2 72/4/2 77/4/2
f 73/3/2 68/3/2 78/3/2
f 77/3/2 73/3/2 78/3/2
f 68/3/2 60/3/2 78/3/2
f 78/3/2 60/3/2 79/3/2
f 76/3/2 77/3/2 80/3/2
f 77/3/2 78/3/2 80/3/2
f 70/3/2 76/3/2 80/3/2
f 80/3/2 78/3/2 81/3/2
f 70/3/2 80/3/2 82/3/2
f 80/4/2 81/4/2 82/4/2
f 81/3/2 78/3/2 83/3/2
f 82/4/2 81/4/2 83/4/2
f 59/3/2 74/3/2 84/3/2
f 75/3/2 69/3/2 85/3/2
f 83/3/2 78/3/2 86/3/2
f 82/3/2 83/3/2 86/3/2
f 79/3/2 60/3/2 87/3/2
f 84/3/2 85/3/2 88/3/2
f 59/3/2 84/3/2 88/3/2
f 85/3/2 69/3/2 89/3/2
f 88/3/2 85/3/2 89/3/2
f 82/3/2 86/3/2 90/3/2
f 86/3/2 87/3/2 90/3/2
f 70/3/2 82/3/2 90/3/2
f 87/3/2 60/3/2 91/3/2
f 90/3/2 87/3/2 91/3/2
f 92/3/2 93/3/2 96/3/2
f 94/3/2 95/3/2 97/3/2
f 92/3/2 96/3/2 98/3/2
f 96/3/2 97/3/2 98/3/2
f 97/3/2 95/3/2 99/3/2
f 98/3/2 97/3/2 99/3/2
f 100/3/2 101/3/2 102/3/2
f 102/3/2 101/3/2 103/3/2
f 100/3/2 102/3/2 104/3/2
f 102/2/2 103/2/2 104/2/2
f 103/3/2 101/3/2 105/3/2
f 104/2/2 103/2/2 105/2/2
f 100/3/2 104/3/2 106/3/2
f 106/3/2 104/3/2 107/3/2
f 105/3/2 101/3/2 108/3/2
f 108/3/2 101/3/2 109/3/2
f 112/3/3 111/3/3 110/3/3
f 113/3/3 111/3/3 112/3/3
f 117/3/3 115/3/3 114/3/3
f 117/5/3 116/5/3 115/5/3
f 118/5/3 116/5/3 117/5/3
f 120/3/3 117/3/3 114/3/3
f 120/3/3 119/3/3 118/3/3
f 120/3/3 118/3/3 117/3/3
f 121/3/3 119/3/3 120/3/3
f 124/3/3 123/3/3 122/3/3
f 125/3/3 123/3/3 124/3/3
f 129/4/3 127/4/3 126/4/3
f 130/4/3 127/4/3 129/4/3
f 131/3/3 128/3/3 127/3/3
f 131/4/3 127/4/3 130/4/3
f 132/3/3 128/3/3 131/3/3
f 133/4/3 131/4/3 130/4/3
f 133/4/3 132/4/3 131/4/3
f 134/3/3 128/3/3 132/3/3
f 134/4/3 132/4/3 133/4/3
f 135/4/3 133/4/3 130/4/3
f 135/3/3 134/3/3 133/3/3
f 136/3/3 128/3/3 134/3/3
f 136/3/3 134/3/3 135/3/3
f 137/3/3 128/3/3 136/3/3
f 138/3/3 128/3/3 137/3/3
f 139/3/3 137/3/3 136/3/3
f 139/4/3 138/4/3 137/4/3
f 140/3/3 128/3/3 138/3/3
f 140/4/3 138/4/3 139/4/3
f 141/4/3 136/4/3 135/4/3
f 141/3/3 139/3/3 136/3/3
f 141/3/3 140/3/3 139/3/3
f 142/3/3 128/3/3 140/3/3
f 142/3/3 140/3/3 141/3/3
f 143/4/3 141/4/3 135/4/3
f 143/4/3 142/4/3 141/4/3
f 144/3/3 128/3/3 142/3/3
f 144/4/3 142/4/3 143/4/3
f 145/4/3 143/4/3 135/4/3
f 145/3/3 144/3/3 143/3/3
f 146/3/3 128/3/3 144/3/3
f 146/3/3 144/3/3 145/3/3
f 147/4/3 145/4/3 135/4/3
f 147/4/3 146/4/3 145/4/3
f 148/3/3 128/3/3 146/3/3
f 148/4/3 146/4/3 147/4/3
f 149/4/3 135/4/3 130/4/3
f 149/4/3 147/4/3 135/4/3
f 150/3/3 148/3/3 147/3/3
f 150/4/3 147/4/3 149/4/3
f 151/4/3 149/4/3 130/4/3
f 152/4/3 149/4/3 151/4/3
f 153/4/3 149/4/3 152/4/3
f 154/3/3 150/3/3 149/3/3
f 154/4/3 149/4/3 153/4/3
f 155/4/3 153/4/3 152/4/3
f 155/3/3 152/3/3 151/3/3
f 156/4/3 153/4/3 155/4/3
f 157/3/3 154/3/3 153/3/3
f 157/4/3 153/4/3 156/4/3
f 158/3/3 154/3/3 157/3/3
f 159/3/3 154/3/3 158/3/3
f 160/3/3 148/3/3 150/3/3
f 160/3/3 154/3/3 159/3/3
f 160/3/3 150/3/3 154/3/3
f 161/4/3 158/4/3 157/4/3
f 161/3/3 156/3/3 155/3/3
f 161/4/3 157/4/3 156/4/3
f 162/4/3 158/4/3 161/4/3
f 163/4/3 158/4/3 162/4/3
f 164/3/3 159/3/3 158/3/3
f 164/4/3 158/4/3 163/4/3
f 165/4/3 160/4/3 159/4/3
f 165/3/3 159/3/3 164/3/3
f 166/3/3 148/3/3 160/3/3
f 166/4/3 160/4/3 165/4/3
f 167/4/3 163/4/3 162/4/3
f 167/3/3 162/3/3 161/3/3
f 168/3/3 165/3/3 164/3/3
f 168/4/3 163/4/3 167/4/3
f 168/3/3 164/3/3 163/3/3
f 168/3/3 166/3/3 165/3/3
f 169/3/3 167/3/3 161/3/3
f 169/3/3 161/3/3 155/3/3
f 169/3/3 168/3/3 167/3/3
f 169/3/3 155/3/3 151/3/3
f 170/3/3 128/3/3 148/3/3
f 170/3/3 168/3/3 169/3/3
f 170/3/3 148/3/3 166/3/3
f 170/3/3 166/3/3 168/3/3
f 173/3/3 172/3/3 171/3/3
f 174/3/3 172/3/3 173/3/3
f 177/3/3 176/3/3 175/3/3
f 178/3/3 176/3/3 177/3/3
f 181/3/3 180/3/3 179/3/3
f 182/3/3 180/3/3 181/3/3
f 185/3/3 184/3/3 183/3/3
f 186/3/3 184/3/3 185/3/3
f 187/3/4 188/3/4 189/3/4
f 189/3/4 188/3/4 190/3/4
f 191/3/4 192/3/4 193/3/4
f 193/3/4 192/3/4 194/3/4
f 195/4/4 196/4/4 198/4/4
f 198/4/4 196/4/4 199/4/4
f 196/3/4 197/3/4 200/3/4
f 199/4/4 196/4/4 200/4/4
f 200/3/4 197/3/4 201/3/4
f 199/4/4 200/4/4 202/4/4
f 200/4/4 201/4/4 202/4/4
f 201/3/4 197/3/4 203/3/4
f 202/4/4 201/4/4 203/4/4
f 199/4/4 202/4/4 204/4/4
f 202/3/4 203/3/4 204/3/4
f 203/3/4 197/3/4 205/3/4
f 204/3/4 203/3/4 205/3/4
f 205/3/4 197/3/4 206/3/4
f 206/3/4 197/3/4 207/3/4
f 205/3/4 206/3/4 208/3/4
f 206/4/4 207/4/4 208/4/4
f 207/3/4 197/3/4 209/3/4
f 208/4/4 207/4/4 209/4/4
f 204/4/4 205/4/4 210/4/4
f 205/3/4 208/3/4 210/3/4
f 208/3/4 209/3/4 210/3/4
f 209/3/4 197/3/4 211/3/4
f 210/3/4 209/3/4 211/3/4
f 204/4/4 210/4/4 212/4/4
f 210/4/4 211/4/4 212/4/4
f 211/3/4 197/3/4 213/3/4
f 212/4/4 211/4/4 213/4/4
f 204/4/4 212/4/4 214/4/4
f 212/3/4 213/3/4 214/3/4
f 213/3/4 197/3/4 215/3/4
f 214/3/4 213/3/4 215/3/4
f 204/4/4 214/4/4 216/4/4
f 214/4/4 215/4/4 216/4/4
f 215/3/4 197/3/4 217/3/4
f 216/4/4 215/4/4 217/4/4
f 199/4/4 204/4/4 218/4/4
f 204/4/4 216/4/4 218/4/4
f 216/3/4 217/3/4 219/3/4
f 218/4/4 216/4/4 219/4/4
f 199/4/4 218/4/4 220/4/4
f 220/4/4 218/4/4 221/4/4
f 221/4/4 218/4/4 222/4/4
f 218/3/4 219/3/4 223/3/4
f 222/4/4 218/4/4 223/4/4
f 220/3/4 221/3/4 224/3/4
f 221/4/4 222/4/4 225/4/4
f 224/3/4 221/3/4 225/3/4
f 225/4/4 222/4/4 226/4/4
f 222/3/4 223/3/4 227/3/4
f 226/4/4 222/4/4 227/4/4
f 227/3/4 223/3/4 228/3/4
f 228/3/4 223/3/4 229/3/4
f 219/3/4 217/3/4 230/3/4
f 229/3/4 223/3/4 230/3/4
f 223/3/4 219/3/4 230/3/4
f 227/4/4 228/4/4 231/4/4
f 225/3/4 226/3/4 231/3/4
f 224/3/4 225/3/4 231/3/4
f 226/4/4 227/4/4 231/4/4
f 231/4/4 228/4/4 232/4/4
f 232/4/4 228/4/4 233/4/4
f 228/3/4 229/3/4 234/3/4
f 233/4/4 228/4/4 234/4/4
f 229/4/4 230/4/4 235/4/4
f 234/3/4 229/3/4 235/3/4
f 230/3/4 217/3/4 236/3/4
f 235/4/4 230/4/4 236/4/4
f 232/4/4 233/4/4 237/4/4
f 231/3/4 232/3/4 237/3/4
f 234/3/4 235/3/4 238/3/4
f 237/4/4 233/4/4 238/4/4
f 233/3/4 234/3/4 238/3/4
f 235/3/4 236/3/4 238/3/4
f 231/3/4 237/3/4 239/3/4
f 224/3/4 231/3/4 239/3/4
f 237/3/4 238/3/4 239/3/4
f 217/3/4 197/3/4 240/3/4
f 239/3/4 238/3/4 240/3/4
f 236/3/4 217/3/4 240/3/4
f 238/3/4 236/3/4 240/3/4
f 241/3/4 242/3/4 243/3/4
f 243/3/4 242/3/4 244/3/4
f 245/3/4 246/3/4 247/3/4
f 247/3/4 246/3/4 248/3/4
f 249/3/4 250/3/4 251/3/4
f 251/3/4 250/3/4 252/3/4
f 253/3/4 254/3/4 255/3/4
f 255/3/4 254/3/4 256/3/4
f 261/3/5 258/3/5 257/3/5
f 262/3/5 258/3/5 261/3/5
f 263/3/5 260/3/5 259/3/5
f 264/3/5 260/3/5 263/3/5
f 267/4/5 266/4/5 265/4/5
f 268/4/5 266/4/5 267/4/5
f 271/3/5 270/3/5 269/3/5
f 272/3/5 270/3/5 271/3/5
f 275/3/5 274/3/5 273/3/5
f 276/3/5 274/3/5 275/3/5
f 279/3/5 278/3/5 277/3/5
f 280/3/5 278/3/5 279/3/5
f 281/5/6 282/5/6 285/5/6
f 285/5/6 282/5/6 286/5/6
f 286/5/6 282/5/6 287/5/6
f 290/2/6 291/2/6 292/2/6
f 292/2/6 291/2/6 293/2/6
f 288/1/6 289/1/6 294/1/6
f 289/1/6 290/1/6 294/1/6
f 290/2/6 292/2/6 294/2/6
f 292/1/6 293/1/6 295/1/6
f 294/2/6 292/2/6 295/2/6
f 295/1/6 293/1/6 296/1/6
f 293/2/6 291/2/6 297/2/6
f 296/1/6 293/1/6 297/1/6
f 295/1/6 296/1/6 298/1/6
f 294/1/6 295/1/6 298/1/6
f 296/2/6 297/2/6 298/2/6
f 297/2/6 291/2/6 299/2/6
f 298/2/6 297/2/6 299/2/6
f 294/1/6 298/1/6 300/1/6
f 288/1/6 294/1/6 300/1/6
f 298/1/6 299/1/6 300/1/6
f 300/1/6 299/1/6 301/1/6
f 301/1/6 299/1/6 302/1/6
f 302/1/6 299/1/6 303/1/6
f 300/2/6 301/2/6 304/2/6
f 301/1/6 302/1/6 304/1/6
f 304/1/6 302/1/6 305/1/6
f 302/2/6 303/2/6 306/2/6
f 305/1/6 302/1/6 306/1/6
f 303/1/6 299/1/6 307/1/6
f 306/2/6 303/2/6 307/2/6
f 307/1/6 299/1/6 308/1/6
f 308/1/6 299/1/6 309/1/6
f 304/2/6 305/2/6 310/2/6
f 300/2/6 304/2/6 310/2/6
f 305/1/6 306/1/6 311/1/6
f 310/2/6 305/2/6 311/2/6
f 306/1/6 307/1/6 311/1/6
f 307/1/6 308/1/6 311/1/6
f 311/1/6 308/1/6 312/1/6
f 309/1/6 299/1/6 313/1/6
f 308/2/6 309/2/6 313/2/6
f 299/2/6 291/2/6 314/2/6
f 313/1/6 299/1/6 314/1/6
f 311/2/6 312/2/6 315/2/6
f 310/1/6 311/1/6 315/1/6
f 312/1/6 308/1/6 316/1/6
f 315/2/6 312/2/6 316/2/6
f 316/1/6 308/1/6 317/1/6
f 317/1/6 308/1/6 318/1/6
f 318/1/6 308/1/6 319/1/6
f 308/2/6 313/2/6 320/2/6
f 319/1/6 308/1/6 320/1/6
f 313/2/6 314/2/6 320/2/6
f 318/1/6 319/1/6 321/1/6
f 317/2/6 318/2/6 321/2/6
f 319/2/6 320/2/6 322/2/6
f 321/1/6 319/1/6 322/1/6
f 300/2/6 310/2/6 323/2/6
f 310/1/6 315/1/6 323/1/6
f 315/1/6 316/1/6 323/1/6
f 316/1/6 317/1/6 323/1/6
f 321/2/6 322/2/6 324/2/6
f 323/1/6 317/1/6 324/1/6
f 317/2/6 321/2/6 324/2/6
f 320/2/6 314/2/6 325/2/6
f 324/2/6 322/2/6 325/2/6
f 323/2/6 324/2/6 325/2/6
f 314/2/6 291/2/6 325/2/6
f 322/2/6 320/2/6 325/2/6
f 283/2/6 284/2/6 326/2/6
f 323/2/6 325/2/6 327/2/6
f 325/2/6 326/2/6 327/2/6
f 326/2/6 284/2/6 328/2/6
f 327/2/6 326/2/6 328/2/6
f 323/2/6 327/2/6 329/2/6
f 300/2/6 323/2/6 329/2/6
f 329/2/6 327/2/6 330/2/6
f 328/2/6 284/2/6 331/2/6
f 331/2/6 284/2/6 332/2/6
f 333/3/6 334/3/6 335/3/6
f 335/3/6 334/3/6 336/3/6
f 337/3/6 338/3/6 339/3/6
f 339/3/6 338/3/6 340/3/6
f 343/3/6 344/3/6 345/3/6
f 345/3/6 344/3/6 346/3/6
f 341/3/6 342/3/6 347/3/6
f 343/3/6 345/3/6 348/3/6
f 341/3/6 347/3/6 349/3/6
f 347/3/6 348/3/6 349/3/6
f 348/3/6 345/3/6 350/3/6
f 349/3/6 348/3/6 350/3/6
f 350/3/6 345/3/6 352/3/6
f 352/3/6 345/3/6 353/3/6
f 341/3/6 349/3/6 355/3/6
f 355/3/6 349/3/6 356/3/6
f 353/3/6 354/3/6 357/3/6
f 351/3/6 352/3/6 357/3/6
f 352/3/6 353/3/6 357/3/6
f 357/3/6 354/3/6 358/3/6
