# MagicaVoxel @ Ephtracy

# group
g 4x2 first2 (1)-6

# material
mtllib 4x2 first2 (1)-6.mtl
usemtl palette

# normals
vn -1 0 0
vn 1 0 0
vn 0 0 1
vn 0 0 -1
vn 0 -1 0
vn 0 1 0

# texcoords
vt 0.396484 0.5
vt 0.419922 0.5
vt 0.966797 0.5

# verts
v -63 0 63
v -63 0 -4
v -63 0 -62
v -63 0 -63
v -63 4 63
v -63 4 -4
v -63 5 63
v -63 5 -4
v -63 8 -4
v -63 8 -14
v -63 15 -14
v -63 15 -25
v -63 22 -25
v -63 22 -61
v -63 22 -62
v -63 80 -61
v -63 80 -63
v -32 22 -25
v -32 22 -61
v -32 25 -25
v -32 25 -61
v -22 25 -25
v -22 25 -61
v -22 32 -25
v -22 32 -61
v -11 32 -25
v -11 32 -61
v -11 39 -25
v -11 39 -61
v 21 5 -7
v 21 5 -25
v 21 32 4
v 21 32 -7
v 21 39 14
v 21 39 4
v 21 39 -25
v 21 39 -28
v 21 46 25
v 21 46 14
v 21 46 -17
v 21 46 -28
v 21 53 36
v 21 53 25
v 21 53 -7
v 21 53 -17
v 21 60 63
v 21 60 36
v 21 60 4
v 21 60 -7
v 21 67 14
v 21 67 4
v 21 74 25
v 21 74 14
v 21 80 63
v 21 80 25
v 61 5 63
v 61 5 -61
v 61 32 -7
v 61 32 -61
v 61 39 4
v 61 39 -7
v 61 39 -28
v 61 39 -61
v 61 46 14
v 61 46 4
v 61 46 -17
v 61 46 -28
v 61 53 25
v 61 53 14
v 61 53 -7
v 61 53 -17
v 61 60 63
v 61 60 25
v 61 60 4
v 61 60 -7
v 61 67 14
v 61 67 4
v 61 74 25
v 61 74 14
v 61 80 25
v 61 80 -61
v -25 5 -4
v -25 5 -25
v -25 8 -4
v -25 8 -14
v -25 15 -14
v -25 15 -25
v 59 32 4
v 59 32 -7
v 59 39 14
v 59 39 4
v 59 39 -7
v 59 46 25
v 59 46 14
v 59 46 4
v 59 53 36
v 59 53 25
v 59 53 14
v 59 60 36
v 59 60 25
v 60 5 -7
v 60 5 -61
v 60 32 -7
v 60 32 -61
v 63 0 63
v 63 0 -63
v 63 80 63
v 63 80 -63
v -63 0 63
v -63 4 63
v -63 5 63
v 21 60 63
v 21 80 63
v 61 4 63
v 61 5 63
v 61 60 63
v 61 80 63
v 63 0 63
v 63 80 63
v 21 53 36
v 21 60 36
v 59 53 36
v 59 60 36
v 21 46 25
v 21 53 25
v 59 46 25
v 59 53 25
v 59 60 25
v 61 53 25
v 61 60 25
v 21 39 14
v 21 46 14
v 59 39 14
v 59 46 14
v 59 53 14
v 61 46 14
v 61 53 14
v 21 32 4
v 21 39 4
v 59 32 4
v 59 39 4
v 59 46 4
v 61 39 4
v 61 46 4
v -63 5 -4
v -63 8 -4
v -25 5 -4
v -25 8 -4
v 21 5 -7
v 21 32 -7
v 59 32 -7
v 59 39 -7
v 60 5 -7
v 60 32 -7
v 61 32 -7
v 61 39 -7
v -63 8 -14
v -63 15 -14
v -25 8 -14
v -25 15 -14
v -63 15 -25
v -63 22 -25
v -32 22 -25
v -32 25 -25
v -25 5 -25
v -25 15 -25
v -22 25 -25
v -22 32 -25
v -11 32 -25
v -11 39 -25
v 21 5 -25
v 21 39 -25
v -63 22 -61
v -63 80 -61
v -32 22 -61
v -32 25 -61
v -22 25 -61
v -22 32 -61
v -11 32 -61
v -11 39 -61
v 60 5 -61
v 60 32 -61
v 61 5 -61
v 61 32 -61
v 61 39 -61
v 61 80 -61
v 21 74 25
v 21 80 25
v 61 74 25
v 61 80 25
v 21 67 14
v 21 74 14
v 61 67 14
v 61 74 14
v 21 60 4
v 21 67 4
v 61 60 4
v 61 67 4
v 21 53 -7
v 21 60 -7
v 61 53 -7
v 61 60 -7
v 21 46 -17
v 21 53 -17
v 61 46 -17
v 61 53 -17
v 21 39 -28
v 21 46 -28
v 61 39 -28
v 61 46 -28
v -63 0 -63
v -63 80 -63
v 63 0 -63
v 63 80 -63
v -63 0 63
v 63 0 63
v -63 0 -4
v -25 0 -4
v -25 0 -25
v 21 0 -25
v -63 0 -62
v 21 0 -62
v -63 0 -63
v 63 0 -63
v 21 32 4
v 59 32 4
v 21 32 -7
v 59 32 -7
v 60 32 -7
v 61 32 -7
v 60 32 -61
v 61 32 -61
v 21 39 14
v 59 39 14
v 21 39 4
v 59 39 4
v 61 39 4
v 59 39 -7
v 61 39 -7
v 21 46 25
v 59 46 25
v 21 46 14
v 59 46 14
v 61 46 14
v 59 46 4
v 61 46 4
v 21 53 36
v 59 53 36
v 21 53 25
v 59 53 25
v 61 53 25
v 59 53 14
v 61 53 14
v 21 60 63
v 61 60 63
v 21 60 36
v 59 60 36
v 59 60 25
v 61 60 25
v -63 5 63
v 61 5 63
v -63 5 -4
v -25 5 -4
v 21 5 -7
v 60 5 -7
v -25 5 -25
v 21 5 -25
v 60 5 -61
v 61 5 -61
v -63 8 -4
v -25 8 -4
v -63 8 -14
v -25 8 -14
v -63 15 -14
v -25 15 -14
v -63 15 -25
v -25 15 -25
v -63 22 -25
v -32 22 -25
v -63 22 -61
v -32 22 -61
v -32 25 -25
v -22 25 -25
v -32 25 -61
v -22 25 -61
v -22 32 -25
v -11 32 -25
v -22 32 -61
v -11 32 -61
v -11 39 -25
v 21 39 -25
v 21 39 -28
v 61 39 -28
v -11 39 -61
v 61 39 -61
v 21 46 -17
v 61 46 -17
v 21 46 -28
v 61 46 -28
v 21 53 -7
v 61 53 -7
v 21 53 -17
v 61 53 -17
v 21 60 4
v 61 60 4
v 21 60 -7
v 61 60 -7
v 21 67 14
v 61 67 14
v 21 67 4
v 61 67 4
v 21 74 25
v 61 74 25
v 21 74 14
v 61 74 14
v 21 80 63
v 61 80 63
v 63 80 63
v 21 80 25
v 61 80 25
v -63 80 -61
v 61 80 -61
v -63 80 -63
v 63 80 -63

# faces
f 5/3/1 2/3/1 1/3/1
f 6/1/1 3/1/1 2/1/1
f 6/3/1 2/3/1 5/3/1
f 7/2/1 6/2/1 5/2/1
f 8/1/1 3/1/1 6/1/1
f 8/2/1 6/2/1 7/2/1
f 9/1/1 3/1/1 8/1/1
f 10/1/1 3/1/1 9/1/1
f 11/1/1 3/1/1 10/1/1
f 12/1/1 3/1/1 11/1/1
f 13/1/1 3/1/1 12/1/1
f 14/1/1 3/1/1 13/1/1
f 15/3/1 4/3/1 3/3/1
f 15/1/1 3/1/1 14/1/1
f 16/3/1 15/3/1 14/3/1
f 17/3/1 4/3/1 15/3/1
f 17/3/1 15/3/1 16/3/1
f 20/1/1 19/1/1 18/1/1
f 21/1/1 19/1/1 20/1/1
f 24/1/1 23/1/1 22/1/1
f 25/1/1 23/1/1 24/1/1
f 28/1/1 27/1/1 26/1/1
f 29/1/1 27/1/1 28/1/1
f 33/1/1 31/1/1 30/1/1
f 35/1/1 33/1/1 32/1/1
f 36/1/1 31/1/1 33/1/1
f 36/1/1 33/1/1 35/1/1
f 39/1/1 35/1/1 34/1/1
f 39/1/1 37/1/1 36/1/1
f 39/1/1 36/1/1 35/1/1
f 40/1/1 37/1/1 39/1/1
f 41/1/1 37/1/1 40/1/1
f 43/1/1 39/1/1 38/1/1
f 43/1/1 40/1/1 39/1/1
f 44/1/1 40/1/1 43/1/1
f 45/1/1 40/1/1 44/1/1
f 47/1/1 43/1/1 42/1/1
f 47/1/1 44/1/1 43/1/1
f 48/1/1 44/1/1 47/1/1
f 49/1/1 44/1/1 48/1/1
f 50/1/1 47/1/1 46/1/1
f 50/1/1 48/1/1 47/1/1
f 51/1/1 48/1/1 50/1/1
f 52/1/1 50/1/1 46/1/1
f 53/1/1 50/1/1 52/1/1
f 54/1/1 52/1/1 46/1/1
f 55/1/1 52/1/1 54/1/1
f 58/3/1 57/3/1 56/3/1
f 59/3/1 57/3/1 58/3/1
f 60/3/1 58/3/1 56/3/1
f 61/3/1 58/3/1 60/3/1
f 64/3/1 60/3/1 56/3/1
f 65/3/1 60/3/1 64/3/1
f 67/3/1 63/3/1 62/3/1
f 68/3/1 64/3/1 56/3/1
f 69/3/1 64/3/1 68/3/1
f 71/3/1 67/3/1 66/3/1
f 72/3/1 68/3/1 56/3/1
f 73/3/1 68/3/1 72/3/1
f 75/3/1 71/3/1 70/3/1
f 77/3/1 75/3/1 74/3/1
f 79/3/1 77/3/1 76/3/1
f 80/3/1 79/3/1 78/3/1
f 81/3/1 71/3/1 75/3/1
f 81/3/1 79/3/1 80/3/1
f 81/3/1 63/3/1 67/3/1
f 81/3/1 77/3/1 79/3/1
f 81/3/1 67/3/1 71/3/1
f 81/3/1 75/3/1 77/3/1
f 82/1/2 83/1/2 84/1/2
f 84/1/2 83/1/2 85/1/2
f 85/1/2 83/1/2 86/1/2
f 86/1/2 83/1/2 87/1/2
f 88/1/2 89/1/2 91/1/2
f 91/1/2 89/1/2 92/1/2
f 90/1/2 91/1/2 94/1/2
f 94/1/2 91/1/2 95/1/2
f 93/1/2 94/1/2 97/1/2
f 97/1/2 94/1/2 98/1/2
f 96/1/2 97/1/2 99/1/2
f 99/1/2 97/1/2 100/1/2
f 101/1/2 102/1/2 103/1/2
f 103/1/2 102/1/2 104/1/2
f 105/3/2 106/3/2 107/3/2
f 107/3/2 106/3/2 108/3/2
f 114/3/3 110/3/3 109/3/3
f 114/2/3 111/2/3 110/2/3
f 115/2/3 111/2/3 114/2/3
f 116/1/3 113/1/3 112/1/3
f 117/1/3 113/1/3 116/1/3
f 118/3/3 115/3/3 114/3/3
f 118/3/3 114/3/3 109/3/3
f 118/3/3 117/3/3 116/3/3
f 118/3/3 116/3/3 115/3/3
f 119/3/3 117/3/3 118/3/3
f 122/1/3 121/1/3 120/1/3
f 123/1/3 121/1/3 122/1/3
f 126/1/3 125/1/3 124/1/3
f 127/1/3 125/1/3 126/1/3
f 129/1/3 128/1/3 127/1/3
f 130/1/3 128/1/3 129/1/3
f 133/1/3 132/1/3 131/1/3
f 134/1/3 132/1/3 133/1/3
f 136/1/3 135/1/3 134/1/3
f 137/1/3 135/1/3 136/1/3
f 140/1/3 139/1/3 138/1/3
f 141/1/3 139/1/3 140/1/3
f 143/1/3 142/1/3 141/1/3
f 144/1/3 142/1/3 143/1/3
f 147/1/3 146/1/3 145/1/3
f 148/1/3 146/1/3 147/1/3
f 151/1/3 150/1/3 149/1/3
f 153/1/3 151/1/3 149/1/3
f 153/1/3 152/1/3 151/1/3
f 154/1/3 152/1/3 153/1/3
f 155/1/3 152/1/3 154/1/3
f 156/1/3 152/1/3 155/1/3
f 159/1/3 158/1/3 157/1/3
f 160/1/3 158/1/3 159/1/3
f 163/1/3 162/1/3 161/1/3
f 166/1/3 163/1/3 161/1/3
f 166/1/3 164/1/3 163/1/3
f 167/1/3 164/1/3 166/1/3
f 167/1/3 166/1/3 165/1/3
f 169/1/3 168/1/3 167/1/3
f 171/1/3 167/1/3 165/1/3
f 171/1/3 170/1/3 169/1/3
f 171/1/3 169/1/3 167/1/3
f 172/1/3 170/1/3 171/1/3
f 175/3/3 174/3/3 173/3/3
f 176/3/3 174/3/3 175/3/3
f 177/3/3 174/3/3 176/3/3
f 178/3/3 174/3/3 177/3/3
f 179/3/3 174/3/3 178/3/3
f 180/3/3 174/3/3 179/3/3
f 183/3/3 182/3/3 181/3/3
f 184/3/3 182/3/3 183/3/3
f 185/3/3 174/3/3 180/3/3
f 186/3/3 174/3/3 185/3/3
f 187/1/4 188/1/4 189/1/4
f 189/1/4 188/1/4 190/1/4
f 191/1/4 192/1/4 193/1/4
f 193/1/4 192/1/4 194/1/4
f 195/1/4 196/1/4 197/1/4
f 197/1/4 196/1/4 198/1/4
f 199/1/4 200/1/4 201/1/4
f 201/1/4 200/1/4 202/1/4
f 203/1/4 204/1/4 205/1/4
f 205/1/4 204/1/4 206/1/4
f 207/1/4 208/1/4 209/1/4
f 209/1/4 208/1/4 210/1/4
f 211/3/4 212/3/4 213/3/4
f 213/3/4 212/3/4 214/3/4
f 217/3/5 216/3/5 215/3/5
f 218/3/5 216/3/5 217/3/5
f 219/1/5 218/1/5 217/1/5
f 219/3/5 216/3/5 218/3/5
f 220/3/5 216/3/5 219/3/5
f 221/1/5 219/1/5 217/1/5
f 221/1/5 220/1/5 219/1/5
f 222/3/5 216/3/5 220/3/5
f 222/1/5 220/1/5 221/1/5
f 223/3/5 222/3/5 221/3/5
f 224/3/5 216/3/5 222/3/5
f 224/3/5 222/3/5 223/3/5
f 227/1/5 226/1/5 225/1/5
f 228/1/5 226/1/5 227/1/5
f 231/1/5 230/1/5 229/1/5
f 232/1/5 230/1/5 231/1/5
f 235/1/5 234/1/5 233/1/5
f 236/1/5 234/1/5 235/1/5
f 238/1/5 237/1/5 236/1/5
f 239/1/5 237/1/5 238/1/5
f 242/1/5 241/1/5 240/1/5
f 243/1/5 241/1/5 242/1/5
f 245/1/5 244/1/5 243/1/5
f 246/1/5 244/1/5 245/1/5
f 249/1/5 248/1/5 247/1/5
f 250/1/5 248/1/5 249/1/5
f 252/1/5 251/1/5 250/1/5
f 253/1/5 251/1/5 252/1/5
f 256/1/5 255/1/5 254/1/5
f 257/1/5 255/1/5 256/1/5
f 258/1/5 255/1/5 257/1/5
f 259/1/5 255/1/5 258/1/5
f 260/2/6 261/2/6 262/2/6
f 262/2/6 261/2/6 263/2/6
f 263/2/6 261/2/6 264/2/6
f 264/2/6 261/2/6 265/2/6
f 263/2/6 264/2/6 266/2/6
f 266/2/6 264/2/6 267/2/6
f 265/2/6 261/2/6 268/2/6
f 268/2/6 261/2/6 269/2/6
f 270/1/6 271/1/6 272/1/6
f 272/1/6 271/1/6 273/1/6
f 274/1/6 275/1/6 276/1/6
f 276/1/6 275/1/6 277/1/6
f 278/1/6 279/1/6 280/1/6
f 280/1/6 279/1/6 281/1/6
f 282/1/6 283/1/6 284/1/6
f 284/1/6 283/1/6 285/1/6
f 286/1/6 287/1/6 288/1/6
f 288/1/6 287/1/6 289/1/6
f 290/1/6 291/1/6 292/1/6
f 290/1/6 292/1/6 294/1/6
f 292/1/6 293/1/6 294/1/6
f 294/1/6 293/1/6 295/1/6
f 296/1/6 297/1/6 298/1/6
f 298/1/6 297/1/6 299/1/6
f 300/1/6 301/1/6 302/1/6
f 302/1/6 301/1/6 303/1/6
f 304/1/6 305/1/6 306/1/6
f 306/1/6 305/1/6 307/1/6
f 308/1/6 309/1/6 310/1/6
f 310/1/6 309/1/6 311/1/6
f 312/1/6 313/1/6 314/1/6
f 314/1/6 313/1/6 315/1/6
f 316/1/6 317/1/6 319/1/6
f 317/3/6 318/3/6 320/3/6
f 319/1/6 317/1/6 320/1/6
f 320/3/6 318/3/6 322/3/6
f 321/3/6 322/3/6 323/3/6
f 322/3/6 318/3/6 324/3/6
f 323/3/6 322/3/6 324/3/6
