# MagicaVoxel @ Ephtracy

# group
g 4x2 roof-4

# material
mtllib 4x2 roof-4.mtl
usemtl palette

# normals
vn -1 0 0
vn 1 0 0
vn 0 0 1
vn 0 0 -1
vn 0 -1 0
vn 0 1 0

# texcoords
vt 0.966797 0.5
vt 0.974609 0.5

# verts
v -63 0 63
v -63 0 -51
v -63 0 -54
v -63 0 -63
v -63 3 -56
v -63 3 -63
v -63 4 -54
v -63 4 -56
v -63 5 61
v -63 5 -51
v -63 5 -63
v -63 17 63
v -63 17 61
v 63 0 63
v 63 0 -63
v 63 5 61
v 63 5 -63
v 63 17 63
v 63 17 61
v -63 0 63
v -63 17 63
v 63 0 63
v 63 17 63
v -63 5 61
v -63 17 61
v 63 5 61
v 63 17 61
v -63 0 -63
v -63 3 -63
v -63 5 -63
v -56 3 -63
v -56 5 -63
v 63 0 -63
v 63 5 -63
v -63 0 63
v 63 0 63
v -63 0 -51
v -61 0 -51
v -63 0 -54
v -61 0 -54
v -63 0 -63
v 63 0 -63
v -63 5 61
v 63 5 61
v -57 5 -48
v -52 5 -48
v -63 5 -51
v -61 5 -51
v -57 5 -52
v -55 5 -52
v -53 5 -52
v -52 5 -52
v -61 5 -53
v -59 5 -53
v -59 5 -54
v -55 5 -54
v -53 5 -54
v -52 5 -54
v -56 5 -56
v -55 5 -56
v -53 5 -56
v -52 5 -56
v -55 5 -59
v -53 5 -59
v -63 5 -63
v -56 5 -63
v 63 5 -63
v -63 17 63
v 63 17 63
v -63 17 61
v 63 17 61

# faces
f 5/1/1 4/1/1 3/1/1
f 6/1/1 4/1/1 5/1/1
f 7/2/1 3/2/1 2/2/1
f 7/1/1 5/1/1 3/1/1
f 8/2/1 6/2/1 5/2/1
f 8/1/1 5/1/1 7/1/1
f 9/1/1 2/1/1 1/1/1
f 10/2/1 7/2/1 2/2/1
f 10/1/1 2/1/1 9/1/1
f 10/2/1 8/2/1 7/2/1
f 11/2/1 6/2/1 8/2/1
f 11/2/1 8/2/1 10/2/1
f 12/1/1 9/1/1 1/1/1
f 13/1/1 9/1/1 12/1/1
f 14/1/2 15/1/2 16/1/2
f 16/1/2 15/1/2 17/1/2
f 14/1/2 16/1/2 18/1/2
f 18/1/2 16/1/2 19/1/2
f 22/1/3 21/1/3 20/1/3
f 23/1/3 21/1/3 22/1/3
f 24/1/4 25/1/4 26/1/4
f 26/1/4 25/1/4 27/1/4
f 28/1/4 29/1/4 31/1/4
f 29/2/4 30/2/4 31/2/4
f 31/2/4 30/2/4 32/2/4
f 28/1/4 31/1/4 33/1/4
f 31/1/4 32/1/4 33/1/4
f 33/1/4 32/1/4 34/1/4
f 37/1/5 36/1/5 35/1/5
f 38/1/5 36/1/5 37/1/5
f 39/2/5 38/2/5 37/2/5
f 40/1/5 36/1/5 38/1/5
f 40/2/5 38/2/5 39/2/5
f 41/1/5 40/1/5 39/1/5
f 42/1/5 36/1/5 40/1/5
f 42/1/5 40/1/5 41/1/5
f 43/1/6 44/1/6 45/1/6
f 45/1/6 44/1/6 46/1/6
f 43/1/6 45/1/6 47/1/6
f 47/1/6 45/1/6 48/1/6
f 45/2/6 46/2/6 49/2/6
f 48/1/6 45/1/6 49/1/6
f 49/2/6 46/2/6 50/2/6
f 50/2/6 46/2/6 51/2/6
f 46/1/6 44/1/6 52/1/6
f 51/2/6 46/2/6 52/2/6
f 47/2/6 48/2/6 53/2/6
f 48/1/6 49/1/6 53/1/6
f 49/1/6 50/1/6 53/1/6
f 53/1/6 50/1/6 54/1/6
f 53/2/6 54/2/6 55/2/6
f 54/1/6 50/1/6 55/1/6
f 50/2/6 51/2/6 56/2/6
f 55/1/6 50/1/6 56/1/6
f 51/1/6 52/1/6 57/1/6
f 56/2/6 51/2/6 57/2/6
f 52/1/6 44/1/6 58/1/6
f 57/1/6 52/1/6 58/1/6
f 56/2/6 57/2/6 59/2/6
f 55/2/6 56/2/6 59/2/6
f 57/2/6 58/2/6 59/2/6
f 59/2/6 58/2/6 60/2/6
f 60/2/6 58/2/6 61/2/6
f 58/1/6 44/1/6 62/1/6
f 61/2/6 58/2/6 62/2/6
f 60/2/6 61/2/6 63/2/6
f 59/1/6 60/1/6 63/1/6
f 61/1/6 62/1/6 64/1/6
f 63/2/6 61/2/6 64/2/6
f 53/2/6 55/2/6 65/2/6
f 47/2/6 53/2/6 65/2/6
f 55/2/6 59/2/6 65/2/6
f 63/1/6 64/1/6 66/1/6
f 65/2/6 59/2/6 66/2/6
f 59/1/6 63/1/6 66/1/6
f 64/1/6 62/1/6 67/1/6
f 66/1/6 64/1/6 67/1/6
f 62/1/6 44/1/6 67/1/6
f 68/1/6 69/1/6 70/1/6
f 70/1/6 69/1/6 71/1/6
