# MagicaVoxel @ Ephtracy

# group
g 4x2 second-4

# material
mtllib 4x2 second-4.mtl
usemtl palette

# normals
vn -1 0 0
vn 1 0 0
vn 0 0 1
vn 0 0 -1
vn 0 -1 0
vn 0 1 0

# texcoords
vt 0.251953 0.5
vt 0.966797 0.5
vt 0.974609 0.5

# verts
v -63 0 23
v -63 0 -62
v -63 0 -63
v -63 1 23
v -63 1 -61
v -63 80 -61
v -63 80 -62
v -63 80 -63
v -48 0 46
v -48 0 41
v -48 80 46
v -48 80 41
v -47 0 47
v -47 0 46
v -47 0 41
v -47 0 40
v -47 80 47
v -47 80 46
v -47 80 41
v -47 80 40
v -46 0 48
v -46 0 47
v -46 0 40
v -46 0 39
v -46 80 48
v -46 80 47
v -46 80 40
v -46 80 39
v -23 0 63
v -23 0 23
v -23 1 63
v -23 1 23
v 29 1 63
v 29 1 -23
v 29 24 63
v 29 24 -23
v 61 0 63
v 61 0 -23
v 61 1 -23
v 61 1 -61
v 61 80 63
v 61 80 -61
v -41 0 48
v -41 0 47
v -41 0 40
v -41 0 39
v -41 80 48
v -41 80 47
v -41 80 40
v -41 80 39
v -40 0 47
v -40 0 46
v -40 0 41
v -40 0 40
v -40 80 47
v -40 80 46
v -40 80 41
v -40 80 40
v -39 0 46
v -39 0 41
v -39 80 46
v -39 80 41
v 31 0 63
v 31 0 -23
v 31 1 -23
v 31 24 63
v 31 24 -23
v 63 0 63
v 63 0 -63
v 63 80 63
v 63 80 -63
v -23 0 63
v -23 1 63
v 29 1 63
v 29 24 63
v 31 0 63
v 31 24 63
v 61 0 63
v 61 80 63
v 62 0 63
v 62 80 63
v 63 0 63
v 63 80 63
v -46 0 48
v -46 80 48
v -41 0 48
v -41 80 48
v -47 0 47
v -47 80 47
v -46 0 47
v -46 80 47
v -41 0 47
v -41 80 47
v -40 0 47
v -40 80 47
v -48 0 46
v -48 80 46
v -47 0 46
v -47 80 46
v -40 0 46
v -40 80 46
v -39 0 46
v -39 80 46
v -63 0 23
v -63 1 23
v -23 0 23
v -23 1 23
v 31 0 -23
v 31 1 -23
v 61 0 -23
v 61 1 -23
v -63 1 -61
v -63 80 -61
v 61 1 -61
v 61 80 -61
v -48 0 41
v -48 80 41
v -47 0 41
v -47 80 41
v -40 0 41
v -40 80 41
v -39 0 41
v -39 80 41
v -47 0 40
v -47 80 40
v -46 0 40
v -46 80 40
v -41 0 40
v -41 80 40
v -40 0 40
v -40 80 40
v -46 0 39
v -46 80 39
v -41 0 39
v -41 80 39
v 29 1 -23
v 29 24 -23
v 31 1 -23
v 31 24 -23
v -63 0 -63
v -63 80 -63
v 63 0 -63
v 63 80 -63
v -23 0 63
v 31 0 63
v 61 0 63
v 62 0 63
v 63 0 63
v -46 0 48
v -41 0 48
v -47 0 47
v -46 0 47
v -41 0 47
v -40 0 47
v -48 0 46
v -47 0 46
v -40 0 46
v -39 0 46
v -48 0 41
v -47 0 41
v -40 0 41
v -39 0 41
v -47 0 40
v -46 0 40
v -41 0 40
v -40 0 40
v -46 0 39
v -41 0 39
v -63 0 23
v -23 0 23
v 31 0 -23
v 61 0 -23
v -63 0 -62
v 62 0 -62
v -63 0 -63
v 63 0 -63
v -23 1 63
v 29 1 63
v -63 1 23
v -23 1 23
v 29 1 -23
v 31 1 -23
v 61 1 -23
v -63 1 -61
v 61 1 -61
v 29 24 63
v 31 24 63
v 29 24 -23
v 31 24 -23
v 61 80 63
v 62 80 63
v 63 80 63
v -46 80 48
v -41 80 48
v -47 80 47
v -46 80 47
v -41 80 47
v -40 80 47
v -48 80 46
v -47 80 46
v -40 80 46
v -39 80 46
v -48 80 41
v -47 80 41
v -40 80 41
v -39 80 41
v -47 80 40
v -46 80 40
v -41 80 40
v -40 80 40
v -46 80 39
v -41 80 39
v -63 80 -61
v 61 80 -61
v -63 80 -62
v 62 80 -62
v -63 80 -63
v 63 80 -63

# faces
f 4/2/1 2/2/1 1/2/1
f 5/2/1 2/2/1 4/2/1
f 6/2/1 2/2/1 5/2/1
f 7/1/1 3/1/1 2/1/1
f 7/2/1 2/2/1 6/2/1
f 8/1/1 3/1/1 7/1/1
f 11/3/1 10/3/1 9/3/1
f 12/3/1 10/3/1 11/3/1
f 17/3/1 14/3/1 13/3/1
f 18/3/1 14/3/1 17/3/1
f 19/3/1 16/3/1 15/3/1
f 20/3/1 16/3/1 19/3/1
f 25/3/1 22/3/1 21/3/1
f 26/3/1 22/3/1 25/3/1
f 27/3/1 24/3/1 23/3/1
f 28/3/1 24/3/1 27/3/1
f 31/2/1 30/2/1 29/2/1
f 32/2/1 30/2/1 31/2/1
f 35/2/1 34/2/1 33/2/1
f 36/2/1 34/2/1 35/2/1
f 39/2/1 38/2/1 37/2/1
f 41/2/1 39/2/1 37/2/1
f 41/2/1 40/2/1 39/2/1
f 42/2/1 40/2/1 41/2/1
f 43/3/2 44/3/2 47/3/2
f 47/3/2 44/3/2 48/3/2
f 45/3/2 46/3/2 49/3/2
f 49/3/2 46/3/2 50/3/2
f 51/3/2 52/3/2 55/3/2
f 55/3/2 52/3/2 56/3/2
f 53/3/2 54/3/2 57/3/2
f 57/3/2 54/3/2 58/3/2
f 59/3/2 60/3/2 61/3/2
f 61/3/2 60/3/2 62/3/2
f 63/2/2 64/2/2 65/2/2
f 63/2/2 65/2/2 66/2/2
f 66/2/2 65/2/2 67/2/2
f 68/1/2 69/1/2 70/1/2
f 70/1/2 69/1/2 71/1/2
f 74/2/3 73/2/3 72/2/3
f 76/2/3 74/2/3 72/2/3
f 76/2/3 75/2/3 74/2/3
f 77/2/3 75/2/3 76/2/3
f 80/2/3 79/2/3 78/2/3
f 81/2/3 79/2/3 80/2/3
f 82/1/3 81/1/3 80/1/3
f 83/1/3 81/1/3 82/1/3
f 86/3/3 85/3/3 84/3/3
f 87/3/3 85/3/3 86/3/3
f 90/3/3 89/3/3 88/3/3
f 91/3/3 89/3/3 90/3/3
f 94/3/3 93/3/3 92/3/3
f 95/3/3 93/3/3 94/3/3
f 98/3/3 97/3/3 96/3/3
f 99/3/3 97/3/3 98/3/3
f 102/3/3 101/3/3 100/3/3
f 103/3/3 101/3/3 102/3/3
f 106/2/3 105/2/3 104/2/3
f 107/2/3 105/2/3 106/2/3
f 110/2/3 109/2/3 108/2/3
f 111/2/3 109/2/3 110/2/3
f 114/2/3 113/2/3 112/2/3
f 115/2/3 113/2/3 114/2/3
f 116/3/4 117/3/4 118/3/4
f 118/3/4 117/3/4 119/3/4
f 120/3/4 121/3/4 122/3/4
f 122/3/4 121/3/4 123/3/4
f 124/3/4 125/3/4 126/3/4
f 126/3/4 125/3/4 127/3/4
f 128/3/4 129/3/4 130/3/4
f 130/3/4 129/3/4 131/3/4
f 132/3/4 133/3/4 134/3/4
f 134/3/4 133/3/4 135/3/4
f 136/2/4 137/2/4 138/2/4
f 138/2/4 137/2/4 139/2/4
f 140/1/4 141/1/4 142/1/4
f 142/1/4 141/1/4 143/1/4
f 152/3/5 150/3/5 149/3/5
f 153/3/5 150/3/5 152/3/5
f 156/3/5 152/3/5 151/3/5
f 156/3/5 154/3/5 153/3/5
f 156/3/5 153/3/5 152/3/5
f 157/3/5 154/3/5 156/3/5
f 159/3/5 156/3/5 155/3/5
f 159/3/5 158/3/5 157/3/5
f 159/3/5 157/3/5 156/3/5
f 160/3/5 158/3/5 159/3/5
f 161/3/5 158/3/5 160/3/5
f 162/3/5 158/3/5 161/3/5
f 163/3/5 161/3/5 160/3/5
f 164/3/5 161/3/5 163/3/5
f 165/3/5 161/3/5 164/3/5
f 166/3/5 161/3/5 165/3/5
f 167/3/5 165/3/5 164/3/5
f 168/3/5 165/3/5 167/3/5
f 170/2/5 145/2/5 144/2/5
f 171/2/5 145/2/5 170/2/5
f 171/2/5 170/2/5 169/2/5
f 172/2/5 147/2/5 146/2/5
f 173/2/5 171/2/5 169/2/5
f 173/2/5 172/2/5 171/2/5
f 174/2/5 147/2/5 172/2/5
f 174/2/5 172/2/5 173/2/5
f 174/1/5 148/1/5 147/1/5
f 175/1/5 174/1/5 173/1/5
f 176/1/5 148/1/5 174/1/5
f 176/1/5 174/1/5 175/1/5
f 177/2/6 178/2/6 180/2/6
f 180/2/6 178/2/6 181/2/6
f 179/2/6 180/2/6 181/2/6
f 179/2/6 181/2/6 184/2/6
f 182/2/6 183/2/6 184/2/6
f 181/2/6 182/2/6 184/2/6
f 184/2/6 183/2/6 185/2/6
f 186/2/6 187/2/6 188/2/6
f 188/2/6 187/2/6 189/2/6
f 193/3/6 194/3/6 196/3/6
f 196/3/6 194/3/6 197/3/6
f 195/3/6 196/3/6 200/3/6
f 197/3/6 198/3/6 200/3/6
f 196/3/6 197/3/6 200/3/6
f 200/3/6 198/3/6 201/3/6
f 199/3/6 200/3/6 203/3/6
f 201/3/6 202/3/6 203/3/6
f 200/3/6 201/3/6 203/3/6
f 203/3/6 202/3/6 204/3/6
f 204/3/6 202/3/6 205/3/6
f 205/3/6 202/3/6 206/3/6
f 204/3/6 205/3/6 207/3/6
f 207/3/6 205/3/6 208/3/6
f 208/3/6 205/3/6 209/3/6
f 209/3/6 205/3/6 210/3/6
f 208/3/6 209/3/6 211/3/6
f 211/3/6 209/3/6 212/3/6
f 190/2/6 191/2/6 214/2/6
f 213/2/6 214/2/6 215/2/6
f 191/1/6 192/1/6 216/1/6
f 215/2/6 214/2/6 216/2/6
f 214/2/6 191/2/6 216/2/6
f 215/1/6 216/1/6 217/1/6
f 216/1/6 192/1/6 218/1/6
f 217/1/6 216/1/6 218/1/6
