# MagicaVoxel @ Ephtracy

# group
g 4x2 second-5

# material
mtllib 4x2 second-5.mtl
usemtl palette

# normals
vn -1 0 0
vn 1 0 0
vn 0 0 1
vn 0 0 -1
vn 0 -1 0
vn 0 1 0

# texcoords
vt 0.251953 0.5
vt 0.966797 0.5

# verts
v -63 0 63
v -63 0 62
v -63 0 -63
v -63 1 61
v -63 1 -62
v -63 80 63
v -63 80 62
v -63 80 61
v -63 80 -62
v -63 80 -63
v 18 1 -62
v 18 1 -63
v 18 41 -62
v 18 41 -63
v 61 1 61
v 61 1 -62
v 61 80 61
v 61 80 -62
v -12 1 -62
v -12 1 -63
v -12 41 -62
v -12 41 -63
v 63 0 63
v 63 0 -63
v 63 80 63
v 63 80 -63
v -63 0 63
v -63 80 63
v 63 0 63
v 63 80 63
v -63 1 -62
v -63 80 -62
v -12 1 -62
v -12 41 -62
v 18 1 -62
v 18 41 -62
v 61 1 -62
v 61 80 -62
v -63 1 61
v -63 80 61
v 61 1 61
v 61 80 61
v -63 0 -63
v -63 80 -63
v -12 1 -63
v -12 41 -63
v 18 1 -63
v 18 41 -63
v 62 0 -63
v 62 80 -63
v 63 0 -63
v 63 80 -63
v -63 0 63
v 63 0 63
v -63 0 62
v 62 0 62
v -63 0 -63
v 62 0 -63
v 63 0 -63
v -12 41 -62
v 18 41 -62
v -12 41 -63
v 18 41 -63
v -63 1 61
v 61 1 61
v -63 1 -62
v -12 1 -62
v 18 1 -62
v 61 1 -62
v -12 1 -63
v 18 1 -63
v -63 80 63
v 63 80 63
v -63 80 62
v 62 80 62
v -63 80 61
v 61 80 61
v -63 80 -62
v 61 80 -62
v -63 80 -63
v 62 80 -63
v 63 80 -63

# faces
f 4/2/1 3/2/1 2/2/1
f 5/2/1 3/2/1 4/2/1
f 6/1/1 2/1/1 1/1/1
f 7/2/1 4/2/1 2/2/1
f 7/1/1 2/1/1 6/1/1
f 8/2/1 4/2/1 7/2/1
f 9/2/1 3/2/1 5/2/1
f 10/2/1 3/2/1 9/2/1
f 13/2/1 12/2/1 11/2/1
f 14/2/1 12/2/1 13/2/1
f 17/2/1 16/2/1 15/2/1
f 18/2/1 16/2/1 17/2/1
f 19/2/2 20/2/2 21/2/2
f 21/2/2 20/2/2 22/2/2
f 23/1/2 24/1/2 25/1/2
f 25/1/2 24/1/2 26/1/2
f 29/1/3 28/1/3 27/1/3
f 30/1/3 28/1/3 29/1/3
f 33/2/3 32/2/3 31/2/3
f 34/2/3 32/2/3 33/2/3
f 36/2/3 32/2/3 34/2/3
f 37/2/3 36/2/3 35/2/3
f 38/2/3 32/2/3 36/2/3
f 38/2/3 36/2/3 37/2/3
f 39/2/4 40/2/4 41/2/4
f 41/2/4 40/2/4 42/2/4
f 43/2/4 44/2/4 45/2/4
f 45/2/4 44/2/4 46/2/4
f 43/2/4 45/2/4 47/2/4
f 46/2/4 44/2/4 48/2/4
f 43/2/4 47/2/4 49/2/4
f 47/2/4 48/2/4 49/2/4
f 48/2/4 44/2/4 50/2/4
f 49/2/4 48/2/4 50/2/4
f 49/1/4 50/1/4 51/1/4
f 51/1/4 50/1/4 52/1/4
f 55/1/5 54/1/5 53/1/5
f 56/1/5 54/1/5 55/1/5
f 57/2/5 56/2/5 55/2/5
f 58/1/5 54/1/5 56/1/5
f 58/2/5 56/2/5 57/2/5
f 59/1/5 54/1/5 58/1/5
f 62/2/5 61/2/5 60/2/5
f 63/2/5 61/2/5 62/2/5
f 64/2/6 65/2/6 66/2/6
f 66/2/6 65/2/6 67/2/6
f 67/2/6 65/2/6 68/2/6
f 68/2/6 65/2/6 69/2/6
f 67/2/6 68/2/6 70/2/6
f 70/2/6 68/2/6 71/2/6
f 72/1/6 73/1/6 74/1/6
f 74/1/6 73/1/6 75/1/6
f 74/2/6 75/2/6 76/2/6
f 76/2/6 75/2/6 77/2/6
f 77/2/6 75/2/6 79/2/6
f 78/2/6 79/2/6 80/2/6
f 75/1/6 73/1/6 81/1/6
f 80/2/6 79/2/6 81/2/6
f 79/2/6 75/2/6 81/2/6
f 81/1/6 73/1/6 82/1/6
