# MagicaVoxel @ Ephtracy

# group
g 4x2 second (1)-7

# material
mtllib 4x2 second (1)-7.mtl
usemtl palette

# normals
vn -1 0 0
vn 1 0 0
vn 0 0 1
vn 0 0 -1
vn 0 -1 0
vn 0 1 0

# texcoords
vt 0.251953 0.5
vt 0.966797 0.5
vt 0.978516 0.5

# verts
v -63 0 63
v -63 0 -63
v -63 1 63
v -63 1 -63
v -63 22 63
v -63 22 -63
v -61 1 61
v -61 1 -63
v -61 22 61
v -61 22 -63
v 63 0 63
v 63 0 62
v 63 0 -63
v 63 1 63
v 63 1 62
v 63 1 61
v 63 1 -63
v 63 22 63
v 63 22 61
v -63 0 63
v -63 1 63
v -63 22 63
v 63 0 63
v 63 1 63
v 63 22 63
v -61 1 61
v -61 22 61
v 63 1 61
v 63 22 61
v -63 0 -63
v -63 1 -63
v -63 22 -63
v -62 0 -63
v -62 1 -63
v -61 1 -63
v -61 22 -63
v -28 0 -63
v -28 1 -63
v -17 0 -63
v -17 1 -63
v 6 0 -63
v 6 1 -63
v 13 0 -63
v 13 1 -63
v 63 0 -63
v 63 1 -63
v -63 0 63
v 63 0 63
v -62 0 62
v 63 0 62
v 39 0 40
v 54 0 40
v 21 0 39
v 25 0 39
v 17 0 34
v 21 0 34
v 25 0 34
v 39 0 34
v 54 0 34
v 57 0 34
v 49 0 31
v 50 0 31
v 50 0 26
v 57 0 26
v 49 0 25
v 50 0 25
v 8 0 24
v 10 0 24
v 8 0 23
v 10 0 23
v -8 0 21
v -6 0 21
v -1 0 21
v 17 0 21
v 50 0 21
v 59 0 21
v -8 0 19
v -6 0 19
v -4 0 19
v -1 0 19
v -9 0 11
v -4 0 11
v -9 0 -15
v -1 0 -15
v -1 0 -20
v 0 0 -20
v 12 0 -20
v 17 0 -20
v 28 0 -20
v 34 0 -20
v 55 0 -20
v 59 0 -20
v 17 0 -24
v 28 0 -24
v 59 0 -25
v 60 0 -25
v 34 0 -28
v 55 0 -28
v 0 0 -29
v 12 0 -29
v 50 0 -29
v 55 0 -29
v 59 0 -29
v 60 0 -29
v 50 0 -31
v 55 0 -31
v -9 0 -36
v -8 0 -36
v -9 0 -37
v -8 0 -37
v 3 0 -37
v 9 0 -37
v -3 0 -38
v 1 0 -38
v 42 0 -38
v 44 0 -38
v 42 0 -39
v 44 0 -39
v 3 0 -40
v 9 0 -40
v -3 0 -44
v 1 0 -44
v 12 0 -44
v 13 0 -44
v 12 0 -50
v 13 0 -50
v 5 0 -51
v 13 0 -51
v 5 0 -54
v 6 0 -54
v -28 0 -55
v -17 0 -55
v -17 0 -56
v -16 0 -56
v -14 0 -56
v -8 0 -56
v -17 0 -58
v -16 0 -58
v -12 0 -59
v -8 0 -59
v -14 0 -62
v -12 0 -62
v -63 0 -63
v -62 0 -63
v -28 0 -63
v -17 0 -63
v 6 0 -63
v 13 0 -63
v 63 0 -63
v -61 1 61
v 63 1 61
v 39 1 40
v 54 1 40
v 21 1 39
v 25 1 39
v 17 1 34
v 21 1 34
v 25 1 34
v 39 1 34
v 54 1 34
v 57 1 34
v 49 1 31
v 50 1 31
v 50 1 26
v 57 1 26
v 49 1 25
v 50 1 25
v 8 1 24
v 10 1 24
v 8 1 23
v 10 1 23
v -8 1 21
v -6 1 21
v -1 1 21
v 17 1 21
v 50 1 21
v 59 1 21
v -8 1 19
v -6 1 19
v -4 1 19
v -1 1 19
v -9 1 11
v -4 1 11
v -9 1 -15
v -1 1 -15
v -1 1 -20
v 0 1 -20
v 12 1 -20
v 17 1 -20
v 28 1 -20
v 34 1 -20
v 55 1 -20
v 59 1 -20
v 17 1 -24
v 28 1 -24
v 59 1 -25
v 60 1 -25
v 34 1 -28
v 55 1 -28
v 0 1 -29
v 12 1 -29
v 50 1 -29
v 55 1 -29
v 59 1 -29
v 60 1 -29
v 50 1 -31
v 55 1 -31
v -9 1 -36
v -8 1 -36
v -9 1 -37
v -8 1 -37
v 3 1 -37
v 9 1 -37
v -3 1 -38
v 1 1 -38
v 42 1 -38
v 44 1 -38
v 42 1 -39
v 44 1 -39
v 3 1 -40
v 9 1 -40
v -3 1 -44
v 1 1 -44
v 12 1 -44
v 13 1 -44
v 12 1 -50
v 13 1 -50
v 5 1 -51
v 13 1 -51
v 5 1 -54
v 6 1 -54
v -28 1 -55
v -17 1 -55
v -17 1 -56
v -16 1 -56
v -14 1 -56
v -8 1 -56
v -17 1 -58
v -16 1 -58
v -12 1 -59
v -8 1 -59
v -14 1 -62
v -12 1 -62
v -61 1 -63
v -28 1 -63
v -17 1 -63
v 6 1 -63
v 13 1 -63
v 63 1 -63
v -63 22 63
v 63 22 63
v -61 22 61
v 63 22 61
v -63 22 -63
v -61 22 -63

# faces
f 3/1/1 2/1/1 1/1/1
f 4/1/1 2/1/1 3/1/1
f 5/2/1 4/2/1 3/2/1
f 6/2/1 4/2/1 5/2/1
f 7/2/2 8/2/2 9/2/2
f 9/2/2 8/2/2 10/2/2
f 11/1/2 12/1/2 14/1/2
f 12/2/2 13/2/2 15/2/2
f 14/1/2 12/1/2 15/1/2
f 15/2/2 13/2/2 16/2/2
f 16/2/2 13/2/2 17/2/2
f 14/2/2 15/2/2 18/2/2
f 15/2/2 16/2/2 18/2/2
f 18/2/2 16/2/2 19/2/2
f 23/1/3 21/1/3 20/1/3
f 24/2/3 22/2/3 21/2/3
f 24/1/3 21/1/3 23/1/3
f 25/2/3 22/2/3 24/2/3
f 26/2/4 27/2/4 28/2/4
f 28/2/4 27/2/4 29/2/4
f 30/1/4 31/1/4 33/1/4
f 31/2/4 32/2/4 34/2/4
f 33/1/4 31/1/4 34/1/4
f 33/2/4 34/2/4 35/2/4
f 34/2/4 32/2/4 35/2/4
f 35/2/4 32/2/4 36/2/4
f 33/2/4 35/2/4 37/2/4
f 37/2/4 35/2/4 38/2/4
f 37/3/4 38/3/4 39/3/4
f 39/3/4 38/3/4 40/3/4
f 39/2/4 40/2/4 41/2/4
f 41/2/4 40/2/4 42/2/4
f 41/3/4 42/3/4 43/3/4
f 43/3/4 42/3/4 44/3/4
f 43/2/4 44/2/4 45/2/4
f 45/2/4 44/2/4 46/2/4
f 49/1/5 48/1/5 47/1/5
f 50/1/5 48/1/5 49/1/5
f 51/2/5 50/2/5 49/2/5
f 52/2/5 50/2/5 51/2/5
f 53/2/5 51/2/5 49/2/5
f 54/2/5 51/2/5 53/2/5
f 55/2/5 53/2/5 49/2/5
f 56/3/5 54/3/5 53/3/5
f 56/2/5 53/2/5 55/2/5
f 57/2/5 51/2/5 54/2/5
f 57/3/5 54/3/5 56/3/5
f 58/3/5 52/3/5 51/3/5
f 58/2/5 51/2/5 57/2/5
f 59/2/5 50/2/5 52/2/5
f 59/3/5 52/3/5 58/3/5
f 60/2/5 50/2/5 59/2/5
f 61/3/5 58/3/5 57/3/5
f 61/3/5 57/3/5 56/3/5
f 61/3/5 60/3/5 59/3/5
f 61/3/5 59/3/5 58/3/5
f 61/3/5 56/3/5 55/3/5
f 62/3/5 60/3/5 61/3/5
f 63/2/5 62/2/5 61/2/5
f 63/3/5 60/3/5 62/3/5
f 64/2/5 50/2/5 60/2/5
f 64/3/5 60/3/5 63/3/5
f 65/2/5 63/2/5 61/2/5
f 65/3/5 61/3/5 55/3/5
f 65/2/5 64/2/5 63/2/5
f 66/2/5 64/2/5 65/2/5
f 67/2/5 55/2/5 49/2/5
f 68/2/5 55/2/5 67/2/5
f 69/2/5 67/2/5 49/2/5
f 69/3/5 68/3/5 67/3/5
f 70/2/5 55/2/5 68/2/5
f 70/3/5 68/3/5 69/3/5
f 71/2/5 69/2/5 49/2/5
f 71/2/5 70/2/5 69/2/5
f 72/2/5 70/2/5 71/2/5
f 73/2/5 70/2/5 72/2/5
f 74/3/5 65/3/5 55/3/5
f 74/2/5 70/2/5 73/2/5
f 74/3/5 66/3/5 65/3/5
f 74/2/5 55/2/5 70/2/5
f 75/2/5 64/2/5 66/2/5
f 75/3/5 66/3/5 74/3/5
f 76/2/5 50/2/5 64/2/5
f 76/2/5 64/2/5 75/2/5
f 77/3/5 72/3/5 71/3/5
f 77/2/5 71/2/5 49/2/5
f 78/2/5 73/2/5 72/2/5
f 78/3/5 72/3/5 77/3/5
f 79/2/5 73/2/5 78/2/5
f 80/3/5 75/3/5 74/3/5
f 80/2/5 73/2/5 79/2/5
f 80/3/5 74/3/5 73/3/5
f 80/3/5 76/3/5 75/3/5
f 81/2/5 79/2/5 78/2/5
f 81/2/5 78/2/5 77/2/5
f 81/2/5 77/2/5 49/2/5
f 82/3/5 80/3/5 79/3/5
f 82/2/5 79/2/5 81/2/5
f 83/2/5 81/2/5 49/2/5
f 83/3/5 82/3/5 81/3/5
f 84/3/5 76/3/5 80/3/5
f 84/3/5 82/3/5 83/3/5
f 84/3/5 80/3/5 82/3/5
f 85/2/5 84/2/5 83/2/5
f 85/3/5 76/3/5 84/3/5
f 86/3/5 76/3/5 85/3/5
f 87/3/5 76/3/5 86/3/5
f 88/3/5 76/3/5 87/3/5
f 89/3/5 76/3/5 88/3/5
f 90/3/5 76/3/5 89/3/5
f 91/3/5 76/3/5 90/3/5
f 92/2/5 50/2/5 76/2/5
f 92/3/5 76/3/5 91/3/5
f 93/2/5 88/2/5 87/2/5
f 93/3/5 89/3/5 88/3/5
f 94/2/5 90/2/5 89/2/5
f 94/3/5 89/3/5 93/3/5
f 95/2/5 50/2/5 92/2/5
f 95/2/5 92/2/5 91/2/5
f 96/2/5 50/2/5 95/2/5
f 97/3/5 91/3/5 90/3/5
f 97/2/5 90/2/5 94/2/5
f 97/2/5 94/2/5 93/2/5
f 98/2/5 95/2/5 91/2/5
f 98/3/5 91/3/5 97/3/5
f 99/2/5 86/2/5 85/2/5
f 99/3/5 87/3/5 86/3/5
f 100/2/5 98/2/5 97/2/5
f 100/3/5 87/3/5 99/3/5
f 100/2/5 97/2/5 93/2/5
f 100/2/5 93/2/5 87/2/5
f 101/2/5 98/2/5 100/2/5
f 102/2/5 95/2/5 98/2/5
f 102/2/5 98/2/5 101/2/5
f 103/3/5 96/3/5 95/3/5
f 103/2/5 95/2/5 102/2/5
f 104/2/5 50/2/5 96/2/5
f 104/3/5 96/3/5 103/3/5
f 105/2/5 101/2/5 100/2/5
f 105/3/5 102/3/5 101/3/5
f 105/2/5 100/2/5 99/2/5
f 106/2/5 103/2/5 102/2/5
f 106/3/5 102/3/5 105/3/5
f 106/2/5 104/2/5 103/2/5
f 107/2/5 83/2/5 49/2/5
f 107/2/5 105/2/5 99/2/5
f 107/2/5 106/2/5 105/2/5
f 107/2/5 99/2/5 85/2/5
f 107/2/5 85/2/5 83/2/5
f 108/2/5 106/2/5 107/2/5
f 109/2/5 107/2/5 49/2/5
f 109/3/5 108/3/5 107/3/5
f 110/2/5 106/2/5 108/2/5
f 110/3/5 108/3/5 109/3/5
f 111/2/5 106/2/5 110/2/5
f 112/2/5 106/2/5 111/2/5
f 113/2/5 110/2/5 109/2/5
f 113/2/5 111/2/5 110/2/5
f 114/2/5 111/2/5 113/2/5
f 115/2/5 106/2/5 112/2/5
f 116/2/5 106/2/5 115/2/5
f 117/2/5 115/2/5 112/2/5
f 117/3/5 116/3/5 115/3/5
f 118/2/5 106/2/5 116/2/5
f 118/3/5 116/3/5 117/3/5
f 119/2/5 111/2/5 114/2/5
f 119/3/5 112/3/5 111/3/5
f 120/2/5 118/2/5 117/2/5
f 120/3/5 112/3/5 119/3/5
f 120/2/5 117/2/5 112/2/5
f 121/2/5 113/2/5 109/2/5
f 121/3/5 114/3/5 113/3/5
f 122/2/5 119/2/5 114/2/5
f 122/3/5 114/3/5 121/3/5
f 122/2/5 120/2/5 119/2/5
f 123/2/5 118/2/5 120/2/5
f 123/2/5 120/2/5 122/2/5
f 124/2/5 118/2/5 123/2/5
f 125/2/5 122/2/5 121/2/5
f 125/2/5 123/2/5 122/2/5
f 125/3/5 124/3/5 123/3/5
f 126/2/5 118/2/5 124/2/5
f 126/3/5 124/3/5 125/3/5
f 127/2/5 125/2/5 121/2/5
f 127/2/5 126/2/5 125/2/5
f 128/2/5 118/2/5 126/2/5
f 128/2/5 126/2/5 127/2/5
f 129/2/5 127/2/5 121/2/5
f 129/3/5 128/3/5 127/3/5
f 130/3/5 128/3/5 129/3/5
f 131/2/5 109/2/5 49/2/5
f 131/2/5 121/2/5 109/2/5
f 131/2/5 130/2/5 129/2/5
f 131/2/5 129/2/5 121/2/5
f 132/2/5 130/2/5 131/2/5
f 133/3/5 132/3/5 131/3/5
f 133/2/5 130/2/5 132/2/5
f 134/2/5 130/2/5 133/2/5
f 135/2/5 130/2/5 134/2/5
f 136/2/5 130/2/5 135/2/5
f 137/3/5 133/3/5 131/3/5
f 137/3/5 134/3/5 133/3/5
f 138/2/5 135/2/5 134/2/5
f 138/3/5 134/3/5 137/3/5
f 139/3/5 136/3/5 135/3/5
f 140/2/5 130/2/5 136/2/5
f 140/3/5 136/3/5 139/3/5
f 141/3/5 139/3/5 135/3/5
f 141/2/5 135/2/5 138/2/5
f 141/2/5 138/2/5 137/2/5
f 142/2/5 140/2/5 139/2/5
f 142/3/5 139/3/5 141/3/5
f 143/1/5 49/1/5 47/1/5
f 144/2/5 131/2/5 49/2/5
f 144/1/5 49/1/5 143/1/5
f 145/3/5 137/3/5 131/3/5
f 145/2/5 131/2/5 144/2/5
f 146/2/5 141/2/5 137/2/5
f 146/3/5 137/3/5 145/3/5
f 146/2/5 142/2/5 141/2/5
f 147/2/5 140/2/5 142/2/5
f 147/2/5 142/2/5 146/2/5
f 147/3/5 128/3/5 130/3/5
f 147/2/5 130/2/5 140/2/5
f 148/2/5 118/2/5 128/2/5
f 148/3/5 128/3/5 147/3/5
f 149/2/5 104/2/5 106/2/5
f 149/2/5 118/2/5 148/2/5
f 149/2/5 50/2/5 104/2/5
f 149/2/5 106/2/5 118/2/5
f 150/2/6 151/2/6 152/2/6
f 152/2/6 151/2/6 153/2/6
f 150/2/6 152/2/6 154/2/6
f 154/2/6 152/2/6 155/2/6
f 150/2/6 154/2/6 156/2/6
f 154/3/6 155/3/6 157/3/6
f 156/2/6 154/2/6 157/2/6
f 155/2/6 152/2/6 158/2/6
f 157/3/6 155/3/6 158/3/6
f 152/3/6 153/3/6 159/3/6
f 158/2/6 152/2/6 159/2/6
f 153/2/6 151/2/6 160/2/6
f 159/3/6 153/3/6 160/3/6
f 160/2/6 151/2/6 161/2/6
f 158/3/6 159/3/6 162/3/6
f 157/3/6 158/3/6 162/3/6
f 160/3/6 161/3/6 162/3/6
f 159/3/6 160/3/6 162/3/6
f 156/3/6 157/3/6 162/3/6
f 162/3/6 161/3/6 163/3/6
f 162/2/6 163/2/6 164/2/6
f 163/3/6 161/3/6 164/3/6
f 161/2/6 151/2/6 165/2/6
f 164/3/6 161/3/6 165/3/6
f 162/2/6 164/2/6 166/2/6
f 156/3/6 162/3/6 166/3/6
f 164/2/6 165/2/6 166/2/6
f 166/2/6 165/2/6 167/2/6
f 150/2/6 156/2/6 168/2/6
f 168/2/6 156/2/6 169/2/6
f 150/2/6 168/2/6 170/2/6
f 168/3/6 169/3/6 170/3/6
f 169/2/6 156/2/6 171/2/6
f 170/3/6 169/3/6 171/3/6
f 150/2/6 170/2/6 172/2/6
f 170/2/6 171/2/6 172/2/6
f 172/2/6 171/2/6 173/2/6
f 173/2/6 171/2/6 174/2/6
f 156/3/6 166/3/6 175/3/6
f 174/2/6 171/2/6 175/2/6
f 166/3/6 167/3/6 175/3/6
f 171/2/6 156/2/6 175/2/6
f 167/2/6 165/2/6 176/2/6
f 175/3/6 167/3/6 176/3/6
f 165/2/6 151/2/6 177/2/6
f 176/2/6 165/2/6 177/2/6
f 172/3/6 173/3/6 178/3/6
f 150/2/6 172/2/6 178/2/6
f 173/2/6 174/2/6 179/2/6
f 178/3/6 173/3/6 179/3/6
f 179/2/6 174/2/6 180/2/6
f 175/3/6 176/3/6 181/3/6
f 180/2/6 174/2/6 181/2/6
f 174/3/6 175/3/6 181/3/6
f 176/3/6 177/3/6 181/3/6
f 179/2/6 180/2/6 182/2/6
f 178/2/6 179/2/6 182/2/6
f 150/2/6 178/2/6 182/2/6
f 180/3/6 181/3/6 183/3/6
f 182/2/6 180/2/6 183/2/6
f 150/2/6 182/2/6 184/2/6
f 182/3/6 183/3/6 184/3/6
f 181/3/6 177/3/6 185/3/6
f 184/3/6 183/3/6 185/3/6
f 183/3/6 181/3/6 185/3/6
f 184/2/6 185/2/6 186/2/6
f 185/3/6 177/3/6 186/3/6
f 186/3/6 177/3/6 187/3/6
f 187/3/6 177/3/6 188/3/6
f 188/3/6 177/3/6 189/3/6
f 189/3/6 177/3/6 190/3/6
f 190/3/6 177/3/6 191/3/6
f 191/3/6 177/3/6 192/3/6
f 177/2/6 151/2/6 193/2/6
f 192/3/6 177/3/6 193/3/6
f 188/2/6 189/2/6 194/2/6
f 189/3/6 190/3/6 194/3/6
f 190/2/6 191/2/6 195/2/6
f 194/3/6 190/3/6 195/3/6
f 193/2/6 151/2/6 196/2/6
f 192/2/6 193/2/6 196/2/6
f 196/2/6 151/2/6 197/2/6
f 191/3/6 192/3/6 198/3/6
f 195/2/6 191/2/6 198/2/6
f 194/2/6 195/2/6 198/2/6
f 192/2/6 196/2/6 199/2/6
f 198/3/6 192/3/6 199/3/6
f 186/2/6 187/2/6 200/2/6
f 187/3/6 188/3/6 200/3/6
f 198/2/6 199/2/6 201/2/6
f 200/3/6 188/3/6 201/3/6
f 194/2/6 198/2/6 201/2/6
f 188/2/6 194/2/6 201/2/6
f 201/2/6 199/2/6 202/2/6
f 199/2/6 196/2/6 203/2/6
f 202/2/6 199/2/6 203/2/6
f 196/3/6 197/3/6 204/3/6
f 203/2/6 196/2/6 204/2/6
f 197/2/6 151/2/6 205/2/6
f 204/3/6 197/3/6 205/3/6
f 201/2/6 202/2/6 206/2/6
f 202/3/6 203/3/6 206/3/6
f 200/2/6 201/2/6 206/2/6
f 203/2/6 204/2/6 207/2/6
f 206/3/6 203/3/6 207/3/6
f 204/2/6 205/2/6 207/2/6
f 150/2/6 184/2/6 208/2/6
f 200/2/6 206/2/6 208/2/6
f 206/2/6 207/2/6 208/2/6
f 186/2/6 200/2/6 208/2/6
f 184/2/6 186/2/6 208/2/6
f 208/2/6 207/2/6 209/2/6
f 150/2/6 208/2/6 210/2/6
f 208/3/6 209/3/6 210/3/6
f 209/2/6 207/2/6 211/2/6
f 210/3/6 209/3/6 211/3/6
f 211/2/6 207/2/6 212/2/6
f 212/2/6 207/2/6 213/2/6
f 210/2/6 211/2/6 214/2/6
f 211/2/6 212/2/6 214/2/6
f 214/2/6 212/2/6 215/2/6
f 213/2/6 207/2/6 216/2/6
f 216/2/6 207/2/6 217/2/6
f 213/2/6 216/2/6 218/2/6
f 216/3/6 217/3/6 218/3/6
f 217/2/6 207/2/6 219/2/6
f 218/3/6 217/3/6 219/3/6
f 215/2/6 212/2/6 220/2/6
f 212/3/6 213/3/6 220/3/6
f 218/2/6 219/2/6 221/2/6
f 220/3/6 213/3/6 221/3/6
f 213/2/6 218/2/6 221/2/6
f 210/2/6 214/2/6 222/2/6
f 214/3/6 215/3/6 222/3/6
f 215/2/6 220/2/6 223/2/6
f 222/3/6 215/3/6 223/3/6
f 220/2/6 221/2/6 223/2/6
f 221/2/6 219/2/6 224/2/6
f 223/2/6 221/2/6 224/2/6
f 224/2/6 219/2/6 225/2/6
f 222/2/6 223/2/6 226/2/6
f 223/2/6 224/2/6 226/2/6
f 224/3/6 225/3/6 226/3/6
f 225/2/6 219/2/6 227/2/6
f 226/3/6 225/3/6 227/3/6
f 222/2/6 226/2/6 228/2/6
f 226/2/6 227/2/6 228/2/6
f 227/2/6 219/2/6 229/2/6
f 228/2/6 227/2/6 229/2/6
f 222/2/6 228/2/6 230/2/6
f 228/3/6 229/3/6 230/3/6
f 230/3/6 229/3/6 231/3/6
f 150/2/6 210/2/6 232/2/6
f 210/2/6 222/2/6 232/2/6
f 230/2/6 231/2/6 232/2/6
f 222/2/6 230/2/6 232/2/6
f 232/2/6 231/2/6 233/2/6
f 232/3/6 233/3/6 234/3/6
f 233/2/6 231/2/6 234/2/6
f 234/2/6 231/2/6 235/2/6
f 235/2/6 231/2/6 236/2/6
f 236/2/6 231/2/6 237/2/6
f 232/3/6 234/3/6 238/3/6
f 234/3/6 235/3/6 238/3/6
f 235/2/6 236/2/6 239/2/6
f 238/3/6 235/3/6 239/3/6
f 236/3/6 237/3/6 240/3/6
f 237/2/6 231/2/6 241/2/6
f 240/3/6 237/3/6 241/3/6
f 236/3/6 240/3/6 242/3/6
f 239/2/6 236/2/6 242/2/6
f 238/2/6 239/2/6 242/2/6
f 240/2/6 241/2/6 243/2/6
f 242/3/6 240/3/6 243/3/6
f 150/2/6 232/2/6 244/2/6
f 232/3/6 238/3/6 245/3/6
f 244/2/6 232/2/6 245/2/6
f 238/2/6 242/2/6 246/2/6
f 245/3/6 238/3/6 246/3/6
f 242/2/6 243/2/6 246/2/6
f 231/3/6 229/3/6 247/3/6
f 246/2/6 243/2/6 247/2/6
f 243/2/6 241/2/6 247/2/6
f 241/2/6 231/2/6 247/2/6
f 229/2/6 219/2/6 248/2/6
f 247/3/6 229/3/6 248/3/6
f 207/2/6 205/2/6 249/2/6
f 248/2/6 219/2/6 249/2/6
f 205/2/6 151/2/6 249/2/6
f 219/2/6 207/2/6 249/2/6
f 250/2/6 251/2/6 252/2/6
f 252/2/6 251/2/6 253/2/6
f 250/2/6 252/2/6 254/2/6
f 254/2/6 252/2/6 255/2/6
