# MagicaVoxel @ Ephtracy

# group
g 4x2 first (1)-4

# material
mtllib 4x2 first (1)-4.mtl
usemtl palette

# normals
vn -1 0 0
vn 1 0 0
vn 0 0 1
vn 0 0 -1
vn 0 -1 0
vn 0 1 0

# texcoords
vt 0.251953 0.5
vt 0.369141 0.5
vt 0.966797 0.5

# verts
v -63 0 63
v -63 0 -62
v -63 0 -63
v -63 4 -21
v -63 4 -51
v -63 5 -21
v -63 5 -51
v -63 45 -21
v -63 45 -51
v -63 80 63
v -63 80 -62
v -63 80 -63
v -62 5 63
v -62 5 -21
v -62 5 -51
v -62 5 -61
v -62 45 -21
v -62 45 -51
v -62 80 63
v -62 80 -61
v 63 0 63
v 63 0 -62
v 63 0 -63
v 63 4 63
v 63 4 -61
v 63 5 63
v 63 5 -61
v 63 80 -61
v 63 80 -62
v 63 80 -63
v -63 0 63
v -63 80 63
v -62 4 63
v -62 5 63
v -62 80 63
v 63 0 63
v 63 4 63
v 63 5 63
v -63 5 -51
v -63 45 -51
v -62 5 -51
v -62 45 -51
v -62 5 -61
v -62 80 -61
v 63 5 -61
v 63 80 -61
v -63 5 -21
v -63 45 -21
v -62 5 -21
v -62 45 -21
v -63 0 -63
v -63 80 -63
v 63 0 -63
v 63 80 -63
v -63 0 63
v 63 0 63
v -63 0 -62
v 63 0 -62
v -63 0 -63
v 63 0 -63
v -63 45 -21
v -62 45 -21
v -63 45 -51
v -62 45 -51
v -62 5 63
v 63 5 63
v -63 5 -21
v -62 5 -21
v -63 5 -51
v -62 5 -51
v -62 5 -61
v 63 5 -61
v -63 80 63
v -62 80 63
v -62 80 -61
v 63 80 -61
v -63 80 -62
v 63 80 -62
v -63 80 -63
v 63 80 -63

# faces
f 4/3/1 2/3/1 1/3/1
f 5/3/1 2/3/1 4/3/1
f 6/3/1 4/3/1 1/3/1
f 6/2/1 5/2/1 4/2/1
f 7/3/1 2/3/1 5/3/1
f 7/2/1 5/2/1 6/2/1
f 8/3/1 6/3/1 1/3/1
f 9/3/1 2/3/1 7/3/1
f 10/3/1 8/3/1 1/3/1
f 10/3/1 9/3/1 8/3/1
f 11/1/1 3/1/1 2/1/1
f 11/3/1 9/3/1 10/3/1
f 11/3/1 2/3/1 9/3/1
f 12/1/1 3/1/1 11/1/1
f 13/3/2 14/3/2 17/3/2
f 15/3/2 16/3/2 18/3/2
f 13/3/2 17/3/2 19/3/2
f 17/3/2 18/3/2 19/3/2
f 18/3/2 16/3/2 20/3/2
f 19/3/2 18/3/2 20/3/2
f 21/3/2 22/3/2 24/3/2
f 24/3/2 22/3/2 25/3/2
f 24/2/2 25/2/2 26/2/2
f 25/3/2 22/3/2 27/3/2
f 26/2/2 25/2/2 27/2/2
f 27/3/2 22/3/2 28/3/2
f 22/1/2 23/1/2 29/1/2
f 28/3/2 22/3/2 29/3/2
f 29/1/2 23/1/2 30/1/2
f 33/3/3 32/3/3 31/3/3
f 34/3/3 32/3/3 33/3/3
f 35/3/3 32/3/3 34/3/3
f 36/3/3 33/3/3 31/3/3
f 37/2/3 34/2/3 33/2/3
f 37/3/3 33/3/3 36/3/3
f 38/2/3 34/2/3 37/2/3
f 41/3/3 40/3/3 39/3/3
f 42/3/3 40/3/3 41/3/3
f 45/3/3 44/3/3 43/3/3
f 46/3/3 44/3/3 45/3/3
f 47/3/4 48/3/4 49/3/4
f 49/3/4 48/3/4 50/3/4
f 51/1/4 52/1/4 53/1/4
f 53/1/4 52/1/4 54/1/4
f 57/3/5 56/3/5 55/3/5
f 58/3/5 56/3/5 57/3/5
f 59/1/5 58/1/5 57/1/5
f 60/1/5 58/1/5 59/1/5
f 63/3/5 62/3/5 61/3/5
f 64/3/5 62/3/5 63/3/5
f 65/2/6 66/2/6 68/2/6
f 67/2/6 68/2/6 69/2/6
f 68/2/6 66/2/6 70/2/6
f 69/2/6 68/2/6 70/2/6
f 70/2/6 66/2/6 71/2/6
f 71/2/6 66/2/6 72/2/6
f 73/3/6 74/3/6 75/3/6
f 73/3/6 75/3/6 77/3/6
f 75/3/6 76/3/6 77/3/6
f 77/3/6 76/3/6 78/3/6
f 77/1/6 78/1/6 79/1/6
f 79/1/6 78/1/6 80/1/6
