# MagicaVoxel @ Ephtracy

# group
g 4x2 roof-5

# material
mtllib 4x2 roof-5.mtl
usemtl palette

# normals
vn -1 0 0
vn 1 0 0
vn 0 0 1
vn 0 0 -1
vn 0 -1 0
vn 0 1 0

# texcoords
vt 0.251953 0.5
vt 0.966797 0.5

# verts
v 29 0 63
v 29 0 -63
v 29 1 63
v 29 1 -63
v 63 0 63
v 63 0 -62
v 63 0 -63
v 63 1 63
v 63 1 -62
v 63 1 -63
v 29 0 63
v 29 1 63
v 30 0 63
v 30 1 63
v 63 0 63
v 63 1 63
v 29 0 -63
v 29 1 -63
v 63 0 -63
v 63 1 -63
v 29 0 63
v 30 0 63
v 63 0 63
v 30 0 -62
v 63 0 -62
v 29 0 -63
v 63 0 -63
v 29 1 63
v 30 1 63
v 63 1 63
v 30 1 -62
v 63 1 -62
v 29 1 -63
v 63 1 -63

# faces
f 3/1/1 2/1/1 1/1/1
f 4/1/1 2/1/1 3/1/1
f 5/2/2 6/2/2 8/2/2
f 6/1/2 7/1/2 9/1/2
f 8/2/2 6/2/2 9/2/2
f 9/1/2 7/1/2 10/1/2
f 13/1/3 12/1/3 11/1/3
f 14/1/3 12/1/3 13/1/3
f 15/2/3 14/2/3 13/2/3
f 16/2/3 14/2/3 15/2/3
f 17/1/4 18/1/4 19/1/4
f 19/1/4 18/1/4 20/1/4
f 24/1/5 22/1/5 21/1/5
f 24/2/5 23/2/5 22/2/5
f 25/2/5 23/2/5 24/2/5
f 26/1/5 24/1/5 21/1/5
f 26/1/5 25/1/5 24/1/5
f 27/1/5 25/1/5 26/1/5
f 28/1/6 29/1/6 31/1/6
f 29/2/6 30/2/6 31/2/6
f 31/2/6 30/2/6 32/2/6
f 28/1/6 31/1/6 33/1/6
f 31/1/6 32/1/6 33/1/6
f 33/1/6 32/1/6 34/1/6
