# MagicaVoxel @ Ephtracy

# group
g 4x2 first-0

# material
mtllib 4x2 first-0.mtl
usemtl palette

# normals
vn -1 0 0
vn 1 0 0
vn 0 0 1
vn 0 0 -1
vn 0 -1 0
vn 0 1 0

# texcoords
vt 0.251953 0.5
vt 0.962891 0.5
vt 0.966797 0.5
vt 0.970703 0.5
vt 0.982422 0.5

# verts
v -63 0 63
v -63 0 -63
v -63 80 63
v -63 80 -63
v -26 5 9
v -26 5 8
v -26 45 9
v -26 45 8
v 11 5 8
v 11 5 -21
v 11 5 -51
v 11 5 -61
v 11 45 -21
v 11 45 -51
v 11 80 8
v 11 80 -61
v -61 5 63
v -61 5 9
v -61 5 8
v -61 5 -61
v -61 80 63
v -61 80 9
v -61 80 8
v -61 80 -61
v -56 5 9
v -56 5 8
v -56 45 9
v -56 45 8
v 13 5 9
v 13 5 -13
v 13 5 -14
v 13 5 -21
v 13 5 -51
v 13 5 -61
v 13 45 -21
v 13 45 -51
v 13 80 9
v 13 80 -13
v 13 80 -14
v 13 80 -61
v 63 0 63
v 63 0 -62
v 63 0 -63
v 63 4 63
v 63 4 30
v 63 4 -13
v 63 5 63
v 63 5 30
v 63 5 -13
v 63 5 -14
v 63 5 -61
v 63 80 -13
v 63 80 -14
v 63 80 -61
v 63 80 -62
v 63 80 -63
v -63 0 63
v -63 80 63
v -62 0 63
v -62 80 63
v -61 4 63
v -61 5 63
v -61 80 63
v -40 4 63
v -40 5 63
v -37 4 63
v -37 5 63
v 33 4 63
v 33 5 63
v 36 4 63
v 36 5 63
v 60 4 63
v 60 5 63
v 63 0 63
v 63 4 63
v 63 5 63
v -61 5 9
v -61 80 9
v -56 5 9
v -56 45 9
v -26 5 9
v -26 45 9
v 13 5 9
v 13 80 9
v 13 5 -13
v 13 80 -13
v 63 5 -13
v 63 80 -13
v 11 5 -51
v 11 45 -51
v 13 5 -51
v 13 45 -51
v -61 5 -61
v -61 80 -61
v 11 5 -61
v 11 80 -61
v 13 5 -61
v 13 80 -61
v 63 5 -61
v 63 80 -61
v -61 5 8
v -61 80 8
v -56 5 8
v -56 45 8
v -26 5 8
v -26 45 8
v 11 5 8
v 11 80 8
v 13 5 -14
v 13 80 -14
v 63 5 -14
v 63 80 -14
v 11 5 -21
v 11 45 -21
v 13 5 -21
v 13 45 -21
v -63 0 -63
v -63 80 -63
v 63 0 -63
v 63 80 -63
v -63 0 63
v -62 0 63
v 63 0 63
v -62 0 -62
v 63 0 -62
v -63 0 -63
v 63 0 -63
v -56 45 9
v -26 45 9
v -56 45 8
v -26 45 8
v 11 45 -21
v 13 45 -21
v 11 45 -51
v 13 45 -51
v -61 5 63
v -40 5 63
v -37 5 63
v 33 5 63
v 36 5 63
v 60 5 63
v 63 5 63
v -37 5 33
v 33 5 33
v -40 5 30
v 36 5 30
v 60 5 30
v 63 5 30
v -61 5 9
v -56 5 9
v -26 5 9
v 13 5 9
v -61 5 8
v -56 5 8
v -26 5 8
v 11 5 8
v 13 5 -13
v 63 5 -13
v 13 5 -14
v 63 5 -14
v 11 5 -21
v 13 5 -21
v 11 5 -51
v 13 5 -51
v -61 5 -61
v 11 5 -61
v 13 5 -61
v 63 5 -61
v -63 80 63
v -62 80 63
v -61 80 63
v -61 80 9
v 13 80 9
v -61 80 8
v 11 80 8
v 13 80 -13
v 63 80 -13
v 13 80 -14
v 63 80 -14
v -61 80 -61
v 11 80 -61
v 13 80 -61
v 63 80 -61
v -62 80 -62
v 63 80 -62
v -63 80 -63
v 63 80 -63

# faces
f 3/1/1 2/1/1 1/1/1
f 4/1/1 2/1/1 3/1/1
f 7/4/1 6/4/1 5/4/1
f 8/4/1 6/4/1 7/4/1
f 13/4/1 10/4/1 9/4/1
f 14/4/1 12/4/1 11/4/1
f 15/4/1 13/4/1 9/4/1
f 15/4/1 14/4/1 13/4/1
f 16/4/1 12/4/1 14/4/1
f 16/4/1 14/4/1 15/4/1
f 17/3/2 18/3/2 21/3/2
f 21/3/2 18/3/2 22/3/2
f 19/3/2 20/3/2 23/3/2
f 23/3/2 20/3/2 24/3/2
f 25/4/2 26/4/2 27/4/2
f 27/4/2 26/4/2 28/4/2
f 31/4/2 32/4/2 35/4/2
f 33/4/2 34/4/2 36/4/2
f 29/4/2 30/4/2 37/4/2
f 37/4/2 30/4/2 38/4/2
f 35/4/2 36/4/2 39/4/2
f 31/4/2 35/4/2 39/4/2
f 36/4/2 34/4/2 40/4/2
f 39/4/2 36/4/2 40/4/2
f 41/3/2 42/3/2 44/3/2
f 44/3/2 42/3/2 45/3/2
f 45/3/2 42/3/2 46/3/2
f 44/2/2 45/2/2 47/2/2
f 45/5/2 46/5/2 48/5/2
f 47/2/2 45/2/2 48/2/2
f 46/3/2 42/3/2 49/3/2
f 48/5/2 46/5/2 49/5/2
f 49/3/2 42/3/2 50/3/2
f 50/3/2 42/3/2 51/3/2
f 49/3/2 50/3/2 52/3/2
f 52/3/2 50/3/2 53/3/2
f 51/3/2 42/3/2 54/3/2
f 42/1/2 43/1/2 55/1/2
f 54/3/2 42/3/2 55/3/2
f 55/1/2 43/1/2 56/1/2
f 59/1/3 58/1/3 57/1/3
f 60/1/3 58/1/3 59/1/3
f 61/3/3 60/3/3 59/3/3
f 62/3/3 60/3/3 61/3/3
f 63/3/3 60/3/3 62/3/3
f 64/3/3 61/3/3 59/3/3
f 64/5/3 62/5/3 61/5/3
f 65/5/3 62/5/3 64/5/3
f 66/3/3 64/3/3 59/3/3
f 66/2/3 65/2/3 64/2/3
f 67/2/3 65/2/3 66/2/3
f 68/3/3 66/3/3 59/3/3
f 68/5/3 67/5/3 66/5/3
f 69/5/3 67/5/3 68/5/3
f 70/3/3 68/3/3 59/3/3
f 70/2/3 69/2/3 68/2/3
f 71/2/3 69/2/3 70/2/3
f 72/3/3 70/3/3 59/3/3
f 72/5/3 71/5/3 70/5/3
f 73/5/3 71/5/3 72/5/3
f 74/3/3 72/3/3 59/3/3
f 75/2/3 73/2/3 72/2/3
f 75/3/3 72/3/3 74/3/3
f 76/2/3 73/2/3 75/2/3
f 79/4/3 78/4/3 77/4/3
f 80/4/3 78/4/3 79/4/3
f 82/4/3 78/4/3 80/4/3
f 83/4/3 82/4/3 81/4/3
f 84/4/3 78/4/3 82/4/3
f 84/4/3 82/4/3 83/4/3
f 87/3/3 86/3/3 85/3/3
f 88/3/3 86/3/3 87/3/3
f 91/4/3 90/4/3 89/4/3
f 92/4/3 90/4/3 91/4/3
f 95/3/3 94/3/3 93/3/3
f 96/3/3 94/3/3 95/3/3
f 99/3/3 98/3/3 97/3/3
f 100/3/3 98/3/3 99/3/3
f 101/4/4 102/4/4 103/4/4
f 103/4/4 102/4/4 104/4/4
f 104/4/4 102/4/4 106/4/4
f 105/4/4 106/4/4 107/4/4
f 106/4/4 102/4/4 108/4/4
f 107/4/4 106/4/4 108/4/4
f 109/3/4 110/3/4 111/3/4
f 111/3/4 110/3/4 112/3/4
f 113/4/4 114/4/4 115/4/4
f 115/4/4 114/4/4 116/4/4
f 117/1/4 118/1/4 119/1/4
f 119/1/4 118/1/4 120/1/4
f 124/1/5 122/1/5 121/1/5
f 124/3/5 123/3/5 122/3/5
f 125/3/5 123/3/5 124/3/5
f 126/1/5 124/1/5 121/1/5
f 126/1/5 125/1/5 124/1/5
f 127/1/5 125/1/5 126/1/5
f 130/4/5 129/4/5 128/4/5
f 131/4/5 129/4/5 130/4/5
f 134/4/5 133/4/5 132/4/5
f 135/4/5 133/4/5 134/4/5
f 137/2/6 138/2/6 143/2/6
f 138/5/6 139/5/6 143/5/6
f 139/2/6 140/2/6 144/2/6
f 143/5/6 139/5/6 144/5/6
f 136/5/6 137/5/6 145/5/6
f 137/2/6 143/2/6 145/2/6
f 143/2/6 144/2/6 145/2/6
f 144/2/6 140/2/6 146/2/6
f 145/2/6 144/2/6 146/2/6
f 140/5/6 141/5/6 146/5/6
f 141/2/6 142/2/6 147/2/6
f 146/5/6 141/5/6 147/5/6
f 147/2/6 142/2/6 148/2/6
f 136/5/6 145/5/6 149/5/6
f 145/5/6 146/5/6 149/5/6
f 147/5/6 148/5/6 149/5/6
f 146/5/6 147/5/6 149/5/6
f 149/5/6 148/5/6 150/5/6
f 150/5/6 148/5/6 151/5/6
f 151/5/6 148/5/6 152/5/6
f 150/3/6 151/3/6 154/3/6
f 154/3/6 151/3/6 155/3/6
f 152/5/6 148/5/6 157/5/6
f 157/5/6 148/5/6 158/5/6
f 155/3/6 156/3/6 161/3/6
f 153/3/6 154/3/6 161/3/6
f 154/3/6 155/3/6 161/3/6
f 159/3/6 160/3/6 162/3/6
f 153/3/6 161/3/6 163/3/6
f 161/3/6 162/3/6 163/3/6
f 162/3/6 160/3/6 164/3/6
f 163/3/6 162/3/6 164/3/6
f 153/3/6 163/3/6 165/3/6
f 165/3/6 163/3/6 166/3/6
f 164/3/6 160/3/6 167/3/6
f 167/3/6 160/3/6 168/3/6
f 170/3/6 171/3/6 172/3/6
f 170/3/6 172/3/6 174/3/6
f 172/4/6 173/4/6 174/4/6
f 174/4/6 173/4/6 175/4/6
f 175/4/6 173/4/6 176/4/6
f 175/4/6 176/4/6 178/4/6
f 176/3/6 177/3/6 178/3/6
f 178/3/6 177/3/6 179/3/6
f 170/3/6 174/3/6 180/3/6
f 175/4/6 178/4/6 181/4/6
f 181/4/6 178/4/6 182/4/6
f 169/1/6 170/1/6 184/1/6
f 182/3/6 183/3/6 184/3/6
f 181/3/6 182/3/6 184/3/6
f 180/3/6 181/3/6 184/3/6
f 170/3/6 180/3/6 184/3/6
f 184/3/6 183/3/6 185/3/6
f 169/1/6 184/1/6 186/1/6
f 184/1/6 185/1/6 186/1/6
f 186/1/6 185/1/6 187/1/6
