# MagicaVoxel @ Ephtracy

# group
g 4x2 second-2

# material
mtllib 4x2 second-2.mtl
usemtl palette

# normals
vn -1 0 0
vn 1 0 0
vn 0 0 1
vn 0 0 -1
vn 0 -1 0
vn 0 1 0

# texcoords
vt 0.251953 0.5
vt 0.966797 0.5

# verts
v -63 0 63
v -63 0 -62
v -63 0 -63
v -63 1 63
v -63 1 -61
v -63 80 -61
v -63 80 -62
v -63 80 -63
v 62 1 63
v 62 1 14
v 62 1 -16
v 62 1 -61
v 62 41 14
v 62 41 -16
v 62 80 63
v 62 80 -61
v 63 0 63
v 63 0 -62
v 63 0 -63
v 63 1 14
v 63 1 -16
v 63 41 14
v 63 41 -16
v 63 80 63
v 63 80 -62
v 63 80 -63
v -63 0 63
v -63 1 63
v 62 1 63
v 62 80 63
v 63 0 63
v 63 80 63
v 62 1 -16
v 62 41 -16
v 63 1 -16
v 63 41 -16
v -63 1 -61
v -63 80 -61
v 62 1 -61
v 62 80 -61
v 62 1 14
v 62 41 14
v 63 1 14
v 63 41 14
v -63 0 -63
v -63 80 -63
v 63 0 -63
v 63 80 -63
v -63 0 63
v 63 0 63
v -63 0 -62
v 63 0 -62
v -63 0 -63
v 63 0 -63
v 62 41 14
v 63 41 14
v 62 41 -16
v 63 41 -16
v -63 1 63
v 62 1 63
v 62 1 14
v 63 1 14
v 62 1 -16
v 63 1 -16
v -63 1 -61
v 62 1 -61
v 62 80 63
v 63 80 63
v -63 80 -61
v 62 80 -61
v -63 80 -62
v 63 80 -62
v -63 80 -63
v 63 80 -63

# faces
f 4/2/1 2/2/1 1/2/1
f 5/2/1 2/2/1 4/2/1
f 6/2/1 2/2/1 5/2/1
f 7/1/1 3/1/1 2/1/1
f 7/2/1 2/2/1 6/2/1
f 8/1/1 3/1/1 7/1/1
f 13/2/1 10/2/1 9/2/1
f 14/2/1 12/2/1 11/2/1
f 15/2/1 13/2/1 9/2/1
f 15/2/1 14/2/1 13/2/1
f 16/2/1 12/2/1 14/2/1
f 16/2/1 14/2/1 15/2/1
f 17/2/2 18/2/2 20/2/2
f 20/2/2 18/2/2 21/2/2
f 17/2/2 20/2/2 22/2/2
f 21/2/2 18/2/2 23/2/2
f 17/2/2 22/2/2 24/2/2
f 22/2/2 23/2/2 24/2/2
f 18/1/2 19/1/2 25/1/2
f 24/2/2 23/2/2 25/2/2
f 23/2/2 18/2/2 25/2/2
f 25/1/2 19/1/2 26/1/2
f 29/2/3 28/2/3 27/2/3
f 31/2/3 29/2/3 27/2/3
f 31/2/3 30/2/3 29/2/3
f 32/2/3 30/2/3 31/2/3
f 35/2/3 34/2/3 33/2/3
f 36/2/3 34/2/3 35/2/3
f 39/2/3 38/2/3 37/2/3
f 40/2/3 38/2/3 39/2/3
f 41/2/4 42/2/4 43/2/4
f 43/2/4 42/2/4 44/2/4
f 45/1/4 46/1/4 47/1/4
f 47/1/4 46/1/4 48/1/4
f 51/2/5 50/2/5 49/2/5
f 52/2/5 50/2/5 51/2/5
f 53/1/5 52/1/5 51/1/5
f 54/1/5 52/1/5 53/1/5
f 57/2/5 56/2/5 55/2/5
f 58/2/5 56/2/5 57/2/5
f 59/2/6 60/2/6 61/2/6
f 59/2/6 61/2/6 63/2/6
f 61/2/6 62/2/6 63/2/6
f 63/2/6 62/2/6 64/2/6
f 59/2/6 63/2/6 65/2/6
f 65/2/6 63/2/6 66/2/6
f 67/2/6 68/2/6 70/2/6
f 69/2/6 70/2/6 71/2/6
f 70/2/6 68/2/6 72/2/6
f 71/2/6 70/2/6 72/2/6
f 71/1/6 72/1/6 73/1/6
f 73/1/6 72/1/6 74/1/6
