# MagicaVoxel @ Ephtracy

# group
g 4x2 second (1)-5

# material
mtllib 4x2 second (1)-5.mtl
usemtl palette

# normals
vn -1 0 0
vn 1 0 0
vn 0 0 1
vn 0 0 -1
vn 0 -1 0
vn 0 1 0

# texcoords
vt 0.251953 0.5
vt 0.279297 0.5
vt 0.369141 0.5
vt 0.966797 0.5

# verts
v -63 0 63
v -63 0 62
v -63 0 61
v -63 0 -62
v -63 0 -63
v -63 1 61
v -63 1 -62
v -63 8 63
v -63 8 62
v -63 45 63
v -63 45 62
v -63 80 63
v -63 80 62
v -63 80 61
v -63 80 -62
v -63 80 -63
v 18 1 -62
v 18 1 -63
v 18 41 -62
v 18 41 -63
v 61 1 61
v 61 1 -62
v 61 80 61
v 61 80 -62
v -12 1 -62
v -12 1 -63
v -12 41 -62
v -12 41 -63
v 63 0 63
v 63 0 -63
v 63 80 63
v 63 80 -63
v -63 0 63
v -63 8 63
v -63 45 63
v -63 80 63
v -61 46 63
v -61 56 63
v -57 3 63
v -57 6 63
v -53 3 63
v -53 4 63
v -53 44 63
v -53 45 63
v -51 4 63
v -51 6 63
v -50 4 63
v -50 8 63
v -43 15 63
v -43 16 63
v -43 34 63
v -43 39 63
v -43 44 63
v -43 46 63
v -42 4 63
v -42 15 63
v -42 46 63
v -42 56 63
v -40 34 63
v -40 35 63
v -39 39 63
v -39 46 63
v -36 34 63
v -36 35 63
v -28 34 63
v -28 42 63
v -24 16 63
v -24 32 63
v -23 32 63
v -23 42 63
v -21 32 63
v -21 38 63
v -8 32 63
v -8 38 63
v 63 0 63
v 63 80 63
v -63 1 -62
v -63 80 -62
v -12 1 -62
v -12 41 -62
v 18 1 -62
v 18 41 -62
v 61 1 -62
v 61 80 -62
v -63 1 61
v -63 80 61
v 61 1 61
v 61 80 61
v -63 0 -63
v -63 80 -63
v -12 0 -63
v -12 1 -63
v -12 41 -63
v 18 0 -63
v 18 1 -63
v 18 41 -63
v 62 0 -63
v 62 80 -63
v 63 0 -63
v 63 80 -63
v -63 0 63
v 63 0 63
v -63 0 62
v 62 0 62
v -63 0 61
v 61 0 61
v -63 0 -62
v -12 0 -62
v 18 0 -62
v 61 0 -62
v -63 0 -63
v -12 0 -63
v 18 0 -63
v 62 0 -63
v 63 0 -63
v -12 41 -62
v 18 41 -62
v -12 41 -63
v 18 41 -63
v -63 1 61
v 61 1 61
v -63 1 -62
v -12 1 -62
v 18 1 -62
v 61 1 -62
v -12 1 -63
v 18 1 -63
v -63 80 63
v 63 80 63
v -63 80 62
v 62 80 62
v -63 80 61
v 61 80 61
v -63 80 -62
v 61 80 -62
v -63 80 -63
v 62 80 -63
v 63 80 -63

# faces
f 6/4/1 3/4/1 2/4/1
f 6/3/1 4/3/1 3/3/1
f 7/4/1 5/4/1 4/4/1
f 7/3/1 4/3/1 6/3/1
f 8/1/1 2/1/1 1/1/1
f 9/4/1 6/4/1 2/4/1
f 9/1/1 2/1/1 8/1/1
f 10/2/1 9/2/1 8/2/1
f 11/4/1 6/4/1 9/4/1
f 11/2/1 9/2/1 10/2/1
f 12/1/1 11/1/1 10/1/1
f 13/4/1 6/4/1 11/4/1
f 13/1/1 11/1/1 12/1/1
f 14/4/1 6/4/1 13/4/1
f 15/4/1 5/4/1 7/4/1
f 16/4/1 5/4/1 15/4/1
f 19/4/1 18/4/1 17/4/1
f 20/4/1 18/4/1 19/4/1
f 23/4/1 22/4/1 21/4/1
f 24/4/1 22/4/1 23/4/1
f 25/4/2 26/4/2 27/4/2
f 27/4/2 26/4/2 28/4/2
f 29/1/2 30/1/2 31/1/2
f 31/1/2 30/1/2 32/1/2
f 37/1/3 36/1/3 35/1/3
f 38/1/3 36/1/3 37/1/3
f 39/1/3 34/1/3 33/1/3
f 40/1/3 34/1/3 39/1/3
f 41/1/3 39/1/3 33/1/3
f 41/2/3 40/2/3 39/2/3
f 42/2/3 40/2/3 41/2/3
f 43/2/3 35/2/3 34/2/3
f 44/1/3 37/1/3 35/1/3
f 44/2/3 35/2/3 43/2/3
f 45/2/3 40/2/3 42/2/3
f 45/1/3 42/1/3 41/1/3
f 46/1/3 34/1/3 40/1/3
f 46/2/3 40/2/3 45/2/3
f 47/1/3 45/1/3 41/1/3
f 47/1/3 46/1/3 45/1/3
f 48/2/3 43/2/3 34/2/3
f 48/1/3 46/1/3 47/1/3
f 48/1/3 34/1/3 46/1/3
f 49/2/3 48/2/3 47/2/3
f 49/2/3 43/2/3 48/2/3
f 50/2/3 43/2/3 49/2/3
f 51/2/3 43/2/3 50/2/3
f 52/2/3 43/2/3 51/2/3
f 53/1/3 44/1/3 43/1/3
f 53/2/3 43/2/3 52/2/3
f 54/1/3 37/1/3 44/1/3
f 54/1/3 44/1/3 53/1/3
f 54/2/3 38/2/3 37/2/3
f 55/1/3 47/1/3 41/1/3
f 55/2/3 49/2/3 47/2/3
f 56/1/3 50/1/3 49/1/3
f 56/2/3 49/2/3 55/2/3
f 57/2/3 53/2/3 52/2/3
f 57/2/3 38/2/3 54/2/3
f 57/2/3 54/2/3 53/2/3
f 58/1/3 36/1/3 38/1/3
f 58/2/3 38/2/3 57/2/3
f 59/2/3 51/2/3 50/2/3
f 59/1/3 52/1/3 51/1/3
f 60/1/3 52/1/3 59/1/3
f 61/2/3 57/2/3 52/2/3
f 61/1/3 52/1/3 60/1/3
f 62/1/3 58/1/3 57/1/3
f 62/2/3 57/2/3 61/2/3
f 63/2/3 60/2/3 59/2/3
f 63/2/3 59/2/3 50/2/3
f 64/1/3 61/1/3 60/1/3
f 64/2/3 60/2/3 63/2/3
f 64/1/3 62/1/3 61/1/3
f 65/2/3 63/2/3 50/2/3
f 65/1/3 64/1/3 63/1/3
f 66/1/3 62/1/3 64/1/3
f 66/1/3 64/1/3 65/1/3
f 67/1/3 50/1/3 56/1/3
f 67/1/3 56/1/3 55/1/3
f 67/2/3 66/2/3 65/2/3
f 67/2/3 65/2/3 50/2/3
f 68/2/3 66/2/3 67/2/3
f 69/1/3 68/1/3 67/1/3
f 69/2/3 66/2/3 68/2/3
f 70/1/3 62/1/3 66/1/3
f 70/2/3 66/2/3 69/2/3
f 71/1/3 69/1/3 67/1/3
f 71/1/3 70/1/3 69/1/3
f 72/1/3 70/1/3 71/1/3
f 73/1/3 71/1/3 67/1/3
f 73/2/3 72/2/3 71/2/3
f 74/1/3 70/1/3 72/1/3
f 74/2/3 72/2/3 73/2/3
f 75/1/3 55/1/3 41/1/3
f 75/1/3 41/1/3 33/1/3
f 75/1/3 74/1/3 73/1/3
f 75/1/3 73/1/3 67/1/3
f 75/1/3 67/1/3 55/1/3
f 76/1/3 58/1/3 62/1/3
f 76/1/3 74/1/3 75/1/3
f 76/1/3 62/1/3 70/1/3
f 76/1/3 36/1/3 58/1/3
f 76/1/3 70/1/3 74/1/3
f 79/4/3 78/4/3 77/4/3
f 80/4/3 78/4/3 79/4/3
f 82/4/3 78/4/3 80/4/3
f 83/4/3 82/4/3 81/4/3
f 84/4/3 78/4/3 82/4/3
f 84/4/3 82/4/3 83/4/3
f 85/4/4 86/4/4 87/4/4
f 87/4/4 86/4/4 88/4/4
f 89/4/4 90/4/4 91/4/4
f 91/4/4 90/4/4 92/4/4
f 92/4/4 90/4/4 93/4/4
f 91/3/4 92/3/4 94/3/4
f 94/3/4 92/3/4 95/3/4
f 93/4/4 90/4/4 96/4/4
f 94/4/4 95/4/4 97/4/4
f 95/4/4 96/4/4 97/4/4
f 96/4/4 90/4/4 98/4/4
f 97/4/4 96/4/4 98/4/4
f 97/1/4 98/1/4 99/1/4
f 99/1/4 98/1/4 100/1/4
f 103/1/5 102/1/5 101/1/5
f 104/1/5 102/1/5 103/1/5
f 105/4/5 104/4/5 103/4/5
f 106/4/5 104/4/5 105/4/5
f 107/3/5 106/3/5 105/3/5
f 108/3/5 106/3/5 107/3/5
f 109/3/5 106/3/5 108/3/5
f 110/4/5 104/4/5 106/4/5
f 110/3/5 106/3/5 109/3/5
f 111/4/5 108/4/5 107/4/5
f 112/3/5 109/3/5 108/3/5
f 112/4/5 108/4/5 111/4/5
f 113/4/5 110/4/5 109/4/5
f 113/3/5 109/3/5 112/3/5
f 114/1/5 102/1/5 104/1/5
f 114/4/5 110/4/5 113/4/5
f 114/4/5 104/4/5 110/4/5
f 115/1/5 102/1/5 114/1/5
f 118/4/5 117/4/5 116/4/5
f 119/4/5 117/4/5 118/4/5
f 120/3/6 121/3/6 122/3/6
f 122/3/6 121/3/6 123/3/6
f 123/3/6 121/3/6 124/3/6
f 124/3/6 121/3/6 125/3/6
f 123/3/6 124/3/6 126/3/6
f 126/3/6 124/3/6 127/3/6
f 128/1/6 129/1/6 130/1/6
f 130/1/6 129/1/6 131/1/6
f 130/4/6 131/4/6 132/4/6
f 132/4/6 131/4/6 133/4/6
f 133/4/6 131/4/6 135/4/6
f 134/4/6 135/4/6 136/4/6
f 131/1/6 129/1/6 137/1/6
f 136/4/6 135/4/6 137/4/6
f 135/4/6 131/4/6 137/4/6
f 137/1/6 129/1/6 138/1/6
