# MagicaVoxel @ Ephtracy

# group
g 4x2 first-5

# material
mtllib 4x2 first-5.mtl
usemtl palette

# normals
vn -1 0 0
vn 1 0 0
vn 0 0 1
vn 0 0 -1
vn 0 -1 0
vn 0 1 0

# texcoords
vt 0.251953 0.5
vt 0.962891 0.5
vt 0.966797 0.5

# verts
v -63 0 63
v -63 0 62
v -63 0 -63
v -63 4 31
v -63 4 21
v -63 5 35
v -63 5 31
v -63 5 21
v -63 5 5
v -63 45 35
v -63 45 5
v -63 80 63
v -63 80 62
v -63 80 -63
v 25 5 -62
v 25 5 -63
v 25 45 -62
v 25 45 -63
v -62 5 61
v -62 5 51
v -62 5 41
v -62 5 35
v -62 5 5
v -62 5 1
v -62 5 -9
v -62 5 -19
v -62 5 -29
v -62 5 -39
v -62 5 -49
v -62 5 -59
v -62 5 -62
v -62 45 35
v -62 45 5
v -62 80 61
v -62 80 -62
v -5 5 -62
v -5 5 -63
v -5 45 -62
v -5 45 -63
v 63 0 63
v 63 0 62
v 63 0 -63
v 63 4 51
v 63 4 41
v 63 4 31
v 63 4 21
v 63 4 11
v 63 4 1
v 63 4 -9
v 63 4 -19
v 63 4 -29
v 63 4 -39
v 63 4 -49
v 63 4 -59
v 63 5 61
v 63 5 51
v 63 5 41
v 63 5 31
v 63 5 21
v 63 5 11
v 63 5 1
v 63 5 -9
v 63 5 -19
v 63 5 -29
v 63 5 -39
v 63 5 -49
v 63 5 -59
v 63 5 -62
v 63 80 63
v 63 80 62
v 63 80 61
v 63 80 -62
v 63 80 -63
v -63 0 63
v -63 80 63
v 63 0 63
v 63 80 63
v -63 5 5
v -63 45 5
v -62 5 5
v -62 45 5
v -62 5 -62
v -62 80 -62
v -5 5 -62
v -5 45 -62
v 25 5 -62
v 25 45 -62
v 63 5 -62
v 63 80 -62
v -62 5 61
v -62 80 61
v 63 5 61
v 63 80 61
v -63 5 35
v -63 45 35
v -62 5 35
v -62 45 35
v -63 0 -63
v -63 80 -63
v -5 5 -63
v -5 45 -63
v 25 5 -63
v 25 45 -63
v 63 0 -63
v 63 80 -63
v -63 0 63
v 63 0 63
v -63 0 62
v 63 0 62
v -63 0 -63
v 63 0 -63
v -63 45 35
v -62 45 35
v -63 45 5
v -62 45 5
v -5 45 -62
v 25 45 -62
v -5 45 -63
v 25 45 -63
v -62 5 61
v 63 5 61
v -62 5 51
v 63 5 51
v -62 5 41
v 63 5 41
v -63 5 35
v -62 5 35
v -63 5 31
v 63 5 31
v -63 5 21
v 63 5 21
v -62 5 11
v 63 5 11
v -63 5 5
v -62 5 5
v -62 5 1
v 63 5 1
v -62 5 -9
v 63 5 -9
v -62 5 -19
v 63 5 -19
v -62 5 -29
v 63 5 -29
v -62 5 -39
v 63 5 -39
v -62 5 -49
v 63 5 -49
v -62 5 -59
v 63 5 -59
v -62 5 -62
v -5 5 -62
v 25 5 -62
v 63 5 -62
v -5 5 -63
v 25 5 -63
v -63 80 63
v 63 80 63
v -63 80 62
v 63 80 62
v -62 80 61
v 63 80 61
v -62 80 -62
v 63 80 -62
v -63 80 -63
v 63 80 -63

# faces
f 4/3/1 3/3/1 2/3/1
f 5/3/1 3/3/1 4/3/1
f 6/3/1 4/3/1 2/3/1
f 7/2/1 5/2/1 4/2/1
f 7/3/1 4/3/1 6/3/1
f 8/3/1 3/3/1 5/3/1
f 8/2/1 5/2/1 7/2/1
f 9/3/1 3/3/1 8/3/1
f 10/3/1 6/3/1 2/3/1
f 11/3/1 3/3/1 9/3/1
f 12/1/1 2/1/1 1/1/1
f 13/3/1 11/3/1 10/3/1
f 13/1/1 2/1/1 12/1/1
f 13/3/1 10/3/1 2/3/1
f 14/3/1 3/3/1 11/3/1
f 14/3/1 11/3/1 13/3/1
f 17/3/1 16/3/1 15/3/1
f 18/3/1 16/3/1 17/3/1
f 19/3/2 20/3/2 32/3/2
f 20/3/2 21/3/2 32/3/2
f 21/3/2 22/3/2 32/3/2
f 30/3/2 31/3/2 33/3/2
f 29/3/2 30/3/2 33/3/2
f 27/3/2 28/3/2 33/3/2
f 26/3/2 27/3/2 33/3/2
f 25/3/2 26/3/2 33/3/2
f 24/3/2 25/3/2 33/3/2
f 23/3/2 24/3/2 33/3/2
f 28/3/2 29/3/2 33/3/2
f 19/3/2 32/3/2 34/3/2
f 32/3/2 33/3/2 34/3/2
f 33/3/2 31/3/2 35/3/2
f 34/3/2 33/3/2 35/3/2
f 36/3/2 37/3/2 38/3/2
f 38/3/2 37/3/2 39/3/2
f 41/3/2 42/3/2 43/3/2
f 43/3/2 42/3/2 44/3/2
f 44/3/2 42/3/2 45/3/2
f 45/3/2 42/3/2 46/3/2
f 46/3/2 42/3/2 47/3/2
f 47/3/2 42/3/2 48/3/2
f 48/3/2 42/3/2 49/3/2
f 49/3/2 42/3/2 50/3/2
f 50/3/2 42/3/2 51/3/2
f 51/3/2 42/3/2 52/3/2
f 52/3/2 42/3/2 53/3/2
f 53/3/2 42/3/2 54/3/2
f 41/3/2 43/3/2 55/3/2
f 43/2/2 44/2/2 56/2/2
f 55/3/2 43/3/2 56/3/2
f 44/3/2 45/3/2 57/3/2
f 56/2/2 44/2/2 57/2/2
f 45/2/2 46/2/2 58/2/2
f 57/3/2 45/3/2 58/3/2
f 46/3/2 47/3/2 59/3/2
f 58/2/2 46/2/2 59/2/2
f 47/2/2 48/2/2 60/2/2
f 59/3/2 47/3/2 60/3/2
f 48/3/2 49/3/2 61/3/2
f 60/2/2 48/2/2 61/2/2
f 49/2/2 50/2/2 62/2/2
f 61/3/2 49/3/2 62/3/2
f 50/3/2 51/3/2 63/3/2
f 62/2/2 50/2/2 63/2/2
f 51/2/2 52/2/2 64/2/2
f 63/3/2 51/3/2 64/3/2
f 52/3/2 53/3/2 65/3/2
f 64/2/2 52/2/2 65/2/2
f 53/2/2 54/2/2 66/2/2
f 65/3/2 53/3/2 66/3/2
f 54/3/2 42/3/2 67/3/2
f 66/2/2 54/2/2 67/2/2
f 67/3/2 42/3/2 68/3/2
f 40/1/2 41/1/2 69/1/2
f 41/3/2 55/3/2 70/3/2
f 69/1/2 41/1/2 70/1/2
f 70/3/2 55/3/2 71/3/2
f 68/3/2 42/3/2 72/3/2
f 72/3/2 42/3/2 73/3/2
f 76/1/3 75/1/3 74/1/3
f 77/1/3 75/1/3 76/1/3
f 80/3/3 79/3/3 78/3/3
f 81/3/3 79/3/3 80/3/3
f 84/3/3 83/3/3 82/3/3
f 85/3/3 83/3/3 84/3/3
f 87/3/3 83/3/3 85/3/3
f 88/3/3 87/3/3 86/3/3
f 89/3/3 83/3/3 87/3/3
f 89/3/3 87/3/3 88/3/3
f 90/3/4 91/3/4 92/3/4
f 92/3/4 91/3/4 93/3/4
f 94/3/4 95/3/4 96/3/4
f 96/3/4 95/3/4 97/3/4
f 98/3/4 99/3/4 100/3/4
f 100/3/4 99/3/4 101/3/4
f 98/3/4 100/3/4 102/3/4
f 101/3/4 99/3/4 103/3/4
f 98/3/4 102/3/4 104/3/4
f 102/3/4 103/3/4 104/3/4
f 103/3/4 99/3/4 105/3/4
f 104/3/4 103/3/4 105/3/4
f 108/1/5 107/1/5 106/1/5
f 109/1/5 107/1/5 108/1/5
f 110/3/5 109/3/5 108/3/5
f 111/3/5 109/3/5 110/3/5
f 114/3/5 113/3/5 112/3/5
f 115/3/5 113/3/5 114/3/5
f 118/3/5 117/3/5 116/3/5
f 119/3/5 117/3/5 118/3/5
f 120/3/6 121/3/6 122/3/6
f 122/3/6 121/3/6 123/3/6
f 122/2/6 123/2/6 124/2/6
f 124/2/6 123/2/6 125/2/6
f 124/3/6 125/3/6 127/3/6
f 126/3/6 127/3/6 128/3/6
f 127/3/6 125/3/6 129/3/6
f 128/3/6 127/3/6 129/3/6
f 128/2/6 129/2/6 130/2/6
f 130/2/6 129/2/6 131/2/6
f 130/3/6 131/3/6 132/3/6
f 132/3/6 131/3/6 133/3/6
f 130/3/6 132/3/6 134/3/6
f 132/2/6 133/2/6 135/2/6
f 134/3/6 132/3/6 135/3/6
f 135/2/6 133/2/6 136/2/6
f 136/2/6 133/2/6 137/2/6
f 136/3/6 137/3/6 138/3/6
f 138/3/6 137/3/6 139/3/6
f 138/2/6 139/2/6 140/2/6
f 140/2/6 139/2/6 141/2/6
f 140/3/6 141/3/6 142/3/6
f 142/3/6 141/3/6 143/3/6
f 142/2/6 143/2/6 144/2/6
f 144/2/6 143/2/6 145/2/6
f 144/3/6 145/3/6 146/3/6
f 146/3/6 145/3/6 147/3/6
f 146/2/6 147/2/6 148/2/6
f 148/2/6 147/2/6 149/2/6
f 148/3/6 149/3/6 150/3/6
f 150/3/6 149/3/6 151/3/6
f 151/3/6 149/3/6 152/3/6
f 152/3/6 149/3/6 153/3/6
f 151/3/6 152/3/6 154/3/6
f 154/3/6 152/3/6 155/3/6
f 156/1/6 157/1/6 158/1/6
f 158/1/6 157/1/6 159/1/6
f 158/3/6 159/3/6 160/3/6
f 160/3/6 159/3/6 161/3/6
f 158/3/6 160/3/6 162/3/6
f 158/3/6 162/3/6 164/3/6
f 162/3/6 163/3/6 164/3/6
f 164/3/6 163/3/6 165/3/6
