# MagicaVoxel @ Ephtracy

# group
g 4x2 first (1)-1

# material
mtllib 4x2 first (1)-1.mtl
usemtl palette

# normals
vn -1 0 0
vn 1 0 0
vn 0 0 1
vn 0 0 -1
vn 0 -1 0
vn 0 1 0

# texcoords
vt 0.251953 0.5
vt 0.279297 0.5
vt 0.962891 0.5
vt 0.966797 0.5
vt 0.970703 0.5
vt 0.982422 0.5

# verts
v -63 0 63
v -63 0 -35
v -63 0 -63
v -63 3 -29
v -63 3 -35
v -63 6 -24
v -63 6 -28
v -63 9 -12
v -63 9 -13
v -63 10 -12
v -63 10 -13
v -63 12 -24
v -63 12 -28
v -63 15 -34
v -63 15 -35
v -63 18 -29
v -63 18 -34
v -63 25 -32
v -63 25 -35
v -63 27 -31
v -63 27 -32
v -63 29 -40
v -63 29 -41
v -63 32 -31
v -63 32 -40
v -63 33 -34
v -63 33 -36
v -63 35 -34
v -63 35 -36
v -63 41 -41
v -63 41 -51
v -63 47 -51
v -63 47 -63
v -63 80 63
v -63 80 -63
v -36 5 63
v -36 5 62
v -36 6 63
v -36 6 62
v -36 64 63
v -36 64 62
v -36 65 63
v -36 65 62
v 33 5 63
v 33 5 62
v 33 5 61
v 33 6 63
v 33 6 62
v 33 64 63
v 33 64 62
v 33 65 63
v 33 65 62
v 33 65 61
v -61 5 61
v -61 5 -63
v -61 80 61
v -61 80 -63
v -37 5 63
v -37 5 62
v -37 5 61
v -37 6 63
v -37 6 62
v -37 64 63
v -37 64 62
v -37 65 63
v -37 65 62
v -37 65 61
v 32 5 63
v 32 5 62
v 32 6 63
v 32 6 62
v 32 64 63
v 32 64 62
v 32 65 63
v 32 65 62
v 63 0 63
v 63 0 62
v 63 0 -63
v 63 4 61
v 63 4 -63
v 63 5 61
v 63 5 -63
v 63 80 63
v 63 80 62
v 63 80 61
v -63 0 63
v -63 80 63
v -37 5 63
v -37 6 63
v -37 64 63
v -37 65 63
v -36 5 63
v -36 6 63
v -36 7 63
v -36 17 63
v -36 19 63
v -36 30 63
v -36 32 63
v -36 43 63
v -36 45 63
v -36 54 63
v -36 56 63
v -36 64 63
v -36 65 63
v -14 7 63
v -14 17 63
v -14 19 63
v -14 30 63
v -14 32 63
v -14 43 63
v -14 45 63
v -14 54 63
v -14 56 63
v -14 64 63
v -13 7 63
v -13 17 63
v -13 19 63
v -13 30 63
v -13 32 63
v -13 43 63
v -13 45 63
v -13 54 63
v -13 56 63
v -13 64 63
v 9 7 63
v 9 17 63
v 9 19 63
v 9 30 63
v 9 32 63
v 9 43 63
v 9 45 63
v 9 54 63
v 9 56 63
v 9 64 63
v 10 7 63
v 10 17 63
v 10 19 63
v 10 30 63
v 10 32 63
v 10 43 63
v 10 45 63
v 10 54 63
v 10 56 63
v 10 64 63
v 32 5 63
v 32 6 63
v 32 7 63
v 32 17 63
v 32 19 63
v 32 30 63
v 32 32 63
v 32 43 63
v 32 45 63
v 32 54 63
v 32 56 63
v 32 64 63
v 32 65 63
v 33 5 63
v 33 6 63
v 33 64 63
v 33 65 63
v 63 0 63
v 63 80 63
v -37 6 62
v -37 64 62
v -36 5 62
v -36 6 62
v -36 7 62
v -36 17 62
v -36 19 62
v -36 30 62
v -36 32 62
v -36 43 62
v -36 45 62
v -36 54 62
v -36 56 62
v -36 64 62
v -36 65 62
v -14 7 62
v -14 17 62
v -14 19 62
v -14 30 62
v -14 32 62
v -14 43 62
v -14 45 62
v -14 54 62
v -14 56 62
v -14 64 62
v -13 7 62
v -13 17 62
v -13 19 62
v -13 30 62
v -13 32 62
v -13 43 62
v -13 45 62
v -13 54 62
v -13 56 62
v -13 64 62
v 9 7 62
v 9 17 62
v 9 19 62
v 9 30 62
v 9 32 62
v 9 43 62
v 9 45 62
v 9 54 62
v 9 56 62
v 9 64 62
v 10 7 62
v 10 17 62
v 10 19 62
v 10 30 62
v 10 32 62
v 10 43 62
v 10 45 62
v 10 54 62
v 10 56 62
v 10 64 62
v 32 5 62
v 32 6 62
v 32 7 62
v 32 17 62
v 32 19 62
v 32 30 62
v 32 32 62
v 32 43 62
v 32 45 62
v 32 54 62
v 32 56 62
v 32 64 62
v 32 65 62
v 33 6 62
v 33 64 62
v -61 5 61
v -61 80 61
v -40 5 61
v -37 5 61
v -37 65 61
v 33 5 61
v 33 65 61
v 36 5 61
v 60 5 61
v 63 5 61
v 63 80 61
v -63 0 -63
v -63 47 -63
v -63 80 -63
v -62 0 -63
v -62 47 -63
v -62 80 -63
v -61 4 -63
v -61 5 -63
v -61 80 -63
v -40 4 -63
v -40 5 -63
v -37 4 -63
v -37 5 -63
v 33 4 -63
v 33 5 -63
v 36 4 -63
v 36 5 -63
v 60 4 -63
v 60 5 -63
v 63 0 -63
v 63 4 -63
v 63 5 -63
v -63 0 63
v 63 0 63
v -62 0 62
v 63 0 62
v -63 0 -35
v -62 0 -35
v -63 0 -63
v -62 0 -63
v 63 0 -63
v -37 6 63
v -36 6 63
v 32 6 63
v 33 6 63
v -37 6 62
v -36 6 62
v 32 6 62
v 33 6 62
v -37 65 63
v -36 65 63
v 32 65 63
v 33 65 63
v -37 65 62
v -36 65 62
v 32 65 62
v 33 65 62
v -37 65 61
v 33 65 61
v -37 5 63
v -36 5 63
v 32 5 63
v 33 5 63
v -37 5 62
v -36 5 62
v 32 5 62
v 33 5 62
v -61 5 61
v -40 5 61
v -37 5 61
v 33 5 61
v 36 5 61
v 60 5 61
v 63 5 61
v -7 5 9
v 2 5 9
v -13 5 -4
v -7 5 -4
v 2 5 -4
v 8 5 -4
v -13 5 -5
v -12 5 -5
v 7 5 -5
v 8 5 -5
v -12 5 -6
v -11 5 -6
v 6 5 -6
v 7 5 -6
v -11 5 -7
v -10 5 -7
v 5 5 -7
v 6 5 -7
v -10 5 -8
v -9 5 -8
v 4 5 -8
v 5 5 -8
v -9 5 -9
v -8 5 -9
v 3 5 -9
v 4 5 -9
v -8 5 -10
v -7 5 -10
v 2 5 -10
v 3 5 -10
v -7 5 -11
v -6 5 -11
v 1 5 -11
v 2 5 -11
v -6 5 -12
v -5 5 -12
v 0 5 -12
v 1 5 -12
v -5 5 -13
v -4 5 -13
v -1 5 -13
v 0 5 -13
v -4 5 -14
v -3 5 -14
v -2 5 -14
v -1 5 -14
v -3 5 -15
v -2 5 -15
v -61 5 -63
v -40 5 -63
v -37 5 -63
v 33 5 -63
v 36 5 -63
v 60 5 -63
v 63 5 -63
v -37 64 63
v -36 64 63
v 32 64 63
v 33 64 63
v -37 64 62
v -36 64 62
v 32 64 62
v 33 64 62
v -63 80 63
v 63 80 63
v -62 80 62
v 63 80 62
v -61 80 61
v 63 80 61
v -63 80 -63
v -62 80 -63
v -61 80 -63

# faces
f 4/1/1 2/1/1 1/1/1
f 5/2/1 3/2/1 2/2/1
f 5/1/1 2/1/1 4/1/1
f 6/1/1 4/1/1 1/1/1
f 7/1/1 4/1/1 6/1/1
f 8/1/1 6/1/1 1/1/1
f 9/1/1 6/1/1 8/1/1
f 10/1/1 8/1/1 1/1/1
f 10/2/1 9/2/1 8/2/1
f 11/1/1 6/1/1 9/1/1
f 11/2/1 9/2/1 10/2/1
f 12/2/1 7/2/1 6/2/1
f 12/1/1 6/1/1 11/1/1
f 12/1/1 11/1/1 10/1/1
f 13/1/1 4/1/1 7/1/1
f 13/2/1 7/2/1 12/2/1
f 14/2/1 5/2/1 4/2/1
f 15/2/1 3/2/1 5/2/1
f 15/2/1 5/2/1 14/2/1
f 16/2/1 14/2/1 4/2/1
f 16/1/1 4/1/1 13/1/1
f 16/1/1 13/1/1 12/1/1
f 17/1/1 15/1/1 14/1/1
f 17/2/1 14/2/1 16/2/1
f 18/1/1 17/1/1 16/1/1
f 19/2/1 3/2/1 15/2/1
f 19/1/1 17/1/1 18/1/1
f 19/1/1 15/1/1 17/1/1
f 20/1/1 18/1/1 16/1/1
f 21/2/1 19/2/1 18/2/1
f 21/1/1 18/1/1 20/1/1
f 22/2/1 3/2/1 19/2/1
f 22/2/1 19/2/1 21/2/1
f 22/2/1 21/2/1 20/2/1
f 23/2/1 3/2/1 22/2/1
f 24/1/1 20/1/1 16/1/1
f 24/2/1 22/2/1 20/2/1
f 25/1/1 23/1/1 22/1/1
f 25/2/1 22/2/1 24/2/1
f 26/1/1 25/1/1 24/1/1
f 27/1/1 25/1/1 26/1/1
f 28/1/1 26/1/1 24/1/1
f 28/2/1 27/2/1 26/2/1
f 29/1/1 25/1/1 27/1/1
f 29/2/1 27/2/1 28/2/1
f 30/2/1 3/2/1 23/2/1
f 30/1/1 25/1/1 29/1/1
f 30/1/1 29/1/1 28/1/1
f 30/1/1 23/1/1 25/1/1
f 31/2/1 3/2/1 30/2/1
f 32/1/1 31/1/1 30/1/1
f 32/2/1 3/2/1 31/2/1
f 33/2/1 3/2/1 32/2/1
f 34/1/1 28/1/1 24/1/1
f 34/1/1 16/1/1 12/1/1
f 34/1/1 33/1/1 32/1/1
f 34/1/1 32/1/1 30/1/1
f 34/1/1 30/1/1 28/1/1
f 34/1/1 24/1/1 16/1/1
f 34/1/1 10/1/1 1/1/1
f 34/1/1 12/1/1 10/1/1
f 35/1/1 33/1/1 34/1/1
f 38/5/1 37/5/1 36/5/1
f 39/5/1 37/5/1 38/5/1
f 42/5/1 41/5/1 40/5/1
f 43/5/1 41/5/1 42/5/1
f 47/1/1 45/1/1 44/1/1
f 48/4/1 46/4/1 45/4/1
f 48/1/1 45/1/1 47/1/1
f 50/4/1 46/4/1 48/4/1
f 51/1/1 50/1/1 49/1/1
f 52/4/1 46/4/1 50/4/1
f 52/1/1 50/1/1 51/1/1
f 53/4/1 46/4/1 52/4/1
f 54/4/2 55/4/2 56/4/2
f 56/4/2 55/4/2 57/4/2
f 58/1/2 59/1/2 61/1/2
f 59/4/2 60/4/2 62/4/2
f 61/1/2 59/1/2 62/1/2
f 62/4/2 60/4/2 64/4/2
f 63/1/2 64/1/2 65/1/2
f 64/4/2 60/4/2 66/4/2
f 65/1/2 64/1/2 66/1/2
f 66/4/2 60/4/2 67/4/2
f 68/5/2 69/5/2 70/5/2
f 70/5/2 69/5/2 71/5/2
f 72/5/2 73/5/2 74/5/2
f 74/5/2 73/5/2 75/5/2
f 77/4/2 78/4/2 79/4/2
f 79/4/2 78/4/2 80/4/2
f 77/4/2 79/4/2 81/4/2
f 79/3/2 80/3/2 81/3/2
f 81/3/2 80/3/2 82/3/2
f 76/1/2 77/1/2 83/1/2
f 77/4/2 81/4/2 84/4/2
f 83/1/2 77/1/2 84/1/2
f 84/4/2 81/4/2 85/4/2
f 88/1/3 87/1/3 86/1/3
f 89/1/3 87/1/3 88/1/3
f 90/1/3 87/1/3 89/1/3
f 91/1/3 87/1/3 90/1/3
f 92/1/3 88/1/3 86/1/3
f 93/5/3 90/5/3 89/5/3
f 94/5/3 90/5/3 93/5/3
f 95/5/3 90/5/3 94/5/3
f 96/5/3 90/5/3 95/5/3
f 97/5/3 90/5/3 96/5/3
f 98/5/3 90/5/3 97/5/3
f 99/5/3 90/5/3 98/5/3
f 100/5/3 90/5/3 99/5/3
f 101/5/3 90/5/3 100/5/3
f 102/5/3 90/5/3 101/5/3
f 103/5/3 90/5/3 102/5/3
f 104/1/3 87/1/3 91/1/3
f 105/5/3 93/5/3 92/5/3
f 105/5/3 94/5/3 93/5/3
f 105/3/3 95/3/3 94/3/3
f 106/5/3 96/5/3 95/5/3
f 106/3/3 95/3/3 105/3/3
f 107/3/3 97/3/3 96/3/3
f 107/5/3 96/5/3 106/5/3
f 108/5/3 98/5/3 97/5/3
f 108/3/3 97/3/3 107/3/3
f 109/3/3 99/3/3 98/3/3
f 109/5/3 98/5/3 108/5/3
f 110/5/3 100/5/3 99/5/3
f 110/3/3 99/3/3 109/3/3
f 111/3/3 101/3/3 100/3/3
f 111/5/3 100/5/3 110/5/3
f 112/5/3 102/5/3 101/5/3
f 112/3/3 101/3/3 111/3/3
f 113/3/3 103/3/3 102/3/3
f 113/5/3 102/5/3 112/5/3
f 114/5/3 104/5/3 103/5/3
f 114/3/3 103/3/3 113/3/3
f 115/5/3 112/5/3 111/5/3
f 115/5/3 113/5/3 112/5/3
f 115/5/3 114/5/3 113/5/3
f 115/5/3 111/5/3 110/5/3
f 115/5/3 110/5/3 109/5/3
f 115/5/3 109/5/3 108/5/3
f 115/5/3 108/5/3 107/5/3
f 115/5/3 107/5/3 106/5/3
f 115/5/3 106/5/3 105/5/3
f 115/5/3 105/5/3 92/5/3
f 116/5/3 114/5/3 115/5/3
f 117/5/3 114/5/3 116/5/3
f 118/5/3 114/5/3 117/5/3
f 119/5/3 114/5/3 118/5/3
f 120/5/3 114/5/3 119/5/3
f 121/5/3 114/5/3 120/5/3
f 122/5/3 114/5/3 121/5/3
f 123/5/3 114/5/3 122/5/3
f 124/5/3 104/5/3 114/5/3
f 124/5/3 114/5/3 123/5/3
f 125/5/3 115/5/3 92/5/3
f 125/3/3 116/3/3 115/3/3
f 126/5/3 117/5/3 116/5/3
f 126/3/3 116/3/3 125/3/3
f 127/3/3 118/3/3 117/3/3
f 127/5/3 117/5/3 126/5/3
f 128/5/3 119/5/3 118/5/3
f 128/3/3 118/3/3 127/3/3
f 129/3/3 120/3/3 119/3/3
f 129/5/3 119/5/3 128/5/3
f 130/5/3 121/5/3 120/5/3
f 130/3/3 120/3/3 129/3/3
f 131/3/3 122/3/3 121/3/3
f 131/5/3 121/5/3 130/5/3
f 132/5/3 123/5/3 122/5/3
f 132/3/3 122/3/3 131/3/3
f 133/3/3 124/3/3 123/3/3
f 133/5/3 123/5/3 132/5/3
f 134/5/3 104/5/3 124/5/3
f 134/3/3 124/3/3 133/3/3
f 135/5/3 131/5/3 130/5/3
f 135/5/3 133/5/3 132/5/3
f 135/5/3 134/5/3 133/5/3
f 135/5/3 130/5/3 129/5/3
f 135/5/3 129/5/3 128/5/3
f 135/5/3 128/5/3 127/5/3
f 135/5/3 127/5/3 126/5/3
f 135/5/3 126/5/3 125/5/3
f 135/5/3 125/5/3 92/5/3
f 135/5/3 132/5/3 131/5/3
f 136/5/3 134/5/3 135/5/3
f 137/5/3 134/5/3 136/5/3
f 138/5/3 134/5/3 137/5/3
f 139/5/3 134/5/3 138/5/3
f 140/5/3 134/5/3 139/5/3
f 141/5/3 134/5/3 140/5/3
f 142/5/3 134/5/3 141/5/3
f 143/5/3 134/5/3 142/5/3
f 144/5/3 104/5/3 134/5/3
f 144/5/3 134/5/3 143/5/3
f 145/1/3 92/1/3 86/1/3
f 145/5/3 135/5/3 92/5/3
f 146/5/3 135/5/3 145/5/3
f 147/3/3 136/3/3 135/3/3
f 147/5/3 135/5/3 146/5/3
f 148/5/3 137/5/3 136/5/3
f 148/3/3 136/3/3 147/3/3
f 149/3/3 138/3/3 137/3/3
f 149/5/3 137/5/3 148/5/3
f 150/5/3 139/5/3 138/5/3
f 150/3/3 138/3/3 149/3/3
f 151/3/3 140/3/3 139/3/3
f 151/5/3 139/5/3 150/5/3
f 152/5/3 141/5/3 140/5/3
f 152/3/3 140/3/3 151/3/3
f 153/3/3 142/3/3 141/3/3
f 153/5/3 141/5/3 152/5/3
f 154/5/3 143/5/3 142/5/3
f 154/3/3 142/3/3 153/3/3
f 155/3/3 144/3/3 143/3/3
f 155/5/3 143/5/3 154/5/3
f 156/5/3 104/5/3 144/5/3
f 156/3/3 144/3/3 155/3/3
f 157/1/3 87/1/3 104/1/3
f 157/5/3 104/5/3 156/5/3
f 158/1/3 145/1/3 86/1/3
f 159/5/3 153/5/3 152/5/3
f 159/5/3 155/5/3 154/5/3
f 159/5/3 152/5/3 151/5/3
f 159/5/3 151/5/3 150/5/3
f 159/5/3 150/5/3 149/5/3
f 159/5/3 149/5/3 148/5/3
f 159/5/3 148/5/3 147/5/3
f 159/5/3 147/5/3 146/5/3
f 159/5/3 156/5/3 155/5/3
f 159/5/3 154/5/3 153/5/3
f 160/5/3 156/5/3 159/5/3
f 161/1/3 87/1/3 157/1/3
f 162/1/3 158/1/3 86/1/3
f 162/1/3 161/1/3 160/1/3
f 162/1/3 160/1/3 159/1/3
f 162/1/3 159/1/3 158/1/3
f 163/1/3 87/1/3 161/1/3
f 163/1/3 161/1/3 162/1/3
f 164/5/4 165/5/4 167/5/4
f 167/5/4 165/5/4 168/5/4
f 168/5/4 165/5/4 169/5/4
f 169/5/4 165/5/4 170/5/4
f 170/5/4 165/5/4 171/5/4
f 171/5/4 165/5/4 172/5/4
f 172/5/4 165/5/4 173/5/4
f 173/5/4 165/5/4 174/5/4
f 174/5/4 165/5/4 175/5/4
f 175/5/4 165/5/4 176/5/4
f 176/5/4 165/5/4 177/5/4
f 166/5/4 167/5/4 179/5/4
f 167/5/4 168/5/4 179/5/4
f 168/3/4 169/3/4 179/3/4
f 169/5/4 170/5/4 180/5/4
f 179/3/4 169/3/4 180/3/4
f 170/3/4 171/3/4 181/3/4
f 180/5/4 170/5/4 181/5/4
f 171/5/4 172/5/4 182/5/4
f 181/3/4 171/3/4 182/3/4
f 172/3/4 173/3/4 183/3/4
f 182/5/4 172/5/4 183/5/4
f 173/5/4 174/5/4 184/5/4
f 183/3/4 173/3/4 184/3/4
f 174/3/4 175/3/4 185/3/4
f 184/5/4 174/5/4 185/5/4
f 175/5/4 176/5/4 186/5/4
f 185/3/4 175/3/4 186/3/4
f 176/3/4 177/3/4 187/3/4
f 186/5/4 176/5/4 187/5/4
f 177/5/4 178/5/4 188/5/4
f 187/3/4 177/3/4 188/3/4
f 186/5/4 187/5/4 189/5/4
f 185/5/4 186/5/4 189/5/4
f 187/5/4 188/5/4 189/5/4
f 183/5/4 184/5/4 189/5/4
f 182/5/4 183/5/4 189/5/4
f 181/5/4 182/5/4 189/5/4
f 180/5/4 181/5/4 189/5/4
f 179/5/4 180/5/4 189/5/4
f 166/5/4 179/5/4 189/5/4
f 184/5/4 185/5/4 189/5/4
f 189/5/4 188/5/4 190/5/4
f 190/5/4 188/5/4 191/5/4
f 191/5/4 188/5/4 192/5/4
f 192/5/4 188/5/4 193/5/4
f 193/5/4 188/5/4 194/5/4
f 194/5/4 188/5/4 195/5/4
f 195/5/4 188/5/4 196/5/4
f 196/5/4 188/5/4 197/5/4
f 188/5/4 178/5/4 198/5/4
f 197/5/4 188/5/4 198/5/4
f 166/5/4 189/5/4 199/5/4
f 189/3/4 190/3/4 199/3/4
f 190/5/4 191/5/4 200/5/4
f 199/3/4 190/3/4 200/3/4
f 191/3/4 192/3/4 201/3/4
f 200/5/4 191/5/4 201/5/4
f 192/5/4 193/5/4 202/5/4
f 201/3/4 192/3/4 202/3/4
f 193/3/4 194/3/4 203/3/4
f 202/5/4 193/5/4 203/5/4
f 194/5/4 195/5/4 204/5/4
f 203/3/4 194/3/4 204/3/4
f 195/3/4 196/3/4 205/3/4
f 204/5/4 195/5/4 205/5/4
f 196/5/4 197/5/4 206/5/4
f 205/3/4 196/3/4 206/3/4
f 197/3/4 198/3/4 207/3/4
f 206/5/4 197/5/4 207/5/4
f 198/5/4 178/5/4 208/5/4
f 207/3/4 198/3/4 208/3/4
f 204/5/4 205/5/4 209/5/4
f 206/5/4 207/5/4 209/5/4
f 207/5/4 208/5/4 209/5/4
f 203/5/4 204/5/4 209/5/4
f 202/5/4 203/5/4 209/5/4
f 201/5/4 202/5/4 209/5/4
f 200/5/4 201/5/4 209/5/4
f 199/5/4 200/5/4 209/5/4
f 166/5/4 199/5/4 209/5/4
f 205/5/4 206/5/4 209/5/4
f 209/5/4 208/5/4 210/5/4
f 210/5/4 208/5/4 211/5/4
f 211/5/4 208/5/4 212/5/4
f 212/5/4 208/5/4 213/5/4
f 213/5/4 208/5/4 214/5/4
f 214/5/4 208/5/4 215/5/4
f 215/5/4 208/5/4 216/5/4
f 216/5/4 208/5/4 217/5/4
f 208/5/4 178/5/4 218/5/4
f 217/5/4 208/5/4 218/5/4
f 166/5/4 209/5/4 219/5/4
f 219/5/4 209/5/4 220/5/4
f 209/3/4 210/3/4 221/3/4
f 220/5/4 209/5/4 221/5/4
f 210/5/4 211/5/4 222/5/4
f 221/3/4 210/3/4 222/3/4
f 211/3/4 212/3/4 223/3/4
f 222/5/4 211/5/4 223/5/4
f 212/5/4 213/5/4 224/5/4
f 223/3/4 212/3/4 224/3/4
f 213/3/4 214/3/4 225/3/4
f 224/5/4 213/5/4 225/5/4
f 214/5/4 215/5/4 226/5/4
f 225/3/4 214/3/4 226/3/4
f 215/3/4 216/3/4 227/3/4
f 226/5/4 215/5/4 227/5/4
f 216/5/4 217/5/4 228/5/4
f 227/3/4 216/3/4 228/3/4
f 217/3/4 218/3/4 229/3/4
f 228/5/4 217/5/4 229/5/4
f 218/5/4 178/5/4 230/5/4
f 229/3/4 218/3/4 230/3/4
f 230/5/4 178/5/4 231/5/4
f 226/5/4 227/5/4 232/5/4
f 228/5/4 229/5/4 232/5/4
f 229/5/4 230/5/4 232/5/4
f 227/5/4 228/5/4 232/5/4
f 225/5/4 226/5/4 232/5/4
f 224/5/4 225/5/4 232/5/4
f 223/5/4 224/5/4 232/5/4
f 222/5/4 223/5/4 232/5/4
f 221/5/4 222/5/4 232/5/4
f 220/5/4 221/5/4 232/5/4
f 232/5/4 230/5/4 233/5/4
f 234/4/4 235/4/4 236/4/4
f 236/4/4 235/4/4 237/4/4
f 237/4/4 235/4/4 238/4/4
f 238/4/4 235/4/4 240/4/4
f 239/4/4 240/4/4 241/4/4
f 241/4/4 240/4/4 242/4/4
f 242/4/4 240/4/4 243/4/4
f 240/4/4 235/4/4 244/4/4
f 243/4/4 240/4/4 244/4/4
f 245/2/4 246/2/4 248/2/4
f 246/1/4 247/1/4 249/1/4
f 248/2/4 246/2/4 249/2/4
f 249/1/4 247/1/4 250/1/4
f 248/4/4 249/4/4 251/4/4
f 249/4/4 250/4/4 251/4/4
f 251/4/4 250/4/4 252/4/4
f 252/4/4 250/4/4 253/4/4
f 248/4/4 251/4/4 254/4/4
f 251/6/4 252/6/4 254/6/4
f 254/6/4 252/6/4 255/6/4
f 248/4/4 254/4/4 256/4/4
f 254/3/4 255/3/4 256/3/4
f 256/3/4 255/3/4 257/3/4
f 248/4/4 256/4/4 258/4/4
f 256/6/4 257/6/4 258/6/4
f 258/6/4 257/6/4 259/6/4
f 248/4/4 258/4/4 260/4/4
f 258/3/4 259/3/4 260/3/4
f 260/3/4 259/3/4 261/3/4
f 248/4/4 260/4/4 262/4/4
f 260/6/4 261/6/4 262/6/4
f 262/6/4 261/6/4 263/6/4
f 248/4/4 262/4/4 264/4/4
f 262/3/4 263/3/4 265/3/4
f 264/4/4 262/4/4 265/4/4
f 265/3/4 263/3/4 266/3/4
f 269/1/5 268/1/5 267/1/5
f 270/1/5 268/1/5 269/1/5
f 271/1/5 269/1/5 267/1/5
f 272/4/5 270/4/5 269/4/5
f 272/1/5 269/1/5 271/1/5
f 273/2/5 272/2/5 271/2/5
f 274/4/5 270/4/5 272/4/5
f 274/2/5 272/2/5 273/2/5
f 275/4/5 270/4/5 274/4/5
f 280/5/5 277/5/5 276/5/5
f 281/5/5 277/5/5 280/5/5
f 282/5/5 279/5/5 278/5/5
f 283/5/5 279/5/5 282/5/5
f 288/1/5 285/1/5 284/1/5
f 289/1/5 285/1/5 288/1/5
f 290/1/5 287/1/5 286/1/5
f 291/1/5 287/1/5 290/1/5
f 292/4/5 289/4/5 288/4/5
f 292/4/5 290/4/5 289/4/5
f 292/4/5 291/4/5 290/4/5
f 293/4/5 291/4/5 292/4/5
f 294/1/6 295/1/6 298/1/6
f 298/1/6 295/1/6 299/1/6
f 296/1/6 297/1/6 300/1/6
f 300/1/6 297/1/6 301/1/6
f 298/6/6 299/6/6 304/6/6
f 299/6/6 300/6/6 304/6/6
f 300/6/6 301/6/6 304/6/6
f 304/6/6 301/6/6 305/6/6
f 304/6/6 305/6/6 309/6/6
f 309/6/6 305/6/6 310/6/6
f 304/6/6 309/6/6 311/6/6
f 309/3/6 310/3/6 312/3/6
f 311/6/6 309/6/6 312/6/6
f 310/6/6 305/6/6 313/6/6
f 312/3/6 310/3/6 313/3/6
f 313/6/6 305/6/6 314/6/6
f 311/3/6 312/3/6 315/3/6
f 304/6/6 311/6/6 315/6/6
f 313/3/6 314/3/6 315/3/6
f 312/3/6 313/3/6 315/3/6
f 315/3/6 314/3/6 316/3/6
f 316/3/6 314/3/6 317/3/6
f 314/6/6 305/6/6 318/6/6
f 317/3/6 314/3/6 318/3/6
f 316/3/6 317/3/6 319/3/6
f 315/6/6 316/6/6 319/6/6
f 319/3/6 317/3/6 320/3/6
f 320/3/6 317/3/6 321/3/6
f 317/6/6 318/6/6 322/6/6
f 321/3/6 317/3/6 322/3/6
f 320/3/6 321/3/6 323/3/6
f 319/6/6 320/6/6 323/6/6
f 323/3/6 321/3/6 324/3/6
f 324/3/6 321/3/6 325/3/6
f 321/6/6 322/6/6 326/6/6
f 325/3/6 321/3/6 326/3/6
f 324/3/6 325/3/6 327/3/6
f 323/6/6 324/6/6 327/6/6
f 327/3/6 325/3/6 328/3/6
f 328/3/6 325/3/6 329/3/6
f 325/6/6 326/6/6 330/6/6
f 329/3/6 325/3/6 330/3/6
f 328/3/6 329/3/6 331/3/6
f 327/6/6 328/6/6 331/6/6
f 331/3/6 329/3/6 332/3/6
f 332/3/6 329/3/6 333/3/6
f 329/6/6 330/6/6 334/6/6
f 333/3/6 329/3/6 334/3/6
f 332/3/6 333/3/6 335/3/6
f 331/6/6 332/6/6 335/6/6
f 335/3/6 333/3/6 336/3/6
f 336/3/6 333/3/6 337/3/6
f 333/6/6 334/6/6 338/6/6
f 337/3/6 333/3/6 338/3/6
f 336/3/6 337/3/6 339/3/6
f 335/6/6 336/6/6 339/6/6
f 339/3/6 337/3/6 340/3/6
f 340/3/6 337/3/6 341/3/6
f 337/6/6 338/6/6 342/6/6
f 341/3/6 337/3/6 342/3/6
f 340/3/6 341/3/6 343/3/6
f 339/6/6 340/6/6 343/6/6
f 343/3/6 341/3/6 344/3/6
f 344/3/6 341/3/6 345/3/6
f 341/6/6 342/6/6 346/6/6
f 345/3/6 341/3/6 346/3/6
f 344/3/6 345/3/6 347/3/6
f 343/6/6 344/6/6 347/6/6
f 347/3/6 345/3/6 348/3/6
f 348/3/6 345/3/6 349/3/6
f 345/6/6 346/6/6 350/6/6
f 349/3/6 345/3/6 350/3/6
f 348/3/6 349/3/6 351/3/6
f 347/6/6 348/6/6 351/6/6
f 351/3/6 349/3/6 352/3/6
f 352/3/6 349/3/6 353/3/6
f 349/6/6 350/6/6 354/6/6
f 353/3/6 349/3/6 354/3/6
f 352/3/6 353/3/6 355/3/6
f 351/6/6 352/6/6 355/6/6
f 353/6/6 354/6/6 356/6/6
f 355/3/6 353/3/6 356/3/6
f 302/6/6 303/6/6 357/6/6
f 303/3/6 304/3/6 358/3/6
f 357/6/6 303/6/6 358/6/6
f 304/6/6 315/6/6 359/6/6
f 358/3/6 304/3/6 359/3/6
f 315/6/6 319/6/6 359/6/6
f 355/6/6 356/6/6 359/6/6
f 351/6/6 355/6/6 359/6/6
f 347/6/6 351/6/6 359/6/6
f 319/6/6 323/6/6 359/6/6
f 343/6/6 347/6/6 359/6/6
f 323/6/6 327/6/6 359/6/6
f 339/6/6 343/6/6 359/6/6
f 327/6/6 331/6/6 359/6/6
f 335/6/6 339/6/6 359/6/6
f 331/6/6 335/6/6 359/6/6
f 356/6/6 354/6/6 360/6/6
f 359/6/6 356/6/6 360/6/6
f 305/3/6 306/3/6 360/3/6
f 338/6/6 334/6/6 360/6/6
f 342/6/6 338/6/6 360/6/6
f 334/6/6 330/6/6 360/6/6
f 346/6/6 342/6/6 360/6/6
f 330/6/6 326/6/6 360/6/6
f 350/6/6 346/6/6 360/6/6
f 326/6/6 322/6/6 360/6/6
f 354/6/6 350/6/6 360/6/6
f 322/6/6 318/6/6 360/6/6
f 318/6/6 305/6/6 360/6/6
f 306/6/6 307/6/6 361/6/6
f 360/3/6 306/3/6 361/3/6
f 307/3/6 308/3/6 362/3/6
f 361/6/6 307/6/6 362/6/6
f 362/3/6 308/3/6 363/3/6
f 364/5/6 365/5/6 368/5/6
f 368/5/6 365/5/6 369/5/6
f 366/5/6 367/5/6 370/5/6
f 370/5/6 367/5/6 371/5/6
f 372/1/6 373/1/6 374/1/6
f 374/1/6 373/1/6 375/1/6
f 374/4/6 375/4/6 376/4/6
f 376/4/6 375/4/6 377/4/6
f 372/1/6 374/1/6 378/1/6
f 374/4/6 376/4/6 379/4/6
f 378/1/6 374/1/6 379/1/6
f 379/4/6 376/4/6 380/4/6
