# MagicaVoxel @ Ephtracy

# group
g 4x2 first (1)-2

# material
mtllib 4x2 first (1)-2.mtl
usemtl palette

# normals
vn -1 0 0
vn 1 0 0
vn 0 0 1
vn 0 0 -1
vn 0 -1 0
vn 0 1 0

# texcoords
vt 0.251953 0.5
vt 0.962891 0.5
vt 0.966797 0.5
vt 0.970703 0.5
vt 0.982422 0.5
vt 0.986328 0.5

# verts
v -63 0 63
v -63 0 -62
v -63 0 -63
v -63 4 63
v -63 4 33
v -63 4 30
v -63 4 -1
v -63 4 -13
v -63 5 63
v -63 5 33
v -63 5 30
v -63 5 -1
v -63 5 -12
v -63 5 -13
v -63 5 -14
v -63 5 -61
v -63 16 -12
v -63 16 -13
v -63 80 -12
v -63 80 -14
v -63 80 -61
v -63 80 -62
v -63 80 -63
v 30 5 63
v 30 5 -12
v 30 5 -14
v 30 5 -21
v 30 5 -51
v 30 5 -61
v 30 45 -21
v 30 45 -51
v 30 80 63
v 30 80 -12
v 30 80 -14
v 30 80 -61
v 32 5 63
v 32 5 -21
v 32 5 -51
v 32 5 -61
v 32 45 -21
v 32 45 -51
v 32 80 63
v 32 80 -61
v 63 0 63
v 63 0 -62
v 63 0 -63
v 63 5 63
v 63 5 -61
v 63 80 -61
v 63 80 -62
v 63 80 -63
v -63 0 63
v -63 4 63
v -63 5 63
v 7 4 63
v 7 5 63
v 10 4 63
v 10 5 63
v 30 4 63
v 30 5 63
v 30 80 63
v 32 5 63
v 32 80 63
v 63 0 63
v 63 5 63
v -63 5 -12
v -63 16 -12
v -63 80 -12
v -61 16 -12
v -61 21 -12
v -55 5 -12
v -55 16 -12
v -55 17 -12
v -55 21 -12
v -54 16 -12
v -54 17 -12
v -52 17 -12
v -52 18 -12
v -51 17 -12
v -51 18 -12
v -51 26 -12
v -51 27 -12
v -50 26 -12
v -50 27 -12
v 30 5 -12
v 30 80 -12
v 30 5 -51
v 30 45 -51
v 32 5 -51
v 32 45 -51
v -63 5 -61
v -63 80 -61
v 30 5 -61
v 30 80 -61
v 32 5 -61
v 32 80 -61
v 63 5 -61
v 63 80 -61
v -63 5 -14
v -63 80 -14
v 30 5 -14
v 30 80 -14
v 30 5 -21
v 30 45 -21
v 32 5 -21
v 32 45 -21
v -63 0 -63
v -63 80 -63
v 63 0 -63
v 63 80 -63
v -63 0 63
v 63 0 63
v -63 0 -62
v 63 0 -62
v -63 0 -63
v 63 0 -63
v 30 45 -21
v 32 45 -21
v 30 45 -51
v 32 45 -51
v -63 5 63
v 7 5 63
v 10 5 63
v 30 5 63
v 32 5 63
v 63 5 63
v -63 5 33
v 7 5 33
v -63 5 30
v 10 5 30
v -57 5 4
v -56 5 4
v -59 5 3
v -57 5 3
v -63 5 -1
v -59 5 -1
v -56 5 -1
v -59 5 -4
v -55 5 -4
v -63 5 -12
v -55 5 -12
v 30 5 -12
v -63 5 -14
v 30 5 -14
v 30 5 -21
v 32 5 -21
v 30 5 -51
v 32 5 -51
v -63 5 -61
v 30 5 -61
v 32 5 -61
v 63 5 -61
v 30 80 63
v 32 80 63
v -63 80 -12
v 30 80 -12
v -63 80 -14
v 30 80 -14
v -63 80 -61
v 30 80 -61
v 32 80 -61
v 63 80 -61
v -63 80 -62
v 63 80 -62
v -63 80 -63
v 63 80 -63

# faces
f 4/3/1 2/3/1 1/3/1
f 5/3/1 2/3/1 4/3/1
f 6/3/1 2/3/1 5/3/1
f 7/3/1 2/3/1 6/3/1
f 8/3/1 2/3/1 7/3/1
f 9/5/1 5/5/1 4/5/1
f 10/2/1 6/2/1 5/2/1
f 10/5/1 5/5/1 9/5/1
f 11/5/1 7/5/1 6/5/1
f 11/2/1 6/2/1 10/2/1
f 12/6/1 8/6/1 7/6/1
f 12/5/1 7/5/1 11/5/1
f 13/6/1 8/6/1 12/6/1
f 14/3/1 2/3/1 8/3/1
f 14/6/1 8/6/1 13/6/1
f 15/3/1 2/3/1 14/3/1
f 16/3/1 2/3/1 15/3/1
f 17/6/1 14/6/1 13/6/1
f 18/4/1 15/4/1 14/4/1
f 18/6/1 14/6/1 17/6/1
f 19/4/1 18/4/1 17/4/1
f 20/4/1 15/4/1 18/4/1
f 20/4/1 18/4/1 19/4/1
f 21/3/1 2/3/1 16/3/1
f 22/1/1 3/1/1 2/1/1
f 22/3/1 2/3/1 21/3/1
f 23/1/1 3/1/1 22/1/1
f 30/3/1 27/3/1 26/3/1
f 31/3/1 29/3/1 28/3/1
f 32/3/1 25/3/1 24/3/1
f 33/3/1 25/3/1 32/3/1
f 34/3/1 31/3/1 30/3/1
f 34/3/1 30/3/1 26/3/1
f 35/3/1 29/3/1 31/3/1
f 35/3/1 31/3/1 34/3/1
f 36/3/2 37/3/2 40/3/2
f 38/3/2 39/3/2 41/3/2
f 36/3/2 40/3/2 42/3/2
f 40/3/2 41/3/2 42/3/2
f 41/3/2 39/3/2 43/3/2
f 42/3/2 41/3/2 43/3/2
f 44/3/2 45/3/2 47/3/2
f 47/3/2 45/3/2 48/3/2
f 48/3/2 45/3/2 49/3/2
f 45/1/2 46/1/2 50/1/2
f 49/3/2 45/3/2 50/3/2
f 50/1/2 46/1/2 51/1/2
f 55/3/3 53/3/3 52/3/3
f 55/5/3 54/5/3 53/5/3
f 56/5/3 54/5/3 55/5/3
f 57/3/3 55/3/3 52/3/3
f 57/2/3 56/2/3 55/2/3
f 58/2/3 56/2/3 57/2/3
f 59/3/3 57/3/3 52/3/3
f 59/5/3 58/5/3 57/5/3
f 60/5/3 58/5/3 59/5/3
f 62/3/3 60/3/3 59/3/3
f 62/3/3 61/3/3 60/3/3
f 63/3/3 61/3/3 62/3/3
f 64/3/3 59/3/3 52/3/3
f 64/3/3 62/3/3 59/3/3
f 65/3/3 62/3/3 64/3/3
f 69/6/3 67/6/3 66/6/3
f 69/4/3 68/4/3 67/4/3
f 70/4/3 68/4/3 69/4/3
f 71/6/3 69/6/3 66/6/3
f 71/6/3 70/6/3 69/6/3
f 72/6/3 70/6/3 71/6/3
f 73/6/3 70/6/3 72/6/3
f 74/4/3 68/4/3 70/4/3
f 74/6/3 70/6/3 73/6/3
f 75/6/3 73/6/3 72/6/3
f 75/4/3 72/4/3 71/4/3
f 76/4/3 74/4/3 73/4/3
f 76/6/3 73/6/3 75/6/3
f 77/4/3 76/4/3 75/4/3
f 77/4/3 74/4/3 76/4/3
f 78/4/3 74/4/3 77/4/3
f 79/4/3 77/4/3 75/4/3
f 79/6/3 78/6/3 77/6/3
f 80/4/3 74/4/3 78/4/3
f 80/6/3 78/6/3 79/6/3
f 81/4/3 68/4/3 74/4/3
f 81/4/3 74/4/3 80/4/3
f 82/4/3 68/4/3 81/4/3
f 83/4/3 80/4/3 79/4/3
f 83/4/3 81/4/3 80/4/3
f 83/6/3 82/6/3 81/6/3
f 84/4/3 68/4/3 82/4/3
f 84/6/3 82/6/3 83/6/3
f 85/4/3 83/4/3 79/4/3
f 85/4/3 75/4/3 71/4/3
f 85/4/3 84/4/3 83/4/3
f 85/4/3 79/4/3 75/4/3
f 86/4/3 68/4/3 84/4/3
f 86/4/3 84/4/3 85/4/3
f 89/3/3 88/3/3 87/3/3
f 90/3/3 88/3/3 89/3/3
f 93/3/3 92/3/3 91/3/3
f 94/3/3 92/3/3 93/3/3
f 97/3/3 96/3/3 95/3/3
f 98/3/3 96/3/3 97/3/3
f 99/4/4 100/4/4 101/4/4
f 101/4/4 100/4/4 102/4/4
f 103/3/4 104/3/4 105/3/4
f 105/3/4 104/3/4 106/3/4
f 107/1/4 108/1/4 109/1/4
f 109/1/4 108/1/4 110/1/4
f 113/3/5 112/3/5 111/3/5
f 114/3/5 112/3/5 113/3/5
f 115/1/5 114/1/5 113/1/5
f 116/1/5 114/1/5 115/1/5
f 119/3/5 118/3/5 117/3/5
f 120/3/5 118/3/5 119/3/5
f 121/5/6 122/5/6 127/5/6
f 122/2/6 123/2/6 128/2/6
f 127/5/6 122/5/6 128/5/6
f 127/2/6 128/2/6 129/2/6
f 123/5/6 124/5/6 130/5/6
f 129/2/6 128/2/6 130/2/6
f 128/2/6 123/2/6 130/2/6
f 129/5/6 130/5/6 131/5/6
f 131/5/6 130/5/6 132/5/6
f 129/5/6 131/5/6 133/5/6
f 131/6/6 132/6/6 134/6/6
f 133/5/6 131/5/6 134/5/6
f 129/5/6 133/5/6 135/5/6
f 133/6/6 134/6/6 136/6/6
f 135/5/6 133/5/6 136/5/6
f 132/5/6 130/5/6 137/5/6
f 136/6/6 134/6/6 137/6/6
f 134/6/6 132/6/6 137/6/6
f 135/6/6 136/6/6 138/6/6
f 136/5/6 137/5/6 138/5/6
f 137/5/6 130/5/6 139/5/6
f 138/5/6 137/5/6 139/5/6
f 135/6/6 138/6/6 140/6/6
f 138/6/6 139/6/6 140/6/6
f 139/5/6 130/5/6 141/5/6
f 140/6/6 139/6/6 141/6/6
f 130/5/6 124/5/6 142/5/6
f 141/5/6 130/5/6 142/5/6
f 143/3/6 144/3/6 145/3/6
f 125/3/6 126/3/6 146/3/6
f 143/3/6 145/3/6 147/3/6
f 145/3/6 146/3/6 147/3/6
f 146/3/6 126/3/6 148/3/6
f 147/3/6 146/3/6 148/3/6
f 143/3/6 147/3/6 149/3/6
f 149/3/6 147/3/6 150/3/6
f 148/3/6 126/3/6 151/3/6
f 151/3/6 126/3/6 152/3/6
f 153/3/6 154/3/6 156/3/6
f 155/4/6 156/4/6 157/4/6
f 156/3/6 154/3/6 158/3/6
f 157/4/6 156/4/6 158/4/6
f 158/3/6 154/3/6 160/3/6
f 160/3/6 154/3/6 161/3/6
f 159/3/6 160/3/6 163/3/6
f 161/3/6 162/3/6 163/3/6
f 160/3/6 161/3/6 163/3/6
f 163/3/6 162/3/6 164/3/6
f 163/1/6 164/1/6 165/1/6
f 165/1/6 164/1/6 166/1/6
