# MagicaVoxel @ Ephtracy

# group
g 4x2 second (1)-1

# material
mtllib 4x2 second (1)-1.mtl
usemtl palette

# normals
vn -1 0 0
vn 1 0 0
vn 0 0 1
vn 0 0 -1
vn 0 -1 0
vn 0 1 0

# texcoords
vt 0.251953 0.5
vt 0.369141 0.5
vt 0.966797 0.5

# verts
v -63 0 63
v -63 0 62
v -63 0 -63
v -63 1 63
v -63 1 62
v -63 1 61
v -63 1 -63
v -63 22 63
v -63 22 61
v 29 1 61
v 29 1 -8
v 29 1 -38
v 29 1 -63
v 29 22 63
v 29 22 61
v 29 41 -8
v 29 41 -38
v 29 80 63
v 29 80 -63
v 32 1 61
v 32 1 -8
v 32 1 -38
v 32 1 -62
v 32 41 -8
v 32 41 -38
v 32 80 61
v 32 80 -62
v 63 0 63
v 63 0 62
v 63 0 61
v 63 0 -62
v 63 0 -63
v 63 1 61
v 63 1 -62
v 63 80 63
v 63 80 62
v 63 80 61
v 63 80 -62
v 63 80 -63
v -63 0 63
v -63 1 63
v -63 22 63
v 29 22 63
v 29 80 63
v 30 1 63
v 30 22 63
v 63 0 63
v 63 80 63
v 29 1 -38
v 29 41 -38
v 30 1 -38
v 30 41 -38
v 31 1 -38
v 32 1 -38
v 32 41 -38
v 32 1 -62
v 32 80 -62
v 63 1 -62
v 63 80 -62
v -63 1 61
v -63 22 61
v 29 1 61
v 29 22 61
v 32 1 61
v 32 80 61
v 63 1 61
v 63 80 61
v 29 1 -8
v 29 41 -8
v 30 1 -8
v 30 41 -8
v 31 1 -8
v 32 1 -8
v 32 41 -8
v -63 0 -63
v -63 1 -63
v 29 1 -63
v 29 80 -63
v 30 1 -63
v 30 80 -63
v 63 0 -63
v 63 80 -63
v -63 0 63
v 63 0 63
v -63 0 62
v 63 0 62
v 32 0 61
v 63 0 61
v 31 0 -8
v 32 0 -8
v 31 0 -38
v 32 0 -38
v 32 0 -62
v 63 0 -62
v -63 0 -63
v 63 0 -63
v 29 41 -8
v 30 41 -8
v 32 41 -8
v 29 41 -38
v 30 41 -38
v 32 41 -38
v -63 1 61
v 29 1 61
v 32 1 61
v 63 1 61
v 29 1 -8
v 30 1 -8
v 31 1 -8
v 32 1 -8
v 29 1 -38
v 30 1 -38
v 31 1 -38
v 32 1 -38
v 32 1 -62
v 63 1 -62
v -63 1 -63
v 29 1 -63
v -63 22 63
v 29 22 63
v -63 22 61
v 29 22 61
v 29 80 63
v 63 80 63
v 30 80 62
v 63 80 62
v 32 80 61
v 63 80 61
v 32 80 -62
v 63 80 -62
v 29 80 -63
v 30 80 -63
v 63 80 -63

# faces
f 4/1/1 2/1/1 1/1/1
f 5/3/1 3/3/1 2/3/1
f 5/1/1 2/1/1 4/1/1
f 6/3/1 3/3/1 5/3/1
f 7/3/1 3/3/1 6/3/1
f 8/3/1 5/3/1 4/3/1
f 8/3/1 6/3/1 5/3/1
f 9/3/1 6/3/1 8/3/1
f 15/1/1 11/1/1 10/1/1
f 16/1/1 11/1/1 15/1/1
f 16/1/1 15/1/1 14/1/1
f 17/1/1 13/1/1 12/1/1
f 18/1/1 16/1/1 14/1/1
f 18/1/1 17/1/1 16/1/1
f 19/1/1 13/1/1 17/1/1
f 19/1/1 17/1/1 18/1/1
f 20/3/2 21/3/2 24/3/2
f 22/3/2 23/3/2 25/3/2
f 20/3/2 24/3/2 26/3/2
f 24/3/2 25/3/2 26/3/2
f 25/3/2 23/3/2 27/3/2
f 26/3/2 25/3/2 27/3/2
f 29/3/2 30/3/2 33/3/2
f 30/2/2 31/2/2 33/2/2
f 31/3/2 32/3/2 34/3/2
f 33/2/2 31/2/2 34/2/2
f 28/1/2 29/1/2 35/1/2
f 29/3/2 33/3/2 36/3/2
f 35/1/2 29/1/2 36/1/2
f 36/3/2 33/3/2 37/3/2
f 34/3/2 32/3/2 38/3/2
f 38/3/2 32/3/2 39/3/2
f 43/3/3 42/3/3 41/3/3
f 45/1/3 41/1/3 40/1/3
f 45/3/3 43/3/3 41/3/3
f 46/1/3 44/1/3 43/1/3
f 46/3/3 43/3/3 45/3/3
f 47/1/3 45/1/3 40/1/3
f 47/1/3 46/1/3 45/1/3
f 48/1/3 44/1/3 46/1/3
f 48/1/3 46/1/3 47/1/3
f 51/1/3 50/1/3 49/1/3
f 52/1/3 50/1/3 51/1/3
f 53/3/3 52/3/3 51/3/3
f 54/3/3 52/3/3 53/3/3
f 55/3/3 52/3/3 54/3/3
f 58/3/3 57/3/3 56/3/3
f 59/3/3 57/3/3 58/3/3
f 60/3/4 61/3/4 62/3/4
f 62/3/4 61/3/4 63/3/4
f 64/3/4 65/3/4 66/3/4
f 66/3/4 65/3/4 67/3/4
f 68/1/4 69/1/4 70/1/4
f 70/1/4 69/1/4 71/1/4
f 70/3/4 71/3/4 72/3/4
f 72/3/4 71/3/4 73/3/4
f 73/3/4 71/3/4 74/3/4
f 75/3/4 76/3/4 77/3/4
f 75/3/4 77/3/4 79/3/4
f 77/1/4 78/1/4 79/1/4
f 79/1/4 78/1/4 80/1/4
f 75/3/4 79/3/4 81/3/4
f 79/3/4 80/3/4 81/3/4
f 81/3/4 80/3/4 82/3/4
f 85/1/5 84/1/5 83/1/5
f 86/1/5 84/1/5 85/1/5
f 87/3/5 86/3/5 85/3/5
f 88/3/5 86/3/5 87/3/5
f 89/3/5 87/3/5 85/3/5
f 90/2/5 88/2/5 87/2/5
f 90/3/5 87/3/5 89/3/5
f 91/3/5 89/3/5 85/3/5
f 91/2/5 90/2/5 89/2/5
f 92/2/5 88/2/5 90/2/5
f 92/2/5 90/2/5 91/2/5
f 93/3/5 92/3/5 91/3/5
f 93/2/5 88/2/5 92/2/5
f 94/2/5 88/2/5 93/2/5
f 95/3/5 91/3/5 85/3/5
f 95/3/5 93/3/5 91/3/5
f 95/3/5 94/3/5 93/3/5
f 96/3/5 94/3/5 95/3/5
f 100/1/5 98/1/5 97/1/5
f 101/3/5 99/3/5 98/3/5
f 101/1/5 98/1/5 100/1/5
f 102/3/5 99/3/5 101/3/5
f 103/3/6 104/3/6 107/3/6
f 105/2/6 106/2/6 110/2/6
f 108/3/6 109/3/6 111/3/6
f 103/3/6 107/3/6 111/3/6
f 107/3/6 108/3/6 111/3/6
f 111/3/6 109/3/6 112/3/6
f 109/2/6 110/2/6 113/2/6
f 112/3/6 109/3/6 113/3/6
f 110/2/6 106/2/6 114/2/6
f 113/2/6 110/2/6 114/2/6
f 114/2/6 106/2/6 115/2/6
f 115/2/6 106/2/6 116/2/6
f 103/3/6 111/3/6 117/3/6
f 117/3/6 111/3/6 118/3/6
f 119/3/6 120/3/6 121/3/6
f 121/3/6 120/3/6 122/3/6
f 123/1/6 124/1/6 125/1/6
f 125/1/6 124/1/6 126/1/6
f 125/3/6 126/3/6 127/3/6
f 127/3/6 126/3/6 128/3/6
f 125/3/6 127/3/6 129/3/6
f 123/1/6 125/1/6 131/1/6
f 129/3/6 130/3/6 132/3/6
f 131/1/6 125/1/6 132/1/6
f 125/3/6 129/3/6 132/3/6
f 132/3/6 130/3/6 133/3/6
