# MagicaVoxel @ Ephtracy

# group
g 4x2 third-6

# material
mtllib 4x2 third-6.mtl
usemtl palette

# normals
vn -1 0 0
vn 1 0 0
vn 0 0 1
vn 0 0 -1
vn 0 -1 0
vn 0 1 0

# texcoords
vt 0.966797 0.5
vt 0.990234 0.5

# verts
v -63 0 63
v -63 0 -25
v -63 0 -26
v -63 0 -63
v -63 4 -25
v -63 4 -26
v -63 5 63
v -63 5 -61
v -63 80 -61
v -63 80 -63
v 19 11 12
v 19 11 -13
v 19 28 12
v 19 28 -13
v 20 5 26
v 20 5 25
v 20 5 -26
v 20 5 -27
v 20 11 25
v 20 11 12
v 20 11 -13
v 20 11 -26
v 20 12 25
v 20 12 12
v 20 12 -13
v 20 12 -26
v 20 27 25
v 20 27 12
v 20 27 -13
v 20 27 -26
v 20 28 25
v 20 28 12
v 20 28 -13
v 20 28 -26
v 20 32 25
v 20 32 -26
v 20 33 26
v 20 33 -27
v 27 11 -27
v 27 11 -28
v 27 12 -26
v 27 12 -27
v 27 27 -26
v 27 27 -27
v 27 28 -27
v 27 28 -28
v 60 5 -26
v 60 5 -27
v 60 11 -26
v 60 11 -27
v 60 12 -26
v 60 12 -27
v 60 27 -26
v 60 27 -27
v 60 28 -26
v 60 28 -27
v 60 32 -26
v 60 32 -27
v 61 0 25
v 61 0 -61
v 61 4 -26
v 61 4 -27
v 61 5 63
v 61 5 25
v 61 33 -26
v 61 33 -27
v 61 80 63
v 61 80 -61
v 21 0 25
v 21 0 -25
v 21 4 -25
v 21 4 -26
v 21 5 26
v 21 5 25
v 21 5 -26
v 21 5 -27
v 21 11 25
v 21 11 -26
v 21 11 -27
v 21 12 25
v 21 12 12
v 21 12 -13
v 21 12 -26
v 21 12 -27
v 21 27 25
v 21 27 12
v 21 27 -13
v 21 27 -26
v 21 27 -27
v 21 28 25
v 21 28 -26
v 21 28 -27
v 21 32 25
v 21 32 -26
v 21 32 -27
v 21 33 26
v 21 33 -26
v 54 11 -27
v 54 11 -28
v 54 12 -26
v 54 12 -27
v 54 27 -26
v 54 27 -27
v 54 28 -27
v 54 28 -28
v 60 0 -26
v 60 0 -61
v 60 4 -26
v 60 4 -27
v 60 5 -27
v 60 5 -61
v 63 0 63
v 63 0 -63
v 63 80 63
v 63 80 -63
v -63 0 63
v -63 5 63
v 61 5 63
v 61 80 63
v 63 0 63
v 63 80 63
v 20 5 26
v 20 33 26
v 21 5 26
v 21 33 26
v 19 11 12
v 19 28 12
v 20 11 12
v 20 12 12
v 20 27 12
v 20 28 12
v 21 12 12
v 21 27 12
v -63 0 -26
v -63 4 -26
v 20 5 -26
v 20 11 -26
v 20 12 -26
v 20 27 -26
v 20 28 -26
v 20 32 -26
v 21 4 -26
v 21 5 -26
v 21 11 -26
v 21 12 -26
v 21 27 -26
v 21 28 -26
v 21 32 -26
v 21 33 -26
v 27 12 -26
v 27 27 -26
v 54 12 -26
v 54 27 -26
v 60 0 -26
v 60 4 -26
v 60 5 -26
v 60 11 -26
v 60 12 -26
v 60 27 -26
v 60 28 -26
v 60 32 -26
v 61 4 -26
v 61 33 -26
v -63 5 -61
v -63 80 -61
v 60 0 -61
v 60 5 -61
v 61 0 -61
v 61 80 -61
v 20 5 25
v 20 11 25
v 20 12 25
v 20 27 25
v 20 28 25
v 20 32 25
v 21 0 25
v 21 5 25
v 21 11 25
v 21 12 25
v 21 27 25
v 21 28 25
v 21 32 25
v 61 0 25
v 61 5 25
v 19 11 -13
v 19 28 -13
v 20 11 -13
v 20 12 -13
v 20 27 -13
v 20 28 -13
v 21 12 -13
v 21 27 -13
v -63 0 -25
v -63 4 -25
v 21 0 -25
v 21 4 -25
v 20 5 -27
v 20 33 -27
v 21 5 -27
v 21 11 -27
v 21 12 -27
v 21 27 -27
v 21 28 -27
v 21 32 -27
v 27 11 -27
v 27 12 -27
v 27 27 -27
v 27 28 -27
v 54 11 -27
v 54 12 -27
v 54 27 -27
v 54 28 -27
v 60 4 -27
v 60 5 -27
v 60 11 -27
v 60 12 -27
v 60 27 -27
v 60 28 -27
v 60 32 -27
v 61 4 -27
v 61 33 -27
v 27 11 -28
v 27 28 -28
v 54 11 -28
v 54 28 -28
v -63 0 -63
v -63 80 -63
v 63 0 -63
v 63 80 -63
v -63 0 63
v 63 0 63
v 21 0 25
v 61 0 25
v -63 0 -25
v 21 0 -25
v -63 0 -26
v 60 0 -26
v 60 0 -61
v 61 0 -61
v -63 0 -63
v 63 0 -63
v -63 4 -25
v 21 4 -25
v -63 4 -26
v 21 4 -26
v 60 4 -26
v 61 4 -26
v 60 4 -27
v 61 4 -27
v 20 11 25
v 21 11 25
v 19 11 12
v 20 11 12
v 19 11 -13
v 20 11 -13
v 20 11 -26
v 21 11 -26
v 60 11 -26
v 21 11 -27
v 27 11 -27
v 54 11 -27
v 60 11 -27
v 27 11 -28
v 54 11 -28
v 20 27 25
v 21 27 25
v 20 27 12
v 21 27 12
v 20 27 -13
v 21 27 -13
v 20 27 -26
v 21 27 -26
v 27 27 -26
v 54 27 -26
v 60 27 -26
v 21 27 -27
v 27 27 -27
v 54 27 -27
v 60 27 -27
v 20 32 25
v 21 32 25
v 20 32 -26
v 21 32 -26
v 60 32 -26
v 21 32 -27
v 60 32 -27
v -63 5 63
v 61 5 63
v 20 5 26
v 21 5 26
v 20 5 25
v 21 5 25
v 61 5 25
v 20 5 -26
v 21 5 -26
v 60 5 -26
v 20 5 -27
v 21 5 -27
v 60 5 -27
v -63 5 -61
v 60 5 -61
v 20 12 25
v 21 12 25
v 20 12 12
v 21 12 12
v 20 12 -13
v 21 12 -13
v 20 12 -26
v 21 12 -26
v 27 12 -26
v 54 12 -26
v 60 12 -26
v 21 12 -27
v 27 12 -27
v 54 12 -27
v 60 12 -27
v 20 28 25
v 21 28 25
v 19 28 12
v 20 28 12
v 19 28 -13
v 20 28 -13
v 20 28 -26
v 21 28 -26
v 60 28 -26
v 21 28 -27
v 27 28 -27
v 54 28 -27
v 60 28 -27
v 27 28 -28
v 54 28 -28
v 20 33 26
v 21 33 26
v 21 33 -26
v 61 33 -26
v 20 33 -27
v 61 33 -27
v 61 80 63
v 63 80 63
v -63 80 -61
v 61 80 -61
v -63 80 -63
v 63 80 -63

# faces
f 5/1/1 2/1/1 1/1/1
f 6/1/1 4/1/1 3/1/1
f 7/1/1 5/1/1 1/1/1
f 7/1/1 6/1/1 5/1/1
f 8/1/1 4/1/1 6/1/1
f 8/1/1 6/1/1 7/1/1
f 9/1/1 4/1/1 8/1/1
f 10/1/1 4/1/1 9/1/1
f 13/2/1 12/2/1 11/2/1
f 14/2/1 12/2/1 13/2/1
f 19/2/1 16/2/1 15/2/1
f 22/2/1 18/2/1 17/2/1
f 23/2/1 20/2/1 19/2/1
f 23/2/1 19/2/1 15/2/1
f 24/2/1 20/2/1 23/2/1
f 25/2/1 22/2/1 21/2/1
f 26/2/1 18/2/1 22/2/1
f 26/2/1 22/2/1 25/2/1
f 27/2/1 23/2/1 15/2/1
f 30/2/1 18/2/1 26/2/1
f 31/2/1 28/2/1 27/2/1
f 31/2/1 27/2/1 15/2/1
f 32/2/1 28/2/1 31/2/1
f 33/2/1 30/2/1 29/2/1
f 34/2/1 18/2/1 30/2/1
f 34/2/1 30/2/1 33/2/1
f 35/2/1 31/2/1 15/2/1
f 36/2/1 18/2/1 34/2/1
f 37/2/1 35/2/1 15/2/1
f 37/2/1 36/2/1 35/2/1
f 38/2/1 18/2/1 36/2/1
f 38/2/1 36/2/1 37/2/1
f 42/2/1 40/2/1 39/2/1
f 43/2/1 42/2/1 41/2/1
f 44/2/1 40/2/1 42/2/1
f 44/2/1 42/2/1 43/2/1
f 45/2/1 40/2/1 44/2/1
f 46/2/1 40/2/1 45/2/1
f 49/2/1 48/2/1 47/2/1
f 50/2/1 48/2/1 49/2/1
f 53/2/1 52/2/1 51/2/1
f 54/2/1 52/2/1 53/2/1
f 57/2/1 56/2/1 55/2/1
f 58/2/1 56/2/1 57/2/1
f 61/1/1 60/1/1 59/1/1
f 62/1/1 60/1/1 61/1/1
f 64/1/1 61/1/1 59/1/1
f 65/1/1 61/1/1 64/1/1
f 65/1/1 64/1/1 63/1/1
f 66/1/1 60/1/1 62/1/1
f 67/1/1 65/1/1 63/1/1
f 67/1/1 66/1/1 65/1/1
f 68/1/1 60/1/1 66/1/1
f 68/1/1 66/1/1 67/1/1
f 69/1/2 70/1/2 71/1/2
f 69/1/2 71/1/2 74/1/2
f 71/1/2 72/1/2 74/1/2
f 74/1/2 72/1/2 75/1/2
f 73/2/2 74/2/2 77/2/2
f 75/2/2 76/2/2 78/2/2
f 78/2/2 76/2/2 79/2/2
f 73/2/2 77/2/2 80/2/2
f 77/2/2 78/2/2 80/2/2
f 80/2/2 78/2/2 81/2/2
f 81/2/2 78/2/2 82/2/2
f 82/2/2 78/2/2 83/2/2
f 73/2/2 80/2/2 85/2/2
f 81/2/2 82/2/2 86/2/2
f 86/2/2 82/2/2 87/2/2
f 83/2/2 84/2/2 88/2/2
f 88/2/2 84/2/2 89/2/2
f 86/2/2 87/2/2 90/2/2
f 73/2/2 85/2/2 90/2/2
f 87/2/2 88/2/2 90/2/2
f 85/2/2 86/2/2 90/2/2
f 90/2/2 88/2/2 91/2/2
f 73/2/2 90/2/2 93/2/2
f 91/2/2 92/2/2 94/2/2
f 94/2/2 92/2/2 95/2/2
f 73/2/2 93/2/2 96/2/2
f 93/2/2 94/2/2 96/2/2
f 96/2/2 94/2/2 97/2/2
f 98/2/2 99/2/2 101/2/2
f 100/2/2 101/2/2 102/2/2
f 101/2/2 99/2/2 103/2/2
f 102/2/2 101/2/2 103/2/2
f 103/2/2 99/2/2 104/2/2
f 104/2/2 99/2/2 105/2/2
f 106/1/2 107/1/2 108/1/2
f 108/1/2 107/1/2 109/1/2
f 109/1/2 107/1/2 110/1/2
f 110/1/2 107/1/2 111/1/2
f 112/1/2 113/1/2 114/1/2
f 114/1/2 113/1/2 115/1/2
f 118/1/3 117/1/3 116/1/3
f 120/1/3 118/1/3 116/1/3
f 120/1/3 119/1/3 118/1/3
f 121/1/3 119/1/3 120/1/3
f 124/2/3 123/2/3 122/2/3
f 125/2/3 123/2/3 124/2/3
f 128/2/3 127/2/3 126/2/3
f 129/2/3 127/2/3 128/2/3
f 130/2/3 127/2/3 129/2/3
f 131/2/3 127/2/3 130/2/3
f 132/2/3 130/2/3 129/2/3
f 133/2/3 130/2/3 132/2/3
f 142/1/3 135/1/3 134/1/3
f 143/2/3 137/2/3 136/2/3
f 144/2/3 137/2/3 143/2/3
f 145/2/3 139/2/3 138/2/3
f 146/2/3 139/2/3 145/2/3
f 147/2/3 141/2/3 140/2/3
f 148/2/3 141/2/3 147/2/3
f 150/2/3 145/2/3 144/2/3
f 151/2/3 147/2/3 146/2/3
f 152/2/3 150/2/3 144/2/3
f 152/2/3 151/2/3 150/2/3
f 153/2/3 147/2/3 151/2/3
f 153/2/3 151/2/3 152/2/3
f 154/1/3 142/1/3 134/1/3
f 154/1/3 143/1/3 142/1/3
f 155/1/3 143/1/3 154/1/3
f 156/1/3 143/1/3 155/1/3
f 157/2/3 152/2/3 144/2/3
f 158/2/3 152/2/3 157/2/3
f 159/2/3 147/2/3 153/2/3
f 160/2/3 147/2/3 159/2/3
f 161/2/3 149/2/3 148/2/3
f 162/2/3 160/2/3 159/2/3
f 162/2/3 161/2/3 160/2/3
f 162/2/3 158/2/3 157/2/3
f 162/2/3 156/2/3 155/2/3
f 162/2/3 159/2/3 158/2/3
f 162/2/3 157/2/3 156/2/3
f 163/2/3 149/2/3 161/2/3
f 163/2/3 161/2/3 162/2/3
f 167/1/3 165/1/3 164/1/3
f 168/1/3 167/1/3 166/1/3
f 169/1/3 165/1/3 167/1/3
f 169/1/3 167/1/3 168/1/3
f 170/2/4 171/2/4 177/2/4
f 177/2/4 171/2/4 178/2/4
f 172/2/4 173/2/4 179/2/4
f 179/2/4 173/2/4 180/2/4
f 174/2/4 175/2/4 181/2/4
f 181/2/4 175/2/4 182/2/4
f 176/1/4 177/1/4 183/1/4
f 183/1/4 177/1/4 184/1/4
f 185/2/4 186/2/4 187/2/4
f 187/2/4 186/2/4 188/2/4
f 188/2/4 186/2/4 189/2/4
f 189/2/4 186/2/4 190/2/4
f 188/2/4 189/2/4 191/2/4
f 191/2/4 189/2/4 192/2/4
f 193/1/4 194/1/4 195/1/4
f 195/1/4 194/1/4 196/1/4
f 197/2/4 198/2/4 199/2/4
f 199/2/4 198/2/4 200/2/4
f 200/2/4 198/2/4 201/2/4
f 201/2/4 198/2/4 202/2/4
f 202/2/4 198/2/4 203/2/4
f 203/2/4 198/2/4 204/2/4
f 200/2/4 201/2/4 205/2/4
f 205/2/4 201/2/4 206/2/4
f 202/2/4 203/2/4 207/2/4
f 207/2/4 203/2/4 208/2/4
f 209/2/4 210/2/4 215/2/4
f 215/2/4 210/2/4 216/2/4
f 211/2/4 212/2/4 217/2/4
f 217/2/4 212/2/4 218/2/4
f 204/2/4 198/2/4 219/2/4
f 217/2/4 218/2/4 220/2/4
f 218/2/4 219/2/4 220/2/4
f 216/2/4 217/2/4 220/2/4
f 213/2/4 214/2/4 220/2/4
f 215/2/4 216/2/4 220/2/4
f 214/2/4 215/2/4 220/2/4
f 219/2/4 198/2/4 221/2/4
f 220/2/4 219/2/4 221/2/4
f 222/2/4 223/2/4 224/2/4
f 224/2/4 223/2/4 225/2/4
f 226/1/4 227/1/4 228/1/4
f 228/1/4 227/1/4 229/1/4
f 232/1/5 231/1/5 230/1/5
f 233/1/5 231/1/5 232/1/5
f 234/1/5 232/1/5 230/1/5
f 235/1/5 232/1/5 234/1/5
f 238/1/5 237/1/5 236/1/5
f 239/1/5 231/1/5 233/1/5
f 240/1/5 238/1/5 236/1/5
f 240/1/5 239/1/5 238/1/5
f 241/1/5 231/1/5 239/1/5
f 241/1/5 239/1/5 240/1/5
f 244/1/5 243/1/5 242/1/5
f 245/1/5 243/1/5 244/1/5
f 248/2/5 247/2/5 246/2/5
f 249/2/5 247/2/5 248/2/5
f 253/2/5 251/2/5 250/2/5
f 254/2/5 253/2/5 252/2/5
f 255/2/5 251/2/5 253/2/5
f 255/2/5 253/2/5 254/2/5
f 256/2/5 251/2/5 255/2/5
f 257/2/5 251/2/5 256/2/5
f 259/2/5 258/2/5 257/2/5
f 260/2/5 258/2/5 259/2/5
f 261/2/5 258/2/5 260/2/5
f 262/2/5 258/2/5 261/2/5
f 263/2/5 261/2/5 260/2/5
f 264/2/5 261/2/5 263/2/5
f 267/2/5 266/2/5 265/2/5
f 268/2/5 266/2/5 267/2/5
f 271/2/5 270/2/5 269/2/5
f 272/2/5 270/2/5 271/2/5
f 276/2/5 273/2/5 272/2/5
f 277/2/5 273/2/5 276/2/5
f 278/2/5 275/2/5 274/2/5
f 279/2/5 275/2/5 278/2/5
f 282/2/5 281/2/5 280/2/5
f 283/2/5 281/2/5 282/2/5
f 285/2/5 284/2/5 283/2/5
f 286/2/5 284/2/5 285/2/5
f 287/1/6 288/1/6 289/1/6
f 289/1/6 288/1/6 290/1/6
f 287/1/6 289/1/6 291/1/6
f 290/1/6 288/1/6 292/1/6
f 292/1/6 288/1/6 293/1/6
f 287/1/6 291/1/6 294/1/6
f 291/1/6 292/1/6 294/1/6
f 294/1/6 292/1/6 295/1/6
f 287/1/6 294/1/6 297/1/6
f 295/1/6 296/1/6 298/1/6
f 298/1/6 296/1/6 299/1/6
f 287/1/6 297/1/6 300/1/6
f 297/1/6 298/1/6 300/1/6
f 298/1/6 299/1/6 300/1/6
f 300/1/6 299/1/6 301/1/6
f 302/2/6 303/2/6 304/2/6
f 304/2/6 303/2/6 305/2/6
f 306/2/6 307/2/6 308/2/6
f 308/2/6 307/2/6 309/2/6
f 309/2/6 310/2/6 313/2/6
f 313/2/6 310/2/6 314/2/6
f 311/2/6 312/2/6 315/2/6
f 315/2/6 312/2/6 316/2/6
f 317/2/6 318/2/6 320/2/6
f 319/2/6 320/2/6 321/2/6
f 320/2/6 318/2/6 322/2/6
f 321/2/6 320/2/6 322/2/6
f 322/2/6 318/2/6 323/2/6
f 323/2/6 318/2/6 324/2/6
f 324/2/6 325/2/6 326/2/6
f 326/2/6 325/2/6 327/2/6
f 327/2/6 325/2/6 328/2/6
f 328/2/6 325/2/6 329/2/6
f 327/2/6 328/2/6 330/2/6
f 330/2/6 328/2/6 331/2/6
f 332/2/6 333/2/6 334/2/6
f 332/2/6 334/2/6 336/2/6
f 334/2/6 335/2/6 336/2/6
f 336/2/6 335/2/6 337/2/6
f 338/1/6 339/1/6 341/1/6
f 340/1/6 341/1/6 342/1/6
f 341/1/6 339/1/6 343/1/6
f 342/1/6 341/1/6 343/1/6
