# MagicaVoxel @ Ephtracy

# group
g 4x2 third-4

# material
mtllib 4x2 third-4.mtl
usemtl palette

# normals
vn -1 0 0
vn 1 0 0
vn 0 0 1
vn 0 0 -1
vn 0 -1 0
vn 0 1 0

# texcoords
vt 0.958984 0.5
vt 0.962891 0.5
vt 0.966797 0.5
vt 0.970703 0.5
vt 0.974609 0.5
vt 0.982422 0.5
vt 0.990234 0.5
vt 0.994141 0.5

# verts
v -63 0 63
v -63 0 -63
v -63 80 63
v -63 80 -63
v -55 5 10
v -55 5 9
v -55 64 10
v -55 64 9
v -41 67 10
v -41 67 9
v -41 73 10
v -41 73 9
v -15 5 10
v -15 5 9
v -15 58 10
v -15 58 9
v -2 31 10
v -2 31 9
v -2 41 10
v -2 41 9
v 8 5 10
v 8 5 9
v 8 27 63
v 8 27 62
v 8 33 63
v 8 33 62
v 8 64 10
v 8 64 9
v 22 67 10
v 22 67 9
v 22 73 10
v 22 73 9
v 48 5 10
v 48 5 9
v 48 58 10
v 48 58 9
v 62 5 8
v 62 5 -61
v 62 79 8
v 62 79 -61
v -62 5 63
v -62 5 9
v -62 5 8
v -62 5 -61
v -62 79 8
v -62 79 -61
v -62 80 63
v -62 80 9
v -45 5 10
v -45 5 9
v -45 58 10
v -45 58 9
v -19 67 10
v -19 67 9
v -19 73 10
v -19 73 9
v -5 5 10
v -5 5 9
v -5 64 10
v -5 64 9
v 5 31 10
v 5 31 9
v 5 41 10
v 5 41 9
v 13 27 63
v 13 27 62
v 13 33 63
v 13 33 62
v 18 5 10
v 18 5 9
v 18 58 10
v 18 58 9
v 44 67 10
v 44 67 9
v 44 73 10
v 44 73 9
v 58 5 10
v 58 5 9
v 58 64 10
v 58 64 9
v 63 0 63
v 63 0 -63
v 63 5 63
v 63 5 9
v 63 80 9
v 63 80 -63
v -63 0 63
v -63 80 63
v -62 5 63
v -62 80 63
v 8 27 63
v 8 33 63
v 9 29 63
v 9 31 63
v 12 29 63
v 12 31 63
v 13 27 63
v 13 33 63
v 63 0 63
v 63 5 63
v -55 5 10
v -55 64 10
v -45 5 10
v -45 58 10
v -41 67 10
v -41 73 10
v -40 68 10
v -40 72 10
v -20 68 10
v -20 72 10
v -19 67 10
v -19 73 10
v -15 5 10
v -15 58 10
v -5 5 10
v -5 64 10
v -2 31 10
v -2 41 10
v -1 34 10
v -1 35 10
v -1 37 10
v -1 38 10
v 0 35 10
v 0 37 10
v 1 34 10
v 1 38 10
v 2 34 10
v 2 38 10
v 3 35 10
v 3 37 10
v 4 34 10
v 4 35 10
v 4 37 10
v 4 38 10
v 5 31 10
v 5 41 10
v 8 5 10
v 8 64 10
v 18 5 10
v 18 58 10
v 22 67 10
v 22 73 10
v 23 68 10
v 23 72 10
v 43 68 10
v 43 72 10
v 44 67 10
v 44 73 10
v 48 5 10
v 48 58 10
v 58 5 10
v 58 64 10
v -62 5 9
v -62 80 9
v -55 5 9
v -55 64 9
v -45 5 9
v -45 58 9
v -41 67 9
v -41 73 9
v -30 5 9
v -30 58 9
v -29 5 9
v -29 58 9
v -19 67 9
v -19 73 9
v -15 5 9
v -15 58 9
v -5 5 9
v -5 64 9
v -2 31 9
v -2 41 9
v 5 31 9
v 5 41 9
v 8 5 9
v 8 64 9
v 18 5 9
v 18 58 9
v 22 67 9
v 22 73 9
v 34 5 9
v 34 58 9
v 35 5 9
v 35 58 9
v 44 67 9
v 44 73 9
v 48 5 9
v 48 58 9
v 58 5 9
v 58 64 9
v 63 5 9
v 63 80 9
v -62 5 -61
v -62 79 -61
v 62 5 -61
v 62 79 -61
v 8 27 62
v 8 33 62
v 9 29 62
v 9 31 62
v 12 29 62
v 12 31 62
v 13 27 62
v 13 33 62
v -62 5 8
v -62 79 8
v -45 5 8
v -45 58 8
v -30 5 8
v -30 58 8
v -29 5 8
v -29 58 8
v -15 5 8
v -15 58 8
v 18 5 8
v 18 58 8
v 34 5 8
v 34 58 8
v 35 5 8
v 35 58 8
v 48 5 8
v 48 58 8
v 62 5 8
v 62 79 8
v -63 0 -63
v -63 80 -63
v 63 0 -63
v 63 80 -63
v -63 0 63
v 63 0 63
v -63 0 -63
v 63 0 -63
v 8 27 63
v 13 27 63
v 8 27 62
v 13 27 62
v -2 31 10
v 5 31 10
v -2 31 9
v 5 31 9
v -45 58 10
v -15 58 10
v 18 58 10
v 48 58 10
v -45 58 9
v -30 58 9
v -29 58 9
v -15 58 9
v 18 58 9
v 34 58 9
v 35 58 9
v 48 58 9
v -41 67 10
v -19 67 10
v 22 67 10
v 44 67 10
v -41 67 9
v -19 67 9
v 22 67 9
v 44 67 9
v -62 79 8
v 62 79 8
v -62 79 -61
v 62 79 -61
v -62 5 63
v 63 5 63
v -55 5 10
v -45 5 10
v -15 5 10
v -5 5 10
v 8 5 10
v 18 5 10
v 48 5 10
v 58 5 10
v -62 5 9
v -55 5 9
v -45 5 9
v -30 5 9
v -29 5 9
v -15 5 9
v -5 5 9
v 8 5 9
v 18 5 9
v 34 5 9
v 35 5 9
v 48 5 9
v 58 5 9
v 63 5 9
v -62 5 8
v -45 5 8
v -30 5 8
v -29 5 8
v -15 5 8
v 18 5 8
v 34 5 8
v 35 5 8
v 48 5 8
v 62 5 8
v -62 5 -61
v 62 5 -61
v 8 33 63
v 13 33 63
v 8 33 62
v 13 33 62
v -2 41 10
v 5 41 10
v -2 41 9
v 5 41 9
v -55 64 10
v -5 64 10
v 8 64 10
v 58 64 10
v -55 64 9
v -5 64 9
v 8 64 9
v 58 64 9
v -41 73 10
v -19 73 10
v 22 73 10
v 44 73 10
v -41 73 9
v -19 73 9
v 22 73 9
v 44 73 9
v -63 80 63
v -62 80 63
v -62 80 9
v 63 80 9
v -63 80 -63
v 63 80 -63

# faces
f 3/3/1 2/3/1 1/3/1
f 4/3/1 2/3/1 3/3/1
f 7/5/1 6/5/1 5/5/1
f 8/5/1 6/5/1 7/5/1
f 11/4/1 10/4/1 9/4/1
f 12/4/1 10/4/1 11/4/1
f 15/5/1 14/5/1 13/5/1
f 16/5/1 14/5/1 15/5/1
f 19/4/1 18/4/1 17/4/1
f 20/4/1 18/4/1 19/4/1
f 25/6/1 24/6/1 23/6/1
f 26/6/1 24/6/1 25/6/1
f 27/5/1 22/5/1 21/5/1
f 28/5/1 22/5/1 27/5/1
f 31/4/1 30/4/1 29/4/1
f 32/4/1 30/4/1 31/4/1
f 35/5/1 34/5/1 33/5/1
f 36/5/1 34/5/1 35/5/1
f 39/3/1 38/3/1 37/3/1
f 40/3/1 38/3/1 39/3/1
f 43/3/2 44/3/2 45/3/2
f 45/3/2 44/3/2 46/3/2
f 41/3/2 42/3/2 47/3/2
f 47/3/2 42/3/2 48/3/2
f 49/5/2 50/5/2 51/5/2
f 51/5/2 50/5/2 52/5/2
f 53/4/2 54/4/2 55/4/2
f 55/4/2 54/4/2 56/4/2
f 57/5/2 58/5/2 59/5/2
f 59/5/2 58/5/2 60/5/2
f 61/4/2 62/4/2 63/4/2
f 63/4/2 62/4/2 64/4/2
f 65/6/2 66/6/2 67/6/2
f 67/6/2 66/6/2 68/6/2
f 69/5/2 70/5/2 71/5/2
f 71/5/2 70/5/2 72/5/2
f 73/4/2 74/4/2 75/4/2
f 75/4/2 74/4/2 76/4/2
f 77/5/2 78/5/2 79/5/2
f 79/5/2 78/5/2 80/5/2
f 81/3/2 82/3/2 83/3/2
f 83/3/2 82/3/2 84/3/2
f 84/3/2 82/3/2 85/3/2
f 85/3/2 82/3/2 86/3/2
f 89/3/3 88/3/3 87/3/3
f 90/3/3 88/3/3 89/3/3
f 93/6/3 92/6/3 91/6/3
f 94/6/3 92/6/3 93/6/3
f 95/6/3 93/6/3 91/6/3
f 95/1/3 94/1/3 93/1/3
f 96/6/3 92/6/3 94/6/3
f 96/1/3 94/1/3 95/1/3
f 97/6/3 95/6/3 91/6/3
f 97/6/3 96/6/3 95/6/3
f 98/6/3 92/6/3 96/6/3
f 98/6/3 96/6/3 97/6/3
f 99/3/3 89/3/3 87/3/3
f 100/3/3 89/3/3 99/3/3
f 103/5/3 102/5/3 101/5/3
f 104/5/3 102/5/3 103/5/3
f 107/4/3 106/4/3 105/4/3
f 108/4/3 106/4/3 107/4/3
f 109/4/3 107/4/3 105/4/3
f 109/2/3 108/2/3 107/2/3
f 110/4/3 106/4/3 108/4/3
f 110/2/3 108/2/3 109/2/3
f 111/4/3 109/4/3 105/4/3
f 111/4/3 110/4/3 109/4/3
f 112/4/3 106/4/3 110/4/3
f 112/4/3 110/4/3 111/4/3
f 114/5/3 102/5/3 104/5/3
f 115/5/3 114/5/3 113/5/3
f 116/5/3 102/5/3 114/5/3
f 116/5/3 114/5/3 115/5/3
f 119/4/3 118/4/3 117/4/3
f 120/4/3 118/4/3 119/4/3
f 121/4/3 118/4/3 120/4/3
f 122/4/3 118/4/3 121/4/3
f 123/3/3 120/3/3 119/3/3
f 123/7/3 121/7/3 120/7/3
f 124/3/3 122/3/3 121/3/3
f 124/7/3 121/7/3 123/7/3
f 125/4/3 119/4/3 117/4/3
f 125/3/3 123/3/3 119/3/3
f 125/3/3 124/3/3 123/3/3
f 126/3/3 122/3/3 124/3/3
f 126/3/3 124/3/3 125/3/3
f 126/4/3 118/4/3 122/4/3
f 127/4/3 125/4/3 117/4/3
f 127/4/3 126/4/3 125/4/3
f 128/4/3 118/4/3 126/4/3
f 128/4/3 126/4/3 127/4/3
f 129/3/3 128/3/3 127/3/3
f 130/3/3 128/3/3 129/3/3
f 131/4/3 127/4/3 117/4/3
f 131/3/3 129/3/3 127/3/3
f 132/7/3 130/7/3 129/7/3
f 132/3/3 129/3/3 131/3/3
f 133/3/3 128/3/3 130/3/3
f 133/7/3 130/7/3 132/7/3
f 134/4/3 118/4/3 128/4/3
f 134/3/3 128/3/3 133/3/3
f 135/4/3 132/4/3 131/4/3
f 135/4/3 133/4/3 132/4/3
f 135/4/3 134/4/3 133/4/3
f 135/4/3 131/4/3 117/4/3
f 136/4/3 118/4/3 134/4/3
f 136/4/3 134/4/3 135/4/3
f 139/5/3 138/5/3 137/5/3
f 140/5/3 138/5/3 139/5/3
f 143/4/3 142/4/3 141/4/3
f 144/4/3 142/4/3 143/4/3
f 145/4/3 143/4/3 141/4/3
f 145/2/3 144/2/3 143/2/3
f 146/4/3 142/4/3 144/4/3
f 146/2/3 144/2/3 145/2/3
f 147/4/3 145/4/3 141/4/3
f 147/4/3 146/4/3 145/4/3
f 148/4/3 142/4/3 146/4/3
f 148/4/3 146/4/3 147/4/3
f 150/5/3 138/5/3 140/5/3
f 151/5/3 150/5/3 149/5/3
f 152/5/3 138/5/3 150/5/3
f 152/5/3 150/5/3 151/5/3
f 155/3/3 154/3/3 153/3/3
f 156/3/3 154/3/3 155/3/3
f 159/3/3 154/3/3 156/3/3
f 160/3/3 154/3/3 159/3/3
f 161/6/3 158/6/3 157/6/3
f 162/6/3 158/6/3 161/6/3
f 163/8/3 162/8/3 161/8/3
f 164/8/3 162/8/3 163/8/3
f 165/3/3 159/3/3 156/3/3
f 166/3/3 154/3/3 160/3/3
f 167/6/3 164/6/3 163/6/3
f 168/6/3 164/6/3 167/6/3
f 170/3/3 165/3/3 156/3/3
f 170/3/3 166/3/3 165/3/3
f 171/3/3 170/3/3 169/3/3
f 172/3/3 170/3/3 171/3/3
f 173/3/3 171/3/3 169/3/3
f 174/3/3 170/3/3 172/3/3
f 175/3/3 173/3/3 169/3/3
f 175/3/3 174/3/3 173/3/3
f 176/3/3 166/3/3 170/3/3
f 176/3/3 174/3/3 175/3/3
f 176/3/3 170/3/3 174/3/3
f 179/3/3 166/3/3 176/3/3
f 180/3/3 154/3/3 166/3/3
f 180/3/3 166/3/3 179/3/3
f 181/6/3 178/6/3 177/6/3
f 182/6/3 178/6/3 181/6/3
f 183/8/3 182/8/3 181/8/3
f 184/8/3 182/8/3 183/8/3
f 185/3/3 179/3/3 176/3/3
f 186/3/3 154/3/3 180/3/3
f 187/6/3 184/6/3 183/6/3
f 188/6/3 184/6/3 187/6/3
f 190/3/3 186/3/3 185/3/3
f 190/3/3 185/3/3 176/3/3
f 191/3/3 190/3/3 189/3/3
f 192/3/3 154/3/3 186/3/3
f 192/3/3 190/3/3 191/3/3
f 192/3/3 186/3/3 190/3/3
f 195/3/3 194/3/3 193/3/3
f 196/3/3 194/3/3 195/3/3
f 197/6/4 198/6/4 199/6/4
f 199/6/4 198/6/4 200/6/4
f 197/6/4 199/6/4 201/6/4
f 199/1/4 200/1/4 201/1/4
f 200/6/4 198/6/4 202/6/4
f 201/1/4 200/1/4 202/1/4
f 197/6/4 201/6/4 203/6/4
f 201/6/4 202/6/4 203/6/4
f 202/6/4 198/6/4 204/6/4
f 203/6/4 202/6/4 204/6/4
f 205/3/4 206/3/4 207/3/4
f 207/3/4 206/3/4 208/3/4
f 207/6/4 208/6/4 209/6/4
f 208/3/4 206/3/4 210/3/4
f 209/6/4 208/6/4 210/6/4
f 209/8/4 210/8/4 211/8/4
f 210/3/4 206/3/4 212/3/4
f 211/8/4 210/8/4 212/8/4
f 211/6/4 212/6/4 213/6/4
f 212/3/4 206/3/4 214/3/4
f 213/6/4 212/6/4 214/6/4
f 213/3/4 214/3/4 215/3/4
f 214/3/4 206/3/4 216/3/4
f 215/3/4 214/3/4 216/3/4
f 215/6/4 216/6/4 217/6/4
f 216/3/4 206/3/4 218/3/4
f 217/6/4 216/6/4 218/6/4
f 217/8/4 218/8/4 219/8/4
f 218/3/4 206/3/4 220/3/4
f 219/8/4 218/8/4 220/8/4
f 219/6/4 220/6/4 221/6/4
f 220/3/4 206/3/4 222/3/4
f 221/6/4 220/6/4 222/6/4
f 221/3/4 222/3/4 223/3/4
f 222/3/4 206/3/4 224/3/4
f 223/3/4 222/3/4 224/3/4
f 225/3/4 226/3/4 227/3/4
f 227/3/4 226/3/4 228/3/4
f 231/3/5 230/3/5 229/3/5
f 232/3/5 230/3/5 231/3/5
f 235/6/5 234/6/5 233/6/5
f 236/6/5 234/6/5 235/6/5
f 239/4/5 238/4/5 237/4/5
f 240/4/5 238/4/5 239/4/5
f 245/5/5 242/5/5 241/5/5
f 246/5/5 242/5/5 245/5/5
f 247/5/5 242/5/5 246/5/5
f 248/5/5 242/5/5 247/5/5
f 249/5/5 244/5/5 243/5/5
f 250/5/5 244/5/5 249/5/5
f 251/5/5 244/5/5 250/5/5
f 252/5/5 244/5/5 251/5/5
f 257/4/5 254/4/5 253/4/5
f 258/4/5 254/4/5 257/4/5
f 259/4/5 256/4/5 255/4/5
f 260/4/5 256/4/5 259/4/5
f 263/3/5 262/3/5 261/3/5
f 264/3/5 262/3/5 263/3/5
f 265/3/6 266/3/6 267/3/6
f 267/3/6 266/3/6 268/3/6
f 268/3/6 266/3/6 269/3/6
f 269/3/6 266/3/6 270/3/6
f 270/3/6 266/3/6 271/3/6
f 271/3/6 266/3/6 272/3/6
f 272/3/6 266/3/6 273/3/6
f 273/3/6 266/3/6 274/3/6
f 265/3/6 267/3/6 275/3/6
f 275/3/6 267/3/6 276/3/6
f 268/3/6 269/3/6 277/3/6
f 277/3/6 269/3/6 278/3/6
f 278/3/6 269/3/6 279/3/6
f 279/3/6 269/3/6 280/3/6
f 270/3/6 271/3/6 281/3/6
f 281/3/6 271/3/6 282/3/6
f 272/3/6 273/3/6 283/3/6
f 283/3/6 273/3/6 284/3/6
f 284/3/6 273/3/6 285/3/6
f 285/3/6 273/3/6 286/3/6
f 274/3/6 266/3/6 287/3/6
f 287/3/6 266/3/6 288/3/6
f 289/3/6 290/3/6 299/3/6
f 297/3/6 298/3/6 299/3/6
f 296/3/6 297/3/6 299/3/6
f 295/3/6 296/3/6 299/3/6
f 294/3/6 295/3/6 299/3/6
f 293/3/6 294/3/6 299/3/6
f 292/3/6 293/3/6 299/3/6
f 291/3/6 292/3/6 299/3/6
f 290/3/6 291/3/6 299/3/6
f 299/3/6 298/3/6 300/3/6
f 301/6/6 302/6/6 303/6/6
f 303/6/6 302/6/6 304/6/6
f 305/4/6 306/4/6 307/4/6
f 307/4/6 306/4/6 308/4/6
f 309/5/6 310/5/6 313/5/6
f 313/5/6 310/5/6 314/5/6
f 311/5/6 312/5/6 315/5/6
f 315/5/6 312/5/6 316/5/6
f 317/4/6 318/4/6 321/4/6
f 321/4/6 318/4/6 322/4/6
f 319/4/6 320/4/6 323/4/6
f 323/4/6 320/4/6 324/4/6
f 325/3/6 326/3/6 327/3/6
f 325/3/6 327/3/6 329/3/6
f 327/3/6 328/3/6 329/3/6
f 329/3/6 328/3/6 330/3/6
