# MagicaVoxel @ Ephtracy

# group
g 4x2 second-7

# material
mtllib 4x2 second-7.mtl
usemtl palette

# normals
vn -1 0 0
vn 1 0 0
vn 0 0 1
vn 0 0 -1
vn 0 -1 0
vn 0 1 0

# texcoords
vt 0.966797 0.5
vt 0.986328 0.5

# verts
v -63 0 63
v -63 0 -63
v -63 80 63
v -63 80 -63
v 48 3 33
v 48 3 32
v 48 43 33
v 48 43 32
v 62 3 32
v 62 3 -18
v 62 3 -48
v 62 3 -62
v 62 43 -18
v 62 43 -48
v 62 80 32
v 62 80 -62
v -61 3 32
v -61 3 -62
v -61 80 32
v -61 80 -62
v -22 3 60
v -22 3 33
v -22 80 60
v -22 80 33
v -21 24 63
v -21 24 62
v -21 24 60
v -21 80 63
v -21 80 62
v -21 80 60
v 18 3 33
v 18 3 32
v 18 43 33
v 18 43 32
v 63 0 63
v 63 0 -63
v 63 3 60
v 63 3 33
v 63 3 -18
v 63 3 -48
v 63 24 63
v 63 24 60
v 63 43 -18
v 63 43 -48
v 63 80 33
v 63 80 -63
v -63 0 63
v -63 80 63
v -21 0 63
v -21 24 63
v -21 80 63
v 63 0 63
v 63 24 63
v -22 3 33
v -22 80 33
v 18 3 33
v 18 43 33
v 48 3 33
v 48 43 33
v 63 3 33
v 63 80 33
v 62 3 -48
v 62 43 -48
v 63 3 -48
v 63 43 -48
v -61 3 -62
v -61 80 -62
v 62 3 -62
v 62 80 -62
v -22 3 60
v -22 80 60
v -21 24 60
v -21 80 60
v 63 3 60
v 63 24 60
v -61 3 32
v -61 80 32
v 18 3 32
v 18 43 32
v 48 3 32
v 48 43 32
v 62 3 32
v 62 80 32
v 62 3 -18
v 62 43 -18
v 63 3 -18
v 63 43 -18
v -63 0 -63
v -63 80 -63
v -62 0 -63
v -62 80 -63
v 63 0 -63
v 63 80 -63
v -63 0 63
v -21 0 63
v 63 0 63
v -62 0 62
v -21 0 62
v -63 0 -63
v -62 0 -63
v 63 0 -63
v 18 43 33
v 48 43 33
v 18 43 32
v 48 43 32
v 62 43 -18
v 63 43 -18
v 62 43 -48
v 63 43 -48
v -22 3 60
v 63 3 60
v -22 3 33
v 18 3 33
v 48 3 33
v 63 3 33
v -61 3 32
v 18 3 32
v 48 3 32
v 62 3 32
v 62 3 -18
v 63 3 -18
v 62 3 -48
v 63 3 -48
v -61 3 -62
v 62 3 -62
v -21 24 63
v 63 24 63
v -21 24 62
v -21 24 60
v 63 24 60
v -63 80 63
v -21 80 63
v -62 80 62
v -21 80 62
v -22 80 60
v -21 80 60
v -22 80 33
v 63 80 33
v -61 80 32
v 62 80 32
v -61 80 -62
v 62 80 -62
v -63 80 -63
v -62 80 -63
v 63 80 -63

# faces
f 3/2/1 2/2/1 1/2/1
f 4/2/1 2/2/1 3/2/1
f 7/1/1 6/1/1 5/1/1
f 8/1/1 6/1/1 7/1/1
f 13/1/1 10/1/1 9/1/1
f 14/1/1 12/1/1 11/1/1
f 15/1/1 13/1/1 9/1/1
f 15/1/1 14/1/1 13/1/1
f 16/1/1 12/1/1 14/1/1
f 16/1/1 14/1/1 15/1/1
f 17/1/2 18/1/2 19/1/2
f 19/1/2 18/1/2 20/1/2
f 21/1/2 22/1/2 23/1/2
f 23/1/2 22/1/2 24/1/2
f 25/2/2 26/2/2 28/2/2
f 26/1/2 27/1/2 29/1/2
f 28/2/2 26/2/2 29/2/2
f 29/1/2 27/1/2 30/1/2
f 31/1/2 32/1/2 33/1/2
f 33/1/2 32/1/2 34/1/2
f 35/1/2 36/1/2 37/1/2
f 37/1/2 36/1/2 38/1/2
f 38/1/2 36/1/2 39/1/2
f 39/1/2 36/1/2 40/1/2
f 35/1/2 37/1/2 41/1/2
f 41/1/2 37/1/2 42/1/2
f 38/1/2 39/1/2 43/1/2
f 40/1/2 36/1/2 44/1/2
f 38/1/2 43/1/2 45/1/2
f 43/1/2 44/1/2 45/1/2
f 44/1/2 36/1/2 46/1/2
f 45/1/2 44/1/2 46/1/2
f 49/2/3 48/2/3 47/2/3
f 50/2/3 48/2/3 49/2/3
f 51/2/3 48/2/3 50/2/3
f 52/1/3 50/1/3 49/1/3
f 53/1/3 50/1/3 52/1/3
f 56/1/3 55/1/3 54/1/3
f 57/1/3 55/1/3 56/1/3
f 59/1/3 55/1/3 57/1/3
f 60/1/3 59/1/3 58/1/3
f 61/1/3 55/1/3 59/1/3
f 61/1/3 59/1/3 60/1/3
f 64/1/3 63/1/3 62/1/3
f 65/1/3 63/1/3 64/1/3
f 68/1/3 67/1/3 66/1/3
f 69/1/3 67/1/3 68/1/3
f 70/1/4 71/1/4 72/1/4
f 72/1/4 71/1/4 73/1/4
f 70/1/4 72/1/4 74/1/4
f 74/1/4 72/1/4 75/1/4
f 76/1/4 77/1/4 78/1/4
f 78/1/4 77/1/4 79/1/4
f 79/1/4 77/1/4 81/1/4
f 80/1/4 81/1/4 82/1/4
f 81/1/4 77/1/4 83/1/4
f 82/1/4 81/1/4 83/1/4
f 84/1/4 85/1/4 86/1/4
f 86/1/4 85/1/4 87/1/4
f 88/2/4 89/2/4 90/2/4
f 90/2/4 89/2/4 91/2/4
f 90/1/4 91/1/4 92/1/4
f 92/1/4 91/1/4 93/1/4
f 97/2/5 95/2/5 94/2/5
f 98/1/5 96/1/5 95/1/5
f 98/2/5 95/2/5 97/2/5
f 99/2/5 97/2/5 94/2/5
f 100/1/5 98/1/5 97/1/5
f 100/2/5 97/2/5 99/2/5
f 101/1/5 96/1/5 98/1/5
f 101/1/5 98/1/5 100/1/5
f 104/1/5 103/1/5 102/1/5
f 105/1/5 103/1/5 104/1/5
f 108/1/5 107/1/5 106/1/5
f 109/1/5 107/1/5 108/1/5
f 110/1/6 111/1/6 112/1/6
f 112/1/6 111/1/6 113/1/6
f 113/1/6 111/1/6 114/1/6
f 114/1/6 111/1/6 115/1/6
f 113/1/6 114/1/6 117/1/6
f 117/1/6 114/1/6 118/1/6
f 116/1/6 117/1/6 120/1/6
f 118/1/6 119/1/6 120/1/6
f 117/1/6 118/1/6 120/1/6
f 116/1/6 120/1/6 122/1/6
f 120/1/6 121/1/6 122/1/6
f 122/1/6 121/1/6 123/1/6
f 116/1/6 122/1/6 124/1/6
f 124/1/6 122/1/6 125/1/6
f 126/1/6 127/1/6 128/1/6
f 128/1/6 127/1/6 129/1/6
f 129/1/6 127/1/6 130/1/6
f 131/2/6 132/2/6 133/2/6
f 133/2/6 132/2/6 134/2/6
f 133/1/6 134/1/6 135/1/6
f 135/1/6 134/1/6 136/1/6
f 133/1/6 135/1/6 137/1/6
f 133/1/6 137/1/6 139/1/6
f 137/1/6 138/1/6 139/1/6
f 139/1/6 138/1/6 140/1/6
f 133/1/6 139/1/6 141/1/6
f 140/1/6 138/1/6 142/1/6
f 131/2/6 133/2/6 143/2/6
f 141/1/6 142/1/6 144/1/6
f 143/2/6 133/2/6 144/2/6
f 133/1/6 141/1/6 144/1/6
f 142/1/6 138/1/6 145/1/6
f 144/1/6 142/1/6 145/1/6
