# MagicaVoxel @ Ephtracy

# group
g 4x2 second-5

# material
mtllib 4x2 second-5.mtl
usemtl palette

# normals
vn -1 0 0
vn 1 0 0
vn 0 0 1
vn 0 0 -1
vn 0 -1 0
vn 0 1 0

# texcoords
vt 0.970703 0.5
vt 0.982422 0.5

# verts
v -63 0 63
v -63 0 -4
v -63 0 -34
v -63 0 -63
v -63 1 -4
v -63 1 -34
v -63 41 -4
v -63 41 -34
v -63 80 63
v -63 80 -63
v 62 1 61
v 62 1 -63
v 62 80 61
v 62 80 -63
v -62 1 61
v -62 1 -4
v -62 1 -34
v -62 1 -63
v -62 41 -4
v -62 41 -34
v -62 80 61
v -62 80 -63
v 63 0 63
v 63 0 -63
v 63 80 63
v 63 80 -63
v -63 0 63
v -63 80 63
v 63 0 63
v 63 80 63
v -63 1 -34
v -63 41 -34
v -62 1 -34
v -62 41 -34
v -62 1 61
v -62 80 61
v 62 1 61
v 62 80 61
v -63 1 -4
v -63 41 -4
v -62 1 -4
v -62 41 -4
v -63 0 -63
v -63 80 -63
v -62 0 -63
v -62 1 -63
v -62 80 -63
v 62 0 -63
v 62 1 -63
v 62 80 -63
v 63 0 -63
v 63 80 -63
v -63 0 63
v 63 0 63
v -62 0 61
v 62 0 61
v -63 0 -4
v -62 0 -4
v -63 0 -34
v -62 0 -34
v -63 0 -63
v -62 0 -63
v 62 0 -63
v 63 0 -63
v -63 41 -4
v -62 41 -4
v -63 41 -34
v -62 41 -34
v -62 1 61
v 62 1 61
v -63 1 -4
v -62 1 -4
v -63 1 -34
v -62 1 -34
v -62 1 -63
v 62 1 -63
v -63 80 63
v 63 80 63
v -62 80 61
v 62 80 61
v -63 80 -63
v -62 80 -63
v 62 80 -63
v 63 80 -63

# faces
f 5/1/1 2/1/1 1/1/1
f 5/2/1 3/2/1 2/2/1
f 6/1/1 4/1/1 3/1/1
f 6/2/1 3/2/1 5/2/1
f 7/1/1 5/1/1 1/1/1
f 8/1/1 4/1/1 6/1/1
f 9/1/1 7/1/1 1/1/1
f 9/1/1 8/1/1 7/1/1
f 10/1/1 4/1/1 8/1/1
f 10/1/1 8/1/1 9/1/1
f 13/1/1 12/1/1 11/1/1
f 14/1/1 12/1/1 13/1/1
f 15/1/2 16/1/2 19/1/2
f 17/1/2 18/1/2 20/1/2
f 15/1/2 19/1/2 21/1/2
f 19/1/2 20/1/2 21/1/2
f 20/1/2 18/1/2 22/1/2
f 21/1/2 20/1/2 22/1/2
f 23/1/2 24/1/2 25/1/2
f 25/1/2 24/1/2 26/1/2
f 29/1/3 28/1/3 27/1/3
f 30/1/3 28/1/3 29/1/3
f 33/1/3 32/1/3 31/1/3
f 34/1/3 32/1/3 33/1/3
f 35/1/4 36/1/4 37/1/4
f 37/1/4 36/1/4 38/1/4
f 39/1/4 40/1/4 41/1/4
f 41/1/4 40/1/4 42/1/4
f 43/1/4 44/1/4 45/1/4
f 45/1/4 44/1/4 46/1/4
f 46/1/4 44/1/4 47/1/4
f 45/2/4 46/2/4 48/2/4
f 48/2/4 46/2/4 49/2/4
f 48/1/4 49/1/4 51/1/4
f 49/1/4 50/1/4 51/1/4
f 51/1/4 50/1/4 52/1/4
f 55/1/5 54/1/5 53/1/5
f 56/1/5 54/1/5 55/1/5
f 57/1/5 55/1/5 53/1/5
f 58/2/5 56/2/5 55/2/5
f 58/1/5 55/1/5 57/1/5
f 59/2/5 58/2/5 57/2/5
f 60/2/5 56/2/5 58/2/5
f 60/2/5 58/2/5 59/2/5
f 61/1/5 60/1/5 59/1/5
f 62/2/5 56/2/5 60/2/5
f 62/1/5 60/1/5 61/1/5
f 63/1/5 54/1/5 56/1/5
f 63/2/5 56/2/5 62/2/5
f 64/1/5 54/1/5 63/1/5
f 67/1/5 66/1/5 65/1/5
f 68/1/5 66/1/5 67/1/5
f 69/2/6 70/2/6 72/2/6
f 71/2/6 72/2/6 73/2/6
f 72/2/6 70/2/6 74/2/6
f 73/2/6 72/2/6 74/2/6
f 74/2/6 70/2/6 75/2/6
f 75/2/6 70/2/6 76/2/6
f 77/1/6 78/1/6 79/1/6
f 79/1/6 78/1/6 80/1/6
f 77/1/6 79/1/6 81/1/6
f 81/1/6 79/1/6 82/1/6
f 80/1/6 78/1/6 83/1/6
f 83/1/6 78/1/6 84/1/6
