# MagicaVoxel @ Ephtracy

# group
g 4x2 roof (des)-5

# material
mtllib 4x2 roof (des)-5.mtl
usemtl palette

# normals
vn -1 0 0
vn 1 0 0
vn 0 0 1
vn 0 0 -1
vn 0 -1 0
vn 0 1 0

# texcoords
vt 0.974609 0.5
vt 0.978516 0.5

# verts
v -63 0 63
v -63 0 -63
v -63 51 -62
v -63 51 -63
v -63 64 63
v -63 64 -62
v -63 64 -63
v -58 58 63
v -58 58 -28
v -58 58 -58
v -58 64 63
v -58 64 -28
v -58 64 -58
v 63 0 63
v 63 0 -63
v 63 58 63
v 63 58 -58
v 63 64 -58
v 63 64 -63
v -63 0 63
v -63 64 63
v -58 58 63
v -58 64 63
v 63 0 63
v 63 58 63
v -58 58 -58
v -58 64 -58
v -49 58 -58
v -49 64 -58
v -35 58 -58
v -35 64 -58
v -31 58 -58
v -31 64 -58
v 63 58 -58
v 63 64 -58
v -63 0 -63
v -63 51 -63
v -63 64 -63
v -60 50 -63
v -60 51 -63
v -49 50 -63
v -49 51 -63
v -39 51 -63
v -39 64 -63
v 63 0 -63
v 63 64 -63
v -63 0 63
v 63 0 63
v -63 0 -63
v 63 0 -63
v -58 58 63
v 63 58 63
v -23 58 -17
v -22 58 -17
v -23 58 -19
v -22 58 -19
v -40 58 -22
v -38 58 -22
v -47 58 -24
v -43 58 -24
v -40 58 -24
v -38 58 -24
v -47 58 -25
v -43 58 -25
v -58 58 -28
v -49 58 -28
v -38 58 -28
v -32 58 -28
v -49 58 -35
v -41 58 -35
v -32 58 -38
v -31 58 -38
v -38 58 -45
v -35 58 -45
v -42 58 -48
v -41 58 -48
v -49 58 -51
v -42 58 -51
v -58 58 -58
v -49 58 -58
v -35 58 -58
v -31 58 -58
v 63 58 -58
v -63 64 63
v -58 64 63
v -60 64 -28
v -58 64 -28
v -58 64 -58
v -49 64 -58
v -35 64 -58
v -31 64 -58
v 63 64 -58
v -35 64 -60
v -31 64 -60
v -63 64 -62
v -60 64 -62
v -49 64 -62
v -39 64 -62
v -63 64 -63
v -39 64 -63
v 63 64 -63

# faces
f 3/1/1 2/1/1 1/1/1
f 4/1/1 2/1/1 3/1/1
f 5/1/1 3/1/1 1/1/1
f 6/2/1 4/2/1 3/2/1
f 6/1/1 3/1/1 5/1/1
f 7/2/1 4/2/1 6/2/1
f 8/1/2 9/1/2 11/1/2
f 9/2/2 10/2/2 12/2/2
f 11/1/2 9/1/2 12/1/2
f 12/2/2 10/2/2 13/2/2
f 14/1/2 15/1/2 16/1/2
f 16/1/2 15/1/2 17/1/2
f 17/1/2 15/1/2 18/1/2
f 18/1/2 15/1/2 19/1/2
f 22/1/3 21/1/3 20/1/3
f 23/1/3 21/1/3 22/1/3
f 24/1/3 22/1/3 20/1/3
f 25/1/3 22/1/3 24/1/3
f 28/2/3 27/2/3 26/2/3
f 29/2/3 27/2/3 28/2/3
f 30/1/3 29/1/3 28/1/3
f 31/1/3 29/1/3 30/1/3
f 32/2/3 31/2/3 30/2/3
f 33/2/3 31/2/3 32/2/3
f 34/1/3 33/1/3 32/1/3
f 35/1/3 33/1/3 34/1/3
f 36/1/4 37/1/4 39/1/4
f 37/2/4 38/2/4 40/2/4
f 39/1/4 37/1/4 40/1/4
f 36/1/4 39/1/4 41/1/4
f 39/2/4 40/2/4 41/2/4
f 40/2/4 38/2/4 42/2/4
f 41/2/4 40/2/4 42/2/4
f 41/1/4 42/1/4 43/1/4
f 42/2/4 38/2/4 43/2/4
f 43/2/4 38/2/4 44/2/4
f 36/1/4 41/1/4 45/1/4
f 41/1/4 43/1/4 45/1/4
f 43/1/4 44/1/4 45/1/4
f 45/1/4 44/1/4 46/1/4
f 49/1/5 48/1/5 47/1/5
f 50/1/5 48/1/5 49/1/5
f 51/1/6 52/1/6 53/1/6
f 53/1/6 52/1/6 54/1/6
f 51/1/6 53/1/6 55/1/6
f 53/2/6 54/2/6 55/2/6
f 54/1/6 52/1/6 56/1/6
f 55/2/6 54/2/6 56/2/6
f 51/1/6 55/1/6 57/1/6
f 55/1/6 56/1/6 57/1/6
f 57/1/6 56/1/6 58/1/6
f 51/1/6 57/1/6 59/1/6
f 59/1/6 57/1/6 60/1/6
f 57/2/6 58/2/6 61/2/6
f 60/1/6 57/1/6 61/1/6
f 58/1/6 56/1/6 62/1/6
f 61/2/6 58/2/6 62/2/6
f 59/2/6 60/2/6 63/2/6
f 51/1/6 59/1/6 63/1/6
f 60/1/6 61/1/6 64/1/6
f 63/2/6 60/2/6 64/2/6
f 61/1/6 62/1/6 64/1/6
f 51/1/6 63/1/6 65/1/6
f 63/1/6 64/1/6 65/1/6
f 65/1/6 64/1/6 66/1/6
f 64/1/6 62/1/6 67/1/6
f 66/1/6 64/1/6 67/1/6
f 62/1/6 56/1/6 67/1/6
f 67/1/6 56/1/6 68/1/6
f 65/2/6 66/2/6 69/2/6
f 66/1/6 67/1/6 69/1/6
f 69/1/6 67/1/6 70/1/6
f 68/1/6 56/1/6 71/1/6
f 67/2/6 68/2/6 71/2/6
f 71/1/6 56/1/6 72/1/6
f 70/1/6 67/1/6 73/1/6
f 67/2/6 71/2/6 73/2/6
f 71/2/6 72/2/6 73/2/6
f 73/2/6 72/2/6 74/2/6
f 69/2/6 70/2/6 75/2/6
f 70/1/6 73/1/6 76/1/6
f 75/2/6 70/2/6 76/2/6
f 73/1/6 74/1/6 76/1/6
f 65/2/6 69/2/6 77/2/6
f 69/2/6 75/2/6 77/2/6
f 75/1/6 76/1/6 78/1/6
f 77/2/6 75/2/6 78/2/6
f 65/2/6 77/2/6 79/2/6
f 77/1/6 78/1/6 80/1/6
f 79/2/6 77/2/6 80/2/6
f 74/2/6 72/2/6 81/2/6
f 80/1/6 78/1/6 81/1/6
f 76/1/6 74/1/6 81/1/6
f 78/1/6 76/1/6 81/1/6
f 72/1/6 56/1/6 82/1/6
f 81/2/6 72/2/6 82/2/6
f 56/1/6 52/1/6 83/1/6
f 82/1/6 56/1/6 83/1/6
f 84/1/6 85/1/6 86/1/6
f 86/1/6 85/1/6 87/1/6
f 86/2/6 87/2/6 88/2/6
f 89/1/6 90/1/6 93/1/6
f 90/2/6 91/2/6 93/2/6
f 91/1/6 92/1/6 94/1/6
f 93/2/6 91/2/6 94/2/6
f 84/1/6 86/1/6 95/1/6
f 86/2/6 88/2/6 96/2/6
f 95/1/6 86/1/6 96/1/6
f 88/2/6 89/2/6 96/2/6
f 93/1/6 94/1/6 97/1/6
f 96/2/6 89/2/6 97/2/6
f 89/1/6 93/1/6 97/1/6
f 97/1/6 94/1/6 98/1/6
f 95/2/6 96/2/6 99/2/6
f 96/2/6 97/2/6 99/2/6
f 97/2/6 98/2/6 99/2/6
f 98/1/6 94/1/6 100/1/6
f 99/2/6 98/2/6 100/2/6
f 94/1/6 92/1/6 101/1/6
f 100/1/6 94/1/6 101/1/6
