# MagicaVoxel @ Ephtracy

# group
g 4x2 first-2

# material
mtllib 4x2 first-2.mtl
usemtl palette

# normals
vn -1 0 0
vn 1 0 0
vn 0 0 1
vn 0 0 -1
vn 0 -1 0
vn 0 1 0

# texcoords
vt 0.494141 0.5
vt 0.958984 0.5
vt 0.970703 0.5
vt 0.994141 0.5

# verts
v -63 0 63
v -63 0 -63
v -63 4 56
v -63 4 46
v -63 4 37
v -63 4 27
v -63 4 18
v -63 4 8
v -63 4 -26
v -63 4 -57
v -63 5 56
v -63 5 46
v -63 5 37
v -63 5 27
v -63 5 18
v -63 5 8
v -63 5 -26
v -63 5 -57
v -63 45 -26
v -63 45 -57
v -63 80 63
v -63 80 -63
v 62 5 62
v 62 5 56
v 62 5 46
v 62 5 37
v 62 5 30
v 62 5 -0
v 62 5 -22
v 62 45 30
v 62 45 -0
v 62 80 62
v 62 80 -22
v -62 5 62
v -62 5 56
v -62 5 46
v -62 5 37
v -62 5 27
v -62 5 18
v -62 5 8
v -62 5 -1
v -62 5 -11
v -62 5 -22
v -62 5 -24
v -62 5 -26
v -62 5 -57
v -62 5 -61
v -62 45 -26
v -62 45 -57
v -62 80 62
v -62 80 -22
v -62 80 -24
v -62 80 -61
v 63 0 63
v 63 0 -63
v 63 4 56
v 63 4 46
v 63 4 37
v 63 4 27
v 63 4 18
v 63 4 8
v 63 4 -0
v 63 4 -24
v 63 4 -61
v 63 5 56
v 63 5 46
v 63 5 37
v 63 5 30
v 63 5 27
v 63 5 18
v 63 5 8
v 63 5 -0
v 63 5 -24
v 63 5 -61
v 63 45 30
v 63 45 -0
v 63 80 63
v 63 80 -24
v 63 80 -61
v 63 80 -63
v -63 0 63
v -63 80 63
v 63 0 63
v 63 80 63
v 62 5 -0
v 62 45 -0
v 63 5 -0
v 63 45 -0
v -62 5 -22
v -62 80 -22
v -33 5 -22
v -23 5 -22
v -14 5 -22
v -4 5 -22
v 5 5 -22
v 15 5 -22
v 24 5 -22
v 34 5 -22
v 43 5 -22
v 53 5 -22
v 62 5 -22
v 62 80 -22
v -63 5 -57
v -63 45 -57
v -62 5 -57
v -62 45 -57
v -62 5 -61
v -62 80 -61
v 63 5 -61
v 63 80 -61
v -62 5 62
v -62 80 62
v 62 5 62
v 62 80 62
v 62 5 30
v 62 45 30
v 63 5 30
v 63 45 30
v -62 5 -24
v -62 80 -24
v 63 5 -24
v 63 80 -24
v -63 5 -26
v -63 45 -26
v -62 5 -26
v -62 45 -26
v -63 0 -63
v -63 80 -63
v 63 0 -63
v 63 80 -63
v -63 0 63
v 63 0 63
v -14 0 -24
v -4 0 -24
v -14 0 -30
v -4 0 -30
v -63 0 -63
v 63 0 -63
v 62 45 30
v 63 45 30
v 62 45 -0
v 63 45 -0
v -63 45 -26
v -62 45 -26
v -63 45 -57
v -62 45 -57
v -62 5 62
v 62 5 62
v -62 5 56
v -60 5 56
v -52 5 56
v -42 5 56
v -34 5 56
v -24 5 56
v -15 5 56
v -5 5 56
v 4 5 56
v 14 5 56
v 23 5 56
v 33 5 56
v 42 5 56
v 52 5 56
v 61 5 56
v 62 5 56
v -62 5 46
v -60 5 46
v -52 5 46
v -42 5 46
v -34 5 46
v -24 5 46
v -15 5 46
v -5 5 46
v 4 5 46
v 14 5 46
v 23 5 46
v 33 5 46
v 42 5 46
v 52 5 46
v 61 5 46
v 62 5 46
v -62 5 37
v -60 5 37
v -52 5 37
v -42 5 37
v -34 5 37
v -24 5 37
v -15 5 37
v -5 5 37
v 4 5 37
v 14 5 37
v 23 5 37
v 33 5 37
v 42 5 37
v 52 5 37
v 61 5 37
v 62 5 37
v 62 5 30
v 63 5 30
v -62 5 27
v -60 5 27
v -52 5 27
v -42 5 27
v -34 5 27
v -24 5 27
v -15 5 27
v -5 5 27
v 4 5 27
v 14 5 27
v 23 5 27
v 33 5 27
v 42 5 27
v 52 5 27
v 61 5 27
v 63 5 27
v -62 5 18
v -60 5 18
v -52 5 18
v -42 5 18
v -34 5 18
v -24 5 18
v -15 5 18
v -5 5 18
v 4 5 18
v 14 5 18
v 23 5 18
v 33 5 18
v 42 5 18
v 52 5 18
v 61 5 18
v 63 5 18
v -62 5 8
v -60 5 8
v -52 5 8
v -42 5 8
v -34 5 8
v -24 5 8
v -15 5 8
v -5 5 8
v 4 5 8
v 14 5 8
v 23 5 8
v 33 5 8
v 42 5 8
v 52 5 8
v 61 5 8
v 63 5 8
v 62 5 -0
v 63 5 -0
v -62 5 -1
v -60 5 -1
v -52 5 -1
v -42 5 -1
v -34 5 -1
v -24 5 -1
v -15 5 -1
v -5 5 -1
v 4 5 -1
v 14 5 -1
v 23 5 -1
v 33 5 -1
v 42 5 -1
v 52 5 -1
v -62 5 -11
v -60 5 -11
v -52 5 -11
v -42 5 -11
v -34 5 -11
v -24 5 -11
v -15 5 -11
v -5 5 -11
v 4 5 -11
v 14 5 -11
v 23 5 -11
v 33 5 -11
v 42 5 -11
v 52 5 -11
v -33 5 -20
v -23 5 -20
v -14 5 -20
v -4 5 -20
v 5 5 -20
v 15 5 -20
v 24 5 -20
v 34 5 -20
v 43 5 -20
v 53 5 -20
v -62 5 -22
v -33 5 -22
v -23 5 -22
v -14 5 -22
v -4 5 -22
v 5 5 -22
v 15 5 -22
v 24 5 -22
v 34 5 -22
v 43 5 -22
v 53 5 -22
v 62 5 -22
v -62 5 -24
v 63 5 -24
v -63 5 -26
v -62 5 -26
v -63 5 -57
v -62 5 -57
v -62 5 -61
v 63 5 -61
v -63 80 63
v 63 80 63
v -62 80 62
v 62 80 62
v -62 80 -22
v 62 80 -22
v -62 80 -24
v 63 80 -24
v -62 80 -61
v 63 80 -61
v -63 80 -63
v 63 80 -63

# faces
f 3/3/1 2/3/1 1/3/1
f 4/3/1 2/3/1 3/3/1
f 5/3/1 2/3/1 4/3/1
f 6/3/1 2/3/1 5/3/1
f 7/3/1 2/3/1 6/3/1
f 8/3/1 2/3/1 7/3/1
f 9/3/1 2/3/1 8/3/1
f 10/3/1 2/3/1 9/3/1
f 11/3/1 3/3/1 1/3/1
f 11/4/1 4/4/1 3/4/1
f 12/2/1 5/2/1 4/2/1
f 12/4/1 4/4/1 11/4/1
f 13/4/1 6/4/1 5/4/1
f 13/2/1 5/2/1 12/2/1
f 14/2/1 7/2/1 6/2/1
f 14/4/1 6/4/1 13/4/1
f 15/4/1 8/4/1 7/4/1
f 15/2/1 7/2/1 14/2/1
f 16/3/1 9/3/1 8/3/1
f 16/4/1 8/4/1 15/4/1
f 17/1/1 10/1/1 9/1/1
f 17/3/1 9/3/1 16/3/1
f 18/3/1 2/3/1 10/3/1
f 18/1/1 10/1/1 17/1/1
f 19/3/1 17/3/1 16/3/1
f 19/3/1 16/3/1 15/3/1
f 19/3/1 15/3/1 14/3/1
f 19/3/1 14/3/1 13/3/1
f 19/3/1 13/3/1 12/3/1
f 19/3/1 12/3/1 11/3/1
f 20/3/1 2/3/1 18/3/1
f 21/3/1 19/3/1 11/3/1
f 21/3/1 20/3/1 19/3/1
f 21/3/1 11/3/1 1/3/1
f 22/3/1 2/3/1 20/3/1
f 22/3/1 20/3/1 21/3/1
f 30/3/1 24/3/1 23/3/1
f 30/3/1 25/3/1 24/3/1
f 30/3/1 27/3/1 26/3/1
f 30/3/1 26/3/1 25/3/1
f 31/3/1 29/3/1 28/3/1
f 32/3/1 30/3/1 23/3/1
f 32/3/1 31/3/1 30/3/1
f 33/3/1 29/3/1 31/3/1
f 33/3/1 31/3/1 32/3/1
f 44/3/2 45/3/2 48/3/2
f 46/3/2 47/3/2 49/3/2
f 34/3/2 35/3/2 50/3/2
f 35/3/2 36/3/2 50/3/2
f 36/3/2 37/3/2 50/3/2
f 37/3/2 38/3/2 50/3/2
f 38/3/2 39/3/2 50/3/2
f 42/3/2 43/3/2 50/3/2
f 41/3/2 42/3/2 50/3/2
f 40/3/2 41/3/2 50/3/2
f 39/3/2 40/3/2 50/3/2
f 50/3/2 43/3/2 51/3/2
f 48/3/2 49/3/2 52/3/2
f 44/3/2 48/3/2 52/3/2
f 49/3/2 47/3/2 53/3/2
f 52/3/2 49/3/2 53/3/2
f 54/3/2 55/3/2 56/3/2
f 56/3/2 55/3/2 57/3/2
f 57/3/2 55/3/2 58/3/2
f 58/3/2 55/3/2 59/3/2
f 59/3/2 55/3/2 60/3/2
f 60/3/2 55/3/2 61/3/2
f 61/3/2 55/3/2 62/3/2
f 62/3/2 55/3/2 63/3/2
f 63/3/2 55/3/2 64/3/2
f 54/3/2 56/3/2 65/3/2
f 56/4/2 57/4/2 65/4/2
f 57/2/2 58/2/2 66/2/2
f 65/4/2 57/4/2 66/4/2
f 58/4/2 59/4/2 67/4/2
f 66/2/2 58/2/2 67/2/2
f 67/4/2 59/4/2 68/4/2
f 59/2/2 60/2/2 69/2/2
f 68/4/2 59/4/2 69/4/2
f 60/4/2 61/4/2 70/4/2
f 69/2/2 60/2/2 70/2/2
f 61/2/2 62/2/2 71/2/2
f 70/4/2 61/4/2 71/4/2
f 62/3/2 63/3/2 72/3/2
f 71/2/2 62/2/2 72/2/2
f 63/1/2 64/1/2 73/1/2
f 72/3/2 63/3/2 73/3/2
f 64/3/2 55/3/2 74/3/2
f 73/1/2 64/1/2 74/1/2
f 65/3/2 66/3/2 75/3/2
f 66/3/2 67/3/2 75/3/2
f 67/3/2 68/3/2 75/3/2
f 72/3/2 73/3/2 76/3/2
f 65/3/2 75/3/2 77/3/2
f 75/3/2 76/3/2 77/3/2
f 54/3/2 65/3/2 77/3/2
f 76/3/2 73/3/2 78/3/2
f 77/3/2 76/3/2 78/3/2
f 74/3/2 55/3/2 79/3/2
f 79/3/2 55/3/2 80/3/2
f 83/3/3 82/3/3 81/3/3
f 84/3/3 82/3/3 83/3/3
f 87/3/3 86/3/3 85/3/3
f 88/3/3 86/3/3 87/3/3
f 91/3/3 90/3/3 89/3/3
f 92/3/3 90/3/3 91/3/3
f 93/3/3 90/3/3 92/3/3
f 94/3/3 90/3/3 93/3/3
f 95/3/3 90/3/3 94/3/3
f 96/3/3 90/3/3 95/3/3
f 97/3/3 90/3/3 96/3/3
f 98/3/3 90/3/3 97/3/3
f 99/3/3 90/3/3 98/3/3
f 100/3/3 90/3/3 99/3/3
f 101/3/3 90/3/3 100/3/3
f 102/3/3 90/3/3 101/3/3
f 105/3/3 104/3/3 103/3/3
f 106/3/3 104/3/3 105/3/3
f 109/3/3 108/3/3 107/3/3
f 110/3/3 108/3/3 109/3/3
f 111/3/4 112/3/4 113/3/4
f 113/3/4 112/3/4 114/3/4
f 115/3/4 116/3/4 117/3/4
f 117/3/4 116/3/4 118/3/4
f 119/3/4 120/3/4 121/3/4
f 121/3/4 120/3/4 122/3/4
f 123/3/4 124/3/4 125/3/4
f 125/3/4 124/3/4 126/3/4
f 127/3/4 128/3/4 129/3/4
f 129/3/4 128/3/4 130/3/4
f 133/3/5 132/3/5 131/3/5
f 134/3/5 132/3/5 133/3/5
f 135/3/5 133/3/5 131/3/5
f 135/1/5 134/1/5 133/1/5
f 136/3/5 132/3/5 134/3/5
f 136/1/5 134/1/5 135/1/5
f 137/3/5 135/3/5 131/3/5
f 137/3/5 136/3/5 135/3/5
f 138/3/5 132/3/5 136/3/5
f 138/3/5 136/3/5 137/3/5
f 141/3/5 140/3/5 139/3/5
f 142/3/5 140/3/5 141/3/5
f 145/3/5 144/3/5 143/3/5
f 146/3/5 144/3/5 145/3/5
f 147/2/6 148/2/6 149/2/6
f 149/2/6 148/2/6 150/2/6
f 150/2/6 148/2/6 151/2/6
f 151/2/6 148/2/6 152/2/6
f 152/2/6 148/2/6 153/2/6
f 153/2/6 148/2/6 154/2/6
f 154/2/6 148/2/6 155/2/6
f 155/2/6 148/2/6 156/2/6
f 156/2/6 148/2/6 157/2/6
f 157/2/6 148/2/6 158/2/6
f 158/2/6 148/2/6 159/2/6
f 159/2/6 148/2/6 160/2/6
f 160/2/6 148/2/6 161/2/6
f 161/2/6 148/2/6 162/2/6
f 162/2/6 148/2/6 163/2/6
f 163/2/6 148/2/6 164/2/6
f 149/4/6 150/4/6 165/4/6
f 150/2/6 151/2/6 166/2/6
f 165/4/6 150/4/6 166/4/6
f 151/4/6 152/4/6 167/4/6
f 166/2/6 151/2/6 167/2/6
f 152/2/6 153/2/6 168/2/6
f 167/4/6 152/4/6 168/4/6
f 153/4/6 154/4/6 169/4/6
f 168/2/6 153/2/6 169/2/6
f 154/2/6 155/2/6 170/2/6
f 169/4/6 154/4/6 170/4/6
f 155/4/6 156/4/6 171/4/6
f 170/2/6 155/2/6 171/2/6
f 156/2/6 157/2/6 172/2/6
f 171/4/6 156/4/6 172/4/6
f 157/4/6 158/4/6 173/4/6
f 172/2/6 157/2/6 173/2/6
f 158/2/6 159/2/6 174/2/6
f 173/4/6 158/4/6 174/4/6
f 159/4/6 160/4/6 175/4/6
f 174/2/6 159/2/6 175/2/6
f 160/2/6 161/2/6 176/2/6
f 175/4/6 160/4/6 176/4/6
f 161/4/6 162/4/6 177/4/6
f 176/2/6 161/2/6 177/2/6
f 162/2/6 163/2/6 178/2/6
f 177/4/6 162/4/6 178/4/6
f 163/4/6 164/4/6 179/4/6
f 178/2/6 163/2/6 179/2/6
f 179/4/6 164/4/6 180/4/6
f 165/2/6 166/2/6 181/2/6
f 166/2/6 167/2/6 181/2/6
f 179/2/6 180/2/6 181/2/6
f 178/2/6 179/2/6 181/2/6
f 177/2/6 178/2/6 181/2/6
f 176/2/6 177/2/6 181/2/6
f 175/2/6 176/2/6 181/2/6
f 174/2/6 175/2/6 181/2/6
f 173/2/6 174/2/6 181/2/6
f 172/2/6 173/2/6 181/2/6
f 171/2/6 172/2/6 181/2/6
f 170/2/6 171/2/6 181/2/6
f 169/2/6 170/2/6 181/2/6
f 168/2/6 169/2/6 181/2/6
f 167/2/6 168/2/6 181/2/6
f 181/2/6 180/2/6 182/2/6
f 182/2/6 180/2/6 183/2/6
f 183/2/6 180/2/6 184/2/6
f 184/2/6 180/2/6 185/2/6
f 185/2/6 180/2/6 186/2/6
f 186/2/6 180/2/6 187/2/6
f 187/2/6 180/2/6 188/2/6
f 188/2/6 180/2/6 189/2/6
f 189/2/6 180/2/6 190/2/6
f 190/2/6 180/2/6 191/2/6
f 191/2/6 180/2/6 192/2/6
f 192/2/6 180/2/6 193/2/6
f 193/2/6 180/2/6 194/2/6
f 194/2/6 180/2/6 195/2/6
f 195/2/6 180/2/6 196/2/6
f 195/4/6 196/4/6 197/4/6
f 181/4/6 182/4/6 199/4/6
f 182/2/6 183/2/6 200/2/6
f 199/4/6 182/4/6 200/4/6
f 183/4/6 184/4/6 201/4/6
f 200/2/6 183/2/6 201/2/6
f 184/2/6 185/2/6 202/2/6
f 201/4/6 184/4/6 202/4/6
f 185/4/6 186/4/6 203/4/6
f 202/2/6 185/2/6 203/2/6
f 186/2/6 187/2/6 204/2/6
f 203/4/6 186/4/6 204/4/6
f 187/4/6 188/4/6 205/4/6
f 204/2/6 187/2/6 205/2/6
f 188/2/6 189/2/6 206/2/6
f 205/4/6 188/4/6 206/4/6
f 189/4/6 190/4/6 207/4/6
f 206/2/6 189/2/6 207/2/6
f 190/2/6 191/2/6 208/2/6
f 207/4/6 190/4/6 208/4/6
f 191/4/6 192/4/6 209/4/6
f 208/2/6 191/2/6 209/2/6
f 192/2/6 193/2/6 210/2/6
f 209/4/6 192/4/6 210/4/6
f 193/4/6 194/4/6 211/4/6
f 210/2/6 193/2/6 211/2/6
f 194/2/6 195/2/6 212/2/6
f 211/4/6 194/4/6 212/4/6
f 195/4/6 197/4/6 213/4/6
f 212/2/6 195/2/6 213/2/6
f 197/4/6 198/4/6 213/4/6
f 213/4/6 198/4/6 214/4/6
f 211/2/6 212/2/6 215/2/6
f 210/2/6 211/2/6 215/2/6
f 213/2/6 214/2/6 215/2/6
f 212/2/6 213/2/6 215/2/6
f 208/2/6 209/2/6 215/2/6
f 207/2/6 208/2/6 215/2/6
f 206/2/6 207/2/6 215/2/6
f 205/2/6 206/2/6 215/2/6
f 204/2/6 205/2/6 215/2/6
f 203/2/6 204/2/6 215/2/6
f 202/2/6 203/2/6 215/2/6
f 201/2/6 202/2/6 215/2/6
f 200/2/6 201/2/6 215/2/6
f 199/2/6 200/2/6 215/2/6
f 209/2/6 210/2/6 215/2/6
f 215/2/6 214/2/6 216/2/6
f 216/2/6 214/2/6 217/2/6
f 217/2/6 214/2/6 218/2/6
f 218/2/6 214/2/6 219/2/6
f 219/2/6 214/2/6 220/2/6
f 220/2/6 214/2/6 221/2/6
f 221/2/6 214/2/6 222/2/6
f 222/2/6 214/2/6 223/2/6
f 223/2/6 214/2/6 224/2/6
f 224/2/6 214/2/6 225/2/6
f 225/2/6 214/2/6 226/2/6
f 226/2/6 214/2/6 227/2/6
f 227/2/6 214/2/6 228/2/6
f 228/2/6 214/2/6 229/2/6
f 229/2/6 214/2/6 230/2/6
f 215/4/6 216/4/6 231/4/6
f 216/2/6 217/2/6 232/2/6
f 231/4/6 216/4/6 232/4/6
f 217/4/6 218/4/6 233/4/6
f 232/2/6 217/2/6 233/2/6
f 218/2/6 219/2/6 234/2/6
f 233/4/6 218/4/6 234/4/6
f 219/4/6 220/4/6 235/4/6
f 234/2/6 219/2/6 235/2/6
f 220/2/6 221/2/6 236/2/6
f 235/4/6 220/4/6 236/4/6
f 221/4/6 222/4/6 237/4/6
f 236/2/6 221/2/6 237/2/6
f 222/2/6 223/2/6 238/2/6
f 237/4/6 222/4/6 238/4/6
f 223/4/6 224/4/6 239/4/6
f 238/2/6 223/2/6 239/2/6
f 224/2/6 225/2/6 240/2/6
f 239/4/6 224/4/6 240/4/6
f 225/4/6 226/4/6 241/4/6
f 240/2/6 225/2/6 241/2/6
f 226/2/6 227/2/6 242/2/6
f 241/4/6 226/4/6 242/4/6
f 227/4/6 228/4/6 243/4/6
f 242/2/6 227/2/6 243/2/6
f 228/2/6 229/2/6 244/2/6
f 243/4/6 228/4/6 244/4/6
f 229/4/6 230/4/6 245/4/6
f 244/2/6 229/2/6 245/2/6
f 245/4/6 230/4/6 246/4/6
f 231/2/6 232/2/6 247/2/6
f 232/2/6 233/2/6 247/2/6
f 245/2/6 246/2/6 247/2/6
f 244/2/6 245/2/6 247/2/6
f 243/2/6 244/2/6 247/2/6
f 242/2/6 243/2/6 247/2/6
f 241/2/6 242/2/6 247/2/6
f 240/2/6 241/2/6 247/2/6
f 239/2/6 240/2/6 247/2/6
f 238/2/6 239/2/6 247/2/6
f 237/2/6 238/2/6 247/2/6
f 236/2/6 237/2/6 247/2/6
f 235/2/6 236/2/6 247/2/6
f 234/2/6 235/2/6 247/2/6
f 233/2/6 234/2/6 247/2/6
f 247/2/6 246/2/6 248/2/6
f 231/2/6 247/2/6 249/2/6
f 249/2/6 247/2/6 250/2/6
f 250/2/6 247/2/6 251/2/6
f 251/2/6 247/2/6 252/2/6
f 252/2/6 247/2/6 253/2/6
f 253/2/6 247/2/6 254/2/6
f 254/2/6 247/2/6 255/2/6
f 255/2/6 247/2/6 256/2/6
f 256/2/6 247/2/6 257/2/6
f 257/2/6 247/2/6 258/2/6
f 258/2/6 247/2/6 259/2/6
f 259/2/6 247/2/6 260/2/6
f 260/2/6 247/2/6 261/2/6
f 261/2/6 247/2/6 262/2/6
f 249/4/6 250/4/6 263/4/6
f 250/2/6 251/2/6 264/2/6
f 263/4/6 250/4/6 264/4/6
f 251/4/6 252/4/6 265/4/6
f 264/2/6 251/2/6 265/2/6
f 252/2/6 253/2/6 266/2/6
f 265/4/6 252/4/6 266/4/6
f 253/4/6 254/4/6 267/4/6
f 266/2/6 253/2/6 267/2/6
f 254/2/6 255/2/6 268/2/6
f 267/4/6 254/4/6 268/4/6
f 255/4/6 256/4/6 269/4/6
f 268/2/6 255/2/6 269/2/6
f 256/2/6 257/2/6 270/2/6
f 269/4/6 256/4/6 270/4/6
f 257/4/6 258/4/6 271/4/6
f 270/2/6 257/2/6 271/2/6
f 258/2/6 259/2/6 272/2/6
f 271/4/6 258/4/6 272/4/6
f 259/4/6 260/4/6 273/4/6
f 272/2/6 259/2/6 273/2/6
f 260/2/6 261/2/6 274/2/6
f 273/4/6 260/4/6 274/4/6
f 261/4/6 262/4/6 275/4/6
f 274/2/6 261/2/6 275/2/6
f 262/2/6 247/2/6 276/2/6
f 275/4/6 262/4/6 276/4/6
f 274/2/6 275/2/6 277/2/6
f 263/2/6 264/2/6 277/2/6
f 275/2/6 276/2/6 277/2/6
f 273/2/6 274/2/6 277/2/6
f 272/2/6 273/2/6 277/2/6
f 271/2/6 272/2/6 277/2/6
f 270/2/6 271/2/6 277/2/6
f 269/2/6 270/2/6 277/2/6
f 268/2/6 269/2/6 277/2/6
f 267/2/6 268/2/6 277/2/6
f 266/2/6 267/2/6 277/2/6
f 265/2/6 266/2/6 277/2/6
f 264/2/6 265/2/6 277/2/6
f 277/2/6 276/2/6 278/2/6
f 278/2/6 276/2/6 279/2/6
f 279/2/6 276/2/6 280/2/6
f 280/2/6 276/2/6 281/2/6
f 281/2/6 276/2/6 282/2/6
f 282/2/6 276/2/6 283/2/6
f 283/2/6 276/2/6 284/2/6
f 284/2/6 276/2/6 285/2/6
f 276/2/6 247/2/6 286/2/6
f 285/2/6 276/2/6 286/2/6
f 263/2/6 277/2/6 287/2/6
f 277/4/6 278/4/6 288/4/6
f 287/2/6 277/2/6 288/2/6
f 278/2/6 279/2/6 289/2/6
f 288/4/6 278/4/6 289/4/6
f 279/4/6 280/4/6 290/4/6
f 289/2/6 279/2/6 290/2/6
f 280/2/6 281/2/6 291/2/6
f 290/4/6 280/4/6 291/4/6
f 281/4/6 282/4/6 292/4/6
f 291/2/6 281/2/6 292/2/6
f 282/2/6 283/2/6 293/2/6
f 292/4/6 282/4/6 293/4/6
f 283/4/6 284/4/6 294/4/6
f 293/2/6 283/2/6 294/2/6
f 284/2/6 285/2/6 295/2/6
f 294/4/6 284/4/6 295/4/6
f 285/4/6 286/4/6 296/4/6
f 295/2/6 285/2/6 296/2/6
f 286/2/6 247/2/6 297/2/6
f 296/4/6 286/4/6 297/4/6
f 297/2/6 247/2/6 298/2/6
f 299/1/6 300/1/6 302/1/6
f 301/1/6 302/1/6 303/1/6
f 302/1/6 300/1/6 304/1/6
f 303/1/6 302/1/6 304/1/6
f 304/1/6 300/1/6 305/1/6
f 305/1/6 300/1/6 306/1/6
f 307/3/6 308/3/6 309/3/6
f 309/3/6 308/3/6 310/3/6
f 307/3/6 309/3/6 311/3/6
f 310/3/6 308/3/6 312/3/6
f 307/3/6 311/3/6 313/3/6
f 311/3/6 312/3/6 313/3/6
f 312/3/6 308/3/6 314/3/6
f 313/3/6 312/3/6 314/3/6
f 307/3/6 313/3/6 315/3/6
f 307/3/6 315/3/6 317/3/6
f 315/3/6 316/3/6 317/3/6
f 317/3/6 316/3/6 318/3/6
