# MagicaVoxel @ Ephtracy

# group
g 4x2 roof (1)-0

# material
mtllib 4x2 roof (1)-0.mtl
usemtl palette

# normals
vn -1 0 0
vn 1 0 0
vn 0 0 1
vn 0 0 -1
vn 0 -1 0
vn 0 1 0

# texcoords
vt 0.974609 0.5
vt 0.978516 0.5

# verts
v -63 0 63
v -63 0 -63
v -63 57 -26
v -63 57 -45
v -63 58 58
v -63 58 -26
v -63 58 -45
v -63 58 -63
v -63 64 63
v -63 64 58
v 63 0 63
v 63 0 -63
v 63 58 58
v 63 58 -63
v 63 64 63
v 63 64 58
v -63 0 63
v -63 64 63
v 63 0 63
v 63 64 63
v -63 58 58
v -63 64 58
v 63 58 58
v 63 64 58
v -63 0 -63
v -63 58 -63
v -62 57 -63
v -62 58 -63
v -51 33 -63
v -51 57 -63
v -11 33 -63
v -11 58 -63
v 0 52 -63
v 0 53 -63
v 2 52 -63
v 2 53 -63
v 63 0 -63
v 63 58 -63
v -63 0 63
v 63 0 63
v -63 0 -63
v 63 0 -63
v -63 58 58
v 63 58 58
v -59 58 -13
v -58 58 -13
v -59 58 -17
v -58 58 -17
v -33 58 -17
v -28 58 -17
v -35 58 -18
v -34 58 -18
v -35 58 -19
v -34 58 -19
v -53 58 -22
v -51 58 -22
v -42 58 -22
v -33 58 -22
v -28 58 -22
v -23 58 -22
v -57 58 -25
v -56 58 -25
v -53 58 -25
v -51 58 -25
v -63 58 -26
v -57 58 -26
v -56 58 -26
v -53 58 -26
v -45 58 -27
v -42 58 -27
v -32 58 -27
v -25 58 -27
v -23 58 -27
v -14 58 -27
v -53 58 -29
v -45 58 -29
v -32 58 -29
v -25 58 -29
v -14 58 -29
v -45 58 -31
v -11 58 -31
v -7 58 -38
v -1 58 -38
v -7 58 -40
v -1 58 -40
v -63 58 -45
v -62 58 -45
v -11 58 -49
v -7 58 -49
v -5 58 -49
v -2 58 -49
v -5 58 -53
v -2 58 -53
v -11 58 -61
v -7 58 -61
v -63 58 -63
v -62 58 -63
v -11 58 -63
v 63 58 -63
v -63 64 63
v 63 64 63
v -63 64 58
v 63 64 58

# faces
f 3/1/1 2/1/1 1/1/1
f 4/1/1 2/1/1 3/1/1
f 5/1/1 3/1/1 1/1/1
f 6/2/1 4/2/1 3/2/1
f 6/1/1 3/1/1 5/1/1
f 7/1/1 2/1/1 4/1/1
f 7/2/1 4/2/1 6/2/1
f 8/1/1 2/1/1 7/1/1
f 9/1/1 5/1/1 1/1/1
f 10/1/1 5/1/1 9/1/1
f 11/1/2 12/1/2 13/1/2
f 13/1/2 12/1/2 14/1/2
f 11/1/2 13/1/2 15/1/2
f 15/1/2 13/1/2 16/1/2
f 19/1/3 18/1/3 17/1/3
f 20/1/3 18/1/3 19/1/3
f 21/1/4 22/1/4 23/1/4
f 23/1/4 22/1/4 24/1/4
f 25/1/4 26/1/4 27/1/4
f 27/1/4 26/1/4 28/1/4
f 25/1/4 27/1/4 29/1/4
f 27/2/4 28/2/4 30/2/4
f 29/1/4 27/1/4 30/1/4
f 25/1/4 29/1/4 31/1/4
f 29/2/4 30/2/4 31/2/4
f 30/2/4 28/2/4 32/2/4
f 31/2/4 30/2/4 32/2/4
f 31/1/4 32/1/4 33/1/4
f 33/1/4 32/1/4 34/1/4
f 31/1/4 33/1/4 35/1/4
f 33/2/4 34/2/4 35/2/4
f 34/1/4 32/1/4 36/1/4
f 35/2/4 34/2/4 36/2/4
f 25/1/4 31/1/4 37/1/4
f 31/1/4 35/1/4 37/1/4
f 35/1/4 36/1/4 37/1/4
f 36/1/4 32/1/4 38/1/4
f 37/1/4 36/1/4 38/1/4
f 41/1/5 40/1/5 39/1/5
f 42/1/5 40/1/5 41/1/5
f 43/1/6 44/1/6 45/1/6
f 45/1/6 44/1/6 46/1/6
f 43/1/6 45/1/6 47/1/6
f 45/2/6 46/2/6 47/2/6
f 46/1/6 44/1/6 48/1/6
f 47/2/6 46/2/6 48/2/6
f 48/1/6 44/1/6 49/1/6
f 49/1/6 44/1/6 50/1/6
f 47/1/6 48/1/6 51/1/6
f 48/1/6 49/1/6 51/1/6
f 51/1/6 49/1/6 52/1/6
f 47/1/6 51/1/6 53/1/6
f 51/2/6 52/2/6 53/2/6
f 52/1/6 49/1/6 54/1/6
f 53/2/6 52/2/6 54/2/6
f 47/1/6 53/1/6 55/1/6
f 53/1/6 54/1/6 55/1/6
f 55/1/6 54/1/6 56/1/6
f 56/1/6 54/1/6 57/1/6
f 49/2/6 50/2/6 58/2/6
f 57/1/6 54/1/6 58/1/6
f 54/1/6 49/1/6 58/1/6
f 50/1/6 44/1/6 59/1/6
f 58/2/6 50/2/6 59/2/6
f 59/1/6 44/1/6 60/1/6
f 47/1/6 55/1/6 61/1/6
f 61/1/6 55/1/6 62/1/6
f 55/2/6 56/2/6 63/2/6
f 62/1/6 55/1/6 63/1/6
f 56/1/6 57/1/6 64/1/6
f 63/2/6 56/2/6 64/2/6
f 43/1/6 47/1/6 65/1/6
f 47/1/6 61/1/6 65/1/6
f 61/2/6 62/2/6 66/2/6
f 65/1/6 61/1/6 66/1/6
f 62/1/6 63/1/6 67/1/6
f 66/2/6 62/2/6 67/2/6
f 63/1/6 64/1/6 67/1/6
f 67/1/6 64/1/6 68/1/6
f 64/1/6 57/1/6 69/1/6
f 68/1/6 64/1/6 69/1/6
f 57/2/6 58/2/6 70/2/6
f 69/1/6 57/1/6 70/1/6
f 58/2/6 59/2/6 70/2/6
f 59/2/6 60/2/6 70/2/6
f 70/2/6 60/2/6 71/2/6
f 71/2/6 60/2/6 72/2/6
f 60/1/6 44/1/6 73/1/6
f 72/2/6 60/2/6 73/2/6
f 73/1/6 44/1/6 74/1/6
f 67/2/6 68/2/6 75/2/6
f 68/1/6 69/1/6 75/1/6
f 65/2/6 66/2/6 75/2/6
f 66/2/6 67/2/6 75/2/6
f 70/2/6 71/2/6 76/2/6
f 75/1/6 69/1/6 76/1/6
f 69/2/6 70/2/6 76/2/6
f 71/1/6 72/1/6 77/1/6
f 76/2/6 71/2/6 77/2/6
f 73/2/6 74/2/6 78/2/6
f 77/1/6 72/1/6 78/1/6
f 72/2/6 73/2/6 78/2/6
f 74/1/6 44/1/6 79/1/6
f 78/2/6 74/2/6 79/2/6
f 77/1/6 78/1/6 80/1/6
f 76/1/6 77/1/6 80/1/6
f 78/1/6 79/1/6 80/1/6
f 75/2/6 76/2/6 80/2/6
f 79/1/6 44/1/6 81/1/6
f 80/1/6 79/1/6 81/1/6
f 81/1/6 44/1/6 82/1/6
f 82/1/6 44/1/6 83/1/6
f 81/1/6 82/1/6 84/1/6
f 82/2/6 83/2/6 84/2/6
f 83/1/6 44/1/6 85/1/6
f 84/2/6 83/2/6 85/2/6
f 75/2/6 80/2/6 86/2/6
f 65/2/6 75/2/6 86/2/6
f 80/2/6 81/2/6 86/2/6
f 86/2/6 81/2/6 87/2/6
f 84/1/6 85/1/6 88/1/6
f 87/2/6 81/2/6 88/2/6
f 81/1/6 84/1/6 88/1/6
f 88/1/6 85/1/6 89/1/6
f 89/1/6 85/1/6 90/1/6
f 90/1/6 85/1/6 91/1/6
f 89/1/6 90/1/6 92/1/6
f 90/2/6 91/2/6 92/2/6
f 91/1/6 85/1/6 93/1/6
f 92/2/6 91/2/6 93/2/6
f 87/2/6 88/2/6 94/2/6
f 88/2/6 89/2/6 94/2/6
f 92/1/6 93/1/6 95/1/6
f 94/2/6 89/2/6 95/2/6
f 89/1/6 92/1/6 95/1/6
f 86/1/6 87/1/6 96/1/6
f 87/2/6 94/2/6 97/2/6
f 96/1/6 87/1/6 97/1/6
f 94/1/6 95/1/6 98/1/6
f 97/2/6 94/2/6 98/2/6
f 85/1/6 44/1/6 99/1/6
f 98/1/6 95/1/6 99/1/6
f 95/1/6 93/1/6 99/1/6
f 93/1/6 85/1/6 99/1/6
f 100/1/6 101/1/6 102/1/6
f 102/1/6 101/1/6 103/1/6
