# MagicaVoxel @ Ephtracy

# group
g 4x2 third (des)-5

# material
mtllib 4x2 third (des)-5.mtl
usemtl palette

# normals
vn -1 0 0
vn 1 0 0
vn 0 0 1
vn 0 0 -1
vn 0 -1 0
vn 0 1 0

# texcoords
vt 0.494141 0.5
vt 0.498047 0.5
vt 0.970703 0.5
vt 0.978516 0.5

# verts
v -63 0 63
v -63 0 -63
v -63 80 63
v -63 80 -63
v -23 0 24
v -23 0 -63
v -23 1 24
v -23 1 -63
v 61 1 61
v 61 1 -63
v 61 80 61
v 61 80 -63
v -62 0 24
v -62 0 -63
v -62 1 61
v -62 1 24
v -62 80 61
v -62 80 -63
v 63 0 63
v 63 0 -63
v 63 80 63
v 63 80 -63
v -63 0 63
v -63 80 63
v 63 0 63
v 63 80 63
v -62 1 61
v -62 80 61
v 13 1 61
v 14 3 61
v 14 4 61
v 15 1 61
v 15 3 61
v 16 4 61
v 16 5 61
v 17 6 61
v 17 8 61
v 19 6 61
v 19 8 61
v 19 11 61
v 19 12 61
v 20 5 61
v 20 8 61
v 21 11 61
v 21 12 61
v 22 8 61
v 22 10 61
v 24 10 61
v 24 14 61
v 26 1 61
v 26 4 61
v 26 5 61
v 26 6 61
v 27 1 61
v 27 4 61
v 27 5 61
v 27 14 61
v 27 15 61
v 28 6 61
v 28 10 61
v 30 4 61
v 30 10 61
v 30 15 61
v 32 10 61
v 32 12 61
v 40 10 61
v 40 12 61
v 42 1 61
v 42 10 61
v 61 1 61
v 61 80 61
v -62 0 24
v -62 1 24
v -23 0 24
v -23 1 24
v -63 0 -63
v -63 80 -63
v -62 0 -63
v -62 80 -63
v -23 0 -63
v -23 1 -63
v 61 0 -63
v 61 1 -63
v 61 80 -63
v 63 0 -63
v 63 80 -63
v -63 0 63
v 63 0 63
v 30 0 62
v 42 0 62
v -62 0 61
v 13 0 61
v 30 0 61
v 42 0 61
v 61 0 61
v 40 0 59
v 42 0 59
v 40 0 58
v 42 0 58
v 44 0 57
v 45 0 57
v 44 0 56
v 45 0 56
v 5 0 55
v 7 0 55
v 5 0 54
v 6 0 54
v 7 0 54
v 9 0 54
v 42 0 54
v 50 0 54
v 6 0 50
v 9 0 50
v 8 0 49
v 10 0 49
v 48 0 49
v 50 0 49
v 8 0 44
v 10 0 44
v 13 0 44
v 29 0 44
v 41 0 43
v 48 0 43
v 22 0 41
v 26 0 41
v 13 0 40
v 19 0 40
v 29 0 40
v 41 0 40
v 22 0 39
v 26 0 39
v 29 0 39
v 33 0 39
v 13 0 38
v 19 0 38
v 29 0 37
v 33 0 37
v -62 0 24
v -23 0 24
v -63 0 -63
v -62 0 -63
v -23 0 -63
v 61 0 -63
v 63 0 -63
v -62 1 61
v 13 1 61
v 15 1 61
v 26 1 61
v 27 1 61
v 42 1 61
v 61 1 61
v 40 1 59
v 42 1 59
v 40 1 58
v 42 1 58
v 44 1 57
v 45 1 57
v 44 1 56
v 45 1 56
v 5 1 55
v 7 1 55
v 5 1 54
v 6 1 54
v 7 1 54
v 9 1 54
v 42 1 54
v 50 1 54
v 6 1 50
v 9 1 50
v 8 1 49
v 10 1 49
v 48 1 49
v 50 1 49
v 8 1 44
v 10 1 44
v 13 1 44
v 29 1 44
v 41 1 43
v 48 1 43
v 22 1 41
v 26 1 41
v 13 1 40
v 19 1 40
v 29 1 40
v 41 1 40
v 22 1 39
v 26 1 39
v 29 1 39
v 33 1 39
v 13 1 38
v 19 1 38
v 29 1 37
v 33 1 37
v -62 1 24
v -23 1 24
v -23 1 -63
v 61 1 -63
v -63 80 63
v 63 80 63
v -62 80 61
v 61 80 61
v -63 80 -63
v -62 80 -63
v 61 80 -63
v 63 80 -63

# faces
f 3/3/1 2/3/1 1/3/1
f 4/3/1 2/3/1 3/3/1
f 7/1/1 6/1/1 5/1/1
f 8/1/1 6/1/1 7/1/1
f 11/3/1 10/3/1 9/3/1
f 12/3/1 10/3/1 11/3/1
f 13/3/2 14/3/2 16/3/2
f 15/3/2 16/3/2 17/3/2
f 16/3/2 14/3/2 18/3/2
f 17/3/2 16/3/2 18/3/2
f 19/3/2 20/3/2 21/3/2
f 21/3/2 20/3/2 22/3/2
f 25/3/3 24/3/3 23/3/3
f 26/3/3 24/3/3 25/3/3
f 27/3/4 28/3/4 29/3/4
f 29/3/4 28/3/4 30/3/4
f 30/3/4 28/3/4 31/3/4
f 29/3/4 30/3/4 32/3/4
f 30/4/4 31/4/4 33/4/4
f 32/3/4 30/3/4 33/3/4
f 31/3/4 28/3/4 34/3/4
f 33/4/4 31/4/4 34/4/4
f 32/4/4 33/4/4 34/4/4
f 34/3/4 28/3/4 35/3/4
f 35/3/4 28/3/4 36/3/4
f 36/3/4 28/3/4 37/3/4
f 35/3/4 36/3/4 38/3/4
f 36/4/4 37/4/4 38/4/4
f 37/3/4 28/3/4 39/3/4
f 38/4/4 37/4/4 39/4/4
f 39/3/4 28/3/4 40/3/4
f 40/3/4 28/3/4 41/3/4
f 34/4/4 35/4/4 42/4/4
f 35/3/4 38/3/4 42/3/4
f 38/3/4 39/3/4 42/3/4
f 39/3/4 40/3/4 42/3/4
f 42/3/4 40/3/4 43/3/4
f 40/4/4 41/4/4 44/4/4
f 43/3/4 40/3/4 44/3/4
f 41/3/4 28/3/4 45/3/4
f 44/4/4 41/4/4 45/4/4
f 43/3/4 44/3/4 46/3/4
f 42/4/4 43/4/4 46/4/4
f 44/3/4 45/3/4 46/3/4
f 46/3/4 45/3/4 47/3/4
f 46/4/4 47/4/4 48/4/4
f 47/3/4 45/3/4 48/3/4
f 45/3/4 28/3/4 49/3/4
f 48/3/4 45/3/4 49/3/4
f 32/4/4 34/4/4 50/4/4
f 46/4/4 48/4/4 50/4/4
f 48/4/4 49/4/4 50/4/4
f 42/4/4 46/4/4 50/4/4
f 34/4/4 42/4/4 50/4/4
f 50/4/4 49/4/4 51/4/4
f 51/4/4 49/4/4 52/4/4
f 52/4/4 49/4/4 53/4/4
f 50/3/4 51/3/4 54/3/4
f 51/4/4 52/4/4 55/4/4
f 54/3/4 51/3/4 55/3/4
f 52/3/4 53/3/4 56/3/4
f 55/4/4 52/4/4 56/4/4
f 49/3/4 28/3/4 57/3/4
f 53/4/4 49/4/4 57/4/4
f 57/3/4 28/3/4 58/3/4
f 56/3/4 53/3/4 59/3/4
f 55/3/4 56/3/4 59/3/4
f 57/4/4 58/4/4 59/4/4
f 53/4/4 57/4/4 59/4/4
f 59/4/4 58/4/4 60/4/4
f 54/4/4 55/4/4 61/4/4
f 55/3/4 59/3/4 61/3/4
f 59/3/4 60/3/4 61/3/4
f 60/4/4 58/4/4 62/4/4
f 61/3/4 60/3/4 62/3/4
f 58/3/4 28/3/4 63/3/4
f 62/4/4 58/4/4 63/4/4
f 61/4/4 62/4/4 64/4/4
f 62/3/4 63/3/4 64/3/4
f 64/3/4 63/3/4 65/3/4
f 61/4/4 64/4/4 66/4/4
f 64/4/4 65/4/4 66/4/4
f 65/3/4 63/3/4 67/3/4
f 66/4/4 65/4/4 67/4/4
f 54/4/4 61/4/4 68/4/4
f 61/4/4 66/4/4 68/4/4
f 66/3/4 67/3/4 69/3/4
f 68/4/4 66/4/4 69/4/4
f 68/3/4 69/3/4 70/3/4
f 63/3/4 28/3/4 71/3/4
f 70/3/4 69/3/4 71/3/4
f 67/3/4 63/3/4 71/3/4
f 69/3/4 67/3/4 71/3/4
f 72/1/4 73/1/4 74/1/4
f 74/1/4 73/1/4 75/1/4
f 76/3/4 77/3/4 78/3/4
f 78/3/4 77/3/4 79/3/4
f 80/1/4 81/1/4 82/1/4
f 82/1/4 81/1/4 83/1/4
f 82/3/4 83/3/4 85/3/4
f 83/3/4 84/3/4 85/3/4
f 85/3/4 84/3/4 86/3/4
f 89/3/5 88/3/5 87/3/5
f 90/3/5 88/3/5 89/3/5
f 91/3/5 89/3/5 87/3/5
f 92/3/5 89/3/5 91/3/5
f 93/4/5 90/4/5 89/4/5
f 93/3/5 89/3/5 92/3/5
f 94/3/5 88/3/5 90/3/5
f 94/4/5 90/4/5 93/4/5
f 95/3/5 88/3/5 94/3/5
f 96/2/5 93/2/5 92/2/5
f 96/2/5 94/2/5 93/2/5
f 97/1/5 95/1/5 94/1/5
f 97/2/5 94/2/5 96/2/5
f 98/2/5 96/2/5 92/2/5
f 98/1/5 97/1/5 96/1/5
f 99/1/5 95/1/5 97/1/5
f 99/1/5 97/1/5 98/1/5
f 100/1/5 95/1/5 99/1/5
f 101/1/5 95/1/5 100/1/5
f 102/1/5 100/1/5 99/1/5
f 102/2/5 101/2/5 100/2/5
f 103/1/5 95/1/5 101/1/5
f 103/2/5 101/2/5 102/2/5
f 104/1/5 92/1/5 91/1/5
f 105/1/5 92/1/5 104/1/5
f 106/1/5 104/1/5 91/1/5
f 106/2/5 105/2/5 104/2/5
f 107/2/5 105/2/5 106/2/5
f 108/1/5 92/1/5 105/1/5
f 108/2/5 105/2/5 107/2/5
f 109/1/5 92/1/5 108/1/5
f 110/2/5 99/2/5 98/2/5
f 110/1/5 102/1/5 99/1/5
f 110/1/5 103/1/5 102/1/5
f 111/1/5 95/1/5 103/1/5
f 111/1/5 103/1/5 110/1/5
f 112/2/5 109/2/5 108/2/5
f 112/2/5 108/2/5 107/2/5
f 112/1/5 107/1/5 106/1/5
f 113/1/5 92/1/5 109/1/5
f 113/2/5 109/2/5 112/2/5
f 114/1/5 113/1/5 112/1/5
f 115/1/5 92/1/5 113/1/5
f 115/1/5 113/1/5 114/1/5
f 116/2/5 111/2/5 110/2/5
f 117/1/5 95/1/5 111/1/5
f 117/2/5 111/2/5 116/2/5
f 118/1/5 114/1/5 112/1/5
f 118/2/5 115/2/5 114/2/5
f 119/1/5 92/1/5 115/1/5
f 119/2/5 115/2/5 118/2/5
f 120/2/5 110/2/5 98/2/5
f 120/1/5 92/1/5 119/1/5
f 120/2/5 98/2/5 92/2/5
f 120/2/5 116/2/5 110/2/5
f 121/2/5 116/2/5 120/2/5
f 122/2/5 116/2/5 121/2/5
f 123/1/5 117/1/5 116/1/5
f 123/2/5 116/2/5 122/2/5
f 124/1/5 119/1/5 118/1/5
f 124/1/5 120/1/5 119/1/5
f 124/1/5 121/1/5 120/1/5
f 125/1/5 121/1/5 124/1/5
f 126/1/5 124/1/5 118/1/5
f 127/1/5 124/1/5 126/1/5
f 128/2/5 122/2/5 121/2/5
f 128/1/5 121/1/5 125/1/5
f 129/1/5 123/1/5 122/1/5
f 129/2/5 122/2/5 128/2/5
f 130/1/5 124/1/5 127/1/5
f 130/2/5 125/2/5 124/2/5
f 131/1/5 128/1/5 125/1/5
f 131/2/5 125/2/5 130/2/5
f 131/1/5 129/1/5 128/1/5
f 132/1/5 129/1/5 131/1/5
f 133/1/5 129/1/5 132/1/5
f 134/2/5 127/2/5 126/2/5
f 134/1/5 126/1/5 118/1/5
f 135/1/5 130/1/5 127/1/5
f 135/2/5 127/2/5 134/2/5
f 135/1/5 131/1/5 130/1/5
f 135/1/5 132/1/5 131/1/5
f 136/2/5 133/2/5 132/2/5
f 136/1/5 132/1/5 135/1/5
f 136/1/5 135/1/5 134/1/5
f 137/1/5 129/1/5 133/1/5
f 137/2/5 133/2/5 136/2/5
f 138/3/5 91/3/5 87/3/5
f 138/1/5 112/1/5 106/1/5
f 138/1/5 137/1/5 136/1/5
f 138/1/5 136/1/5 134/1/5
f 138/1/5 134/1/5 118/1/5
f 138/1/5 106/1/5 91/1/5
f 138/1/5 118/1/5 112/1/5
f 139/1/5 137/1/5 138/1/5
f 140/3/5 138/3/5 87/3/5
f 141/3/5 138/3/5 140/3/5
f 142/1/5 137/1/5 139/1/5
f 143/3/5 88/3/5 95/3/5
f 143/1/5 137/1/5 142/1/5
f 143/1/5 117/1/5 123/1/5
f 143/1/5 129/1/5 137/1/5
f 143/1/5 123/1/5 129/1/5
f 143/1/5 95/1/5 117/1/5
f 144/3/5 88/3/5 143/3/5
f 146/2/6 147/2/6 152/2/6
f 147/2/6 148/2/6 152/2/6
f 149/2/6 150/2/6 152/2/6
f 148/2/6 149/2/6 152/2/6
f 150/1/6 151/1/6 153/1/6
f 152/2/6 150/2/6 153/2/6
f 146/2/6 152/2/6 154/2/6
f 152/1/6 153/1/6 154/1/6
f 153/1/6 151/1/6 155/1/6
f 154/1/6 153/1/6 155/1/6
f 155/1/6 151/1/6 156/1/6
f 156/1/6 151/1/6 157/1/6
f 155/1/6 156/1/6 158/1/6
f 156/2/6 157/2/6 158/2/6
f 157/1/6 151/1/6 159/1/6
f 158/2/6 157/2/6 159/2/6
f 145/1/6 146/1/6 160/1/6
f 160/1/6 146/1/6 161/1/6
f 145/1/6 160/1/6 162/1/6
f 160/2/6 161/2/6 162/2/6
f 162/2/6 161/2/6 163/2/6
f 161/1/6 146/1/6 164/1/6
f 163/2/6 161/2/6 164/2/6
f 164/1/6 146/1/6 165/1/6
f 154/2/6 155/2/6 166/2/6
f 155/1/6 158/1/6 166/1/6
f 158/1/6 159/1/6 166/1/6
f 159/1/6 151/1/6 167/1/6
f 166/1/6 159/1/6 167/1/6
f 164/2/6 165/2/6 168/2/6
f 163/2/6 164/2/6 168/2/6
f 162/1/6 163/1/6 168/1/6
f 165/1/6 146/1/6 169/1/6
f 168/2/6 165/2/6 169/2/6
f 168/1/6 169/1/6 170/1/6
f 169/1/6 146/1/6 171/1/6
f 170/1/6 169/1/6 171/1/6
f 166/2/6 167/2/6 172/2/6
f 167/1/6 151/1/6 173/1/6
f 172/2/6 167/2/6 173/2/6
f 168/1/6 170/1/6 174/1/6
f 170/2/6 171/2/6 174/2/6
f 171/1/6 146/1/6 175/1/6
f 174/2/6 171/2/6 175/2/6
f 154/2/6 166/2/6 176/2/6
f 175/1/6 146/1/6 176/1/6
f 146/2/6 154/2/6 176/2/6
f 166/2/6 172/2/6 176/2/6
f 176/2/6 172/2/6 177/2/6
f 177/2/6 172/2/6 178/2/6
f 172/1/6 173/1/6 179/1/6
f 178/2/6 172/2/6 179/2/6
f 174/1/6 175/1/6 180/1/6
f 175/1/6 176/1/6 180/1/6
f 176/1/6 177/1/6 180/1/6
f 180/1/6 177/1/6 181/1/6
f 174/1/6 180/1/6 182/1/6
f 182/1/6 180/1/6 183/1/6
f 177/2/6 178/2/6 184/2/6
f 181/1/6 177/1/6 184/1/6
f 178/1/6 179/1/6 185/1/6
f 184/2/6 178/2/6 185/2/6
f 183/1/6 180/1/6 186/1/6
f 180/2/6 181/2/6 186/2/6
f 181/1/6 184/1/6 187/1/6
f 186/2/6 181/2/6 187/2/6
f 184/1/6 185/1/6 187/1/6
f 187/1/6 185/1/6 188/1/6
f 188/1/6 185/1/6 189/1/6
f 182/2/6 183/2/6 190/2/6
f 174/1/6 182/1/6 190/1/6
f 183/1/6 186/1/6 191/1/6
f 190/2/6 183/2/6 191/2/6
f 186/1/6 187/1/6 191/1/6
f 187/1/6 188/1/6 191/1/6
f 188/2/6 189/2/6 192/2/6
f 191/1/6 188/1/6 192/1/6
f 190/1/6 191/1/6 192/1/6
f 189/1/6 185/1/6 193/1/6
f 192/2/6 189/2/6 193/2/6
f 162/1/6 168/1/6 194/1/6
f 168/1/6 174/1/6 194/1/6
f 192/1/6 193/1/6 194/1/6
f 190/1/6 192/1/6 194/1/6
f 174/1/6 190/1/6 194/1/6
f 145/1/6 162/1/6 194/1/6
f 194/1/6 193/1/6 195/1/6
f 195/1/6 193/1/6 196/1/6
f 179/1/6 173/1/6 197/1/6
f 196/1/6 193/1/6 197/1/6
f 185/1/6 179/1/6 197/1/6
f 193/1/6 185/1/6 197/1/6
f 173/1/6 151/1/6 197/1/6
f 198/3/6 199/3/6 200/3/6
f 200/3/6 199/3/6 201/3/6
f 198/3/6 200/3/6 202/3/6
f 202/3/6 200/3/6 203/3/6
f 201/3/6 199/3/6 204/3/6
f 204/3/6 199/3/6 205/3/6
