# MagicaVoxel @ Ephtracy

# group
g 4x2 second (1)-1

# material
mtllib 4x2 second (1)-1.mtl
usemtl palette

# normals
vn -1 0 0
vn 1 0 0
vn 0 0 1
vn 0 0 -1
vn 0 -1 0
vn 0 1 0

# texcoords
vt 0.970703 0.5
vt 0.974609 0.5
vt 0.978516 0.5
vt 0.982422 0.5
vt 0.986328 0.5

# verts
v -63 0 63
v -63 0 -63
v -63 21 61
v -63 21 -63
v -63 80 63
v -63 80 61
v -26 1 61
v -26 1 35
v -26 1 5
v -26 1 -63
v -26 41 35
v -26 41 5
v -26 55 61
v -26 55 57
v -26 60 57
v -26 60 54
v -26 64 54
v -26 64 53
v -26 64 52
v -26 64 46
v -26 65 48
v -26 65 46
v -26 66 54
v -26 66 53
v -26 70 44
v -26 70 43
v -26 71 52
v -26 71 48
v -26 71 44
v -26 71 43
v -26 80 61
v -26 80 54
v -26 80 -63
v 62 1 61
v 62 1 -63
v 62 80 61
v 62 80 -63
v -62 1 61
v -62 1 -63
v -62 21 61
v -62 21 -63
v -24 1 61
v -24 1 52
v -24 1 50
v -24 1 49
v -24 1 46
v -24 1 35
v -24 1 5
v -24 1 -63
v -24 3 52
v -24 3 48
v -24 5 50
v -24 5 48
v -24 5 47
v -24 6 51
v -24 6 50
v -24 6 49
v -24 6 48
v -24 7 51
v -24 7 49
v -24 7 48
v -24 7 47
v -24 9 52
v -24 9 50
v -24 9 49
v -24 9 48
v -24 10 50
v -24 10 49
v -24 15 58
v -24 15 54
v -24 17 54
v -24 17 52
v -24 18 61
v -24 18 58
v -24 20 61
v -24 41 35
v -24 41 5
v -24 80 61
v -24 80 -63
v 63 0 63
v 63 0 -63
v 63 80 63
v 63 80 -63
v -63 0 63
v -63 80 63
v 63 0 63
v 63 80 63
v -26 1 5
v -26 41 5
v -25 1 5
v -24 1 5
v -24 41 5
v -63 21 61
v -63 80 61
v -62 1 61
v -62 21 61
v -43 62 61
v -43 70 61
v -41 62 61
v -41 70 61
v -38 67 61
v -38 76 61
v -37 53 61
v -37 55 61
v -37 60 61
v -37 67 61
v -37 76 61
v -37 80 61
v -35 53 61
v -35 55 61
v -29 55 61
v -29 60 61
v -26 1 61
v -26 55 61
v -26 80 61
v -24 1 61
v -24 18 61
v -24 20 61
v -24 80 61
v -19 20 61
v -19 22 61
v -17 22 61
v -17 23 61
v -15 22 61
v -15 23 61
v -7 1 61
v -7 3 61
v -7 9 61
v -7 11 61
v -5 9 61
v -5 10 61
v -5 17 61
v -5 22 61
v -4 2 61
v -4 3 61
v -3 1 61
v -1 11 61
v -1 17 61
v 2 2 61
v 2 3 61
v 4 3 61
v 4 10 61
v 62 1 61
v 62 80 61
v -26 1 35
v -26 41 35
v -25 1 35
v -24 1 35
v -24 41 35
v -63 0 -63
v -63 21 -63
v -62 1 -63
v -62 21 -63
v -26 1 -63
v -26 80 -63
v -24 0 -63
v -24 1 -63
v -24 80 -63
v 62 0 -63
v 62 1 -63
v 62 80 -63
v 63 0 -63
v 63 80 -63
v -63 0 63
v 63 0 63
v -24 0 61
v -3 0 61
v 62 0 61
v -3 0 59
v 3 0 59
v -1 0 55
v 3 0 55
v -24 0 50
v -23 0 50
v -20 0 50
v -18 0 50
v -12 0 50
v -11 0 50
v -7 0 50
v -6 0 50
v -5 0 50
v -1 0 50
v -24 0 49
v -23 0 49
v -20 0 49
v -16 0 49
v -12 0 49
v -11 0 48
v -7 0 48
v -6 0 48
v -5 0 48
v -24 0 46
v -23 0 46
v -18 0 46
v -16 0 46
v -25 0 35
v -24 0 35
v -25 0 5
v -24 0 5
v -63 0 -63
v -24 0 -63
v 62 0 -63
v 63 0 -63
v -26 41 35
v -24 41 35
v -26 41 5
v -24 41 5
v -62 1 61
v -26 1 61
v -24 1 61
v -7 1 61
v -3 1 61
v 62 1 61
v -3 1 59
v 3 1 59
v -1 1 55
v 3 1 55
v -24 1 52
v -24 1 50
v -23 1 50
v -20 1 50
v -18 1 50
v -12 1 50
v -11 1 50
v -7 1 50
v -6 1 50
v -5 1 50
v -1 1 50
v -24 1 49
v -23 1 49
v -20 1 49
v -16 1 49
v -12 1 49
v -11 1 48
v -7 1 48
v -6 1 48
v -5 1 48
v -24 1 46
v -23 1 46
v -18 1 46
v -16 1 46
v -26 1 35
v -25 1 35
v -24 1 35
v -26 1 5
v -25 1 5
v -24 1 5
v -62 1 -63
v -26 1 -63
v -24 1 -63
v 62 1 -63
v -63 21 61
v -62 21 61
v -63 21 -63
v -62 21 -63
v -63 80 63
v 63 80 63
v -37 80 62
v -25 80 62
v -63 80 61
v -37 80 61
v -26 80 61
v -24 80 61
v 62 80 61
v -26 80 54
v -25 80 54
v -26 80 -63
v -24 80 -63
v 62 80 -63
v 63 80 -63

# faces
f 3/1/1 2/1/1 1/1/1
f 4/1/1 2/1/1 3/1/1
f 5/1/1 3/1/1 1/1/1
f 6/1/1 3/1/1 5/1/1
f 11/1/1 8/1/1 7/1/1
f 12/1/1 10/1/1 9/1/1
f 13/1/1 11/1/1 7/1/1
f 13/1/1 12/1/1 11/1/1
f 14/1/1 12/1/1 13/1/1
f 15/3/1 14/3/1 13/3/1
f 15/1/1 12/1/1 14/1/1
f 16/1/1 12/1/1 15/1/1
f 17/3/1 16/3/1 15/3/1
f 17/1/1 12/1/1 16/1/1
f 18/1/1 12/1/1 17/1/1
f 19/1/1 12/1/1 18/1/1
f 20/1/1 12/1/1 19/1/1
f 21/3/1 20/3/1 19/3/1
f 22/1/1 12/1/1 20/1/1
f 22/3/1 20/3/1 21/3/1
f 23/3/1 17/3/1 15/3/1
f 23/3/1 18/3/1 17/3/1
f 24/1/1 19/1/1 18/1/1
f 24/3/1 18/3/1 23/3/1
f 25/1/1 12/1/1 22/1/1
f 25/1/1 22/1/1 21/1/1
f 26/1/1 12/1/1 25/1/1
f 27/1/1 19/1/1 24/1/1
f 27/1/1 24/1/1 23/1/1
f 27/3/1 21/3/1 19/3/1
f 28/1/1 25/1/1 21/1/1
f 28/3/1 21/3/1 27/3/1
f 29/3/1 26/3/1 25/3/1
f 29/1/1 25/1/1 28/1/1
f 30/1/1 12/1/1 26/1/1
f 30/3/1 26/3/1 29/3/1
f 31/3/1 15/3/1 13/3/1
f 31/3/1 23/3/1 15/3/1
f 32/1/1 29/1/1 28/1/1
f 32/3/1 23/3/1 31/3/1
f 32/1/1 28/1/1 27/1/1
f 32/1/1 27/1/1 23/1/1
f 32/1/1 30/1/1 29/1/1
f 33/1/1 10/1/1 12/1/1
f 33/1/1 30/1/1 32/1/1
f 33/1/1 12/1/1 30/1/1
f 36/1/1 35/1/1 34/1/1
f 37/1/1 35/1/1 36/1/1
f 38/1/2 39/1/2 40/1/2
f 40/1/2 39/1/2 41/1/2
f 42/2/2 43/2/2 50/2/2
f 43/1/2 44/1/2 50/1/2
f 46/1/2 47/1/2 50/1/2
f 45/1/2 46/1/2 50/1/2
f 44/1/2 45/1/2 50/1/2
f 50/1/2 47/1/2 51/1/2
f 50/2/2 51/2/2 52/2/2
f 51/1/2 47/1/2 53/1/2
f 52/2/2 51/2/2 53/2/2
f 53/1/2 47/1/2 54/1/2
f 50/2/2 52/2/2 55/2/2
f 52/1/2 53/1/2 56/1/2
f 55/2/2 52/2/2 56/2/2
f 56/1/2 53/1/2 57/1/2
f 53/2/2 54/2/2 58/2/2
f 57/1/2 53/1/2 58/1/2
f 50/2/2 55/2/2 59/2/2
f 56/1/2 57/1/2 59/1/2
f 55/1/2 56/1/2 59/1/2
f 57/2/2 58/2/2 60/2/2
f 59/1/2 57/1/2 60/1/2
f 58/2/2 54/2/2 61/2/2
f 60/2/2 58/2/2 61/2/2
f 54/1/2 47/1/2 62/1/2
f 61/2/2 54/2/2 62/2/2
f 42/2/2 50/2/2 63/2/2
f 60/2/2 61/2/2 63/2/2
f 59/2/2 60/2/2 63/2/2
f 50/2/2 59/2/2 63/2/2
f 63/2/2 61/2/2 64/2/2
f 64/2/2 61/2/2 65/2/2
f 61/1/2 62/1/2 66/1/2
f 65/2/2 61/2/2 66/2/2
f 64/2/2 65/2/2 67/2/2
f 63/1/2 64/1/2 67/1/2
f 65/1/2 66/1/2 68/1/2
f 67/2/2 65/2/2 68/2/2
f 42/2/2 63/2/2 69/2/2
f 69/2/2 63/2/2 70/2/2
f 69/1/2 70/1/2 71/1/2
f 70/2/2 63/2/2 71/2/2
f 63/1/2 67/1/2 72/1/2
f 71/2/2 63/2/2 72/2/2
f 67/1/2 68/1/2 72/1/2
f 42/2/2 69/2/2 73/2/2
f 69/1/2 71/1/2 74/1/2
f 73/2/2 69/2/2 74/2/2
f 71/1/2 72/1/2 74/1/2
f 73/1/2 74/1/2 75/1/2
f 62/1/2 47/1/2 76/1/2
f 75/1/2 74/1/2 76/1/2
f 66/1/2 62/1/2 76/1/2
f 74/1/2 72/1/2 76/1/2
f 72/1/2 68/1/2 76/1/2
f 68/1/2 66/1/2 76/1/2
f 48/1/2 49/1/2 77/1/2
f 75/1/2 76/1/2 78/1/2
f 76/1/2 77/1/2 78/1/2
f 77/1/2 49/1/2 79/1/2
f 78/1/2 77/1/2 79/1/2
f 80/1/2 81/1/2 82/1/2
f 82/1/2 81/1/2 83/1/2
f 86/1/3 85/1/3 84/1/3
f 87/1/3 85/1/3 86/1/3
f 90/1/3 89/1/3 88/1/3
f 91/1/3 89/1/3 90/1/3
f 92/1/3 89/1/3 91/1/3
f 93/1/4 94/1/4 96/1/4
f 96/1/4 94/1/4 97/1/4
f 95/1/4 96/1/4 97/1/4
f 97/1/4 94/1/4 98/1/4
f 95/1/4 97/1/4 99/1/4
f 97/3/4 98/3/4 99/3/4
f 98/1/4 94/1/4 100/1/4
f 99/3/4 98/3/4 100/3/4
f 99/1/4 100/1/4 101/1/4
f 100/1/4 94/1/4 102/1/4
f 101/1/4 100/1/4 102/1/4
f 95/1/4 99/1/4 103/1/4
f 99/1/4 101/1/4 103/1/4
f 103/1/4 101/1/4 104/1/4
f 104/1/4 101/1/4 105/1/4
f 101/3/4 102/3/4 106/3/4
f 105/1/4 101/1/4 106/1/4
f 102/1/4 94/1/4 107/1/4
f 106/3/4 102/3/4 107/3/4
f 107/1/4 94/1/4 108/1/4
f 95/1/4 103/1/4 109/1/4
f 103/3/4 104/3/4 109/3/4
f 104/1/4 105/1/4 110/1/4
f 109/3/4 104/3/4 110/3/4
f 109/1/4 110/1/4 111/1/4
f 110/1/4 105/1/4 111/1/4
f 105/3/4 106/3/4 112/3/4
f 111/1/4 105/1/4 112/1/4
f 107/3/4 108/3/4 112/3/4
f 106/3/4 107/3/4 112/3/4
f 109/1/4 111/1/4 113/1/4
f 95/1/4 109/1/4 113/1/4
f 111/3/4 112/3/4 114/3/4
f 113/1/4 111/1/4 114/1/4
f 112/3/4 108/3/4 115/3/4
f 114/3/4 112/3/4 115/3/4
f 116/2/4 117/2/4 120/2/4
f 118/1/4 119/1/4 120/1/4
f 117/2/4 118/2/4 120/2/4
f 120/1/4 119/1/4 121/1/4
f 120/2/4 121/2/4 122/2/4
f 121/1/4 119/1/4 122/1/4
f 122/1/4 119/1/4 123/1/4
f 120/2/4 122/2/4 124/2/4
f 122/2/4 123/2/4 124/2/4
f 123/1/4 119/1/4 125/1/4
f 124/2/4 123/2/4 125/2/4
f 116/2/4 120/2/4 126/2/4
f 120/2/4 124/2/4 126/2/4
f 126/2/4 124/2/4 127/2/4
f 127/2/4 124/2/4 128/2/4
f 128/2/4 124/2/4 129/2/4
f 127/2/4 128/2/4 130/2/4
f 128/1/4 129/1/4 130/1/4
f 130/1/4 129/1/4 131/1/4
f 129/2/4 124/2/4 132/2/4
f 124/1/4 125/1/4 133/1/4
f 132/2/4 124/2/4 133/2/4
f 126/1/4 127/1/4 134/1/4
f 127/2/4 130/2/4 135/2/4
f 134/1/4 127/1/4 135/1/4
f 130/2/4 131/2/4 135/2/4
f 126/1/4 134/1/4 136/1/4
f 129/2/4 132/2/4 137/2/4
f 131/1/4 129/1/4 137/1/4
f 132/1/4 133/1/4 138/1/4
f 137/2/4 132/2/4 138/2/4
f 136/1/4 134/1/4 139/1/4
f 134/2/4 135/2/4 139/2/4
f 135/2/4 131/2/4 140/2/4
f 139/2/4 135/2/4 140/2/4
f 139/1/4 140/1/4 141/1/4
f 140/2/4 131/2/4 141/2/4
f 131/1/4 137/1/4 142/1/4
f 141/2/4 131/2/4 142/2/4
f 137/1/4 138/1/4 142/1/4
f 136/1/4 139/1/4 143/1/4
f 139/1/4 141/1/4 143/1/4
f 141/1/4 142/1/4 143/1/4
f 125/1/4 119/1/4 144/1/4
f 143/1/4 142/1/4 144/1/4
f 138/1/4 133/1/4 144/1/4
f 142/1/4 138/1/4 144/1/4
f 133/1/4 125/1/4 144/1/4
f 145/1/4 146/1/4 147/1/4
f 147/1/4 146/1/4 148/1/4
f 148/1/4 146/1/4 149/1/4
f 150/1/4 151/1/4 152/1/4
f 152/1/4 151/1/4 153/1/4
f 150/1/4 152/1/4 154/1/4
f 150/1/4 154/1/4 156/1/4
f 154/1/4 155/1/4 156/1/4
f 156/1/4 155/1/4 157/1/4
f 157/1/4 155/1/4 158/1/4
f 156/4/4 157/4/4 159/4/4
f 159/4/4 157/4/4 160/4/4
f 159/1/4 160/1/4 162/1/4
f 160/1/4 161/1/4 162/1/4
f 162/1/4 161/1/4 163/1/4
f 166/1/5 165/1/5 164/1/5
f 167/1/5 165/1/5 166/1/5
f 168/1/5 165/1/5 167/1/5
f 169/5/5 167/5/5 166/5/5
f 169/4/5 168/4/5 167/4/5
f 170/4/5 168/4/5 169/4/5
f 171/5/5 170/5/5 169/5/5
f 172/4/5 168/4/5 170/4/5
f 172/5/5 170/5/5 171/5/5
f 173/1/5 166/1/5 164/1/5
f 173/5/5 169/5/5 166/5/5
f 173/5/5 171/5/5 169/5/5
f 174/5/5 171/5/5 173/5/5
f 175/5/5 171/5/5 174/5/5
f 176/5/5 171/5/5 175/5/5
f 177/5/5 171/5/5 176/5/5
f 178/5/5 171/5/5 177/5/5
f 179/5/5 171/5/5 178/5/5
f 180/5/5 171/5/5 179/5/5
f 181/5/5 171/5/5 180/5/5
f 182/4/5 172/4/5 171/4/5
f 182/5/5 171/5/5 181/5/5
f 183/1/5 173/1/5 164/1/5
f 183/4/5 174/4/5 173/4/5
f 184/5/5 175/5/5 174/5/5
f 184/4/5 174/4/5 183/4/5
f 185/4/5 176/4/5 175/4/5
f 185/5/5 175/5/5 184/5/5
f 186/5/5 177/5/5 176/5/5
f 187/4/5 178/4/5 177/4/5
f 187/5/5 177/5/5 186/5/5
f 188/5/5 179/5/5 178/5/5
f 188/4/5 178/4/5 187/4/5
f 188/4/5 187/4/5 186/4/5
f 189/4/5 180/4/5 179/4/5
f 189/5/5 179/5/5 188/5/5
f 190/5/5 181/5/5 180/5/5
f 190/4/5 180/4/5 189/4/5
f 191/4/5 182/4/5 181/4/5
f 191/5/5 181/5/5 190/5/5
f 192/1/5 183/1/5 164/1/5
f 192/5/5 184/5/5 183/5/5
f 193/4/5 185/4/5 184/4/5
f 193/5/5 184/5/5 192/5/5
f 194/4/5 176/4/5 185/4/5
f 194/4/5 185/4/5 193/4/5
f 194/5/5 186/5/5 176/5/5
f 195/4/5 189/4/5 188/4/5
f 195/5/5 186/5/5 194/5/5
f 195/4/5 190/4/5 189/4/5
f 195/4/5 191/4/5 190/4/5
f 195/4/5 188/4/5 186/4/5
f 196/1/5 192/1/5 164/1/5
f 197/4/5 194/4/5 193/4/5
f 197/1/5 192/1/5 196/1/5
f 197/4/5 193/4/5 192/4/5
f 197/4/5 195/4/5 194/4/5
f 198/1/5 196/1/5 164/1/5
f 198/4/5 197/4/5 196/4/5
f 199/4/5 195/4/5 197/4/5
f 199/4/5 197/4/5 198/4/5
f 200/1/5 198/1/5 164/1/5
f 200/1/5 199/1/5 198/1/5
f 201/4/5 195/4/5 199/4/5
f 201/1/5 199/1/5 200/1/5
f 202/4/5 168/4/5 172/4/5
f 202/4/5 195/4/5 201/4/5
f 202/1/5 165/1/5 168/1/5
f 202/4/5 182/4/5 191/4/5
f 202/4/5 191/4/5 195/4/5
f 202/4/5 172/4/5 182/4/5
f 203/1/5 165/1/5 202/1/5
f 206/1/5 205/1/5 204/1/5
f 207/1/5 205/1/5 206/1/5
f 210/5/6 211/5/6 214/5/6
f 212/4/6 213/4/6 214/4/6
f 211/5/6 212/5/6 214/5/6
f 214/4/6 213/4/6 215/4/6
f 214/5/6 215/5/6 216/5/6
f 215/4/6 213/4/6 217/4/6
f 216/5/6 215/5/6 217/5/6
f 210/5/6 214/5/6 218/5/6
f 214/5/6 216/5/6 218/5/6
f 218/5/6 216/5/6 219/5/6
f 219/5/6 216/5/6 220/5/6
f 220/5/6 216/5/6 221/5/6
f 221/5/6 216/5/6 222/5/6
f 222/5/6 216/5/6 223/5/6
f 223/5/6 216/5/6 224/5/6
f 224/5/6 216/5/6 225/5/6
f 225/5/6 216/5/6 226/5/6
f 226/5/6 216/5/6 227/5/6
f 216/4/6 217/4/6 228/4/6
f 227/5/6 216/5/6 228/5/6
f 219/4/6 220/4/6 229/4/6
f 220/5/6 221/5/6 230/5/6
f 229/4/6 220/4/6 230/4/6
f 221/4/6 222/4/6 231/4/6
f 230/5/6 221/5/6 231/5/6
f 222/5/6 223/5/6 232/5/6
f 223/4/6 224/4/6 233/4/6
f 232/5/6 223/5/6 233/5/6
f 224/5/6 225/5/6 234/5/6
f 233/4/6 224/4/6 234/4/6
f 232/4/6 233/4/6 234/4/6
f 225/4/6 226/4/6 235/4/6
f 234/5/6 225/5/6 235/5/6
f 226/5/6 227/5/6 236/5/6
f 235/4/6 226/4/6 236/4/6
f 227/4/6 228/4/6 237/4/6
f 236/5/6 227/5/6 237/5/6
f 229/5/6 230/5/6 238/5/6
f 230/4/6 231/4/6 239/4/6
f 238/5/6 230/5/6 239/5/6
f 231/4/6 222/4/6 240/4/6
f 239/4/6 231/4/6 240/4/6
f 222/5/6 232/5/6 240/5/6
f 234/4/6 235/4/6 241/4/6
f 240/5/6 232/5/6 241/5/6
f 236/4/6 237/4/6 241/4/6
f 235/4/6 236/4/6 241/4/6
f 232/4/6 234/4/6 241/4/6
f 208/1/6 209/1/6 242/1/6
f 239/4/6 240/4/6 244/4/6
f 238/4/6 239/4/6 244/4/6
f 240/4/6 241/4/6 244/4/6
f 242/1/6 243/1/6 245/1/6
f 208/1/6 242/1/6 245/1/6
f 243/4/6 244/4/6 246/4/6
f 245/1/6 243/1/6 246/1/6
f 244/4/6 241/4/6 247/4/6
f 246/4/6 244/4/6 247/4/6
f 208/1/6 245/1/6 248/1/6
f 248/1/6 245/1/6 249/1/6
f 247/4/6 241/4/6 250/4/6
f 241/4/6 237/4/6 251/4/6
f 250/4/6 241/4/6 251/4/6
f 217/4/6 213/4/6 251/4/6
f 228/4/6 217/4/6 251/4/6
f 237/4/6 228/4/6 251/4/6
f 252/1/6 253/1/6 254/1/6
f 254/1/6 253/1/6 255/1/6
f 256/1/6 257/1/6 258/1/6
f 258/1/6 257/1/6 259/1/6
f 256/1/6 258/1/6 260/1/6
f 258/3/6 259/3/6 261/3/6
f 260/1/6 258/1/6 261/1/6
f 261/3/6 259/3/6 262/3/6
f 259/1/6 257/1/6 263/1/6
f 263/1/6 257/1/6 264/1/6
f 262/3/6 259/3/6 265/3/6
f 259/1/6 263/1/6 266/1/6
f 265/3/6 259/3/6 266/3/6
f 265/1/6 266/1/6 267/1/6
f 266/1/6 263/1/6 268/1/6
f 267/1/6 266/1/6 268/1/6
f 264/1/6 257/1/6 269/1/6
f 269/1/6 257/1/6 270/1/6
