# MagicaVoxel @ Ephtracy

# group
g 4x2 second-7

# material
mtllib 4x2 second-7.mtl
usemtl palette

# normals
vn -1 0 0
vn 1 0 0
vn 0 0 1
vn 0 0 -1
vn 0 -1 0
vn 0 1 0

# texcoords
vt 0.396484 0.5
vt 0.494141 0.5
vt 0.970703 0.5

# verts
v -63 0 63
v -63 0 -63
v -63 4 61
v -63 4 24
v -63 5 61
v -63 5 24
v -63 80 63
v -63 80 -63
v -61 5 61
v -61 5 24
v -61 29 24
v -61 29 6
v -61 32 61
v -61 32 6
v -61 32 -5
v -61 39 6
v -61 39 -5
v -61 39 -15
v -61 46 -5
v -61 46 -15
v -61 46 -26
v -61 53 -15
v -61 53 -26
v -61 53 -37
v -61 60 -26
v -61 60 -37
v -61 60 -62
v -61 67 -37
v -61 67 -62
v -23 0 24
v -23 0 -63
v -23 1 24
v -23 1 -63
v 23 1 24
v 23 1 3
v 23 8 13
v 23 8 3
v 23 15 24
v 23 15 13
v 61 1 3
v 61 1 -63
v 61 8 13
v 61 8 3
v 61 15 24
v 61 15 13
v 61 22 61
v 61 22 24
v 61 80 61
v 61 80 -63
v -62 0 24
v -62 0 -63
v -62 4 24
v -62 5 61
v -62 5 24
v -62 32 61
v -62 32 6
v -62 39 61
v -62 39 27
v -62 39 6
v -62 39 -5
v -62 46 27
v -62 46 16
v -62 46 -5
v -62 46 -15
v -62 53 16
v -62 53 6
v -62 53 -15
v -62 53 -26
v -62 60 6
v -62 60 -5
v -62 60 -26
v -62 60 -37
v -62 67 -5
v -62 67 -15
v -62 67 -37
v -62 67 -62
v -62 74 -15
v -62 74 -26
v -62 80 61
v -62 80 -26
v -62 80 -62
v -62 80 -63
v -23 29 24
v -23 29 6
v -23 32 6
v -23 32 -5
v -23 39 27
v -23 39 24
v -23 39 -5
v -23 39 -15
v -23 46 27
v -23 46 16
v -23 46 -15
v -23 46 -26
v -23 53 16
v -23 53 6
v -23 53 -26
v -23 53 -37
v -23 60 6
v -23 60 -5
v -23 60 -37
v -23 60 -62
v -23 67 -5
v -23 67 -15
v -23 74 -15
v -23 74 -26
v -23 80 -26
v -23 80 -62
v 9 32 61
v 9 32 24
v 9 39 61
v 9 39 24
v 20 25 61
v 20 25 24
v 20 32 61
v 20 32 24
v 30 22 61
v 30 22 24
v 30 25 61
v 30 25 24
v 63 0 63
v 63 0 -63
v 63 80 63
v 63 80 -63
v -63 0 63
v -63 80 63
v 63 0 63
v 63 80 63
v -62 39 27
v -62 46 27
v -23 39 27
v -23 46 27
v -62 46 16
v -62 53 16
v -23 46 16
v -23 53 16
v -62 53 6
v -62 60 6
v -23 53 6
v -23 60 6
v -62 60 -5
v -62 67 -5
v -23 60 -5
v -23 67 -5
v -62 67 -15
v -62 74 -15
v -23 67 -15
v -23 74 -15
v -62 74 -26
v -62 80 -26
v -23 74 -26
v -23 80 -26
v -62 5 61
v -62 32 61
v -62 39 61
v -62 80 61
v -61 5 61
v -61 32 61
v 9 32 61
v 9 39 61
v 20 25 61
v 20 32 61
v 30 22 61
v 30 25 61
v 61 22 61
v 61 80 61
v -62 0 24
v -62 4 24
v -62 5 24
v -61 3 24
v -61 4 24
v -61 5 24
v -61 29 24
v -23 0 24
v -23 1 24
v -23 3 24
v -23 29 24
v -23 39 24
v 9 32 24
v 9 39 24
v 20 25 24
v 20 32 24
v 23 1 24
v 23 15 24
v 30 22 24
v 30 25 24
v 61 15 24
v 61 22 24
v 23 8 13
v 23 15 13
v 61 8 13
v 61 15 13
v -62 32 6
v -62 39 6
v -61 29 6
v -61 32 6
v -61 39 6
v -23 29 6
v -23 32 6
v 23 1 3
v 23 8 3
v 61 1 3
v 61 8 3
v -62 39 -5
v -62 46 -5
v -61 32 -5
v -61 39 -5
v -61 46 -5
v -23 32 -5
v -23 39 -5
v -62 46 -15
v -62 53 -15
v -61 39 -15
v -61 46 -15
v -61 53 -15
v -23 39 -15
v -23 46 -15
v -62 53 -26
v -62 60 -26
v -61 46 -26
v -61 53 -26
v -61 60 -26
v -23 46 -26
v -23 53 -26
v -62 60 -37
v -62 67 -37
v -61 53 -37
v -61 60 -37
v -61 67 -37
v -23 53 -37
v -23 60 -37
v -62 67 -62
v -62 80 -62
v -61 60 -62
v -61 67 -62
v -23 60 -62
v -23 80 -62
v -63 0 -63
v -63 80 -63
v -62 0 -63
v -62 80 -63
v -23 0 -63
v -23 1 -63
v 61 0 -63
v 61 1 -63
v 61 80 -63
v 63 0 -63
v 63 80 -63
v -63 0 63
v 63 0 63
v -23 0 61
v 61 0 61
v -62 0 24
v -23 0 24
v 23 0 24
v 23 0 3
v 61 0 3
v -63 0 -63
v -62 0 -63
v -23 0 -63
v 61 0 -63
v 63 0 -63
v -61 29 24
v -23 29 24
v -61 29 6
v -23 29 6
v -62 32 61
v -61 32 61
v -62 32 6
v -61 32 6
v -23 32 6
v -61 32 -5
v -23 32 -5
v -62 39 6
v -61 39 6
v -62 39 -5
v -61 39 -5
v -23 39 -5
v -61 39 -15
v -23 39 -15
v -62 46 -5
v -61 46 -5
v -62 46 -15
v -61 46 -15
v -23 46 -15
v -61 46 -26
v -23 46 -26
v -62 53 -15
v -61 53 -15
v -62 53 -26
v -61 53 -26
v -23 53 -26
v -61 53 -37
v -23 53 -37
v -62 60 -26
v -61 60 -26
v -62 60 -37
v -61 60 -37
v -23 60 -37
v -61 60 -62
v -23 60 -62
v -62 67 -37
v -61 67 -37
v -62 67 -62
v -61 67 -62
v -23 1 24
v 23 1 24
v 23 1 3
v 61 1 3
v -23 1 -63
v 61 1 -63
v -62 5 61
v -61 5 61
v -62 5 24
v -61 5 24
v 23 8 13
v 61 8 13
v 23 8 3
v 61 8 3
v 23 15 24
v 61 15 24
v 23 15 13
v 61 15 13
v 30 22 61
v 61 22 61
v 30 22 24
v 61 22 24
v 20 25 61
v 30 25 61
v 20 25 24
v 30 25 24
v 9 32 61
v 20 32 61
v 9 32 24
v 20 32 24
v -62 39 61
v 9 39 61
v -62 39 27
v -23 39 27
v -23 39 24
v 9 39 24
v -62 46 27
v -23 46 27
v -62 46 16
v -23 46 16
v -62 53 16
v -23 53 16
v -62 53 6
v -23 53 6
v -62 60 6
v -23 60 6
v -62 60 -5
v -23 60 -5
v -62 67 -5
v -23 67 -5
v -62 67 -15
v -23 67 -15
v -62 74 -15
v -23 74 -15
v -62 74 -26
v -23 74 -26
v -63 80 63
v 63 80 63
v -62 80 61
v 61 80 61
v -62 80 -26
v -23 80 -26
v -62 80 -62
v -23 80 -62
v -63 80 -63
v -62 80 -63
v 61 80 -63
v 63 80 -63

# faces
f 3/3/1 2/3/1 1/3/1
f 4/3/1 2/3/1 3/3/1
f 5/3/1 3/3/1 1/3/1
f 5/2/1 4/2/1 3/2/1
f 6/3/1 2/3/1 4/3/1
f 6/2/1 4/2/1 5/2/1
f 7/3/1 5/3/1 1/3/1
f 7/3/1 6/3/1 5/3/1
f 8/3/1 2/3/1 6/3/1
f 8/3/1 6/3/1 7/3/1
f 11/1/1 10/1/1 9/1/1
f 13/1/1 11/1/1 9/1/1
f 13/1/1 12/1/1 11/1/1
f 14/1/1 12/1/1 13/1/1
f 16/1/1 15/1/1 14/1/1
f 17/1/1 15/1/1 16/1/1
f 19/1/1 18/1/1 17/1/1
f 20/1/1 18/1/1 19/1/1
f 22/1/1 21/1/1 20/1/1
f 23/1/1 21/1/1 22/1/1
f 25/1/1 24/1/1 23/1/1
f 26/1/1 24/1/1 25/1/1
f 28/1/1 27/1/1 26/1/1
f 29/1/1 27/1/1 28/1/1
f 32/2/1 31/2/1 30/2/1
f 33/2/1 31/2/1 32/2/1
f 36/1/1 35/1/1 34/1/1
f 37/1/1 35/1/1 36/1/1
f 38/1/1 36/1/1 34/1/1
f 39/1/1 36/1/1 38/1/1
f 43/3/1 41/3/1 40/3/1
f 45/3/1 43/3/1 42/3/1
f 47/3/1 45/3/1 44/3/1
f 48/3/1 47/3/1 46/3/1
f 49/3/1 41/3/1 43/3/1
f 49/3/1 47/3/1 48/3/1
f 49/3/1 43/3/1 45/3/1
f 49/3/1 45/3/1 47/3/1
f 50/3/2 51/3/2 52/3/2
f 52/3/2 51/3/2 54/3/2
f 53/3/2 54/3/2 55/3/2
f 54/3/2 51/3/2 56/3/2
f 55/3/2 54/3/2 56/3/2
f 56/3/2 51/3/2 59/3/2
f 59/3/2 51/3/2 60/3/2
f 57/3/2 58/3/2 61/3/2
f 60/3/2 51/3/2 63/3/2
f 63/3/2 51/3/2 64/3/2
f 61/3/2 62/3/2 65/3/2
f 64/3/2 51/3/2 67/3/2
f 67/3/2 51/3/2 68/3/2
f 65/3/2 66/3/2 69/3/2
f 68/3/2 51/3/2 71/3/2
f 71/3/2 51/3/2 72/3/2
f 69/3/2 70/3/2 73/3/2
f 72/3/2 51/3/2 75/3/2
f 75/3/2 51/3/2 76/3/2
f 73/3/2 74/3/2 77/3/2
f 57/3/2 61/3/2 79/3/2
f 77/3/2 78/3/2 79/3/2
f 73/3/2 77/3/2 79/3/2
f 61/3/2 65/3/2 79/3/2
f 69/3/2 73/3/2 79/3/2
f 65/3/2 69/3/2 79/3/2
f 79/3/2 78/3/2 80/3/2
f 76/3/2 51/3/2 81/3/2
f 81/3/2 51/3/2 82/3/2
f 83/1/2 84/1/2 85/1/2
f 83/1/2 85/1/2 88/1/2
f 85/1/2 86/1/2 88/1/2
f 88/1/2 86/1/2 89/1/2
f 87/1/2 88/1/2 91/1/2
f 89/1/2 90/1/2 91/1/2
f 88/1/2 89/1/2 91/1/2
f 91/1/2 90/1/2 92/1/2
f 92/1/2 90/1/2 93/1/2
f 93/1/2 94/1/2 95/1/2
f 92/1/2 93/1/2 95/1/2
f 95/1/2 94/1/2 96/1/2
f 96/1/2 94/1/2 97/1/2
f 97/1/2 98/1/2 99/1/2
f 96/1/2 97/1/2 99/1/2
f 99/1/2 98/1/2 100/1/2
f 100/1/2 98/1/2 101/1/2
f 101/1/2 102/1/2 103/1/2
f 100/1/2 101/1/2 103/1/2
f 103/1/2 102/1/2 104/1/2
f 104/1/2 102/1/2 105/1/2
f 105/1/2 102/1/2 106/1/2
f 106/1/2 102/1/2 107/1/2
f 107/1/2 102/1/2 108/1/2
f 109/1/2 110/1/2 111/1/2
f 111/1/2 110/1/2 112/1/2
f 113/1/2 114/1/2 115/1/2
f 115/1/2 114/1/2 116/1/2
f 117/1/2 118/1/2 119/1/2
f 119/1/2 118/1/2 120/1/2
f 121/3/2 122/3/2 123/3/2
f 123/3/2 122/3/2 124/3/2
f 127/3/3 126/3/3 125/3/3
f 128/3/3 126/3/3 127/3/3
f 131/1/3 130/1/3 129/1/3
f 132/1/3 130/1/3 131/1/3
f 135/1/3 134/1/3 133/1/3
f 136/1/3 134/1/3 135/1/3
f 139/1/3 138/1/3 137/1/3
f 140/1/3 138/1/3 139/1/3
f 143/1/3 142/1/3 141/1/3
f 144/1/3 142/1/3 143/1/3
f 147/1/3 146/1/3 145/1/3
f 148/1/3 146/1/3 147/1/3
f 151/1/3 150/1/3 149/1/3
f 152/1/3 150/1/3 151/1/3
f 153/3/4 154/3/4 157/3/4
f 157/3/4 154/3/4 158/3/4
f 155/3/4 156/3/4 160/3/4
f 159/3/4 160/3/4 162/3/4
f 161/3/4 162/3/4 164/3/4
f 163/3/4 164/3/4 165/3/4
f 160/3/4 156/3/4 166/3/4
f 165/3/4 164/3/4 166/3/4
f 162/3/4 160/3/4 166/3/4
f 164/3/4 162/3/4 166/3/4
f 167/3/4 168/3/4 170/3/4
f 168/2/4 169/2/4 171/2/4
f 170/3/4 168/3/4 171/3/4
f 171/2/4 169/2/4 172/2/4
f 167/3/4 170/3/4 174/3/4
f 174/3/4 170/3/4 175/3/4
f 172/1/4 173/1/4 176/1/4
f 175/3/4 170/3/4 176/3/4
f 170/1/4 171/1/4 176/1/4
f 171/1/4 172/1/4 176/1/4
f 176/1/4 173/1/4 177/1/4
f 177/1/4 178/1/4 179/1/4
f 176/1/4 177/1/4 179/1/4
f 175/1/4 176/1/4 179/1/4
f 179/1/4 178/1/4 180/1/4
f 175/1/4 179/1/4 181/1/4
f 181/1/4 179/1/4 182/1/4
f 175/1/4 181/1/4 183/1/4
f 183/1/4 181/1/4 184/1/4
f 184/1/4 181/1/4 185/1/4
f 185/1/4 181/1/4 186/1/4
f 184/1/4 185/1/4 187/1/4
f 187/1/4 185/1/4 188/1/4
f 189/1/4 190/1/4 191/1/4
f 191/1/4 190/1/4 192/1/4
f 193/1/4 194/1/4 196/1/4
f 196/1/4 194/1/4 197/1/4
f 195/1/4 196/1/4 198/1/4
f 198/1/4 196/1/4 199/1/4
f 200/1/4 201/1/4 202/1/4
f 202/1/4 201/1/4 203/1/4
f 204/1/4 205/1/4 207/1/4
f 207/1/4 205/1/4 208/1/4
f 206/1/4 207/1/4 209/1/4
f 209/1/4 207/1/4 210/1/4
f 211/1/4 212/1/4 214/1/4
f 214/1/4 212/1/4 215/1/4
f 213/1/4 214/1/4 216/1/4
f 216/1/4 214/1/4 217/1/4
f 218/1/4 219/1/4 221/1/4
f 221/1/4 219/1/4 222/1/4
f 220/1/4 221/1/4 223/1/4
f 223/1/4 221/1/4 224/1/4
f 225/1/4 226/1/4 228/1/4
f 228/1/4 226/1/4 229/1/4
f 227/1/4 228/1/4 230/1/4
f 230/1/4 228/1/4 231/1/4
f 232/1/4 233/1/4 235/1/4
f 234/1/4 235/1/4 236/1/4
f 235/1/4 233/1/4 237/1/4
f 236/1/4 235/1/4 237/1/4
f 238/3/4 239/3/4 240/3/4
f 240/3/4 239/3/4 241/3/4
f 242/2/4 243/2/4 244/2/4
f 244/2/4 243/2/4 245/2/4
f 244/3/4 245/3/4 247/3/4
f 245/3/4 246/3/4 247/3/4
f 247/3/4 246/3/4 248/3/4
f 251/3/5 250/3/5 249/3/5
f 252/3/5 250/3/5 251/3/5
f 253/3/5 251/3/5 249/3/5
f 254/1/5 252/1/5 251/1/5
f 254/3/5 251/3/5 253/3/5
f 255/1/5 252/1/5 254/1/5
f 256/1/5 252/1/5 255/1/5
f 256/2/5 255/2/5 254/2/5
f 257/3/5 250/3/5 252/3/5
f 257/1/5 252/1/5 256/1/5
f 258/3/5 253/3/5 249/3/5
f 259/3/5 253/3/5 258/3/5
f 260/2/5 256/2/5 254/2/5
f 260/2/5 257/2/5 256/2/5
f 261/3/5 250/3/5 257/3/5
f 261/2/5 257/2/5 260/2/5
f 262/3/5 250/3/5 261/3/5
f 265/1/5 264/1/5 263/1/5
f 266/1/5 264/1/5 265/1/5
f 269/1/5 268/1/5 267/1/5
f 270/1/5 268/1/5 269/1/5
f 272/1/5 271/1/5 270/1/5
f 273/1/5 271/1/5 272/1/5
f 276/1/5 275/1/5 274/1/5
f 277/1/5 275/1/5 276/1/5
f 279/1/5 278/1/5 277/1/5
f 280/1/5 278/1/5 279/1/5
f 283/1/5 282/1/5 281/1/5
f 284/1/5 282/1/5 283/1/5
f 286/1/5 285/1/5 284/1/5
f 287/1/5 285/1/5 286/1/5
f 290/1/5 289/1/5 288/1/5
f 291/1/5 289/1/5 290/1/5
f 293/1/5 292/1/5 291/1/5
f 294/1/5 292/1/5 293/1/5
f 297/1/5 296/1/5 295/1/5
f 298/1/5 296/1/5 297/1/5
f 300/1/5 299/1/5 298/1/5
f 301/1/5 299/1/5 300/1/5
f 304/1/5 303/1/5 302/1/5
f 305/1/5 303/1/5 304/1/5
f 306/2/6 307/2/6 308/2/6
f 306/2/6 308/2/6 310/2/6
f 308/2/6 309/2/6 310/2/6
f 310/2/6 309/2/6 311/2/6
f 312/2/6 313/2/6 314/2/6
f 314/2/6 313/2/6 315/2/6
f 316/1/6 317/1/6 318/1/6
f 318/1/6 317/1/6 319/1/6
f 320/1/6 321/1/6 322/1/6
f 322/1/6 321/1/6 323/1/6
f 324/1/6 325/1/6 326/1/6
f 326/1/6 325/1/6 327/1/6
f 328/1/6 329/1/6 330/1/6
f 330/1/6 329/1/6 331/1/6
f 332/1/6 333/1/6 334/1/6
f 334/1/6 333/1/6 335/1/6
f 336/1/6 337/1/6 338/1/6
f 338/1/6 337/1/6 339/1/6
f 339/1/6 337/1/6 340/1/6
f 340/1/6 337/1/6 341/1/6
f 342/1/6 343/1/6 344/1/6
f 344/1/6 343/1/6 345/1/6
f 346/1/6 347/1/6 348/1/6
f 348/1/6 347/1/6 349/1/6
f 350/1/6 351/1/6 352/1/6
f 352/1/6 351/1/6 353/1/6
f 354/1/6 355/1/6 356/1/6
f 356/1/6 355/1/6 357/1/6
f 358/1/6 359/1/6 360/1/6
f 360/1/6 359/1/6 361/1/6
f 362/3/6 363/3/6 364/3/6
f 364/3/6 363/3/6 365/3/6
f 362/3/6 364/3/6 366/3/6
f 362/3/6 366/3/6 368/3/6
f 366/1/6 367/1/6 368/1/6
f 368/1/6 367/1/6 369/1/6
f 362/3/6 368/3/6 370/3/6
f 370/3/6 368/3/6 371/3/6
f 365/3/6 363/3/6 372/3/6
f 372/3/6 363/3/6 373/3/6
