# MagicaVoxel @ Ephtracy

# group
g 4x2 first-1

# material
mtllib 4x2 first-1.mtl
usemtl palette

# normals
vn -1 0 0
vn 1 0 0
vn 0 0 1
vn 0 0 -1
vn 0 -1 0
vn 0 1 0

# texcoords
vt 0.970703 0.5
vt 0.978516 0.5
vt 0.982422 0.5

# verts
v -63 0 63
v -63 0 30
v -63 0 -24
v -63 0 -63
v -63 4 33
v -63 4 32
v -63 4 -49
v -63 4 -52
v -63 4 -57
v -63 4 -62
v -63 5 33
v -63 5 32
v -63 6 -62
v -63 6 -63
v -63 7 -38
v -63 7 -39
v -63 8 33
v -63 8 32
v -63 8 -38
v -63 8 -39
v -63 9 -52
v -63 9 -53
v -63 10 -24
v -63 10 -35
v -63 10 -49
v -63 10 -53
v -63 10 -56
v -63 10 -57
v -63 10 -62
v -63 10 -63
v -63 11 32
v -63 11 30
v -63 13 -35
v -63 13 -36
v -63 13 -52
v -63 13 -56
v -63 13 -60
v -63 13 -62
v -63 16 -36
v -63 16 -49
v -63 20 33
v -63 20 31
v -63 21 38
v -63 21 34
v -63 22 31
v -63 22 30
v -63 24 38
v -63 24 34
v -63 24 33
v -63 24 30
v -63 24 -50
v -63 24 -52
v -63 26 -59
v -63 26 -60
v -63 27 33
v -63 27 32
v -63 29 33
v -63 29 32
v -63 30 39
v -63 30 37
v -63 33 -49
v -63 33 -50
v -63 34 35
v -63 34 33
v -63 34 -52
v -63 34 -59
v -63 35 39
v -63 35 37
v -63 37 35
v -63 37 33
v -63 38 40
v -63 38 34
v -63 43 -24
v -63 43 -34
v -63 44 -28
v -63 44 -31
v -63 44 -34
v -63 44 -38
v -63 44 -45
v -63 44 -52
v -63 48 33
v -63 48 30
v -63 48 -38
v -63 48 -45
v -63 49 -28
v -63 49 -31
v -63 50 -30
v -63 50 -31
v -63 51 -30
v -63 51 -31
v -63 52 40
v -63 52 34
v -63 53 -24
v -63 53 -25
v -63 53 -33
v -63 53 -35
v -63 55 30
v -63 55 29
v -63 55 26
v -63 55 12
v -63 55 8
v -63 55 4
v -63 55 3
v -63 55 -1
v -63 55 -18
v -63 55 -19
v -63 56 29
v -63 56 27
v -63 56 26
v -63 56 24
v -63 57 17
v -63 57 16
v -63 57 4
v -63 57 3
v -63 58 24
v -63 58 23
v -63 58 17
v -63 58 16
v -63 58 12
v -63 58 8
v -63 58 -25
v -63 58 -30
v -63 59 27
v -63 59 23
v -63 59 7
v -63 59 -0
v -63 59 -25
v -63 59 -30
v -63 59 -33
v -63 59 -35
v -63 60 27
v -63 60 21
v -63 60 -1
v -63 60 -9
v -63 62 -19
v -63 62 -25
v -63 64 7
v -63 64 -0
v -63 65 27
v -63 65 21
v -63 65 -9
v -63 65 -18
v -63 67 -13
v -63 67 -15
v -63 68 -13
v -63 68 -15
v -63 80 63
v -63 80 -63
v 21 28 -62
v 21 28 -63
v 21 56 -62
v 21 56 -63
v 62 5 61
v 62 5 40
v 62 5 10
v 62 5 -62
v 62 45 40
v 62 45 10
v 62 80 61
v 62 80 -62
v -61 5 61
v -61 5 -62
v -61 80 61
v -61 80 -62
v -30 28 -62
v -30 28 -63
v -30 56 -62
v -30 56 -63
v 63 0 63
v 63 0 -63
v 63 4 40
v 63 4 10
v 63 5 40
v 63 5 10
v 63 45 40
v 63 45 10
v 63 80 63
v 63 80 -63
v -63 0 63
v -63 80 63
v 63 0 63
v 63 80 63
v 62 5 10
v 62 45 10
v 63 5 10
v 63 45 10
v -61 5 -62
v -61 80 -62
v -30 28 -62
v -30 56 -62
v 21 28 -62
v 21 56 -62
v 34 26 -62
v 34 27 -62
v 35 26 -62
v 35 27 -62
v 62 5 -62
v 62 80 -62
v -61 5 61
v -61 80 61
v 62 5 61
v 62 80 61
v 62 5 40
v 62 45 40
v 63 5 40
v 63 45 40
v -63 0 -63
v -63 6 -63
v -63 10 -63
v -63 80 -63
v -62 6 -63
v -62 10 -63
v -30 28 -63
v -30 56 -63
v 21 28 -63
v 21 56 -63
v 34 26 -63
v 34 27 -63
v 35 26 -63
v 35 27 -63
v 63 0 -63
v 63 80 -63
v -63 0 63
v 63 0 63
v -63 0 30
v -62 0 30
v -63 0 -24
v -62 0 -24
v -63 0 -63
v 63 0 -63
v 62 45 40
v 63 45 40
v 62 45 10
v 63 45 10
v -30 56 -62
v 21 56 -62
v -30 56 -63
v 21 56 -63
v -61 5 61
v 62 5 61
v 62 5 40
v 63 5 40
v 62 5 10
v 63 5 10
v -61 5 -62
v 62 5 -62
v -30 28 -62
v 21 28 -62
v -30 28 -63
v 21 28 -63
v -63 80 63
v 63 80 63
v -61 80 61
v 62 80 61
v -61 80 -62
v 62 80 -62
v -63 80 -63
v 63 80 -63

# faces
f 5/1/1 2/1/1 1/1/1
f 6/1/1 2/1/1 5/1/1
f 7/1/1 4/1/1 3/1/1
f 8/1/1 4/1/1 7/1/1
f 9/1/1 4/1/1 8/1/1
f 10/1/1 4/1/1 9/1/1
f 11/1/1 5/1/1 1/1/1
f 11/2/1 6/2/1 5/2/1
f 12/1/1 2/1/1 6/1/1
f 12/2/1 6/2/1 11/2/1
f 13/1/1 4/1/1 10/1/1
f 13/2/1 10/2/1 9/2/1
f 14/1/1 4/1/1 13/1/1
f 15/1/1 7/1/1 3/1/1
f 16/1/1 7/1/1 15/1/1
f 17/1/1 11/1/1 1/1/1
f 17/1/1 12/1/1 11/1/1
f 18/1/1 2/1/1 12/1/1
f 18/1/1 12/1/1 17/1/1
f 19/2/1 16/2/1 15/2/1
f 19/1/1 15/1/1 3/1/1
f 20/1/1 7/1/1 16/1/1
f 20/2/1 16/2/1 19/2/1
f 21/2/1 8/2/1 7/2/1
f 21/1/1 9/1/1 8/1/1
f 22/1/1 9/1/1 21/1/1
f 23/1/1 19/1/1 3/1/1
f 23/2/1 3/2/1 2/2/1
f 23/1/1 20/1/1 19/1/1
f 24/1/1 20/1/1 23/1/1
f 25/2/1 22/2/1 21/2/1
f 25/1/1 20/1/1 24/1/1
f 25/1/1 7/1/1 20/1/1
f 25/2/1 21/2/1 7/2/1
f 26/1/1 9/1/1 22/1/1
f 26/2/1 22/2/1 25/2/1
f 27/1/1 9/1/1 26/1/1
f 28/2/1 13/2/1 9/2/1
f 28/1/1 9/1/1 27/1/1
f 28/2/1 14/2/1 13/2/1
f 29/2/1 14/2/1 28/2/1
f 30/2/1 14/2/1 29/2/1
f 31/1/1 2/1/1 18/1/1
f 31/2/1 18/2/1 17/2/1
f 32/2/1 24/2/1 23/2/1
f 32/1/1 2/1/1 31/1/1
f 32/2/1 23/2/1 2/2/1
f 33/1/1 25/1/1 24/1/1
f 33/2/1 24/2/1 32/2/1
f 33/2/1 32/2/1 31/2/1
f 33/1/1 27/1/1 26/1/1
f 33/1/1 26/1/1 25/1/1
f 34/1/1 27/1/1 33/1/1
f 35/1/1 27/1/1 34/1/1
f 36/2/1 28/2/1 27/2/1
f 36/1/1 27/1/1 35/1/1
f 36/2/1 29/2/1 28/2/1
f 37/2/1 29/2/1 36/2/1
f 38/1/1 30/1/1 29/1/1
f 38/2/1 29/2/1 37/2/1
f 39/1/1 35/1/1 34/1/1
f 39/2/1 34/2/1 33/2/1
f 40/1/1 35/1/1 39/1/1
f 41/2/1 31/2/1 17/2/1
f 41/1/1 17/1/1 1/1/1
f 41/2/1 40/2/1 39/2/1
f 41/2/1 39/2/1 33/2/1
f 41/2/1 33/2/1 31/2/1
f 42/2/1 40/2/1 41/2/1
f 43/1/1 41/1/1 1/1/1
f 43/1/1 42/1/1 41/1/1
f 44/1/1 42/1/1 43/1/1
f 45/2/1 40/2/1 42/2/1
f 45/1/1 42/1/1 44/1/1
f 46/2/1 40/2/1 45/2/1
f 47/2/1 44/2/1 43/2/1
f 47/1/1 43/1/1 1/1/1
f 48/1/1 46/1/1 45/1/1
f 48/2/1 44/2/1 47/2/1
f 48/1/1 45/1/1 44/1/1
f 49/1/1 46/1/1 48/1/1
f 50/2/1 40/2/1 46/2/1
f 50/1/1 46/1/1 49/1/1
f 51/1/1 35/1/1 40/1/1
f 52/2/1 36/2/1 35/2/1
f 52/1/1 35/1/1 51/1/1
f 52/2/1 37/2/1 36/2/1
f 53/2/1 52/2/1 51/2/1
f 53/2/1 37/2/1 52/2/1
f 54/1/1 38/1/1 37/1/1
f 54/2/1 37/2/1 53/2/1
f 55/2/1 50/2/1 49/2/1
f 55/1/1 49/1/1 48/1/1
f 55/1/1 48/1/1 47/1/1
f 56/2/1 50/2/1 55/2/1
f 57/1/1 55/1/1 47/1/1
f 57/1/1 56/1/1 55/1/1
f 58/2/1 50/2/1 56/2/1
f 58/1/1 56/1/1 57/1/1
f 59/1/1 47/1/1 1/1/1
f 59/1/1 57/1/1 47/1/1
f 60/1/1 57/1/1 59/1/1
f 61/2/1 40/2/1 50/2/1
f 61/1/1 51/1/1 40/1/1
f 61/2/1 50/2/1 58/2/1
f 61/2/1 58/2/1 57/2/1
f 62/2/1 53/2/1 51/2/1
f 62/1/1 51/1/1 61/1/1
f 63/1/1 57/1/1 60/1/1
f 64/2/1 61/2/1 57/2/1
f 64/1/1 57/1/1 63/1/1
f 64/2/1 62/2/1 61/2/1
f 65/2/1 53/2/1 62/2/1
f 65/2/1 62/2/1 64/2/1
f 66/1/1 54/1/1 53/1/1
f 66/2/1 53/2/1 65/2/1
f 67/2/1 60/2/1 59/2/1
f 67/1/1 59/1/1 1/1/1
f 68/1/1 63/1/1 60/1/1
f 68/2/1 60/2/1 67/2/1
f 69/2/1 64/2/1 63/2/1
f 69/1/1 63/1/1 68/1/1
f 69/1/1 68/1/1 67/1/1
f 69/2/1 65/2/1 64/2/1
f 70/2/1 65/2/1 69/2/1
f 71/1/1 67/1/1 1/1/1
f 71/1/1 69/1/1 67/1/1
f 71/1/1 70/1/1 69/1/1
f 72/1/1 70/1/1 71/1/1
f 73/2/1 65/2/1 70/2/1
f 74/2/1 65/2/1 73/2/1
f 75/1/1 74/1/1 73/1/1
f 76/1/1 74/1/1 75/1/1
f 77/2/1 65/2/1 74/2/1
f 77/1/1 74/1/1 76/1/1
f 78/2/1 65/2/1 77/2/1
f 79/2/1 65/2/1 78/2/1
f 80/1/1 66/1/1 65/1/1
f 80/2/1 65/2/1 79/2/1
f 81/1/1 70/1/1 72/1/1
f 81/2/1 73/2/1 70/2/1
f 82/2/1 73/2/1 81/2/1
f 83/2/1 79/2/1 78/2/1
f 83/1/1 77/1/1 76/1/1
f 83/1/1 78/1/1 77/1/1
f 84/1/1 80/1/1 79/1/1
f 84/2/1 79/2/1 83/2/1
f 85/2/1 76/2/1 75/2/1
f 85/1/1 75/1/1 73/1/1
f 86/1/1 83/1/1 76/1/1
f 86/2/1 76/2/1 85/2/1
f 86/1/1 84/1/1 83/1/1
f 87/1/1 86/1/1 85/1/1
f 88/1/1 84/1/1 86/1/1
f 88/1/1 86/1/1 87/1/1
f 89/1/1 87/1/1 85/1/1
f 89/2/1 88/2/1 87/2/1
f 90/1/1 84/1/1 88/1/1
f 90/2/1 88/2/1 89/2/1
f 91/1/1 71/1/1 1/1/1
f 91/2/1 72/2/1 71/2/1
f 92/1/1 81/1/1 72/1/1
f 92/2/1 72/2/1 91/2/1
f 92/1/1 82/1/1 81/1/1
f 93/2/1 73/2/1 82/2/1
f 93/1/1 90/1/1 89/1/1
f 93/1/1 85/1/1 73/1/1
f 93/1/1 89/1/1 85/1/1
f 94/1/1 90/1/1 93/1/1
f 95/1/1 84/1/1 90/1/1
f 95/1/1 90/1/1 94/1/1
f 96/1/1 84/1/1 95/1/1
f 97/1/1 82/1/1 92/1/1
f 97/2/1 94/2/1 93/2/1
f 97/1/1 92/1/1 91/1/1
f 97/2/1 93/2/1 82/2/1
f 98/2/1 94/2/1 97/2/1
f 99/2/1 94/2/1 98/2/1
f 100/2/1 94/2/1 99/2/1
f 101/2/1 94/2/1 100/2/1
f 102/2/1 94/2/1 101/2/1
f 103/2/1 94/2/1 102/2/1
f 104/2/1 94/2/1 103/2/1
f 105/2/1 94/2/1 104/2/1
f 106/2/1 94/2/1 105/2/1
f 107/1/1 98/1/1 97/1/1
f 107/2/1 99/2/1 98/2/1
f 108/2/1 99/2/1 107/2/1
f 109/1/1 100/1/1 99/1/1
f 109/2/1 99/2/1 108/2/1
f 110/1/1 100/1/1 109/1/1
f 111/1/1 100/1/1 110/1/1
f 112/1/1 100/1/1 111/1/1
f 113/1/1 102/1/1 101/1/1
f 113/2/1 103/2/1 102/2/1
f 114/1/1 104/1/1 103/1/1
f 114/2/1 103/2/1 113/2/1
f 115/2/1 109/2/1 108/2/1
f 115/2/1 110/2/1 109/2/1
f 115/1/1 111/1/1 110/1/1
f 116/1/1 111/1/1 115/1/1
f 117/2/1 112/2/1 111/2/1
f 117/1/1 111/1/1 116/1/1
f 118/1/1 100/1/1 112/1/1
f 118/2/1 112/2/1 117/2/1
f 119/2/1 101/2/1 100/2/1
f 119/1/1 100/1/1 118/1/1
f 120/1/1 113/1/1 101/1/1
f 120/2/1 101/2/1 119/2/1
f 120/1/1 114/1/1 113/1/1
f 121/1/1 95/1/1 94/1/1
f 121/2/1 94/2/1 106/2/1
f 122/1/1 95/1/1 121/1/1
f 123/1/1 108/1/1 107/1/1
f 123/2/1 116/2/1 115/2/1
f 123/2/1 115/2/1 108/2/1
f 124/1/1 120/1/1 119/1/1
f 124/2/1 116/2/1 123/2/1
f 124/1/1 118/1/1 117/1/1
f 124/1/1 117/1/1 116/1/1
f 124/1/1 119/1/1 118/1/1
f 125/1/1 114/1/1 120/1/1
f 125/1/1 120/1/1 124/1/1
f 126/1/1 104/1/1 114/1/1
f 126/1/1 114/1/1 125/1/1
f 127/2/1 121/2/1 106/2/1
f 127/2/1 122/2/1 121/2/1
f 128/1/1 95/1/1 122/1/1
f 128/2/1 122/2/1 127/2/1
f 129/2/1 96/2/1 95/2/1
f 129/1/1 95/1/1 128/1/1
f 130/1/1 84/1/1 96/1/1
f 130/2/1 96/2/1 129/2/1
f 131/1/1 124/1/1 123/1/1
f 131/1/1 123/1/1 107/1/1
f 131/1/1 125/1/1 124/1/1
f 132/1/1 125/1/1 131/1/1
f 133/1/1 104/1/1 126/1/1
f 133/2/1 105/2/1 104/2/1
f 134/2/1 105/2/1 133/2/1
f 135/1/1 106/1/1 105/1/1
f 135/2/1 127/2/1 106/2/1
f 136/1/1 129/1/1 128/1/1
f 136/2/1 127/2/1 135/2/1
f 136/1/1 128/1/1 127/1/1
f 136/1/1 130/1/1 129/1/1
f 137/1/1 125/1/1 132/1/1
f 137/2/1 126/2/1 125/2/1
f 138/1/1 133/1/1 126/1/1
f 138/2/1 126/2/1 137/2/1
f 138/1/1 134/1/1 133/1/1
f 139/1/1 131/1/1 107/1/1
f 139/2/1 132/2/1 131/2/1
f 140/1/1 137/1/1 132/1/1
f 140/2/1 132/2/1 139/2/1
f 140/1/1 138/1/1 137/1/1
f 141/1/1 134/1/1 138/1/1
f 141/1/1 138/1/1 140/1/1
f 141/2/1 105/2/1 134/2/1
f 142/1/1 135/1/1 105/1/1
f 142/2/1 105/2/1 141/2/1
f 142/1/1 136/1/1 135/1/1
f 143/1/1 141/1/1 140/1/1
f 143/1/1 140/1/1 139/1/1
f 143/1/1 142/1/1 141/1/1
f 144/1/1 142/1/1 143/1/1
f 145/1/1 143/1/1 139/1/1
f 145/2/1 144/2/1 143/2/1
f 146/1/1 142/1/1 144/1/1
f 146/2/1 144/2/1 145/2/1
f 147/1/1 139/1/1 107/1/1
f 147/1/1 91/1/1 1/1/1
f 147/1/1 146/1/1 145/1/1
f 147/1/1 145/1/1 139/1/1
f 147/1/1 97/1/1 91/1/1
f 147/1/1 107/1/1 97/1/1
f 148/1/1 30/1/1 38/1/1
f 148/1/1 146/1/1 147/1/1
f 148/1/1 136/1/1 142/1/1
f 148/1/1 80/1/1 84/1/1
f 148/1/1 130/1/1 136/1/1
f 148/1/1 84/1/1 130/1/1
f 148/1/1 142/1/1 146/1/1
f 148/1/1 38/1/1 54/1/1
f 148/1/1 66/1/1 80/1/1
f 148/1/1 54/1/1 66/1/1
f 151/1/1 150/1/1 149/1/1
f 152/1/1 150/1/1 151/1/1
f 157/1/1 154/1/1 153/1/1
f 158/1/1 156/1/1 155/1/1
f 159/1/1 157/1/1 153/1/1
f 159/1/1 158/1/1 157/1/1
f 160/1/1 156/1/1 158/1/1
f 160/1/1 158/1/1 159/1/1
f 161/1/2 162/1/2 163/1/2
f 163/1/2 162/1/2 164/1/2
f 165/1/2 166/1/2 167/1/2
f 167/1/2 166/1/2 168/1/2
f 169/1/2 170/1/2 171/1/2
f 171/1/2 170/1/2 172/1/2
f 169/1/2 171/1/2 173/1/2
f 171/3/2 172/3/2 173/3/2
f 172/1/2 170/1/2 174/1/2
f 173/3/2 172/3/2 174/3/2
f 169/1/2 173/1/2 175/1/2
f 174/1/2 170/1/2 176/1/2
f 169/1/2 175/1/2 177/1/2
f 175/1/2 176/1/2 177/1/2
f 176/1/2 170/1/2 178/1/2
f 177/1/2 176/1/2 178/1/2
f 181/1/3 180/1/3 179/1/3
f 182/1/3 180/1/3 181/1/3
f 185/1/3 184/1/3 183/1/3
f 186/1/3 184/1/3 185/1/3
f 189/1/3 188/1/3 187/1/3
f 190/1/3 188/1/3 189/1/3
f 191/1/3 189/1/3 187/1/3
f 192/1/3 188/1/3 190/1/3
f 193/1/3 191/1/3 187/1/3
f 193/1/3 192/1/3 191/1/3
f 194/1/3 192/1/3 193/1/3
f 195/1/3 193/1/3 187/1/3
f 195/2/3 194/2/3 193/2/3
f 196/1/3 192/1/3 194/1/3
f 196/2/3 194/2/3 195/2/3
f 197/1/3 195/1/3 187/1/3
f 197/1/3 196/1/3 195/1/3
f 198/1/3 188/1/3 192/1/3
f 198/1/3 196/1/3 197/1/3
f 198/1/3 192/1/3 196/1/3
f 199/1/4 200/1/4 201/1/4
f 201/1/4 200/1/4 202/1/4
f 203/1/4 204/1/4 205/1/4
f 205/1/4 204/1/4 206/1/4
f 207/1/4 208/1/4 211/1/4
f 208/2/4 209/2/4 211/2/4
f 209/1/4 210/1/4 212/1/4
f 211/2/4 209/2/4 212/2/4
f 211/1/4 212/1/4 213/1/4
f 212/1/4 210/1/4 213/1/4
f 213/1/4 210/1/4 214/1/4
f 211/1/4 213/1/4 215/1/4
f 214/1/4 210/1/4 216/1/4
f 211/1/4 215/1/4 217/1/4
f 215/1/4 216/1/4 217/1/4
f 217/1/4 216/1/4 218/1/4
f 211/1/4 217/1/4 219/1/4
f 217/2/4 218/2/4 219/2/4
f 218/1/4 216/1/4 220/1/4
f 219/2/4 218/2/4 220/2/4
f 207/1/4 211/1/4 221/1/4
f 211/1/4 219/1/4 221/1/4
f 219/1/4 220/1/4 221/1/4
f 220/1/4 216/1/4 222/1/4
f 221/1/4 220/1/4 222/1/4
f 216/1/4 210/1/4 222/1/4
f 225/1/5 224/1/5 223/1/5
f 226/1/5 224/1/5 225/1/5
f 227/2/5 226/2/5 225/2/5
f 228/1/5 224/1/5 226/1/5
f 228/2/5 226/2/5 227/2/5
f 229/1/5 228/1/5 227/1/5
f 230/1/5 224/1/5 228/1/5
f 230/1/5 228/1/5 229/1/5
f 233/1/5 232/1/5 231/1/5
f 234/1/5 232/1/5 233/1/5
f 237/1/5 236/1/5 235/1/5
f 238/1/5 236/1/5 237/1/5
f 239/3/6 240/3/6 241/3/6
f 239/3/6 241/3/6 243/3/6
f 241/3/6 242/3/6 243/3/6
f 243/3/6 242/3/6 244/3/6
f 239/3/6 243/3/6 245/3/6
f 245/3/6 243/3/6 246/3/6
f 247/1/6 248/1/6 249/1/6
f 249/1/6 248/1/6 250/1/6
f 251/1/6 252/1/6 253/1/6
f 253/1/6 252/1/6 254/1/6
f 251/1/6 253/1/6 255/1/6
f 254/1/6 252/1/6 256/1/6
f 251/1/6 255/1/6 257/1/6
f 255/1/6 256/1/6 257/1/6
f 256/1/6 252/1/6 258/1/6
f 257/1/6 256/1/6 258/1/6
