# MagicaVoxel @ Ephtracy

# group
g 4x2 first-3

# material
mtllib 4x2 first-3.mtl
usemtl palette

# normals
vn -1 0 0
vn 1 0 0
vn 0 0 1
vn 0 0 -1
vn 0 -1 0
vn 0 1 0

# texcoords
vt 0.970703 0.5
vt 0.982422 0.5

# verts
v -63 0 63
v -63 0 -63
v -63 4 40
v -63 4 10
v -63 5 40
v -63 5 10
v -63 45 40
v -63 45 10
v -63 80 63
v -63 80 -63
v -62 5 61
v -62 5 40
v -62 5 10
v -62 5 -62
v -62 45 40
v -62 45 10
v -62 80 61
v -62 80 -62
v 63 0 63
v 63 0 -63
v 63 4 61
v 63 4 -62
v 63 5 61
v 63 5 -62
v 63 80 63
v 63 80 61
v 63 80 -62
v 63 80 -63
v -63 0 63
v -63 80 63
v 63 0 63
v 63 80 63
v -63 5 10
v -63 45 10
v -62 5 10
v -62 45 10
v -62 5 -62
v -62 80 -62
v 63 5 -62
v 63 80 -62
v -62 5 61
v -62 80 61
v 63 5 61
v 63 80 61
v -63 5 40
v -63 45 40
v -62 5 40
v -62 45 40
v -63 0 -63
v -63 80 -63
v 63 0 -63
v 63 80 -63
v -63 0 63
v 63 0 63
v -63 0 -63
v 63 0 -63
v -63 45 40
v -62 45 40
v -63 45 10
v -62 45 10
v -62 5 61
v 63 5 61
v -63 5 40
v -62 5 40
v -63 5 10
v -62 5 10
v -62 5 -62
v 63 5 -62
v -63 80 63
v 63 80 63
v -62 80 61
v 63 80 61
v -62 80 -62
v 63 80 -62
v -63 80 -63
v 63 80 -63

# faces
f 3/1/1 2/1/1 1/1/1
f 4/1/1 2/1/1 3/1/1
f 5/1/1 3/1/1 1/1/1
f 5/2/1 4/2/1 3/2/1
f 6/1/1 2/1/1 4/1/1
f 6/2/1 4/2/1 5/2/1
f 7/1/1 5/1/1 1/1/1
f 8/1/1 2/1/1 6/1/1
f 9/1/1 7/1/1 1/1/1
f 9/1/1 8/1/1 7/1/1
f 10/1/1 2/1/1 8/1/1
f 10/1/1 8/1/1 9/1/1
f 11/1/2 12/1/2 15/1/2
f 13/1/2 14/1/2 16/1/2
f 11/1/2 15/1/2 17/1/2
f 15/1/2 16/1/2 17/1/2
f 16/1/2 14/1/2 18/1/2
f 17/1/2 16/1/2 18/1/2
f 19/1/2 20/1/2 21/1/2
f 21/1/2 20/1/2 22/1/2
f 19/1/2 21/1/2 23/1/2
f 21/2/2 22/2/2 23/2/2
f 22/1/2 20/1/2 24/1/2
f 23/2/2 22/2/2 24/2/2
f 19/1/2 23/1/2 25/1/2
f 25/1/2 23/1/2 26/1/2
f 24/1/2 20/1/2 27/1/2
f 27/1/2 20/1/2 28/1/2
f 31/1/3 30/1/3 29/1/3
f 32/1/3 30/1/3 31/1/3
f 35/1/3 34/1/3 33/1/3
f 36/1/3 34/1/3 35/1/3
f 39/1/3 38/1/3 37/1/3
f 40/1/3 38/1/3 39/1/3
f 41/1/4 42/1/4 43/1/4
f 43/1/4 42/1/4 44/1/4
f 45/1/4 46/1/4 47/1/4
f 47/1/4 46/1/4 48/1/4
f 49/1/4 50/1/4 51/1/4
f 51/1/4 50/1/4 52/1/4
f 55/1/5 54/1/5 53/1/5
f 56/1/5 54/1/5 55/1/5
f 59/1/5 58/1/5 57/1/5
f 60/1/5 58/1/5 59/1/5
f 61/2/6 62/2/6 64/2/6
f 63/2/6 64/2/6 65/2/6
f 64/2/6 62/2/6 66/2/6
f 65/2/6 64/2/6 66/2/6
f 66/2/6 62/2/6 67/2/6
f 67/2/6 62/2/6 68/2/6
f 69/1/6 70/1/6 71/1/6
f 71/1/6 70/1/6 72/1/6
f 69/1/6 71/1/6 73/1/6
f 69/1/6 73/1/6 75/1/6
f 73/1/6 74/1/6 75/1/6
f 75/1/6 74/1/6 76/1/6
