# MagicaVoxel @ Ephtracy

# group
g 4x2 third (des)-4

# material
mtllib 4x2 third (des)-4.mtl
usemtl palette

# normals
vn -1 0 0
vn 1 0 0
vn 0 0 1
vn 0 0 -1
vn 0 -1 0
vn 0 1 0

# texcoords
vt 0.494141 0.5
vt 0.970703 0.5

# verts
v -63 0 63
v -63 0 31
v -63 0 1
v -63 0 -63
v -63 1 31
v -63 1 1
v -63 45 31
v -63 45 1
v -63 80 63
v -63 80 -63
v 61 1 63
v 61 1 -36
v 61 1 -61
v 61 80 63
v 61 80 -61
v -62 1 63
v -62 1 31
v -62 1 1
v -62 1 -61
v -62 45 31
v -62 45 1
v -62 80 63
v -62 80 -61
v 63 0 63
v 63 0 -63
v 63 80 63
v 63 80 -63
v -63 0 63
v -63 80 63
v -62 0 63
v -62 1 63
v -62 80 63
v 61 0 63
v 61 1 63
v 61 80 63
v 63 0 63
v 63 80 63
v -63 1 1
v -63 45 1
v -62 1 1
v -62 45 1
v -62 1 -61
v -62 80 -61
v 36 1 -61
v 61 1 -61
v 61 80 -61
v -63 1 31
v -63 45 31
v -62 1 31
v -62 45 31
v -63 0 -63
v -63 80 -63
v 63 0 -63
v 63 80 -63
v -63 0 63
v -62 0 63
v 61 0 63
v 63 0 63
v -63 0 31
v -62 0 31
v -63 0 1
v -62 0 1
v 47 0 -13
v 53 0 -13
v 55 0 -24
v 56 0 -24
v 55 0 -26
v 56 0 -26
v 56 0 -28
v 59 0 -28
v 35 0 -29
v 37 0 -29
v 44 0 -29
v 47 0 -29
v 59 0 -29
v 60 0 -29
v 26 0 -30
v 35 0 -30
v 40 0 -30
v 41 0 -30
v 59 0 -30
v 60 0 -30
v 40 0 -31
v 41 0 -31
v 44 0 -32
v 47 0 -32
v 53 0 -32
v 55 0 -32
v 55 0 -33
v 56 0 -33
v 24 0 -35
v 26 0 -35
v 37 0 -36
v 47 0 -36
v 59 0 -36
v 61 0 -36
v 24 0 -38
v 26 0 -38
v 22 0 -39
v 25 0 -39
v 25 0 -43
v 26 0 -43
v 22 0 -49
v 34 0 -49
v 24 0 -53
v 26 0 -53
v 27 0 -53
v 31 0 -53
v 34 0 -53
v 36 0 -53
v 22 0 -54
v 24 0 -54
v 26 0 -54
v 27 0 -54
v 27 0 -55
v 31 0 -55
v 22 0 -58
v 23 0 -58
v 27 0 -58
v 28 0 -58
v 23 0 -60
v 28 0 -60
v -62 0 -61
v 36 0 -61
v -63 0 -63
v 63 0 -63
v -63 45 31
v -62 45 31
v -63 45 1
v -62 45 1
v -62 1 63
v 61 1 63
v -63 1 31
v -62 1 31
v -63 1 1
v -62 1 1
v 47 1 -13
v 53 1 -13
v 55 1 -24
v 56 1 -24
v 55 1 -26
v 56 1 -26
v 56 1 -28
v 59 1 -28
v 35 1 -29
v 37 1 -29
v 44 1 -29
v 47 1 -29
v 59 1 -29
v 60 1 -29
v 26 1 -30
v 35 1 -30
v 40 1 -30
v 41 1 -30
v 59 1 -30
v 60 1 -30
v 40 1 -31
v 41 1 -31
v 44 1 -32
v 47 1 -32
v 53 1 -32
v 55 1 -32
v 55 1 -33
v 56 1 -33
v 24 1 -35
v 26 1 -35
v 37 1 -36
v 47 1 -36
v 59 1 -36
v 61 1 -36
v 24 1 -38
v 26 1 -38
v 22 1 -39
v 25 1 -39
v 25 1 -43
v 26 1 -43
v 22 1 -49
v 34 1 -49
v 24 1 -53
v 26 1 -53
v 27 1 -53
v 31 1 -53
v 34 1 -53
v 36 1 -53
v 22 1 -54
v 24 1 -54
v 26 1 -54
v 27 1 -54
v 27 1 -55
v 31 1 -55
v 22 1 -58
v 23 1 -58
v 27 1 -58
v 28 1 -58
v 23 1 -60
v 28 1 -60
v -62 1 -61
v 36 1 -61
v 61 1 -61
v -63 80 63
v -62 80 63
v 61 80 63
v 63 80 63
v -62 80 -61
v 61 80 -61
v -63 80 -63
v 63 80 -63

# faces
f 5/2/1 2/2/1 1/2/1
f 5/1/1 3/1/1 2/1/1
f 6/2/1 4/2/1 3/2/1
f 6/1/1 3/1/1 5/1/1
f 7/2/1 5/2/1 1/2/1
f 8/2/1 4/2/1 6/2/1
f 9/2/1 7/2/1 1/2/1
f 9/2/1 8/2/1 7/2/1
f 10/2/1 4/2/1 8/2/1
f 10/2/1 8/2/1 9/2/1
f 14/2/1 12/2/1 11/2/1
f 14/2/1 13/2/1 12/2/1
f 15/2/1 13/2/1 14/2/1
f 16/2/2 17/2/2 20/2/2
f 18/2/2 19/2/2 21/2/2
f 16/2/2 20/2/2 22/2/2
f 20/2/2 21/2/2 22/2/2
f 21/2/2 19/2/2 23/2/2
f 22/2/2 21/2/2 23/2/2
f 24/2/2 25/2/2 26/2/2
f 26/2/2 25/2/2 27/2/2
f 30/2/3 29/2/3 28/2/3
f 31/2/3 29/2/3 30/2/3
f 32/2/3 29/2/3 31/2/3
f 33/1/3 31/1/3 30/1/3
f 34/1/3 31/1/3 33/1/3
f 36/2/3 34/2/3 33/2/3
f 36/2/3 35/2/3 34/2/3
f 37/2/3 35/2/3 36/2/3
f 40/2/3 39/2/3 38/2/3
f 41/2/3 39/2/3 40/2/3
f 44/2/3 43/2/3 42/2/3
f 45/2/3 43/2/3 44/2/3
f 46/2/3 43/2/3 45/2/3
f 47/2/4 48/2/4 49/2/4
f 49/2/4 48/2/4 50/2/4
f 51/2/4 52/2/4 53/2/4
f 53/2/4 52/2/4 54/2/4
f 59/2/5 56/2/5 55/2/5
f 60/1/5 57/1/5 56/1/5
f 60/2/5 56/2/5 59/2/5
f 61/1/5 60/1/5 59/1/5
f 62/1/5 57/1/5 60/1/5
f 62/1/5 60/1/5 61/1/5
f 63/1/5 57/1/5 62/1/5
f 64/1/5 57/1/5 63/1/5
f 65/1/5 57/1/5 64/1/5
f 66/1/5 57/1/5 65/1/5
f 67/1/5 65/1/5 64/1/5
f 67/2/5 66/2/5 65/2/5
f 68/1/5 57/1/5 66/1/5
f 68/2/5 66/2/5 67/2/5
f 69/1/5 68/1/5 67/1/5
f 69/1/5 57/1/5 68/1/5
f 70/1/5 57/1/5 69/1/5
f 71/1/5 63/1/5 62/1/5
f 72/1/5 63/1/5 71/1/5
f 73/1/5 63/1/5 72/1/5
f 74/2/5 64/2/5 63/2/5
f 74/1/5 63/1/5 73/1/5
f 75/1/5 57/1/5 70/1/5
f 75/2/5 70/2/5 69/2/5
f 76/1/5 57/1/5 75/1/5
f 77/1/5 71/1/5 62/1/5
f 78/2/5 72/2/5 71/2/5
f 78/1/5 71/1/5 77/1/5
f 79/1/5 73/1/5 72/1/5
f 80/1/5 73/1/5 79/1/5
f 81/2/5 75/2/5 69/2/5
f 81/2/5 76/2/5 75/2/5
f 82/1/5 57/1/5 76/1/5
f 82/2/5 76/2/5 81/2/5
f 83/2/5 80/2/5 79/2/5
f 83/1/5 79/1/5 72/1/5
f 84/1/5 73/1/5 80/1/5
f 84/2/5 80/2/5 83/2/5
f 85/2/5 74/2/5 73/2/5
f 85/1/5 73/1/5 84/1/5
f 85/1/5 84/1/5 83/1/5
f 86/2/5 64/2/5 74/2/5
f 86/2/5 74/2/5 85/2/5
f 87/1/5 67/1/5 64/1/5
f 87/2/5 64/2/5 86/2/5
f 87/1/5 69/1/5 67/1/5
f 88/1/5 69/1/5 87/1/5
f 89/2/5 87/2/5 86/2/5
f 89/1/5 69/1/5 88/1/5
f 89/2/5 88/2/5 87/2/5
f 90/2/5 81/2/5 69/2/5
f 90/1/5 69/1/5 89/1/5
f 91/1/5 77/1/5 62/1/5
f 92/2/5 78/2/5 77/2/5
f 92/1/5 77/1/5 91/1/5
f 93/1/5 85/1/5 83/1/5
f 93/2/5 78/2/5 92/2/5
f 93/2/5 92/2/5 91/2/5
f 93/2/5 72/2/5 78/2/5
f 93/1/5 86/1/5 85/1/5
f 93/1/5 83/1/5 72/1/5
f 94/2/5 90/2/5 89/2/5
f 94/1/5 86/1/5 93/1/5
f 94/2/5 89/2/5 86/2/5
f 95/2/5 81/2/5 90/2/5
f 95/2/5 90/2/5 94/2/5
f 95/1/5 82/1/5 81/1/5
f 96/2/5 58/2/5 57/2/5
f 96/1/5 82/1/5 95/1/5
f 96/1/5 57/1/5 82/1/5
f 97/2/5 95/2/5 94/2/5
f 97/2/5 93/2/5 91/2/5
f 97/2/5 96/2/5 95/2/5
f 97/2/5 94/2/5 93/2/5
f 97/1/5 91/1/5 62/1/5
f 98/2/5 96/2/5 97/2/5
f 99/1/5 97/1/5 62/1/5
f 99/1/5 98/1/5 97/1/5
f 100/1/5 98/1/5 99/1/5
f 101/2/5 100/2/5 99/2/5
f 101/1/5 98/1/5 100/1/5
f 102/2/5 96/2/5 98/2/5
f 102/1/5 98/1/5 101/1/5
f 103/2/5 101/2/5 99/2/5
f 103/1/5 99/1/5 62/1/5
f 103/2/5 102/2/5 101/2/5
f 104/2/5 96/2/5 102/2/5
f 104/2/5 102/2/5 103/2/5
f 105/1/5 104/1/5 103/1/5
f 106/1/5 104/1/5 105/1/5
f 107/1/5 104/1/5 106/1/5
f 108/1/5 104/1/5 107/1/5
f 109/2/5 96/2/5 104/2/5
f 109/1/5 104/1/5 108/1/5
f 110/2/5 96/2/5 109/2/5
f 111/1/5 103/1/5 62/1/5
f 111/1/5 105/1/5 103/1/5
f 112/2/5 106/2/5 105/2/5
f 112/1/5 105/1/5 111/1/5
f 113/1/5 107/1/5 106/1/5
f 113/2/5 106/2/5 112/2/5
f 114/2/5 108/2/5 107/2/5
f 114/1/5 107/1/5 113/1/5
f 115/2/5 113/2/5 112/2/5
f 115/2/5 108/2/5 114/2/5
f 115/2/5 114/2/5 113/2/5
f 115/2/5 112/2/5 111/2/5
f 116/1/5 109/1/5 108/1/5
f 116/2/5 108/2/5 115/2/5
f 116/1/5 110/1/5 109/1/5
f 117/2/5 115/2/5 111/2/5
f 117/1/5 111/1/5 62/1/5
f 118/2/5 115/2/5 117/2/5
f 119/1/5 116/1/5 115/1/5
f 119/2/5 115/2/5 118/2/5
f 120/1/5 116/1/5 119/1/5
f 121/1/5 118/1/5 117/1/5
f 121/2/5 119/2/5 118/2/5
f 121/2/5 120/2/5 119/2/5
f 122/1/5 116/1/5 120/1/5
f 122/2/5 120/2/5 121/2/5
f 123/2/5 62/2/5 61/2/5
f 123/1/5 121/1/5 117/1/5
f 123/1/5 122/1/5 121/1/5
f 123/1/5 117/1/5 62/1/5
f 124/1/5 116/1/5 122/1/5
f 124/1/5 122/1/5 123/1/5
f 124/2/5 96/2/5 110/2/5
f 124/1/5 110/1/5 116/1/5
f 125/2/5 123/2/5 61/2/5
f 125/2/5 124/2/5 123/2/5
f 126/2/5 58/2/5 96/2/5
f 126/2/5 124/2/5 125/2/5
f 126/2/5 96/2/5 124/2/5
f 129/2/5 128/2/5 127/2/5
f 130/2/5 128/2/5 129/2/5
f 131/1/6 132/1/6 134/1/6
f 133/1/6 134/1/6 135/1/6
f 134/1/6 132/1/6 136/1/6
f 135/1/6 134/1/6 136/1/6
f 136/1/6 132/1/6 137/1/6
f 137/1/6 132/1/6 138/1/6
f 138/1/6 132/1/6 139/1/6
f 139/1/6 132/1/6 140/1/6
f 138/1/6 139/1/6 141/1/6
f 139/2/6 140/2/6 141/2/6
f 140/1/6 132/1/6 142/1/6
f 141/2/6 140/2/6 142/2/6
f 141/1/6 142/1/6 143/1/6
f 142/1/6 132/1/6 143/1/6
f 143/1/6 132/1/6 144/1/6
f 136/1/6 137/1/6 145/1/6
f 145/1/6 137/1/6 146/1/6
f 146/1/6 137/1/6 147/1/6
f 137/2/6 138/2/6 148/2/6
f 147/1/6 137/1/6 148/1/6
f 144/1/6 132/1/6 149/1/6
f 143/2/6 144/2/6 149/2/6
f 149/1/6 132/1/6 150/1/6
f 136/1/6 145/1/6 151/1/6
f 145/2/6 146/2/6 152/2/6
f 151/1/6 145/1/6 152/1/6
f 146/1/6 147/1/6 153/1/6
f 153/1/6 147/1/6 154/1/6
f 143/2/6 149/2/6 155/2/6
f 149/2/6 150/2/6 155/2/6
f 150/1/6 132/1/6 156/1/6
f 155/2/6 150/2/6 156/2/6
f 153/2/6 154/2/6 157/2/6
f 146/1/6 153/1/6 157/1/6
f 154/1/6 147/1/6 158/1/6
f 157/2/6 154/2/6 158/2/6
f 147/2/6 148/2/6 159/2/6
f 158/1/6 147/1/6 159/1/6
f 157/1/6 158/1/6 159/1/6
f 148/2/6 138/2/6 160/2/6
f 159/2/6 148/2/6 160/2/6
f 138/1/6 141/1/6 161/1/6
f 160/2/6 138/2/6 161/2/6
f 141/1/6 143/1/6 161/1/6
f 161/1/6 143/1/6 162/1/6
f 160/2/6 161/2/6 163/2/6
f 162/1/6 143/1/6 163/1/6
f 161/2/6 162/2/6 163/2/6
f 143/2/6 155/2/6 164/2/6
f 163/1/6 143/1/6 164/1/6
f 136/1/6 151/1/6 165/1/6
f 151/2/6 152/2/6 166/2/6
f 165/1/6 151/1/6 166/1/6
f 157/1/6 159/1/6 167/1/6
f 166/2/6 152/2/6 167/2/6
f 165/2/6 166/2/6 167/2/6
f 152/2/6 146/2/6 167/2/6
f 159/1/6 160/1/6 167/1/6
f 146/1/6 157/1/6 167/1/6
f 163/2/6 164/2/6 168/2/6
f 167/1/6 160/1/6 168/1/6
f 160/2/6 163/2/6 168/2/6
f 164/2/6 155/2/6 169/2/6
f 168/2/6 164/2/6 169/2/6
f 155/1/6 156/1/6 169/1/6
f 156/1/6 132/1/6 170/1/6
f 169/1/6 156/1/6 170/1/6
f 165/2/6 167/2/6 171/2/6
f 168/2/6 169/2/6 171/2/6
f 169/2/6 170/2/6 171/2/6
f 136/1/6 165/1/6 171/1/6
f 167/2/6 168/2/6 171/2/6
f 171/2/6 170/2/6 172/2/6
f 136/1/6 171/1/6 173/1/6
f 171/1/6 172/1/6 173/1/6
f 173/1/6 172/1/6 174/1/6
f 173/2/6 174/2/6 175/2/6
f 174/1/6 172/1/6 175/1/6
f 172/2/6 170/2/6 176/2/6
f 175/1/6 172/1/6 176/1/6
f 173/2/6 175/2/6 177/2/6
f 136/1/6 173/1/6 177/1/6
f 175/2/6 176/2/6 177/2/6
f 176/2/6 170/2/6 178/2/6
f 177/2/6 176/2/6 178/2/6
f 177/1/6 178/1/6 179/1/6
f 179/1/6 178/1/6 180/1/6
f 180/1/6 178/1/6 181/1/6
f 181/1/6 178/1/6 182/1/6
f 178/2/6 170/2/6 183/2/6
f 182/1/6 178/1/6 183/1/6
f 183/2/6 170/2/6 184/2/6
f 136/1/6 177/1/6 185/1/6
f 177/1/6 179/1/6 185/1/6
f 179/2/6 180/2/6 186/2/6
f 185/1/6 179/1/6 186/1/6
f 180/1/6 181/1/6 187/1/6
f 186/2/6 180/2/6 187/2/6
f 181/2/6 182/2/6 188/2/6
f 187/1/6 181/1/6 188/1/6
f 186/2/6 187/2/6 189/2/6
f 188/2/6 182/2/6 189/2/6
f 187/2/6 188/2/6 189/2/6
f 185/2/6 186/2/6 189/2/6
f 182/1/6 183/1/6 190/1/6
f 189/2/6 182/2/6 190/2/6
f 183/1/6 184/1/6 190/1/6
f 185/2/6 189/2/6 191/2/6
f 136/1/6 185/1/6 191/1/6
f 191/2/6 189/2/6 192/2/6
f 189/1/6 190/1/6 193/1/6
f 192/2/6 189/2/6 193/2/6
f 193/1/6 190/1/6 194/1/6
f 191/1/6 192/1/6 195/1/6
f 192/2/6 193/2/6 195/2/6
f 193/2/6 194/2/6 195/2/6
f 194/1/6 190/1/6 196/1/6
f 195/2/6 194/2/6 196/2/6
f 191/1/6 195/1/6 197/1/6
f 136/1/6 191/1/6 197/1/6
f 195/1/6 196/1/6 197/1/6
f 184/2/6 170/2/6 198/2/6
f 197/1/6 196/1/6 198/1/6
f 190/1/6 184/1/6 198/1/6
f 196/1/6 190/1/6 198/1/6
f 198/2/6 170/2/6 199/2/6
f 200/2/6 201/2/6 204/2/6
f 202/2/6 203/2/6 205/2/6
f 200/2/6 204/2/6 206/2/6
f 204/2/6 205/2/6 206/2/6
f 205/2/6 203/2/6 207/2/6
f 206/2/6 205/2/6 207/2/6
