# MagicaVoxel @ Ephtracy

# group
g 4x2 first (1)-7

# material
mtllib 4x2 first (1)-7.mtl
usemtl palette

# normals
vn -1 0 0
vn 1 0 0
vn 0 0 1
vn 0 0 -1
vn 0 -1 0
vn 0 1 0

# texcoords
vt 0.396484 0.5
vt 0.494141 0.5
vt 0.970703 0.5

# verts
v -63 0 63
v -63 0 -63
v -63 4 61
v -63 4 -63
v -63 5 61
v -63 5 -63
v -63 80 63
v -63 80 -63
v -61 5 61
v -61 5 6
v -61 32 61
v -61 32 6
v -61 32 -5
v -61 39 6
v -61 39 -5
v -61 39 -15
v -61 46 -5
v -61 46 -15
v -61 46 -26
v -61 53 -15
v -61 53 -26
v -61 53 -37
v -61 60 -26
v -61 60 -37
v -61 60 -62
v -61 67 -37
v -61 67 -62
v 23 5 24
v 23 5 3
v 23 8 13
v 23 8 3
v 23 15 24
v 23 15 13
v 61 5 3
v 61 5 -63
v 61 8 13
v 61 8 3
v 61 15 24
v 61 15 13
v 61 22 61
v 61 22 24
v 61 80 61
v 61 80 -63
v -62 5 61
v -62 5 -63
v -62 32 61
v -62 32 6
v -62 39 61
v -62 39 27
v -62 39 6
v -62 39 -5
v -62 46 27
v -62 46 16
v -62 46 -5
v -62 46 -15
v -62 53 16
v -62 53 6
v -62 53 -15
v -62 53 -26
v -62 60 6
v -62 60 -5
v -62 60 -26
v -62 60 -37
v -62 67 -5
v -62 67 -15
v -62 67 -37
v -62 67 -62
v -62 74 -15
v -62 74 -26
v -62 80 61
v -62 80 -26
v -62 80 -62
v -62 80 -63
v -23 5 24
v -23 5 6
v -23 32 6
v -23 32 -5
v -23 39 27
v -23 39 24
v -23 39 -5
v -23 39 -15
v -23 46 27
v -23 46 16
v -23 46 -15
v -23 46 -26
v -23 53 16
v -23 53 6
v -23 53 -26
v -23 53 -37
v -23 60 6
v -23 60 -5
v -23 60 -37
v -23 60 -62
v -23 67 -5
v -23 67 -15
v -23 74 -15
v -23 74 -26
v -23 80 -26
v -23 80 -62
v 9 32 61
v 9 32 24
v 9 39 61
v 9 39 24
v 20 25 61
v 20 25 24
v 20 32 61
v 20 32 24
v 30 22 61
v 30 22 24
v 30 25 61
v 30 25 24
v 63 0 63
v 63 0 -63
v 63 80 63
v 63 80 -63
v -63 0 63
v -63 80 63
v 63 0 63
v 63 80 63
v -62 39 27
v -62 46 27
v -23 39 27
v -23 46 27
v -62 46 16
v -62 53 16
v -23 46 16
v -23 53 16
v -62 53 6
v -62 60 6
v -23 53 6
v -23 60 6
v -62 60 -5
v -62 67 -5
v -23 60 -5
v -23 67 -5
v -62 67 -15
v -62 74 -15
v -23 67 -15
v -23 74 -15
v -62 74 -26
v -62 80 -26
v -23 74 -26
v -23 80 -26
v -62 5 61
v -62 32 61
v -62 39 61
v -62 80 61
v -61 5 61
v -61 32 61
v 9 32 61
v 9 39 61
v 20 25 61
v 20 32 61
v 30 22 61
v 30 25 61
v 61 22 61
v 61 80 61
v -23 5 24
v -23 39 24
v 9 32 24
v 9 39 24
v 20 25 24
v 20 32 24
v 23 5 24
v 23 15 24
v 30 22 24
v 30 25 24
v 61 15 24
v 61 22 24
v 23 8 13
v 23 15 13
v 61 8 13
v 61 15 13
v -62 32 6
v -62 39 6
v -61 5 6
v -61 32 6
v -61 39 6
v -23 5 6
v -23 32 6
v 23 5 3
v 23 8 3
v 61 5 3
v 61 8 3
v -62 39 -5
v -62 46 -5
v -61 32 -5
v -61 39 -5
v -61 46 -5
v -23 32 -5
v -23 39 -5
v -62 46 -15
v -62 53 -15
v -61 39 -15
v -61 46 -15
v -61 53 -15
v -23 39 -15
v -23 46 -15
v -62 53 -26
v -62 60 -26
v -61 46 -26
v -61 53 -26
v -61 60 -26
v -23 46 -26
v -23 53 -26
v -62 60 -37
v -62 67 -37
v -61 53 -37
v -61 60 -37
v -61 67 -37
v -23 53 -37
v -23 60 -37
v -62 67 -62
v -62 80 -62
v -61 60 -62
v -61 67 -62
v -23 60 -62
v -23 80 -62
v -63 0 -63
v -63 4 -63
v -63 5 -63
v -63 80 -63
v -62 5 -63
v -62 80 -63
v 61 4 -63
v 61 5 -63
v 61 80 -63
v 63 0 -63
v 63 80 -63
v -63 0 63
v 63 0 63
v -23 0 61
v 61 0 61
v -23 0 24
v 23 0 24
v 23 0 3
v 61 0 3
v -63 0 -63
v 63 0 -63
v -62 32 61
v -61 32 61
v -62 32 6
v -61 32 6
v -23 32 6
v -61 32 -5
v -23 32 -5
v -62 39 6
v -61 39 6
v -62 39 -5
v -61 39 -5
v -23 39 -5
v -61 39 -15
v -23 39 -15
v -62 46 -5
v -61 46 -5
v -62 46 -15
v -61 46 -15
v -23 46 -15
v -61 46 -26
v -23 46 -26
v -62 53 -15
v -61 53 -15
v -62 53 -26
v -61 53 -26
v -23 53 -26
v -61 53 -37
v -23 53 -37
v -62 60 -26
v -61 60 -26
v -62 60 -37
v -61 60 -37
v -23 60 -37
v -61 60 -62
v -23 60 -62
v -62 67 -37
v -61 67 -37
v -62 67 -62
v -61 67 -62
v -62 5 61
v -61 5 61
v -23 5 24
v 23 5 24
v -61 5 6
v -23 5 6
v 23 5 3
v 61 5 3
v -62 5 -63
v 61 5 -63
v 23 8 13
v 61 8 13
v 23 8 3
v 61 8 3
v 23 15 24
v 61 15 24
v 23 15 13
v 61 15 13
v 30 22 61
v 61 22 61
v 30 22 24
v 61 22 24
v 20 25 61
v 30 25 61
v 20 25 24
v 30 25 24
v 9 32 61
v 20 32 61
v 9 32 24
v 20 32 24
v -62 39 61
v 9 39 61
v -62 39 27
v -23 39 27
v -23 39 24
v 9 39 24
v -62 46 27
v -23 46 27
v -62 46 16
v -23 46 16
v -62 53 16
v -23 53 16
v -62 53 6
v -23 53 6
v -62 60 6
v -23 60 6
v -62 60 -5
v -23 60 -5
v -62 67 -5
v -23 67 -5
v -62 67 -15
v -23 67 -15
v -62 74 -15
v -23 74 -15
v -62 74 -26
v -23 74 -26
v -63 80 63
v 63 80 63
v -62 80 61
v 61 80 61
v -62 80 -26
v -23 80 -26
v -62 80 -62
v -23 80 -62
v -63 80 -63
v -62 80 -63
v 61 80 -63
v 63 80 -63

# faces
f 3/3/1 2/3/1 1/3/1
f 4/3/1 2/3/1 3/3/1
f 5/3/1 3/3/1 1/3/1
f 5/2/1 4/2/1 3/2/1
f 6/2/1 4/2/1 5/2/1
f 7/3/1 5/3/1 1/3/1
f 7/3/1 6/3/1 5/3/1
f 8/3/1 6/3/1 7/3/1
f 11/1/1 10/1/1 9/1/1
f 12/1/1 10/1/1 11/1/1
f 14/1/1 13/1/1 12/1/1
f 15/1/1 13/1/1 14/1/1
f 17/1/1 16/1/1 15/1/1
f 18/1/1 16/1/1 17/1/1
f 20/1/1 19/1/1 18/1/1
f 21/1/1 19/1/1 20/1/1
f 23/1/1 22/1/1 21/1/1
f 24/1/1 22/1/1 23/1/1
f 26/1/1 25/1/1 24/1/1
f 27/1/1 25/1/1 26/1/1
f 30/1/1 29/1/1 28/1/1
f 31/1/1 29/1/1 30/1/1
f 32/1/1 30/1/1 28/1/1
f 33/1/1 30/1/1 32/1/1
f 37/3/1 35/3/1 34/3/1
f 39/3/1 37/3/1 36/3/1
f 41/3/1 39/3/1 38/3/1
f 42/3/1 41/3/1 40/3/1
f 43/3/1 35/3/1 37/3/1
f 43/3/1 41/3/1 42/3/1
f 43/3/1 37/3/1 39/3/1
f 43/3/1 39/3/1 41/3/1
f 44/3/2 45/3/2 46/3/2
f 46/3/2 45/3/2 47/3/2
f 47/3/2 45/3/2 50/3/2
f 50/3/2 45/3/2 51/3/2
f 48/3/2 49/3/2 52/3/2
f 51/3/2 45/3/2 54/3/2
f 54/3/2 45/3/2 55/3/2
f 52/3/2 53/3/2 56/3/2
f 55/3/2 45/3/2 58/3/2
f 58/3/2 45/3/2 59/3/2
f 56/3/2 57/3/2 60/3/2
f 59/3/2 45/3/2 62/3/2
f 62/3/2 45/3/2 63/3/2
f 60/3/2 61/3/2 64/3/2
f 63/3/2 45/3/2 66/3/2
f 66/3/2 45/3/2 67/3/2
f 64/3/2 65/3/2 68/3/2
f 48/3/2 52/3/2 70/3/2
f 68/3/2 69/3/2 70/3/2
f 64/3/2 68/3/2 70/3/2
f 52/3/2 56/3/2 70/3/2
f 60/3/2 64/3/2 70/3/2
f 56/3/2 60/3/2 70/3/2
f 70/3/2 69/3/2 71/3/2
f 67/3/2 45/3/2 72/3/2
f 72/3/2 45/3/2 73/3/2
f 74/1/2 75/1/2 76/1/2
f 74/1/2 76/1/2 79/1/2
f 76/1/2 77/1/2 79/1/2
f 79/1/2 77/1/2 80/1/2
f 78/1/2 79/1/2 82/1/2
f 80/1/2 81/1/2 82/1/2
f 79/1/2 80/1/2 82/1/2
f 82/1/2 81/1/2 83/1/2
f 83/1/2 81/1/2 84/1/2
f 84/1/2 85/1/2 86/1/2
f 83/1/2 84/1/2 86/1/2
f 86/1/2 85/1/2 87/1/2
f 87/1/2 85/1/2 88/1/2
f 88/1/2 89/1/2 90/1/2
f 87/1/2 88/1/2 90/1/2
f 90/1/2 89/1/2 91/1/2
f 91/1/2 89/1/2 92/1/2
f 92/1/2 93/1/2 94/1/2
f 91/1/2 92/1/2 94/1/2
f 94/1/2 93/1/2 95/1/2
f 95/1/2 93/1/2 96/1/2
f 96/1/2 93/1/2 97/1/2
f 97/1/2 93/1/2 98/1/2
f 98/1/2 93/1/2 99/1/2
f 100/1/2 101/1/2 102/1/2
f 102/1/2 101/1/2 103/1/2
f 104/1/2 105/1/2 106/1/2
f 106/1/2 105/1/2 107/1/2
f 108/1/2 109/1/2 110/1/2
f 110/1/2 109/1/2 111/1/2
f 112/3/2 113/3/2 114/3/2
f 114/3/2 113/3/2 115/3/2
f 118/3/3 117/3/3 116/3/3
f 119/3/3 117/3/3 118/3/3
f 122/1/3 121/1/3 120/1/3
f 123/1/3 121/1/3 122/1/3
f 126/1/3 125/1/3 124/1/3
f 127/1/3 125/1/3 126/1/3
f 130/1/3 129/1/3 128/1/3
f 131/1/3 129/1/3 130/1/3
f 134/1/3 133/1/3 132/1/3
f 135/1/3 133/1/3 134/1/3
f 138/1/3 137/1/3 136/1/3
f 139/1/3 137/1/3 138/1/3
f 142/1/3 141/1/3 140/1/3
f 143/1/3 141/1/3 142/1/3
f 144/3/4 145/3/4 148/3/4
f 148/3/4 145/3/4 149/3/4
f 146/3/4 147/3/4 151/3/4
f 150/3/4 151/3/4 153/3/4
f 152/3/4 153/3/4 155/3/4
f 154/3/4 155/3/4 156/3/4
f 151/3/4 147/3/4 157/3/4
f 156/3/4 155/3/4 157/3/4
f 153/3/4 151/3/4 157/3/4
f 155/3/4 153/3/4 157/3/4
f 158/1/4 159/1/4 160/1/4
f 160/1/4 159/1/4 161/1/4
f 158/1/4 160/1/4 162/1/4
f 162/1/4 160/1/4 163/1/4
f 158/1/4 162/1/4 164/1/4
f 164/1/4 162/1/4 165/1/4
f 165/1/4 162/1/4 166/1/4
f 166/1/4 162/1/4 167/1/4
f 165/1/4 166/1/4 168/1/4
f 168/1/4 166/1/4 169/1/4
f 170/1/4 171/1/4 172/1/4
f 172/1/4 171/1/4 173/1/4
f 174/1/4 175/1/4 177/1/4
f 177/1/4 175/1/4 178/1/4
f 176/1/4 177/1/4 179/1/4
f 179/1/4 177/1/4 180/1/4
f 181/1/4 182/1/4 183/1/4
f 183/1/4 182/1/4 184/1/4
f 185/1/4 186/1/4 188/1/4
f 188/1/4 186/1/4 189/1/4
f 187/1/4 188/1/4 190/1/4
f 190/1/4 188/1/4 191/1/4
f 192/1/4 193/1/4 195/1/4
f 195/1/4 193/1/4 196/1/4
f 194/1/4 195/1/4 197/1/4
f 197/1/4 195/1/4 198/1/4
f 199/1/4 200/1/4 202/1/4
f 202/1/4 200/1/4 203/1/4
f 201/1/4 202/1/4 204/1/4
f 204/1/4 202/1/4 205/1/4
f 206/1/4 207/1/4 209/1/4
f 209/1/4 207/1/4 210/1/4
f 208/1/4 209/1/4 211/1/4
f 211/1/4 209/1/4 212/1/4
f 213/1/4 214/1/4 216/1/4
f 215/1/4 216/1/4 217/1/4
f 216/1/4 214/1/4 218/1/4
f 217/1/4 216/1/4 218/1/4
f 220/2/4 221/2/4 223/2/4
f 221/3/4 222/3/4 223/3/4
f 223/3/4 222/3/4 224/3/4
f 219/3/4 220/3/4 225/3/4
f 220/2/4 223/2/4 225/2/4
f 225/2/4 223/2/4 226/2/4
f 219/3/4 225/3/4 228/3/4
f 226/3/4 227/3/4 228/3/4
f 225/3/4 226/3/4 228/3/4
f 228/3/4 227/3/4 229/3/4
f 232/3/5 231/3/5 230/3/5
f 233/3/5 231/3/5 232/3/5
f 234/3/5 232/3/5 230/3/5
f 234/1/5 233/1/5 232/1/5
f 235/1/5 233/1/5 234/1/5
f 236/3/5 235/3/5 234/3/5
f 236/1/5 233/1/5 235/1/5
f 237/3/5 231/3/5 233/3/5
f 237/1/5 233/1/5 236/1/5
f 238/3/5 236/3/5 234/3/5
f 238/3/5 234/3/5 230/3/5
f 238/3/5 237/3/5 236/3/5
f 239/3/5 231/3/5 237/3/5
f 239/3/5 237/3/5 238/3/5
f 242/1/5 241/1/5 240/1/5
f 243/1/5 241/1/5 242/1/5
f 245/1/5 244/1/5 243/1/5
f 246/1/5 244/1/5 245/1/5
f 249/1/5 248/1/5 247/1/5
f 250/1/5 248/1/5 249/1/5
f 252/1/5 251/1/5 250/1/5
f 253/1/5 251/1/5 252/1/5
f 256/1/5 255/1/5 254/1/5
f 257/1/5 255/1/5 256/1/5
f 259/1/5 258/1/5 257/1/5
f 260/1/5 258/1/5 259/1/5
f 263/1/5 262/1/5 261/1/5
f 264/1/5 262/1/5 263/1/5
f 266/1/5 265/1/5 264/1/5
f 267/1/5 265/1/5 266/1/5
f 270/1/5 269/1/5 268/1/5
f 271/1/5 269/1/5 270/1/5
f 273/1/5 272/1/5 271/1/5
f 274/1/5 272/1/5 273/1/5
f 277/1/5 276/1/5 275/1/5
f 278/1/5 276/1/5 277/1/5
f 279/2/6 280/2/6 283/2/6
f 281/2/6 282/2/6 284/2/6
f 284/2/6 282/2/6 285/2/6
f 283/2/6 284/2/6 285/2/6
f 279/2/6 283/2/6 287/2/6
f 285/2/6 286/2/6 287/2/6
f 283/2/6 285/2/6 287/2/6
f 287/2/6 286/2/6 288/2/6
f 289/1/6 290/1/6 291/1/6
f 291/1/6 290/1/6 292/1/6
f 293/1/6 294/1/6 295/1/6
f 295/1/6 294/1/6 296/1/6
f 297/1/6 298/1/6 299/1/6
f 299/1/6 298/1/6 300/1/6
f 301/1/6 302/1/6 303/1/6
f 303/1/6 302/1/6 304/1/6
f 305/1/6 306/1/6 307/1/6
f 307/1/6 306/1/6 308/1/6
f 309/1/6 310/1/6 311/1/6
f 311/1/6 310/1/6 312/1/6
f 312/1/6 310/1/6 313/1/6
f 313/1/6 310/1/6 314/1/6
f 315/1/6 316/1/6 317/1/6
f 317/1/6 316/1/6 318/1/6
f 319/1/6 320/1/6 321/1/6
f 321/1/6 320/1/6 322/1/6
f 323/1/6 324/1/6 325/1/6
f 325/1/6 324/1/6 326/1/6
f 327/1/6 328/1/6 329/1/6
f 329/1/6 328/1/6 330/1/6
f 331/1/6 332/1/6 333/1/6
f 333/1/6 332/1/6 334/1/6
f 335/3/6 336/3/6 337/3/6
f 337/3/6 336/3/6 338/3/6
f 335/3/6 337/3/6 339/3/6
f 335/3/6 339/3/6 341/3/6
f 339/1/6 340/1/6 341/1/6
f 341/1/6 340/1/6 342/1/6
f 335/3/6 341/3/6 343/3/6
f 343/3/6 341/3/6 344/3/6
f 338/3/6 336/3/6 345/3/6
f 345/3/6 336/3/6 346/3/6
