# MagicaVoxel @ Ephtracy

# group
g 4x2 first-0

# material
mtllib 4x2 first-0.mtl
usemtl palette

# normals
vn -1 0 0
vn 1 0 0
vn 0 0 1
vn 0 0 -1
vn 0 -1 0
vn 0 1 0

# texcoords
vt 0.970703 0.5
vt 0.974609 0.5
vt 0.978516 0.5

# verts
v -63 0 63
v -63 0 -63
v -63 2 63
v -63 2 53
v -63 2 47
v -63 2 34
v -63 4 3
v -63 4 -27
v -63 5 3
v -63 5 -27
v -63 7 63
v -63 7 57
v -63 7 54
v -63 7 53
v -63 11 47
v -63 11 34
v -63 12 57
v -63 12 54
v -63 45 3
v -63 45 -27
v -63 80 63
v -63 80 -63
v -30 22 62
v -30 22 61
v -30 25 61
v -30 25 58
v -30 28 62
v -30 28 58
v 21 28 63
v 21 28 62
v 21 56 63
v 21 56 62
v 62 5 62
v 62 5 -27
v 62 5 -57
v 62 5 -61
v 62 45 -27
v 62 45 -57
v 62 80 62
v 62 80 -61
v -61 5 62
v -61 5 3
v -61 5 -27
v -61 5 -61
v -61 45 3
v -61 45 -27
v -61 80 62
v -61 80 -61
v -30 28 63
v -30 28 62
v -30 56 63
v -30 56 62
v 21 22 62
v 21 22 61
v 21 25 61
v 21 25 58
v 21 28 62
v 21 28 58
v 63 0 63
v 63 0 -63
v 63 4 -27
v 63 4 -57
v 63 5 -27
v 63 5 -57
v 63 45 -27
v 63 45 -57
v 63 80 63
v 63 80 -63
v -63 0 63
v -63 2 63
v -63 7 63
v -63 80 63
v -62 2 63
v -62 7 63
v -30 28 63
v -30 56 63
v 21 28 63
v 21 56 63
v 63 0 63
v 63 80 63
v -63 5 -27
v -63 45 -27
v -61 5 -27
v -61 45 -27
v 62 5 -57
v 62 45 -57
v 63 5 -57
v 63 45 -57
v -61 5 -61
v -61 80 -61
v 62 5 -61
v 62 80 -61
v -61 5 62
v -61 80 62
v -30 22 62
v -30 28 62
v -30 56 62
v 21 22 62
v 21 28 62
v 21 56 62
v 62 5 62
v 62 80 62
v -30 22 61
v -30 25 61
v 21 22 61
v 21 25 61
v -30 25 58
v -30 28 58
v 21 25 58
v 21 28 58
v -63 5 3
v -63 45 3
v -61 5 3
v -61 45 3
v 62 5 -27
v 62 45 -27
v 63 5 -27
v 63 45 -27
v -63 0 -63
v -63 80 -63
v 63 0 -63
v 63 80 -63
v -63 0 63
v 63 0 63
v -63 0 -63
v 63 0 -63
v -30 22 62
v 21 22 62
v -30 22 61
v 21 22 61
v -30 25 61
v 21 25 61
v -30 25 58
v 21 25 58
v -63 45 3
v -61 45 3
v -63 45 -27
v -61 45 -27
v 62 45 -27
v 63 45 -27
v 62 45 -57
v 63 45 -57
v -30 56 63
v 21 56 63
v -30 56 62
v 21 56 62
v -61 5 62
v 62 5 62
v -63 5 3
v -61 5 3
v -63 5 -27
v -61 5 -27
v 62 5 -27
v 63 5 -27
v 62 5 -57
v 63 5 -57
v -61 5 -61
v 62 5 -61
v -30 28 63
v 21 28 63
v -30 28 62
v 21 28 62
v -30 28 58
v 21 28 58
v -63 80 63
v 63 80 63
v -61 80 62
v 62 80 62
v -61 80 -61
v 62 80 -61
v -63 80 -63
v 63 80 -63

# faces
f 3/1/1 2/1/1 1/1/1
f 4/1/1 2/1/1 3/1/1
f 5/1/1 2/1/1 4/1/1
f 6/1/1 2/1/1 5/1/1
f 7/1/1 2/1/1 6/1/1
f 8/1/1 2/1/1 7/1/1
f 9/1/1 7/1/1 6/1/1
f 9/2/1 8/2/1 7/2/1
f 10/1/1 2/1/1 8/1/1
f 10/2/1 8/2/1 9/2/1
f 11/3/1 4/3/1 3/3/1
f 12/3/1 4/3/1 11/3/1
f 13/3/1 4/3/1 12/3/1
f 14/1/1 5/1/1 4/1/1
f 14/3/1 4/3/1 13/3/1
f 15/3/1 6/3/1 5/3/1
f 15/1/1 5/1/1 14/1/1
f 15/1/1 14/1/1 13/1/1
f 16/1/1 9/1/1 6/1/1
f 16/3/1 6/3/1 15/3/1
f 17/3/1 13/3/1 12/3/1
f 17/1/1 12/1/1 11/1/1
f 18/1/1 16/1/1 15/1/1
f 18/3/1 13/3/1 17/3/1
f 18/1/1 15/1/1 13/1/1
f 19/1/1 9/1/1 16/1/1
f 19/1/1 16/1/1 18/1/1
f 19/1/1 18/1/1 17/1/1
f 20/1/1 2/1/1 10/1/1
f 21/1/1 19/1/1 17/1/1
f 21/1/1 20/1/1 19/1/1
f 21/1/1 17/1/1 11/1/1
f 22/1/1 2/1/1 20/1/1
f 22/1/1 20/1/1 21/1/1
f 25/1/1 24/1/1 23/1/1
f 27/1/1 25/1/1 23/1/1
f 27/1/1 26/1/1 25/1/1
f 28/1/1 26/1/1 27/1/1
f 31/1/1 30/1/1 29/1/1
f 32/1/1 30/1/1 31/1/1
f 37/1/1 34/1/1 33/1/1
f 38/1/1 36/1/1 35/1/1
f 39/1/1 37/1/1 33/1/1
f 39/1/1 38/1/1 37/1/1
f 40/1/1 36/1/1 38/1/1
f 40/1/1 38/1/1 39/1/1
f 41/1/2 42/1/2 45/1/2
f 43/1/2 44/1/2 46/1/2
f 41/1/2 45/1/2 47/1/2
f 45/1/2 46/1/2 47/1/2
f 46/1/2 44/1/2 48/1/2
f 47/1/2 46/1/2 48/1/2
f 49/1/2 50/1/2 51/1/2
f 51/1/2 50/1/2 52/1/2
f 53/1/2 54/1/2 55/1/2
f 53/1/2 55/1/2 57/1/2
f 55/1/2 56/1/2 57/1/2
f 57/1/2 56/1/2 58/1/2
f 59/1/2 60/1/2 61/1/2
f 61/1/2 60/1/2 62/1/2
f 59/1/2 61/1/2 63/1/2
f 61/2/2 62/2/2 63/2/2
f 62/1/2 60/1/2 64/1/2
f 63/2/2 62/2/2 64/2/2
f 59/1/2 63/1/2 65/1/2
f 64/1/2 60/1/2 66/1/2
f 59/1/2 65/1/2 67/1/2
f 65/1/2 66/1/2 67/1/2
f 66/1/2 60/1/2 68/1/2
f 67/1/2 66/1/2 68/1/2
f 73/1/3 70/1/3 69/1/3
f 73/3/3 71/3/3 70/3/3
f 74/1/3 72/1/3 71/1/3
f 74/3/3 71/3/3 73/3/3
f 75/1/3 74/1/3 73/1/3
f 75/1/3 72/1/3 74/1/3
f 76/1/3 72/1/3 75/1/3
f 77/1/3 75/1/3 73/1/3
f 78/1/3 72/1/3 76/1/3
f 79/1/3 73/1/3 69/1/3
f 79/1/3 78/1/3 77/1/3
f 79/1/3 77/1/3 73/1/3
f 80/1/3 72/1/3 78/1/3
f 80/1/3 78/1/3 79/1/3
f 83/1/3 82/1/3 81/1/3
f 84/1/3 82/1/3 83/1/3
f 87/1/3 86/1/3 85/1/3
f 88/1/3 86/1/3 87/1/3
f 91/1/3 90/1/3 89/1/3
f 92/1/3 90/1/3 91/1/3
f 93/1/4 94/1/4 95/1/4
f 95/1/4 94/1/4 96/1/4
f 96/1/4 94/1/4 97/1/4
f 93/1/4 95/1/4 98/1/4
f 97/1/4 94/1/4 100/1/4
f 98/1/4 99/1/4 101/1/4
f 99/1/4 100/1/4 101/1/4
f 93/1/4 98/1/4 101/1/4
f 100/1/4 94/1/4 102/1/4
f 101/1/4 100/1/4 102/1/4
f 103/1/4 104/1/4 105/1/4
f 105/1/4 104/1/4 106/1/4
f 107/1/4 108/1/4 109/1/4
f 109/1/4 108/1/4 110/1/4
f 111/1/4 112/1/4 113/1/4
f 113/1/4 112/1/4 114/1/4
f 115/1/4 116/1/4 117/1/4
f 117/1/4 116/1/4 118/1/4
f 119/1/4 120/1/4 121/1/4
f 121/1/4 120/1/4 122/1/4
f 125/1/5 124/1/5 123/1/5
f 126/1/5 124/1/5 125/1/5
f 129/1/5 128/1/5 127/1/5
f 130/1/5 128/1/5 129/1/5
f 133/1/5 132/1/5 131/1/5
f 134/1/5 132/1/5 133/1/5
f 137/1/5 136/1/5 135/1/5
f 138/1/5 136/1/5 137/1/5
f 141/1/5 140/1/5 139/1/5
f 142/1/5 140/1/5 141/1/5
f 145/1/5 144/1/5 143/1/5
f 146/1/5 144/1/5 145/1/5
f 147/2/6 148/2/6 150/2/6
f 149/2/6 150/2/6 151/2/6
f 150/2/6 148/2/6 152/2/6
f 151/2/6 150/2/6 152/2/6
f 152/2/6 148/2/6 153/2/6
f 153/2/6 154/2/6 155/2/6
f 152/2/6 153/2/6 155/2/6
f 155/2/6 154/2/6 156/2/6
f 152/2/6 155/2/6 157/2/6
f 157/2/6 155/2/6 158/2/6
f 159/1/6 160/1/6 161/1/6
f 161/1/6 160/1/6 162/1/6
f 161/1/6 162/1/6 163/1/6
f 163/1/6 162/1/6 164/1/6
f 165/1/6 166/1/6 167/1/6
f 167/1/6 166/1/6 168/1/6
f 165/1/6 167/1/6 169/1/6
f 168/1/6 166/1/6 170/1/6
f 165/1/6 169/1/6 171/1/6
f 169/1/6 170/1/6 171/1/6
f 170/1/6 166/1/6 172/1/6
f 171/1/6 170/1/6 172/1/6
