# MagicaVoxel @ Ephtracy

# group
g 4x2 roof (1)-3

# material
mtllib 4x2 roof (1)-3.mtl
usemtl palette

# normals
vn -1 0 0
vn 1 0 0
vn 0 0 1
vn 0 0 -1
vn 0 -1 0
vn 0 1 0

# texcoords
vt 0.974609 0.5
vt 0.978516 0.5

# verts
v -63 0 63
v -63 0 -63
v -63 57 63
v -63 57 37
v -63 58 63
v -63 58 37
v -63 58 -58
v -63 64 -58
v -63 64 -63
v 63 0 63
v 63 0 -63
v 63 58 63
v 63 58 -58
v 63 64 -58
v 63 64 -63
v -63 0 63
v -63 57 63
v -63 58 63
v -4 57 63
v -4 58 63
v 4 57 63
v 4 58 63
v 12 57 63
v 12 58 63
v 63 0 63
v 63 58 63
v -63 58 -58
v -63 64 -58
v 63 58 -58
v 63 64 -58
v -63 0 -63
v -63 64 -63
v 63 0 -63
v 63 64 -63
v -63 0 63
v 63 0 63
v -63 0 -63
v 63 0 -63
v -63 58 63
v -4 58 63
v 4 58 63
v 12 58 63
v 63 58 63
v -4 58 61
v 3 58 61
v 4 58 60
v 12 58 60
v 13 58 60
v 16 58 60
v 13 58 59
v 16 58 59
v 6 58 56
v 19 58 56
v 6 58 44
v 19 58 44
v -63 58 37
v -50 58 37
v -18 58 37
v -13 58 37
v -62 58 36
v -50 58 36
v -13 58 29
v 3 58 29
v -37 58 27
v -35 58 27
v -11 58 27
v 1 58 27
v -62 58 24
v -37 58 24
v -11 58 21
v 1 58 21
v -35 58 20
v -18 58 20
v -63 58 -58
v 63 58 -58
v -63 64 -58
v 63 64 -58
v -63 64 -63
v 63 64 -63

# faces
f 3/1/1 2/1/1 1/1/1
f 4/1/1 2/1/1 3/1/1
f 5/2/1 4/2/1 3/2/1
f 6/1/1 2/1/1 4/1/1
f 6/2/1 4/2/1 5/2/1
f 7/1/1 2/1/1 6/1/1
f 8/1/1 2/1/1 7/1/1
f 9/1/1 2/1/1 8/1/1
f 10/1/2 11/1/2 12/1/2
f 12/1/2 11/1/2 13/1/2
f 13/1/2 11/1/2 14/1/2
f 14/1/2 11/1/2 15/1/2
f 19/1/3 17/1/3 16/1/3
f 19/2/3 18/2/3 17/2/3
f 20/2/3 18/2/3 19/2/3
f 21/1/3 19/1/3 16/1/3
f 21/1/3 20/1/3 19/1/3
f 22/1/3 20/1/3 21/1/3
f 23/1/3 21/1/3 16/1/3
f 23/2/3 22/2/3 21/2/3
f 24/2/3 22/2/3 23/2/3
f 25/1/3 23/1/3 16/1/3
f 25/1/3 24/1/3 23/1/3
f 26/1/3 24/1/3 25/1/3
f 29/1/3 28/1/3 27/1/3
f 30/1/3 28/1/3 29/1/3
f 31/1/4 32/1/4 33/1/4
f 33/1/4 32/1/4 34/1/4
f 37/1/5 36/1/5 35/1/5
f 38/1/5 36/1/5 37/1/5
f 39/2/6 40/2/6 44/2/6
f 40/1/6 41/1/6 44/1/6
f 44/1/6 41/1/6 45/1/6
f 41/2/6 42/2/6 46/2/6
f 45/1/6 41/1/6 46/1/6
f 42/1/6 43/1/6 47/1/6
f 46/2/6 42/2/6 47/2/6
f 47/1/6 43/1/6 48/1/6
f 48/1/6 43/1/6 49/1/6
f 46/1/6 47/1/6 50/1/6
f 47/1/6 48/1/6 50/1/6
f 48/2/6 49/2/6 50/2/6
f 49/1/6 43/1/6 51/1/6
f 50/2/6 49/2/6 51/2/6
f 46/1/6 50/1/6 52/1/6
f 50/1/6 51/1/6 52/1/6
f 51/1/6 43/1/6 53/1/6
f 52/1/6 51/1/6 53/1/6
f 46/1/6 52/1/6 54/1/6
f 52/2/6 53/2/6 54/2/6
f 53/1/6 43/1/6 55/1/6
f 54/2/6 53/2/6 55/2/6
f 44/2/6 45/2/6 56/2/6
f 39/2/6 44/2/6 56/2/6
f 56/2/6 45/2/6 57/2/6
f 57/2/6 45/2/6 58/2/6
f 58/2/6 45/2/6 59/2/6
f 56/1/6 57/1/6 60/1/6
f 57/2/6 58/2/6 61/2/6
f 60/1/6 57/1/6 61/1/6
f 59/2/6 45/2/6 62/2/6
f 58/1/6 59/1/6 62/1/6
f 45/1/6 46/1/6 63/1/6
f 62/2/6 45/2/6 63/2/6
f 54/1/6 55/1/6 63/1/6
f 46/1/6 54/1/6 63/1/6
f 60/2/6 61/2/6 64/2/6
f 61/2/6 58/2/6 64/2/6
f 64/2/6 58/2/6 65/2/6
f 62/1/6 63/1/6 66/1/6
f 66/1/6 63/1/6 67/1/6
f 56/1/6 60/1/6 68/1/6
f 60/2/6 64/2/6 68/2/6
f 64/1/6 65/1/6 69/1/6
f 68/2/6 64/2/6 69/2/6
f 66/2/6 67/2/6 70/2/6
f 62/1/6 66/1/6 70/1/6
f 67/1/6 63/1/6 71/1/6
f 70/2/6 67/2/6 71/2/6
f 65/2/6 58/2/6 72/2/6
f 69/1/6 65/1/6 72/1/6
f 68/1/6 69/1/6 72/1/6
f 58/1/6 62/1/6 73/1/6
f 72/2/6 58/2/6 73/2/6
f 62/1/6 70/1/6 73/1/6
f 70/1/6 71/1/6 73/1/6
f 68/1/6 72/1/6 74/1/6
f 56/1/6 68/1/6 74/1/6
f 72/1/6 73/1/6 74/1/6
f 73/1/6 71/1/6 75/1/6
f 74/1/6 73/1/6 75/1/6
f 55/1/6 43/1/6 75/1/6
f 63/1/6 55/1/6 75/1/6
f 71/1/6 63/1/6 75/1/6
f 76/1/6 77/1/6 78/1/6
f 78/1/6 77/1/6 79/1/6
