# MagicaVoxel @ Ephtracy

# group
g 4x2 third (1)-3

# material
mtllib 4x2 third (1)-3.mtl
usemtl palette

# normals
vn -1 0 0
vn 1 0 0
vn 0 0 1
vn 0 0 -1
vn 0 -1 0
vn 0 1 0

# texcoords
vt 0.970703 0.5
vt 0.982422 0.5
vt 0.986328 0.5

# verts
v -63 0 63
v -63 0 -4
v -63 0 -34
v -63 0 -63
v -63 1 -4
v -63 1 -34
v -63 41 -4
v -63 41 -34
v -63 80 63
v -63 80 -63
v 62 1 61
v 62 1 -63
v 62 80 61
v 62 80 -63
v -62 1 61
v -62 1 -4
v -62 1 -34
v -62 1 -63
v -62 41 -4
v -62 41 -34
v -62 80 61
v -62 80 -63
v 63 0 63
v 63 0 -63
v 63 80 63
v 63 80 -63
v -63 0 63
v -63 80 63
v 63 0 63
v 63 80 63
v -63 1 -34
v -63 41 -34
v -62 1 -34
v -62 41 -34
v -62 1 61
v -62 80 61
v 62 1 61
v 62 80 61
v -63 1 -4
v -63 41 -4
v -62 1 -4
v -62 41 -4
v -63 0 -63
v -63 80 -63
v -62 0 -63
v -62 1 -63
v -62 80 -63
v -34 0 -63
v -34 1 -63
v -32 0 -63
v -32 1 -63
v -24 0 -63
v -24 1 -63
v 31 0 -63
v 31 1 -63
v 33 0 -63
v 33 1 -63
v 34 0 -63
v 34 1 -63
v 62 0 -63
v 62 1 -63
v 62 80 -63
v 63 0 -63
v 63 80 -63
v -63 0 63
v 63 0 63
v -62 0 61
v 62 0 61
v -63 0 -4
v -62 0 -4
v -31 0 -33
v -29 0 -33
v -63 0 -34
v -62 0 -34
v 5 0 -34
v 16 0 -34
v -14 0 -35
v 2 0 -35
v -29 0 -36
v -24 0 -36
v 21 0 -37
v 26 0 -37
v -24 0 -38
v -18 0 -38
v 21 0 -40
v 26 0 -40
v 29 0 -40
v 31 0 -40
v -24 0 -41
v -22 0 -41
v -19 0 -41
v -18 0 -41
v 5 0 -41
v 15 0 -41
v 16 0 -41
v 19 0 -41
v 2 0 -42
v 4 0 -42
v 15 0 -43
v 19 0 -43
v -32 0 -44
v -31 0 -44
v -24 0 -44
v -22 0 -44
v 2 0 -44
v 4 0 -44
v -32 0 -45
v -31 0 -45
v -19 0 -45
v -14 0 -45
v 2 0 -45
v 29 0 -45
v -29 0 -47
v -28 0 -47
v -38 0 -48
v -36 0 -48
v 32 0 -50
v 35 0 -50
v -31 0 -52
v -29 0 -52
v -38 0 -53
v -36 0 -53
v 32 0 -57
v 35 0 -57
v -34 0 -59
v -32 0 -59
v -28 0 -60
v -24 0 -60
v 33 0 -60
v 34 0 -60
v -63 0 -63
v -62 0 -63
v -34 0 -63
v -32 0 -63
v -24 0 -63
v 31 0 -63
v 33 0 -63
v 34 0 -63
v 62 0 -63
v 63 0 -63
v -63 41 -4
v -62 41 -4
v -63 41 -34
v -62 41 -34
v -62 1 61
v 62 1 61
v -63 1 -4
v -62 1 -4
v -31 1 -33
v -29 1 -33
v -63 1 -34
v -62 1 -34
v 5 1 -34
v 16 1 -34
v -14 1 -35
v 2 1 -35
v -29 1 -36
v -24 1 -36
v 21 1 -37
v 26 1 -37
v -24 1 -38
v -18 1 -38
v 21 1 -40
v 26 1 -40
v 29 1 -40
v 31 1 -40
v -24 1 -41
v -22 1 -41
v -19 1 -41
v -18 1 -41
v 5 1 -41
v 15 1 -41
v 16 1 -41
v 19 1 -41
v 2 1 -42
v 4 1 -42
v 15 1 -43
v 19 1 -43
v -32 1 -44
v -31 1 -44
v -24 1 -44
v -22 1 -44
v 2 1 -44
v 4 1 -44
v -32 1 -45
v -31 1 -45
v -19 1 -45
v -14 1 -45
v 2 1 -45
v 29 1 -45
v -29 1 -47
v -28 1 -47
v -38 1 -48
v -36 1 -48
v 32 1 -50
v 35 1 -50
v -31 1 -52
v -29 1 -52
v -38 1 -53
v -36 1 -53
v 32 1 -57
v 35 1 -57
v -34 1 -59
v -32 1 -59
v -28 1 -60
v -24 1 -60
v 33 1 -60
v 34 1 -60
v -62 1 -63
v -34 1 -63
v -32 1 -63
v -24 1 -63
v 31 1 -63
v 33 1 -63
v 34 1 -63
v 62 1 -63
v -63 80 63
v 63 80 63
v -62 80 61
v 62 80 61
v -63 80 -63
v -62 80 -63
v 62 80 -63
v 63 80 -63

# faces
f 5/1/1 2/1/1 1/1/1
f 5/2/1 3/2/1 2/2/1
f 6/1/1 4/1/1 3/1/1
f 6/2/1 3/2/1 5/2/1
f 7/1/1 5/1/1 1/1/1
f 8/1/1 4/1/1 6/1/1
f 9/1/1 7/1/1 1/1/1
f 9/1/1 8/1/1 7/1/1
f 10/1/1 4/1/1 8/1/1
f 10/1/1 8/1/1 9/1/1
f 13/1/1 12/1/1 11/1/1
f 14/1/1 12/1/1 13/1/1
f 15/1/2 16/1/2 19/1/2
f 17/1/2 18/1/2 20/1/2
f 15/1/2 19/1/2 21/1/2
f 19/1/2 20/1/2 21/1/2
f 20/1/2 18/1/2 22/1/2
f 21/1/2 20/1/2 22/1/2
f 23/1/2 24/1/2 25/1/2
f 25/1/2 24/1/2 26/1/2
f 29/1/3 28/1/3 27/1/3
f 30/1/3 28/1/3 29/1/3
f 33/1/3 32/1/3 31/1/3
f 34/1/3 32/1/3 33/1/3
f 35/1/4 36/1/4 37/1/4
f 37/1/4 36/1/4 38/1/4
f 39/1/4 40/1/4 41/1/4
f 41/1/4 40/1/4 42/1/4
f 43/1/4 44/1/4 45/1/4
f 45/1/4 44/1/4 46/1/4
f 46/1/4 44/1/4 47/1/4
f 45/2/4 46/2/4 48/2/4
f 48/2/4 46/2/4 49/2/4
f 48/3/4 49/3/4 50/3/4
f 50/3/4 49/3/4 51/3/4
f 50/2/4 51/2/4 52/2/4
f 52/2/4 51/2/4 53/2/4
f 52/3/4 53/3/4 54/3/4
f 54/3/4 53/3/4 55/3/4
f 54/2/4 55/2/4 56/2/4
f 56/2/4 55/2/4 57/2/4
f 56/3/4 57/3/4 58/3/4
f 58/3/4 57/3/4 59/3/4
f 58/2/4 59/2/4 60/2/4
f 60/2/4 59/2/4 61/2/4
f 60/1/4 61/1/4 63/1/4
f 61/1/4 62/1/4 63/1/4
f 63/1/4 62/1/4 64/1/4
f 67/1/5 66/1/5 65/1/5
f 68/1/5 66/1/5 67/1/5
f 69/1/5 67/1/5 65/1/5
f 70/2/5 68/2/5 67/2/5
f 70/1/5 67/1/5 69/1/5
f 71/2/5 70/2/5 69/2/5
f 71/2/5 68/2/5 70/2/5
f 72/2/5 68/2/5 71/2/5
f 73/2/5 71/2/5 69/2/5
f 74/2/5 71/2/5 73/2/5
f 75/2/5 68/2/5 72/2/5
f 76/2/5 68/2/5 75/2/5
f 77/2/5 75/2/5 72/2/5
f 78/2/5 75/2/5 77/2/5
f 79/3/5 72/3/5 71/3/5
f 79/2/5 77/2/5 72/2/5
f 80/2/5 77/2/5 79/2/5
f 81/2/5 68/2/5 76/2/5
f 82/2/5 68/2/5 81/2/5
f 83/2/5 77/2/5 80/2/5
f 83/3/5 80/3/5 79/3/5
f 84/2/5 77/2/5 83/2/5
f 85/3/5 82/3/5 81/3/5
f 85/2/5 81/2/5 76/2/5
f 86/2/5 68/2/5 82/2/5
f 86/3/5 82/3/5 85/3/5
f 87/2/5 68/2/5 86/2/5
f 88/2/5 68/2/5 87/2/5
f 89/3/5 84/3/5 83/3/5
f 89/3/5 83/3/5 79/3/5
f 90/3/5 84/3/5 89/3/5
f 91/3/5 84/3/5 90/3/5
f 92/2/5 77/2/5 84/2/5
f 92/3/5 84/3/5 91/3/5
f 93/2/5 75/2/5 78/2/5
f 93/3/5 76/3/5 75/3/5
f 94/3/5 76/3/5 93/3/5
f 95/2/5 85/2/5 76/2/5
f 95/3/5 76/3/5 94/3/5
f 95/2/5 86/2/5 85/2/5
f 95/2/5 87/2/5 86/2/5
f 96/2/5 87/2/5 95/2/5
f 97/2/5 94/2/5 93/2/5
f 97/3/5 78/3/5 77/3/5
f 97/2/5 93/2/5 78/2/5
f 98/2/5 94/2/5 97/2/5
f 99/3/5 96/3/5 95/3/5
f 99/2/5 94/2/5 98/2/5
f 99/3/5 95/3/5 94/3/5
f 100/2/5 87/2/5 96/2/5
f 100/3/5 96/3/5 99/3/5
f 101/2/5 71/2/5 74/2/5
f 102/3/5 79/3/5 71/3/5
f 102/2/5 71/2/5 101/2/5
f 102/3/5 89/3/5 79/3/5
f 103/2/5 90/2/5 89/2/5
f 103/3/5 89/3/5 102/3/5
f 104/3/5 91/3/5 90/3/5
f 104/2/5 90/2/5 103/2/5
f 105/3/5 98/3/5 97/3/5
f 105/3/5 97/3/5 77/3/5
f 106/2/5 99/2/5 98/2/5
f 106/3/5 98/3/5 105/3/5
f 106/2/5 100/2/5 99/2/5
f 107/2/5 101/2/5 74/2/5
f 107/3/5 103/3/5 102/3/5
f 107/3/5 104/3/5 103/3/5
f 107/3/5 102/3/5 101/3/5
f 108/3/5 104/3/5 107/3/5
f 109/2/5 92/2/5 91/2/5
f 109/3/5 104/3/5 108/3/5
f 109/3/5 91/3/5 104/3/5
f 110/2/5 77/2/5 92/2/5
f 110/2/5 92/2/5 109/2/5
f 110/3/5 105/3/5 77/3/5
f 111/2/5 106/2/5 105/2/5
f 111/3/5 105/3/5 110/3/5
f 112/2/5 87/2/5 100/2/5
f 112/2/5 106/2/5 111/2/5
f 112/3/5 88/3/5 87/3/5
f 112/2/5 100/2/5 106/2/5
f 113/3/5 111/3/5 110/3/5
f 113/3/5 109/3/5 108/3/5
f 113/3/5 112/3/5 111/3/5
f 113/3/5 110/3/5 109/3/5
f 114/3/5 112/3/5 113/3/5
f 115/2/5 107/2/5 74/2/5
f 115/2/5 108/2/5 107/2/5
f 116/2/5 108/2/5 115/2/5
f 117/2/5 68/2/5 88/2/5
f 118/2/5 68/2/5 117/2/5
f 119/2/5 108/2/5 116/2/5
f 119/3/5 113/3/5 108/3/5
f 120/2/5 114/2/5 113/2/5
f 120/3/5 113/3/5 119/3/5
f 121/2/5 115/2/5 74/2/5
f 121/3/5 116/3/5 115/3/5
f 122/2/5 119/2/5 116/2/5
f 122/3/5 116/3/5 121/3/5
f 122/2/5 120/2/5 119/2/5
f 123/3/5 118/3/5 117/3/5
f 123/2/5 117/2/5 88/2/5
f 124/2/5 68/2/5 118/2/5
f 124/3/5 118/3/5 123/3/5
f 125/2/5 120/2/5 122/2/5
f 125/2/5 122/2/5 121/2/5
f 126/2/5 120/2/5 125/2/5
f 127/3/5 112/3/5 114/3/5
f 127/2/5 120/2/5 126/2/5
f 127/2/5 114/2/5 120/2/5
f 128/3/5 112/3/5 127/3/5
f 129/2/5 124/2/5 123/2/5
f 130/2/5 124/2/5 129/2/5
f 131/1/5 74/1/5 73/1/5
f 132/2/5 121/2/5 74/2/5
f 132/1/5 74/1/5 131/1/5
f 132/2/5 125/2/5 121/2/5
f 133/3/5 126/3/5 125/3/5
f 133/2/5 125/2/5 132/2/5
f 134/2/5 127/2/5 126/2/5
f 134/3/5 126/3/5 133/3/5
f 134/2/5 128/2/5 127/2/5
f 135/3/5 112/3/5 128/3/5
f 135/2/5 128/2/5 134/2/5
f 136/3/5 88/3/5 112/3/5
f 136/3/5 112/3/5 135/3/5
f 136/2/5 123/2/5 88/2/5
f 136/2/5 129/2/5 123/2/5
f 137/3/5 130/3/5 129/3/5
f 137/2/5 129/2/5 136/2/5
f 138/2/5 124/2/5 130/2/5
f 138/3/5 130/3/5 137/3/5
f 139/1/5 66/1/5 68/1/5
f 139/2/5 124/2/5 138/2/5
f 139/2/5 68/2/5 124/2/5
f 140/1/5 66/1/5 139/1/5
f 143/1/5 142/1/5 141/1/5
f 144/1/5 142/1/5 143/1/5
f 145/2/6 146/2/6 148/2/6
f 148/2/6 146/2/6 149/2/6
f 147/2/6 148/2/6 149/2/6
f 149/2/6 146/2/6 150/2/6
f 147/2/6 149/2/6 151/2/6
f 151/2/6 149/2/6 152/2/6
f 150/2/6 146/2/6 153/2/6
f 153/2/6 146/2/6 154/2/6
f 150/2/6 153/2/6 155/2/6
f 155/2/6 153/2/6 156/2/6
f 149/3/6 150/3/6 157/3/6
f 150/2/6 155/2/6 157/2/6
f 157/2/6 155/2/6 158/2/6
f 154/2/6 146/2/6 159/2/6
f 159/2/6 146/2/6 160/2/6
f 158/2/6 155/2/6 161/2/6
f 157/3/6 158/3/6 161/3/6
f 161/2/6 155/2/6 162/2/6
f 159/3/6 160/3/6 163/3/6
f 154/2/6 159/2/6 163/2/6
f 160/2/6 146/2/6 164/2/6
f 163/3/6 160/3/6 164/3/6
f 164/2/6 146/2/6 165/2/6
f 165/2/6 146/2/6 166/2/6
f 161/3/6 162/3/6 167/3/6
f 157/3/6 161/3/6 167/3/6
f 167/3/6 162/3/6 168/3/6
f 168/3/6 162/3/6 169/3/6
f 162/2/6 155/2/6 170/2/6
f 169/3/6 162/3/6 170/3/6
f 156/2/6 153/2/6 171/2/6
f 153/3/6 154/3/6 171/3/6
f 171/3/6 154/3/6 172/3/6
f 154/2/6 163/2/6 173/2/6
f 172/3/6 154/3/6 173/3/6
f 163/2/6 164/2/6 173/2/6
f 164/2/6 165/2/6 173/2/6
f 173/2/6 165/2/6 174/2/6
f 171/2/6 172/2/6 175/2/6
f 155/3/6 156/3/6 175/3/6
f 156/2/6 171/2/6 175/2/6
f 175/2/6 172/2/6 176/2/6
f 173/3/6 174/3/6 177/3/6
f 176/2/6 172/2/6 177/2/6
f 172/3/6 173/3/6 177/3/6
f 174/2/6 165/2/6 178/2/6
f 177/3/6 174/3/6 178/3/6
f 152/2/6 149/2/6 179/2/6
f 149/3/6 157/3/6 180/3/6
f 179/2/6 149/2/6 180/2/6
f 157/3/6 167/3/6 180/3/6
f 167/2/6 168/2/6 181/2/6
f 180/3/6 167/3/6 181/3/6
f 168/3/6 169/3/6 182/3/6
f 181/2/6 168/2/6 182/2/6
f 175/3/6 176/3/6 183/3/6
f 155/3/6 175/3/6 183/3/6
f 176/2/6 177/2/6 184/2/6
f 183/3/6 176/3/6 184/3/6
f 177/2/6 178/2/6 184/2/6
f 152/2/6 179/2/6 185/2/6
f 180/3/6 181/3/6 185/3/6
f 181/3/6 182/3/6 185/3/6
f 179/3/6 180/3/6 185/3/6
f 185/3/6 182/3/6 186/3/6
f 169/2/6 170/2/6 187/2/6
f 186/3/6 182/3/6 187/3/6
f 182/3/6 169/3/6 187/3/6
f 170/2/6 155/2/6 188/2/6
f 187/2/6 170/2/6 188/2/6
f 155/3/6 183/3/6 188/3/6
f 183/2/6 184/2/6 189/2/6
f 188/3/6 183/3/6 189/3/6
f 178/2/6 165/2/6 190/2/6
f 189/2/6 184/2/6 190/2/6
f 165/3/6 166/3/6 190/3/6
f 184/2/6 178/2/6 190/2/6
f 188/3/6 189/3/6 191/3/6
f 186/3/6 187/3/6 191/3/6
f 189/3/6 190/3/6 191/3/6
f 187/3/6 188/3/6 191/3/6
f 191/3/6 190/3/6 192/3/6
f 152/2/6 185/2/6 193/2/6
f 185/2/6 186/2/6 193/2/6
f 193/2/6 186/2/6 194/2/6
f 166/2/6 146/2/6 195/2/6
f 195/2/6 146/2/6 196/2/6
f 194/2/6 186/2/6 197/2/6
f 186/3/6 191/3/6 197/3/6
f 191/2/6 192/2/6 198/2/6
f 197/3/6 191/3/6 198/3/6
f 152/2/6 193/2/6 199/2/6
f 193/3/6 194/3/6 199/3/6
f 194/2/6 197/2/6 200/2/6
f 199/3/6 194/3/6 200/3/6
f 197/2/6 198/2/6 200/2/6
f 195/3/6 196/3/6 201/3/6
f 166/2/6 195/2/6 201/2/6
f 196/2/6 146/2/6 202/2/6
f 201/3/6 196/3/6 202/3/6
f 200/2/6 198/2/6 203/2/6
f 199/2/6 200/2/6 203/2/6
f 203/2/6 198/2/6 204/2/6
f 192/3/6 190/3/6 205/3/6
f 204/2/6 198/2/6 205/2/6
f 198/2/6 192/2/6 205/2/6
f 205/3/6 190/3/6 206/3/6
f 201/2/6 202/2/6 207/2/6
f 207/2/6 202/2/6 208/2/6
f 152/2/6 199/2/6 209/2/6
f 199/2/6 203/2/6 209/2/6
f 203/3/6 204/3/6 210/3/6
f 209/2/6 203/2/6 210/2/6
f 204/2/6 205/2/6 211/2/6
f 210/3/6 204/3/6 211/3/6
f 205/2/6 206/2/6 211/2/6
f 206/3/6 190/3/6 212/3/6
f 211/2/6 206/2/6 212/2/6
f 190/3/6 166/3/6 213/3/6
f 212/3/6 190/3/6 213/3/6
f 166/2/6 201/2/6 213/2/6
f 201/2/6 207/2/6 213/2/6
f 207/3/6 208/3/6 214/3/6
f 213/2/6 207/2/6 214/2/6
f 208/2/6 202/2/6 215/2/6
f 214/3/6 208/3/6 215/3/6
f 202/2/6 146/2/6 216/2/6
f 215/2/6 202/2/6 216/2/6
f 217/1/6 218/1/6 219/1/6
f 219/1/6 218/1/6 220/1/6
f 217/1/6 219/1/6 221/1/6
f 221/1/6 219/1/6 222/1/6
f 220/1/6 218/1/6 223/1/6
f 223/1/6 218/1/6 224/1/6
