# MagicaVoxel @ Ephtracy

# group
g 4x2 first (1)-5

# material
mtllib 4x2 first (1)-5.mtl
usemtl palette

# normals
vn -1 0 0
vn 1 0 0
vn 0 0 1
vn 0 0 -1
vn 0 -1 0
vn 0 1 0

# texcoords
vt 0.970703 0.5
vt 0.982422 0.5

# verts
v -63 0 63
v -63 0 -63
v -63 4 61
v -63 4 -63
v -63 5 61
v -63 5 -63
v -63 80 63
v -63 80 61
v 62 5 61
v 62 5 -63
v 62 80 61
v 62 80 -63
v 63 0 63
v 63 0 -63
v 63 80 63
v 63 80 -63
v -63 0 63
v -63 80 63
v 63 0 63
v 63 80 63
v -63 5 61
v -63 80 61
v 62 5 61
v 62 80 61
v -63 0 -63
v -63 4 -63
v -63 5 -63
v 62 4 -63
v 62 5 -63
v 62 80 -63
v 63 0 -63
v 63 80 -63
v -63 0 63
v 63 0 63
v -63 0 -63
v 63 0 -63
v -63 5 61
v 62 5 61
v -63 5 -63
v 62 5 -63
v -63 80 63
v 63 80 63
v -63 80 61
v 62 80 61
v 62 80 -63
v 63 80 -63

# faces
f 3/1/1 2/1/1 1/1/1
f 4/1/1 2/1/1 3/1/1
f 5/1/1 3/1/1 1/1/1
f 5/2/1 4/2/1 3/2/1
f 6/2/1 4/2/1 5/2/1
f 7/1/1 5/1/1 1/1/1
f 8/1/1 5/1/1 7/1/1
f 11/1/1 10/1/1 9/1/1
f 12/1/1 10/1/1 11/1/1
f 13/1/2 14/1/2 15/1/2
f 15/1/2 14/1/2 16/1/2
f 19/1/3 18/1/3 17/1/3
f 20/1/3 18/1/3 19/1/3
f 21/1/4 22/1/4 23/1/4
f 23/1/4 22/1/4 24/1/4
f 25/1/4 26/1/4 28/1/4
f 26/2/4 27/2/4 28/2/4
f 28/2/4 27/2/4 29/2/4
f 25/1/4 28/1/4 31/1/4
f 29/1/4 30/1/4 31/1/4
f 28/1/4 29/1/4 31/1/4
f 31/1/4 30/1/4 32/1/4
f 35/1/5 34/1/5 33/1/5
f 36/1/5 34/1/5 35/1/5
f 37/2/6 38/2/6 39/2/6
f 39/2/6 38/2/6 40/2/6
f 41/1/6 42/1/6 43/1/6
f 43/1/6 42/1/6 44/1/6
f 44/1/6 42/1/6 45/1/6
f 45/1/6 42/1/6 46/1/6
