# MagicaVoxel @ Ephtracy

# group
g 4x2 third (1)-5

# material
mtllib 4x2 third (1)-5.mtl
usemtl palette

# normals
vn -1 0 0
vn 1 0 0
vn 0 0 1
vn 0 0 -1
vn 0 -1 0
vn 0 1 0

# texcoords
vt 0.494141 0.5
vt 0.970703 0.5

# verts
v -63 0 63
v -63 0 -63
v -63 80 63
v -63 80 -63
v -23 0 24
v -23 0 -63
v -23 1 24
v -23 1 -63
v 61 1 61
v 61 1 -63
v 61 80 61
v 61 80 -63
v -62 0 24
v -62 0 -63
v -62 1 61
v -62 1 24
v -62 80 61
v -62 80 -63
v 63 0 63
v 63 0 -63
v 63 80 63
v 63 80 -63
v -63 0 63
v -63 80 63
v 63 0 63
v 63 80 63
v -62 1 61
v -62 80 61
v 61 1 61
v 61 80 61
v -62 0 24
v -62 1 24
v -23 0 24
v -23 1 24
v -63 0 -63
v -63 80 -63
v -62 0 -63
v -62 80 -63
v -23 0 -63
v -23 1 -63
v 61 0 -63
v 61 1 -63
v 61 80 -63
v 63 0 -63
v 63 80 -63
v -63 0 63
v 63 0 63
v -62 0 61
v 61 0 61
v -59 0 59
v -45 0 59
v -45 0 55
v -41 0 55
v -41 0 50
v -34 0 50
v -59 0 47
v -57 0 47
v -40 0 46
v -34 0 46
v -36 0 45
v -34 0 45
v -40 0 43
v -39 0 43
v -36 0 42
v -34 0 42
v -57 0 41
v -52 0 41
v -41 0 41
v -39 0 41
v -40 0 40
v -37 0 40
v -52 0 39
v -41 0 39
v -40 0 36
v -37 0 36
v 8 0 36
v 9 0 36
v 11 0 36
v 20 0 36
v -58 0 35
v -57 0 35
v -12 0 35
v -3 0 35
v 0 0 35
v 4 0 35
v -58 0 34
v -57 0 34
v -47 0 34
v -44 0 34
v 8 0 34
v 9 0 34
v -47 0 33
v -44 0 33
v 0 0 33
v 4 0 33
v -3 0 32
v 11 0 32
v 14 0 31
v 20 0 31
v -12 0 29
v -10 0 29
v -12 0 28
v -10 0 28
v -62 0 24
v -23 0 24
v -12 0 23
v -10 0 23
v 15 0 23
v 17 0 23
v -10 0 16
v -8 0 16
v 14 0 16
v 15 0 16
v 16 0 15
v 17 0 15
v -17 0 11
v -15 0 11
v 14 0 9
v 16 0 9
v 15 0 7
v 20 0 7
v -17 0 3
v -15 0 3
v -13 0 -0
v -8 0 -0
v -4 0 -1
v 6 0 -1
v 14 0 -1
v 15 0 -1
v 20 0 -1
v 6 0 -2
v 15 0 -2
v -13 0 -4
v -4 0 -4
v 1 0 -4
v 5 0 -4
v 1 0 -6
v 5 0 -6
v -63 0 -63
v -62 0 -63
v -23 0 -63
v 61 0 -63
v 63 0 -63
v -62 1 61
v 61 1 61
v -59 1 59
v -45 1 59
v -45 1 55
v -41 1 55
v -41 1 50
v -34 1 50
v -59 1 47
v -57 1 47
v -40 1 46
v -34 1 46
v -36 1 45
v -34 1 45
v -40 1 43
v -39 1 43
v -36 1 42
v -34 1 42
v -57 1 41
v -52 1 41
v -41 1 41
v -39 1 41
v -40 1 40
v -37 1 40
v -52 1 39
v -41 1 39
v -40 1 36
v -37 1 36
v 8 1 36
v 9 1 36
v 11 1 36
v 20 1 36
v -58 1 35
v -57 1 35
v -12 1 35
v -3 1 35
v 0 1 35
v 4 1 35
v -58 1 34
v -57 1 34
v -47 1 34
v -44 1 34
v 8 1 34
v 9 1 34
v -47 1 33
v -44 1 33
v 0 1 33
v 4 1 33
v -3 1 32
v 11 1 32
v 14 1 31
v 20 1 31
v -12 1 29
v -10 1 29
v -12 1 28
v -10 1 28
v -62 1 24
v -23 1 24
v -12 1 23
v -10 1 23
v 15 1 23
v 17 1 23
v -10 1 16
v -8 1 16
v 14 1 16
v 15 1 16
v 16 1 15
v 17 1 15
v -17 1 11
v -15 1 11
v 14 1 9
v 16 1 9
v 15 1 7
v 20 1 7
v -17 1 3
v -15 1 3
v -13 1 -0
v -8 1 -0
v -4 1 -1
v 6 1 -1
v 14 1 -1
v 15 1 -1
v 20 1 -1
v 6 1 -2
v 15 1 -2
v -13 1 -4
v -4 1 -4
v 1 1 -4
v 5 1 -4
v 1 1 -6
v 5 1 -6
v -23 1 -63
v 61 1 -63
v -63 80 63
v 63 80 63
v -62 80 61
v 61 80 61
v -63 80 -63
v -62 80 -63
v 61 80 -63
v 63 80 -63

# faces
f 3/2/1 2/2/1 1/2/1
f 4/2/1 2/2/1 3/2/1
f 7/1/1 6/1/1 5/1/1
f 8/1/1 6/1/1 7/1/1
f 11/2/1 10/2/1 9/2/1
f 12/2/1 10/2/1 11/2/1
f 13/2/2 14/2/2 16/2/2
f 15/2/2 16/2/2 17/2/2
f 16/2/2 14/2/2 18/2/2
f 17/2/2 16/2/2 18/2/2
f 19/2/2 20/2/2 21/2/2
f 21/2/2 20/2/2 22/2/2
f 25/2/3 24/2/3 23/2/3
f 26/2/3 24/2/3 25/2/3
f 27/2/4 28/2/4 29/2/4
f 29/2/4 28/2/4 30/2/4
f 31/1/4 32/1/4 33/1/4
f 33/1/4 32/1/4 34/1/4
f 35/2/4 36/2/4 37/2/4
f 37/2/4 36/2/4 38/2/4
f 39/1/4 40/1/4 41/1/4
f 41/1/4 40/1/4 42/1/4
f 41/2/4 42/2/4 44/2/4
f 42/2/4 43/2/4 44/2/4
f 44/2/4 43/2/4 45/2/4
f 48/2/5 47/2/5 46/2/5
f 49/2/5 47/2/5 48/2/5
f 50/1/5 49/1/5 48/1/5
f 51/1/5 49/1/5 50/1/5
f 52/2/5 51/2/5 50/2/5
f 52/1/5 49/1/5 51/1/5
f 53/1/5 49/1/5 52/1/5
f 54/2/5 53/2/5 52/2/5
f 54/1/5 49/1/5 53/1/5
f 55/1/5 49/1/5 54/1/5
f 56/1/5 50/1/5 48/1/5
f 56/2/5 52/2/5 50/2/5
f 56/2/5 55/2/5 54/2/5
f 56/2/5 54/2/5 52/2/5
f 57/2/5 55/2/5 56/2/5
f 58/2/5 55/2/5 57/2/5
f 59/1/5 49/1/5 55/1/5
f 59/2/5 55/2/5 58/2/5
f 60/1/5 59/1/5 58/1/5
f 61/1/5 49/1/5 59/1/5
f 61/1/5 59/1/5 60/1/5
f 62/2/5 58/2/5 57/2/5
f 62/1/5 60/1/5 58/1/5
f 63/1/5 60/1/5 62/1/5
f 64/2/5 61/2/5 60/2/5
f 64/1/5 60/1/5 63/1/5
f 65/1/5 49/1/5 61/1/5
f 65/2/5 61/2/5 64/2/5
f 66/1/5 57/1/5 56/1/5
f 66/2/5 63/2/5 62/2/5
f 66/2/5 62/2/5 57/2/5
f 67/2/5 63/2/5 66/2/5
f 68/2/5 63/2/5 67/2/5
f 69/1/5 64/1/5 63/1/5
f 69/2/5 63/2/5 68/2/5
f 69/1/5 65/1/5 64/1/5
f 70/1/5 69/1/5 68/1/5
f 71/1/5 65/1/5 69/1/5
f 71/1/5 69/1/5 70/1/5
f 72/2/5 68/2/5 67/2/5
f 72/1/5 67/1/5 66/1/5
f 73/1/5 70/1/5 68/1/5
f 73/2/5 68/2/5 72/2/5
f 74/2/5 71/2/5 70/2/5
f 74/1/5 70/1/5 73/1/5
f 74/1/5 73/1/5 72/1/5
f 75/1/5 65/1/5 71/1/5
f 75/2/5 71/2/5 74/2/5
f 76/1/5 49/1/5 65/1/5
f 76/1/5 65/1/5 75/1/5
f 77/1/5 49/1/5 76/1/5
f 78/1/5 49/1/5 77/1/5
f 79/1/5 49/1/5 78/1/5
f 80/1/5 74/1/5 72/1/5
f 80/1/5 75/1/5 74/1/5
f 80/1/5 72/1/5 66/1/5
f 80/1/5 66/1/5 56/1/5
f 80/1/5 76/1/5 75/1/5
f 81/1/5 76/1/5 80/1/5
f 82/1/5 76/1/5 81/1/5
f 83/1/5 76/1/5 82/1/5
f 84/1/5 76/1/5 83/1/5
f 85/1/5 76/1/5 84/1/5
f 86/1/5 80/1/5 56/1/5
f 86/2/5 81/2/5 80/2/5
f 87/1/5 82/1/5 81/1/5
f 87/2/5 81/2/5 86/2/5
f 88/1/5 82/1/5 87/1/5
f 89/1/5 82/1/5 88/1/5
f 90/2/5 77/2/5 76/2/5
f 90/1/5 76/1/5 85/1/5
f 91/1/5 78/1/5 77/1/5
f 91/2/5 77/2/5 90/2/5
f 92/2/5 89/2/5 88/2/5
f 92/1/5 87/1/5 86/1/5
f 92/1/5 88/1/5 87/1/5
f 93/1/5 82/1/5 89/1/5
f 93/2/5 89/2/5 92/2/5
f 94/2/5 85/2/5 84/2/5
f 94/1/5 84/1/5 83/1/5
f 95/1/5 90/1/5 85/1/5
f 95/2/5 85/2/5 94/2/5
f 95/1/5 91/1/5 90/1/5
f 96/1/5 94/1/5 83/1/5
f 96/2/5 83/2/5 82/2/5
f 96/1/5 95/1/5 94/1/5
f 97/2/5 79/2/5 78/2/5
f 97/1/5 95/1/5 96/1/5
f 97/1/5 91/1/5 95/1/5
f 97/1/5 78/1/5 91/1/5
f 98/2/5 97/2/5 96/2/5
f 98/2/5 79/2/5 97/2/5
f 99/1/5 49/1/5 79/1/5
f 99/2/5 79/2/5 98/2/5
f 100/2/5 98/2/5 96/2/5
f 100/2/5 96/2/5 82/2/5
f 100/1/5 93/1/5 92/1/5
f 100/1/5 82/1/5 93/1/5
f 101/2/5 98/2/5 100/2/5
f 102/1/5 100/1/5 92/1/5
f 102/1/5 101/1/5 100/1/5
f 103/2/5 98/2/5 101/2/5
f 103/1/5 101/1/5 102/1/5
f 104/2/5 48/2/5 46/2/5
f 104/1/5 56/1/5 48/1/5
f 104/1/5 86/1/5 56/1/5
f 104/1/5 102/1/5 92/1/5
f 104/1/5 92/1/5 86/1/5
f 105/1/5 102/1/5 104/1/5
f 106/2/5 103/2/5 102/2/5
f 106/1/5 102/1/5 105/1/5
f 107/2/5 98/2/5 103/2/5
f 107/2/5 103/2/5 106/2/5
f 108/1/5 99/1/5 98/1/5
f 109/1/5 99/1/5 108/1/5
f 110/2/5 98/2/5 107/2/5
f 110/1/5 107/1/5 106/1/5
f 111/2/5 98/2/5 110/2/5
f 112/1/5 108/1/5 98/1/5
f 112/2/5 98/2/5 111/2/5
f 113/2/5 109/2/5 108/2/5
f 113/1/5 108/1/5 112/1/5
f 114/2/5 112/2/5 111/2/5
f 114/2/5 109/2/5 113/2/5
f 114/2/5 113/2/5 112/2/5
f 115/1/5 99/1/5 109/1/5
f 115/2/5 109/2/5 114/2/5
f 116/1/5 106/1/5 105/1/5
f 116/1/5 110/1/5 106/1/5
f 116/1/5 111/1/5 110/1/5
f 117/1/5 111/1/5 116/1/5
f 118/2/5 114/2/5 111/2/5
f 119/1/5 115/1/5 114/1/5
f 119/2/5 114/2/5 118/2/5
f 120/1/5 119/1/5 118/1/5
f 121/1/5 99/1/5 115/1/5
f 121/1/5 119/1/5 120/1/5
f 121/1/5 49/1/5 99/1/5
f 121/1/5 115/1/5 119/1/5
f 122/2/5 117/2/5 116/2/5
f 122/1/5 116/1/5 105/1/5
f 123/1/5 111/1/5 117/1/5
f 123/2/5 117/2/5 122/2/5
f 124/1/5 123/1/5 122/1/5
f 124/1/5 111/1/5 123/1/5
f 125/2/5 118/2/5 111/2/5
f 125/1/5 111/1/5 124/1/5
f 126/2/5 125/2/5 124/2/5
f 126/2/5 118/2/5 125/2/5
f 127/2/5 118/2/5 126/2/5
f 128/1/5 120/1/5 118/1/5
f 128/2/5 118/2/5 127/2/5
f 129/2/5 121/2/5 120/2/5
f 129/1/5 120/1/5 128/1/5
f 130/1/5 49/1/5 121/1/5
f 130/2/5 121/2/5 129/2/5
f 131/1/5 127/1/5 126/1/5
f 131/2/5 129/2/5 128/2/5
f 131/2/5 128/2/5 127/2/5
f 132/1/5 130/1/5 129/1/5
f 132/2/5 129/2/5 131/2/5
f 133/1/5 124/1/5 122/1/5
f 133/2/5 126/2/5 124/2/5
f 134/1/5 131/1/5 126/1/5
f 134/2/5 126/2/5 133/2/5
f 134/1/5 132/1/5 131/1/5
f 135/1/5 132/1/5 134/1/5
f 136/1/5 132/1/5 135/1/5
f 137/1/5 134/1/5 133/1/5
f 137/1/5 135/1/5 134/1/5
f 137/2/5 136/2/5 135/2/5
f 138/1/5 132/1/5 136/1/5
f 138/2/5 136/2/5 137/2/5
f 139/2/5 104/2/5 46/2/5
f 140/2/5 104/2/5 139/2/5
f 141/1/5 133/1/5 122/1/5
f 141/1/5 122/1/5 105/1/5
f 141/1/5 137/1/5 133/1/5
f 141/1/5 138/1/5 137/1/5
f 142/1/5 49/1/5 130/1/5
f 142/1/5 138/1/5 141/1/5
f 142/2/5 47/2/5 49/2/5
f 142/1/5 130/1/5 132/1/5
f 142/1/5 132/1/5 138/1/5
f 143/2/5 47/2/5 142/2/5
f 144/1/6 145/1/6 146/1/6
f 146/1/6 145/1/6 147/1/6
f 146/2/6 147/2/6 148/2/6
f 147/1/6 145/1/6 148/1/6
f 148/1/6 145/1/6 149/1/6
f 148/2/6 149/2/6 150/2/6
f 149/1/6 145/1/6 150/1/6
f 150/1/6 145/1/6 151/1/6
f 144/1/6 146/1/6 152/1/6
f 146/2/6 148/2/6 152/2/6
f 150/2/6 151/2/6 152/2/6
f 148/2/6 150/2/6 152/2/6
f 152/2/6 151/2/6 153/2/6
f 153/2/6 151/2/6 154/2/6
f 151/1/6 145/1/6 155/1/6
f 154/2/6 151/2/6 155/2/6
f 154/1/6 155/1/6 156/1/6
f 155/1/6 145/1/6 157/1/6
f 156/1/6 155/1/6 157/1/6
f 153/2/6 154/2/6 158/2/6
f 154/1/6 156/1/6 158/1/6
f 158/1/6 156/1/6 159/1/6
f 156/2/6 157/2/6 160/2/6
f 159/1/6 156/1/6 160/1/6
f 157/1/6 145/1/6 161/1/6
f 160/2/6 157/2/6 161/2/6
f 152/1/6 153/1/6 162/1/6
f 158/2/6 159/2/6 162/2/6
f 153/2/6 158/2/6 162/2/6
f 162/2/6 159/2/6 163/2/6
f 163/2/6 159/2/6 164/2/6
f 159/1/6 160/1/6 165/1/6
f 164/2/6 159/2/6 165/2/6
f 160/1/6 161/1/6 165/1/6
f 164/1/6 165/1/6 166/1/6
f 165/1/6 161/1/6 167/1/6
f 166/1/6 165/1/6 167/1/6
f 163/2/6 164/2/6 168/2/6
f 162/1/6 163/1/6 168/1/6
f 164/1/6 166/1/6 169/1/6
f 168/2/6 164/2/6 169/2/6
f 166/2/6 167/2/6 170/2/6
f 169/1/6 166/1/6 170/1/6
f 168/1/6 169/1/6 170/1/6
f 167/1/6 161/1/6 171/1/6
f 170/2/6 167/2/6 171/2/6
f 161/1/6 145/1/6 172/1/6
f 171/1/6 161/1/6 172/1/6
f 172/1/6 145/1/6 173/1/6
f 173/1/6 145/1/6 174/1/6
f 174/1/6 145/1/6 175/1/6
f 168/1/6 170/1/6 176/1/6
f 170/1/6 171/1/6 176/1/6
f 162/1/6 168/1/6 176/1/6
f 152/1/6 162/1/6 176/1/6
f 171/1/6 172/1/6 176/1/6
f 176/1/6 172/1/6 177/1/6
f 177/1/6 172/1/6 178/1/6
f 178/1/6 172/1/6 179/1/6
f 179/1/6 172/1/6 180/1/6
f 180/1/6 172/1/6 181/1/6
f 152/1/6 176/1/6 182/1/6
f 176/2/6 177/2/6 182/2/6
f 177/1/6 178/1/6 183/1/6
f 182/2/6 177/2/6 183/2/6
f 183/1/6 178/1/6 184/1/6
f 184/1/6 178/1/6 185/1/6
f 172/2/6 173/2/6 186/2/6
f 181/1/6 172/1/6 186/1/6
f 173/1/6 174/1/6 187/1/6
f 186/2/6 173/2/6 187/2/6
f 184/2/6 185/2/6 188/2/6
f 182/1/6 183/1/6 188/1/6
f 183/1/6 184/1/6 188/1/6
f 185/1/6 178/1/6 189/1/6
f 188/2/6 185/2/6 189/2/6
f 180/2/6 181/2/6 190/2/6
f 179/1/6 180/1/6 190/1/6
f 181/1/6 186/1/6 191/1/6
f 190/2/6 181/2/6 191/2/6
f 186/1/6 187/1/6 191/1/6
f 179/1/6 190/1/6 192/1/6
f 178/2/6 179/2/6 192/2/6
f 190/1/6 191/1/6 192/1/6
f 174/2/6 175/2/6 193/2/6
f 192/1/6 191/1/6 193/1/6
f 191/1/6 187/1/6 193/1/6
f 187/1/6 174/1/6 193/1/6
f 192/2/6 193/2/6 194/2/6
f 193/2/6 175/2/6 194/2/6
f 175/1/6 145/1/6 195/1/6
f 194/2/6 175/2/6 195/2/6
f 192/2/6 194/2/6 196/2/6
f 178/2/6 192/2/6 196/2/6
f 188/1/6 189/1/6 196/1/6
f 189/1/6 178/1/6 196/1/6
f 196/2/6 194/2/6 197/2/6
f 188/1/6 196/1/6 198/1/6
f 196/1/6 197/1/6 198/1/6
f 197/2/6 194/2/6 199/2/6
f 198/1/6 197/1/6 199/1/6
f 144/1/6 152/1/6 200/1/6
f 152/1/6 182/1/6 200/1/6
f 182/1/6 188/1/6 200/1/6
f 188/1/6 198/1/6 200/1/6
f 200/1/6 198/1/6 201/1/6
f 198/2/6 199/2/6 202/2/6
f 201/1/6 198/1/6 202/1/6
f 199/2/6 194/2/6 203/2/6
f 202/2/6 199/2/6 203/2/6
f 194/1/6 195/1/6 204/1/6
f 204/1/6 195/1/6 205/1/6
f 203/2/6 194/2/6 206/2/6
f 202/1/6 203/1/6 206/1/6
f 206/2/6 194/2/6 207/2/6
f 194/1/6 204/1/6 208/1/6
f 207/2/6 194/2/6 208/2/6
f 204/2/6 205/2/6 209/2/6
f 208/1/6 204/1/6 209/1/6
f 207/2/6 208/2/6 210/2/6
f 209/2/6 205/2/6 210/2/6
f 208/2/6 209/2/6 210/2/6
f 205/1/6 195/1/6 211/1/6
f 210/2/6 205/2/6 211/2/6
f 201/1/6 202/1/6 212/1/6
f 202/1/6 206/1/6 212/1/6
f 206/1/6 207/1/6 212/1/6
f 212/1/6 207/1/6 213/1/6
f 207/2/6 210/2/6 214/2/6
f 210/1/6 211/1/6 215/1/6
f 214/2/6 210/2/6 215/2/6
f 214/1/6 215/1/6 216/1/6
f 195/1/6 145/1/6 217/1/6
f 216/1/6 215/1/6 217/1/6
f 211/1/6 195/1/6 217/1/6
f 215/1/6 211/1/6 217/1/6
f 212/2/6 213/2/6 218/2/6
f 201/1/6 212/1/6 218/1/6
f 213/1/6 207/1/6 219/1/6
f 218/2/6 213/2/6 219/2/6
f 218/1/6 219/1/6 220/1/6
f 219/1/6 207/1/6 220/1/6
f 207/2/6 214/2/6 221/2/6
f 220/1/6 207/1/6 221/1/6
f 220/2/6 221/2/6 222/2/6
f 221/2/6 214/2/6 222/2/6
f 222/2/6 214/2/6 223/2/6
f 214/1/6 216/1/6 224/1/6
f 223/2/6 214/2/6 224/2/6
f 216/2/6 217/2/6 225/2/6
f 224/1/6 216/1/6 225/1/6
f 217/1/6 145/1/6 226/1/6
f 225/2/6 217/2/6 226/2/6
f 222/1/6 223/1/6 227/1/6
f 224/2/6 225/2/6 227/2/6
f 223/2/6 224/2/6 227/2/6
f 225/1/6 226/1/6 228/1/6
f 227/2/6 225/2/6 228/2/6
f 218/1/6 220/1/6 229/1/6
f 220/2/6 222/2/6 229/2/6
f 222/1/6 227/1/6 230/1/6
f 229/2/6 222/2/6 230/2/6
f 227/1/6 228/1/6 230/1/6
f 230/1/6 228/1/6 231/1/6
f 231/1/6 228/1/6 232/1/6
f 229/1/6 230/1/6 233/1/6
f 230/1/6 231/1/6 233/1/6
f 231/2/6 232/2/6 233/2/6
f 232/1/6 228/1/6 234/1/6
f 233/2/6 232/2/6 234/2/6
f 218/1/6 229/1/6 235/1/6
f 201/1/6 218/1/6 235/1/6
f 233/1/6 234/1/6 235/1/6
f 229/1/6 233/1/6 235/1/6
f 226/1/6 145/1/6 236/1/6
f 235/1/6 234/1/6 236/1/6
f 234/1/6 228/1/6 236/1/6
f 228/1/6 226/1/6 236/1/6
f 237/2/6 238/2/6 239/2/6
f 239/2/6 238/2/6 240/2/6
f 237/2/6 239/2/6 241/2/6
f 241/2/6 239/2/6 242/2/6
f 240/2/6 238/2/6 243/2/6
f 243/2/6 238/2/6 244/2/6
