# MagicaVoxel @ Ephtracy

# group
g 4x2 first-6

# material
mtllib 4x2 first-6.mtl
usemtl palette

# normals
vn -1 0 0
vn 1 0 0
vn 0 0 1
vn 0 0 -1
vn 0 -1 0
vn 0 1 0

# texcoords
vt 0.494141 0.5
vt 0.970703 0.5

# verts
v -63 0 63
v -63 0 -63
v -63 4 63
v -63 4 -61
v -63 5 63
v -63 5 31
v -63 5 1
v -63 5 -24
v -63 5 -61
v -63 45 31
v -63 45 1
v -63 80 63
v -63 80 -24
v -63 80 -61
v -63 80 -63
v 61 5 63
v 61 5 -61
v 61 80 63
v 61 80 -61
v -62 5 63
v -62 5 31
v -62 5 1
v -62 5 -24
v -62 45 31
v -62 45 1
v -62 80 63
v -62 80 -24
v 63 0 63
v 63 0 -63
v 63 80 63
v 63 80 -63
v -63 0 63
v -63 4 63
v -63 5 63
v -63 80 63
v -62 5 63
v -62 80 63
v 61 4 63
v 61 5 63
v 61 80 63
v 63 0 63
v 63 80 63
v -63 5 1
v -63 45 1
v -62 5 1
v -62 45 1
v -63 5 -61
v -63 80 -61
v 61 5 -61
v 61 80 -61
v -63 5 31
v -63 45 31
v -62 5 31
v -62 45 31
v -63 5 -24
v -63 80 -24
v -62 5 -24
v -62 80 -24
v -63 0 -63
v -63 80 -63
v 63 0 -63
v 63 80 -63
v -63 0 63
v 63 0 63
v -63 0 -63
v 63 0 -63
v -63 45 31
v -62 45 31
v -63 45 1
v -62 45 1
v -62 5 63
v 61 5 63
v -63 5 31
v -62 5 31
v -63 5 1
v -62 5 1
v -63 5 -24
v -62 5 -24
v -63 5 -61
v 61 5 -61
v -63 80 63
v -62 80 63
v 61 80 63
v 63 80 63
v -63 80 -24
v -62 80 -24
v -63 80 -61
v 61 80 -61
v -63 80 -63
v 63 80 -63

# faces
f 3/2/1 2/2/1 1/2/1
f 4/2/1 2/2/1 3/2/1
f 5/1/1 4/1/1 3/1/1
f 6/1/1 4/1/1 5/1/1
f 7/1/1 4/1/1 6/1/1
f 8/1/1 4/1/1 7/1/1
f 9/2/1 2/2/1 4/2/1
f 9/1/1 4/1/1 8/1/1
f 10/2/1 6/2/1 5/2/1
f 11/2/1 8/2/1 7/2/1
f 12/2/1 10/2/1 5/2/1
f 12/2/1 11/2/1 10/2/1
f 13/2/1 8/2/1 11/2/1
f 13/2/1 11/2/1 12/2/1
f 14/2/1 2/2/1 9/2/1
f 15/2/1 2/2/1 14/2/1
f 18/2/1 17/2/1 16/2/1
f 19/2/1 17/2/1 18/2/1
f 20/2/2 21/2/2 24/2/2
f 22/2/2 23/2/2 25/2/2
f 20/2/2 24/2/2 26/2/2
f 24/2/2 25/2/2 26/2/2
f 25/2/2 23/2/2 27/2/2
f 26/2/2 25/2/2 27/2/2
f 28/2/2 29/2/2 30/2/2
f 30/2/2 29/2/2 31/2/2
f 36/1/3 34/1/3 33/1/3
f 36/2/3 35/2/3 34/2/3
f 37/2/3 35/2/3 36/2/3
f 38/2/3 33/2/3 32/2/3
f 38/1/3 36/1/3 33/1/3
f 39/1/3 36/1/3 38/1/3
f 41/2/3 38/2/3 32/2/3
f 41/2/3 40/2/3 39/2/3
f 41/2/3 39/2/3 38/2/3
f 42/2/3 40/2/3 41/2/3
f 45/2/3 44/2/3 43/2/3
f 46/2/3 44/2/3 45/2/3
f 49/2/3 48/2/3 47/2/3
f 50/2/3 48/2/3 49/2/3
f 51/2/4 52/2/4 53/2/4
f 53/2/4 52/2/4 54/2/4
f 55/2/4 56/2/4 57/2/4
f 57/2/4 56/2/4 58/2/4
f 59/2/4 60/2/4 61/2/4
f 61/2/4 60/2/4 62/2/4
f 65/2/5 64/2/5 63/2/5
f 66/2/5 64/2/5 65/2/5
f 69/2/5 68/2/5 67/2/5
f 70/2/5 68/2/5 69/2/5
f 71/1/6 72/1/6 74/1/6
f 73/1/6 74/1/6 75/1/6
f 74/1/6 72/1/6 76/1/6
f 75/1/6 74/1/6 76/1/6
f 76/1/6 72/1/6 78/1/6
f 77/1/6 78/1/6 79/1/6
f 78/1/6 72/1/6 80/1/6
f 79/1/6 78/1/6 80/1/6
f 81/2/6 82/2/6 85/2/6
f 85/2/6 82/2/6 86/2/6
f 83/2/6 84/2/6 88/2/6
f 87/2/6 88/2/6 89/2/6
f 88/2/6 84/2/6 90/2/6
f 89/2/6 88/2/6 90/2/6
