# MagicaVoxel @ Ephtracy

# group
g 4x2 roof (des)-4

# material
mtllib 4x2 roof (des)-4.mtl
usemtl palette

# normals
vn -1 0 0
vn 1 0 0
vn 0 0 1
vn 0 0 -1
vn 0 -1 0
vn 0 1 0

# texcoords
vt 0.962891 0.5
vt 0.974609 0.5

# verts
v -63 0 63
v -63 0 -63
v -63 1 63
v -63 1 -53
v -63 1 -58
v -63 7 -58
v -63 7 -63
v -63 53 63
v -63 53 -53
v -63 53 -58
v -63 53 -60
v -63 58 63
v -63 58 -60
v -60 1 -55
v -60 1 -56
v -60 53 -55
v -60 53 -56
v -58 54 63
v -58 54 -59
v -58 58 63
v -58 58 -59
v 58 1 63
v 58 1 -58
v 58 7 63
v 58 7 -58
v -62 54 63
v -62 54 -59
v -62 58 63
v -62 58 -59
v -61 1 -55
v -61 1 -56
v -61 53 -55
v -61 53 -56
v -58 1 -53
v -58 1 -58
v -58 7 -58
v -58 53 -53
v -58 53 -58
v -57 53 63
v -57 53 -60
v -57 58 63
v -57 58 -60
v 63 0 63
v 63 0 -63
v 63 7 63
v 63 7 -63
v -63 0 63
v -63 1 63
v -63 53 63
v -63 58 63
v -62 54 63
v -62 58 63
v -58 54 63
v -58 58 63
v -57 53 63
v -57 58 63
v 58 1 63
v 58 7 63
v 63 0 63
v 63 7 63
v -63 1 -53
v -63 53 -53
v -58 1 -53
v -58 53 -53
v -61 1 -56
v -61 53 -56
v -60 1 -56
v -60 53 -56
v -58 1 -58
v -58 7 -58
v 58 1 -58
v 58 7 -58
v -62 54 -59
v -62 58 -59
v -58 54 -59
v -58 58 -59
v -61 1 -55
v -61 53 -55
v -60 1 -55
v -60 53 -55
v -63 7 -58
v -63 53 -58
v -58 7 -58
v -58 53 -58
v -63 53 -60
v -63 58 -60
v -57 53 -60
v -57 58 -60
v -63 0 -63
v -63 7 -63
v 63 0 -63
v 63 7 -63
v -63 0 63
v 63 0 63
v -63 0 -63
v 63 0 -63
v -63 53 63
v -57 53 63
v -63 53 -53
v -58 53 -53
v -61 53 -55
v -60 53 -55
v -61 53 -56
v -60 53 -56
v -63 53 -58
v -58 53 -58
v -63 53 -60
v -57 53 -60
v -63 1 63
v 58 1 63
v -63 1 -53
v -58 1 -53
v -61 1 -55
v -60 1 -55
v -61 1 -56
v -60 1 -56
v -58 1 -58
v 58 1 -58
v 58 7 63
v 63 7 63
v -63 7 -58
v -58 7 -58
v 58 7 -58
v -63 7 -63
v 63 7 -63
v -62 54 63
v -58 54 63
v -62 54 -59
v -58 54 -59
v -63 58 63
v -62 58 63
v -58 58 63
v -57 58 63
v -62 58 -59
v -58 58 -59
v -63 58 -60
v -57 58 -60

# faces
f 3/2/1 2/2/1 1/2/1
f 4/2/1 2/2/1 3/2/1
f 5/2/1 2/2/1 4/2/1
f 6/2/1 2/2/1 5/2/1
f 6/1/1 5/1/1 4/1/1
f 7/2/1 2/2/1 6/2/1
f 9/1/1 6/1/1 4/1/1
f 10/1/1 6/1/1 9/1/1
f 12/1/1 9/1/1 8/1/1
f 12/1/1 11/1/1 10/1/1
f 12/1/1 10/1/1 9/1/1
f 13/1/1 11/1/1 12/1/1
f 16/1/1 15/1/1 14/1/1
f 17/1/1 15/1/1 16/1/1
f 20/1/1 19/1/1 18/1/1
f 21/1/1 19/1/1 20/1/1
f 24/2/1 23/2/1 22/2/1
f 25/2/1 23/2/1 24/2/1
f 26/1/2 27/1/2 28/1/2
f 28/1/2 27/1/2 29/1/2
f 30/1/2 31/1/2 32/1/2
f 32/1/2 31/1/2 33/1/2
f 34/1/2 35/1/2 36/1/2
f 34/1/2 36/1/2 37/1/2
f 37/1/2 36/1/2 38/1/2
f 39/1/2 40/1/2 41/1/2
f 41/1/2 40/1/2 42/1/2
f 43/2/2 44/2/2 45/2/2
f 45/2/2 44/2/2 46/2/2
f 51/1/3 50/1/3 49/1/3
f 52/1/3 50/1/3 51/1/3
f 53/1/3 51/1/3 49/1/3
f 55/1/3 53/1/3 49/1/3
f 55/1/3 54/1/3 53/1/3
f 56/1/3 54/1/3 55/1/3
f 57/2/3 48/2/3 47/2/3
f 59/2/3 57/2/3 47/2/3
f 59/2/3 58/2/3 57/2/3
f 60/2/3 58/2/3 59/2/3
f 63/1/3 62/1/3 61/1/3
f 64/1/3 62/1/3 63/1/3
f 67/1/3 66/1/3 65/1/3
f 68/1/3 66/1/3 67/1/3
f 71/2/3 70/2/3 69/2/3
f 72/2/3 70/2/3 71/2/3
f 75/1/3 74/1/3 73/1/3
f 76/1/3 74/1/3 75/1/3
f 77/1/4 78/1/4 79/1/4
f 79/1/4 78/1/4 80/1/4
f 81/1/4 82/1/4 83/1/4
f 83/1/4 82/1/4 84/1/4
f 85/1/4 86/1/4 87/1/4
f 87/1/4 86/1/4 88/1/4
f 89/2/4 90/2/4 91/2/4
f 91/2/4 90/2/4 92/2/4
f 95/2/5 94/2/5 93/2/5
f 96/2/5 94/2/5 95/2/5
f 99/1/5 98/1/5 97/1/5
f 100/1/5 98/1/5 99/1/5
f 103/1/5 102/1/5 101/1/5
f 104/1/5 102/1/5 103/1/5
f 106/1/5 98/1/5 100/1/5
f 107/1/5 106/1/5 105/1/5
f 108/1/5 98/1/5 106/1/5
f 108/1/5 106/1/5 107/1/5
f 109/2/6 110/2/6 111/2/6
f 111/2/6 110/2/6 112/2/6
f 113/2/6 114/2/6 115/2/6
f 115/2/6 114/2/6 116/2/6
f 112/2/6 110/2/6 117/2/6
f 117/2/6 110/2/6 118/2/6
f 119/2/6 120/2/6 123/2/6
f 121/2/6 122/2/6 124/2/6
f 122/2/6 123/2/6 124/2/6
f 123/2/6 120/2/6 125/2/6
f 124/2/6 123/2/6 125/2/6
f 126/1/6 127/1/6 128/1/6
f 128/1/6 127/1/6 129/1/6
f 130/1/6 131/1/6 134/1/6
f 132/1/6 133/1/6 135/1/6
f 130/1/6 134/1/6 136/1/6
f 134/1/6 135/1/6 136/1/6
f 135/1/6 133/1/6 137/1/6
f 136/1/6 135/1/6 137/1/6
