# MagicaVoxel @ Ephtracy

# group
g 4x2 first-4

# material
mtllib 4x2 first-4.mtl
usemtl palette

# normals
vn -1 0 0
vn 1 0 0
vn 0 0 1
vn 0 0 -1
vn 0 -1 0
vn 0 1 0

# texcoords
vt 0.494141 0.5
vt 0.970703 0.5
vt 0.982422 0.5

# verts
v -63 0 63
v -63 0 -63
v -63 4 30
v -63 4 -0
v -63 4 -24
v -63 4 -61
v -63 5 30
v -63 5 -0
v -63 5 -24
v -63 5 -61
v -63 45 30
v -63 45 -0
v -63 80 63
v -63 80 -24
v -63 80 -61
v -63 80 -63
v 62 5 63
v 62 5 31
v 62 5 1
v 62 5 -22
v 62 45 31
v 62 45 1
v 62 80 63
v 62 80 -22
v -62 5 63
v -62 5 30
v -62 5 -0
v -62 5 -22
v -62 45 30
v -62 45 -0
v -62 80 63
v -62 80 -22
v 63 0 63
v 63 0 -63
v 63 4 31
v 63 4 1
v 63 4 -24
v 63 4 -61
v 63 5 31
v 63 5 1
v 63 5 -24
v 63 5 -61
v 63 45 31
v 63 45 1
v 63 80 63
v 63 80 -24
v 63 80 -61
v 63 80 -63
v -63 0 63
v -63 80 63
v -62 4 63
v -62 5 63
v -62 80 63
v 62 4 63
v 62 5 63
v 62 80 63
v 63 0 63
v 63 80 63
v 62 5 1
v 62 45 1
v 63 5 1
v 63 45 1
v -63 5 -0
v -63 45 -0
v -62 5 -0
v -62 45 -0
v -62 5 -22
v -62 80 -22
v 62 5 -22
v 62 80 -22
v -63 5 -61
v -63 80 -61
v 63 5 -61
v 63 80 -61
v 62 5 31
v 62 45 31
v 63 5 31
v 63 45 31
v -63 5 30
v -63 45 30
v -62 5 30
v -62 45 30
v -63 5 -24
v -63 80 -24
v 63 5 -24
v 63 80 -24
v -63 0 -63
v -63 80 -63
v 63 0 -63
v 63 80 -63
v -63 0 63
v 63 0 63
v -63 0 -63
v 63 0 -63
v 62 45 31
v 63 45 31
v -63 45 30
v -62 45 30
v 62 45 1
v 63 45 1
v -63 45 -0
v -62 45 -0
v -62 5 63
v 62 5 63
v 62 5 31
v 63 5 31
v -63 5 30
v -62 5 30
v 62 5 1
v 63 5 1
v -63 5 -0
v -62 5 -0
v -62 5 -22
v 62 5 -22
v -63 5 -24
v 63 5 -24
v -63 5 -61
v 63 5 -61
v -63 80 63
v -62 80 63
v 62 80 63
v 63 80 63
v -62 80 -22
v 62 80 -22
v -63 80 -24
v 63 80 -24
v -63 80 -61
v 63 80 -61
v -63 80 -63
v 63 80 -63

# faces
f 3/2/1 2/2/1 1/2/1
f 4/2/1 2/2/1 3/2/1
f 5/2/1 2/2/1 4/2/1
f 6/2/1 2/2/1 5/2/1
f 7/2/1 3/2/1 1/2/1
f 7/3/1 4/3/1 3/3/1
f 8/2/1 5/2/1 4/2/1
f 8/3/1 4/3/1 7/3/1
f 9/1/1 6/1/1 5/1/1
f 9/2/1 5/2/1 8/2/1
f 10/2/1 2/2/1 6/2/1
f 10/1/1 6/1/1 9/1/1
f 11/2/1 7/2/1 1/2/1
f 12/2/1 9/2/1 8/2/1
f 13/2/1 11/2/1 1/2/1
f 13/2/1 12/2/1 11/2/1
f 14/2/1 9/2/1 12/2/1
f 14/2/1 12/2/1 13/2/1
f 15/2/1 2/2/1 10/2/1
f 16/2/1 2/2/1 15/2/1
f 21/2/1 18/2/1 17/2/1
f 22/2/1 20/2/1 19/2/1
f 23/2/1 21/2/1 17/2/1
f 23/2/1 22/2/1 21/2/1
f 24/2/1 20/2/1 22/2/1
f 24/2/1 22/2/1 23/2/1
f 25/2/2 26/2/2 29/2/2
f 27/2/2 28/2/2 30/2/2
f 25/2/2 29/2/2 31/2/2
f 29/2/2 30/2/2 31/2/2
f 30/2/2 28/2/2 32/2/2
f 31/2/2 30/2/2 32/2/2
f 33/2/2 34/2/2 35/2/2
f 35/2/2 34/2/2 36/2/2
f 36/2/2 34/2/2 37/2/2
f 37/2/2 34/2/2 38/2/2
f 33/2/2 35/2/2 39/2/2
f 35/3/2 36/3/2 39/3/2
f 36/2/2 37/2/2 40/2/2
f 39/3/2 36/3/2 40/3/2
f 37/1/2 38/1/2 41/1/2
f 40/2/2 37/2/2 41/2/2
f 38/2/2 34/2/2 42/2/2
f 41/1/2 38/1/2 42/1/2
f 33/2/2 39/2/2 43/2/2
f 40/2/2 41/2/2 44/2/2
f 33/2/2 43/2/2 45/2/2
f 43/2/2 44/2/2 45/2/2
f 44/2/2 41/2/2 46/2/2
f 45/2/2 44/2/2 46/2/2
f 42/2/2 34/2/2 47/2/2
f 47/2/2 34/2/2 48/2/2
f 51/2/3 50/2/3 49/2/3
f 52/2/3 50/2/3 51/2/3
f 53/2/3 50/2/3 52/2/3
f 54/2/3 51/2/3 49/2/3
f 54/3/3 52/3/3 51/3/3
f 55/3/3 52/3/3 54/3/3
f 57/2/3 54/2/3 49/2/3
f 57/2/3 56/2/3 55/2/3
f 57/2/3 55/2/3 54/2/3
f 58/2/3 56/2/3 57/2/3
f 61/2/3 60/2/3 59/2/3
f 62/2/3 60/2/3 61/2/3
f 65/2/3 64/2/3 63/2/3
f 66/2/3 64/2/3 65/2/3
f 69/2/3 68/2/3 67/2/3
f 70/2/3 68/2/3 69/2/3
f 73/2/3 72/2/3 71/2/3
f 74/2/3 72/2/3 73/2/3
f 75/2/4 76/2/4 77/2/4
f 77/2/4 76/2/4 78/2/4
f 79/2/4 80/2/4 81/2/4
f 81/2/4 80/2/4 82/2/4
f 83/2/4 84/2/4 85/2/4
f 85/2/4 84/2/4 86/2/4
f 87/2/4 88/2/4 89/2/4
f 89/2/4 88/2/4 90/2/4
f 93/2/5 92/2/5 91/2/5
f 94/2/5 92/2/5 93/2/5
f 99/2/5 96/2/5 95/2/5
f 100/2/5 96/2/5 99/2/5
f 101/2/5 98/2/5 97/2/5
f 102/2/5 98/2/5 101/2/5
f 103/3/6 104/3/6 105/3/6
f 103/3/6 105/3/6 108/3/6
f 105/3/6 106/3/6 108/3/6
f 108/3/6 106/3/6 109/3/6
f 107/3/6 108/3/6 109/3/6
f 109/3/6 106/3/6 110/3/6
f 107/3/6 109/3/6 111/3/6
f 111/3/6 109/3/6 112/3/6
f 112/3/6 109/3/6 113/3/6
f 113/3/6 109/3/6 114/3/6
f 115/1/6 116/1/6 117/1/6
f 117/1/6 116/1/6 118/1/6
f 119/2/6 120/2/6 123/2/6
f 121/2/6 122/2/6 124/2/6
f 119/2/6 123/2/6 125/2/6
f 123/2/6 124/2/6 125/2/6
f 124/2/6 122/2/6 126/2/6
f 125/2/6 124/2/6 126/2/6
f 127/2/6 128/2/6 129/2/6
f 129/2/6 128/2/6 130/2/6
