# MagicaVoxel @ Ephtracy

# group
g 2x2 first-1

# material
mtllib 2x2 first-1.mtl
usemtl palette

# normals
vn -1 0 0
vn 1 0 0
vn 0 0 1
vn 0 0 -1
vn 0 -1 0
vn 0 1 0

# texcoords
vt 0.966797 0.5
vt 0.974609 0.5

# verts
v -63 0 63
v -63 0 -63
v -63 5 63
v -63 5 -63
v -52 5 38
v -52 5 33
v -52 5 -40
v -52 5 -45
v -52 80 38
v -52 80 33
v -52 80 -40
v -52 80 -45
v -51 5 40
v -51 5 38
v -51 5 33
v -51 5 31
v -51 5 -38
v -51 5 -40
v -51 5 -45
v -51 5 -47
v -51 80 40
v -51 80 38
v -51 80 33
v -51 80 31
v -51 80 -38
v -51 80 -40
v -51 80 -45
v -51 80 -47
v -50 5 41
v -50 5 40
v -50 5 31
v -50 5 30
v -50 5 -37
v -50 5 -38
v -50 5 -47
v -50 5 -48
v -50 80 41
v -50 80 40
v -50 80 31
v -50 80 30
v -50 80 -37
v -50 80 -38
v -50 80 -47
v -50 80 -48
v -48 5 42
v -48 5 41
v -48 5 30
v -48 5 29
v -48 5 -36
v -48 5 -37
v -48 5 -48
v -48 5 -49
v -48 80 42
v -48 80 41
v -48 80 30
v -48 80 29
v -48 80 -36
v -48 80 -37
v -48 80 -48
v -48 80 -49
v -45 1 36
v -45 1 35
v -45 1 -42
v -45 1 -43
v -45 80 36
v -45 80 35
v -45 80 -42
v -45 80 -43
v -18 5 63
v -18 5 12
v -18 5 -18
v -18 5 -63
v -18 12 62
v -18 12 13
v -18 12 -19
v -18 12 -63
v -18 45 62
v -18 45 13
v -18 45 12
v -18 45 -18
v -18 45 -19
v -18 45 -63
v -18 46 62
v -18 46 -63
v -18 72 62
v -18 72 -63
v -18 80 63
v -18 80 -63
v -46 1 36
v -46 1 35
v -46 1 -42
v -46 1 -43
v -46 80 36
v -46 80 35
v -46 80 -42
v -46 80 -43
v -43 5 42
v -43 5 41
v -43 5 30
v -43 5 29
v -43 5 -36
v -43 5 -37
v -43 5 -48
v -43 5 -49
v -43 80 42
v -43 80 41
v -43 80 30
v -43 80 29
v -43 80 -36
v -43 80 -37
v -43 80 -48
v -43 80 -49
v -41 5 41
v -41 5 40
v -41 5 31
v -41 5 30
v -41 5 -37
v -41 5 -38
v -41 5 -47
v -41 5 -48
v -41 80 41
v -41 80 40
v -41 80 31
v -41 80 30
v -41 80 -37
v -41 80 -38
v -41 80 -47
v -41 80 -48
v -40 5 40
v -40 5 38
v -40 5 33
v -40 5 31
v -40 5 -38
v -40 5 -40
v -40 5 -45
v -40 5 -47
v -40 80 40
v -40 80 38
v -40 80 33
v -40 80 31
v -40 80 -38
v -40 80 -40
v -40 80 -45
v -40 80 -47
v -39 5 38
v -39 5 33
v -39 5 -40
v -39 5 -45
v -39 80 38
v -39 80 33
v -39 80 -40
v -39 80 -45
v -17 5 62
v -17 5 12
v -17 5 -18
v -17 5 -63
v -17 12 62
v -17 12 13
v -17 12 -19
v -17 12 -63
v -17 45 62
v -17 45 13
v -17 45 12
v -17 45 -18
v -17 45 -19
v -17 45 -63
v -17 46 62
v -17 46 -63
v -17 72 62
v -17 72 -63
v -17 80 62
v -17 80 -63
v 63 0 63
v 63 0 62
v 63 0 -63
v 63 5 63
v 63 5 62
v 63 5 -63
v 63 80 63
v 63 80 62
v -63 0 63
v -63 5 63
v -18 0 63
v -18 5 63
v -18 80 63
v -17 0 63
v -17 5 63
v 63 0 63
v 63 5 63
v 63 80 63
v -48 5 42
v -48 80 42
v -43 5 42
v -43 80 42
v -50 5 41
v -50 80 41
v -48 5 41
v -48 80 41
v -43 5 41
v -43 80 41
v -41 5 41
v -41 80 41
v -51 5 40
v -51 80 40
v -50 5 40
v -50 80 40
v -41 5 40
v -41 80 40
v -40 5 40
v -40 80 40
v -52 5 38
v -52 80 38
v -51 5 38
v -51 80 38
v -40 5 38
v -40 80 38
v -39 5 38
v -39 80 38
v -46 1 35
v -46 80 35
v -45 1 35
v -45 80 35
v -18 12 13
v -18 45 13
v -17 12 13
v -17 45 13
v -18 5 -18
v -18 45 -18
v -17 5 -18
v -17 45 -18
v -48 5 -36
v -48 80 -36
v -43 5 -36
v -43 80 -36
v -50 5 -37
v -50 80 -37
v -48 5 -37
v -48 80 -37
v -43 5 -37
v -43 80 -37
v -41 5 -37
v -41 80 -37
v -51 5 -38
v -51 80 -38
v -50 5 -38
v -50 80 -38
v -41 5 -38
v -41 80 -38
v -40 5 -38
v -40 80 -38
v -52 5 -40
v -52 80 -40
v -51 5 -40
v -51 80 -40
v -40 5 -40
v -40 80 -40
v -39 5 -40
v -39 80 -40
v -46 1 -43
v -46 80 -43
v -45 1 -43
v -45 80 -43
v -18 12 62
v -18 45 62
v -18 46 62
v -18 72 62
v -17 5 62
v -17 12 62
v -17 45 62
v -17 46 62
v -17 72 62
v -17 80 62
v 63 5 62
v 63 80 62
v -46 1 36
v -46 80 36
v -45 1 36
v -45 80 36
v -52 5 33
v -52 80 33
v -51 5 33
v -51 80 33
v -40 5 33
v -40 80 33
v -39 5 33
v -39 80 33
v -51 5 31
v -51 80 31
v -50 5 31
v -50 80 31
v -41 5 31
v -41 80 31
v -40 5 31
v -40 80 31
v -50 5 30
v -50 80 30
v -48 5 30
v -48 80 30
v -43 5 30
v -43 80 30
v -41 5 30
v -41 80 30
v -48 5 29
v -48 80 29
v -43 5 29
v -43 80 29
v -18 5 12
v -18 45 12
v -17 5 12
v -17 45 12
v -18 12 -19
v -18 45 -19
v -17 12 -19
v -17 45 -19
v -46 1 -42
v -46 80 -42
v -45 1 -42
v -45 80 -42
v -52 5 -45
v -52 80 -45
v -51 5 -45
v -51 80 -45
v -40 5 -45
v -40 80 -45
v -39 5 -45
v -39 80 -45
v -51 5 -47
v -51 80 -47
v -50 5 -47
v -50 80 -47
v -41 5 -47
v -41 80 -47
v -40 5 -47
v -40 80 -47
v -50 5 -48
v -50 80 -48
v -48 5 -48
v -48 80 -48
v -43 5 -48
v -43 80 -48
v -41 5 -48
v -41 80 -48
v -48 5 -49
v -48 80 -49
v -43 5 -49
v -43 80 -49
v -63 0 -63
v -63 5 -63
v -18 0 -63
v -18 5 -63
v -18 12 -63
v -18 45 -63
v -18 46 -63
v -18 72 -63
v -18 80 -63
v -17 5 -63
v -17 12 -63
v -17 45 -63
v -17 46 -63
v -17 72 -63
v -17 80 -63
v 63 0 -63
v 63 5 -63
v -63 0 63
v -18 0 63
v -17 0 63
v 63 0 63
v -17 0 62
v 63 0 62
v -63 0 -63
v -18 0 -63
v 63 0 -63
v -18 45 62
v -17 45 62
v -18 45 13
v -17 45 13
v -18 45 12
v -17 45 12
v -18 45 -18
v -17 45 -18
v -18 45 -19
v -17 45 -19
v -18 45 -63
v -17 45 -63
v -18 72 62
v -17 72 62
v -18 72 -63
v -17 72 -63
v -46 1 36
v -45 1 36
v -46 1 35
v -45 1 35
v -46 1 -42
v -45 1 -42
v -46 1 -43
v -45 1 -43
v -63 5 63
v -18 5 63
v -17 5 62
v 63 5 62
v -48 5 42
v -43 5 42
v -50 5 41
v -48 5 41
v -43 5 41
v -41 5 41
v -51 5 40
v -50 5 40
v -41 5 40
v -40 5 40
v -52 5 38
v -51 5 38
v -40 5 38
v -39 5 38
v -52 5 33
v -51 5 33
v -40 5 33
v -39 5 33
v -51 5 31
v -50 5 31
v -41 5 31
v -40 5 31
v -50 5 30
v -48 5 30
v -43 5 30
v -41 5 30
v -48 5 29
v -43 5 29
v -18 5 12
v -17 5 12
v -18 5 -18
v -17 5 -18
v -48 5 -36
v -43 5 -36
v -50 5 -37
v -48 5 -37
v -43 5 -37
v -41 5 -37
v -51 5 -38
v -50 5 -38
v -41 5 -38
v -40 5 -38
v -52 5 -40
v -51 5 -40
v -40 5 -40
v -39 5 -40
v -52 5 -45
v -51 5 -45
v -40 5 -45
v -39 5 -45
v -51 5 -47
v -50 5 -47
v -41 5 -47
v -40 5 -47
v -50 5 -48
v -48 5 -48
v -43 5 -48
v -41 5 -48
v -48 5 -49
v -43 5 -49
v -63 5 -63
v -18 5 -63
v -17 5 -63
v 63 5 -63
v -18 12 62
v -17 12 62
v -18 12 13
v -17 12 13
v -18 12 -19
v -17 12 -19
v -18 12 -63
v -17 12 -63
v -18 46 62
v -17 46 62
v -18 46 -63
v -17 46 -63
v -18 80 63
v 63 80 63
v -17 80 62
v 63 80 62
v -48 80 42
v -43 80 42
v -50 80 41
v -48 80 41
v -43 80 41
v -41 80 41
v -51 80 40
v -50 80 40
v -41 80 40
v -40 80 40
v -52 80 38
v -51 80 38
v -40 80 38
v -39 80 38
v -46 80 36
v -45 80 36
v -46 80 35
v -45 80 35
v -52 80 33
v -51 80 33
v -40 80 33
v -39 80 33
v -51 80 31
v -50 80 31
v -41 80 31
v -40 80 31
v -50 80 30
v -48 80 30
v -43 80 30
v -41 80 30
v -48 80 29
v -43 80 29
v -48 80 -36
v -43 80 -36
v -50 80 -37
v -48 80 -37
v -43 80 -37
v -41 80 -37
v -51 80 -38
v -50 80 -38
v -41 80 -38
v -40 80 -38
v -52 80 -40
v -51 80 -40
v -40 80 -40
v -39 80 -40
v -46 80 -42
v -45 80 -42
v -46 80 -43
v -45 80 -43
v -52 80 -45
v -51 80 -45
v -40 80 -45
v -39 80 -45
v -51 80 -47
v -50 80 -47
v -41 80 -47
v -40 80 -47
v -50 80 -48
v -48 80 -48
v -43 80 -48
v -41 80 -48
v -48 80 -49
v -43 80 -49
v -18 80 -63
v -17 80 -63

# faces
f 3/2/1 2/2/1 1/2/1
f 4/2/1 2/2/1 3/2/1
f 9/2/1 6/2/1 5/2/1
f 10/2/1 6/2/1 9/2/1
f 11/2/1 8/2/1 7/2/1
f 12/2/1 8/2/1 11/2/1
f 21/2/1 14/2/1 13/2/1
f 22/2/1 14/2/1 21/2/1
f 23/2/1 16/2/1 15/2/1
f 24/2/1 16/2/1 23/2/1
f 25/2/1 18/2/1 17/2/1
f 26/2/1 18/2/1 25/2/1
f 27/2/1 20/2/1 19/2/1
f 28/2/1 20/2/1 27/2/1
f 37/2/1 30/2/1 29/2/1
f 38/2/1 30/2/1 37/2/1
f 39/2/1 32/2/1 31/2/1
f 40/2/1 32/2/1 39/2/1
f 41/2/1 34/2/1 33/2/1
f 42/2/1 34/2/1 41/2/1
f 43/2/1 36/2/1 35/2/1
f 44/2/1 36/2/1 43/2/1
f 53/2/1 46/2/1 45/2/1
f 54/2/1 46/2/1 53/2/1
f 55/2/1 48/2/1 47/2/1
f 56/2/1 48/2/1 55/2/1
f 57/2/1 50/2/1 49/2/1
f 58/2/1 50/2/1 57/2/1
f 59/2/1 52/2/1 51/2/1
f 60/2/1 52/2/1 59/2/1
f 65/2/1 62/2/1 61/2/1
f 66/2/1 62/2/1 65/2/1
f 67/2/1 64/2/1 63/2/1
f 68/2/1 64/2/1 67/2/1
f 73/1/1 70/1/1 69/1/1
f 74/1/1 70/1/1 73/1/1
f 75/1/1 72/1/1 71/1/1
f 76/1/1 72/1/1 75/1/1
f 77/1/1 73/1/1 69/1/1
f 78/1/1 70/1/1 74/1/1
f 79/1/1 70/1/1 78/1/1
f 80/1/1 75/1/1 71/1/1
f 81/1/1 75/1/1 80/1/1
f 83/1/1 77/1/1 69/1/1
f 83/1/1 82/1/1 81/1/1
f 83/1/1 81/1/1 80/1/1
f 83/1/1 80/1/1 79/1/1
f 83/1/1 79/1/1 78/1/1
f 83/1/1 78/1/1 77/1/1
f 84/1/1 82/1/1 83/1/1
f 85/1/1 83/1/1 69/1/1
f 87/1/1 85/1/1 69/1/1
f 87/1/1 86/1/1 85/1/1
f 88/1/1 86/1/1 87/1/1
f 89/2/2 90/2/2 93/2/2
f 93/2/2 90/2/2 94/2/2
f 91/2/2 92/2/2 95/2/2
f 95/2/2 92/2/2 96/2/2
f 97/2/2 98/2/2 105/2/2
f 105/2/2 98/2/2 106/2/2
f 99/2/2 100/2/2 107/2/2
f 107/2/2 100/2/2 108/2/2
f 101/2/2 102/2/2 109/2/2
f 109/2/2 102/2/2 110/2/2
f 103/2/2 104/2/2 111/2/2
f 111/2/2 104/2/2 112/2/2
f 113/2/2 114/2/2 121/2/2
f 121/2/2 114/2/2 122/2/2
f 115/2/2 116/2/2 123/2/2
f 123/2/2 116/2/2 124/2/2
f 117/2/2 118/2/2 125/2/2
f 125/2/2 118/2/2 126/2/2
f 119/2/2 120/2/2 127/2/2
f 127/2/2 120/2/2 128/2/2
f 129/2/2 130/2/2 137/2/2
f 137/2/2 130/2/2 138/2/2
f 131/2/2 132/2/2 139/2/2
f 139/2/2 132/2/2 140/2/2
f 133/2/2 134/2/2 141/2/2
f 141/2/2 134/2/2 142/2/2
f 135/2/2 136/2/2 143/2/2
f 143/2/2 136/2/2 144/2/2
f 145/2/2 146/2/2 149/2/2
f 149/2/2 146/2/2 150/2/2
f 147/2/2 148/2/2 151/2/2
f 151/2/2 148/2/2 152/2/2
f 153/1/2 154/1/2 157/1/2
f 157/1/2 154/1/2 158/1/2
f 155/1/2 156/1/2 159/1/2
f 159/1/2 156/1/2 160/1/2
f 158/1/2 154/1/2 162/1/2
f 162/1/2 154/1/2 163/1/2
f 155/1/2 159/1/2 164/1/2
f 164/1/2 159/1/2 165/1/2
f 162/1/2 163/1/2 167/1/2
f 165/1/2 166/1/2 167/1/2
f 164/1/2 165/1/2 167/1/2
f 163/1/2 164/1/2 167/1/2
f 161/1/2 162/1/2 167/1/2
f 167/1/2 166/1/2 168/1/2
f 169/1/2 170/1/2 171/1/2
f 171/1/2 170/1/2 172/1/2
f 173/2/2 174/2/2 176/2/2
f 174/1/2 175/1/2 177/1/2
f 176/2/2 174/2/2 177/2/2
f 177/1/2 175/1/2 178/1/2
f 176/1/2 177/1/2 179/1/2
f 179/1/2 177/1/2 180/1/2
f 183/2/3 182/2/3 181/2/3
f 184/2/3 182/2/3 183/2/3
f 186/1/3 184/1/3 183/1/3
f 186/1/3 185/1/3 184/1/3
f 187/1/3 185/1/3 186/1/3
f 188/2/3 187/2/3 186/2/3
f 189/1/3 185/1/3 187/1/3
f 189/2/3 187/2/3 188/2/3
f 190/1/3 185/1/3 189/1/3
f 193/2/3 192/2/3 191/2/3
f 194/2/3 192/2/3 193/2/3
f 197/2/3 196/2/3 195/2/3
f 198/2/3 196/2/3 197/2/3
f 201/2/3 200/2/3 199/2/3
f 202/2/3 200/2/3 201/2/3
f 205/2/3 204/2/3 203/2/3
f 206/2/3 204/2/3 205/2/3
f 209/2/3 208/2/3 207/2/3
f 210/2/3 208/2/3 209/2/3
f 213/2/3 212/2/3 211/2/3
f 214/2/3 212/2/3 213/2/3
f 217/2/3 216/2/3 215/2/3
f 218/2/3 216/2/3 217/2/3
f 221/2/3 220/2/3 219/2/3
f 222/2/3 220/2/3 221/2/3
f 225/1/3 224/1/3 223/1/3
f 226/1/3 224/1/3 225/1/3
f 229/1/3 228/1/3 227/1/3
f 230/1/3 228/1/3 229/1/3
f 233/2/3 232/2/3 231/2/3
f 234/2/3 232/2/3 233/2/3
f 237/2/3 236/2/3 235/2/3
f 238/2/3 236/2/3 237/2/3
f 241/2/3 240/2/3 239/2/3
f 242/2/3 240/2/3 241/2/3
f 245/2/3 244/2/3 243/2/3
f 246/2/3 244/2/3 245/2/3
f 249/2/3 248/2/3 247/2/3
f 250/2/3 248/2/3 249/2/3
f 253/2/3 252/2/3 251/2/3
f 254/2/3 252/2/3 253/2/3
f 257/2/3 256/2/3 255/2/3
f 258/2/3 256/2/3 257/2/3
f 261/2/3 260/2/3 259/2/3
f 262/2/3 260/2/3 261/2/3
f 263/1/4 264/1/4 268/1/4
f 268/1/4 264/1/4 269/1/4
f 265/1/4 266/1/4 270/1/4
f 270/1/4 266/1/4 271/1/4
f 268/1/4 269/1/4 273/1/4
f 271/1/4 272/1/4 273/1/4
f 270/1/4 271/1/4 273/1/4
f 269/1/4 270/1/4 273/1/4
f 267/1/4 268/1/4 273/1/4
f 273/1/4 272/1/4 274/1/4
f 275/2/4 276/2/4 277/2/4
f 277/2/4 276/2/4 278/2/4
f 279/2/4 280/2/4 281/2/4
f 281/2/4 280/2/4 282/2/4
f 283/2/4 284/2/4 285/2/4
f 285/2/4 284/2/4 286/2/4
f 287/2/4 288/2/4 289/2/4
f 289/2/4 288/2/4 290/2/4
f 291/2/4 292/2/4 293/2/4
f 293/2/4 292/2/4 294/2/4
f 295/2/4 296/2/4 297/2/4
f 297/2/4 296/2/4 298/2/4
f 299/2/4 300/2/4 301/2/4
f 301/2/4 300/2/4 302/2/4
f 303/2/4 304/2/4 305/2/4
f 305/2/4 304/2/4 306/2/4
f 307/1/4 308/1/4 309/1/4
f 309/1/4 308/1/4 310/1/4
f 311/1/4 312/1/4 313/1/4
f 313/1/4 312/1/4 314/1/4
f 315/2/4 316/2/4 317/2/4
f 317/2/4 316/2/4 318/2/4
f 319/2/4 320/2/4 321/2/4
f 321/2/4 320/2/4 322/2/4
f 323/2/4 324/2/4 325/2/4
f 325/2/4 324/2/4 326/2/4
f 327/2/4 328/2/4 329/2/4
f 329/2/4 328/2/4 330/2/4
f 331/2/4 332/2/4 333/2/4
f 333/2/4 332/2/4 334/2/4
f 335/2/4 336/2/4 337/2/4
f 337/2/4 336/2/4 338/2/4
f 339/2/4 340/2/4 341/2/4
f 341/2/4 340/2/4 342/2/4
f 343/2/4 344/2/4 345/2/4
f 345/2/4 344/2/4 346/2/4
f 347/2/4 348/2/4 349/2/4
f 349/2/4 348/2/4 350/2/4
f 349/1/4 350/1/4 356/1/4
f 350/1/4 351/1/4 356/1/4
f 356/1/4 351/1/4 357/1/4
f 352/1/4 353/1/4 358/1/4
f 358/1/4 353/1/4 359/1/4
f 354/1/4 355/1/4 360/1/4
f 360/1/4 355/1/4 361/1/4
f 349/1/4 356/1/4 362/1/4
f 362/1/4 356/1/4 363/1/4
f 368/1/5 366/1/5 365/1/5
f 368/2/5 367/2/5 366/2/5
f 369/2/5 367/2/5 368/2/5
f 370/2/5 365/2/5 364/2/5
f 371/1/5 368/1/5 365/1/5
f 371/2/5 365/2/5 370/2/5
f 371/1/5 369/1/5 368/1/5
f 372/1/5 369/1/5 371/1/5
f 375/1/5 374/1/5 373/1/5
f 376/1/5 374/1/5 375/1/5
f 379/1/5 378/1/5 377/1/5
f 380/1/5 378/1/5 379/1/5
f 383/1/5 382/1/5 381/1/5
f 384/1/5 382/1/5 383/1/5
f 387/1/5 386/1/5 385/1/5
f 388/1/5 386/1/5 387/1/5
f 389/2/6 390/2/6 391/2/6
f 391/2/6 390/2/6 392/2/6
f 393/2/6 394/2/6 395/2/6
f 395/2/6 394/2/6 396/2/6
f 397/2/6 398/2/6 401/2/6
f 401/2/6 398/2/6 402/2/6
f 397/2/6 401/2/6 403/2/6
f 403/2/6 401/2/6 404/2/6
f 402/2/6 398/2/6 405/2/6
f 405/2/6 398/2/6 406/2/6
f 397/2/6 403/2/6 407/2/6
f 407/2/6 403/2/6 408/2/6
f 406/2/6 398/2/6 409/2/6
f 409/2/6 398/2/6 410/2/6
f 397/2/6 407/2/6 411/2/6
f 411/2/6 407/2/6 412/2/6
f 410/2/6 398/2/6 413/2/6
f 413/2/6 398/2/6 414/2/6
f 397/2/6 411/2/6 415/2/6
f 414/2/6 398/2/6 418/2/6
f 415/2/6 416/2/6 419/2/6
f 417/2/6 418/2/6 422/2/6
f 419/2/6 420/2/6 423/2/6
f 421/2/6 422/2/6 426/2/6
f 423/2/6 424/2/6 427/2/6
f 425/2/6 426/2/6 428/2/6
f 418/2/6 398/2/6 429/2/6
f 427/2/6 428/2/6 429/2/6
f 428/2/6 426/2/6 429/2/6
f 422/2/6 418/2/6 429/2/6
f 426/2/6 422/2/6 429/2/6
f 399/1/6 400/1/6 430/1/6
f 427/2/6 429/2/6 431/2/6
f 429/1/6 430/1/6 431/1/6
f 430/1/6 400/1/6 432/1/6
f 431/1/6 430/1/6 432/1/6
f 427/2/6 431/2/6 433/2/6
f 423/2/6 427/2/6 433/2/6
f 433/2/6 431/2/6 434/2/6
f 419/2/6 423/2/6 435/2/6
f 423/2/6 433/2/6 435/2/6
f 435/2/6 433/2/6 436/2/6
f 434/2/6 431/2/6 437/2/6
f 437/2/6 431/2/6 438/2/6
f 415/2/6 419/2/6 439/2/6
f 419/2/6 435/2/6 439/2/6
f 439/2/6 435/2/6 440/2/6
f 438/2/6 431/2/6 441/2/6
f 441/2/6 431/2/6 442/2/6
f 397/2/6 415/2/6 443/2/6
f 415/2/6 439/2/6 443/2/6
f 443/2/6 439/2/6 444/2/6
f 442/2/6 431/2/6 445/2/6
f 445/2/6 431/2/6 446/2/6
f 397/2/6 443/2/6 447/2/6
f 446/2/6 431/2/6 450/2/6
f 447/2/6 448/2/6 451/2/6
f 449/2/6 450/2/6 454/2/6
f 451/2/6 452/2/6 455/2/6
f 453/2/6 454/2/6 458/2/6
f 455/2/6 456/2/6 459/2/6
f 457/2/6 458/2/6 460/2/6
f 455/2/6 459/2/6 461/2/6
f 459/2/6 460/2/6 461/2/6
f 397/2/6 447/2/6 461/2/6
f 447/2/6 451/2/6 461/2/6
f 451/2/6 455/2/6 461/2/6
f 460/2/6 458/2/6 462/2/6
f 461/2/6 460/2/6 462/2/6
f 450/2/6 431/2/6 462/2/6
f 458/2/6 454/2/6 462/2/6
f 454/2/6 450/2/6 462/2/6
f 432/1/6 400/1/6 463/1/6
f 463/1/6 400/1/6 464/1/6
f 465/1/6 466/1/6 467/1/6
f 467/1/6 466/1/6 468/1/6
f 469/1/6 470/1/6 471/1/6
f 471/1/6 470/1/6 472/1/6
f 473/1/6 474/1/6 475/1/6
f 475/1/6 474/1/6 476/1/6
f 477/1/6 478/1/6 479/1/6
f 479/1/6 478/1/6 480/1/6
f 481/2/6 482/2/6 484/2/6
f 484/2/6 482/2/6 485/2/6
f 483/2/6 484/2/6 488/2/6
f 485/2/6 486/2/6 488/2/6
f 484/2/6 485/2/6 488/2/6
f 488/2/6 486/2/6 489/2/6
f 487/2/6 488/2/6 492/2/6
f 489/2/6 490/2/6 492/2/6
f 488/2/6 489/2/6 492/2/6
f 492/2/6 490/2/6 493/2/6
f 491/2/6 492/2/6 495/2/6
f 493/2/6 494/2/6 495/2/6
f 492/2/6 493/2/6 495/2/6
f 495/2/6 494/2/6 496/2/6
f 491/2/6 495/2/6 497/2/6
f 496/2/6 494/2/6 498/2/6
f 491/2/6 497/2/6 499/2/6
f 497/2/6 498/2/6 499/2/6
f 499/2/6 498/2/6 500/2/6
f 498/2/6 494/2/6 501/2/6
f 500/2/6 498/2/6 501/2/6
f 501/2/6 494/2/6 502/2/6
f 500/2/6 501/2/6 503/2/6
f 503/2/6 501/2/6 504/2/6
f 504/2/6 501/2/6 505/2/6
f 505/2/6 501/2/6 506/2/6
f 504/2/6 505/2/6 507/2/6
f 507/2/6 505/2/6 508/2/6
f 508/2/6 505/2/6 509/2/6
f 509/2/6 505/2/6 510/2/6
f 508/2/6 509/2/6 511/2/6
f 511/2/6 509/2/6 512/2/6
f 513/2/6 514/2/6 516/2/6
f 516/2/6 514/2/6 517/2/6
f 516/2/6 517/2/6 520/2/6
f 517/2/6 518/2/6 520/2/6
f 515/2/6 516/2/6 520/2/6
f 520/2/6 518/2/6 521/2/6
f 520/2/6 521/2/6 524/2/6
f 521/2/6 522/2/6 524/2/6
f 519/2/6 520/2/6 524/2/6
f 524/2/6 522/2/6 525/2/6
f 524/2/6 525/2/6 527/2/6
f 525/2/6 526/2/6 527/2/6
f 523/2/6 524/2/6 527/2/6
f 527/2/6 526/2/6 528/2/6
f 523/2/6 527/2/6 529/2/6
f 528/2/6 526/2/6 530/2/6
f 523/2/6 529/2/6 531/2/6
f 529/2/6 530/2/6 531/2/6
f 531/2/6 530/2/6 532/2/6
f 530/2/6 526/2/6 533/2/6
f 532/2/6 530/2/6 533/2/6
f 533/2/6 526/2/6 534/2/6
f 532/2/6 533/2/6 535/2/6
f 535/2/6 533/2/6 536/2/6
f 536/2/6 533/2/6 537/2/6
f 537/2/6 533/2/6 538/2/6
f 536/2/6 537/2/6 539/2/6
f 539/2/6 537/2/6 540/2/6
f 540/2/6 537/2/6 541/2/6
f 541/2/6 537/2/6 542/2/6
f 540/2/6 541/2/6 543/2/6
f 543/2/6 541/2/6 544/2/6
f 477/1/6 479/1/6 545/1/6
f 545/1/6 479/1/6 546/1/6
