# MagicaVoxel @ Ephtracy

# group
g 2x2 first (1)-3

# material
mtllib 2x2 first (1)-3.mtl
usemtl palette

# normals
vn -1 0 0
vn 1 0 0
vn 0 0 1
vn 0 0 -1
vn 0 -1 0
vn 0 1 0

# texcoords
vt 0.419922 0.5
vt 0.966797 0.5
vt 0.978516 0.5

# verts
v -63 0 63
v -63 0 -63
v -63 4 61
v -63 4 -63
v -63 5 63
v -63 5 62
v -63 5 61
v -63 5 -63
v -63 35 63
v -63 35 62
v -63 80 63
v -63 80 61
v 61 5 61
v 61 5 -63
v 61 80 61
v 61 80 -63
v 63 0 63
v 63 0 -63
v 63 15 -1
v 63 15 -7
v 63 15 -44
v 63 15 -46
v 63 16 -22
v 63 16 -33
v 63 18 -1
v 63 18 -7
v 63 19 -44
v 63 19 -46
v 63 22 -14
v 63 22 -22
v 63 22 -33
v 63 22 -42
v 63 23 2
v 63 23 1
v 63 23 -8
v 63 23 -14
v 63 24 2
v 63 24 1
v 63 35 -8
v 63 35 -11
v 63 40 -11
v 63 40 -15
v 63 45 -15
v 63 45 -26
v 63 45 -29
v 63 45 -34
v 63 45 -41
v 63 45 -42
v 63 46 -29
v 63 46 -31
v 63 47 -29
v 63 47 -31
v 63 47 -34
v 63 47 -41
v 63 48 -9
v 63 48 -14
v 63 49 -26
v 63 49 -29
v 63 51 -6
v 63 51 -9
v 63 52 -6
v 63 52 -9
v 63 53 -9
v 63 53 -11
v 63 53 -14
v 63 53 -21
v 63 59 -11
v 63 59 -21
v 63 80 63
v 63 80 -63
v -63 0 63
v -63 5 63
v -63 35 63
v -63 80 63
v -62 1 63
v -62 5 63
v -61 35 63
v -61 40 63
v -60 1 63
v -60 5 63
v -59 3 63
v -59 5 63
v -56 43 63
v -56 48 63
v -55 35 63
v -55 40 63
v -54 3 63
v -54 5 63
v -52 43 63
v -52 48 63
v -50 23 63
v -50 35 63
v -50 39 63
v -50 41 63
v -47 39 63
v -47 41 63
v -46 5 63
v -46 7 63
v -46 8 63
v -46 13 63
v -46 19 63
v -46 23 63
v -45 32 63
v -45 37 63
v -43 7 63
v -43 8 63
v -43 9 63
v -43 12 63
v -43 13 63
v -43 19 63
v -42 22 63
v -42 23 63
v -41 9 63
v -41 12 63
v -41 22 63
v -41 23 63
v -41 32 63
v -41 37 63
v 63 0 63
v 63 80 63
v -63 5 61
v -63 80 61
v 61 5 61
v 61 80 61
v -63 0 -63
v -63 4 -63
v -63 5 -63
v 61 4 -63
v 61 5 -63
v 61 80 -63
v 63 0 -63
v 63 80 -63
v -63 0 63
v 63 0 63
v -63 0 -63
v 63 0 -63
v -63 5 61
v 61 5 61
v -63 5 -63
v 61 5 -63
v -63 80 63
v 63 80 63
v -63 80 61
v 61 80 61
v 61 80 -63
v 63 80 -63

# faces
f 3/2/1 2/2/1 1/2/1
f 4/2/1 2/2/1 3/2/1
f 5/2/1 3/2/1 1/2/1
f 6/2/1 3/2/1 5/2/1
f 7/1/1 4/1/1 3/1/1
f 7/2/1 3/2/1 6/2/1
f 8/1/1 4/1/1 7/1/1
f 9/3/1 6/3/1 5/3/1
f 10/2/1 7/2/1 6/2/1
f 10/3/1 6/3/1 9/3/1
f 11/2/1 10/2/1 9/2/1
f 12/2/1 7/2/1 10/2/1
f 12/2/1 10/2/1 11/2/1
f 15/2/1 14/2/1 13/2/1
f 16/2/1 14/2/1 15/2/1
f 17/2/2 18/2/2 19/2/2
f 19/2/2 18/2/2 20/2/2
f 20/2/2 18/2/2 21/2/2
f 21/2/2 18/2/2 22/2/2
f 20/2/2 21/2/2 23/2/2
f 23/2/2 21/2/2 24/2/2
f 17/2/2 19/2/2 25/2/2
f 19/3/2 20/3/2 25/3/2
f 20/2/2 23/2/2 26/2/2
f 25/3/2 20/3/2 26/3/2
f 24/2/2 21/2/2 27/2/2
f 21/3/2 22/3/2 27/3/2
f 22/2/2 18/2/2 28/2/2
f 27/3/2 22/3/2 28/3/2
f 26/2/2 23/2/2 29/2/2
f 25/2/2 26/2/2 29/2/2
f 23/3/2 24/3/2 30/3/2
f 29/2/2 23/2/2 30/2/2
f 24/2/2 27/2/2 31/2/2
f 30/3/2 24/3/2 31/3/2
f 27/2/2 28/2/2 31/2/2
f 31/2/2 28/2/2 32/2/2
f 25/2/2 29/2/2 33/2/2
f 17/2/2 25/2/2 33/2/2
f 33/2/2 29/2/2 34/2/2
f 34/2/2 29/2/2 35/2/2
f 29/3/2 30/3/2 36/3/2
f 35/2/2 29/2/2 36/2/2
f 31/3/2 32/3/2 36/3/2
f 30/3/2 31/3/2 36/3/2
f 33/3/2 34/3/2 37/3/2
f 17/2/2 33/2/2 37/2/2
f 34/2/2 35/2/2 38/2/2
f 37/3/2 34/3/2 38/3/2
f 35/3/2 36/3/2 39/3/2
f 38/2/2 35/2/2 39/2/2
f 37/2/2 38/2/2 39/2/2
f 39/3/2 36/3/2 40/3/2
f 39/2/2 40/2/2 41/2/2
f 40/3/2 36/3/2 41/3/2
f 36/3/2 32/3/2 42/3/2
f 41/3/2 36/3/2 42/3/2
f 41/2/2 42/2/2 43/2/2
f 42/3/2 32/3/2 43/3/2
f 43/3/2 32/3/2 44/3/2
f 44/3/2 32/3/2 45/3/2
f 45/3/2 32/3/2 46/3/2
f 46/3/2 32/3/2 47/3/2
f 32/2/2 28/2/2 48/2/2
f 47/3/2 32/3/2 48/3/2
f 44/3/2 45/3/2 49/3/2
f 45/2/2 46/2/2 49/2/2
f 49/2/2 46/2/2 50/2/2
f 44/3/2 49/3/2 51/3/2
f 49/3/2 50/3/2 51/3/2
f 50/2/2 46/2/2 52/2/2
f 51/3/2 50/3/2 52/3/2
f 46/3/2 47/3/2 53/3/2
f 52/2/2 46/2/2 53/2/2
f 47/2/2 48/2/2 54/2/2
f 53/3/2 47/3/2 54/3/2
f 39/2/2 41/2/2 55/2/2
f 41/2/2 43/2/2 55/2/2
f 43/2/2 44/2/2 55/2/2
f 55/2/2 44/2/2 56/2/2
f 44/3/2 51/3/2 57/3/2
f 56/2/2 44/2/2 57/2/2
f 51/2/2 52/2/2 58/2/2
f 57/3/2 51/3/2 58/3/2
f 53/2/2 54/2/2 58/2/2
f 52/2/2 53/2/2 58/2/2
f 37/2/2 39/2/2 59/2/2
f 39/2/2 55/2/2 59/2/2
f 55/3/2 56/3/2 60/3/2
f 59/2/2 55/2/2 60/2/2
f 37/2/2 59/2/2 61/2/2
f 59/3/2 60/3/2 61/3/2
f 60/3/2 56/3/2 62/3/2
f 61/3/2 60/3/2 62/3/2
f 61/2/2 62/2/2 63/2/2
f 62/3/2 56/3/2 63/3/2
f 63/3/2 56/3/2 64/3/2
f 56/2/2 57/2/2 65/2/2
f 64/3/2 56/3/2 65/3/2
f 57/2/2 58/2/2 65/2/2
f 65/2/2 58/2/2 66/2/2
f 63/2/2 64/2/2 67/2/2
f 64/3/2 65/3/2 67/3/2
f 65/3/2 66/3/2 67/3/2
f 66/2/2 58/2/2 68/2/2
f 67/3/2 66/3/2 68/3/2
f 63/2/2 67/2/2 69/2/2
f 17/2/2 37/2/2 69/2/2
f 67/2/2 68/2/2 69/2/2
f 61/2/2 63/2/2 69/2/2
f 37/2/2 61/2/2 69/2/2
f 28/2/2 18/2/2 70/2/2
f 69/2/2 68/2/2 70/2/2
f 68/2/2 58/2/2 70/2/2
f 58/2/2 54/2/2 70/2/2
f 54/2/2 48/2/2 70/2/2
f 48/2/2 28/2/2 70/2/2
f 75/2/3 72/2/3 71/2/3
f 76/3/3 73/3/3 72/3/3
f 76/2/3 72/2/3 75/2/3
f 77/2/3 74/2/3 73/2/3
f 77/3/3 73/3/3 76/3/3
f 77/3/3 76/3/3 75/3/3
f 78/2/3 74/2/3 77/2/3
f 79/2/3 75/2/3 71/2/3
f 79/3/3 77/3/3 75/3/3
f 79/3/3 78/3/3 77/3/3
f 80/3/3 78/3/3 79/3/3
f 81/2/3 80/2/3 79/2/3
f 82/3/3 78/3/3 80/3/3
f 82/2/3 80/2/3 81/2/3
f 83/2/3 74/2/3 78/2/3
f 84/2/3 74/2/3 83/2/3
f 85/3/3 78/3/3 82/3/3
f 85/3/3 82/3/3 81/3/3
f 86/2/3 83/2/3 78/2/3
f 86/3/3 78/3/3 85/3/3
f 87/2/3 81/2/3 79/2/3
f 87/3/3 85/3/3 81/3/3
f 88/3/3 85/3/3 87/3/3
f 89/2/3 83/2/3 86/2/3
f 89/3/3 84/3/3 83/3/3
f 89/2/3 86/2/3 85/2/3
f 90/2/3 74/2/3 84/2/3
f 90/3/3 84/3/3 89/3/3
f 91/3/3 85/3/3 88/3/3
f 92/2/3 89/2/3 85/2/3
f 92/3/3 85/3/3 91/3/3
f 92/2/3 90/2/3 89/2/3
f 93/2/3 90/2/3 92/2/3
f 94/2/3 90/2/3 93/2/3
f 95/2/3 92/2/3 91/2/3
f 95/2/3 93/2/3 92/2/3
f 95/3/3 94/3/3 93/3/3
f 96/2/3 90/2/3 94/2/3
f 96/3/3 94/3/3 95/3/3
f 97/3/3 91/3/3 88/3/3
f 97/2/3 88/2/3 87/2/3
f 98/3/3 91/3/3 97/3/3
f 99/3/3 91/3/3 98/3/3
f 100/3/3 91/3/3 99/3/3
f 101/3/3 91/3/3 100/3/3
f 102/2/3 96/2/3 95/2/3
f 102/3/3 91/3/3 101/3/3
f 102/2/3 95/2/3 91/2/3
f 103/2/3 102/2/3 101/2/3
f 103/2/3 96/2/3 102/2/3
f 104/2/3 96/2/3 103/2/3
f 105/2/3 98/2/3 97/2/3
f 105/3/3 99/3/3 98/3/3
f 106/2/3 100/2/3 99/2/3
f 106/3/3 99/3/3 105/3/3
f 107/2/3 100/2/3 106/2/3
f 108/2/3 100/2/3 107/2/3
f 109/3/3 101/3/3 100/3/3
f 109/2/3 100/2/3 108/2/3
f 110/2/3 103/2/3 101/2/3
f 110/3/3 101/3/3 109/3/3
f 111/2/3 109/2/3 108/2/3
f 111/2/3 103/2/3 110/2/3
f 111/2/3 110/2/3 109/2/3
f 112/2/3 103/2/3 111/2/3
f 113/3/3 108/3/3 107/3/3
f 113/2/3 107/2/3 106/2/3
f 113/2/3 106/2/3 105/2/3
f 114/2/3 111/2/3 108/2/3
f 114/3/3 108/3/3 113/3/3
f 115/3/3 112/3/3 111/3/3
f 115/2/3 111/2/3 114/2/3
f 116/2/3 103/2/3 112/2/3
f 116/3/3 112/3/3 115/3/3
f 117/3/3 104/3/3 103/3/3
f 117/2/3 103/2/3 116/2/3
f 118/2/3 96/2/3 104/2/3
f 118/3/3 104/3/3 117/3/3
f 119/2/3 79/2/3 71/2/3
f 119/2/3 115/2/3 114/2/3
f 119/2/3 118/2/3 117/2/3
f 119/2/3 113/2/3 105/2/3
f 119/2/3 114/2/3 113/2/3
f 119/2/3 116/2/3 115/2/3
f 119/2/3 117/2/3 116/2/3
f 119/2/3 97/2/3 87/2/3
f 119/2/3 105/2/3 97/2/3
f 119/2/3 87/2/3 79/2/3
f 120/2/3 90/2/3 96/2/3
f 120/2/3 118/2/3 119/2/3
f 120/2/3 96/2/3 118/2/3
f 120/2/3 74/2/3 90/2/3
f 121/2/4 122/2/4 123/2/4
f 123/2/4 122/2/4 124/2/4
f 125/2/4 126/2/4 128/2/4
f 126/1/4 127/1/4 128/1/4
f 128/1/4 127/1/4 129/1/4
f 125/2/4 128/2/4 131/2/4
f 129/2/4 130/2/4 131/2/4
f 128/2/4 129/2/4 131/2/4
f 131/2/4 130/2/4 132/2/4
f 135/2/5 134/2/5 133/2/5
f 136/2/5 134/2/5 135/2/5
f 137/1/6 138/1/6 139/1/6
f 139/1/6 138/1/6 140/1/6
f 141/2/6 142/2/6 143/2/6
f 143/2/6 142/2/6 144/2/6
f 144/2/6 142/2/6 145/2/6
f 145/2/6 142/2/6 146/2/6
