# MagicaVoxel @ Ephtracy

# group
g 2x2 first (1)-2

# material
mtllib 2x2 first (1)-2.mtl
usemtl palette

# normals
vn -1 0 0
vn 1 0 0
vn 0 0 1
vn 0 0 -1
vn 0 -1 0
vn 0 1 0

# texcoords
vt 0.419922 0.5
vt 0.966797 0.5
vt 0.974609 0.5
vt 0.978516 0.5

# verts
v -63 0 63
v -63 0 -63
v -63 4 63
v -63 4 -61
v -63 5 63
v -63 5 -61
v -63 80 -61
v -63 80 -63
v 61 5 63
v 61 5 -61
v 61 80 63
v 61 80 -61
v 63 0 63
v 63 0 -62
v 63 0 -63
v 63 48 16
v 63 48 9
v 63 51 5
v 63 51 -9
v 63 54 16
v 63 54 9
v 63 56 30
v 63 56 18
v 63 58 18
v 63 58 5
v 63 62 42
v 63 62 30
v 63 62 -9
v 63 62 -14
v 63 67 -9
v 63 67 -14
v 63 69 -13
v 63 69 -14
v 63 74 42
v 63 74 28
v 63 74 -13
v 63 74 -14
v 63 80 63
v 63 80 28
v 63 80 -9
v 63 80 -62
v 63 80 -63
v -63 0 63
v -63 4 63
v -63 5 63
v 61 4 63
v 61 5 63
v 61 80 63
v 63 0 63
v 63 80 63
v -63 5 -61
v -63 80 -61
v 61 5 -61
v 61 80 -61
v -63 0 -63
v -63 80 -63
v 62 0 -63
v 62 80 -63
v 63 0 -63
v 63 80 -63
v -63 0 63
v 63 0 63
v 62 0 -62
v 63 0 -62
v -63 0 -63
v 62 0 -63
v 63 0 -63
v -63 5 63
v 61 5 63
v -33 5 32
v -32 5 32
v -33 5 31
v -32 5 31
v -63 5 -61
v 61 5 -61
v 61 80 63
v 63 80 63
v 62 80 28
v 63 80 28
v 62 80 -9
v 63 80 -9
v -63 80 -61
v 61 80 -61
v 62 80 -62
v 63 80 -62
v -63 80 -63
v 62 80 -63
v 63 80 -63

# faces
f 3/2/1 2/2/1 1/2/1
f 4/2/1 2/2/1 3/2/1
f 5/1/1 4/1/1 3/1/1
f 6/2/1 2/2/1 4/2/1
f 6/1/1 4/1/1 5/1/1
f 7/2/1 2/2/1 6/2/1
f 8/2/1 2/2/1 7/2/1
f 11/2/1 10/2/1 9/2/1
f 12/2/1 10/2/1 11/2/1
f 13/2/2 14/2/2 16/2/2
f 16/2/2 14/2/2 17/2/2
f 17/2/2 14/2/2 18/2/2
f 18/2/2 14/2/2 19/2/2
f 13/2/2 16/2/2 20/2/2
f 16/4/2 17/4/2 20/4/2
f 17/2/2 18/2/2 21/2/2
f 20/4/2 17/4/2 21/4/2
f 13/2/2 20/2/2 22/2/2
f 20/2/2 21/2/2 22/2/2
f 22/2/2 21/2/2 23/2/2
f 22/4/2 23/4/2 24/4/2
f 23/2/2 21/2/2 24/2/2
f 18/4/2 19/4/2 25/4/2
f 24/2/2 21/2/2 25/2/2
f 21/2/2 18/2/2 25/2/2
f 13/2/2 22/2/2 26/2/2
f 22/4/2 24/4/2 27/4/2
f 26/2/2 22/2/2 27/2/2
f 24/4/2 25/4/2 27/4/2
f 19/2/2 14/2/2 28/2/2
f 27/4/2 25/4/2 28/4/2
f 25/4/2 19/4/2 28/4/2
f 28/2/2 14/2/2 29/2/2
f 26/4/2 27/4/2 30/4/2
f 27/4/2 28/4/2 30/4/2
f 28/4/2 29/4/2 30/4/2
f 29/2/2 14/2/2 31/2/2
f 30/4/2 29/4/2 31/4/2
f 30/2/2 31/2/2 32/2/2
f 31/2/2 14/2/2 33/2/2
f 32/2/2 31/2/2 33/2/2
f 26/4/2 30/4/2 34/4/2
f 13/2/2 26/2/2 34/2/2
f 34/4/2 30/4/2 35/4/2
f 32/4/2 33/4/2 36/4/2
f 30/2/2 32/2/2 36/2/2
f 33/2/2 14/2/2 37/2/2
f 36/4/2 33/4/2 37/4/2
f 34/2/2 35/2/2 38/2/2
f 13/2/2 34/2/2 38/2/2
f 35/4/2 30/4/2 39/4/2
f 38/2/2 35/2/2 39/2/2
f 30/2/2 36/2/2 40/2/2
f 39/4/2 30/4/2 40/4/2
f 36/2/2 37/2/2 40/2/2
f 14/3/2 15/3/2 41/3/2
f 40/2/2 37/2/2 41/2/2
f 37/2/2 14/2/2 41/2/2
f 41/3/2 15/3/2 42/3/2
f 46/2/3 44/2/3 43/2/3
f 46/1/3 45/1/3 44/1/3
f 47/1/3 45/1/3 46/1/3
f 49/2/3 46/2/3 43/2/3
f 49/2/3 48/2/3 47/2/3
f 49/2/3 47/2/3 46/2/3
f 50/2/3 48/2/3 49/2/3
f 53/2/3 52/2/3 51/2/3
f 54/2/3 52/2/3 53/2/3
f 55/2/4 56/2/4 57/2/4
f 57/2/4 56/2/4 58/2/4
f 57/3/4 58/3/4 59/3/4
f 59/3/4 58/3/4 60/3/4
f 63/2/5 62/2/5 61/2/5
f 64/2/5 62/2/5 63/2/5
f 65/2/5 63/2/5 61/2/5
f 66/3/5 64/3/5 63/3/5
f 66/2/5 63/2/5 65/2/5
f 67/3/5 64/3/5 66/3/5
f 68/1/6 69/1/6 70/1/6
f 70/1/6 69/1/6 71/1/6
f 68/1/6 70/1/6 72/1/6
f 70/4/6 71/4/6 72/4/6
f 71/1/6 69/1/6 73/1/6
f 72/4/6 71/4/6 73/4/6
f 68/1/6 72/1/6 74/1/6
f 72/1/6 73/1/6 74/1/6
f 73/1/6 69/1/6 75/1/6
f 74/1/6 73/1/6 75/1/6
f 76/2/6 77/2/6 78/2/6
f 78/2/6 77/2/6 79/2/6
f 76/2/6 78/2/6 80/2/6
f 78/4/6 79/4/6 80/4/6
f 80/4/6 79/4/6 81/4/6
f 76/2/6 80/2/6 83/2/6
f 80/2/6 81/2/6 83/2/6
f 83/2/6 81/2/6 84/2/6
f 82/2/6 83/2/6 84/2/6
f 84/2/6 81/2/6 85/2/6
f 82/2/6 84/2/6 86/2/6
f 84/3/6 85/3/6 87/3/6
f 86/2/6 84/2/6 87/2/6
f 87/3/6 85/3/6 88/3/6
