# MagicaVoxel @ Ephtracy

# group
g 2x2 first (2)-2

# material
mtllib 2x2 first (2)-2.mtl
usemtl palette

# normals
vn -1 0 0
vn 1 0 0
vn 0 0 1
vn 0 0 -1
vn 0 -1 0
vn 0 1 0

# texcoords
vt 0.416016 0.5
vt 0.419922 0.5
vt 0.966797 0.5
vt 0.974609 0.5
vt 0.978516 0.5

# verts
v -63 0 63
v -63 0 41
v -63 0 32
v -63 0 -63
v -63 4 63
v -63 4 41
v -63 4 32
v -63 4 25
v -63 4 -62
v -63 5 63
v -63 5 25
v -63 5 -61
v -63 5 -62
v -63 80 -61
v -63 80 -63
v 61 5 63
v 61 5 -61
v 61 80 63
v 61 80 -61
v 63 0 63
v 63 0 -62
v 63 0 -63
v 63 80 63
v 63 80 -62
v 63 80 -63
v -63 0 63
v -63 4 63
v -63 5 63
v -34 4 63
v -34 5 63
v 61 5 63
v 61 80 63
v 62 4 63
v 62 5 63
v 63 0 63
v 63 80 63
v -63 5 -61
v -63 80 -61
v 61 5 -61
v 61 80 -61
v -63 0 -63
v -63 80 -63
v -46 0 -63
v -46 5 -63
v -45 26 -63
v -45 27 -63
v -44 26 -63
v -44 27 -63
v -42 8 -63
v -42 13 -63
v -41 0 -63
v -41 3 -63
v -41 18 -63
v -41 28 -63
v -41 29 -63
v -41 33 -63
v -40 3 -63
v -40 5 -63
v -39 4 -63
v -39 8 -63
v -38 0 -63
v -38 4 -63
v -35 29 -63
v -35 33 -63
v -32 12 -63
v -32 13 -63
v -28 8 -63
v -28 12 -63
v -28 13 -63
v -28 16 -63
v -28 18 -63
v -28 28 -63
v -25 8 -63
v -25 11 -63
v -23 13 -63
v -23 16 -63
v -20 11 -63
v -20 12 -63
v -17 11 -63
v -17 12 -63
v -16 23 -63
v -16 25 -63
v -9 30 -63
v -9 31 -63
v -8 11 -63
v -8 19 -63
v -7 23 -63
v -7 25 -63
v -6 30 -63
v -6 31 -63
v 0 14 -63
v 0 19 -63
v 7 2 -63
v 7 14 -63
v 8 0 -63
v 8 2 -63
v 8 4 -63
v 8 7 -63
v 10 18 -63
v 10 19 -63
v 11 4 -63
v 11 7 -63
v 11 18 -63
v 11 19 -63
v 12 2 -63
v 12 9 -63
v 17 2 -63
v 17 9 -63
v 62 0 -63
v 62 80 -63
v 63 0 -63
v 63 80 -63
v -63 0 63
v 63 0 63
v -63 0 41
v -45 0 41
v -63 0 32
v -45 0 32
v -46 0 -62
v -41 0 -62
v -38 0 -62
v 8 0 -62
v 62 0 -62
v 63 0 -62
v -63 0 -63
v -46 0 -63
v -41 0 -63
v -38 0 -63
v 8 0 -63
v 62 0 -63
v 63 0 -63
v -63 5 63
v -34 5 63
v 61 5 63
v -41 5 55
v -38 5 55
v -37 5 55
v -34 5 55
v -38 5 51
v -37 5 51
v -41 5 50
v -38 5 50
v -41 5 46
v -38 5 46
v -41 5 45
v -37 5 45
v -41 5 42
v -37 5 42
v -35 5 40
v -27 5 40
v -45 5 38
v -41 5 38
v -35 5 38
v -27 5 38
v -41 5 34
v -35 5 34
v -51 5 32
v -45 5 32
v -51 5 31
v -50 5 31
v -51 5 30
v -50 5 30
v -47 5 29
v -45 5 29
v -47 5 27
v -45 5 27
v -41 5 26
v -35 5 26
v -63 5 25
v -51 5 25
v -63 5 -61
v 61 5 -61
v 61 80 63
v 63 80 63
v -63 80 -61
v 61 80 -61
v 62 80 -62
v 63 80 -62
v -63 80 -63
v 62 80 -63
v 63 80 -63

# faces
f 5/3/1 2/3/1 1/3/1
f 6/1/1 3/1/1 2/1/1
f 6/3/1 2/3/1 5/3/1
f 7/3/1 4/3/1 3/3/1
f 7/1/1 3/1/1 6/1/1
f 8/3/1 4/3/1 7/3/1
f 9/3/1 4/3/1 8/3/1
f 10/1/1 6/1/1 5/1/1
f 10/1/1 7/1/1 6/1/1
f 10/1/1 8/1/1 7/1/1
f 11/2/1 9/2/1 8/2/1
f 11/1/1 8/1/1 10/1/1
f 12/2/1 9/2/1 11/2/1
f 13/3/1 4/3/1 9/3/1
f 13/2/1 9/2/1 12/2/1
f 14/3/1 13/3/1 12/3/1
f 15/3/1 4/3/1 13/3/1
f 15/3/1 13/3/1 14/3/1
f 18/3/1 17/3/1 16/3/1
f 19/3/1 17/3/1 18/3/1
f 20/3/2 21/3/2 23/3/2
f 21/4/2 22/4/2 24/4/2
f 23/3/2 21/3/2 24/3/2
f 24/4/2 22/4/2 25/4/2
f 29/3/3 27/3/3 26/3/3
f 29/1/3 28/1/3 27/1/3
f 30/1/3 28/1/3 29/1/3
f 31/2/3 30/2/3 29/2/3
f 33/3/3 29/3/3 26/3/3
f 33/2/3 31/2/3 29/2/3
f 34/3/3 32/3/3 31/3/3
f 34/2/3 31/2/3 33/2/3
f 35/3/3 33/3/3 26/3/3
f 35/3/3 34/3/3 33/3/3
f 36/3/3 32/3/3 34/3/3
f 36/3/3 34/3/3 35/3/3
f 39/3/3 38/3/3 37/3/3
f 40/3/3 38/3/3 39/3/3
f 41/3/4 42/3/4 43/3/4
f 43/3/4 42/3/4 44/3/4
f 44/3/4 42/3/4 45/3/4
f 45/3/4 42/3/4 46/3/4
f 44/3/4 45/3/4 47/3/4
f 45/5/4 46/5/4 47/5/4
f 46/3/4 42/3/4 48/3/4
f 47/5/4 46/5/4 48/5/4
f 44/3/4 47/3/4 49/3/4
f 47/3/4 48/3/4 49/3/4
f 49/3/4 48/3/4 50/3/4
f 43/5/4 44/5/4 51/5/4
f 51/5/4 44/5/4 52/5/4
f 50/3/4 48/3/4 53/3/4
f 48/3/4 42/3/4 54/3/4
f 53/3/4 48/3/4 54/3/4
f 54/3/4 42/3/4 55/3/4
f 55/3/4 42/3/4 56/3/4
f 52/5/4 44/5/4 57/5/4
f 51/3/4 52/3/4 57/3/4
f 44/3/4 49/3/4 58/3/4
f 57/5/4 44/5/4 58/5/4
f 57/3/4 58/3/4 59/3/4
f 49/5/4 50/5/4 60/5/4
f 59/3/4 58/3/4 60/3/4
f 58/3/4 49/3/4 60/3/4
f 51/3/4 57/3/4 61/3/4
f 57/3/4 59/3/4 61/3/4
f 59/5/4 60/5/4 62/5/4
f 61/3/4 59/3/4 62/3/4
f 55/5/4 56/5/4 63/5/4
f 54/3/4 55/3/4 63/3/4
f 56/3/4 42/3/4 64/3/4
f 63/5/4 56/5/4 64/5/4
f 60/5/4 50/5/4 65/5/4
f 62/5/4 60/5/4 65/5/4
f 61/5/4 62/5/4 65/5/4
f 50/3/4 53/3/4 66/3/4
f 65/5/4 50/5/4 66/5/4
f 61/5/4 65/5/4 67/5/4
f 65/3/4 66/3/4 68/3/4
f 67/5/4 65/5/4 68/5/4
f 66/3/4 53/3/4 69/3/4
f 68/3/4 66/3/4 69/3/4
f 69/3/4 53/3/4 70/3/4
f 53/5/4 54/5/4 71/5/4
f 70/3/4 53/3/4 71/3/4
f 54/3/4 63/3/4 72/3/4
f 71/5/4 54/5/4 72/5/4
f 63/3/4 64/3/4 72/3/4
f 67/3/4 68/3/4 73/3/4
f 68/3/4 69/3/4 73/3/4
f 61/5/4 67/5/4 73/5/4
f 73/3/4 69/3/4 74/3/4
f 69/5/4 70/5/4 75/5/4
f 74/3/4 69/3/4 75/3/4
f 70/3/4 71/3/4 76/3/4
f 75/5/4 70/5/4 76/5/4
f 71/3/4 72/3/4 76/3/4
f 74/3/4 75/3/4 77/3/4
f 73/5/4 74/5/4 77/5/4
f 75/3/4 76/3/4 77/3/4
f 77/3/4 76/3/4 78/3/4
f 73/5/4 77/5/4 79/5/4
f 77/5/4 78/5/4 79/5/4
f 78/3/4 76/3/4 80/3/4
f 79/5/4 78/5/4 80/5/4
f 76/3/4 72/3/4 81/3/4
f 80/3/4 76/3/4 81/3/4
f 79/3/4 80/3/4 81/3/4
f 81/3/4 72/3/4 82/3/4
f 72/3/4 64/3/4 83/3/4
f 82/3/4 72/3/4 83/3/4
f 83/3/4 64/3/4 84/3/4
f 73/5/4 79/5/4 85/5/4
f 79/3/4 81/3/4 85/3/4
f 85/3/4 81/3/4 86/3/4
f 81/5/4 82/5/4 87/5/4
f 86/3/4 81/3/4 87/3/4
f 82/3/4 83/3/4 88/3/4
f 87/5/4 82/5/4 88/5/4
f 83/5/4 84/5/4 89/5/4
f 88/3/4 83/3/4 89/3/4
f 87/3/4 88/3/4 89/3/4
f 84/3/4 64/3/4 90/3/4
f 89/5/4 84/5/4 90/5/4
f 85/5/4 86/5/4 91/5/4
f 87/3/4 89/3/4 92/3/4
f 91/5/4 86/5/4 92/5/4
f 86/3/4 87/3/4 92/3/4
f 89/3/4 90/3/4 92/3/4
f 85/5/4 91/5/4 93/5/4
f 61/5/4 73/5/4 93/5/4
f 73/5/4 85/5/4 93/5/4
f 91/3/4 92/3/4 94/3/4
f 93/5/4 91/5/4 94/5/4
f 61/5/4 93/5/4 95/5/4
f 93/3/4 94/3/4 96/3/4
f 95/5/4 93/5/4 96/5/4
f 96/3/4 94/3/4 97/3/4
f 97/3/4 94/3/4 98/3/4
f 94/3/4 92/3/4 99/3/4
f 98/3/4 94/3/4 99/3/4
f 92/3/4 90/3/4 100/3/4
f 99/3/4 92/3/4 100/3/4
f 97/5/4 98/5/4 101/5/4
f 95/3/4 96/3/4 101/3/4
f 96/3/4 97/3/4 101/3/4
f 98/3/4 99/3/4 102/3/4
f 101/5/4 98/5/4 102/5/4
f 99/5/4 100/5/4 103/5/4
f 102/3/4 99/3/4 103/3/4
f 100/3/4 90/3/4 104/3/4
f 103/5/4 100/5/4 104/5/4
f 95/3/4 101/3/4 105/3/4
f 102/3/4 103/3/4 105/3/4
f 103/3/4 104/3/4 105/3/4
f 101/3/4 102/3/4 105/3/4
f 105/3/4 104/3/4 106/3/4
f 95/3/4 105/3/4 107/3/4
f 105/5/4 106/5/4 107/5/4
f 106/3/4 104/3/4 108/3/4
f 107/5/4 106/5/4 108/5/4
f 95/3/4 107/3/4 109/3/4
f 107/3/4 108/3/4 109/3/4
f 104/3/4 90/3/4 110/3/4
f 109/3/4 108/3/4 110/3/4
f 90/3/4 64/3/4 110/3/4
f 108/3/4 104/3/4 110/3/4
f 64/3/4 42/3/4 110/3/4
f 109/4/4 110/4/4 111/4/4
f 111/4/4 110/4/4 112/4/4
f 115/3/5 114/3/5 113/3/5
f 116/3/5 114/3/5 115/3/5
f 117/1/5 116/1/5 115/1/5
f 118/3/5 114/3/5 116/3/5
f 118/1/5 116/1/5 117/1/5
f 119/3/5 118/3/5 117/3/5
f 120/3/5 114/3/5 118/3/5
f 120/3/5 118/3/5 119/3/5
f 121/3/5 114/3/5 120/3/5
f 122/3/5 114/3/5 121/3/5
f 123/3/5 114/3/5 122/3/5
f 124/3/5 114/3/5 123/3/5
f 125/3/5 119/3/5 117/3/5
f 126/5/5 120/5/5 119/5/5
f 126/3/5 119/3/5 125/3/5
f 127/3/5 121/3/5 120/3/5
f 127/5/5 120/5/5 126/5/5
f 128/5/5 122/5/5 121/5/5
f 128/3/5 121/3/5 127/3/5
f 129/3/5 123/3/5 122/3/5
f 129/5/5 122/5/5 128/5/5
f 130/4/5 124/4/5 123/4/5
f 130/3/5 123/3/5 129/3/5
f 131/4/5 124/4/5 130/4/5
f 132/1/6 133/1/6 135/1/6
f 135/1/6 133/1/6 136/1/6
f 136/1/6 133/1/6 137/1/6
f 133/2/6 134/2/6 138/2/6
f 137/1/6 133/1/6 138/1/6
f 136/1/6 137/1/6 139/1/6
f 135/2/6 136/2/6 139/2/6
f 137/2/6 138/2/6 140/2/6
f 139/1/6 137/1/6 140/1/6
f 132/1/6 135/1/6 141/1/6
f 135/2/6 139/2/6 141/2/6
f 139/2/6 140/2/6 141/2/6
f 141/2/6 140/2/6 142/2/6
f 132/1/6 141/1/6 143/1/6
f 141/1/6 142/1/6 143/1/6
f 142/2/6 140/2/6 144/2/6
f 143/1/6 142/1/6 144/1/6
f 132/1/6 143/1/6 145/1/6
f 143/2/6 144/2/6 145/2/6
f 140/2/6 138/2/6 146/2/6
f 145/2/6 144/2/6 146/2/6
f 144/2/6 140/2/6 146/2/6
f 132/1/6 145/1/6 147/1/6
f 145/1/6 146/1/6 147/1/6
f 146/2/6 138/2/6 148/2/6
f 147/1/6 146/1/6 148/1/6
f 147/2/6 148/2/6 149/2/6
f 148/2/6 138/2/6 149/2/6
f 138/2/6 134/2/6 150/2/6
f 149/2/6 138/2/6 150/2/6
f 132/1/6 147/1/6 151/1/6
f 147/2/6 149/2/6 152/2/6
f 151/1/6 147/1/6 152/1/6
f 149/1/6 150/1/6 153/1/6
f 152/2/6 149/2/6 153/2/6
f 150/2/6 134/2/6 154/2/6
f 153/1/6 150/1/6 154/1/6
f 152/2/6 153/2/6 155/2/6
f 151/2/6 152/2/6 155/2/6
f 153/2/6 154/2/6 155/2/6
f 155/2/6 154/2/6 156/2/6
f 132/1/6 151/1/6 157/1/6
f 151/2/6 155/2/6 158/2/6
f 157/1/6 151/1/6 158/1/6
f 132/1/6 157/1/6 159/1/6
f 157/2/6 158/2/6 159/2/6
f 159/2/6 158/2/6 160/2/6
f 132/1/6 159/1/6 161/1/6
f 159/1/6 160/1/6 161/1/6
f 160/2/6 158/2/6 162/2/6
f 161/1/6 160/1/6 162/1/6
f 161/2/6 162/2/6 163/2/6
f 162/2/6 158/2/6 163/2/6
f 158/2/6 155/2/6 164/2/6
f 163/2/6 158/2/6 164/2/6
f 161/2/6 163/2/6 165/2/6
f 163/1/6 164/1/6 165/1/6
f 164/2/6 155/2/6 166/2/6
f 165/1/6 164/1/6 166/1/6
f 155/1/6 156/1/6 167/1/6
f 166/2/6 155/2/6 167/2/6
f 165/2/6 166/2/6 167/2/6
f 156/2/6 154/2/6 168/2/6
f 167/1/6 156/1/6 168/1/6
f 132/1/6 161/1/6 169/1/6
f 165/2/6 167/2/6 170/2/6
f 169/1/6 161/1/6 170/1/6
f 161/2/6 165/2/6 170/2/6
f 167/2/6 168/2/6 170/2/6
f 169/2/6 170/2/6 171/2/6
f 154/2/6 134/2/6 172/2/6
f 171/2/6 170/2/6 172/2/6
f 168/2/6 154/2/6 172/2/6
f 170/2/6 168/2/6 172/2/6
f 173/3/6 174/3/6 176/3/6
f 176/3/6 174/3/6 177/3/6
f 175/3/6 176/3/6 177/3/6
f 177/3/6 174/3/6 178/3/6
f 175/3/6 177/3/6 179/3/6
f 177/4/6 178/4/6 180/4/6
f 179/3/6 177/3/6 180/3/6
f 180/4/6 178/4/6 181/4/6
