# MagicaVoxel @ Ephtracy

# group
g 4x4 parc-5

# material
mtllib 4x4 parc-5.mtl
usemtl palette

# normals
vn -1 0 0
vn 1 0 0
vn 0 0 1
vn 0 0 -1
vn 0 -1 0
vn 0 1 0

# texcoords
vt 0.0332031 0.5
vt 0.904297 0.5
vt 0.974609 0.5
vt 0.982422 0.5

# verts
v -63 0 63
v -63 0 -63
v -63 5 63
v -63 5 -63
v -60 5 50
v -60 5 46
v -60 5 11
v -60 5 3
v -60 5 -30
v -60 5 -34
v -60 5 -50
v -60 5 -54
v -60 47 50
v -60 47 46
v -60 47 -30
v -60 47 -34
v -60 47 -50
v -60 47 -54
v -60 50 11
v -60 50 3
v -59 15 63
v -59 15 50
v -59 15 -34
v -59 15 -50
v -59 15 -54
v -59 15 -63
v -59 17 63
v -59 17 50
v -59 17 -34
v -59 17 -50
v -59 17 -54
v -59 17 -63
v -59 24 63
v -59 24 50
v -59 24 -34
v -59 24 -50
v -59 24 -54
v -59 24 -63
v -59 26 63
v -59 26 50
v -59 26 -34
v -59 26 -50
v -59 26 -54
v -59 26 -63
v -59 33 63
v -59 33 50
v -59 33 -34
v -59 33 -50
v -59 33 -54
v -59 33 -63
v -59 35 63
v -59 35 50
v -59 35 -34
v -59 35 -50
v -59 35 -54
v -59 35 -63
v -59 42 63
v -59 42 50
v -59 42 -34
v -59 42 -50
v -59 42 -54
v -59 42 -63
v -59 44 63
v -59 44 50
v -59 44 -34
v -59 44 -50
v -59 44 -54
v -59 44 -63
v -59 47 49
v -59 47 47
v -59 47 -31
v -59 47 -33
v -59 47 -51
v -59 47 -53
v -59 50 49
v -59 50 47
v -59 50 -31
v -59 50 -33
v -59 50 -51
v -59 50 -53
v -57 15 63
v -57 15 50
v -57 15 -34
v -57 15 -50
v -57 15 -54
v -57 15 -63
v -57 17 63
v -57 17 50
v -57 17 -34
v -57 17 -50
v -57 17 -54
v -57 17 -63
v -57 24 63
v -57 24 50
v -57 24 -34
v -57 24 -50
v -57 24 -54
v -57 24 -63
v -57 26 63
v -57 26 50
v -57 26 -34
v -57 26 -50
v -57 26 -54
v -57 26 -63
v -57 33 63
v -57 33 50
v -57 33 -34
v -57 33 -50
v -57 33 -54
v -57 33 -63
v -57 35 63
v -57 35 50
v -57 35 -34
v -57 35 -50
v -57 35 -54
v -57 35 -63
v -57 42 63
v -57 42 50
v -57 42 -34
v -57 42 -50
v -57 42 -54
v -57 42 -63
v -57 44 63
v -57 44 50
v -57 44 -34
v -57 44 -50
v -57 44 -54
v -57 44 -63
v -57 47 49
v -57 47 47
v -57 47 -31
v -57 47 -33
v -57 47 -51
v -57 47 -53
v -57 50 49
v -57 50 47
v -57 50 -31
v -57 50 -33
v -57 50 -51
v -57 50 -53
v -56 5 50
v -56 5 46
v -56 5 11
v -56 5 3
v -56 5 -30
v -56 5 -34
v -56 5 -50
v -56 5 -54
v -56 47 50
v -56 47 46
v -56 47 -30
v -56 47 -34
v -56 47 -50
v -56 47 -54
v -56 50 11
v -56 50 3
v -53 4 63
v -53 4 45
v -53 4 -30
v -53 4 -63
v -53 5 63
v -53 5 -63
v 63 0 63
v 63 0 -63
v 63 4 63
v 63 4 -63
v -63 0 63
v -63 5 63
v -59 15 63
v -59 17 63
v -59 24 63
v -59 26 63
v -59 33 63
v -59 35 63
v -59 42 63
v -59 44 63
v -57 15 63
v -57 17 63
v -57 24 63
v -57 26 63
v -57 33 63
v -57 35 63
v -57 42 63
v -57 44 63
v -53 0 63
v -53 4 63
v -53 5 63
v -9 3 63
v -9 4 63
v 26 3 63
v 26 4 63
v 63 0 63
v 63 4 63
v -60 5 50
v -60 47 50
v -59 15 50
v -59 17 50
v -59 24 50
v -59 26 50
v -59 33 50
v -59 35 50
v -59 42 50
v -59 44 50
v -57 15 50
v -57 17 50
v -57 24 50
v -57 26 50
v -57 33 50
v -57 35 50
v -57 42 50
v -57 44 50
v -56 5 50
v -56 47 50
v -59 47 49
v -59 50 49
v -57 47 49
v -57 50 49
v -60 5 11
v -60 50 11
v -56 5 11
v -56 50 11
v -60 5 -30
v -60 47 -30
v -56 5 -30
v -56 47 -30
v -59 47 -31
v -59 50 -31
v -57 47 -31
v -57 50 -31
v -60 5 -50
v -60 47 -50
v -59 15 -50
v -59 17 -50
v -59 24 -50
v -59 26 -50
v -59 33 -50
v -59 35 -50
v -59 42 -50
v -59 44 -50
v -57 15 -50
v -57 17 -50
v -57 24 -50
v -57 26 -50
v -57 33 -50
v -57 35 -50
v -57 42 -50
v -57 44 -50
v -56 5 -50
v -56 47 -50
v -59 47 -51
v -59 50 -51
v -57 47 -51
v -57 50 -51
v -59 47 47
v -59 50 47
v -57 47 47
v -57 50 47
v -60 5 46
v -60 47 46
v -56 5 46
v -56 47 46
v -60 5 3
v -60 50 3
v -56 5 3
v -56 50 3
v -59 47 -33
v -59 50 -33
v -57 47 -33
v -57 50 -33
v -60 5 -34
v -60 47 -34
v -59 15 -34
v -59 17 -34
v -59 24 -34
v -59 26 -34
v -59 33 -34
v -59 35 -34
v -59 42 -34
v -59 44 -34
v -57 15 -34
v -57 17 -34
v -57 24 -34
v -57 26 -34
v -57 33 -34
v -57 35 -34
v -57 42 -34
v -57 44 -34
v -56 5 -34
v -56 47 -34
v -59 47 -53
v -59 50 -53
v -57 47 -53
v -57 50 -53
v -60 5 -54
v -60 47 -54
v -59 15 -54
v -59 17 -54
v -59 24 -54
v -59 26 -54
v -59 33 -54
v -59 35 -54
v -59 42 -54
v -59 44 -54
v -57 15 -54
v -57 17 -54
v -57 24 -54
v -57 26 -54
v -57 33 -54
v -57 35 -54
v -57 42 -54
v -57 44 -54
v -56 5 -54
v -56 47 -54
v -63 0 -63
v -63 5 -63
v -59 15 -63
v -59 17 -63
v -59 24 -63
v -59 26 -63
v -59 33 -63
v -59 35 -63
v -59 42 -63
v -59 44 -63
v -57 15 -63
v -57 17 -63
v -57 24 -63
v -57 26 -63
v -57 33 -63
v -57 35 -63
v -57 42 -63
v -57 44 -63
v -53 0 -63
v -53 4 -63
v -53 5 -63
v -9 0 -63
v -9 4 -63
v 26 0 -63
v 26 4 -63
v 63 0 -63
v 63 4 -63
v -63 0 63
v -53 0 63
v 63 0 63
v -9 0 3
v 26 0 3
v -63 0 -63
v -53 0 -63
v -9 0 -63
v 26 0 -63
v 63 0 -63
v -59 15 63
v -57 15 63
v -59 15 50
v -57 15 50
v -59 15 -34
v -57 15 -34
v -59 15 -50
v -57 15 -50
v -59 15 -54
v -57 15 -54
v -59 15 -63
v -57 15 -63
v -59 24 63
v -57 24 63
v -59 24 50
v -57 24 50
v -59 24 -34
v -57 24 -34
v -59 24 -50
v -57 24 -50
v -59 24 -54
v -57 24 -54
v -59 24 -63
v -57 24 -63
v -59 33 63
v -57 33 63
v -59 33 50
v -57 33 50
v -59 33 -34
v -57 33 -34
v -59 33 -50
v -57 33 -50
v -59 33 -54
v -57 33 -54
v -59 33 -63
v -57 33 -63
v -59 42 63
v -57 42 63
v -59 42 50
v -57 42 50
v -59 42 -34
v -57 42 -34
v -59 42 -50
v -57 42 -50
v -59 42 -54
v -57 42 -54
v -59 42 -63
v -57 42 -63
v -53 4 63
v -9 4 63
v 26 4 63
v 63 4 63
v -53 4 45
v -9 4 45
v -53 4 -30
v -9 4 -30
v -53 4 -63
v -9 4 -63
v 26 4 -63
v 63 4 -63
v -63 5 63
v -53 5 63
v -60 5 50
v -56 5 50
v -60 5 46
v -56 5 46
v -60 5 11
v -56 5 11
v -60 5 3
v -56 5 3
v -60 5 -30
v -56 5 -30
v -60 5 -34
v -56 5 -34
v -60 5 -50
v -56 5 -50
v -60 5 -54
v -56 5 -54
v -63 5 -63
v -53 5 -63
v -59 17 63
v -57 17 63
v -59 17 50
v -57 17 50
v -59 17 -34
v -57 17 -34
v -59 17 -50
v -57 17 -50
v -59 17 -54
v -57 17 -54
v -59 17 -63
v -57 17 -63
v -59 26 63
v -57 26 63
v -59 26 50
v -57 26 50
v -59 26 -34
v -57 26 -34
v -59 26 -50
v -57 26 -50
v -59 26 -54
v -57 26 -54
v -59 26 -63
v -57 26 -63
v -59 35 63
v -57 35 63
v -59 35 50
v -57 35 50
v -59 35 -34
v -57 35 -34
v -59 35 -50
v -57 35 -50
v -59 35 -54
v -57 35 -54
v -59 35 -63
v -57 35 -63
v -59 44 63
v -57 44 63
v -59 44 50
v -57 44 50
v -59 44 -34
v -57 44 -34
v -59 44 -50
v -57 44 -50
v -59 44 -54
v -57 44 -54
v -59 44 -63
v -57 44 -63
v -60 47 50
v -56 47 50
v -59 47 49
v -57 47 49
v -59 47 47
v -57 47 47
v -60 47 46
v -56 47 46
v -60 47 -30
v -56 47 -30
v -59 47 -31
v -57 47 -31
v -59 47 -33
v -57 47 -33
v -60 47 -34
v -56 47 -34
v -60 47 -50
v -56 47 -50
v -59 47 -51
v -57 47 -51
v -59 47 -53
v -57 47 -53
v -60 47 -54
v -56 47 -54
v -59 50 49
v -57 50 49
v -59 50 47
v -57 50 47
v -60 50 11
v -56 50 11
v -60 50 3
v -56 50 3
v -59 50 -31
v -57 50 -31
v -59 50 -33
v -57 50 -33
v -59 50 -51
v -57 50 -51
v -59 50 -53
v -57 50 -53

# faces
f 3/3/1 2/3/1 1/3/1
f 4/3/1 2/3/1 3/3/1
f 13/4/1 6/4/1 5/4/1
f 14/4/1 6/4/1 13/4/1
f 15/4/1 10/4/1 9/4/1
f 16/4/1 10/4/1 15/4/1
f 17/4/1 12/4/1 11/4/1
f 18/4/1 12/4/1 17/4/1
f 19/4/1 8/4/1 7/4/1
f 20/4/1 8/4/1 19/4/1
f 27/4/1 22/4/1 21/4/1
f 28/4/1 22/4/1 27/4/1
f 29/4/1 24/4/1 23/4/1
f 30/4/1 24/4/1 29/4/1
f 31/4/1 26/4/1 25/4/1
f 32/4/1 26/4/1 31/4/1
f 39/4/1 34/4/1 33/4/1
f 40/4/1 34/4/1 39/4/1
f 41/4/1 36/4/1 35/4/1
f 42/4/1 36/4/1 41/4/1
f 43/4/1 38/4/1 37/4/1
f 44/4/1 38/4/1 43/4/1
f 51/4/1 46/4/1 45/4/1
f 52/4/1 46/4/1 51/4/1
f 53/4/1 48/4/1 47/4/1
f 54/4/1 48/4/1 53/4/1
f 55/4/1 50/4/1 49/4/1
f 56/4/1 50/4/1 55/4/1
f 63/4/1 58/4/1 57/4/1
f 64/4/1 58/4/1 63/4/1
f 65/4/1 60/4/1 59/4/1
f 66/4/1 60/4/1 65/4/1
f 67/4/1 62/4/1 61/4/1
f 68/4/1 62/4/1 67/4/1
f 75/4/1 70/4/1 69/4/1
f 76/4/1 70/4/1 75/4/1
f 77/4/1 72/4/1 71/4/1
f 78/4/1 72/4/1 77/4/1
f 79/4/1 74/4/1 73/4/1
f 80/4/1 74/4/1 79/4/1
f 81/4/2 82/4/2 87/4/2
f 87/4/2 82/4/2 88/4/2
f 83/4/2 84/4/2 89/4/2
f 89/4/2 84/4/2 90/4/2
f 85/4/2 86/4/2 91/4/2
f 91/4/2 86/4/2 92/4/2
f 93/4/2 94/4/2 99/4/2
f 99/4/2 94/4/2 100/4/2
f 95/4/2 96/4/2 101/4/2
f 101/4/2 96/4/2 102/4/2
f 97/4/2 98/4/2 103/4/2
f 103/4/2 98/4/2 104/4/2
f 105/4/2 106/4/2 111/4/2
f 111/4/2 106/4/2 112/4/2
f 107/4/2 108/4/2 113/4/2
f 113/4/2 108/4/2 114/4/2
f 109/4/2 110/4/2 115/4/2
f 115/4/2 110/4/2 116/4/2
f 117/4/2 118/4/2 123/4/2
f 123/4/2 118/4/2 124/4/2
f 119/4/2 120/4/2 125/4/2
f 125/4/2 120/4/2 126/4/2
f 121/4/2 122/4/2 127/4/2
f 127/4/2 122/4/2 128/4/2
f 129/4/2 130/4/2 135/4/2
f 135/4/2 130/4/2 136/4/2
f 131/4/2 132/4/2 137/4/2
f 137/4/2 132/4/2 138/4/2
f 133/4/2 134/4/2 139/4/2
f 139/4/2 134/4/2 140/4/2
f 141/4/2 142/4/2 149/4/2
f 149/4/2 142/4/2 150/4/2
f 145/4/2 146/4/2 151/4/2
f 151/4/2 146/4/2 152/4/2
f 147/4/2 148/4/2 153/4/2
f 153/4/2 148/4/2 154/4/2
f 143/4/2 144/4/2 155/4/2
f 155/4/2 144/4/2 156/4/2
f 157/3/2 158/3/2 161/3/2
f 159/3/2 160/3/2 161/3/2
f 158/3/2 159/3/2 161/3/2
f 161/3/2 160/3/2 162/3/2
f 163/2/2 164/2/2 165/2/2
f 165/2/2 164/2/2 166/2/2
f 177/4/3 170/4/3 169/4/3
f 178/4/3 170/4/3 177/4/3
f 179/4/3 172/4/3 171/4/3
f 180/4/3 172/4/3 179/4/3
f 181/4/3 174/4/3 173/4/3
f 182/4/3 174/4/3 181/4/3
f 183/4/3 176/4/3 175/4/3
f 184/4/3 176/4/3 183/4/3
f 185/3/3 168/3/3 167/3/3
f 186/3/3 168/3/3 185/3/3
f 187/3/3 168/3/3 186/3/3
f 188/2/3 186/2/3 185/2/3
f 189/2/3 186/2/3 188/2/3
f 190/2/3 188/2/3 185/2/3
f 190/1/3 189/1/3 188/1/3
f 191/1/3 189/1/3 190/1/3
f 192/2/3 190/2/3 185/2/3
f 192/2/3 191/2/3 190/2/3
f 193/2/3 191/2/3 192/2/3
f 196/4/3 195/4/3 194/4/3
f 197/4/3 195/4/3 196/4/3
f 198/4/3 195/4/3 197/4/3
f 199/4/3 195/4/3 198/4/3
f 200/4/3 195/4/3 199/4/3
f 201/4/3 195/4/3 200/4/3
f 202/4/3 195/4/3 201/4/3
f 203/4/3 195/4/3 202/4/3
f 204/4/3 196/4/3 194/4/3
f 205/4/3 198/4/3 197/4/3
f 206/4/3 198/4/3 205/4/3
f 207/4/3 200/4/3 199/4/3
f 208/4/3 200/4/3 207/4/3
f 209/4/3 202/4/3 201/4/3
f 210/4/3 202/4/3 209/4/3
f 211/4/3 195/4/3 203/4/3
f 212/4/3 210/4/3 209/4/3
f 212/4/3 211/4/3 210/4/3
f 212/4/3 208/4/3 207/4/3
f 212/4/3 204/4/3 194/4/3
f 212/4/3 209/4/3 208/4/3
f 212/4/3 206/4/3 205/4/3
f 212/4/3 207/4/3 206/4/3
f 212/4/3 205/4/3 204/4/3
f 213/4/3 195/4/3 211/4/3
f 213/4/3 211/4/3 212/4/3
f 216/4/3 215/4/3 214/4/3
f 217/4/3 215/4/3 216/4/3
f 220/4/3 219/4/3 218/4/3
f 221/4/3 219/4/3 220/4/3
f 224/4/3 223/4/3 222/4/3
f 225/4/3 223/4/3 224/4/3
f 228/4/3 227/4/3 226/4/3
f 229/4/3 227/4/3 228/4/3
f 232/4/3 231/4/3 230/4/3
f 233/4/3 231/4/3 232/4/3
f 234/4/3 231/4/3 233/4/3
f 235/4/3 231/4/3 234/4/3
f 236/4/3 231/4/3 235/4/3
f 237/4/3 231/4/3 236/4/3
f 238/4/3 231/4/3 237/4/3
f 239/4/3 231/4/3 238/4/3
f 240/4/3 232/4/3 230/4/3
f 241/4/3 234/4/3 233/4/3
f 242/4/3 234/4/3 241/4/3
f 243/4/3 236/4/3 235/4/3
f 244/4/3 236/4/3 243/4/3
f 245/4/3 238/4/3 237/4/3
f 246/4/3 238/4/3 245/4/3
f 247/4/3 231/4/3 239/4/3
f 248/4/3 246/4/3 245/4/3
f 248/4/3 247/4/3 246/4/3
f 248/4/3 244/4/3 243/4/3
f 248/4/3 240/4/3 230/4/3
f 248/4/3 245/4/3 244/4/3
f 248/4/3 242/4/3 241/4/3
f 248/4/3 243/4/3 242/4/3
f 248/4/3 241/4/3 240/4/3
f 249/4/3 231/4/3 247/4/3
f 249/4/3 247/4/3 248/4/3
f 252/4/3 251/4/3 250/4/3
f 253/4/3 251/4/3 252/4/3
f 254/4/4 255/4/4 256/4/4
f 256/4/4 255/4/4 257/4/4
f 258/4/4 259/4/4 260/4/4
f 260/4/4 259/4/4 261/4/4
f 262/4/4 263/4/4 264/4/4
f 264/4/4 263/4/4 265/4/4
f 266/4/4 267/4/4 268/4/4
f 268/4/4 267/4/4 269/4/4
f 270/4/4 271/4/4 272/4/4
f 272/4/4 271/4/4 273/4/4
f 273/4/4 271/4/4 274/4/4
f 274/4/4 271/4/4 275/4/4
f 275/4/4 271/4/4 276/4/4
f 276/4/4 271/4/4 277/4/4
f 277/4/4 271/4/4 278/4/4
f 278/4/4 271/4/4 279/4/4
f 270/4/4 272/4/4 280/4/4
f 273/4/4 274/4/4 281/4/4
f 281/4/4 274/4/4 282/4/4
f 275/4/4 276/4/4 283/4/4
f 283/4/4 276/4/4 284/4/4
f 277/4/4 278/4/4 285/4/4
f 285/4/4 278/4/4 286/4/4
f 279/4/4 271/4/4 287/4/4
f 285/4/4 286/4/4 288/4/4
f 286/4/4 287/4/4 288/4/4
f 283/4/4 284/4/4 288/4/4
f 270/4/4 280/4/4 288/4/4
f 284/4/4 285/4/4 288/4/4
f 281/4/4 282/4/4 288/4/4
f 282/4/4 283/4/4 288/4/4
f 280/4/4 281/4/4 288/4/4
f 287/4/4 271/4/4 289/4/4
f 288/4/4 287/4/4 289/4/4
f 290/4/4 291/4/4 292/4/4
f 292/4/4 291/4/4 293/4/4
f 294/4/4 295/4/4 296/4/4
f 296/4/4 295/4/4 297/4/4
f 297/4/4 295/4/4 298/4/4
f 298/4/4 295/4/4 299/4/4
f 299/4/4 295/4/4 300/4/4
f 300/4/4 295/4/4 301/4/4
f 301/4/4 295/4/4 302/4/4
f 302/4/4 295/4/4 303/4/4
f 294/4/4 296/4/4 304/4/4
f 297/4/4 298/4/4 305/4/4
f 305/4/4 298/4/4 306/4/4
f 299/4/4 300/4/4 307/4/4
f 307/4/4 300/4/4 308/4/4
f 301/4/4 302/4/4 309/4/4
f 309/4/4 302/4/4 310/4/4
f 303/4/4 295/4/4 311/4/4
f 309/4/4 310/4/4 312/4/4
f 310/4/4 311/4/4 312/4/4
f 307/4/4 308/4/4 312/4/4
f 294/4/4 304/4/4 312/4/4
f 308/4/4 309/4/4 312/4/4
f 305/4/4 306/4/4 312/4/4
f 306/4/4 307/4/4 312/4/4
f 304/4/4 305/4/4 312/4/4
f 311/4/4 295/4/4 313/4/4
f 312/4/4 311/4/4 313/4/4
f 316/4/4 317/4/4 324/4/4
f 324/4/4 317/4/4 325/4/4
f 318/4/4 319/4/4 326/4/4
f 326/4/4 319/4/4 327/4/4
f 320/4/4 321/4/4 328/4/4
f 328/4/4 321/4/4 329/4/4
f 322/4/4 323/4/4 330/4/4
f 330/4/4 323/4/4 331/4/4
f 314/3/4 315/3/4 332/3/4
f 332/3/4 315/3/4 333/3/4
f 333/3/4 315/3/4 334/3/4
f 332/2/4 333/2/4 335/2/4
f 335/2/4 333/2/4 336/2/4
f 335/1/4 336/1/4 337/1/4
f 337/1/4 336/1/4 338/1/4
f 337/2/4 338/2/4 339/2/4
f 339/2/4 338/2/4 340/2/4
f 344/2/5 343/2/5 342/2/5
f 345/2/5 343/2/5 344/2/5
f 346/3/5 342/3/5 341/3/5
f 347/2/5 344/2/5 342/2/5
f 347/3/5 342/3/5 346/3/5
f 348/1/5 345/1/5 344/1/5
f 348/2/5 344/2/5 347/2/5
f 349/2/5 343/2/5 345/2/5
f 349/1/5 345/1/5 348/1/5
f 350/2/5 343/2/5 349/2/5
f 353/4/5 352/4/5 351/4/5
f 354/4/5 352/4/5 353/4/5
f 357/4/5 356/4/5 355/4/5
f 358/4/5 356/4/5 357/4/5
f 361/4/5 360/4/5 359/4/5
f 362/4/5 360/4/5 361/4/5
f 365/4/5 364/4/5 363/4/5
f 366/4/5 364/4/5 365/4/5
f 369/4/5 368/4/5 367/4/5
f 370/4/5 368/4/5 369/4/5
f 373/4/5 372/4/5 371/4/5
f 374/4/5 372/4/5 373/4/5
f 377/4/5 376/4/5 375/4/5
f 378/4/5 376/4/5 377/4/5
f 381/4/5 380/4/5 379/4/5
f 382/4/5 380/4/5 381/4/5
f 385/4/5 384/4/5 383/4/5
f 386/4/5 384/4/5 385/4/5
f 389/4/5 388/4/5 387/4/5
f 390/4/5 388/4/5 389/4/5
f 393/4/5 392/4/5 391/4/5
f 394/4/5 392/4/5 393/4/5
f 397/4/5 396/4/5 395/4/5
f 398/4/5 396/4/5 397/4/5
f 399/2/6 400/2/6 403/2/6
f 400/1/6 401/1/6 404/1/6
f 403/2/6 400/2/6 404/2/6
f 403/1/6 404/1/6 405/1/6
f 404/1/6 401/1/6 406/1/6
f 405/1/6 404/1/6 406/1/6
f 405/2/6 406/2/6 407/2/6
f 406/1/6 401/1/6 408/1/6
f 407/2/6 406/2/6 408/2/6
f 401/2/6 402/2/6 409/2/6
f 408/1/6 401/1/6 409/1/6
f 409/2/6 402/2/6 410/2/6
f 411/3/6 412/3/6 413/3/6
f 413/3/6 412/3/6 414/3/6
f 411/3/6 413/3/6 415/3/6
f 414/3/6 412/3/6 416/3/6
f 411/3/6 415/3/6 417/3/6
f 415/3/6 416/3/6 417/3/6
f 416/3/6 412/3/6 418/3/6
f 417/3/6 416/3/6 418/3/6
f 411/3/6 417/3/6 419/3/6
f 418/3/6 412/3/6 420/3/6
f 411/3/6 419/3/6 421/3/6
f 419/3/6 420/3/6 421/3/6
f 420/3/6 412/3/6 422/3/6
f 421/3/6 420/3/6 422/3/6
f 411/3/6 421/3/6 423/3/6
f 422/3/6 412/3/6 424/3/6
f 411/3/6 423/3/6 425/3/6
f 423/3/6 424/3/6 425/3/6
f 424/3/6 412/3/6 426/3/6
f 425/3/6 424/3/6 426/3/6
f 411/3/6 425/3/6 427/3/6
f 426/3/6 412/3/6 428/3/6
f 411/3/6 427/3/6 429/3/6
f 427/3/6 428/3/6 429/3/6
f 428/3/6 412/3/6 430/3/6
f 429/3/6 428/3/6 430/3/6
f 431/4/6 432/4/6 433/4/6
f 433/4/6 432/4/6 434/4/6
f 435/4/6 436/4/6 437/4/6
f 437/4/6 436/4/6 438/4/6
f 439/4/6 440/4/6 441/4/6
f 441/4/6 440/4/6 442/4/6
f 443/4/6 444/4/6 445/4/6
f 445/4/6 444/4/6 446/4/6
f 447/4/6 448/4/6 449/4/6
f 449/4/6 448/4/6 450/4/6
f 451/4/6 452/4/6 453/4/6
f 453/4/6 452/4/6 454/4/6
f 455/4/6 456/4/6 457/4/6
f 457/4/6 456/4/6 458/4/6
f 459/4/6 460/4/6 461/4/6
f 461/4/6 460/4/6 462/4/6
f 463/4/6 464/4/6 465/4/6
f 465/4/6 464/4/6 466/4/6
f 467/4/6 468/4/6 469/4/6
f 469/4/6 468/4/6 470/4/6
f 471/4/6 472/4/6 473/4/6
f 473/4/6 472/4/6 474/4/6
f 475/4/6 476/4/6 477/4/6
f 477/4/6 476/4/6 478/4/6
f 479/4/6 480/4/6 481/4/6
f 481/4/6 480/4/6 482/4/6
f 479/4/6 481/4/6 483/4/6
f 482/4/6 480/4/6 484/4/6
f 479/4/6 483/4/6 485/4/6
f 483/4/6 484/4/6 485/4/6
f 484/4/6 480/4/6 486/4/6
f 485/4/6 484/4/6 486/4/6
f 487/4/6 488/4/6 489/4/6
f 489/4/6 488/4/6 490/4/6
f 487/4/6 489/4/6 491/4/6
f 490/4/6 488/4/6 492/4/6
f 487/4/6 491/4/6 493/4/6
f 491/4/6 492/4/6 493/4/6
f 492/4/6 488/4/6 494/4/6
f 493/4/6 492/4/6 494/4/6
f 495/4/6 496/4/6 497/4/6
f 497/4/6 496/4/6 498/4/6
f 495/4/6 497/4/6 499/4/6
f 498/4/6 496/4/6 500/4/6
f 495/4/6 499/4/6 501/4/6
f 499/4/6 500/4/6 501/4/6
f 500/4/6 496/4/6 502/4/6
f 501/4/6 500/4/6 502/4/6
f 503/4/6 504/4/6 505/4/6
f 505/4/6 504/4/6 506/4/6
f 507/4/6 508/4/6 509/4/6
f 509/4/6 508/4/6 510/4/6
f 511/4/6 512/4/6 513/4/6
f 513/4/6 512/4/6 514/4/6
f 515/4/6 516/4/6 517/4/6
f 517/4/6 516/4/6 518/4/6
