# MagicaVoxel @ Ephtracy

# group
g holetest

# material
mtllib holetest.mtl
usemtl palette

# normals
vn -1 0 0
vn 1 0 0
vn 0 0 1
vn 0 0 -1
vn 0 -1 0
vn 0 1 0

# texcoords
vt 0.822266 0.5
vt 0.994141 0.5

# verts
v -63 0 63
v -63 0 -63
v -63 1 63
v -63 1 62
v -63 1 -62
v -63 1 -63
v -63 126 63
v -63 126 62
v -63 126 -62
v -63 126 -63
v 27 0 25
v 27 0 -25
v 27 1 25
v 27 1 -25
v 62 1 63
v 62 1 62
v 62 1 -62
v 62 1 -63
v 62 126 63
v 62 126 62
v 62 126 -62
v 62 126 -63
v -62 1 63
v -62 1 62
v -62 1 -62
v -62 1 -63
v -62 126 63
v -62 126 62
v -62 126 -62
v -62 126 -63
v -24 0 25
v -24 0 -25
v -24 1 25
v -24 1 -25
v 63 0 63
v 63 0 -63
v 63 1 63
v 63 1 62
v 63 1 -62
v 63 1 -63
v 63 126 63
v 63 126 62
v 63 126 -62
v 63 126 -63
v -63 0 63
v -63 1 63
v -63 126 63
v -62 1 63
v -62 126 63
v 62 1 63
v 62 126 63
v 63 0 63
v 63 1 63
v 63 126 63
v -24 0 -25
v -24 1 -25
v 27 0 -25
v 27 1 -25
v -63 1 -62
v -63 126 -62
v -62 1 -62
v -62 126 -62
v 62 1 -62
v 62 126 -62
v 63 1 -62
v 63 126 -62
v -63 1 62
v -63 126 62
v -62 1 62
v -62 126 62
v 62 1 62
v 62 126 62
v 63 1 62
v 63 126 62
v -24 0 25
v -24 1 25
v 27 0 25
v 27 1 25
v -63 0 -63
v -63 1 -63
v -63 126 -63
v -62 1 -63
v -62 126 -63
v 62 1 -63
v 62 126 -63
v 63 0 -63
v 63 1 -63
v 63 126 -63
v -63 0 63
v 63 0 63
v -24 0 25
v 27 0 25
v -24 0 -25
v 27 0 -25
v -63 0 -63
v 63 0 -63
v -62 1 63
v 62 1 63
v -63 1 62
v -62 1 62
v 62 1 62
v 63 1 62
v -24 1 25
v 27 1 25
v -24 1 -25
v 27 1 -25
v -63 1 -62
v -62 1 -62
v 62 1 -62
v 63 1 -62
v -62 1 -63
v 62 1 -63
v -63 126 63
v -62 126 63
v 62 126 63
v 63 126 63
v -63 126 62
v -62 126 62
v 62 126 62
v 63 126 62
v -63 126 -62
v -62 126 -62
v 62 126 -62
v 63 126 -62
v -63 126 -63
v -62 126 -63
v 62 126 -63
v 63 126 -63

# faces
f 3/2/1 2/2/1 1/2/1
f 4/2/1 2/2/1 3/2/1
f 5/2/1 2/2/1 4/2/1
f 6/2/1 2/2/1 5/2/1
f 7/1/1 4/1/1 3/1/1
f 8/1/1 4/1/1 7/1/1
f 9/1/1 6/1/1 5/1/1
f 10/1/1 6/1/1 9/1/1
f 13/2/1 12/2/1 11/2/1
f 14/2/1 12/2/1 13/2/1
f 19/1/1 16/1/1 15/1/1
f 20/1/1 16/1/1 19/1/1
f 21/1/1 18/1/1 17/1/1
f 22/1/1 18/1/1 21/1/1
f 23/1/2 24/1/2 27/1/2
f 27/1/2 24/1/2 28/1/2
f 25/1/2 26/1/2 29/1/2
f 29/1/2 26/1/2 30/1/2
f 31/2/2 32/2/2 33/2/2
f 33/2/2 32/2/2 34/2/2
f 35/2/2 36/2/2 37/2/2
f 37/2/2 36/2/2 38/2/2
f 38/2/2 36/2/2 39/2/2
f 39/2/2 36/2/2 40/2/2
f 37/1/2 38/1/2 41/1/2
f 41/1/2 38/1/2 42/1/2
f 39/1/2 40/1/2 43/1/2
f 43/1/2 40/1/2 44/1/2
f 48/2/3 46/2/3 45/2/3
f 48/1/3 47/1/3 46/1/3
f 49/1/3 47/1/3 48/1/3
f 50/2/3 48/2/3 45/2/3
f 52/2/3 50/2/3 45/2/3
f 53/1/3 51/1/3 50/1/3
f 53/2/3 50/2/3 52/2/3
f 54/1/3 51/1/3 53/1/3
f 57/2/3 56/2/3 55/2/3
f 58/2/3 56/2/3 57/2/3
f 61/1/3 60/1/3 59/1/3
f 62/1/3 60/1/3 61/1/3
f 65/1/3 64/1/3 63/1/3
f 66/1/3 64/1/3 65/1/3
f 67/1/4 68/1/4 69/1/4
f 69/1/4 68/1/4 70/1/4
f 71/1/4 72/1/4 73/1/4
f 73/1/4 72/1/4 74/1/4
f 75/2/4 76/2/4 77/2/4
f 77/2/4 76/2/4 78/2/4
f 79/2/4 80/2/4 82/2/4
f 80/1/4 81/1/4 82/1/4
f 82/1/4 81/1/4 83/1/4
f 79/2/4 82/2/4 84/2/4
f 79/2/4 84/2/4 86/2/4
f 84/1/4 85/1/4 87/1/4
f 86/2/4 84/2/4 87/2/4
f 87/1/4 85/1/4 88/1/4
f 91/2/5 90/2/5 89/2/5
f 92/2/5 90/2/5 91/2/5
f 93/2/5 91/2/5 89/2/5
f 94/2/5 90/2/5 92/2/5
f 95/2/5 93/2/5 89/2/5
f 95/2/5 94/2/5 93/2/5
f 96/2/5 90/2/5 94/2/5
f 96/2/5 94/2/5 95/2/5
f 97/2/6 98/2/6 100/2/6
f 100/2/6 98/2/6 101/2/6
f 99/2/6 100/2/6 103/2/6
f 101/2/6 102/2/6 103/2/6
f 100/2/6 101/2/6 103/2/6
f 103/2/6 102/2/6 104/2/6
f 99/2/6 103/2/6 105/2/6
f 104/2/6 102/2/6 106/2/6
f 99/2/6 105/2/6 107/2/6
f 105/2/6 106/2/6 107/2/6
f 107/2/6 106/2/6 108/2/6
f 106/2/6 102/2/6 109/2/6
f 108/2/6 106/2/6 109/2/6
f 109/2/6 102/2/6 110/2/6
f 108/2/6 109/2/6 111/2/6
f 111/2/6 109/2/6 112/2/6
f 113/1/6 114/1/6 117/1/6
f 117/1/6 114/1/6 118/1/6
f 115/1/6 116/1/6 119/1/6
f 119/1/6 116/1/6 120/1/6
f 121/1/6 122/1/6 125/1/6
f 125/1/6 122/1/6 126/1/6
f 123/1/6 124/1/6 127/1/6
f 127/1/6 124/1/6 128/1/6
