# MagicaVoxel @ Ephtracy

# group
g 4x2 second (des)-2

# material
mtllib 4x2 second (des)-2.mtl
usemtl palette

# normals
vn -1 0 0
vn 1 0 0
vn 0 0 1
vn 0 0 -1
vn 0 -1 0
vn 0 1 0

# texcoords
vt 0.251953 0.5
vt 0.962891 0.5
vt 0.966797 0.5

# verts
v -63 0 63
v -63 0 53
v -63 0 43
v -63 0 33
v -63 0 23
v -63 0 13
v -63 0 3
v -63 0 -7
v -63 0 -17
v -63 0 -27
v -63 0 -37
v -63 0 -47
v -63 0 -57
v -63 0 -61
v -63 0 -62
v -63 0 -63
v -63 1 63
v -63 1 53
v -63 1 43
v -63 1 33
v -63 1 29
v -63 1 25
v -63 1 23
v -63 1 17
v -63 1 13
v -63 1 3
v -63 1 -7
v -63 1 -17
v -63 1 -19
v -63 1 -27
v -63 1 -37
v -63 1 -47
v -63 1 -57
v -63 1 -61
v -63 2 -10
v -63 2 -19
v -63 4 -1
v -63 4 -10
v -63 11 29
v -63 11 25
v -63 15 17
v -63 15 -1
v -63 80 -61
v -63 80 -62
v -63 80 -63
v -61 1 37
v -61 1 33
v -61 1 31
v -61 1 25
v -61 1 23
v -61 1 18
v -61 1 -19
v -61 1 -22
v -61 2 37
v -61 2 31
v -61 2 25
v -61 2 24
v -61 2 19
v -61 2 18
v -61 2 -17
v -61 2 -19
v -61 3 24
v -61 3 19
v -61 3 -17
v -61 3 -22
v -60 1 -22
v -60 1 -27
v -60 1 -32
v -60 3 -20
v -60 3 -22
v -60 4 -20
v -60 4 -32
v -57 1 21
v -57 1 13
v -57 1 11
v -57 2 21
v -57 2 11
v -57 2 -10
v -57 2 -13
v -57 3 -10
v -57 3 -13
v -57 3 -18
v -57 3 -20
v -57 4 -20
v -57 4 -21
v -57 5 -18
v -57 5 -21
v -56 1 25
v -56 1 23
v -56 1 21
v -56 2 21
v -56 2 16
v -56 9 25
v -56 9 16
v -55 1 10
v -55 1 7
v -55 1 -16
v -55 1 -17
v -55 1 -20
v -55 2 10
v -55 2 7
v -55 2 -16
v -55 2 -20
v -54 2 16
v -54 2 12
v -54 9 19
v -54 9 16
v -54 10 19
v -54 10 12
v -52 1 2
v -52 1 -3
v -52 1 -13
v -52 1 -15
v -52 2 -13
v -52 2 -15
v -52 3 -3
v -52 3 -5
v -52 4 2
v -52 4 -5
v -50 1 7
v -50 1 3
v -50 2 7
v -50 2 3
v -49 2 -13
v -49 2 -14
v -49 3 -13
v -49 3 -14
v -48 4 -21
v -48 4 -22
v -48 5 -21
v -48 5 -22
v 62 1 63
v 62 1 53
v 62 1 43
v 62 1 33
v 62 1 23
v 62 1 14
v 62 1 -16
v 62 1 -17
v 62 1 -27
v 62 1 -37
v 62 1 -47
v 62 1 -57
v 62 1 -61
v 62 41 14
v 62 41 -16
v 62 80 63
v 62 80 -61
v -60 1 24
v -60 1 23
v -60 2 24
v -60 2 23
v -60 2 19
v -60 3 24
v -60 3 19
v -59 1 37
v -59 1 33
v -59 1 31
v -59 1 25
v -59 1 24
v -59 1 23
v -59 1 18
v -59 1 17
v -59 1 13
v -59 1 8
v -59 2 37
v -59 2 31
v -59 2 25
v -59 2 24
v -59 2 23
v -59 2 18
v -59 2 8
v -59 2 -1
v -59 4 -1
v -59 15 17
v -59 15 -1
v -57 2 -1
v -57 2 -3
v -57 3 -3
v -57 3 -10
v -57 4 -1
v -57 4 -10
v -56 1 29
v -56 1 28
v -56 1 8
v -56 1 3
v -56 1 -3
v -56 1 -13
v -56 1 -17
v -56 1 -20
v -56 2 8
v -56 2 -3
v -56 2 -13
v -56 2 -17
v -56 3 -17
v -56 3 -18
v -56 3 -20
v -56 9 28
v -56 9 25
v -56 11 29
v -56 11 25
v -53 1 10
v -53 1 7
v -53 2 10
v -53 2 7
v -52 1 -16
v -52 1 -17
v -52 1 -20
v -52 2 -16
v -52 2 -20
v -51 1 16
v -51 1 13
v -51 1 11
v -51 2 16
v -51 2 12
v -51 2 11
v -50 1 2
v -50 1 -3
v -50 3 -3
v -50 3 -5
v -50 4 2
v -50 4 -5
v -49 1 -14
v -49 1 -15
v -49 2 16
v -49 2 12
v -49 2 -14
v -49 2 -15
v -49 9 19
v -49 9 16
v -49 10 19
v -49 10 12
v -48 1 -3
v -48 1 -7
v -48 1 -11
v -48 3 -3
v -48 3 -11
v -47 1 28
v -47 1 23
v -47 1 16
v -47 1 7
v -47 1 3
v -47 1 -11
v -47 1 -14
v -47 2 7
v -47 2 3
v -47 3 -11
v -47 3 -14
v -47 3 -18
v -47 3 -20
v -47 4 -20
v -47 4 -22
v -47 5 -18
v -47 5 -22
v -47 9 28
v -47 9 16
v -45 1 -20
v -45 1 -27
v -45 1 -32
v -45 4 -20
v -45 4 -32
v 63 0 63
v 63 0 53
v 63 0 43
v 63 0 33
v 63 0 23
v 63 0 13
v 63 0 3
v 63 0 -7
v 63 0 -17
v 63 0 -27
v 63 0 -37
v 63 0 -47
v 63 0 -57
v 63 0 -61
v 63 0 -62
v 63 0 -63
v 63 1 63
v 63 1 53
v 63 1 43
v 63 1 33
v 63 1 23
v 63 1 14
v 63 1 13
v 63 1 3
v 63 1 -7
v 63 1 -16
v 63 1 -17
v 63 1 -27
v 63 1 -37
v 63 1 -47
v 63 1 -57
v 63 1 -61
v 63 41 14
v 63 41 -16
v 63 80 63
v 63 80 -62
v 63 80 -63
v -63 0 63
v -63 1 63
v 62 1 63
v 62 80 63
v 63 0 63
v 63 1 63
v 63 80 63
v -61 1 37
v -61 2 37
v -59 1 37
v -59 2 37
v -63 1 29
v -63 11 29
v -56 1 29
v -56 11 29
v -56 1 28
v -56 9 28
v -47 1 28
v -47 9 28
v -61 2 24
v -61 3 24
v -60 2 24
v -60 3 24
v -60 1 23
v -60 2 23
v -59 1 23
v -59 2 23
v -57 1 21
v -57 2 21
v -56 1 21
v -56 2 21
v -54 9 19
v -54 10 19
v -49 9 19
v -49 10 19
v -63 1 17
v -63 15 17
v -59 1 17
v -59 15 17
v -55 1 10
v -55 2 10
v -53 1 10
v -53 2 10
v -59 1 8
v -59 2 8
v -56 1 8
v -56 2 8
v -50 1 7
v -50 2 7
v -47 1 7
v -47 2 7
v -52 1 2
v -52 4 2
v -50 1 2
v -50 4 2
v -59 2 -1
v -59 4 -1
v -57 2 -1
v -57 4 -1
v -57 2 -3
v -57 3 -3
v -56 1 -3
v -56 2 -3
v -52 1 -3
v -52 3 -3
v -50 1 -3
v -50 3 -3
v -48 1 -3
v -48 3 -3
v -48 1 -11
v -48 3 -11
v -47 1 -11
v -47 3 -11
v -55 1 -16
v -55 2 -16
v -52 1 -16
v -52 2 -16
v 62 1 -16
v 62 41 -16
v 63 1 -16
v 63 41 -16
v -61 2 -17
v -61 3 -17
v -56 2 -17
v -56 3 -17
v -57 3 -18
v -57 5 -18
v -56 3 -18
v -47 3 -18
v -47 5 -18
v -60 3 -20
v -60 4 -20
v -57 3 -20
v -57 4 -20
v -56 1 -20
v -56 3 -20
v -55 1 -20
v -55 2 -20
v -52 1 -20
v -52 2 -20
v -47 3 -20
v -47 4 -20
v -45 1 -20
v -45 4 -20
v -63 1 -61
v -63 80 -61
v 62 1 -61
v 62 80 -61
v -61 1 31
v -61 2 31
v -59 1 31
v -59 2 31
v -63 1 25
v -63 11 25
v -61 1 25
v -61 2 25
v -59 1 25
v -59 2 25
v -56 1 25
v -56 9 25
v -56 11 25
v -60 1 24
v -60 2 24
v -59 1 24
v -59 2 24
v -61 2 19
v -61 3 19
v -60 2 19
v -60 3 19
v -61 1 18
v -61 2 18
v -59 1 18
v -59 2 18
v -56 2 16
v -56 9 16
v -54 2 16
v -54 9 16
v -51 1 16
v -51 2 16
v -49 2 16
v -49 9 16
v -47 1 16
v -47 9 16
v 62 1 14
v 62 41 14
v 63 1 14
v 63 41 14
v -54 2 12
v -54 10 12
v -51 2 12
v -49 2 12
v -49 10 12
v -57 1 11
v -57 2 11
v -51 1 11
v -51 2 11
v -55 1 7
v -55 2 7
v -53 1 7
v -53 2 7
v -50 1 3
v -50 2 3
v -47 1 3
v -47 2 3
v -63 4 -1
v -63 15 -1
v -59 4 -1
v -59 15 -1
v -52 3 -5
v -52 4 -5
v -50 3 -5
v -50 4 -5
v -63 2 -10
v -63 4 -10
v -57 2 -10
v -57 3 -10
v -57 4 -10
v -57 2 -13
v -57 3 -13
v -56 1 -13
v -56 2 -13
v -52 1 -13
v -52 2 -13
v -49 2 -13
v -49 3 -13
v -49 1 -14
v -49 2 -14
v -49 3 -14
v -47 1 -14
v -47 3 -14
v -52 1 -15
v -52 2 -15
v -49 1 -15
v -49 2 -15
v -63 1 -19
v -63 2 -19
v -61 1 -19
v -61 2 -19
v -57 4 -21
v -57 5 -21
v -48 4 -21
v -48 5 -21
v -61 1 -22
v -61 3 -22
v -60 1 -22
v -60 3 -22
v -48 4 -22
v -48 5 -22
v -47 4 -22
v -47 5 -22
v -60 1 -32
v -60 4 -32
v -45 1 -32
v -45 4 -32
v -63 0 -63
v -63 80 -63
v 63 0 -63
v 63 80 -63
v -63 0 63
v 63 0 63
v -63 0 53
v 63 0 53
v -63 0 43
v 63 0 43
v -63 0 33
v 63 0 33
v -63 0 23
v 63 0 23
v -63 0 13
v 63 0 13
v -63 0 3
v 63 0 3
v -63 0 -7
v 63 0 -7
v -63 0 -17
v 63 0 -17
v -63 0 -27
v 63 0 -27
v -63 0 -37
v 63 0 -37
v -63 0 -47
v 63 0 -47
v -63 0 -57
v 63 0 -57
v -63 0 -61
v 63 0 -61
v -63 0 -62
v 63 0 -62
v -63 0 -63
v 63 0 -63
v -51 2 16
v -49 2 16
v -51 2 12
v -49 2 12
v -56 3 -18
v -47 3 -18
v -56 3 -20
v -47 3 -20
v 62 41 14
v 63 41 14
v 62 41 -16
v 63 41 -16
v -63 1 63
v 62 1 63
v -63 1 53
v 62 1 53
v -63 1 43
v 62 1 43
v -61 1 37
v -59 1 37
v -63 1 33
v -61 1 33
v -59 1 33
v 62 1 33
v -61 1 31
v -59 1 31
v -63 1 29
v -56 1 29
v -56 1 28
v -47 1 28
v -63 1 25
v -61 1 25
v -59 1 25
v -56 1 25
v -60 1 24
v -59 1 24
v -63 1 23
v -61 1 23
v -60 1 23
v -59 1 23
v -56 1 23
v -47 1 23
v 62 1 23
v -57 1 21
v -56 1 21
v -61 1 18
v -59 1 18
v -63 1 17
v -59 1 17
v -51 1 16
v -47 1 16
v 62 1 14
v 63 1 14
v -59 1 13
v -57 1 13
v -51 1 13
v 63 1 13
v -57 1 11
v -51 1 11
v -55 1 10
v -53 1 10
v -59 1 8
v -56 1 8
v -55 1 7
v -53 1 7
v -50 1 7
v -47 1 7
v -56 1 3
v -50 1 3
v -47 1 3
v 63 1 3
v -52 1 2
v -50 1 2
v -56 1 -3
v -52 1 -3
v -50 1 -3
v -48 1 -3
v -48 1 -7
v 63 1 -7
v -48 1 -11
v -47 1 -11
v -56 1 -13
v -52 1 -13
v -49 1 -14
v -47 1 -14
v -52 1 -15
v -49 1 -15
v -55 1 -16
v -52 1 -16
v 62 1 -16
v 63 1 -16
v -56 1 -17
v -55 1 -17
v -52 1 -17
v 62 1 -17
v -63 1 -19
v -61 1 -19
v -56 1 -20
v -55 1 -20
v -52 1 -20
v -45 1 -20
v -61 1 -22
v -60 1 -22
v -63 1 -27
v -60 1 -27
v -45 1 -27
v 62 1 -27
v -60 1 -32
v -45 1 -32
v -63 1 -37
v 62 1 -37
v -63 1 -47
v 62 1 -47
v -63 1 -57
v 62 1 -57
v -63 1 -61
v 62 1 -61
v -61 2 37
v -59 2 37
v -61 2 31
v -59 2 31
v -61 2 25
v -59 2 25
v -61 2 24
v -60 2 24
v -59 2 24
v -60 2 23
v -59 2 23
v -57 2 21
v -56 2 21
v -61 2 19
v -60 2 19
v -61 2 18
v -59 2 18
v -56 2 16
v -54 2 16
v -54 2 12
v -51 2 12
v -57 2 11
v -51 2 11
v -55 2 10
v -53 2 10
v -59 2 8
v -56 2 8
v -55 2 7
v -53 2 7
v -50 2 7
v -47 2 7
v -50 2 3
v -47 2 3
v -59 2 -1
v -57 2 -1
v -57 2 -3
v -56 2 -3
v -63 2 -10
v -57 2 -10
v -57 2 -13
v -56 2 -13
v -52 2 -13
v -49 2 -13
v -49 2 -14
v -52 2 -15
v -49 2 -15
v -55 2 -16
v -52 2 -16
v -61 2 -17
v -56 2 -17
v -63 2 -19
v -61 2 -19
v -55 2 -20
v -52 2 -20
v -61 3 24
v -60 3 24
v -61 3 19
v -60 3 19
v -57 3 -3
v -52 3 -3
v -50 3 -3
v -48 3 -3
v -52 3 -5
v -50 3 -5
v -57 3 -10
v -48 3 -11
v -47 3 -11
v -57 3 -13
v -49 3 -13
v -49 3 -14
v -47 3 -14
v -61 3 -17
v -56 3 -17
v -57 3 -18
v -56 3 -18
v -60 3 -20
v -57 3 -20
v -61 3 -22
v -60 3 -22
v -52 4 2
v -50 4 2
v -63 4 -1
v -59 4 -1
v -57 4 -1
v -52 4 -5
v -50 4 -5
v -63 4 -10
v -57 4 -10
v -60 4 -20
v -57 4 -20
v -47 4 -20
v -45 4 -20
v -57 4 -21
v -48 4 -21
v -48 4 -22
v -47 4 -22
v -60 4 -32
v -45 4 -32
v -57 5 -18
v -47 5 -18
v -57 5 -21
v -48 5 -21
v -48 5 -22
v -47 5 -22
v -56 9 28
v -47 9 28
v -56 9 25
v -54 9 19
v -49 9 19
v -56 9 16
v -54 9 16
v -49 9 16
v -47 9 16
v -54 10 19
v -49 10 19
v -54 10 12
v -49 10 12
v -63 11 29
v -56 11 29
v -63 11 25
v -56 11 25
v -63 15 17
v -59 15 17
v -63 15 -1
v -59 15 -1
v 62 80 63
v 63 80 63
v -63 80 -61
v 62 80 -61
v -63 80 -62
v 63 80 -62
v -63 80 -63
v 63 80 -63

# faces
f 17/2/1 2/2/1 1/2/1
f 18/3/1 3/3/1 2/3/1
f 18/2/1 2/2/1 17/2/1
f 19/2/1 4/2/1 3/2/1
f 19/3/1 3/3/1 18/3/1
f 20/3/1 5/3/1 4/3/1
f 20/2/1 4/2/1 19/2/1
f 21/3/1 5/3/1 20/3/1
f 22/3/1 5/3/1 21/3/1
f 23/2/1 6/2/1 5/2/1
f 23/3/1 5/3/1 22/3/1
f 24/2/1 6/2/1 23/2/1
f 25/3/1 7/3/1 6/3/1
f 25/2/1 6/2/1 24/2/1
f 26/2/1 8/2/1 7/2/1
f 26/3/1 7/3/1 25/3/1
f 27/3/1 9/3/1 8/3/1
f 27/2/1 8/2/1 26/2/1
f 28/2/1 10/2/1 9/2/1
f 28/3/1 9/3/1 27/3/1
f 29/2/1 10/2/1 28/2/1
f 30/3/1 11/3/1 10/3/1
f 30/2/1 10/2/1 29/2/1
f 31/2/1 12/2/1 11/2/1
f 31/3/1 11/3/1 30/3/1
f 32/3/1 13/3/1 12/3/1
f 32/2/1 12/2/1 31/2/1
f 33/2/1 14/2/1 13/2/1
f 33/3/1 13/3/1 32/3/1
f 34/3/1 15/3/1 14/3/1
f 34/2/1 14/2/1 33/2/1
f 35/3/1 28/3/1 27/3/1
f 35/3/1 29/3/1 28/3/1
f 35/3/1 27/3/1 26/3/1
f 35/3/1 26/3/1 25/3/1
f 35/3/1 25/3/1 24/3/1
f 36/3/1 29/3/1 35/3/1
f 37/3/1 35/3/1 24/3/1
f 38/3/1 35/3/1 37/3/1
f 39/3/1 22/3/1 21/3/1
f 40/3/1 22/3/1 39/3/1
f 41/3/1 37/3/1 24/3/1
f 42/3/1 37/3/1 41/3/1
f 43/3/1 15/3/1 34/3/1
f 44/1/1 16/1/1 15/1/1
f 44/3/1 15/3/1 43/3/1
f 45/1/1 16/1/1 44/1/1
f 54/3/1 47/3/1 46/3/1
f 54/3/1 48/3/1 47/3/1
f 55/3/1 48/3/1 54/3/1
f 56/3/1 51/3/1 50/3/1
f 56/3/1 50/3/1 49/3/1
f 57/3/1 51/3/1 56/3/1
f 58/3/1 51/3/1 57/3/1
f 59/3/1 51/3/1 58/3/1
f 61/3/1 53/3/1 52/3/1
f 62/3/1 58/3/1 57/3/1
f 63/3/1 58/3/1 62/3/1
f 64/3/1 61/3/1 60/3/1
f 65/3/1 53/3/1 61/3/1
f 65/3/1 61/3/1 64/3/1
f 70/3/1 67/3/1 66/3/1
f 70/3/1 68/3/1 67/3/1
f 71/3/1 70/3/1 69/3/1
f 72/3/1 68/3/1 70/3/1
f 72/3/1 70/3/1 71/3/1
f 76/3/1 74/3/1 73/3/1
f 76/3/1 75/3/1 74/3/1
f 77/3/1 75/3/1 76/3/1
f 80/3/1 79/3/1 78/3/1
f 81/3/1 79/3/1 80/3/1
f 84/3/1 83/3/1 82/3/1
f 86/3/1 84/3/1 82/3/1
f 86/3/1 85/3/1 84/3/1
f 87/3/1 85/3/1 86/3/1
f 91/3/1 89/3/1 88/3/1
f 91/3/1 90/3/1 89/3/1
f 93/3/1 91/3/1 88/3/1
f 93/3/1 92/3/1 91/3/1
f 94/3/1 92/3/1 93/3/1
f 100/3/1 96/3/1 95/3/1
f 101/3/1 96/3/1 100/3/1
f 102/3/1 99/3/1 98/3/1
f 102/3/1 98/3/1 97/3/1
f 103/3/1 99/3/1 102/3/1
f 107/3/1 105/3/1 104/3/1
f 108/3/1 107/3/1 106/3/1
f 109/3/1 105/3/1 107/3/1
f 109/3/1 107/3/1 108/3/1
f 114/3/1 113/3/1 112/3/1
f 115/3/1 113/3/1 114/3/1
f 116/3/1 111/3/1 110/3/1
f 118/3/1 116/3/1 110/3/1
f 118/3/1 117/3/1 116/3/1
f 119/3/1 117/3/1 118/3/1
f 122/3/1 121/3/1 120/3/1
f 123/3/1 121/3/1 122/3/1
f 126/3/1 125/3/1 124/3/1
f 127/3/1 125/3/1 126/3/1
f 130/3/1 129/3/1 128/3/1
f 131/3/1 129/3/1 130/3/1
f 145/3/1 133/3/1 132/3/1
f 145/3/1 134/3/1 133/3/1
f 145/3/1 135/3/1 134/3/1
f 145/3/1 136/3/1 135/3/1
f 145/3/1 137/3/1 136/3/1
f 146/3/1 144/3/1 143/3/1
f 146/3/1 143/3/1 142/3/1
f 146/3/1 139/3/1 138/3/1
f 146/3/1 140/3/1 139/3/1
f 146/3/1 141/3/1 140/3/1
f 146/3/1 142/3/1 141/3/1
f 147/3/1 145/3/1 132/3/1
f 147/3/1 146/3/1 145/3/1
f 148/3/1 144/3/1 146/3/1
f 148/3/1 146/3/1 147/3/1
f 149/3/2 150/3/2 151/3/2
f 151/3/2 150/3/2 152/3/2
f 151/3/2 152/3/2 154/3/2
f 152/3/2 153/3/2 154/3/2
f 154/3/2 153/3/2 155/3/2
f 156/3/2 157/3/2 166/3/2
f 157/3/2 158/3/2 166/3/2
f 166/3/2 158/3/2 167/3/2
f 159/3/2 160/3/2 168/3/2
f 168/3/2 160/3/2 169/3/2
f 161/3/2 162/3/2 170/3/2
f 170/3/2 162/3/2 171/3/2
f 164/3/2 165/3/2 172/3/2
f 163/3/2 164/3/2 172/3/2
f 172/3/2 173/3/2 174/3/2
f 163/3/2 172/3/2 175/3/2
f 172/3/2 174/3/2 175/3/2
f 175/3/2 174/3/2 176/3/2
f 177/3/2 178/3/2 179/3/2
f 177/3/2 179/3/2 181/3/2
f 179/3/2 180/3/2 181/3/2
f 181/3/2 180/3/2 182/3/2
f 185/3/2 186/3/2 191/3/2
f 186/3/2 187/3/2 191/3/2
f 191/3/2 187/3/2 192/3/2
f 189/3/2 190/3/2 193/3/2
f 188/3/2 189/3/2 193/3/2
f 193/3/2 190/3/2 194/3/2
f 194/3/2 190/3/2 195/3/2
f 195/3/2 190/3/2 196/3/2
f 196/3/2 190/3/2 197/3/2
f 183/3/2 184/3/2 198/3/2
f 183/3/2 198/3/2 200/3/2
f 198/3/2 199/3/2 200/3/2
f 200/3/2 199/3/2 201/3/2
f 202/3/2 203/3/2 204/3/2
f 204/3/2 203/3/2 205/3/2
f 206/3/2 207/3/2 209/3/2
f 207/3/2 208/3/2 209/3/2
f 209/3/2 208/3/2 210/3/2
f 211/3/2 212/3/2 214/3/2
f 212/3/2 213/3/2 214/3/2
f 214/3/2 213/3/2 215/3/2
f 215/3/2 213/3/2 216/3/2
f 217/3/2 218/3/2 219/3/2
f 217/3/2 219/3/2 221/3/2
f 219/3/2 220/3/2 221/3/2
f 221/3/2 220/3/2 222/3/2
f 223/3/2 224/3/2 227/3/2
f 227/3/2 224/3/2 228/3/2
f 225/3/2 226/3/2 230/3/2
f 229/3/2 230/3/2 231/3/2
f 230/3/2 226/3/2 232/3/2
f 231/3/2 230/3/2 232/3/2
f 233/3/2 234/3/2 236/3/2
f 234/3/2 235/3/2 236/3/2
f 236/3/2 235/3/2 237/3/2
f 241/3/2 242/3/2 245/3/2
f 245/3/2 242/3/2 246/3/2
f 243/3/2 244/3/2 247/3/2
f 247/3/2 244/3/2 248/3/2
f 249/3/2 250/3/2 251/3/2
f 249/3/2 251/3/2 253/3/2
f 251/3/2 252/3/2 253/3/2
f 253/3/2 252/3/2 254/3/2
f 238/3/2 239/3/2 255/3/2
f 239/3/2 240/3/2 255/3/2
f 255/3/2 240/3/2 256/3/2
f 257/3/2 258/3/2 260/3/2
f 258/3/2 259/3/2 260/3/2
f 260/3/2 259/3/2 261/3/2
f 262/2/2 263/2/2 278/2/2
f 263/3/2 264/3/2 279/3/2
f 278/2/2 263/2/2 279/2/2
f 264/2/2 265/2/2 280/2/2
f 279/3/2 264/3/2 280/3/2
f 265/3/2 266/3/2 281/3/2
f 280/2/2 265/2/2 281/2/2
f 266/2/2 267/2/2 282/2/2
f 281/3/2 266/3/2 282/3/2
f 282/2/2 267/2/2 283/2/2
f 267/3/2 268/3/2 284/3/2
f 283/2/2 267/2/2 284/2/2
f 268/2/2 269/2/2 285/2/2
f 284/3/2 268/3/2 285/3/2
f 269/3/2 270/3/2 286/3/2
f 285/2/2 269/2/2 286/2/2
f 286/3/2 270/3/2 287/3/2
f 270/2/2 271/2/2 288/2/2
f 287/3/2 270/3/2 288/3/2
f 271/3/2 272/3/2 289/3/2
f 288/2/2 271/2/2 289/2/2
f 272/2/2 273/2/2 290/2/2
f 289/3/2 272/3/2 290/3/2
f 273/3/2 274/3/2 291/3/2
f 290/2/2 273/2/2 291/2/2
f 274/2/2 275/2/2 292/2/2
f 291/3/2 274/3/2 292/3/2
f 275/3/2 276/3/2 293/3/2
f 292/2/2 275/2/2 293/2/2
f 278/3/2 279/3/2 294/3/2
f 279/3/2 280/3/2 294/3/2
f 280/3/2 281/3/2 294/3/2
f 281/3/2 282/3/2 294/3/2
f 282/3/2 283/3/2 294/3/2
f 292/3/2 293/3/2 295/3/2
f 291/3/2 292/3/2 295/3/2
f 287/3/2 288/3/2 295/3/2
f 288/3/2 289/3/2 295/3/2
f 289/3/2 290/3/2 295/3/2
f 290/3/2 291/3/2 295/3/2
f 278/3/2 294/3/2 296/3/2
f 294/3/2 295/3/2 296/3/2
f 276/1/2 277/1/2 297/1/2
f 296/3/2 295/3/2 297/3/2
f 293/3/2 276/3/2 297/3/2
f 295/3/2 293/3/2 297/3/2
f 297/1/2 277/1/2 298/1/2
f 301/2/3 300/2/3 299/2/3
f 303/2/3 301/2/3 299/2/3
f 304/3/3 302/3/3 301/3/3
f 304/2/3 301/2/3 303/2/3
f 305/3/3 302/3/3 304/3/3
f 308/3/3 307/3/3 306/3/3
f 309/3/3 307/3/3 308/3/3
f 312/3/3 311/3/3 310/3/3
f 313/3/3 311/3/3 312/3/3
f 316/3/3 315/3/3 314/3/3
f 317/3/3 315/3/3 316/3/3
f 320/3/3 319/3/3 318/3/3
f 321/3/3 319/3/3 320/3/3
f 324/3/3 323/3/3 322/3/3
f 325/3/3 323/3/3 324/3/3
f 328/3/3 327/3/3 326/3/3
f 329/3/3 327/3/3 328/3/3
f 332/3/3 331/3/3 330/3/3
f 333/3/3 331/3/3 332/3/3
f 336/3/3 335/3/3 334/3/3
f 337/3/3 335/3/3 336/3/3
f 340/3/3 339/3/3 338/3/3
f 341/3/3 339/3/3 340/3/3
f 344/3/3 343/3/3 342/3/3
f 345/3/3 343/3/3 344/3/3
f 348/3/3 347/3/3 346/3/3
f 349/3/3 347/3/3 348/3/3
f 352/3/3 351/3/3 350/3/3
f 353/3/3 351/3/3 352/3/3
f 356/3/3 355/3/3 354/3/3
f 357/3/3 355/3/3 356/3/3
f 361/3/3 359/3/3 358/3/3
f 362/3/3 361/3/3 360/3/3
f 363/3/3 359/3/3 361/3/3
f 363/3/3 361/3/3 362/3/3
f 366/3/3 365/3/3 364/3/3
f 367/3/3 365/3/3 366/3/3
f 370/3/3 369/3/3 368/3/3
f 371/3/3 369/3/3 370/3/3
f 374/3/3 373/3/3 372/3/3
f 375/3/3 373/3/3 374/3/3
f 378/3/3 377/3/3 376/3/3
f 379/3/3 377/3/3 378/3/3
f 382/3/3 381/3/3 380/3/3
f 383/3/3 381/3/3 382/3/3
f 386/3/3 385/3/3 384/3/3
f 387/3/3 385/3/3 386/3/3
f 388/3/3 385/3/3 387/3/3
f 391/3/3 390/3/3 389/3/3
f 392/3/3 390/3/3 391/3/3
f 395/3/3 394/3/3 393/3/3
f 396/3/3 394/3/3 395/3/3
f 398/3/3 394/3/3 396/3/3
f 399/3/3 394/3/3 398/3/3
f 399/3/3 398/3/3 397/3/3
f 401/3/3 399/3/3 397/3/3
f 401/3/3 400/3/3 399/3/3
f 402/3/3 400/3/3 401/3/3
f 405/3/3 404/3/3 403/3/3
f 406/3/3 404/3/3 405/3/3
f 407/3/4 408/3/4 409/3/4
f 409/3/4 408/3/4 410/3/4
f 411/3/4 412/3/4 413/3/4
f 413/3/4 412/3/4 414/3/4
f 414/3/4 412/3/4 416/3/4
f 415/3/4 416/3/4 417/3/4
f 416/3/4 412/3/4 418/3/4
f 417/3/4 416/3/4 418/3/4
f 418/3/4 412/3/4 419/3/4
f 420/3/4 421/3/4 422/3/4
f 422/3/4 421/3/4 423/3/4
f 424/3/4 425/3/4 426/3/4
f 426/3/4 425/3/4 427/3/4
f 428/3/4 429/3/4 430/3/4
f 430/3/4 429/3/4 431/3/4
f 432/3/4 433/3/4 434/3/4
f 434/3/4 433/3/4 435/3/4
f 436/3/4 437/3/4 438/3/4
f 436/3/4 438/3/4 440/3/4
f 438/3/4 439/3/4 440/3/4
f 440/3/4 439/3/4 441/3/4
f 442/3/4 443/3/4 444/3/4
f 444/3/4 443/3/4 445/3/4
f 446/3/4 447/3/4 448/3/4
f 448/3/4 447/3/4 449/3/4
f 449/3/4 447/3/4 450/3/4
f 451/3/4 452/3/4 453/3/4
f 453/3/4 452/3/4 454/3/4
f 455/3/4 456/3/4 457/3/4
f 457/3/4 456/3/4 458/3/4
f 459/3/4 460/3/4 461/3/4
f 461/3/4 460/3/4 462/3/4
f 463/3/4 464/3/4 465/3/4
f 465/3/4 464/3/4 466/3/4
f 467/3/4 468/3/4 469/3/4
f 469/3/4 468/3/4 470/3/4
f 471/3/4 472/3/4 473/3/4
f 473/3/4 472/3/4 474/3/4
f 474/3/4 472/3/4 475/3/4
f 476/3/4 477/3/4 479/3/4
f 478/3/4 479/3/4 480/3/4
f 479/3/4 477/3/4 481/3/4
f 480/3/4 479/3/4 481/3/4
f 481/3/4 477/3/4 482/3/4
f 482/3/4 477/3/4 483/3/4
f 484/3/4 485/3/4 487/3/4
f 485/3/4 486/3/4 487/3/4
f 487/3/4 486/3/4 488/3/4
f 489/3/4 490/3/4 491/3/4
f 491/3/4 490/3/4 492/3/4
f 493/3/4 494/3/4 495/3/4
f 495/3/4 494/3/4 496/3/4
f 497/3/4 498/3/4 499/3/4
f 499/3/4 498/3/4 500/3/4
f 501/3/4 502/3/4 503/3/4
f 503/3/4 502/3/4 504/3/4
f 505/3/4 506/3/4 507/3/4
f 507/3/4 506/3/4 508/3/4
f 509/3/4 510/3/4 511/3/4
f 511/3/4 510/3/4 512/3/4
f 513/1/4 514/1/4 515/1/4
f 515/1/4 514/1/4 516/1/4
f 519/2/5 518/2/5 517/2/5
f 520/2/5 518/2/5 519/2/5
f 521/3/5 520/3/5 519/3/5
f 522/3/5 520/3/5 521/3/5
f 523/2/5 522/2/5 521/2/5
f 524/2/5 522/2/5 523/2/5
f 525/3/5 524/3/5 523/3/5
f 526/3/5 524/3/5 525/3/5
f 527/2/5 526/2/5 525/2/5
f 528/2/5 526/2/5 527/2/5
f 529/3/5 528/3/5 527/3/5
f 530/3/5 528/3/5 529/3/5
f 531/2/5 530/2/5 529/2/5
f 532/2/5 530/2/5 531/2/5
f 533/3/5 532/3/5 531/3/5
f 534/3/5 532/3/5 533/3/5
f 535/2/5 534/2/5 533/2/5
f 536/2/5 534/2/5 535/2/5
f 537/3/5 536/3/5 535/3/5
f 538/3/5 536/3/5 537/3/5
f 539/2/5 538/2/5 537/2/5
f 540/2/5 538/2/5 539/2/5
f 541/3/5 540/3/5 539/3/5
f 542/3/5 540/3/5 541/3/5
f 543/2/5 542/2/5 541/2/5
f 544/2/5 542/2/5 543/2/5
f 545/3/5 544/3/5 543/3/5
f 546/3/5 544/3/5 545/3/5
f 547/1/5 546/1/5 545/1/5
f 548/1/5 546/1/5 547/1/5
f 551/3/5 550/3/5 549/3/5
f 552/3/5 550/3/5 551/3/5
f 555/3/5 554/3/5 553/3/5
f 556/3/5 554/3/5 555/3/5
f 559/3/5 558/3/5 557/3/5
f 560/3/5 558/3/5 559/3/5
f 561/2/6 562/2/6 563/2/6
f 563/2/6 562/2/6 564/2/6
f 563/3/6 564/3/6 565/3/6
f 565/3/6 564/3/6 566/3/6
f 565/2/6 566/2/6 567/2/6
f 567/2/6 566/2/6 568/2/6
f 565/2/6 567/2/6 569/2/6
f 569/2/6 567/2/6 570/2/6
f 568/2/6 566/2/6 571/2/6
f 571/2/6 566/2/6 572/2/6
f 569/3/6 570/3/6 573/3/6
f 571/3/6 572/3/6 574/3/6
f 569/3/6 573/3/6 575/3/6
f 573/3/6 574/3/6 575/3/6
f 574/3/6 572/3/6 576/3/6
f 575/3/6 574/3/6 576/3/6
f 576/3/6 572/3/6 577/3/6
f 577/3/6 572/3/6 578/3/6
f 581/3/6 582/3/6 584/3/6
f 579/3/6 580/3/6 585/3/6
f 585/3/6 580/3/6 586/3/6
f 583/3/6 584/3/6 587/3/6
f 584/3/6 582/3/6 588/3/6
f 587/3/6 584/3/6 588/3/6
f 588/3/6 582/3/6 589/3/6
f 578/3/6 572/3/6 590/3/6
f 590/3/6 572/3/6 591/3/6
f 588/2/6 589/2/6 592/2/6
f 592/2/6 589/2/6 593/2/6
f 585/2/6 586/2/6 594/2/6
f 588/2/6 592/2/6 595/2/6
f 585/2/6 594/2/6 596/2/6
f 594/2/6 595/2/6 596/2/6
f 595/2/6 592/2/6 597/2/6
f 596/2/6 595/2/6 597/2/6
f 590/2/6 591/2/6 599/2/6
f 599/2/6 591/2/6 600/2/6
f 598/2/6 599/2/6 600/2/6
f 597/2/6 592/2/6 602/2/6
f 602/2/6 592/2/6 603/2/6
f 598/2/6 600/2/6 604/2/6
f 600/2/6 601/2/6 604/2/6
f 604/2/6 601/2/6 605/2/6
f 602/3/6 603/3/6 606/3/6
f 604/3/6 605/3/6 607/3/6
f 606/3/6 607/3/6 608/3/6
f 608/3/6 607/3/6 609/3/6
f 602/3/6 606/3/6 610/3/6
f 606/3/6 608/3/6 610/3/6
f 610/3/6 608/3/6 611/3/6
f 611/3/6 608/3/6 612/3/6
f 609/3/6 607/3/6 613/3/6
f 607/3/6 605/3/6 614/3/6
f 613/3/6 607/3/6 614/3/6
f 614/3/6 605/3/6 615/3/6
f 611/3/6 612/3/6 616/3/6
f 612/3/6 613/3/6 616/3/6
f 613/3/6 614/3/6 616/3/6
f 616/3/6 614/3/6 617/3/6
f 615/3/6 605/3/6 618/3/6
f 618/3/6 605/3/6 619/3/6
f 616/2/6 617/2/6 620/2/6
f 617/2/6 618/2/6 620/2/6
f 618/2/6 619/2/6 620/2/6
f 620/2/6 619/2/6 621/2/6
f 616/2/6 620/2/6 622/2/6
f 622/2/6 620/2/6 623/2/6
f 621/2/6 619/2/6 624/2/6
f 624/2/6 619/2/6 625/2/6
f 625/2/6 619/2/6 626/2/6
f 626/2/6 619/2/6 627/2/6
f 626/3/6 627/3/6 628/3/6
f 628/3/6 627/3/6 629/3/6
f 629/3/6 627/3/6 633/3/6
f 630/3/6 631/3/6 634/3/6
f 632/3/6 633/3/6 635/3/6
f 630/3/6 634/3/6 636/3/6
f 634/3/6 635/3/6 636/3/6
f 636/3/6 635/3/6 637/3/6
f 635/3/6 633/3/6 638/3/6
f 637/3/6 635/3/6 638/3/6
f 633/3/6 627/3/6 638/3/6
f 638/3/6 627/3/6 639/3/6
f 630/3/6 636/3/6 640/3/6
f 640/3/6 636/3/6 641/3/6
f 637/3/6 638/3/6 642/3/6
f 642/3/6 638/3/6 643/3/6
f 640/2/6 641/2/6 646/2/6
f 646/2/6 641/2/6 647/2/6
f 642/2/6 643/2/6 648/2/6
f 648/2/6 643/2/6 649/2/6
f 644/2/6 645/2/6 650/2/6
f 644/2/6 650/2/6 652/2/6
f 650/2/6 651/2/6 652/2/6
f 652/2/6 651/2/6 653/2/6
f 649/2/6 643/2/6 654/2/6
f 654/2/6 643/2/6 655/2/6
f 652/3/6 653/3/6 656/3/6
f 654/3/6 655/3/6 657/3/6
f 652/3/6 656/3/6 658/3/6
f 656/3/6 657/3/6 658/3/6
f 657/3/6 655/3/6 659/3/6
f 658/3/6 657/3/6 659/3/6
f 658/2/6 659/2/6 660/2/6
f 660/2/6 659/2/6 661/2/6
f 660/3/6 661/3/6 662/3/6
f 662/3/6 661/3/6 663/3/6
f 662/2/6 663/2/6 664/2/6
f 664/2/6 663/2/6 665/2/6
f 666/3/6 667/3/6 668/3/6
f 668/3/6 667/3/6 669/3/6
f 670/3/6 671/3/6 672/3/6
f 672/3/6 671/3/6 673/3/6
f 673/3/6 671/3/6 674/3/6
f 675/3/6 676/3/6 680/3/6
f 679/3/6 680/3/6 681/3/6
f 680/3/6 676/3/6 682/3/6
f 681/3/6 680/3/6 682/3/6
f 677/3/6 678/3/6 683/3/6
f 683/3/6 684/3/6 685/3/6
f 677/3/6 683/3/6 687/3/6
f 685/3/6 686/3/6 687/3/6
f 683/3/6 685/3/6 687/3/6
f 687/3/6 686/3/6 688/3/6
f 689/3/6 690/3/6 693/3/6
f 693/3/6 690/3/6 694/3/6
f 695/3/6 696/3/6 697/3/6
f 697/3/6 696/3/6 698/3/6
f 691/3/6 692/3/6 699/3/6
f 699/3/6 692/3/6 700/3/6
f 700/3/6 692/3/6 701/3/6
f 701/3/6 692/3/6 702/3/6
f 703/3/6 704/3/6 705/3/6
f 707/3/6 708/3/6 709/3/6
f 707/3/6 709/3/6 710/3/6
f 710/3/6 709/3/6 711/3/6
f 705/3/6 706/3/6 714/3/6
f 703/3/6 705/3/6 714/3/6
f 714/3/6 706/3/6 715/3/6
f 703/3/6 714/3/6 716/3/6
f 716/3/6 714/3/6 717/3/6
f 712/3/6 713/3/6 718/3/6
f 718/3/6 713/3/6 719/3/6
f 720/3/6 721/3/6 722/3/6
f 722/3/6 721/3/6 723/3/6
f 724/3/6 725/3/6 728/3/6
f 726/3/6 727/3/6 729/3/6
f 724/3/6 728/3/6 730/3/6
f 728/3/6 729/3/6 730/3/6
f 729/3/6 727/3/6 731/3/6
f 730/3/6 729/3/6 731/3/6
f 730/3/6 731/3/6 733/3/6
f 731/3/6 732/3/6 733/3/6
f 733/3/6 732/3/6 734/3/6
f 734/3/6 732/3/6 735/3/6
f 735/3/6 732/3/6 736/3/6
f 737/3/6 738/3/6 739/3/6
f 739/3/6 738/3/6 740/3/6
f 737/3/6 739/3/6 741/3/6
f 741/3/6 739/3/6 742/3/6
f 737/3/6 741/3/6 743/3/6
f 743/3/6 741/3/6 744/3/6
f 745/3/6 746/3/6 750/3/6
f 750/3/6 746/3/6 751/3/6
f 748/3/6 749/3/6 752/3/6
f 747/3/6 748/3/6 752/3/6
f 752/3/6 749/3/6 753/3/6
f 754/3/6 755/3/6 758/3/6
f 758/3/6 759/3/6 760/3/6
f 756/3/6 757/3/6 761/3/6
f 758/3/6 760/3/6 762/3/6
f 760/3/6 761/3/6 762/3/6
f 754/3/6 758/3/6 762/3/6
f 761/3/6 757/3/6 763/3/6
f 762/3/6 761/3/6 763/3/6
f 764/3/6 765/3/6 766/3/6
f 766/3/6 765/3/6 767/3/6
f 767/3/6 765/3/6 768/3/6
f 768/3/6 765/3/6 769/3/6
f 770/3/6 771/3/6 772/3/6
f 772/3/6 771/3/6 773/3/6
f 773/3/6 771/3/6 774/3/6
f 772/3/6 773/3/6 775/3/6
f 775/3/6 773/3/6 776/3/6
f 774/3/6 771/3/6 777/3/6
f 777/3/6 771/3/6 778/3/6
f 779/3/6 780/3/6 781/3/6
f 781/3/6 780/3/6 782/3/6
f 783/3/6 784/3/6 785/3/6
f 785/3/6 784/3/6 786/3/6
f 787/3/6 788/3/6 789/3/6
f 789/3/6 788/3/6 790/3/6
f 791/3/6 792/3/6 794/3/6
f 793/3/6 794/3/6 795/3/6
f 794/3/6 792/3/6 796/3/6
f 795/3/6 794/3/6 796/3/6
f 795/1/6 796/1/6 797/1/6
f 797/1/6 796/1/6 798/1/6
