# MagicaVoxel @ Ephtracy

# group
g 4x2 first (2)-2

# material
mtllib 4x2 first (2)-2.mtl
usemtl palette

# normals
vn -1 0 0
vn 1 0 0
vn 0 0 1
vn 0 0 -1
vn 0 -1 0
vn 0 1 0

# texcoords
vt 0.251953 0.5
vt 0.962891 0.5
vt 0.966797 0.5
vt 0.970703 0.5
vt 0.982422 0.5

# verts
v -63 0 63
v -63 0 -62
v -63 0 -63
v -63 4 63
v -63 4 33
v -63 4 30
v -63 4 -13
v -63 5 63
v -63 5 33
v -63 5 30
v -63 5 -13
v -63 5 -14
v -63 5 -61
v -63 80 -13
v -63 80 -14
v -63 80 -61
v -63 80 -62
v -63 80 -63
v 30 5 63
v 30 5 -13
v 30 5 -14
v 30 5 -21
v 30 5 -51
v 30 5 -61
v 30 45 -21
v 30 45 -51
v 30 80 63
v 30 80 -13
v 30 80 -14
v 30 80 -61
v 32 5 63
v 32 5 -21
v 32 5 -51
v 32 5 -61
v 32 45 -21
v 32 45 -51
v 32 80 63
v 32 80 -61
v 63 0 63
v 63 0 -62
v 63 0 -63
v 63 5 63
v 63 5 -61
v 63 80 -61
v 63 80 -62
v 63 80 -63
v -63 0 63
v -63 4 63
v -63 5 63
v 7 4 63
v 7 5 63
v 10 4 63
v 10 5 63
v 30 4 63
v 30 5 63
v 30 80 63
v 32 5 63
v 32 80 63
v 63 0 63
v 63 5 63
v -63 5 -13
v -63 80 -13
v 30 5 -13
v 30 80 -13
v 30 5 -51
v 30 45 -51
v 32 5 -51
v 32 45 -51
v -63 5 -61
v -63 80 -61
v 30 5 -61
v 30 80 -61
v 32 5 -61
v 32 80 -61
v 63 5 -61
v 63 80 -61
v -63 5 -14
v -63 80 -14
v 30 5 -14
v 30 80 -14
v 30 5 -21
v 30 45 -21
v 32 5 -21
v 32 45 -21
v -63 0 -63
v -63 80 -63
v 63 0 -63
v 63 80 -63
v -63 0 63
v 63 0 63
v -63 0 -62
v 63 0 -62
v -63 0 -63
v 63 0 -63
v 30 45 -21
v 32 45 -21
v 30 45 -51
v 32 45 -51
v -63 5 63
v 7 5 63
v 10 5 63
v 30 5 63
v 32 5 63
v 63 5 63
v -63 5 33
v 7 5 33
v -63 5 30
v 10 5 30
v -63 5 -13
v 30 5 -13
v -63 5 -14
v 30 5 -14
v 30 5 -21
v 32 5 -21
v 30 5 -51
v 32 5 -51
v -63 5 -61
v 30 5 -61
v 32 5 -61
v 63 5 -61
v 30 80 63
v 32 80 63
v -63 80 -13
v 30 80 -13
v -63 80 -14
v 30 80 -14
v -63 80 -61
v 30 80 -61
v 32 80 -61
v 63 80 -61
v -63 80 -62
v 63 80 -62
v -63 80 -63
v 63 80 -63

# faces
f 4/3/1 2/3/1 1/3/1
f 5/3/1 2/3/1 4/3/1
f 6/3/1 2/3/1 5/3/1
f 7/3/1 2/3/1 6/3/1
f 8/5/1 5/5/1 4/5/1
f 9/2/1 6/2/1 5/2/1
f 9/5/1 5/5/1 8/5/1
f 10/5/1 7/5/1 6/5/1
f 10/2/1 6/2/1 9/2/1
f 11/3/1 2/3/1 7/3/1
f 11/5/1 7/5/1 10/5/1
f 12/3/1 2/3/1 11/3/1
f 13/3/1 2/3/1 12/3/1
f 14/4/1 12/4/1 11/4/1
f 15/4/1 12/4/1 14/4/1
f 16/3/1 2/3/1 13/3/1
f 17/1/1 3/1/1 2/1/1
f 17/3/1 2/3/1 16/3/1
f 18/1/1 3/1/1 17/1/1
f 25/3/1 22/3/1 21/3/1
f 26/3/1 24/3/1 23/3/1
f 27/3/1 20/3/1 19/3/1
f 28/3/1 20/3/1 27/3/1
f 29/3/1 26/3/1 25/3/1
f 29/3/1 25/3/1 21/3/1
f 30/3/1 24/3/1 26/3/1
f 30/3/1 26/3/1 29/3/1
f 31/3/2 32/3/2 35/3/2
f 33/3/2 34/3/2 36/3/2
f 31/3/2 35/3/2 37/3/2
f 35/3/2 36/3/2 37/3/2
f 36/3/2 34/3/2 38/3/2
f 37/3/2 36/3/2 38/3/2
f 39/3/2 40/3/2 42/3/2
f 42/3/2 40/3/2 43/3/2
f 43/3/2 40/3/2 44/3/2
f 40/1/2 41/1/2 45/1/2
f 44/3/2 40/3/2 45/3/2
f 45/1/2 41/1/2 46/1/2
f 50/3/3 48/3/3 47/3/3
f 50/5/3 49/5/3 48/5/3
f 51/5/3 49/5/3 50/5/3
f 52/3/3 50/3/3 47/3/3
f 52/2/3 51/2/3 50/2/3
f 53/2/3 51/2/3 52/2/3
f 54/3/3 52/3/3 47/3/3
f 54/5/3 53/5/3 52/5/3
f 55/5/3 53/5/3 54/5/3
f 57/3/3 55/3/3 54/3/3
f 57/3/3 56/3/3 55/3/3
f 58/3/3 56/3/3 57/3/3
f 59/3/3 54/3/3 47/3/3
f 59/3/3 57/3/3 54/3/3
f 60/3/3 57/3/3 59/3/3
f 63/4/3 62/4/3 61/4/3
f 64/4/3 62/4/3 63/4/3
f 67/3/3 66/3/3 65/3/3
f 68/3/3 66/3/3 67/3/3
f 71/3/3 70/3/3 69/3/3
f 72/3/3 70/3/3 71/3/3
f 75/3/3 74/3/3 73/3/3
f 76/3/3 74/3/3 75/3/3
f 77/4/4 78/4/4 79/4/4
f 79/4/4 78/4/4 80/4/4
f 81/3/4 82/3/4 83/3/4
f 83/3/4 82/3/4 84/3/4
f 85/1/4 86/1/4 87/1/4
f 87/1/4 86/1/4 88/1/4
f 91/3/5 90/3/5 89/3/5
f 92/3/5 90/3/5 91/3/5
f 93/1/5 92/1/5 91/1/5
f 94/1/5 92/1/5 93/1/5
f 97/3/5 96/3/5 95/3/5
f 98/3/5 96/3/5 97/3/5
f 99/5/6 100/5/6 105/5/6
f 100/2/6 101/2/6 106/2/6
f 105/5/6 100/5/6 106/5/6
f 105/2/6 106/2/6 107/2/6
f 101/5/6 102/5/6 108/5/6
f 107/2/6 106/2/6 108/2/6
f 106/2/6 101/2/6 108/2/6
f 107/5/6 108/5/6 109/5/6
f 108/5/6 102/5/6 110/5/6
f 109/5/6 108/5/6 110/5/6
f 111/3/6 112/3/6 113/3/6
f 103/3/6 104/3/6 114/3/6
f 111/3/6 113/3/6 115/3/6
f 113/3/6 114/3/6 115/3/6
f 114/3/6 104/3/6 116/3/6
f 115/3/6 114/3/6 116/3/6
f 111/3/6 115/3/6 117/3/6
f 117/3/6 115/3/6 118/3/6
f 116/3/6 104/3/6 119/3/6
f 119/3/6 104/3/6 120/3/6
f 121/3/6 122/3/6 124/3/6
f 123/4/6 124/4/6 125/4/6
f 124/3/6 122/3/6 126/3/6
f 125/4/6 124/4/6 126/4/6
f 126/3/6 122/3/6 128/3/6
f 128/3/6 122/3/6 129/3/6
f 127/3/6 128/3/6 131/3/6
f 129/3/6 130/3/6 131/3/6
f 128/3/6 129/3/6 131/3/6
f 131/3/6 130/3/6 132/3/6
f 131/1/6 132/1/6 133/1/6
f 133/1/6 132/1/6 134/1/6
