# MagicaVoxel @ Ephtracy

# group
g 4x2 first (2)-0

# material
mtllib 4x2 first (2)-0.mtl
usemtl palette

# normals
vn -1 0 0
vn 1 0 0
vn 0 0 1
vn 0 0 -1
vn 0 -1 0
vn 0 1 0

# texcoords
vt 0.251953 0.5
vt 0.962891 0.5
vt 0.966797 0.5
vt 0.970703 0.5
vt 0.982422 0.5
vt 0.986328 0.5

# verts
v -63 0 63
v -63 0 -63
v -63 80 63
v -63 80 -63
v -26 5 9
v -26 5 8
v -26 45 9
v -26 45 8
v 11 5 8
v 11 5 -21
v 11 5 -51
v 11 5 -61
v 11 45 -21
v 11 45 -51
v 11 80 8
v 11 80 -61
v -61 5 63
v -61 5 37
v -61 5 36
v -61 5 9
v -61 5 8
v -61 5 -61
v -61 7 63
v -61 7 62
v -61 7 36
v -61 7 35
v -61 10 37
v -61 10 36
v -61 11 62
v -61 11 60
v -61 13 60
v -61 13 57
v -61 15 37
v -61 15 35
v -61 17 57
v -61 17 47
v -61 17 45
v -61 17 44
v -61 17 41
v -61 17 37
v -61 18 52
v -61 18 48
v -61 18 44
v -61 18 41
v -61 19 47
v -61 19 45
v -61 20 52
v -61 20 48
v -61 80 63
v -61 80 9
v -61 80 8
v -61 80 -61
v -56 5 9
v -56 5 8
v -56 45 9
v -56 45 8
v 13 5 9
v 13 5 -13
v 13 5 -14
v 13 5 -21
v 13 5 -51
v 13 5 -61
v 13 45 -21
v 13 45 -51
v 13 80 9
v 13 80 -13
v 13 80 -14
v 13 80 -61
v 63 0 63
v 63 0 -62
v 63 0 -63
v 63 4 63
v 63 4 30
v 63 4 -13
v 63 5 63
v 63 5 30
v 63 5 -13
v 63 5 -14
v 63 5 -61
v 63 80 -13
v 63 80 -14
v 63 80 -61
v 63 80 -62
v 63 80 -63
v -63 0 63
v -63 80 63
v -62 0 63
v -62 4 63
v -62 7 63
v -62 80 63
v -61 5 63
v -61 7 63
v -61 80 63
v -56 4 63
v -56 5 63
v -54 1 63
v -54 3 63
v -52 1 63
v -52 3 63
v -45 4 63
v -45 5 63
v -43 4 63
v -43 5 63
v -40 4 63
v -40 5 63
v -37 4 63
v -37 5 63
v 33 4 63
v 33 5 63
v 36 4 63
v 36 5 63
v 60 4 63
v 60 5 63
v 63 0 63
v 63 4 63
v 63 5 63
v -61 5 9
v -61 80 9
v -56 5 9
v -56 45 9
v -26 5 9
v -26 45 9
v 13 5 9
v 13 80 9
v 13 5 -13
v 13 80 -13
v 63 5 -13
v 63 80 -13
v 11 5 -51
v 11 45 -51
v 13 5 -51
v 13 45 -51
v -61 5 -61
v -61 80 -61
v 11 5 -61
v 11 80 -61
v 13 5 -61
v 13 80 -61
v 63 5 -61
v 63 80 -61
v -61 5 8
v -61 80 8
v -56 5 8
v -56 45 8
v -26 5 8
v -26 45 8
v 11 5 8
v 11 80 8
v 13 5 -14
v 13 80 -14
v 63 5 -14
v 63 80 -14
v 11 5 -21
v 11 45 -21
v 13 5 -21
v 13 45 -21
v -63 0 -63
v -63 80 -63
v 63 0 -63
v 63 80 -63
v -63 0 63
v -62 0 63
v 63 0 63
v -62 0 -62
v 63 0 -62
v -63 0 -63
v 63 0 -63
v -56 45 9
v -26 45 9
v -56 45 8
v -26 45 8
v 11 45 -21
v 13 45 -21
v 11 45 -51
v 13 45 -51
v -61 5 63
v -56 5 63
v -45 5 63
v -43 5 63
v -40 5 63
v -37 5 63
v 33 5 63
v 36 5 63
v 60 5 63
v 63 5 63
v -52 5 62
v -49 5 62
v -55 5 61
v -52 5 61
v -49 5 61
v -48 5 61
v -56 5 60
v -55 5 60
v -45 5 59
v -43 5 59
v -57 5 58
v -55 5 58
v -57 5 57
v -55 5 57
v -48 5 57
v -45 5 57
v -44 5 55
v -43 5 55
v -44 5 52
v -43 5 52
v -45 5 47
v -42 5 47
v -43 5 46
v -42 5 46
v -43 5 45
v -41 5 45
v -45 5 43
v -41 5 43
v -43 5 41
v -42 5 41
v -43 5 40
v -42 5 40
v -61 5 37
v -60 5 37
v -52 5 37
v -45 5 37
v -44 5 37
v -61 5 36
v -60 5 36
v -57 5 35
v -52 5 35
v -51 5 35
v -50 5 35
v -57 5 34
v -51 5 34
v -50 5 34
v -44 5 34
v -37 5 33
v 33 5 33
v -40 5 30
v 36 5 30
v 60 5 30
v 63 5 30
v -61 5 9
v -56 5 9
v -26 5 9
v 13 5 9
v -61 5 8
v -56 5 8
v -26 5 8
v 11 5 8
v 13 5 -13
v 63 5 -13
v 13 5 -14
v 63 5 -14
v 11 5 -21
v 13 5 -21
v 11 5 -51
v 13 5 -51
v -61 5 -61
v 11 5 -61
v 13 5 -61
v 63 5 -61
v -63 80 63
v -62 80 63
v -61 80 63
v -61 80 9
v 13 80 9
v -61 80 8
v 11 80 8
v 13 80 -13
v 63 80 -13
v 13 80 -14
v 63 80 -14
v -61 80 -61
v 11 80 -61
v 13 80 -61
v 63 80 -61
v -62 80 -62
v 63 80 -62
v -63 80 -63
v 63 80 -63

# faces
f 3/1/1 2/1/1 1/1/1
f 4/1/1 2/1/1 3/1/1
f 7/4/1 6/4/1 5/4/1
f 8/4/1 6/4/1 7/4/1
f 13/4/1 10/4/1 9/4/1
f 14/4/1 12/4/1 11/4/1
f 15/4/1 13/4/1 9/4/1
f 15/4/1 14/4/1 13/4/1
f 16/4/1 12/4/1 14/4/1
f 16/4/1 14/4/1 15/4/1
f 17/6/2 18/6/2 23/6/2
f 23/6/2 18/6/2 24/6/2
f 18/3/2 19/3/2 25/3/2
f 19/3/2 20/3/2 25/3/2
f 25/3/2 20/3/2 26/3/2
f 24/6/2 18/6/2 27/6/2
f 18/3/2 25/3/2 27/3/2
f 25/6/2 26/6/2 28/6/2
f 27/3/2 25/3/2 28/3/2
f 23/3/2 24/3/2 29/3/2
f 24/6/2 27/6/2 29/6/2
f 27/6/2 28/6/2 29/6/2
f 29/6/2 28/6/2 30/6/2
f 29/3/2 30/3/2 31/3/2
f 30/6/2 28/6/2 31/6/2
f 31/6/2 28/6/2 32/6/2
f 32/6/2 28/6/2 33/6/2
f 26/3/2 20/3/2 34/3/2
f 33/6/2 28/6/2 34/6/2
f 28/6/2 26/6/2 34/6/2
f 32/6/2 33/6/2 35/6/2
f 31/3/2 32/3/2 35/3/2
f 35/6/2 33/6/2 36/6/2
f 36/6/2 33/6/2 37/6/2
f 37/6/2 33/6/2 38/6/2
f 38/6/2 33/6/2 39/6/2
f 33/3/2 34/3/2 40/3/2
f 39/6/2 33/6/2 40/6/2
f 35/3/2 36/3/2 41/3/2
f 41/3/2 36/3/2 42/3/2
f 38/6/2 39/6/2 43/6/2
f 37/3/2 38/3/2 43/3/2
f 39/3/2 40/3/2 44/3/2
f 43/6/2 39/6/2 44/6/2
f 42/3/2 36/3/2 45/3/2
f 36/6/2 37/6/2 45/6/2
f 43/3/2 44/3/2 46/3/2
f 45/6/2 37/6/2 46/6/2
f 37/3/2 43/3/2 46/3/2
f 41/6/2 42/6/2 47/6/2
f 35/3/2 41/3/2 47/3/2
f 42/3/2 45/3/2 48/3/2
f 47/6/2 42/6/2 48/6/2
f 45/3/2 46/3/2 48/3/2
f 23/3/2 29/3/2 49/3/2
f 29/3/2 31/3/2 49/3/2
f 47/3/2 48/3/2 49/3/2
f 31/3/2 35/3/2 49/3/2
f 35/3/2 47/3/2 49/3/2
f 34/3/2 20/3/2 50/3/2
f 49/3/2 48/3/2 50/3/2
f 44/3/2 40/3/2 50/3/2
f 40/3/2 34/3/2 50/3/2
f 46/3/2 44/3/2 50/3/2
f 48/3/2 46/3/2 50/3/2
f 21/3/2 22/3/2 51/3/2
f 51/3/2 22/3/2 52/3/2
f 53/4/2 54/4/2 55/4/2
f 55/4/2 54/4/2 56/4/2
f 59/4/2 60/4/2 63/4/2
f 61/4/2 62/4/2 64/4/2
f 57/4/2 58/4/2 65/4/2
f 65/4/2 58/4/2 66/4/2
f 63/4/2 64/4/2 67/4/2
f 59/4/2 63/4/2 67/4/2
f 64/4/2 62/4/2 68/4/2
f 67/4/2 64/4/2 68/4/2
f 69/3/2 70/3/2 72/3/2
f 72/3/2 70/3/2 73/3/2
f 73/3/2 70/3/2 74/3/2
f 72/2/2 73/2/2 75/2/2
f 73/5/2 74/5/2 76/5/2
f 75/2/2 73/2/2 76/2/2
f 74/3/2 70/3/2 77/3/2
f 76/5/2 74/5/2 77/5/2
f 77/3/2 70/3/2 78/3/2
f 78/3/2 70/3/2 79/3/2
f 77/3/2 78/3/2 80/3/2
f 80/3/2 78/3/2 81/3/2
f 79/3/2 70/3/2 82/3/2
f 70/1/2 71/1/2 83/1/2
f 82/3/2 70/3/2 83/3/2
f 83/1/2 71/1/2 84/1/2
f 87/1/3 86/1/3 85/1/3
f 88/1/3 86/1/3 87/1/3
f 89/1/3 86/1/3 88/1/3
f 90/1/3 86/1/3 89/1/3
f 91/6/3 89/6/3 88/6/3
f 92/3/3 90/3/3 89/3/3
f 92/6/3 89/6/3 91/6/3
f 93/3/3 90/3/3 92/3/3
f 94/3/3 88/3/3 87/3/3
f 94/6/3 91/6/3 88/6/3
f 95/6/3 91/6/3 94/6/3
f 96/3/3 94/3/3 87/3/3
f 97/3/3 94/3/3 96/3/3
f 98/3/3 96/3/3 87/3/3
f 98/6/3 97/6/3 96/6/3
f 99/3/3 94/3/3 97/3/3
f 99/6/3 97/6/3 98/6/3
f 100/5/3 95/5/3 94/5/3
f 100/3/3 94/3/3 99/3/3
f 100/3/3 99/3/3 98/3/3
f 101/5/3 95/5/3 100/5/3
f 102/3/3 100/3/3 98/3/3
f 102/6/3 101/6/3 100/6/3
f 103/6/3 101/6/3 102/6/3
f 104/3/3 102/3/3 98/3/3
f 104/5/3 103/5/3 102/5/3
f 105/5/3 103/5/3 104/5/3
f 106/3/3 104/3/3 98/3/3
f 106/2/3 105/2/3 104/2/3
f 107/2/3 105/2/3 106/2/3
f 108/3/3 106/3/3 98/3/3
f 108/5/3 107/5/3 106/5/3
f 109/5/3 107/5/3 108/5/3
f 110/3/3 108/3/3 98/3/3
f 110/2/3 109/2/3 108/2/3
f 111/2/3 109/2/3 110/2/3
f 112/3/3 110/3/3 98/3/3
f 112/5/3 111/5/3 110/5/3
f 113/5/3 111/5/3 112/5/3
f 114/3/3 98/3/3 87/3/3
f 114/3/3 112/3/3 98/3/3
f 115/2/3 113/2/3 112/2/3
f 115/3/3 112/3/3 114/3/3
f 116/2/3 113/2/3 115/2/3
f 119/4/3 118/4/3 117/4/3
f 120/4/3 118/4/3 119/4/3
f 122/4/3 118/4/3 120/4/3
f 123/4/3 122/4/3 121/4/3
f 124/4/3 118/4/3 122/4/3
f 124/4/3 122/4/3 123/4/3
f 127/3/3 126/3/3 125/3/3
f 128/3/3 126/3/3 127/3/3
f 131/4/3 130/4/3 129/4/3
f 132/4/3 130/4/3 131/4/3
f 135/3/3 134/3/3 133/3/3
f 136/3/3 134/3/3 135/3/3
f 139/3/3 138/3/3 137/3/3
f 140/3/3 138/3/3 139/3/3
f 141/4/4 142/4/4 143/4/4
f 143/4/4 142/4/4 144/4/4
f 144/4/4 142/4/4 146/4/4
f 145/4/4 146/4/4 147/4/4
f 146/4/4 142/4/4 148/4/4
f 147/4/4 146/4/4 148/4/4
f 149/3/4 150/3/4 151/3/4
f 151/3/4 150/3/4 152/3/4
f 153/4/4 154/4/4 155/4/4
f 155/4/4 154/4/4 156/4/4
f 157/1/4 158/1/4 159/1/4
f 159/1/4 158/1/4 160/1/4
f 164/1/5 162/1/5 161/1/5
f 164/3/5 163/3/5 162/3/5
f 165/3/5 163/3/5 164/3/5
f 166/1/5 164/1/5 161/1/5
f 166/1/5 165/1/5 164/1/5
f 167/1/5 165/1/5 166/1/5
f 170/4/5 169/4/5 168/4/5
f 171/4/5 169/4/5 170/4/5
f 174/4/5 173/4/5 172/4/5
f 175/4/5 173/4/5 174/4/5
f 177/5/6 178/5/6 186/5/6
f 186/5/6 178/5/6 187/5/6
f 177/5/6 186/5/6 188/5/6
f 186/6/6 187/6/6 189/6/6
f 188/5/6 186/5/6 189/5/6
f 187/5/6 178/5/6 190/5/6
f 189/6/6 187/6/6 190/6/6
f 190/5/6 178/5/6 191/5/6
f 176/6/6 177/6/6 192/6/6
f 177/5/6 188/5/6 192/5/6
f 188/6/6 189/6/6 193/6/6
f 192/5/6 188/5/6 193/5/6
f 190/6/6 191/6/6 193/6/6
f 189/6/6 190/6/6 193/6/6
f 191/5/6 178/5/6 194/5/6
f 178/6/6 179/6/6 194/6/6
f 179/5/6 180/5/6 195/5/6
f 194/6/6 179/6/6 195/6/6
f 192/6/6 193/6/6 196/6/6
f 176/6/6 192/6/6 196/6/6
f 193/6/6 191/6/6 197/6/6
f 196/6/6 193/6/6 197/6/6
f 176/6/6 196/6/6 198/6/6
f 196/5/6 197/5/6 198/5/6
f 197/6/6 191/6/6 199/6/6
f 198/5/6 197/5/6 199/5/6
f 191/5/6 194/5/6 200/5/6
f 199/6/6 191/6/6 200/6/6
f 194/5/6 195/5/6 200/5/6
f 200/5/6 195/5/6 201/5/6
f 201/5/6 195/5/6 202/5/6
f 195/5/6 180/5/6 203/5/6
f 202/5/6 195/5/6 203/5/6
f 201/5/6 202/5/6 204/5/6
f 202/6/6 203/6/6 204/6/6
f 203/5/6 180/5/6 205/5/6
f 204/6/6 203/6/6 205/6/6
f 201/5/6 204/5/6 206/5/6
f 198/6/6 199/6/6 206/6/6
f 204/5/6 205/5/6 206/5/6
f 200/6/6 201/6/6 206/6/6
f 199/6/6 200/6/6 206/6/6
f 205/5/6 180/5/6 207/5/6
f 206/5/6 205/5/6 207/5/6
f 206/6/6 207/6/6 208/6/6
f 207/5/6 180/5/6 209/5/6
f 208/6/6 207/6/6 209/6/6
f 206/6/6 208/6/6 210/6/6
f 208/5/6 209/5/6 210/5/6
f 209/5/6 180/5/6 211/5/6
f 210/5/6 209/5/6 211/5/6
f 198/6/6 206/6/6 212/6/6
f 206/6/6 210/6/6 212/6/6
f 210/6/6 211/6/6 212/6/6
f 211/5/6 180/5/6 213/5/6
f 212/6/6 211/6/6 213/6/6
f 212/5/6 213/5/6 214/5/6
f 214/5/6 213/5/6 215/5/6
f 212/5/6 214/5/6 216/5/6
f 214/6/6 215/6/6 216/6/6
f 215/5/6 213/5/6 217/5/6
f 216/6/6 215/6/6 217/6/6
f 176/6/6 198/6/6 218/6/6
f 198/6/6 212/6/6 218/6/6
f 218/6/6 212/6/6 219/6/6
f 219/6/6 212/6/6 220/6/6
f 216/5/6 217/5/6 221/5/6
f 220/6/6 212/6/6 221/6/6
f 212/5/6 216/5/6 221/5/6
f 221/5/6 217/5/6 222/5/6
f 218/6/6 219/6/6 223/6/6
f 219/5/6 220/5/6 224/5/6
f 223/6/6 219/6/6 224/6/6
f 223/5/6 224/5/6 225/5/6
f 224/5/6 220/5/6 225/5/6
f 220/6/6 221/6/6 226/6/6
f 225/5/6 220/5/6 226/5/6
f 221/6/6 222/6/6 226/6/6
f 226/6/6 222/6/6 227/6/6
f 227/6/6 222/6/6 228/6/6
f 223/5/6 225/5/6 229/5/6
f 225/6/6 226/6/6 229/6/6
f 226/6/6 227/6/6 229/6/6
f 227/5/6 228/5/6 230/5/6
f 229/6/6 227/6/6 230/6/6
f 228/6/6 222/6/6 231/6/6
f 230/5/6 228/5/6 231/5/6
f 222/5/6 217/5/6 232/5/6
f 231/6/6 222/6/6 232/6/6
f 180/2/6 181/2/6 233/2/6
f 181/5/6 182/5/6 233/5/6
f 182/2/6 183/2/6 234/2/6
f 233/5/6 182/5/6 234/5/6
f 217/5/6 213/5/6 235/5/6
f 232/5/6 217/5/6 235/5/6
f 233/2/6 234/2/6 235/2/6
f 231/5/6 232/5/6 235/5/6
f 229/5/6 230/5/6 235/5/6
f 180/2/6 233/2/6 235/2/6
f 230/5/6 231/5/6 235/5/6
f 213/5/6 180/5/6 235/5/6
f 234/2/6 183/2/6 236/2/6
f 235/2/6 234/2/6 236/2/6
f 183/5/6 184/5/6 236/5/6
f 184/2/6 185/2/6 237/2/6
f 236/5/6 184/5/6 237/5/6
f 237/2/6 185/2/6 238/2/6
f 229/5/6 235/5/6 239/5/6
f 235/5/6 236/5/6 239/5/6
f 237/5/6 238/5/6 239/5/6
f 236/5/6 237/5/6 239/5/6
f 223/5/6 229/5/6 239/5/6
f 239/5/6 238/5/6 240/5/6
f 240/5/6 238/5/6 241/5/6
f 241/5/6 238/5/6 242/5/6
f 240/3/6 241/3/6 244/3/6
f 244/3/6 241/3/6 245/3/6
f 242/5/6 238/5/6 247/5/6
f 247/5/6 238/5/6 248/5/6
f 245/3/6 246/3/6 251/3/6
f 243/3/6 244/3/6 251/3/6
f 244/3/6 245/3/6 251/3/6
f 249/3/6 250/3/6 252/3/6
f 243/3/6 251/3/6 253/3/6
f 251/3/6 252/3/6 253/3/6
f 252/3/6 250/3/6 254/3/6
f 253/3/6 252/3/6 254/3/6
f 243/3/6 253/3/6 255/3/6
f 255/3/6 253/3/6 256/3/6
f 254/3/6 250/3/6 257/3/6
f 257/3/6 250/3/6 258/3/6
f 260/3/6 261/3/6 262/3/6
f 260/3/6 262/3/6 264/3/6
f 262/4/6 263/4/6 264/4/6
f 264/4/6 263/4/6 265/4/6
f 265/4/6 263/4/6 266/4/6
f 265/4/6 266/4/6 268/4/6
f 266/3/6 267/3/6 268/3/6
f 268/3/6 267/3/6 269/3/6
f 260/3/6 264/3/6 270/3/6
f 265/4/6 268/4/6 271/4/6
f 271/4/6 268/4/6 272/4/6
f 259/1/6 260/1/6 274/1/6
f 272/3/6 273/3/6 274/3/6
f 271/3/6 272/3/6 274/3/6
f 270/3/6 271/3/6 274/3/6
f 260/3/6 270/3/6 274/3/6
f 274/3/6 273/3/6 275/3/6
f 259/1/6 274/1/6 276/1/6
f 274/1/6 275/1/6 276/1/6
f 276/1/6 275/1/6 277/1/6
