# MagicaVoxel @ Ephtracy

# group
g 4x2 second (des)-1

# material
mtllib 4x2 second (des)-1.mtl
usemtl palette

# normals
vn -1 0 0
vn 1 0 0
vn 0 0 1
vn 0 0 -1
vn 0 -1 0
vn 0 1 0

# texcoords
vt 0.251953 0.5
vt 0.369141 0.5
vt 0.966797 0.5
vt 0.978516 0.5

# verts
v -63 0 63
v -63 0 62
v -63 0 -63
v -63 1 63
v -63 1 62
v -63 1 61
v -63 1 -63
v -63 22 63
v -63 22 61
v 29 1 61
v 29 1 38
v 29 1 9
v 29 1 -8
v 29 1 -38
v 29 1 -63
v 29 2 7
v 29 2 -4
v 29 3 38
v 29 3 34
v 29 4 42
v 29 4 38
v 29 5 43
v 29 5 42
v 29 5 38
v 29 6 43
v 29 6 42
v 29 8 39
v 29 8 36
v 29 11 40
v 29 11 39
v 29 11 36
v 29 11 34
v 29 11 7
v 29 11 -4
v 29 12 44
v 29 12 42
v 29 14 44
v 29 14 42
v 29 14 8
v 29 14 6
v 29 18 42
v 29 18 40
v 29 21 42
v 29 21 40
v 29 22 63
v 29 22 61
v 29 23 40
v 29 23 34
v 29 24 40
v 29 24 38
v 29 24 9
v 29 24 8
v 29 27 37
v 29 27 34
v 29 28 40
v 29 28 38
v 29 28 9
v 29 28 8
v 29 29 8
v 29 29 6
v 29 33 28
v 29 33 13
v 29 33 10
v 29 33 9
v 29 34 37
v 29 34 28
v 29 34 13
v 29 34 10
v 29 37 23
v 29 37 22
v 29 38 23
v 29 38 22
v 29 41 -8
v 29 41 -38
v 29 80 63
v 29 80 -63
v 32 1 61
v 32 1 -8
v 32 1 -38
v 32 1 -62
v 32 41 -8
v 32 41 -38
v 32 80 61
v 32 80 -62
v 63 0 63
v 63 0 62
v 63 0 61
v 63 0 -62
v 63 0 -63
v 63 1 61
v 63 1 -62
v 63 80 63
v 63 80 62
v 63 80 61
v 63 80 -62
v 63 80 -63
v -63 0 63
v -63 1 63
v -63 22 63
v 29 22 63
v 29 80 63
v 30 1 63
v 30 22 63
v 63 0 63
v 63 80 63
v 29 1 -38
v 29 41 -38
v 30 1 -38
v 30 41 -38
v 31 1 -38
v 32 1 -38
v 32 41 -38
v 32 1 -62
v 32 80 -62
v 63 1 -62
v 63 80 -62
v -63 1 61
v -63 22 61
v 29 1 61
v 29 22 61
v 32 1 61
v 32 80 61
v 63 1 61
v 63 80 61
v 29 1 -8
v 29 41 -8
v 30 1 -8
v 30 41 -8
v 31 1 -8
v 32 1 -8
v 32 41 -8
v -63 0 -63
v -63 1 -63
v 29 1 -63
v 29 80 -63
v 30 1 -63
v 30 80 -63
v 63 0 -63
v 63 80 -63
v -63 0 63
v 63 0 63
v -63 0 62
v 63 0 62
v 32 0 61
v 63 0 61
v -23 0 47
v -22 0 47
v -20 0 47
v -16 0 47
v -23 0 46
v -22 0 46
v -8 0 46
v 10 0 46
v -20 0 45
v -16 0 45
v -8 0 45
v 19 0 44
v 20 0 44
v -22 0 42
v -16 0 42
v -28 0 41
v -22 0 41
v 10 0 41
v 12 0 41
v 17 0 41
v 19 0 41
v 20 0 41
v 21 0 41
v 12 0 40
v 17 0 40
v -28 0 39
v -22 0 39
v 10 0 38
v 11 0 38
v 21 0 38
v 30 0 38
v 17 0 37
v 20 0 37
v 10 0 35
v 11 0 35
v 19 0 34
v 20 0 34
v 15 0 31
v 17 0 31
v 19 0 31
v -25 0 30
v -24 0 30
v 15 0 30
v 17 0 30
v -24 0 29
v -22 0 29
v -30 0 28
v -28 0 28
v -25 0 28
v -24 0 28
v 18 0 28
v 19 0 28
v -25 0 27
v -24 0 27
v -23 0 26
v -22 0 26
v 18 0 26
v 19 0 26
v -25 0 24
v -24 0 24
v -23 0 24
v -22 0 24
v -30 0 20
v -29 0 20
v -29 0 18
v -28 0 18
v -5 0 16
v -4 0 16
v -24 0 15
v -22 0 15
v -5 0 15
v -4 0 15
v 14 0 13
v 16 0 13
v 17 0 13
v 19 0 13
v 16 0 12
v 17 0 12
v 17 0 10
v 19 0 10
v -29 0 9
v -23 0 9
v 25 0 9
v 30 0 9
v -22 0 8
v -13 0 8
v 14 0 8
v 17 0 8
v -29 0 7
v -23 0 7
v -19 0 6
v -14 0 6
v -19 0 4
v -14 0 4
v 3 0 4
v 17 0 4
v -12 0 3
v -4 0 3
v -13 0 1
v -12 0 1
v 17 0 1
v 25 0 1
v 11 0 -0
v 15 0 -0
v 24 0 -0
v 27 0 -0
v -4 0 -2
v 3 0 -2
v 6 0 -2
v 8 0 -2
v 11 0 -2
v 15 0 -2
v 24 0 -2
v 27 0 -2
v -8 0 -3
v -7 0 -3
v 6 0 -3
v 8 0 -3
v 18 0 -3
v 19 0 -3
v -8 0 -4
v -7 0 -4
v 18 0 -4
v 19 0 -4
v 31 0 -8
v 32 0 -8
v 31 0 -38
v 32 0 -38
v 32 0 -62
v 63 0 -62
v -63 0 -63
v 63 0 -63
v 29 41 -8
v 30 41 -8
v 32 41 -8
v 29 41 -38
v 30 41 -38
v 32 41 -38
v -63 1 61
v 29 1 61
v 32 1 61
v 63 1 61
v -23 1 47
v -22 1 47
v -20 1 47
v -16 1 47
v -23 1 46
v -22 1 46
v -8 1 46
v 10 1 46
v -20 1 45
v -16 1 45
v -8 1 45
v 19 1 44
v 20 1 44
v -22 1 42
v -16 1 42
v -28 1 41
v -22 1 41
v 10 1 41
v 12 1 41
v 17 1 41
v 19 1 41
v 20 1 41
v 21 1 41
v 12 1 40
v 17 1 40
v -28 1 39
v -22 1 39
v 10 1 38
v 11 1 38
v 21 1 38
v 29 1 38
v 17 1 37
v 20 1 37
v 10 1 35
v 11 1 35
v 19 1 34
v 20 1 34
v 15 1 31
v 17 1 31
v 19 1 31
v -25 1 30
v -24 1 30
v 15 1 30
v 17 1 30
v -24 1 29
v -22 1 29
v -30 1 28
v -28 1 28
v -25 1 28
v -24 1 28
v 18 1 28
v 19 1 28
v -25 1 27
v -24 1 27
v -23 1 26
v -22 1 26
v 18 1 26
v 19 1 26
v -25 1 24
v -24 1 24
v -23 1 24
v -22 1 24
v -30 1 20
v -29 1 20
v -29 1 18
v -28 1 18
v -5 1 16
v -4 1 16
v -24 1 15
v -22 1 15
v -5 1 15
v -4 1 15
v 14 1 13
v 16 1 13
v 17 1 13
v 19 1 13
v 16 1 12
v 17 1 12
v 17 1 10
v 19 1 10
v -29 1 9
v -23 1 9
v 25 1 9
v 29 1 9
v -22 1 8
v -13 1 8
v 14 1 8
v 17 1 8
v -29 1 7
v -23 1 7
v -19 1 6
v -14 1 6
v -19 1 4
v -14 1 4
v 3 1 4
v 17 1 4
v -12 1 3
v -4 1 3
v -13 1 1
v -12 1 1
v 17 1 1
v 25 1 1
v 11 1 -0
v 15 1 -0
v 24 1 -0
v 27 1 -0
v -4 1 -2
v 3 1 -2
v 6 1 -2
v 8 1 -2
v 11 1 -2
v 15 1 -2
v 24 1 -2
v 27 1 -2
v -8 1 -3
v -7 1 -3
v 6 1 -3
v 8 1 -3
v 18 1 -3
v 19 1 -3
v -8 1 -4
v -7 1 -4
v 18 1 -4
v 19 1 -4
v 29 1 -8
v 30 1 -8
v 31 1 -8
v 32 1 -8
v 29 1 -38
v 30 1 -38
v 31 1 -38
v 32 1 -38
v 32 1 -62
v 63 1 -62
v -63 1 -63
v 29 1 -63
v -63 22 63
v 29 22 63
v -63 22 61
v 29 22 61
v 29 80 63
v 63 80 63
v 30 80 62
v 63 80 62
v 32 80 61
v 63 80 61
v 32 80 -62
v 63 80 -62
v 29 80 -63
v 30 80 -63
v 63 80 -63

# faces
f 4/1/1 2/1/1 1/1/1
f 5/3/1 3/3/1 2/3/1
f 5/1/1 2/1/1 4/1/1
f 6/3/1 3/3/1 5/3/1
f 7/3/1 3/3/1 6/3/1
f 8/3/1 5/3/1 4/3/1
f 8/3/1 6/3/1 5/3/1
f 9/3/1 6/3/1 8/3/1
f 16/1/1 13/1/1 12/1/1
f 17/1/1 13/1/1 16/1/1
f 18/1/1 11/1/1 10/1/1
f 18/4/1 12/4/1 11/4/1
f 19/4/1 12/4/1 18/4/1
f 20/1/1 18/1/1 10/1/1
f 20/1/1 19/1/1 18/1/1
f 21/1/1 19/1/1 20/1/1
f 22/1/1 20/1/1 10/1/1
f 23/4/1 21/4/1 20/4/1
f 23/1/1 20/1/1 22/1/1
f 24/1/1 19/1/1 21/1/1
f 24/4/1 21/4/1 23/4/1
f 25/4/1 23/4/1 22/4/1
f 25/1/1 22/1/1 10/1/1
f 26/1/1 24/1/1 23/1/1
f 26/4/1 23/4/1 25/4/1
f 27/1/1 26/1/1 25/1/1
f 27/1/1 24/1/1 26/1/1
f 28/1/1 19/1/1 24/1/1
f 28/1/1 24/1/1 27/1/1
f 29/1/1 27/1/1 25/1/1
f 30/4/1 28/4/1 27/4/1
f 30/1/1 27/1/1 29/1/1
f 31/1/1 19/1/1 28/1/1
f 31/4/1 28/4/1 30/4/1
f 32/4/1 12/4/1 19/4/1
f 32/1/1 19/1/1 31/1/1
f 33/4/1 17/4/1 16/4/1
f 33/1/1 16/1/1 12/1/1
f 34/1/1 13/1/1 17/1/1
f 34/4/1 17/4/1 33/4/1
f 35/1/1 25/1/1 10/1/1
f 35/1/1 29/1/1 25/1/1
f 36/1/1 29/1/1 35/1/1
f 37/1/1 35/1/1 10/1/1
f 37/4/1 36/4/1 35/4/1
f 38/1/1 29/1/1 36/1/1
f 38/4/1 36/4/1 37/4/1
f 39/1/1 33/1/1 12/1/1
f 39/1/1 34/1/1 33/1/1
f 40/1/1 34/1/1 39/1/1
f 41/1/1 29/1/1 38/1/1
f 41/1/1 38/1/1 37/1/1
f 42/4/1 32/4/1 31/4/1
f 42/1/1 29/1/1 41/1/1
f 42/4/1 31/4/1 30/4/1
f 42/4/1 30/4/1 29/4/1
f 43/1/1 41/1/1 37/1/1
f 43/4/1 42/4/1 41/4/1
f 44/4/1 32/4/1 42/4/1
f 44/4/1 42/4/1 43/4/1
f 46/1/1 43/1/1 37/1/1
f 46/1/1 37/1/1 10/1/1
f 46/1/1 44/1/1 43/1/1
f 47/4/1 32/4/1 44/4/1
f 47/1/1 46/1/1 45/1/1
f 47/1/1 44/1/1 46/1/1
f 48/4/1 12/4/1 32/4/1
f 48/4/1 32/4/1 47/4/1
f 49/1/1 47/1/1 45/1/1
f 49/1/1 48/1/1 47/1/1
f 50/1/1 48/1/1 49/1/1
f 51/4/1 12/4/1 48/4/1
f 51/1/1 39/1/1 12/1/1
f 52/4/1 40/4/1 39/4/1
f 52/1/1 39/1/1 51/1/1
f 53/1/1 48/1/1 50/1/1
f 54/4/1 51/4/1 48/4/1
f 54/1/1 48/1/1 53/1/1
f 54/4/1 52/4/1 51/4/1
f 55/4/1 50/4/1 49/4/1
f 55/1/1 49/1/1 45/1/1
f 56/1/1 53/1/1 50/1/1
f 56/4/1 50/4/1 55/4/1
f 57/4/1 52/4/1 54/4/1
f 57/4/1 54/4/1 53/4/1
f 58/4/1 40/4/1 52/4/1
f 58/4/1 52/4/1 57/4/1
f 59/1/1 58/1/1 57/1/1
f 59/4/1 40/4/1 58/4/1
f 60/1/1 34/1/1 40/1/1
f 60/4/1 40/4/1 59/4/1
f 61/4/1 57/4/1 53/4/1
f 62/4/1 57/4/1 61/4/1
f 63/4/1 57/4/1 62/4/1
f 64/1/1 59/1/1 57/1/1
f 64/4/1 57/4/1 63/4/1
f 64/1/1 60/1/1 59/1/1
f 65/1/1 53/1/1 56/1/1
f 65/1/1 56/1/1 55/1/1
f 65/4/1 61/4/1 53/4/1
f 66/1/1 62/1/1 61/1/1
f 66/4/1 61/4/1 65/4/1
f 67/4/1 63/4/1 62/4/1
f 67/1/1 62/1/1 66/1/1
f 68/1/1 64/1/1 63/1/1
f 68/4/1 63/4/1 67/4/1
f 69/1/1 66/1/1 65/1/1
f 69/1/1 67/1/1 66/1/1
f 69/1/1 68/1/1 67/1/1
f 70/1/1 68/1/1 69/1/1
f 71/1/1 69/1/1 65/1/1
f 71/4/1 70/4/1 69/4/1
f 72/1/1 68/1/1 70/1/1
f 72/4/1 70/4/1 71/4/1
f 73/1/1 64/1/1 68/1/1
f 73/1/1 68/1/1 72/1/1
f 73/1/1 72/1/1 71/1/1
f 73/1/1 34/1/1 60/1/1
f 73/1/1 60/1/1 64/1/1
f 73/1/1 13/1/1 34/1/1
f 74/1/1 15/1/1 14/1/1
f 75/1/1 71/1/1 65/1/1
f 75/1/1 74/1/1 73/1/1
f 75/1/1 65/1/1 55/1/1
f 75/1/1 73/1/1 71/1/1
f 75/1/1 55/1/1 45/1/1
f 76/1/1 15/1/1 74/1/1
f 76/1/1 74/1/1 75/1/1
f 77/3/2 78/3/2 81/3/2
f 79/3/2 80/3/2 82/3/2
f 77/3/2 81/3/2 83/3/2
f 81/3/2 82/3/2 83/3/2
f 82/3/2 80/3/2 84/3/2
f 83/3/2 82/3/2 84/3/2
f 86/3/2 87/3/2 90/3/2
f 87/2/2 88/2/2 90/2/2
f 88/3/2 89/3/2 91/3/2
f 90/2/2 88/2/2 91/2/2
f 85/1/2 86/1/2 92/1/2
f 86/3/2 90/3/2 93/3/2
f 92/1/2 86/1/2 93/1/2
f 93/3/2 90/3/2 94/3/2
f 91/3/2 89/3/2 95/3/2
f 95/3/2 89/3/2 96/3/2
f 100/3/3 99/3/3 98/3/3
f 102/1/3 98/1/3 97/1/3
f 102/3/3 100/3/3 98/3/3
f 103/1/3 101/1/3 100/1/3
f 103/3/3 100/3/3 102/3/3
f 104/1/3 102/1/3 97/1/3
f 104/1/3 103/1/3 102/1/3
f 105/1/3 101/1/3 103/1/3
f 105/1/3 103/1/3 104/1/3
f 108/1/3 107/1/3 106/1/3
f 109/1/3 107/1/3 108/1/3
f 110/3/3 109/3/3 108/3/3
f 111/3/3 109/3/3 110/3/3
f 112/3/3 109/3/3 111/3/3
f 115/3/3 114/3/3 113/3/3
f 116/3/3 114/3/3 115/3/3
f 117/3/4 118/3/4 119/3/4
f 119/3/4 118/3/4 120/3/4
f 121/3/4 122/3/4 123/3/4
f 123/3/4 122/3/4 124/3/4
f 125/1/4 126/1/4 127/1/4
f 127/1/4 126/1/4 128/1/4
f 127/3/4 128/3/4 129/3/4
f 129/3/4 128/3/4 130/3/4
f 130/3/4 128/3/4 131/3/4
f 132/3/4 133/3/4 134/3/4
f 132/3/4 134/3/4 136/3/4
f 134/1/4 135/1/4 136/1/4
f 136/1/4 135/1/4 137/1/4
f 132/3/4 136/3/4 138/3/4
f 136/3/4 137/3/4 138/3/4
f 138/3/4 137/3/4 139/3/4
f 142/1/5 141/1/5 140/1/5
f 143/1/5 141/1/5 142/1/5
f 144/3/5 143/3/5 142/3/5
f 145/3/5 143/3/5 144/3/5
f 146/3/5 144/3/5 142/3/5
f 147/3/5 144/3/5 146/3/5
f 148/3/5 144/3/5 147/3/5
f 149/3/5 144/3/5 148/3/5
f 150/3/5 146/3/5 142/3/5
f 150/4/5 147/4/5 146/4/5
f 151/3/5 148/3/5 147/3/5
f 151/4/5 147/4/5 150/4/5
f 152/3/5 144/3/5 149/3/5
f 153/3/5 144/3/5 152/3/5
f 154/3/5 148/3/5 151/3/5
f 154/4/5 149/4/5 148/4/5
f 154/3/5 151/3/5 150/3/5
f 155/3/5 152/3/5 149/3/5
f 155/4/5 149/4/5 154/4/5
f 156/4/5 153/4/5 152/4/5
f 156/3/5 152/3/5 155/3/5
f 157/3/5 144/3/5 153/3/5
f 158/3/5 144/3/5 157/3/5
f 159/3/5 155/3/5 154/3/5
f 159/3/5 154/3/5 150/3/5
f 160/4/5 156/4/5 155/4/5
f 160/3/5 155/3/5 159/3/5
f 161/3/5 150/3/5 142/3/5
f 161/3/5 159/3/5 150/3/5
f 162/4/5 160/4/5 159/4/5
f 162/3/5 159/3/5 161/3/5
f 163/4/5 153/4/5 156/4/5
f 163/4/5 160/4/5 162/4/5
f 163/4/5 156/4/5 160/4/5
f 163/3/5 157/3/5 153/3/5
f 164/3/5 157/3/5 163/3/5
f 165/3/5 157/3/5 164/3/5
f 166/4/5 158/4/5 157/4/5
f 166/3/5 157/3/5 165/3/5
f 167/3/5 144/3/5 158/3/5
f 167/4/5 158/4/5 166/4/5
f 168/3/5 144/3/5 167/3/5
f 169/4/5 162/4/5 161/4/5
f 169/3/5 165/3/5 164/3/5
f 169/4/5 163/4/5 162/4/5
f 169/4/5 164/4/5 163/4/5
f 170/4/5 166/4/5 165/4/5
f 170/3/5 165/3/5 169/3/5
f 170/4/5 168/4/5 167/4/5
f 170/4/5 167/4/5 166/4/5
f 171/4/5 169/4/5 161/4/5
f 171/3/5 161/3/5 142/3/5
f 171/4/5 170/4/5 169/4/5
f 172/4/5 170/4/5 171/4/5
f 173/4/5 170/4/5 172/4/5
f 174/4/5 170/4/5 173/4/5
f 175/3/5 144/3/5 168/3/5
f 175/4/5 170/4/5 174/4/5
f 175/4/5 168/4/5 170/4/5
f 176/3/5 144/3/5 175/3/5
f 177/4/5 175/4/5 174/4/5
f 177/4/5 176/4/5 175/4/5
f 178/4/5 176/4/5 177/4/5
f 179/3/5 174/3/5 173/3/5
f 179/4/5 173/4/5 172/4/5
f 180/4/5 177/4/5 174/4/5
f 180/3/5 174/3/5 179/3/5
f 181/3/5 178/3/5 177/3/5
f 182/4/5 176/4/5 178/4/5
f 182/3/5 178/3/5 181/3/5
f 183/4/5 177/4/5 180/4/5
f 183/4/5 180/4/5 179/4/5
f 184/3/5 181/3/5 177/3/5
f 184/4/5 177/4/5 183/4/5
f 185/4/5 182/4/5 181/4/5
f 185/3/5 181/3/5 184/3/5
f 186/3/5 172/3/5 171/3/5
f 187/3/5 172/3/5 186/3/5
f 188/4/5 183/4/5 179/4/5
f 188/3/5 184/3/5 183/3/5
f 189/4/5 185/4/5 184/4/5
f 189/3/5 184/3/5 188/3/5
f 190/3/5 172/3/5 187/3/5
f 190/4/5 187/4/5 186/4/5
f 191/4/5 179/4/5 172/4/5
f 191/3/5 172/3/5 190/3/5
f 191/4/5 189/4/5 188/4/5
f 191/4/5 188/4/5 179/4/5
f 192/3/5 171/3/5 142/3/5
f 192/3/5 186/3/5 171/3/5
f 193/3/5 186/3/5 192/3/5
f 194/4/5 190/4/5 186/4/5
f 194/3/5 186/3/5 193/3/5
f 194/4/5 191/4/5 190/4/5
f 195/4/5 191/4/5 194/4/5
f 196/4/5 185/4/5 189/4/5
f 196/4/5 191/4/5 195/4/5
f 196/4/5 189/4/5 191/4/5
f 197/4/5 182/4/5 185/4/5
f 197/4/5 185/4/5 196/4/5
f 198/3/5 195/3/5 194/3/5
f 198/3/5 194/3/5 193/3/5
f 199/4/5 196/4/5 195/4/5
f 199/3/5 195/3/5 198/3/5
f 200/4/5 199/4/5 198/4/5
f 200/4/5 196/4/5 199/4/5
f 201/4/5 196/4/5 200/4/5
f 202/3/5 197/3/5 196/3/5
f 202/4/5 196/4/5 201/4/5
f 203/4/5 182/4/5 197/4/5
f 203/3/5 197/3/5 202/3/5
f 204/3/5 198/3/5 193/3/5
f 204/4/5 200/4/5 198/4/5
f 205/4/5 200/4/5 204/4/5
f 206/3/5 201/3/5 200/3/5
f 206/4/5 200/4/5 205/4/5
f 207/4/5 202/4/5 201/4/5
f 207/3/5 201/3/5 206/3/5
f 207/4/5 203/4/5 202/4/5
f 208/4/5 193/4/5 192/4/5
f 208/3/5 192/3/5 142/3/5
f 209/4/5 193/4/5 208/4/5
f 210/3/5 209/3/5 208/3/5
f 210/4/5 193/4/5 209/4/5
f 211/3/5 205/3/5 204/3/5
f 211/4/5 193/4/5 210/4/5
f 211/3/5 204/3/5 193/3/5
f 212/4/5 206/4/5 205/4/5
f 212/4/5 203/4/5 207/4/5
f 212/4/5 207/4/5 206/4/5
f 213/4/5 203/4/5 212/4/5
f 214/3/5 205/3/5 211/3/5
f 214/3/5 211/3/5 210/3/5
f 214/4/5 212/4/5 205/4/5
f 215/4/5 212/4/5 214/4/5
f 216/3/5 213/3/5 212/3/5
f 216/4/5 212/4/5 215/4/5
f 217/4/5 203/4/5 213/4/5
f 217/3/5 213/3/5 216/3/5
f 218/4/5 216/4/5 215/4/5
f 218/4/5 203/4/5 217/4/5
f 218/4/5 217/4/5 216/4/5
f 219/4/5 203/4/5 218/4/5
f 220/4/5 203/4/5 219/4/5
f 221/4/5 182/4/5 203/4/5
f 221/4/5 203/4/5 220/4/5
f 222/4/5 220/4/5 219/4/5
f 222/3/5 219/3/5 218/3/5
f 223/3/5 221/3/5 220/3/5
f 223/4/5 220/4/5 222/4/5
f 224/3/5 223/3/5 222/3/5
f 224/3/5 221/3/5 223/3/5
f 225/4/5 182/4/5 221/4/5
f 225/3/5 221/3/5 224/3/5
f 226/3/5 214/3/5 210/3/5
f 226/3/5 210/3/5 208/3/5
f 226/3/5 215/3/5 214/3/5
f 227/3/5 215/3/5 226/3/5
f 228/4/5 182/4/5 225/4/5
f 228/4/5 176/4/5 182/4/5
f 228/4/5 225/4/5 224/4/5
f 229/3/5 144/3/5 176/3/5
f 229/4/5 176/4/5 228/4/5
f 230/3/5 215/3/5 227/3/5
f 230/4/5 218/4/5 215/4/5
f 231/4/5 218/4/5 230/4/5
f 232/3/5 224/3/5 222/3/5
f 232/4/5 218/4/5 231/4/5
f 232/3/5 222/3/5 218/3/5
f 233/4/5 228/4/5 224/4/5
f 233/3/5 224/3/5 232/3/5
f 234/4/5 227/4/5 226/4/5
f 234/3/5 226/3/5 208/3/5
f 235/3/5 231/3/5 230/3/5
f 235/4/5 227/4/5 234/4/5
f 235/3/5 230/3/5 227/3/5
f 236/3/5 235/3/5 234/3/5
f 236/3/5 231/3/5 235/3/5
f 237/3/5 231/3/5 236/3/5
f 238/3/5 236/3/5 234/3/5
f 238/4/5 237/4/5 236/4/5
f 239/3/5 231/3/5 237/3/5
f 239/4/5 237/4/5 238/4/5
f 240/4/5 233/4/5 232/4/5
f 240/4/5 232/4/5 231/4/5
f 241/4/5 228/4/5 233/4/5
f 241/4/5 233/4/5 240/4/5
f 242/4/5 240/4/5 231/4/5
f 243/4/5 240/4/5 242/4/5
f 244/3/5 231/3/5 239/3/5
f 244/3/5 239/3/5 238/3/5
f 244/4/5 242/4/5 231/4/5
f 245/3/5 243/3/5 242/3/5
f 245/4/5 242/4/5 244/4/5
f 246/4/5 228/4/5 241/4/5
f 246/3/5 241/3/5 240/3/5
f 247/3/5 229/3/5 228/3/5
f 247/4/5 228/4/5 246/4/5
f 248/3/5 246/3/5 240/3/5
f 248/3/5 247/3/5 246/3/5
f 249/3/5 247/3/5 248/3/5
f 250/3/5 247/3/5 249/3/5
f 251/3/5 229/3/5 247/3/5
f 251/3/5 247/3/5 250/3/5
f 252/3/5 243/3/5 245/3/5
f 252/4/5 240/4/5 243/4/5
f 252/3/5 245/3/5 244/3/5
f 253/3/5 248/3/5 240/3/5
f 253/4/5 240/4/5 252/4/5
f 254/3/5 248/3/5 253/3/5
f 255/3/5 248/3/5 254/3/5
f 256/4/5 249/4/5 248/4/5
f 256/3/5 248/3/5 255/3/5
f 257/3/5 250/3/5 249/3/5
f 257/4/5 249/4/5 256/4/5
f 258/4/5 251/4/5 250/4/5
f 258/3/5 250/3/5 257/3/5
f 259/3/5 229/3/5 251/3/5
f 259/4/5 251/4/5 258/4/5
f 260/3/5 252/3/5 244/3/5
f 260/3/5 253/3/5 252/3/5
f 260/3/5 254/3/5 253/3/5
f 261/3/5 254/3/5 260/3/5
f 262/4/5 255/4/5 254/4/5
f 262/3/5 254/3/5 261/3/5
f 263/3/5 258/3/5 257/3/5
f 263/4/5 255/4/5 262/4/5
f 263/3/5 257/3/5 256/3/5
f 263/3/5 256/3/5 255/3/5
f 263/3/5 259/3/5 258/3/5
f 264/3/5 259/3/5 263/3/5
f 265/3/5 259/3/5 264/3/5
f 266/3/5 260/3/5 244/3/5
f 266/4/5 261/4/5 260/4/5
f 267/3/5 262/3/5 261/3/5
f 267/4/5 261/4/5 266/4/5
f 267/3/5 263/3/5 262/3/5
f 267/3/5 264/3/5 263/3/5
f 268/4/5 265/4/5 264/4/5
f 268/3/5 264/3/5 267/3/5
f 269/3/5 259/3/5 265/3/5
f 269/4/5 265/4/5 268/4/5
f 270/3/5 144/3/5 229/3/5
f 270/3/5 259/3/5 269/3/5
f 270/3/5 269/3/5 268/3/5
f 270/3/5 267/3/5 266/3/5
f 270/3/5 268/3/5 267/3/5
f 270/3/5 229/3/5 259/3/5
f 271/2/5 145/2/5 144/2/5
f 271/3/5 144/3/5 270/3/5
f 272/3/5 270/3/5 266/3/5
f 272/2/5 271/2/5 270/2/5
f 273/2/5 145/2/5 271/2/5
f 273/2/5 271/2/5 272/2/5
f 274/3/5 273/3/5 272/3/5
f 274/2/5 145/2/5 273/2/5
f 275/2/5 145/2/5 274/2/5
f 276/3/5 272/3/5 266/3/5
f 276/3/5 238/3/5 234/3/5
f 276/3/5 275/3/5 274/3/5
f 276/3/5 274/3/5 272/3/5
f 276/3/5 244/3/5 238/3/5
f 276/3/5 234/3/5 208/3/5
f 276/3/5 208/3/5 142/3/5
f 276/3/5 266/3/5 244/3/5
f 277/3/5 275/3/5 276/3/5
f 281/1/5 279/1/5 278/1/5
f 282/3/5 280/3/5 279/3/5
f 282/1/5 279/1/5 281/1/5
f 283/3/5 280/3/5 282/3/5
f 284/3/6 285/3/6 288/3/6
f 288/3/6 285/3/6 289/3/6
f 289/3/6 285/3/6 290/3/6
f 290/3/6 285/3/6 291/3/6
f 284/3/6 288/3/6 292/3/6
f 288/4/6 289/4/6 292/4/6
f 289/3/6 290/3/6 293/3/6
f 292/4/6 289/4/6 293/4/6
f 291/3/6 285/3/6 294/3/6
f 294/3/6 285/3/6 295/3/6
f 293/3/6 290/3/6 296/3/6
f 290/4/6 291/4/6 296/4/6
f 292/3/6 293/3/6 296/3/6
f 291/3/6 294/3/6 297/3/6
f 296/4/6 291/4/6 297/4/6
f 294/4/6 295/4/6 298/4/6
f 297/3/6 294/3/6 298/3/6
f 295/3/6 285/3/6 299/3/6
f 299/3/6 285/3/6 300/3/6
f 296/3/6 297/3/6 301/3/6
f 292/3/6 296/3/6 301/3/6
f 297/4/6 298/4/6 302/4/6
f 301/3/6 297/3/6 302/3/6
f 284/3/6 292/3/6 303/3/6
f 292/3/6 301/3/6 303/3/6
f 301/4/6 302/4/6 304/4/6
f 303/3/6 301/3/6 304/3/6
f 298/4/6 295/4/6 305/4/6
f 304/4/6 302/4/6 305/4/6
f 302/4/6 298/4/6 305/4/6
f 295/3/6 299/3/6 305/3/6
f 305/3/6 299/3/6 306/3/6
f 306/3/6 299/3/6 307/3/6
f 299/4/6 300/4/6 308/4/6
f 307/3/6 299/3/6 308/3/6
f 300/3/6 285/3/6 309/3/6
f 308/4/6 300/4/6 309/4/6
f 309/3/6 285/3/6 310/3/6
f 303/4/6 304/4/6 311/4/6
f 306/3/6 307/3/6 311/3/6
f 304/4/6 305/4/6 311/4/6
f 305/4/6 306/4/6 311/4/6
f 307/4/6 308/4/6 312/4/6
f 311/3/6 307/3/6 312/3/6
f 309/4/6 310/4/6 312/4/6
f 308/4/6 309/4/6 312/4/6
f 303/4/6 311/4/6 313/4/6
f 284/3/6 303/3/6 313/3/6
f 311/4/6 312/4/6 313/4/6
f 313/4/6 312/4/6 314/4/6
f 314/4/6 312/4/6 315/4/6
f 315/4/6 312/4/6 316/4/6
f 310/3/6 285/3/6 317/3/6
f 316/4/6 312/4/6 317/4/6
f 312/4/6 310/4/6 317/4/6
f 317/3/6 285/3/6 318/3/6
f 316/4/6 317/4/6 319/4/6
f 317/4/6 318/4/6 319/4/6
f 319/4/6 318/4/6 320/4/6
f 315/3/6 316/3/6 321/3/6
f 314/4/6 315/4/6 321/4/6
f 316/4/6 319/4/6 322/4/6
f 321/3/6 316/3/6 322/3/6
f 319/3/6 320/3/6 323/3/6
f 320/4/6 318/4/6 324/4/6
f 323/3/6 320/3/6 324/3/6
f 322/4/6 319/4/6 325/4/6
f 321/4/6 322/4/6 325/4/6
f 319/3/6 323/3/6 326/3/6
f 325/4/6 319/4/6 326/4/6
f 323/4/6 324/4/6 327/4/6
f 326/3/6 323/3/6 327/3/6
f 313/3/6 314/3/6 328/3/6
f 328/3/6 314/3/6 329/3/6
f 321/4/6 325/4/6 330/4/6
f 325/3/6 326/3/6 330/3/6
f 326/4/6 327/4/6 331/4/6
f 330/3/6 326/3/6 331/3/6
f 329/3/6 314/3/6 332/3/6
f 328/4/6 329/4/6 332/4/6
f 314/4/6 321/4/6 333/4/6
f 332/3/6 314/3/6 333/3/6
f 330/4/6 331/4/6 333/4/6
f 321/4/6 330/4/6 333/4/6
f 284/3/6 313/3/6 334/3/6
f 313/3/6 328/3/6 334/3/6
f 334/3/6 328/3/6 335/3/6
f 328/4/6 332/4/6 336/4/6
f 335/3/6 328/3/6 336/3/6
f 332/4/6 333/4/6 336/4/6
f 336/4/6 333/4/6 337/4/6
f 331/4/6 327/4/6 338/4/6
f 337/4/6 333/4/6 338/4/6
f 333/4/6 331/4/6 338/4/6
f 327/4/6 324/4/6 339/4/6
f 338/4/6 327/4/6 339/4/6
f 336/3/6 337/3/6 340/3/6
f 335/3/6 336/3/6 340/3/6
f 337/4/6 338/4/6 341/4/6
f 340/3/6 337/3/6 341/3/6
f 340/4/6 341/4/6 342/4/6
f 341/4/6 338/4/6 342/4/6
f 342/4/6 338/4/6 343/4/6
f 338/3/6 339/3/6 344/3/6
f 343/4/6 338/4/6 344/4/6
f 339/4/6 324/4/6 345/4/6
f 344/3/6 339/3/6 345/3/6
f 335/3/6 340/3/6 346/3/6
f 340/4/6 342/4/6 346/4/6
f 346/4/6 342/4/6 347/4/6
f 342/3/6 343/3/6 348/3/6
f 347/4/6 342/4/6 348/4/6
f 343/4/6 344/4/6 349/4/6
f 348/3/6 343/3/6 349/3/6
f 344/4/6 345/4/6 349/4/6
f 334/4/6 335/4/6 350/4/6
f 284/3/6 334/3/6 350/3/6
f 350/4/6 335/4/6 351/4/6
f 350/3/6 351/3/6 352/3/6
f 351/4/6 335/4/6 352/4/6
f 346/3/6 347/3/6 353/3/6
f 352/4/6 335/4/6 353/4/6
f 335/3/6 346/3/6 353/3/6
f 347/4/6 348/4/6 354/4/6
f 349/4/6 345/4/6 354/4/6
f 348/4/6 349/4/6 354/4/6
f 354/4/6 345/4/6 355/4/6
f 353/3/6 347/3/6 356/3/6
f 352/3/6 353/3/6 356/3/6
f 347/4/6 354/4/6 356/4/6
f 356/4/6 354/4/6 357/4/6
f 354/3/6 355/3/6 358/3/6
f 357/4/6 354/4/6 358/4/6
f 355/4/6 345/4/6 359/4/6
f 358/3/6 355/3/6 359/3/6
f 357/4/6 358/4/6 360/4/6
f 359/4/6 345/4/6 360/4/6
f 358/4/6 359/4/6 360/4/6
f 360/4/6 345/4/6 361/4/6
f 361/4/6 345/4/6 362/4/6
f 345/4/6 324/4/6 363/4/6
f 362/4/6 345/4/6 363/4/6
f 361/4/6 362/4/6 364/4/6
f 360/3/6 361/3/6 364/3/6
f 362/3/6 363/3/6 365/3/6
f 364/4/6 362/4/6 365/4/6
f 364/3/6 365/3/6 366/3/6
f 365/3/6 363/3/6 366/3/6
f 363/4/6 324/4/6 367/4/6
f 366/3/6 363/3/6 367/3/6
f 352/3/6 356/3/6 368/3/6
f 350/3/6 352/3/6 368/3/6
f 356/3/6 357/3/6 368/3/6
f 368/3/6 357/3/6 369/3/6
f 367/4/6 324/4/6 370/4/6
f 324/4/6 318/4/6 370/4/6
f 366/4/6 367/4/6 370/4/6
f 370/4/6 318/4/6 371/4/6
f 369/3/6 357/3/6 372/3/6
f 357/4/6 360/4/6 372/4/6
f 372/4/6 360/4/6 373/4/6
f 364/3/6 366/3/6 374/3/6
f 373/4/6 360/4/6 374/4/6
f 360/3/6 364/3/6 374/3/6
f 366/4/6 370/4/6 375/4/6
f 374/3/6 366/3/6 375/3/6
f 368/4/6 369/4/6 376/4/6
f 350/3/6 368/3/6 376/3/6
f 372/3/6 373/3/6 377/3/6
f 376/4/6 369/4/6 377/4/6
f 369/3/6 372/3/6 377/3/6
f 376/3/6 377/3/6 378/3/6
f 377/3/6 373/3/6 378/3/6
f 378/3/6 373/3/6 379/3/6
f 376/3/6 378/3/6 380/3/6
f 378/4/6 379/4/6 380/4/6
f 379/3/6 373/3/6 381/3/6
f 380/4/6 379/4/6 381/4/6
f 374/4/6 375/4/6 382/4/6
f 373/4/6 374/4/6 382/4/6
f 375/4/6 370/4/6 383/4/6
f 382/4/6 375/4/6 383/4/6
f 373/4/6 382/4/6 384/4/6
f 384/4/6 382/4/6 385/4/6
f 381/3/6 373/3/6 386/3/6
f 380/3/6 381/3/6 386/3/6
f 373/4/6 384/4/6 386/4/6
f 384/3/6 385/3/6 387/3/6
f 386/4/6 384/4/6 387/4/6
f 383/4/6 370/4/6 388/4/6
f 382/3/6 383/3/6 388/3/6
f 370/3/6 371/3/6 389/3/6
f 388/4/6 370/4/6 389/4/6
f 382/3/6 388/3/6 390/3/6
f 388/3/6 389/3/6 390/3/6
f 390/3/6 389/3/6 391/3/6
f 391/3/6 389/3/6 392/3/6
f 389/3/6 371/3/6 393/3/6
f 392/3/6 389/3/6 393/3/6
f 387/3/6 385/3/6 394/3/6
f 385/4/6 382/4/6 394/4/6
f 386/3/6 387/3/6 394/3/6
f 382/3/6 390/3/6 395/3/6
f 394/4/6 382/4/6 395/4/6
f 395/3/6 390/3/6 396/3/6
f 396/3/6 390/3/6 397/3/6
f 390/4/6 391/4/6 398/4/6
f 397/3/6 390/3/6 398/3/6
f 391/3/6 392/3/6 399/3/6
f 398/4/6 391/4/6 399/4/6
f 392/4/6 393/4/6 400/4/6
f 399/3/6 392/3/6 400/3/6
f 393/3/6 371/3/6 401/3/6
f 400/4/6 393/4/6 401/4/6
f 386/3/6 394/3/6 402/3/6
f 394/3/6 395/3/6 402/3/6
f 395/3/6 396/3/6 402/3/6
f 402/3/6 396/3/6 403/3/6
f 396/4/6 397/4/6 404/4/6
f 403/3/6 396/3/6 404/3/6
f 399/3/6 400/3/6 405/3/6
f 404/4/6 397/4/6 405/4/6
f 398/3/6 399/3/6 405/3/6
f 397/3/6 398/3/6 405/3/6
f 400/3/6 401/3/6 405/3/6
f 405/3/6 401/3/6 406/3/6
f 406/3/6 401/3/6 407/3/6
f 386/3/6 402/3/6 408/3/6
f 402/4/6 403/4/6 408/4/6
f 403/3/6 404/3/6 409/3/6
f 408/4/6 403/4/6 409/4/6
f 404/3/6 405/3/6 409/3/6
f 405/3/6 406/3/6 409/3/6
f 406/4/6 407/4/6 410/4/6
f 409/3/6 406/3/6 410/3/6
f 407/3/6 401/3/6 411/3/6
f 410/4/6 407/4/6 411/4/6
f 409/3/6 410/3/6 412/3/6
f 411/3/6 401/3/6 412/3/6
f 410/3/6 411/3/6 412/3/6
f 408/3/6 409/3/6 412/3/6
f 401/3/6 371/3/6 412/3/6
f 286/2/6 287/2/6 415/2/6
f 413/3/6 414/3/6 416/3/6
f 408/3/6 412/3/6 416/3/6
f 412/3/6 413/3/6 416/3/6
f 416/3/6 414/3/6 417/3/6
f 414/2/6 415/2/6 418/2/6
f 417/3/6 414/3/6 418/3/6
f 415/2/6 287/2/6 419/2/6
f 418/2/6 415/2/6 419/2/6
f 419/2/6 287/2/6 420/2/6
f 420/2/6 287/2/6 421/2/6
f 408/3/6 416/3/6 422/3/6
f 386/3/6 408/3/6 422/3/6
f 376/3/6 380/3/6 422/3/6
f 380/3/6 386/3/6 422/3/6
f 284/3/6 350/3/6 422/3/6
f 350/3/6 376/3/6 422/3/6
f 422/3/6 416/3/6 423/3/6
f 424/3/6 425/3/6 426/3/6
f 426/3/6 425/3/6 427/3/6
f 428/1/6 429/1/6 430/1/6
f 430/1/6 429/1/6 431/1/6
f 430/3/6 431/3/6 432/3/6
f 432/3/6 431/3/6 433/3/6
f 430/3/6 432/3/6 434/3/6
f 428/1/6 430/1/6 436/1/6
f 434/3/6 435/3/6 437/3/6
f 436/1/6 430/1/6 437/1/6
f 430/3/6 434/3/6 437/3/6
f 437/3/6 435/3/6 438/3/6
