# MagicaVoxel @ Ephtracy

# group
g 4x2 first (2)-6

# material
mtllib 4x2 first (2)-6.mtl
usemtl palette

# normals
vn -1 0 0
vn 1 0 0
vn 0 0 1
vn 0 0 -1
vn 0 -1 0
vn 0 1 0

# texcoords
vt 0.251953 0.5
vt 0.369141 0.5
vt 0.966797 0.5
vt 0.974609 0.5

# verts
v -63 0 63
v -63 0 -62
v -63 0 -63
v -63 4 63
v -63 4 -61
v -63 5 63
v -63 5 23
v -63 5 -61
v -63 6 63
v -63 6 23
v -63 80 -61
v -63 80 -62
v -63 80 -63
v -48 6 46
v -48 6 41
v -48 80 46
v -48 80 41
v -47 6 47
v -47 6 46
v -47 6 41
v -47 6 40
v -47 80 47
v -47 80 46
v -47 80 41
v -47 80 40
v -46 6 48
v -46 6 47
v -46 6 40
v -46 6 39
v -46 80 48
v -46 80 47
v -46 80 40
v -46 80 39
v 30 5 63
v 30 5 -61
v 30 80 63
v 30 80 -61
v 61 15 63
v 61 15 61
v 61 20 61
v 61 20 54
v 61 25 54
v 61 25 47
v 61 30 47
v 61 30 40
v 61 35 40
v 61 35 33
v 61 40 33
v 61 40 26
v 61 45 26
v 61 45 19
v 61 50 19
v 61 50 12
v 61 55 12
v 61 55 5
v 61 60 5
v 61 60 -2
v 61 65 -2
v 61 65 -9
v 61 70 -9
v 61 70 -16
v 61 75 -16
v 61 75 -23
v 61 80 63
v 61 80 -23
v -41 6 48
v -41 6 47
v -41 6 40
v -41 6 39
v -41 80 48
v -41 80 47
v -41 80 40
v -41 80 39
v -40 6 47
v -40 6 46
v -40 6 41
v -40 6 40
v -40 80 47
v -40 80 46
v -40 80 41
v -40 80 40
v -39 6 46
v -39 6 41
v -39 80 46
v -39 80 41
v -23 5 63
v -23 5 23
v -23 6 63
v -23 6 23
v 31 15 63
v 31 15 61
v 31 20 61
v 31 20 54
v 31 25 54
v 31 25 47
v 31 30 47
v 31 30 40
v 31 35 40
v 31 35 33
v 31 40 33
v 31 40 26
v 31 45 26
v 31 45 19
v 31 50 19
v 31 50 12
v 31 55 12
v 31 55 5
v 31 60 5
v 31 60 -2
v 31 65 -2
v 31 65 -9
v 31 70 -9
v 31 70 -16
v 31 75 -16
v 31 75 -23
v 31 80 63
v 31 80 -23
v 63 0 63
v 63 0 -63
v 63 80 63
v 63 80 -63
v -63 0 63
v -63 4 63
v -63 5 63
v -63 6 63
v -23 5 63
v -23 6 63
v 30 4 63
v 30 5 63
v 30 80 63
v 31 15 63
v 31 80 63
v 61 15 63
v 61 80 63
v 62 0 63
v 62 80 63
v 63 0 63
v 63 80 63
v 31 15 61
v 31 20 61
v 61 15 61
v 61 20 61
v 31 20 54
v 31 25 54
v 61 20 54
v 61 25 54
v -46 6 48
v -46 80 48
v -41 6 48
v -41 80 48
v -47 6 47
v -47 80 47
v -46 6 47
v -46 80 47
v -41 6 47
v -41 80 47
v -40 6 47
v -40 80 47
v 31 25 47
v 31 30 47
v 61 25 47
v 61 30 47
v -48 6 46
v -48 80 46
v -47 6 46
v -47 80 46
v -40 6 46
v -40 80 46
v -39 6 46
v -39 80 46
v 31 30 40
v 31 35 40
v 61 30 40
v 61 35 40
v 31 35 33
v 31 40 33
v 61 35 33
v 61 40 33
v 31 40 26
v 31 45 26
v 61 40 26
v 61 45 26
v 31 45 19
v 31 50 19
v 61 45 19
v 61 50 19
v 31 50 12
v 31 55 12
v 61 50 12
v 61 55 12
v 31 55 5
v 31 60 5
v 61 55 5
v 61 60 5
v 31 60 -2
v 31 65 -2
v 61 60 -2
v 61 65 -2
v 31 65 -9
v 31 70 -9
v 61 65 -9
v 61 70 -9
v 31 70 -16
v 31 75 -16
v 61 70 -16
v 61 75 -16
v 31 75 -23
v 31 80 -23
v 61 75 -23
v 61 80 -23
v -63 5 -61
v -63 80 -61
v 30 5 -61
v 30 80 -61
v -48 6 41
v -48 80 41
v -47 6 41
v -47 80 41
v -40 6 41
v -40 80 41
v -39 6 41
v -39 80 41
v -47 6 40
v -47 80 40
v -46 6 40
v -46 80 40
v -41 6 40
v -41 80 40
v -40 6 40
v -40 80 40
v -46 6 39
v -46 80 39
v -41 6 39
v -41 80 39
v -63 5 23
v -63 6 23
v -23 5 23
v -23 6 23
v -63 0 -63
v -63 80 -63
v 63 0 -63
v 63 80 -63
v -63 0 63
v 62 0 63
v 63 0 63
v -63 0 -62
v 62 0 -62
v -63 0 -63
v 63 0 -63
v -23 5 63
v 30 5 63
v -63 5 23
v -23 5 23
v -63 5 -61
v 30 5 -61
v -63 6 63
v -23 6 63
v -46 6 48
v -41 6 48
v -47 6 47
v -46 6 47
v -41 6 47
v -40 6 47
v -48 6 46
v -47 6 46
v -40 6 46
v -39 6 46
v -48 6 41
v -47 6 41
v -40 6 41
v -39 6 41
v -47 6 40
v -46 6 40
v -41 6 40
v -40 6 40
v -46 6 39
v -41 6 39
v -63 6 23
v -23 6 23
v 31 15 63
v 61 15 63
v 31 15 61
v 61 15 61
v 31 20 61
v 61 20 61
v 31 20 54
v 61 20 54
v 31 25 54
v 61 25 54
v 31 25 47
v 61 25 47
v 31 30 47
v 61 30 47
v 31 30 40
v 61 30 40
v 31 35 40
v 61 35 40
v 31 35 33
v 61 35 33
v 31 40 33
v 61 40 33
v 31 40 26
v 61 40 26
v 31 45 26
v 61 45 26
v 31 45 19
v 61 45 19
v 31 50 19
v 61 50 19
v 31 50 12
v 61 50 12
v 31 55 12
v 61 55 12
v 31 55 5
v 61 55 5
v 31 60 5
v 61 60 5
v 31 60 -2
v 61 60 -2
v 31 65 -2
v 61 65 -2
v 31 65 -9
v 61 65 -9
v 31 70 -9
v 61 70 -9
v 31 70 -16
v 61 70 -16
v 31 75 -16
v 61 75 -16
v 31 75 -23
v 61 75 -23
v 30 80 63
v 31 80 63
v 61 80 63
v 62 80 63
v 63 80 63
v -46 80 48
v -41 80 48
v -47 80 47
v -46 80 47
v -41 80 47
v -40 80 47
v -48 80 46
v -47 80 46
v -40 80 46
v -39 80 46
v -48 80 41
v -47 80 41
v -40 80 41
v -39 80 41
v -47 80 40
v -46 80 40
v -41 80 40
v -40 80 40
v -46 80 39
v -41 80 39
v 31 80 -23
v 61 80 -23
v -63 80 -61
v 30 80 -61
v -63 80 -62
v 62 80 -62
v -63 80 -63
v 63 80 -63

# faces
f 4/3/1 2/3/1 1/3/1
f 5/3/1 2/3/1 4/3/1
f 6/2/1 5/2/1 4/2/1
f 7/2/1 5/2/1 6/2/1
f 8/3/1 2/3/1 5/3/1
f 8/2/1 5/2/1 7/2/1
f 9/4/1 7/4/1 6/4/1
f 10/4/1 7/4/1 9/4/1
f 11/3/1 2/3/1 8/3/1
f 12/1/1 3/1/1 2/1/1
f 12/3/1 2/3/1 11/3/1
f 13/1/1 3/1/1 12/1/1
f 16/4/1 15/4/1 14/4/1
f 17/4/1 15/4/1 16/4/1
f 22/4/1 19/4/1 18/4/1
f 23/4/1 19/4/1 22/4/1
f 24/4/1 21/4/1 20/4/1
f 25/4/1 21/4/1 24/4/1
f 30/4/1 27/4/1 26/4/1
f 31/4/1 27/4/1 30/4/1
f 32/4/1 29/4/1 28/4/1
f 33/4/1 29/4/1 32/4/1
f 36/3/1 35/3/1 34/3/1
f 37/3/1 35/3/1 36/3/1
f 40/3/1 39/3/1 38/3/1
f 42/3/1 41/3/1 40/3/1
f 44/3/1 43/3/1 42/3/1
f 46/3/1 45/3/1 44/3/1
f 48/3/1 47/3/1 46/3/1
f 50/3/1 49/3/1 48/3/1
f 52/3/1 51/3/1 50/3/1
f 54/3/1 53/3/1 52/3/1
f 56/3/1 55/3/1 54/3/1
f 58/3/1 57/3/1 56/3/1
f 60/3/1 59/3/1 58/3/1
f 62/3/1 61/3/1 60/3/1
f 64/3/1 40/3/1 38/3/1
f 64/3/1 63/3/1 62/3/1
f 64/3/1 62/3/1 60/3/1
f 64/3/1 60/3/1 58/3/1
f 64/3/1 58/3/1 56/3/1
f 64/3/1 56/3/1 54/3/1
f 64/3/1 54/3/1 52/3/1
f 64/3/1 52/3/1 50/3/1
f 64/3/1 50/3/1 48/3/1
f 64/3/1 48/3/1 46/3/1
f 64/3/1 46/3/1 44/3/1
f 64/3/1 44/3/1 42/3/1
f 64/3/1 42/3/1 40/3/1
f 65/3/1 63/3/1 64/3/1
f 66/4/2 67/4/2 70/4/2
f 70/4/2 67/4/2 71/4/2
f 68/4/2 69/4/2 72/4/2
f 72/4/2 69/4/2 73/4/2
f 74/4/2 75/4/2 78/4/2
f 78/4/2 75/4/2 79/4/2
f 76/4/2 77/4/2 80/4/2
f 80/4/2 77/4/2 81/4/2
f 82/4/2 83/4/2 84/4/2
f 84/4/2 83/4/2 85/4/2
f 86/4/2 87/4/2 88/4/2
f 88/4/2 87/4/2 89/4/2
f 90/3/2 91/3/2 92/3/2
f 92/3/2 93/3/2 94/3/2
f 94/3/2 95/3/2 96/3/2
f 96/3/2 97/3/2 98/3/2
f 98/3/2 99/3/2 100/3/2
f 100/3/2 101/3/2 102/3/2
f 102/3/2 103/3/2 104/3/2
f 104/3/2 105/3/2 106/3/2
f 106/3/2 107/3/2 108/3/2
f 108/3/2 109/3/2 110/3/2
f 110/3/2 111/3/2 112/3/2
f 112/3/2 113/3/2 114/3/2
f 90/3/2 92/3/2 116/3/2
f 114/3/2 115/3/2 116/3/2
f 112/3/2 114/3/2 116/3/2
f 110/3/2 112/3/2 116/3/2
f 108/3/2 110/3/2 116/3/2
f 106/3/2 108/3/2 116/3/2
f 104/3/2 106/3/2 116/3/2
f 102/3/2 104/3/2 116/3/2
f 100/3/2 102/3/2 116/3/2
f 98/3/2 100/3/2 116/3/2
f 96/3/2 98/3/2 116/3/2
f 94/3/2 96/3/2 116/3/2
f 92/3/2 94/3/2 116/3/2
f 116/3/2 115/3/2 117/3/2
f 118/1/2 119/1/2 120/1/2
f 120/1/2 119/1/2 121/1/2
f 126/2/3 124/2/3 123/2/3
f 126/4/3 125/4/3 124/4/3
f 127/4/3 125/4/3 126/4/3
f 128/3/3 123/3/3 122/3/3
f 128/2/3 126/2/3 123/2/3
f 129/2/3 126/2/3 128/2/3
f 131/3/3 129/3/3 128/3/3
f 131/3/3 130/3/3 129/3/3
f 132/3/3 130/3/3 131/3/3
f 133/3/3 131/3/3 128/3/3
f 135/3/3 128/3/3 122/3/3
f 135/3/3 134/3/3 133/3/3
f 135/3/3 133/3/3 128/3/3
f 136/3/3 134/3/3 135/3/3
f 137/1/3 136/1/3 135/1/3
f 138/1/3 136/1/3 137/1/3
f 141/3/3 140/3/3 139/3/3
f 142/3/3 140/3/3 141/3/3
f 145/3/3 144/3/3 143/3/3
f 146/3/3 144/3/3 145/3/3
f 149/4/3 148/4/3 147/4/3
f 150/4/3 148/4/3 149/4/3
f 153/4/3 152/4/3 151/4/3
f 154/4/3 152/4/3 153/4/3
f 157/4/3 156/4/3 155/4/3
f 158/4/3 156/4/3 157/4/3
f 161/3/3 160/3/3 159/3/3
f 162/3/3 160/3/3 161/3/3
f 165/4/3 164/4/3 163/4/3
f 166/4/3 164/4/3 165/4/3
f 169/4/3 168/4/3 167/4/3
f 170/4/3 168/4/3 169/4/3
f 173/3/3 172/3/3 171/3/3
f 174/3/3 172/3/3 173/3/3
f 177/3/3 176/3/3 175/3/3
f 178/3/3 176/3/3 177/3/3
f 181/3/3 180/3/3 179/3/3
f 182/3/3 180/3/3 181/3/3
f 185/3/3 184/3/3 183/3/3
f 186/3/3 184/3/3 185/3/3
f 189/3/3 188/3/3 187/3/3
f 190/3/3 188/3/3 189/3/3
f 193/3/3 192/3/3 191/3/3
f 194/3/3 192/3/3 193/3/3
f 197/3/3 196/3/3 195/3/3
f 198/3/3 196/3/3 197/3/3
f 201/3/3 200/3/3 199/3/3
f 202/3/3 200/3/3 201/3/3
f 205/3/3 204/3/3 203/3/3
f 206/3/3 204/3/3 205/3/3
f 209/3/3 208/3/3 207/3/3
f 210/3/3 208/3/3 209/3/3
f 213/3/3 212/3/3 211/3/3
f 214/3/3 212/3/3 213/3/3
f 215/4/4 216/4/4 217/4/4
f 217/4/4 216/4/4 218/4/4
f 219/4/4 220/4/4 221/4/4
f 221/4/4 220/4/4 222/4/4
f 223/4/4 224/4/4 225/4/4
f 225/4/4 224/4/4 226/4/4
f 227/4/4 228/4/4 229/4/4
f 229/4/4 228/4/4 230/4/4
f 231/4/4 232/4/4 233/4/4
f 233/4/4 232/4/4 234/4/4
f 235/4/4 236/4/4 237/4/4
f 237/4/4 236/4/4 238/4/4
f 239/1/4 240/1/4 241/1/4
f 241/1/4 240/1/4 242/1/4
f 246/3/5 244/3/5 243/3/5
f 247/1/5 245/1/5 244/1/5
f 247/3/5 244/3/5 246/3/5
f 248/1/5 247/1/5 246/1/5
f 249/1/5 245/1/5 247/1/5
f 249/1/5 247/1/5 248/1/5
f 250/2/6 251/2/6 253/2/6
f 252/2/6 253/2/6 254/2/6
f 253/2/6 251/2/6 255/2/6
f 254/2/6 253/2/6 255/2/6
f 256/4/6 257/4/6 258/4/6
f 258/4/6 257/4/6 259/4/6
f 256/4/6 258/4/6 260/4/6
f 260/4/6 258/4/6 261/4/6
f 259/4/6 257/4/6 262/4/6
f 262/4/6 257/4/6 263/4/6
f 256/4/6 260/4/6 264/4/6
f 264/4/6 260/4/6 265/4/6
f 263/4/6 257/4/6 266/4/6
f 266/4/6 257/4/6 267/4/6
f 256/4/6 264/4/6 268/4/6
f 267/4/6 257/4/6 271/4/6
f 268/4/6 269/4/6 272/4/6
f 270/4/6 271/4/6 275/4/6
f 272/4/6 273/4/6 276/4/6
f 274/4/6 275/4/6 277/4/6
f 272/4/6 276/4/6 278/4/6
f 276/4/6 277/4/6 278/4/6
f 256/4/6 268/4/6 278/4/6
f 268/4/6 272/4/6 278/4/6
f 277/4/6 275/4/6 279/4/6
f 278/4/6 277/4/6 279/4/6
f 271/4/6 257/4/6 279/4/6
f 275/4/6 271/4/6 279/4/6
f 280/3/6 281/3/6 282/3/6
f 282/3/6 281/3/6 283/3/6
f 284/3/6 285/3/6 286/3/6
f 286/3/6 285/3/6 287/3/6
f 288/3/6 289/3/6 290/3/6
f 290/3/6 289/3/6 291/3/6
f 292/3/6 293/3/6 294/3/6
f 294/3/6 293/3/6 295/3/6
f 296/3/6 297/3/6 298/3/6
f 298/3/6 297/3/6 299/3/6
f 300/3/6 301/3/6 302/3/6
f 302/3/6 301/3/6 303/3/6
f 304/3/6 305/3/6 306/3/6
f 306/3/6 305/3/6 307/3/6
f 308/3/6 309/3/6 310/3/6
f 310/3/6 309/3/6 311/3/6
f 312/3/6 313/3/6 314/3/6
f 314/3/6 313/3/6 315/3/6
f 316/3/6 317/3/6 318/3/6
f 318/3/6 317/3/6 319/3/6
f 320/3/6 321/3/6 322/3/6
f 322/3/6 321/3/6 323/3/6
f 324/3/6 325/3/6 326/3/6
f 326/3/6 325/3/6 327/3/6
f 328/3/6 329/3/6 330/3/6
f 330/3/6 329/3/6 331/3/6
f 337/4/6 338/4/6 340/4/6
f 340/4/6 338/4/6 341/4/6
f 339/4/6 340/4/6 344/4/6
f 341/4/6 342/4/6 344/4/6
f 340/4/6 341/4/6 344/4/6
f 344/4/6 342/4/6 345/4/6
f 343/4/6 344/4/6 347/4/6
f 345/4/6 346/4/6 347/4/6
f 344/4/6 345/4/6 347/4/6
f 347/4/6 346/4/6 348/4/6
f 348/4/6 346/4/6 349/4/6
f 349/4/6 346/4/6 350/4/6
f 348/4/6 349/4/6 351/4/6
f 351/4/6 349/4/6 352/4/6
f 352/4/6 349/4/6 353/4/6
f 353/4/6 349/4/6 354/4/6
f 352/4/6 353/4/6 355/4/6
f 355/4/6 353/4/6 356/4/6
f 332/3/6 333/3/6 357/3/6
f 334/3/6 335/3/6 358/3/6
f 332/3/6 357/3/6 360/3/6
f 357/3/6 358/3/6 360/3/6
f 359/3/6 360/3/6 361/3/6
f 358/3/6 335/3/6 362/3/6
f 361/3/6 360/3/6 362/3/6
f 335/1/6 336/1/6 362/1/6
f 360/3/6 358/3/6 362/3/6
f 361/1/6 362/1/6 363/1/6
f 362/1/6 336/1/6 364/1/6
f 363/1/6 362/1/6 364/1/6
