# MagicaVoxel @ Ephtracy

# group
g 4x2 second (des)-4

# material
mtllib 4x2 second (des)-4.mtl
usemtl palette

# normals
vn -1 0 0
vn 1 0 0
vn 0 0 1
vn 0 0 -1
vn 0 -1 0
vn 0 1 0

# texcoords
vt 0.251953 0.5
vt 0.966797 0.5
vt 0.974609 0.5
vt 0.978516 0.5

# verts
v -63 0 23
v -63 0 -62
v -63 0 -63
v -63 1 23
v -63 1 -61
v -63 80 -61
v -63 80 -62
v -63 80 -63
v -48 0 46
v -48 0 41
v -48 80 46
v -48 80 41
v -47 0 47
v -47 0 46
v -47 0 41
v -47 0 40
v -47 80 47
v -47 80 46
v -47 80 41
v -47 80 40
v -46 0 48
v -46 0 47
v -46 0 40
v -46 0 39
v -46 80 48
v -46 80 47
v -46 80 40
v -46 80 39
v -23 0 63
v -23 0 23
v -23 1 63
v -23 1 23
v 29 1 63
v 29 1 -23
v 29 24 63
v 29 24 -23
v 61 0 63
v 61 0 -23
v 61 1 -23
v 61 1 -61
v 61 80 63
v 61 80 -61
v -41 0 48
v -41 0 47
v -41 0 40
v -41 0 39
v -41 80 48
v -41 80 47
v -41 80 40
v -41 80 39
v -40 0 47
v -40 0 46
v -40 0 41
v -40 0 40
v -40 80 47
v -40 80 46
v -40 80 41
v -40 80 40
v -39 0 46
v -39 0 41
v -39 80 46
v -39 80 41
v 31 0 63
v 31 0 -23
v 31 1 -23
v 31 24 63
v 31 24 -23
v 63 0 63
v 63 0 -63
v 63 80 63
v 63 80 -63
v -23 0 63
v -23 1 63
v 29 1 63
v 29 24 63
v 31 0 63
v 31 24 63
v 61 0 63
v 61 80 63
v 62 0 63
v 62 80 63
v 63 0 63
v 63 80 63
v -46 0 48
v -46 80 48
v -41 0 48
v -41 80 48
v -47 0 47
v -47 80 47
v -46 0 47
v -46 80 47
v -41 0 47
v -41 80 47
v -40 0 47
v -40 80 47
v -48 0 46
v -48 80 46
v -47 0 46
v -47 80 46
v -40 0 46
v -40 80 46
v -39 0 46
v -39 80 46
v -63 0 23
v -63 1 23
v -23 0 23
v -23 1 23
v 31 0 -23
v 31 1 -23
v 61 0 -23
v 61 1 -23
v -63 1 -61
v -63 80 -61
v -32 21 -61
v -32 26 -61
v -30 21 -61
v -30 26 -61
v -28 1 -61
v -28 10 -61
v -21 10 -61
v -21 15 -61
v -4 7 -61
v -4 15 -61
v -1 17 -61
v -1 19 -61
v 3 17 -61
v 3 19 -61
v 5 1 -61
v 5 7 -61
v 61 1 -61
v 61 80 -61
v -48 0 41
v -48 80 41
v -47 0 41
v -47 80 41
v -40 0 41
v -40 80 41
v -39 0 41
v -39 80 41
v -47 0 40
v -47 80 40
v -46 0 40
v -46 80 40
v -41 0 40
v -41 80 40
v -40 0 40
v -40 80 40
v -46 0 39
v -46 80 39
v -41 0 39
v -41 80 39
v 29 1 -23
v 29 24 -23
v 31 1 -23
v 31 24 -23
v -63 0 -63
v -63 80 -63
v 63 0 -63
v 63 80 -63
v -23 0 63
v 31 0 63
v 61 0 63
v 62 0 63
v 63 0 63
v -46 0 48
v -41 0 48
v -47 0 47
v -46 0 47
v -41 0 47
v -40 0 47
v -48 0 46
v -47 0 46
v -40 0 46
v -39 0 46
v -48 0 41
v -47 0 41
v -40 0 41
v -39 0 41
v -47 0 40
v -46 0 40
v -41 0 40
v -40 0 40
v -46 0 39
v -41 0 39
v -63 0 23
v -23 0 23
v -13 0 -16
v -12 0 -16
v -13 0 -17
v -12 0 -17
v 31 0 -23
v 61 0 -23
v -15 0 -24
v -12 0 -24
v -1 0 -27
v 0 0 -27
v -15 0 -28
v -12 0 -28
v -1 0 -29
v 0 0 -29
v 0 0 -30
v 1 0 -30
v -27 0 -31
v -22 0 -31
v -38 0 -32
v -31 0 -32
v -2 0 -33
v 0 0 -33
v -14 0 -34
v -2 0 -34
v -30 0 -35
v -27 0 -35
v -22 0 -35
v -18 0 -35
v 0 0 -35
v 1 0 -35
v -33 0 -39
v -31 0 -39
v -18 0 -43
v -14 0 -43
v 5 0 -43
v 7 0 -43
v -38 0 -44
v -33 0 -44
v -4 0 -46
v 0 0 -46
v -34 0 -47
v -30 0 -47
v 0 0 -47
v 3 0 -47
v 5 0 -47
v 7 0 -47
v -4 0 -49
v 0 0 -49
v 3 0 -49
v 5 0 -49
v -26 0 -50
v -21 0 -50
v -35 0 -51
v -34 0 -51
v -26 0 -51
v -23 0 -51
v -23 0 -52
v -21 0 -52
v -35 0 -57
v -28 0 -57
v -63 0 -62
v -28 0 -62
v 5 0 -62
v 62 0 -62
v -63 0 -63
v 63 0 -63
v -23 1 63
v 29 1 63
v -63 1 23
v -23 1 23
v -13 1 -16
v -12 1 -16
v -13 1 -17
v -12 1 -17
v 29 1 -23
v 31 1 -23
v 61 1 -23
v -15 1 -24
v -12 1 -24
v -1 1 -27
v 0 1 -27
v -15 1 -28
v -12 1 -28
v -1 1 -29
v 0 1 -29
v 0 1 -30
v 1 1 -30
v -27 1 -31
v -22 1 -31
v -38 1 -32
v -31 1 -32
v -2 1 -33
v 0 1 -33
v -14 1 -34
v -2 1 -34
v -30 1 -35
v -27 1 -35
v -22 1 -35
v -18 1 -35
v 0 1 -35
v 1 1 -35
v -33 1 -39
v -31 1 -39
v -18 1 -43
v -14 1 -43
v 5 1 -43
v 7 1 -43
v -38 1 -44
v -33 1 -44
v -4 1 -46
v 0 1 -46
v -34 1 -47
v -30 1 -47
v 0 1 -47
v 3 1 -47
v 5 1 -47
v 7 1 -47
v -4 1 -49
v 0 1 -49
v 3 1 -49
v 5 1 -49
v -26 1 -50
v -21 1 -50
v -35 1 -51
v -34 1 -51
v -26 1 -51
v -23 1 -51
v -23 1 -52
v -21 1 -52
v -35 1 -57
v -28 1 -57
v -63 1 -61
v -28 1 -61
v 5 1 -61
v 61 1 -61
v 29 24 63
v 31 24 63
v 29 24 -23
v 31 24 -23
v 61 80 63
v 62 80 63
v 63 80 63
v -46 80 48
v -41 80 48
v -47 80 47
v -46 80 47
v -41 80 47
v -40 80 47
v -48 80 46
v -47 80 46
v -40 80 46
v -39 80 46
v -48 80 41
v -47 80 41
v -40 80 41
v -39 80 41
v -47 80 40
v -46 80 40
v -41 80 40
v -40 80 40
v -46 80 39
v -41 80 39
v -63 80 -61
v 61 80 -61
v -63 80 -62
v 62 80 -62
v -63 80 -63
v 63 80 -63

# faces
f 4/2/1 2/2/1 1/2/1
f 5/2/1 2/2/1 4/2/1
f 6/2/1 2/2/1 5/2/1
f 7/1/1 3/1/1 2/1/1
f 7/2/1 2/2/1 6/2/1
f 8/1/1 3/1/1 7/1/1
f 11/3/1 10/3/1 9/3/1
f 12/3/1 10/3/1 11/3/1
f 17/3/1 14/3/1 13/3/1
f 18/3/1 14/3/1 17/3/1
f 19/3/1 16/3/1 15/3/1
f 20/3/1 16/3/1 19/3/1
f 25/3/1 22/3/1 21/3/1
f 26/3/1 22/3/1 25/3/1
f 27/3/1 24/3/1 23/3/1
f 28/3/1 24/3/1 27/3/1
f 31/2/1 30/2/1 29/2/1
f 32/2/1 30/2/1 31/2/1
f 35/2/1 34/2/1 33/2/1
f 36/2/1 34/2/1 35/2/1
f 39/2/1 38/2/1 37/2/1
f 41/2/1 39/2/1 37/2/1
f 41/2/1 40/2/1 39/2/1
f 42/2/1 40/2/1 41/2/1
f 43/3/2 44/3/2 47/3/2
f 47/3/2 44/3/2 48/3/2
f 45/3/2 46/3/2 49/3/2
f 49/3/2 46/3/2 50/3/2
f 51/3/2 52/3/2 55/3/2
f 55/3/2 52/3/2 56/3/2
f 53/3/2 54/3/2 57/3/2
f 57/3/2 54/3/2 58/3/2
f 59/3/2 60/3/2 61/3/2
f 61/3/2 60/3/2 62/3/2
f 63/2/2 64/2/2 65/2/2
f 63/2/2 65/2/2 66/2/2
f 66/2/2 65/2/2 67/2/2
f 68/1/2 69/1/2 70/1/2
f 70/1/2 69/1/2 71/1/2
f 74/2/3 73/2/3 72/2/3
f 76/2/3 74/2/3 72/2/3
f 76/2/3 75/2/3 74/2/3
f 77/2/3 75/2/3 76/2/3
f 80/2/3 79/2/3 78/2/3
f 81/2/3 79/2/3 80/2/3
f 82/1/3 81/1/3 80/1/3
f 83/1/3 81/1/3 82/1/3
f 86/3/3 85/3/3 84/3/3
f 87/3/3 85/3/3 86/3/3
f 90/3/3 89/3/3 88/3/3
f 91/3/3 89/3/3 90/3/3
f 94/3/3 93/3/3 92/3/3
f 95/3/3 93/3/3 94/3/3
f 98/3/3 97/3/3 96/3/3
f 99/3/3 97/3/3 98/3/3
f 102/3/3 101/3/3 100/3/3
f 103/3/3 101/3/3 102/3/3
f 106/2/3 105/2/3 104/2/3
f 107/2/3 105/2/3 106/2/3
f 110/2/3 109/2/3 108/2/3
f 111/2/3 109/2/3 110/2/3
f 114/2/3 113/2/3 112/2/3
f 115/2/3 113/2/3 114/2/3
f 116/2/3 114/2/3 112/2/3
f 116/4/3 115/4/3 114/4/3
f 117/2/3 113/2/3 115/2/3
f 117/4/3 115/4/3 116/4/3
f 118/2/3 116/2/3 112/2/3
f 118/2/3 117/2/3 116/2/3
f 119/2/3 117/2/3 118/2/3
f 120/4/3 119/4/3 118/4/3
f 120/2/3 117/2/3 119/2/3
f 121/2/3 117/2/3 120/2/3
f 122/4/3 120/4/3 118/4/3
f 122/4/3 121/4/3 120/4/3
f 123/2/3 117/2/3 121/2/3
f 123/4/3 121/4/3 122/4/3
f 124/2/3 123/2/3 122/2/3
f 124/2/3 117/2/3 123/2/3
f 125/2/3 117/2/3 124/2/3
f 126/2/3 124/2/3 122/2/3
f 126/4/3 125/4/3 124/4/3
f 127/2/3 117/2/3 125/2/3
f 127/4/3 125/4/3 126/4/3
f 128/4/3 122/4/3 118/4/3
f 129/2/3 126/2/3 122/2/3
f 129/4/3 122/4/3 128/4/3
f 129/2/3 127/2/3 126/2/3
f 130/2/3 129/2/3 128/2/3
f 131/2/3 113/2/3 117/2/3
f 131/2/3 129/2/3 130/2/3
f 131/2/3 117/2/3 127/2/3
f 131/2/3 127/2/3 129/2/3
f 132/3/4 133/3/4 134/3/4
f 134/3/4 133/3/4 135/3/4
f 136/3/4 137/3/4 138/3/4
f 138/3/4 137/3/4 139/3/4
f 140/3/4 141/3/4 142/3/4
f 142/3/4 141/3/4 143/3/4
f 144/3/4 145/3/4 146/3/4
f 146/3/4 145/3/4 147/3/4
f 148/3/4 149/3/4 150/3/4
f 150/3/4 149/3/4 151/3/4
f 152/2/4 153/2/4 154/2/4
f 154/2/4 153/2/4 155/2/4
f 156/1/4 157/1/4 158/1/4
f 158/1/4 157/1/4 159/1/4
f 168/3/5 166/3/5 165/3/5
f 169/3/5 166/3/5 168/3/5
f 172/3/5 168/3/5 167/3/5
f 172/3/5 170/3/5 169/3/5
f 172/3/5 169/3/5 168/3/5
f 173/3/5 170/3/5 172/3/5
f 175/3/5 172/3/5 171/3/5
f 175/3/5 174/3/5 173/3/5
f 175/3/5 173/3/5 172/3/5
f 176/3/5 174/3/5 175/3/5
f 177/3/5 174/3/5 176/3/5
f 178/3/5 174/3/5 177/3/5
f 179/3/5 177/3/5 176/3/5
f 180/3/5 177/3/5 179/3/5
f 181/3/5 177/3/5 180/3/5
f 182/3/5 177/3/5 181/3/5
f 183/3/5 181/3/5 180/3/5
f 184/3/5 181/3/5 183/3/5
f 186/2/5 161/2/5 160/2/5
f 187/2/5 161/2/5 186/2/5
f 187/2/5 186/2/5 185/2/5
f 188/2/5 161/2/5 187/2/5
f 189/2/5 187/2/5 185/2/5
f 189/4/5 188/4/5 187/4/5
f 190/2/5 161/2/5 188/2/5
f 190/4/5 188/4/5 189/4/5
f 191/2/5 190/2/5 189/2/5
f 191/2/5 161/2/5 190/2/5
f 192/2/5 163/2/5 162/2/5
f 193/2/5 191/2/5 189/2/5
f 193/2/5 192/2/5 191/2/5
f 193/2/5 189/2/5 185/2/5
f 194/2/5 192/2/5 193/2/5
f 195/2/5 192/2/5 194/2/5
f 196/2/5 192/2/5 195/2/5
f 197/2/5 193/2/5 185/2/5
f 197/4/5 194/4/5 193/4/5
f 198/2/5 195/2/5 194/2/5
f 198/4/5 194/4/5 197/4/5
f 199/4/5 196/4/5 195/4/5
f 199/2/5 195/2/5 198/2/5
f 199/2/5 198/2/5 197/2/5
f 200/2/5 192/2/5 196/2/5
f 200/4/5 196/4/5 199/4/5
f 201/2/5 200/2/5 199/2/5
f 201/2/5 192/2/5 200/2/5
f 202/2/5 192/2/5 201/2/5
f 203/2/5 199/2/5 197/2/5
f 203/2/5 197/2/5 185/2/5
f 203/2/5 201/2/5 199/2/5
f 204/2/5 201/2/5 203/2/5
f 205/2/5 203/2/5 185/2/5
f 206/2/5 203/2/5 205/2/5
f 207/2/5 201/2/5 204/2/5
f 208/4/5 202/4/5 201/4/5
f 208/2/5 201/2/5 207/2/5
f 209/2/5 207/2/5 204/2/5
f 210/4/5 208/4/5 207/4/5
f 210/2/5 207/2/5 209/2/5
f 211/2/5 203/2/5 206/2/5
f 212/4/5 204/4/5 203/4/5
f 212/2/5 203/2/5 211/2/5
f 213/2/5 209/2/5 204/2/5
f 213/4/5 204/4/5 212/4/5
f 214/2/5 209/2/5 213/2/5
f 215/4/5 202/4/5 208/4/5
f 215/4/5 208/4/5 210/4/5
f 215/4/5 210/4/5 209/4/5
f 216/2/5 192/2/5 202/2/5
f 216/4/5 202/4/5 215/4/5
f 217/4/5 206/4/5 205/4/5
f 218/2/5 211/2/5 206/2/5
f 218/4/5 206/4/5 217/4/5
f 219/2/5 209/2/5 214/2/5
f 219/4/5 214/4/5 213/4/5
f 219/4/5 212/4/5 211/4/5
f 219/4/5 213/4/5 212/4/5
f 220/4/5 215/4/5 209/4/5
f 220/2/5 209/2/5 219/2/5
f 221/2/5 192/2/5 216/2/5
f 221/2/5 216/2/5 215/2/5
f 222/2/5 192/2/5 221/2/5
f 223/4/5 217/4/5 205/4/5
f 223/2/5 205/2/5 185/2/5
f 224/2/5 218/2/5 217/2/5
f 224/4/5 217/4/5 223/4/5
f 225/4/5 215/4/5 220/4/5
f 225/4/5 220/4/5 219/4/5
f 226/2/5 221/2/5 215/2/5
f 226/4/5 215/4/5 225/4/5
f 227/2/5 224/2/5 223/2/5
f 228/4/5 219/4/5 211/4/5
f 228/2/5 224/2/5 227/2/5
f 228/2/5 211/2/5 218/2/5
f 228/2/5 218/2/5 224/2/5
f 228/4/5 225/4/5 219/4/5
f 229/2/5 226/2/5 225/2/5
f 229/2/5 221/2/5 226/2/5
f 230/2/5 221/2/5 229/2/5
f 231/4/5 222/4/5 221/4/5
f 231/2/5 221/2/5 230/2/5
f 232/2/5 192/2/5 222/2/5
f 232/4/5 222/4/5 231/4/5
f 233/4/5 225/4/5 228/4/5
f 233/4/5 228/4/5 227/4/5
f 233/2/5 229/2/5 225/2/5
f 234/4/5 230/4/5 229/4/5
f 234/2/5 229/2/5 233/2/5
f 235/2/5 231/2/5 230/2/5
f 235/4/5 230/4/5 234/4/5
f 235/2/5 232/2/5 231/2/5
f 236/2/5 232/2/5 235/2/5
f 237/4/5 234/4/5 233/4/5
f 237/4/5 233/4/5 227/4/5
f 237/4/5 236/4/5 235/4/5
f 237/4/5 235/4/5 234/4/5
f 238/4/5 236/4/5 237/4/5
f 239/2/5 227/2/5 223/2/5
f 240/4/5 237/4/5 227/4/5
f 240/2/5 227/2/5 239/2/5
f 241/2/5 238/2/5 237/2/5
f 241/4/5 237/4/5 240/4/5
f 242/2/5 238/2/5 241/2/5
f 243/4/5 240/4/5 239/4/5
f 243/2/5 238/2/5 242/2/5
f 243/4/5 242/4/5 241/4/5
f 243/4/5 241/4/5 240/4/5
f 244/4/5 236/4/5 238/4/5
f 244/2/5 238/2/5 243/2/5
f 245/4/5 243/4/5 239/4/5
f 245/2/5 239/2/5 223/2/5
f 245/4/5 244/4/5 243/4/5
f 246/4/5 244/4/5 245/4/5
f 247/2/5 223/2/5 185/2/5
f 247/2/5 245/2/5 223/2/5
f 247/2/5 246/2/5 245/2/5
f 248/4/5 244/4/5 246/4/5
f 248/2/5 246/2/5 247/2/5
f 249/4/5 236/4/5 244/4/5
f 249/4/5 244/4/5 248/4/5
f 249/2/5 232/2/5 236/2/5
f 250/2/5 163/2/5 192/2/5
f 250/2/5 232/2/5 249/2/5
f 250/1/5 164/1/5 163/1/5
f 250/2/5 192/2/5 232/2/5
f 251/1/5 249/1/5 248/1/5
f 251/1/5 248/1/5 247/1/5
f 251/1/5 250/1/5 249/1/5
f 252/1/5 164/1/5 250/1/5
f 252/1/5 250/1/5 251/1/5
f 253/2/6 254/2/6 256/2/6
f 256/2/6 254/2/6 257/2/6
f 255/2/6 256/2/6 257/2/6
f 257/2/6 254/2/6 258/2/6
f 255/2/6 257/2/6 259/2/6
f 257/4/6 258/4/6 259/4/6
f 258/2/6 254/2/6 260/2/6
f 259/4/6 258/4/6 260/4/6
f 259/2/6 260/2/6 261/2/6
f 260/2/6 254/2/6 261/2/6
f 255/2/6 259/2/6 264/2/6
f 262/2/6 263/2/6 264/2/6
f 261/2/6 262/2/6 264/2/6
f 259/2/6 261/2/6 264/2/6
f 264/2/6 263/2/6 265/2/6
f 265/2/6 263/2/6 266/2/6
f 266/2/6 263/2/6 267/2/6
f 255/2/6 264/2/6 268/2/6
f 264/4/6 265/4/6 268/4/6
f 265/2/6 266/2/6 269/2/6
f 268/4/6 265/4/6 269/4/6
f 266/4/6 267/4/6 270/4/6
f 269/2/6 266/2/6 270/2/6
f 268/2/6 269/2/6 270/2/6
f 267/2/6 263/2/6 271/2/6
f 270/4/6 267/4/6 271/4/6
f 270/2/6 271/2/6 272/2/6
f 271/2/6 263/2/6 272/2/6
f 272/2/6 263/2/6 273/2/6
f 268/2/6 270/2/6 274/2/6
f 255/2/6 268/2/6 274/2/6
f 270/2/6 272/2/6 274/2/6
f 274/2/6 272/2/6 275/2/6
f 255/2/6 274/2/6 276/2/6
f 276/2/6 274/2/6 277/2/6
f 275/2/6 272/2/6 278/2/6
f 272/4/6 273/4/6 279/4/6
f 278/2/6 272/2/6 279/2/6
f 275/2/6 278/2/6 280/2/6
f 278/4/6 279/4/6 281/4/6
f 280/2/6 278/2/6 281/2/6
f 277/2/6 274/2/6 282/2/6
f 274/4/6 275/4/6 283/4/6
f 282/2/6 274/2/6 283/2/6
f 275/2/6 280/2/6 284/2/6
f 283/4/6 275/4/6 284/4/6
f 284/2/6 280/2/6 285/2/6
f 279/4/6 273/4/6 286/4/6
f 281/4/6 279/4/6 286/4/6
f 280/4/6 281/4/6 286/4/6
f 273/2/6 263/2/6 287/2/6
f 286/4/6 273/4/6 287/4/6
f 276/4/6 277/4/6 288/4/6
f 277/2/6 282/2/6 289/2/6
f 288/4/6 277/4/6 289/4/6
f 285/2/6 280/2/6 290/2/6
f 284/4/6 285/4/6 290/4/6
f 282/4/6 283/4/6 290/4/6
f 283/4/6 284/4/6 290/4/6
f 280/4/6 286/4/6 291/4/6
f 290/2/6 280/2/6 291/2/6
f 287/2/6 263/2/6 292/2/6
f 286/2/6 287/2/6 292/2/6
f 292/2/6 263/2/6 293/2/6
f 276/4/6 288/4/6 294/4/6
f 255/2/6 276/2/6 294/2/6
f 288/2/6 289/2/6 295/2/6
f 294/4/6 288/4/6 295/4/6
f 291/4/6 286/4/6 296/4/6
f 290/4/6 291/4/6 296/4/6
f 286/2/6 292/2/6 297/2/6
f 296/4/6 286/4/6 297/4/6
f 294/2/6 295/2/6 298/2/6
f 282/4/6 290/4/6 299/4/6
f 298/2/6 295/2/6 299/2/6
f 289/2/6 282/2/6 299/2/6
f 295/2/6 289/2/6 299/2/6
f 290/4/6 296/4/6 299/4/6
f 296/2/6 297/2/6 300/2/6
f 297/2/6 292/2/6 300/2/6
f 300/2/6 292/2/6 301/2/6
f 292/4/6 293/4/6 302/4/6
f 301/2/6 292/2/6 302/2/6
f 293/2/6 263/2/6 303/2/6
f 302/4/6 293/4/6 303/4/6
f 299/4/6 296/4/6 304/4/6
f 298/4/6 299/4/6 304/4/6
f 296/2/6 300/2/6 304/2/6
f 300/4/6 301/4/6 305/4/6
f 304/2/6 300/2/6 305/2/6
f 301/2/6 302/2/6 306/2/6
f 305/4/6 301/4/6 306/4/6
f 302/2/6 303/2/6 306/2/6
f 306/2/6 303/2/6 307/2/6
f 304/4/6 305/4/6 308/4/6
f 298/4/6 304/4/6 308/4/6
f 306/4/6 307/4/6 308/4/6
f 305/4/6 306/4/6 308/4/6
f 308/4/6 307/4/6 309/4/6
f 294/2/6 298/2/6 310/2/6
f 298/4/6 308/4/6 311/4/6
f 310/2/6 298/2/6 311/2/6
f 308/2/6 309/2/6 312/2/6
f 311/4/6 308/4/6 312/4/6
f 312/2/6 309/2/6 313/2/6
f 310/4/6 311/4/6 314/4/6
f 313/2/6 309/2/6 314/2/6
f 312/4/6 313/4/6 314/4/6
f 311/4/6 312/4/6 314/4/6
f 309/4/6 307/4/6 315/4/6
f 314/2/6 309/2/6 315/2/6
f 310/4/6 314/4/6 316/4/6
f 294/2/6 310/2/6 316/2/6
f 314/4/6 315/4/6 316/4/6
f 316/4/6 315/4/6 317/4/6
f 255/2/6 294/2/6 318/2/6
f 294/2/6 316/2/6 318/2/6
f 316/2/6 317/2/6 318/2/6
f 317/4/6 315/4/6 319/4/6
f 318/2/6 317/2/6 319/2/6
f 315/4/6 307/4/6 320/4/6
f 319/4/6 315/4/6 320/4/6
f 307/2/6 303/2/6 320/2/6
f 303/2/6 263/2/6 321/2/6
f 320/2/6 303/2/6 321/2/6
f 322/2/6 323/2/6 324/2/6
f 324/2/6 323/2/6 325/2/6
f 329/3/6 330/3/6 332/3/6
f 332/3/6 330/3/6 333/3/6
f 331/3/6 332/3/6 336/3/6
f 333/3/6 334/3/6 336/3/6
f 332/3/6 333/3/6 336/3/6
f 336/3/6 334/3/6 337/3/6
f 335/3/6 336/3/6 339/3/6
f 337/3/6 338/3/6 339/3/6
f 336/3/6 337/3/6 339/3/6
f 339/3/6 338/3/6 340/3/6
f 340/3/6 338/3/6 341/3/6
f 341/3/6 338/3/6 342/3/6
f 340/3/6 341/3/6 343/3/6
f 343/3/6 341/3/6 344/3/6
f 344/3/6 341/3/6 345/3/6
f 345/3/6 341/3/6 346/3/6
f 344/3/6 345/3/6 347/3/6
f 347/3/6 345/3/6 348/3/6
f 326/2/6 327/2/6 350/2/6
f 349/2/6 350/2/6 351/2/6
f 327/1/6 328/1/6 352/1/6
f 351/2/6 350/2/6 352/2/6
f 350/2/6 327/2/6 352/2/6
f 351/1/6 352/1/6 353/1/6
f 352/1/6 328/1/6 354/1/6
f 353/1/6 352/1/6 354/1/6
