# MagicaVoxel @ Ephtracy

# group
g 4x2 first (2)-4

# material
mtllib 4x2 first (2)-4.mtl
usemtl palette

# normals
vn -1 0 0
vn 1 0 0
vn 0 0 1
vn 0 0 -1
vn 0 -1 0
vn 0 1 0

# texcoords
vt 0.251953 0.5
vt 0.369141 0.5
vt 0.966797 0.5

# verts
v -63 0 63
v -63 0 -62
v -63 0 -63
v -63 4 -21
v -63 4 -51
v -63 5 -21
v -63 5 -51
v -63 45 -21
v -63 45 -51
v -63 80 63
v -63 80 -62
v -63 80 -63
v -18 3 -2
v -18 3 -5
v -18 4 -2
v -18 4 -3
v -18 4 -5
v -18 4 -7
v -18 5 -3
v -18 5 -7
v -15 4 3
v -15 4 1
v -15 5 3
v -15 5 1
v -14 4 -22
v -14 4 -23
v -14 5 -22
v -14 5 -23
v -12 4 -23
v -12 4 -24
v -12 5 -23
v -12 5 -24
v -5 4 2
v -5 4 1
v -5 5 2
v -5 5 1
v -3 4 4
v -3 4 2
v -3 5 4
v -3 5 2
v 4 4 -22
v 4 4 -24
v 4 4 -26
v 4 4 -28
v 4 5 -22
v 4 5 -24
v 4 5 -26
v 4 5 -28
v 6 4 6
v 6 4 1
v 6 5 6
v 6 5 1
v 8 4 -24
v 8 4 -26
v 8 5 -24
v 8 5 -26
v 10 4 1
v 10 4 -12
v 10 5 1
v 10 5 -12
v 13 4 -26
v 13 4 -27
v 13 5 -26
v 13 5 -27
v 14 4 -12
v 14 4 -23
v 14 5 -12
v 14 5 -23
v 15 4 1
v 15 4 -2
v 15 4 -8
v 15 4 -9
v 15 5 1
v 15 5 -2
v 15 5 -8
v 15 5 -9
v 16 4 -9
v 16 4 -10
v 16 5 -9
v 16 5 -10
v 17 3 -2
v 17 3 -3
v 17 4 -2
v 17 4 -3
v 17 5 -2
v 17 5 -3
v -62 5 63
v -62 5 -21
v -62 5 -51
v -62 5 -61
v -62 45 -21
v -62 45 -51
v -62 80 63
v -62 80 -61
v -20 4 -20
v -20 4 -23
v -20 5 -20
v -20 5 -23
v -19 3 -2
v -19 3 -5
v -19 4 3
v -19 4 -2
v -19 4 -5
v -19 4 -7
v -19 5 3
v -19 5 -7
v -17 4 -3
v -17 4 -20
v -17 5 -3
v -17 5 -20
v -13 4 -23
v -13 4 -24
v -13 5 -23
v -13 5 -24
v -7 4 -22
v -7 4 -28
v -7 5 -22
v -7 5 -28
v -6 4 2
v -6 4 1
v -6 5 2
v -6 5 1
v -5 4 4
v -5 4 2
v -5 5 4
v -5 5 2
v 0 4 6
v 0 4 1
v 0 5 6
v 0 5 1
v 10 4 -22
v 10 4 -23
v 10 4 -26
v 10 4 -27
v 10 5 -22
v 10 5 -23
v 10 5 -26
v 10 5 -27
v 11 4 1
v 11 4 -3
v 11 5 1
v 11 5 -3
v 13 4 -8
v 13 4 -10
v 13 5 -8
v 13 5 -10
v 14 3 -2
v 14 3 -3
v 14 4 -2
v 14 4 -3
v 63 0 63
v 63 0 -62
v 63 0 -63
v 63 4 63
v 63 4 -61
v 63 5 63
v 63 5 -61
v 63 80 -61
v 63 80 -62
v 63 80 -63
v -63 0 63
v -63 80 63
v -62 4 63
v -62 5 63
v -62 80 63
v 63 0 63
v 63 4 63
v 63 5 63
v -5 4 2
v -5 5 2
v -3 4 2
v -3 5 2
v -18 4 -3
v -18 5 -3
v -17 4 -3
v -17 5 -3
v 11 4 -3
v 11 5 -3
v 14 3 -3
v 14 4 -3
v 17 3 -3
v 17 4 -3
v 17 5 -3
v -19 3 -5
v -19 4 -5
v -18 3 -5
v -18 4 -5
v -19 4 -7
v -19 5 -7
v -18 4 -7
v -18 5 -7
v 13 4 -10
v 13 5 -10
v 16 4 -10
v 16 5 -10
v -14 4 -22
v -14 5 -22
v -7 4 -22
v -7 5 -22
v 4 4 -22
v 4 5 -22
v 10 4 -22
v 10 5 -22
v -20 4 -23
v -20 5 -23
v -14 4 -23
v -14 5 -23
v 10 4 -23
v 10 5 -23
v 14 4 -23
v 14 5 -23
v -13 4 -24
v -13 5 -24
v -12 4 -24
v -12 5 -24
v 4 4 -26
v 4 5 -26
v 8 4 -26
v 8 5 -26
v 10 4 -27
v 10 5 -27
v 13 4 -27
v 13 5 -27
v -7 4 -28
v -7 5 -28
v 4 4 -28
v 4 5 -28
v -63 5 -51
v -63 45 -51
v -62 5 -51
v -62 45 -51
v -62 5 -61
v -62 80 -61
v 63 5 -61
v 63 80 -61
v 0 4 6
v 0 5 6
v 6 4 6
v 6 5 6
v -5 4 4
v -5 5 4
v -3 4 4
v -3 5 4
v -19 4 3
v -19 5 3
v -15 4 3
v -15 5 3
v -6 4 2
v -6 5 2
v -5 4 2
v -5 5 2
v -15 4 1
v -15 5 1
v -6 4 1
v -6 5 1
v -5 4 1
v -5 5 1
v 0 4 1
v 0 5 1
v 6 4 1
v 6 5 1
v 10 4 1
v 10 5 1
v 11 4 1
v 11 5 1
v 15 4 1
v 15 5 1
v -19 3 -2
v -19 4 -2
v -18 3 -2
v -18 4 -2
v 14 3 -2
v 14 4 -2
v 15 4 -2
v 15 5 -2
v 17 3 -2
v 17 4 -2
v 17 5 -2
v 13 4 -8
v 13 5 -8
v 15 4 -8
v 15 5 -8
v 15 4 -9
v 15 5 -9
v 16 4 -9
v 16 5 -9
v 10 4 -12
v 10 5 -12
v 14 4 -12
v 14 5 -12
v -20 4 -20
v -20 5 -20
v -17 4 -20
v -17 5 -20
v -63 5 -21
v -63 45 -21
v -62 5 -21
v -62 45 -21
v -13 4 -23
v -13 5 -23
v -12 4 -23
v -12 5 -23
v 4 4 -24
v 4 5 -24
v 8 4 -24
v 8 5 -24
v 10 4 -26
v 10 5 -26
v 13 4 -26
v 13 5 -26
v -63 0 -63
v -63 80 -63
v 63 0 -63
v 63 80 -63
v -63 0 63
v 63 0 63
v -63 0 -62
v 63 0 -62
v -63 0 -63
v 63 0 -63
v -63 45 -21
v -62 45 -21
v -63 45 -51
v -62 45 -51
v -19 3 -2
v -18 3 -2
v 14 3 -2
v 17 3 -2
v 14 3 -3
v 17 3 -3
v -19 3 -5
v -18 3 -5
v 0 4 6
v 6 4 6
v -5 4 4
v -3 4 4
v -19 4 3
v -15 4 3
v -6 4 2
v -5 4 2
v -3 4 2
v -15 4 1
v -6 4 1
v -5 4 1
v 0 4 1
v 6 4 1
v 10 4 1
v 11 4 1
v 15 4 1
v -19 4 -2
v -18 4 -2
v 14 4 -2
v 15 4 -2
v -18 4 -3
v -17 4 -3
v 11 4 -3
v 14 4 -3
v -19 4 -5
v -18 4 -5
v -19 4 -7
v -18 4 -7
v 13 4 -8
v 15 4 -8
v 15 4 -9
v 16 4 -9
v 13 4 -10
v 16 4 -10
v 10 4 -12
v 14 4 -12
v -20 4 -20
v -17 4 -20
v -14 4 -22
v -7 4 -22
v 4 4 -22
v 10 4 -22
v -20 4 -23
v -14 4 -23
v -13 4 -23
v -12 4 -23
v 10 4 -23
v 14 4 -23
v -13 4 -24
v -12 4 -24
v 4 4 -24
v 8 4 -24
v 4 4 -26
v 8 4 -26
v 10 4 -26
v 13 4 -26
v 10 4 -27
v 13 4 -27
v -7 4 -28
v 4 4 -28
v -62 5 63
v 63 5 63
v 0 5 6
v 6 5 6
v -5 5 4
v -3 5 4
v -19 5 3
v -15 5 3
v -6 5 2
v -5 5 2
v -3 5 2
v -15 5 1
v -6 5 1
v -5 5 1
v 0 5 1
v 6 5 1
v 10 5 1
v 11 5 1
v 15 5 1
v 15 5 -2
v 17 5 -2
v -18 5 -3
v -17 5 -3
v 11 5 -3
v 17 5 -3
v -19 5 -7
v -18 5 -7
v 13 5 -8
v 15 5 -8
v 15 5 -9
v 16 5 -9
v 13 5 -10
v 16 5 -10
v 10 5 -12
v 14 5 -12
v -20 5 -20
v -17 5 -20
v -63 5 -21
v -62 5 -21
v -14 5 -22
v -7 5 -22
v 4 5 -22
v 10 5 -22
v -20 5 -23
v -14 5 -23
v -13 5 -23
v -12 5 -23
v 10 5 -23
v 14 5 -23
v -13 5 -24
v -12 5 -24
v 4 5 -24
v 8 5 -24
v 4 5 -26
v 8 5 -26
v 10 5 -26
v 13 5 -26
v 10 5 -27
v 13 5 -27
v -7 5 -28
v 4 5 -28
v -63 5 -51
v -62 5 -51
v -62 5 -61
v 63 5 -61
v -63 80 63
v -62 80 63
v -62 80 -61
v 63 80 -61
v -63 80 -62
v 63 80 -62
v -63 80 -63
v 63 80 -63

# faces
f 4/3/1 2/3/1 1/3/1
f 5/3/1 2/3/1 4/3/1
f 6/3/1 4/3/1 1/3/1
f 6/2/1 5/2/1 4/2/1
f 7/3/1 2/3/1 5/3/1
f 7/2/1 5/2/1 6/2/1
f 8/3/1 6/3/1 1/3/1
f 9/3/1 2/3/1 7/3/1
f 10/3/1 8/3/1 1/3/1
f 10/3/1 9/3/1 8/3/1
f 11/1/1 3/1/1 2/1/1
f 11/3/1 9/3/1 10/3/1
f 11/3/1 2/3/1 9/3/1
f 12/1/1 3/1/1 11/1/1
f 15/3/1 14/3/1 13/3/1
f 16/3/1 14/3/1 15/3/1
f 17/3/1 14/3/1 16/3/1
f 19/2/1 18/2/1 17/2/1
f 19/2/1 17/2/1 16/2/1
f 20/2/1 18/2/1 19/2/1
f 23/2/1 22/2/1 21/2/1
f 24/2/1 22/2/1 23/2/1
f 27/2/1 26/2/1 25/2/1
f 28/2/1 26/2/1 27/2/1
f 31/2/1 30/2/1 29/2/1
f 32/2/1 30/2/1 31/2/1
f 35/2/1 34/2/1 33/2/1
f 36/2/1 34/2/1 35/2/1
f 39/2/1 38/2/1 37/2/1
f 40/2/1 38/2/1 39/2/1
f 45/2/1 42/2/1 41/2/1
f 46/2/1 42/2/1 45/2/1
f 47/2/1 44/2/1 43/2/1
f 48/2/1 44/2/1 47/2/1
f 51/2/1 50/2/1 49/2/1
f 52/2/1 50/2/1 51/2/1
f 55/2/1 54/2/1 53/2/1
f 56/2/1 54/2/1 55/2/1
f 59/2/1 58/2/1 57/2/1
f 60/2/1 58/2/1 59/2/1
f 63/2/1 62/2/1 61/2/1
f 64/2/1 62/2/1 63/2/1
f 67/2/1 66/2/1 65/2/1
f 68/2/1 66/2/1 67/2/1
f 73/2/1 70/2/1 69/2/1
f 74/2/1 70/2/1 73/2/1
f 75/2/1 72/2/1 71/2/1
f 76/2/1 72/2/1 75/2/1
f 79/2/1 78/2/1 77/2/1
f 80/2/1 78/2/1 79/2/1
f 83/3/1 82/3/1 81/3/1
f 84/3/1 82/3/1 83/3/1
f 85/2/1 84/2/1 83/2/1
f 86/2/1 84/2/1 85/2/1
f 87/3/2 88/3/2 91/3/2
f 89/3/2 90/3/2 92/3/2
f 87/3/2 91/3/2 93/3/2
f 91/3/2 92/3/2 93/3/2
f 92/3/2 90/3/2 94/3/2
f 93/3/2 92/3/2 94/3/2
f 95/2/2 96/2/2 97/2/2
f 97/2/2 96/2/2 98/2/2
f 99/3/2 100/3/2 102/3/2
f 102/3/2 100/3/2 103/3/2
f 101/2/2 102/2/2 105/2/2
f 103/2/2 104/2/2 105/2/2
f 102/2/2 103/2/2 105/2/2
f 105/2/2 104/2/2 106/2/2
f 107/2/2 108/2/2 109/2/2
f 109/2/2 108/2/2 110/2/2
f 111/2/2 112/2/2 113/2/2
f 113/2/2 112/2/2 114/2/2
f 115/2/2 116/2/2 117/2/2
f 117/2/2 116/2/2 118/2/2
f 119/2/2 120/2/2 121/2/2
f 121/2/2 120/2/2 122/2/2
f 123/2/2 124/2/2 125/2/2
f 125/2/2 124/2/2 126/2/2
f 127/2/2 128/2/2 129/2/2
f 129/2/2 128/2/2 130/2/2
f 131/2/2 132/2/2 135/2/2
f 135/2/2 132/2/2 136/2/2
f 133/2/2 134/2/2 137/2/2
f 137/2/2 134/2/2 138/2/2
f 139/2/2 140/2/2 141/2/2
f 141/2/2 140/2/2 142/2/2
f 143/2/2 144/2/2 145/2/2
f 145/2/2 144/2/2 146/2/2
f 147/3/2 148/3/2 149/3/2
f 149/3/2 148/3/2 150/3/2
f 151/3/2 152/3/2 154/3/2
f 154/3/2 152/3/2 155/3/2
f 154/2/2 155/2/2 156/2/2
f 155/3/2 152/3/2 157/3/2
f 156/2/2 155/2/2 157/2/2
f 157/3/2 152/3/2 158/3/2
f 152/1/2 153/1/2 159/1/2
f 158/3/2 152/3/2 159/3/2
f 159/1/2 153/1/2 160/1/2
f 163/3/3 162/3/3 161/3/3
f 164/3/3 162/3/3 163/3/3
f 165/3/3 162/3/3 164/3/3
f 166/3/3 163/3/3 161/3/3
f 167/2/3 164/2/3 163/2/3
f 167/3/3 163/3/3 166/3/3
f 168/2/3 164/2/3 167/2/3
f 171/2/3 170/2/3 169/2/3
f 172/2/3 170/2/3 171/2/3
f 175/2/3 174/2/3 173/2/3
f 176/2/3 174/2/3 175/2/3
f 180/2/3 178/2/3 177/2/3
f 181/3/3 180/3/3 179/3/3
f 182/2/3 178/2/3 180/2/3
f 182/3/3 180/3/3 181/3/3
f 183/2/3 178/2/3 182/2/3
f 186/3/3 185/3/3 184/3/3
f 187/3/3 185/3/3 186/3/3
f 190/2/3 189/2/3 188/2/3
f 191/2/3 189/2/3 190/2/3
f 194/2/3 193/2/3 192/2/3
f 195/2/3 193/2/3 194/2/3
f 198/2/3 197/2/3 196/2/3
f 199/2/3 197/2/3 198/2/3
f 202/2/3 201/2/3 200/2/3
f 203/2/3 201/2/3 202/2/3
f 206/2/3 205/2/3 204/2/3
f 207/2/3 205/2/3 206/2/3
f 210/2/3 209/2/3 208/2/3
f 211/2/3 209/2/3 210/2/3
f 214/2/3 213/2/3 212/2/3
f 215/2/3 213/2/3 214/2/3
f 218/2/3 217/2/3 216/2/3
f 219/2/3 217/2/3 218/2/3
f 222/2/3 221/2/3 220/2/3
f 223/2/3 221/2/3 222/2/3
f 226/2/3 225/2/3 224/2/3
f 227/2/3 225/2/3 226/2/3
f 230/3/3 229/3/3 228/3/3
f 231/3/3 229/3/3 230/3/3
f 234/3/3 233/3/3 232/3/3
f 235/3/3 233/3/3 234/3/3
f 236/2/4 237/2/4 238/2/4
f 238/2/4 237/2/4 239/2/4
f 240/2/4 241/2/4 242/2/4
f 242/2/4 241/2/4 243/2/4
f 244/2/4 245/2/4 246/2/4
f 246/2/4 245/2/4 247/2/4
f 248/2/4 249/2/4 250/2/4
f 250/2/4 249/2/4 251/2/4
f 252/2/4 253/2/4 254/2/4
f 254/2/4 253/2/4 255/2/4
f 256/2/4 257/2/4 258/2/4
f 258/2/4 257/2/4 259/2/4
f 260/2/4 261/2/4 262/2/4
f 262/2/4 261/2/4 263/2/4
f 264/2/4 265/2/4 266/2/4
f 266/2/4 265/2/4 267/2/4
f 268/3/4 269/3/4 270/3/4
f 270/3/4 269/3/4 271/3/4
f 272/3/4 273/3/4 274/3/4
f 272/3/4 274/3/4 276/3/4
f 274/2/4 275/2/4 277/2/4
f 276/3/4 274/3/4 277/3/4
f 277/2/4 275/2/4 278/2/4
f 279/2/4 280/2/4 281/2/4
f 281/2/4 280/2/4 282/2/4
f 283/2/4 284/2/4 285/2/4
f 285/2/4 284/2/4 286/2/4
f 287/2/4 288/2/4 289/2/4
f 289/2/4 288/2/4 290/2/4
f 291/2/4 292/2/4 293/2/4
f 293/2/4 292/2/4 294/2/4
f 295/3/4 296/3/4 297/3/4
f 297/3/4 296/3/4 298/3/4
f 299/2/4 300/2/4 301/2/4
f 301/2/4 300/2/4 302/2/4
f 303/2/4 304/2/4 305/2/4
f 305/2/4 304/2/4 306/2/4
f 307/2/4 308/2/4 309/2/4
f 309/2/4 308/2/4 310/2/4
f 311/1/4 312/1/4 313/1/4
f 313/1/4 312/1/4 314/1/4
f 317/3/5 316/3/5 315/3/5
f 318/3/5 316/3/5 317/3/5
f 319/1/5 318/1/5 317/1/5
f 320/1/5 318/1/5 319/1/5
f 323/3/5 322/3/5 321/3/5
f 324/3/5 322/3/5 323/3/5
f 327/3/6 328/3/6 329/3/6
f 329/3/6 328/3/6 330/3/6
f 325/3/6 326/3/6 331/3/6
f 331/3/6 326/3/6 332/3/6
f 335/3/6 336/3/6 340/3/6
f 340/3/6 336/3/6 341/3/6
f 337/3/6 338/3/6 342/3/6
f 339/3/6 340/3/6 343/3/6
f 343/3/6 340/3/6 344/3/6
f 333/3/6 334/3/6 345/3/6
f 345/3/6 334/3/6 346/3/6
f 343/3/6 344/3/6 350/3/6
f 342/3/6 343/3/6 350/3/6
f 346/3/6 347/3/6 350/3/6
f 345/3/6 346/3/6 350/3/6
f 344/3/6 345/3/6 350/3/6
f 337/3/6 342/3/6 350/3/6
f 350/3/6 347/3/6 351/3/6
f 348/3/6 349/3/6 352/3/6
f 352/3/6 349/3/6 353/3/6
f 351/3/6 347/3/6 354/3/6
f 354/3/6 347/3/6 355/3/6
f 348/3/6 352/3/6 356/3/6
f 356/3/6 352/3/6 357/3/6
f 358/3/6 359/3/6 360/3/6
f 360/3/6 359/3/6 361/3/6
f 362/3/6 363/3/6 364/3/6
f 362/3/6 364/3/6 366/3/6
f 364/3/6 365/3/6 366/3/6
f 366/3/6 365/3/6 367/3/6
f 355/3/6 347/3/6 368/3/6
f 355/3/6 368/3/6 371/3/6
f 368/3/6 369/3/6 371/3/6
f 371/3/6 369/3/6 372/3/6
f 370/3/6 371/3/6 372/3/6
f 372/3/6 369/3/6 373/3/6
f 373/3/6 369/3/6 374/3/6
f 374/3/6 369/3/6 375/3/6
f 370/3/6 372/3/6 376/3/6
f 376/3/6 372/3/6 377/3/6
f 375/3/6 369/3/6 380/3/6
f 380/3/6 369/3/6 381/3/6
f 378/3/6 379/3/6 382/3/6
f 382/3/6 379/3/6 383/3/6
f 373/3/6 374/3/6 384/3/6
f 384/3/6 385/3/6 386/3/6
f 373/3/6 384/3/6 386/3/6
f 386/3/6 385/3/6 387/3/6
f 388/3/6 389/3/6 390/3/6
f 390/3/6 389/3/6 391/3/6
f 373/3/6 386/3/6 392/3/6
f 392/3/6 386/3/6 393/3/6
f 394/2/6 395/2/6 396/2/6
f 396/2/6 395/2/6 397/2/6
f 394/2/6 396/2/6 398/2/6
f 398/2/6 396/2/6 399/2/6
f 394/2/6 398/2/6 400/2/6
f 400/2/6 398/2/6 401/2/6
f 401/2/6 398/2/6 402/2/6
f 402/2/6 398/2/6 403/2/6
f 399/2/6 396/2/6 404/2/6
f 401/2/6 402/2/6 405/2/6
f 405/2/6 402/2/6 406/2/6
f 403/2/6 404/2/6 407/2/6
f 404/2/6 396/2/6 408/2/6
f 407/2/6 404/2/6 408/2/6
f 397/2/6 395/2/6 409/2/6
f 409/2/6 395/2/6 410/2/6
f 410/2/6 395/2/6 411/2/6
f 411/2/6 395/2/6 412/2/6
f 412/2/6 395/2/6 413/2/6
f 413/2/6 395/2/6 414/2/6
f 410/2/6 411/2/6 417/2/6
f 414/2/6 395/2/6 418/2/6
f 394/2/6 400/2/6 419/2/6
f 415/2/6 416/2/6 420/2/6
f 417/2/6 418/2/6 421/2/6
f 421/2/6 418/2/6 422/2/6
f 422/2/6 418/2/6 423/2/6
f 423/2/6 418/2/6 424/2/6
f 417/2/6 421/2/6 425/2/6
f 424/2/6 418/2/6 426/2/6
f 410/2/6 417/2/6 427/2/6
f 425/2/6 426/2/6 427/2/6
f 417/2/6 425/2/6 427/2/6
f 427/2/6 426/2/6 428/2/6
f 394/2/6 419/2/6 429/2/6
f 419/2/6 420/2/6 429/2/6
f 420/2/6 416/2/6 430/2/6
f 429/2/6 420/2/6 430/2/6
f 394/2/6 429/2/6 432/2/6
f 431/2/6 432/2/6 437/2/6
f 432/2/6 429/2/6 437/2/6
f 433/2/6 434/2/6 438/2/6
f 438/2/6 434/2/6 439/2/6
f 439/2/6 434/2/6 440/2/6
f 435/2/6 436/2/6 441/2/6
f 428/2/6 426/2/6 442/2/6
f 437/2/6 438/2/6 443/2/6
f 438/2/6 439/2/6 443/2/6
f 440/2/6 434/2/6 444/2/6
f 435/2/6 441/2/6 445/2/6
f 441/2/6 442/2/6 445/2/6
f 445/2/6 442/2/6 446/2/6
f 446/2/6 442/2/6 448/2/6
f 448/2/6 442/2/6 449/2/6
f 449/2/6 442/2/6 450/2/6
f 447/2/6 448/2/6 451/2/6
f 448/2/6 449/2/6 451/2/6
f 450/2/6 442/2/6 452/2/6
f 443/2/6 444/2/6 453/2/6
f 444/2/6 434/2/6 453/2/6
f 451/2/6 452/2/6 454/2/6
f 447/2/6 451/2/6 454/2/6
f 443/2/6 453/2/6 455/2/6
f 453/2/6 454/2/6 455/2/6
f 437/2/6 443/2/6 455/2/6
f 431/2/6 437/2/6 455/2/6
f 455/2/6 454/2/6 456/2/6
f 456/2/6 454/2/6 457/2/6
f 454/2/6 452/2/6 458/2/6
f 457/2/6 454/2/6 458/2/6
f 426/2/6 418/2/6 458/2/6
f 418/2/6 395/2/6 458/2/6
f 452/2/6 442/2/6 458/2/6
f 442/2/6 426/2/6 458/2/6
f 459/3/6 460/3/6 461/3/6
f 459/3/6 461/3/6 463/3/6
f 461/3/6 462/3/6 463/3/6
f 463/3/6 462/3/6 464/3/6
f 463/1/6 464/1/6 465/1/6
f 465/1/6 464/1/6 466/1/6
