# MagicaVoxel @ Ephtracy

# group
g wood door

# material
mtllib wood door.mtl
usemtl palette

# normals
vn -1 0 0
vn 1 0 0
vn 0 0 1
vn 0 0 -1
vn 0 -1 0
vn 0 1 0

# texcoords
vt 0.0644531 0.5
vt 0.0683594 0.5
vt 0.0917969 0.5
vt 0.990234 0.5

# verts
v -24 0 -8
v -24 0 -12
v -24 40 -8
v -24 40 -12
v -18 16 -6
v -18 16 -8
v -18 16 -12
v -18 16 -14
v -18 20 -6
v -18 20 -8
v -18 20 -12
v -18 20 -14
v -17 16 -6
v -17 16 -8
v -17 16 -12
v -17 16 -14
v -17 20 -6
v -17 20 -8
v -17 20 -12
v -17 20 -14
v 6 0 -8
v 6 0 -12
v 6 40 -8
v 6 40 -12
v -18 16 -6
v -18 20 -6
v -17 16 -6
v -17 20 -6
v -24 0 -8
v -24 40 -8
v -23 1 -8
v -23 39 -8
v -21 1 -8
v -21 39 -8
v -20 1 -8
v -20 39 -8
v -18 16 -8
v -18 20 -8
v -17 16 -8
v -17 20 -8
v -15 1 -8
v -15 39 -8
v -14 1 -8
v -14 39 -8
v -9 1 -8
v -9 39 -8
v -8 1 -8
v -8 39 -8
v -3 1 -8
v -3 39 -8
v -2 1 -8
v -2 39 -8
v 2 1 -8
v 2 39 -8
v 3 1 -8
v 3 39 -8
v 5 1 -8
v 5 39 -8
v 6 0 -8
v 6 40 -8
v -24 0 -12
v -24 40 -12
v -23 1 -12
v -23 39 -12
v -21 1 -12
v -21 39 -12
v -20 1 -12
v -20 39 -12
v -18 16 -12
v -18 20 -12
v -17 16 -12
v -17 20 -12
v -15 1 -12
v -15 39 -12
v -14 1 -12
v -14 39 -12
v -9 1 -12
v -9 39 -12
v -8 1 -12
v -8 39 -12
v -3 1 -12
v -3 39 -12
v -2 1 -12
v -2 39 -12
v 2 1 -12
v 2 39 -12
v 3 1 -12
v 3 39 -12
v 5 1 -12
v 5 39 -12
v 6 0 -12
v 6 40 -12
v -18 16 -14
v -18 20 -14
v -17 16 -14
v -17 20 -14
v -24 0 -8
v 6 0 -8
v -24 0 -12
v 6 0 -12
v -18 16 -6
v -17 16 -6
v -18 16 -8
v -17 16 -8
v -18 16 -12
v -17 16 -12
v -18 16 -14
v -17 16 -14
v -18 20 -6
v -17 20 -6
v -18 20 -8
v -17 20 -8
v -18 20 -12
v -17 20 -12
v -18 20 -14
v -17 20 -14
v -24 40 -8
v 6 40 -8
v -24 40 -12
v 6 40 -12

# faces
f 3/3/1 2/3/1 1/3/1
f 4/3/1 2/3/1 3/3/1
f 9/4/1 6/4/1 5/4/1
f 10/4/1 6/4/1 9/4/1
f 11/4/1 8/4/1 7/4/1
f 12/4/1 8/4/1 11/4/1
f 13/4/2 14/4/2 17/4/2
f 17/4/2 14/4/2 18/4/2
f 15/4/2 16/4/2 19/4/2
f 19/4/2 16/4/2 20/4/2
f 21/3/2 22/3/2 23/3/2
f 23/3/2 22/3/2 24/3/2
f 27/4/3 26/4/3 25/4/3
f 28/4/3 26/4/3 27/4/3
f 31/3/3 30/3/3 29/3/3
f 32/3/3 30/3/3 31/3/3
f 33/3/3 31/3/3 29/3/3
f 33/1/3 32/1/3 31/1/3
f 34/3/3 30/3/3 32/3/3
f 34/1/3 32/1/3 33/1/3
f 35/3/3 33/3/3 29/3/3
f 35/2/3 34/2/3 33/2/3
f 36/3/3 30/3/3 34/3/3
f 36/2/3 34/2/3 35/2/3
f 37/1/3 36/1/3 35/1/3
f 38/1/3 36/1/3 37/1/3
f 39/1/3 37/1/3 35/1/3
f 40/1/3 36/1/3 38/1/3
f 41/3/3 35/3/3 29/3/3
f 41/1/3 40/1/3 39/1/3
f 41/1/3 39/1/3 35/1/3
f 42/1/3 36/1/3 40/1/3
f 42/1/3 40/1/3 41/1/3
f 42/3/3 30/3/3 36/3/3
f 43/3/3 41/3/3 29/3/3
f 43/2/3 42/2/3 41/2/3
f 44/3/3 30/3/3 42/3/3
f 44/2/3 42/2/3 43/2/3
f 45/3/3 43/3/3 29/3/3
f 45/1/3 44/1/3 43/1/3
f 46/3/3 30/3/3 44/3/3
f 46/1/3 44/1/3 45/1/3
f 47/3/3 45/3/3 29/3/3
f 47/2/3 46/2/3 45/2/3
f 48/3/3 30/3/3 46/3/3
f 48/2/3 46/2/3 47/2/3
f 49/3/3 47/3/3 29/3/3
f 49/1/3 48/1/3 47/1/3
f 50/3/3 30/3/3 48/3/3
f 50/1/3 48/1/3 49/1/3
f 51/3/3 49/3/3 29/3/3
f 51/2/3 50/2/3 49/2/3
f 52/3/3 30/3/3 50/3/3
f 52/2/3 50/2/3 51/2/3
f 53/3/3 51/3/3 29/3/3
f 53/1/3 52/1/3 51/1/3
f 54/3/3 30/3/3 52/3/3
f 54/1/3 52/1/3 53/1/3
f 55/3/3 53/3/3 29/3/3
f 55/2/3 54/2/3 53/2/3
f 56/3/3 30/3/3 54/3/3
f 56/2/3 54/2/3 55/2/3
f 57/3/3 55/3/3 29/3/3
f 57/1/3 56/1/3 55/1/3
f 58/3/3 30/3/3 56/3/3
f 58/1/3 56/1/3 57/1/3
f 59/3/3 57/3/3 29/3/3
f 59/3/3 58/3/3 57/3/3
f 60/3/3 30/3/3 58/3/3
f 60/3/3 58/3/3 59/3/3
f 61/3/4 62/3/4 63/3/4
f 63/3/4 62/3/4 64/3/4
f 61/3/4 63/3/4 65/3/4
f 63/1/4 64/1/4 65/1/4
f 64/3/4 62/3/4 66/3/4
f 65/1/4 64/1/4 66/1/4
f 61/3/4 65/3/4 67/3/4
f 65/2/4 66/2/4 67/2/4
f 66/3/4 62/3/4 68/3/4
f 67/2/4 66/2/4 68/2/4
f 67/1/4 68/1/4 69/1/4
f 69/1/4 68/1/4 70/1/4
f 67/1/4 69/1/4 71/1/4
f 70/1/4 68/1/4 72/1/4
f 61/3/4 67/3/4 73/3/4
f 71/1/4 72/1/4 73/1/4
f 67/1/4 71/1/4 73/1/4
f 72/1/4 68/1/4 74/1/4
f 73/1/4 72/1/4 74/1/4
f 68/3/4 62/3/4 74/3/4
f 61/3/4 73/3/4 75/3/4
f 73/2/4 74/2/4 75/2/4
f 74/3/4 62/3/4 76/3/4
f 75/2/4 74/2/4 76/2/4
f 61/3/4 75/3/4 77/3/4
f 75/1/4 76/1/4 77/1/4
f 76/3/4 62/3/4 78/3/4
f 77/1/4 76/1/4 78/1/4
f 61/3/4 77/3/4 79/3/4
f 77/2/4 78/2/4 79/2/4
f 78/3/4 62/3/4 80/3/4
f 79/2/4 78/2/4 80/2/4
f 61/3/4 79/3/4 81/3/4
f 79/1/4 80/1/4 81/1/4
f 80/3/4 62/3/4 82/3/4
f 81/1/4 80/1/4 82/1/4
f 61/3/4 81/3/4 83/3/4
f 81/2/4 82/2/4 83/2/4
f 82/3/4 62/3/4 84/3/4
f 83/2/4 82/2/4 84/2/4
f 61/3/4 83/3/4 85/3/4
f 83/1/4 84/1/4 85/1/4
f 84/3/4 62/3/4 86/3/4
f 85/1/4 84/1/4 86/1/4
f 61/3/4 85/3/4 87/3/4
f 85/2/4 86/2/4 87/2/4
f 86/3/4 62/3/4 88/3/4
f 87/2/4 86/2/4 88/2/4
f 61/3/4 87/3/4 89/3/4
f 87/1/4 88/1/4 89/1/4
f 88/3/4 62/3/4 90/3/4
f 89/1/4 88/1/4 90/1/4
f 61/3/4 89/3/4 91/3/4
f 89/3/4 90/3/4 91/3/4
f 90/3/4 62/3/4 92/3/4
f 91/3/4 90/3/4 92/3/4
f 93/4/4 94/4/4 95/4/4
f 95/4/4 94/4/4 96/4/4
f 99/3/5 98/3/5 97/3/5
f 100/3/5 98/3/5 99/3/5
f 103/4/5 102/4/5 101/4/5
f 104/4/5 102/4/5 103/4/5
f 107/4/5 106/4/5 105/4/5
f 108/4/5 106/4/5 107/4/5
f 109/4/6 110/4/6 111/4/6
f 111/4/6 110/4/6 112/4/6
f 113/4/6 114/4/6 115/4/6
f 115/4/6 114/4/6 116/4/6
f 117/3/6 118/3/6 119/3/6
f 119/3/6 118/3/6 120/3/6
