# MagicaVoxel @ Ephtracy

# group
g 4x2 third-4

# material
mtllib 4x2 third-4.mtl
usemtl palette

# normals
vn -1 0 0
vn 1 0 0
vn 0 0 1
vn 0 0 -1
vn 0 -1 0
vn 0 1 0

# texcoords
vt 0.958984 0.5
vt 0.966797 0.5
vt 0.986328 0.5

# verts
v -63 0 63
v -63 0 -63
v -63 80 63
v -63 80 -63
v -17 3 62
v -17 3 61
v -17 21 62
v -17 21 61
v -9 3 62
v -9 3 61
v -9 21 62
v -9 21 61
v -1 3 62
v -1 3 61
v -1 21 62
v -1 21 61
v 7 3 62
v 7 3 61
v 7 21 62
v 7 21 61
v 15 3 62
v 15 3 61
v 15 21 62
v 15 21 61
v 23 3 62
v 23 3 61
v 23 21 62
v 23 21 61
v 31 3 62
v 31 3 61
v 31 21 62
v 31 21 61
v 39 3 62
v 39 3 61
v 39 21 62
v 39 21 61
v 47 3 62
v 47 3 61
v 47 21 62
v 47 21 61
v 48 3 33
v 48 3 32
v 48 43 33
v 48 43 32
v 55 3 62
v 55 3 61
v 55 21 62
v 55 21 61
v -61 3 32
v -61 3 -63
v -61 80 32
v -61 80 -63
v -22 3 60
v -22 3 33
v -22 80 60
v -22 80 33
v -21 3 63
v -21 3 62
v -21 3 60
v -21 21 63
v -21 21 62
v -21 21 61
v -21 23 63
v -21 23 62
v -21 23 61
v -21 80 63
v -21 80 62
v -21 80 60
v -16 3 62
v -16 3 61
v -16 21 62
v -16 21 61
v -8 3 62
v -8 3 61
v -8 21 62
v -8 21 61
v 0 3 62
v 0 3 61
v 0 21 62
v 0 21 61
v 8 3 62
v 8 3 61
v 8 21 62
v 8 21 61
v 16 3 62
v 16 3 61
v 16 21 62
v 16 21 61
v 18 3 33
v 18 3 32
v 18 43 33
v 18 43 32
v 24 3 62
v 24 3 61
v 24 21 62
v 24 21 61
v 32 3 62
v 32 3 61
v 32 21 62
v 32 21 61
v 40 3 62
v 40 3 61
v 40 21 62
v 40 21 61
v 48 3 62
v 48 3 61
v 48 21 62
v 48 21 61
v 56 3 62
v 56 3 61
v 56 21 62
v 56 21 61
v 63 0 63
v 63 0 -63
v 63 3 63
v 63 3 33
v 63 3 32
v 63 3 -63
v 63 21 63
v 63 21 61
v 63 23 63
v 63 23 61
v 63 80 33
v 63 80 32
v -63 0 63
v -63 80 63
v -21 0 63
v -21 3 63
v -21 21 63
v -21 23 63
v -21 80 63
v 63 0 63
v 63 3 63
v 63 21 63
v 63 23 63
v -17 3 62
v -17 21 62
v -16 3 62
v -16 21 62
v -9 3 62
v -9 21 62
v -8 3 62
v -8 21 62
v -1 3 62
v -1 21 62
v 0 3 62
v 0 21 62
v 7 3 62
v 7 21 62
v 8 3 62
v 8 21 62
v 15 3 62
v 15 21 62
v 16 3 62
v 16 21 62
v 23 3 62
v 23 21 62
v 24 3 62
v 24 21 62
v 31 3 62
v 31 21 62
v 32 3 62
v 32 21 62
v 39 3 62
v 39 21 62
v 40 3 62
v 40 21 62
v 47 3 62
v 47 21 62
v 48 3 62
v 48 21 62
v 55 3 62
v 55 21 62
v 56 3 62
v 56 21 62
v -22 3 33
v -22 80 33
v 18 3 33
v 18 43 33
v 48 3 33
v 48 43 33
v 63 3 33
v 63 80 33
v -21 21 61
v -21 23 61
v -17 3 61
v -17 21 61
v -16 3 61
v -16 21 61
v -9 3 61
v -9 21 61
v -8 3 61
v -8 21 61
v -1 3 61
v -1 21 61
v 0 3 61
v 0 21 61
v 7 3 61
v 7 21 61
v 8 3 61
v 8 21 61
v 15 3 61
v 15 21 61
v 16 3 61
v 16 21 61
v 23 3 61
v 23 21 61
v 24 3 61
v 24 21 61
v 31 3 61
v 31 21 61
v 32 3 61
v 32 21 61
v 39 3 61
v 39 21 61
v 40 3 61
v 40 21 61
v 47 3 61
v 47 21 61
v 48 3 61
v 48 21 61
v 55 3 61
v 55 21 61
v 56 3 61
v 56 21 61
v 63 21 61
v 63 23 61
v -22 3 60
v -22 80 60
v -21 3 60
v -21 80 60
v -61 3 32
v -61 80 32
v 18 3 32
v 18 43 32
v 48 3 32
v 48 43 32
v 63 3 32
v 63 80 32
v -63 0 -63
v -63 80 -63
v -62 0 -63
v -62 80 -63
v -61 3 -63
v -61 80 -63
v 63 0 -63
v 63 3 -63
v -63 0 63
v -21 0 63
v 63 0 63
v -62 0 62
v -21 0 62
v -63 0 -63
v -62 0 -63
v 63 0 -63
v -21 21 63
v 63 21 63
v -21 21 62
v -17 21 62
v -16 21 62
v -9 21 62
v -8 21 62
v -1 21 62
v 0 21 62
v 7 21 62
v 8 21 62
v 15 21 62
v 16 21 62
v 23 21 62
v 24 21 62
v 31 21 62
v 32 21 62
v 39 21 62
v 40 21 62
v 47 21 62
v 48 21 62
v 55 21 62
v 56 21 62
v -21 21 61
v -17 21 61
v -16 21 61
v -9 21 61
v -8 21 61
v -1 21 61
v 0 21 61
v 7 21 61
v 8 21 61
v 15 21 61
v 16 21 61
v 23 21 61
v 24 21 61
v 31 21 61
v 32 21 61
v 39 21 61
v 40 21 61
v 47 21 61
v 48 21 61
v 55 21 61
v 56 21 61
v 63 21 61
v 18 43 33
v 48 43 33
v 18 43 32
v 48 43 32
v -21 3 63
v 63 3 63
v -21 3 62
v -17 3 62
v -16 3 62
v -9 3 62
v -8 3 62
v -1 3 62
v 0 3 62
v 7 3 62
v 8 3 62
v 15 3 62
v 16 3 62
v 23 3 62
v 24 3 62
v 31 3 62
v 32 3 62
v 39 3 62
v 40 3 62
v 47 3 62
v 48 3 62
v 55 3 62
v 56 3 62
v -17 3 61
v -16 3 61
v -9 3 61
v -8 3 61
v -1 3 61
v 0 3 61
v 7 3 61
v 8 3 61
v 15 3 61
v 16 3 61
v 23 3 61
v 24 3 61
v 31 3 61
v 32 3 61
v 39 3 61
v 40 3 61
v 47 3 61
v 48 3 61
v 55 3 61
v 56 3 61
v -22 3 60
v -21 3 60
v -22 3 33
v 18 3 33
v 48 3 33
v 63 3 33
v -61 3 32
v 18 3 32
v 48 3 32
v 63 3 32
v -61 3 -63
v 63 3 -63
v -21 23 63
v 63 23 63
v -21 23 62
v -21 23 61
v 63 23 61
v -63 80 63
v -21 80 63
v -62 80 62
v -21 80 62
v -22 80 60
v -21 80 60
v -22 80 33
v 63 80 33
v -61 80 32
v 63 80 32
v -63 80 -63
v -62 80 -63
v -61 80 -63

# faces
f 3/3/1 2/3/1 1/3/1
f 4/3/1 2/3/1 3/3/1
f 7/1/1 6/1/1 5/1/1
f 8/1/1 6/1/1 7/1/1
f 11/1/1 10/1/1 9/1/1
f 12/1/1 10/1/1 11/1/1
f 15/1/1 14/1/1 13/1/1
f 16/1/1 14/1/1 15/1/1
f 19/1/1 18/1/1 17/1/1
f 20/1/1 18/1/1 19/1/1
f 23/1/1 22/1/1 21/1/1
f 24/1/1 22/1/1 23/1/1
f 27/1/1 26/1/1 25/1/1
f 28/1/1 26/1/1 27/1/1
f 31/1/1 30/1/1 29/1/1
f 32/1/1 30/1/1 31/1/1
f 35/1/1 34/1/1 33/1/1
f 36/1/1 34/1/1 35/1/1
f 39/1/1 38/1/1 37/1/1
f 40/1/1 38/1/1 39/1/1
f 43/2/1 42/2/1 41/2/1
f 44/2/1 42/2/1 43/2/1
f 47/1/1 46/1/1 45/1/1
f 48/1/1 46/1/1 47/1/1
f 49/2/2 50/2/2 51/2/2
f 51/2/2 50/2/2 52/2/2
f 53/2/2 54/2/2 55/2/2
f 55/2/2 54/2/2 56/2/2
f 57/3/2 58/3/2 60/3/2
f 58/2/2 59/2/2 61/2/2
f 60/3/2 58/3/2 61/3/2
f 61/2/2 59/2/2 62/2/2
f 62/2/2 59/2/2 65/2/2
f 63/3/2 64/3/2 66/3/2
f 64/2/2 65/2/2 67/2/2
f 66/3/2 64/3/2 67/3/2
f 65/2/2 59/2/2 68/2/2
f 67/2/2 65/2/2 68/2/2
f 69/1/2 70/1/2 71/1/2
f 71/1/2 70/1/2 72/1/2
f 73/1/2 74/1/2 75/1/2
f 75/1/2 74/1/2 76/1/2
f 77/1/2 78/1/2 79/1/2
f 79/1/2 78/1/2 80/1/2
f 81/1/2 82/1/2 83/1/2
f 83/1/2 82/1/2 84/1/2
f 85/1/2 86/1/2 87/1/2
f 87/1/2 86/1/2 88/1/2
f 89/2/2 90/2/2 91/2/2
f 91/2/2 90/2/2 92/2/2
f 93/1/2 94/1/2 95/1/2
f 95/1/2 94/1/2 96/1/2
f 97/1/2 98/1/2 99/1/2
f 99/1/2 98/1/2 100/1/2
f 101/1/2 102/1/2 103/1/2
f 103/1/2 102/1/2 104/1/2
f 105/1/2 106/1/2 107/1/2
f 107/1/2 106/1/2 108/1/2
f 109/1/2 110/1/2 111/1/2
f 111/1/2 110/1/2 112/1/2
f 113/2/2 114/2/2 115/2/2
f 115/2/2 114/2/2 116/2/2
f 116/2/2 114/2/2 117/2/2
f 117/2/2 114/2/2 118/2/2
f 119/1/2 120/1/2 121/1/2
f 121/1/2 120/1/2 122/1/2
f 116/2/2 117/2/2 123/2/2
f 123/2/2 117/2/2 124/2/2
f 127/3/3 126/3/3 125/3/3
f 128/3/3 126/3/3 127/3/3
f 129/3/3 126/3/3 128/3/3
f 130/3/3 126/3/3 129/3/3
f 131/3/3 126/3/3 130/3/3
f 132/2/3 128/2/3 127/2/3
f 133/2/3 128/2/3 132/2/3
f 134/1/3 130/1/3 129/1/3
f 135/1/3 130/1/3 134/1/3
f 138/1/3 137/1/3 136/1/3
f 139/1/3 137/1/3 138/1/3
f 142/1/3 141/1/3 140/1/3
f 143/1/3 141/1/3 142/1/3
f 146/1/3 145/1/3 144/1/3
f 147/1/3 145/1/3 146/1/3
f 150/1/3 149/1/3 148/1/3
f 151/1/3 149/1/3 150/1/3
f 154/1/3 153/1/3 152/1/3
f 155/1/3 153/1/3 154/1/3
f 158/1/3 157/1/3 156/1/3
f 159/1/3 157/1/3 158/1/3
f 162/1/3 161/1/3 160/1/3
f 163/1/3 161/1/3 162/1/3
f 166/1/3 165/1/3 164/1/3
f 167/1/3 165/1/3 166/1/3
f 170/1/3 169/1/3 168/1/3
f 171/1/3 169/1/3 170/1/3
f 174/1/3 173/1/3 172/1/3
f 175/1/3 173/1/3 174/1/3
f 178/2/3 177/2/3 176/2/3
f 179/2/3 177/2/3 178/2/3
f 181/2/3 177/2/3 179/2/3
f 182/2/3 181/2/3 180/2/3
f 183/2/3 177/2/3 181/2/3
f 183/2/3 181/2/3 182/2/3
f 184/1/4 185/1/4 187/1/4
f 186/1/4 187/1/4 188/1/4
f 187/1/4 185/1/4 189/1/4
f 188/1/4 187/1/4 189/1/4
f 189/1/4 185/1/4 191/1/4
f 190/1/4 191/1/4 192/1/4
f 191/1/4 185/1/4 193/1/4
f 192/1/4 191/1/4 193/1/4
f 193/1/4 185/1/4 195/1/4
f 194/1/4 195/1/4 196/1/4
f 195/1/4 185/1/4 197/1/4
f 196/1/4 195/1/4 197/1/4
f 197/1/4 185/1/4 199/1/4
f 198/1/4 199/1/4 200/1/4
f 199/1/4 185/1/4 201/1/4
f 200/1/4 199/1/4 201/1/4
f 201/1/4 185/1/4 203/1/4
f 202/1/4 203/1/4 204/1/4
f 203/1/4 185/1/4 205/1/4
f 204/1/4 203/1/4 205/1/4
f 205/1/4 185/1/4 207/1/4
f 206/1/4 207/1/4 208/1/4
f 207/1/4 185/1/4 209/1/4
f 208/1/4 207/1/4 209/1/4
f 209/1/4 185/1/4 211/1/4
f 210/1/4 211/1/4 212/1/4
f 211/1/4 185/1/4 213/1/4
f 212/1/4 211/1/4 213/1/4
f 213/1/4 185/1/4 215/1/4
f 214/1/4 215/1/4 216/1/4
f 215/1/4 185/1/4 217/1/4
f 216/1/4 215/1/4 217/1/4
f 217/1/4 185/1/4 219/1/4
f 218/1/4 219/1/4 220/1/4
f 219/1/4 185/1/4 221/1/4
f 220/1/4 219/1/4 221/1/4
f 221/1/4 185/1/4 223/1/4
f 222/1/4 223/1/4 224/1/4
f 223/1/4 185/1/4 225/1/4
f 224/1/4 223/1/4 225/1/4
f 225/1/4 185/1/4 226/1/4
f 226/1/4 185/1/4 227/1/4
f 228/2/4 229/2/4 230/2/4
f 230/2/4 229/2/4 231/2/4
f 232/2/4 233/2/4 234/2/4
f 234/2/4 233/2/4 235/2/4
f 235/2/4 233/2/4 237/2/4
f 236/2/4 237/2/4 238/2/4
f 237/2/4 233/2/4 239/2/4
f 238/2/4 237/2/4 239/2/4
f 240/3/4 241/3/4 242/3/4
f 242/3/4 241/3/4 243/3/4
f 242/2/4 243/2/4 244/2/4
f 244/2/4 243/2/4 245/2/4
f 242/2/4 244/2/4 246/2/4
f 246/2/4 244/2/4 247/2/4
f 251/3/5 249/3/5 248/3/5
f 252/2/5 250/2/5 249/2/5
f 252/3/5 249/3/5 251/3/5
f 253/3/5 251/3/5 248/3/5
f 254/2/5 252/2/5 251/2/5
f 254/3/5 251/3/5 253/3/5
f 255/2/5 250/2/5 252/2/5
f 255/2/5 252/2/5 254/2/5
f 258/1/5 257/1/5 256/1/5
f 259/1/5 257/1/5 258/1/5
f 260/1/5 257/1/5 259/1/5
f 261/1/5 257/1/5 260/1/5
f 262/1/5 257/1/5 261/1/5
f 263/1/5 257/1/5 262/1/5
f 264/1/5 257/1/5 263/1/5
f 265/1/5 257/1/5 264/1/5
f 266/1/5 257/1/5 265/1/5
f 267/1/5 257/1/5 266/1/5
f 268/1/5 257/1/5 267/1/5
f 269/1/5 257/1/5 268/1/5
f 270/1/5 257/1/5 269/1/5
f 271/1/5 257/1/5 270/1/5
f 272/1/5 257/1/5 271/1/5
f 273/1/5 257/1/5 272/1/5
f 274/1/5 257/1/5 273/1/5
f 275/1/5 257/1/5 274/1/5
f 276/1/5 257/1/5 275/1/5
f 277/1/5 257/1/5 276/1/5
f 278/1/5 257/1/5 277/1/5
f 279/1/5 259/1/5 258/1/5
f 280/1/5 259/1/5 279/1/5
f 281/1/5 261/1/5 260/1/5
f 282/1/5 261/1/5 281/1/5
f 283/1/5 263/1/5 262/1/5
f 284/1/5 263/1/5 283/1/5
f 285/1/5 265/1/5 264/1/5
f 286/1/5 265/1/5 285/1/5
f 287/1/5 267/1/5 266/1/5
f 288/1/5 267/1/5 287/1/5
f 289/1/5 269/1/5 268/1/5
f 290/1/5 269/1/5 289/1/5
f 291/1/5 271/1/5 270/1/5
f 292/1/5 271/1/5 291/1/5
f 293/1/5 273/1/5 272/1/5
f 294/1/5 273/1/5 293/1/5
f 295/1/5 275/1/5 274/1/5
f 296/1/5 275/1/5 295/1/5
f 297/1/5 277/1/5 276/1/5
f 298/1/5 277/1/5 297/1/5
f 299/1/5 257/1/5 278/1/5
f 300/1/5 257/1/5 299/1/5
f 303/2/5 302/2/5 301/2/5
f 304/2/5 302/2/5 303/2/5
f 305/2/6 306/2/6 307/2/6
f 307/2/6 306/2/6 308/2/6
f 308/2/6 306/2/6 309/2/6
f 309/2/6 306/2/6 310/2/6
f 310/2/6 306/2/6 311/2/6
f 311/2/6 306/2/6 312/2/6
f 312/2/6 306/2/6 313/2/6
f 313/2/6 306/2/6 314/2/6
f 314/2/6 306/2/6 315/2/6
f 315/2/6 306/2/6 316/2/6
f 316/2/6 306/2/6 317/2/6
f 317/2/6 306/2/6 318/2/6
f 318/2/6 306/2/6 319/2/6
f 319/2/6 306/2/6 320/2/6
f 320/2/6 306/2/6 321/2/6
f 321/2/6 306/2/6 322/2/6
f 322/2/6 306/2/6 323/2/6
f 323/2/6 306/2/6 324/2/6
f 324/2/6 306/2/6 325/2/6
f 325/2/6 306/2/6 326/2/6
f 326/2/6 306/2/6 327/2/6
f 307/2/6 308/2/6 328/2/6
f 309/2/6 310/2/6 329/2/6
f 329/2/6 310/2/6 330/2/6
f 311/2/6 312/2/6 331/2/6
f 331/2/6 312/2/6 332/2/6
f 313/2/6 314/2/6 333/2/6
f 333/2/6 314/2/6 334/2/6
f 315/2/6 316/2/6 335/2/6
f 335/2/6 316/2/6 336/2/6
f 317/2/6 318/2/6 337/2/6
f 337/2/6 318/2/6 338/2/6
f 319/2/6 320/2/6 339/2/6
f 339/2/6 320/2/6 340/2/6
f 321/2/6 322/2/6 341/2/6
f 341/2/6 322/2/6 342/2/6
f 323/2/6 324/2/6 343/2/6
f 343/2/6 324/2/6 344/2/6
f 325/2/6 326/2/6 345/2/6
f 345/2/6 326/2/6 346/2/6
f 327/2/6 306/2/6 347/2/6
f 345/2/6 346/2/6 349/2/6
f 346/2/6 347/2/6 349/2/6
f 343/2/6 344/2/6 349/2/6
f 307/2/6 328/2/6 349/2/6
f 344/2/6 345/2/6 349/2/6
f 341/2/6 342/2/6 349/2/6
f 342/2/6 343/2/6 349/2/6
f 329/2/6 330/2/6 349/2/6
f 340/2/6 341/2/6 349/2/6
f 339/2/6 340/2/6 349/2/6
f 338/2/6 339/2/6 349/2/6
f 331/2/6 332/2/6 349/2/6
f 336/2/6 337/2/6 349/2/6
f 337/2/6 338/2/6 349/2/6
f 334/2/6 335/2/6 349/2/6
f 333/2/6 334/2/6 349/2/6
f 332/2/6 333/2/6 349/2/6
f 335/2/6 336/2/6 349/2/6
f 330/2/6 331/2/6 349/2/6
f 328/2/6 329/2/6 349/2/6
f 348/2/6 349/2/6 350/2/6
f 349/2/6 347/2/6 351/2/6
f 350/2/6 349/2/6 351/2/6
f 351/2/6 347/2/6 352/2/6
f 347/2/6 306/2/6 353/2/6
f 352/2/6 347/2/6 353/2/6
f 351/2/6 352/2/6 355/2/6
f 355/2/6 352/2/6 356/2/6
f 354/2/6 355/2/6 358/2/6
f 356/2/6 357/2/6 358/2/6
f 355/2/6 356/2/6 358/2/6
f 358/2/6 357/2/6 359/2/6
f 360/1/6 361/1/6 362/1/6
f 362/1/6 361/1/6 363/1/6
f 363/1/6 361/1/6 364/1/6
f 365/3/6 366/3/6 367/3/6
f 367/3/6 366/3/6 368/3/6
f 367/2/6 368/2/6 369/2/6
f 369/2/6 368/2/6 370/2/6
f 367/2/6 369/2/6 371/2/6
f 367/2/6 371/2/6 373/2/6
f 371/2/6 372/2/6 373/2/6
f 373/2/6 372/2/6 374/2/6
f 365/3/6 367/3/6 375/3/6
f 367/2/6 373/2/6 376/2/6
f 375/3/6 367/3/6 376/3/6
f 376/2/6 373/2/6 377/2/6
