# MagicaVoxel @ Ephtracy

# group
g 4x2 third-2

# material
mtllib 4x2 third-2.mtl
usemtl palette

# normals
vn -1 0 0
vn 1 0 0
vn 0 0 1
vn 0 0 -1
vn 0 -1 0
vn 0 1 0

# texcoords
vt 0.396484 0.5
vt 0.966797 0.5
vt 0.986328 0.5

# verts
v -63 0 63
v -63 0 -63
v -63 3 -29
v -63 3 -59
v -63 43 -29
v -63 43 -59
v -63 80 63
v -63 80 -63
v -61 32 63
v -61 32 7
v -61 39 63
v -61 39 28
v -61 39 7
v -61 39 -4
v -61 46 28
v -61 46 17
v -61 46 -4
v -61 46 -14
v -61 53 17
v -61 53 7
v -61 53 -14
v -61 53 -25
v -61 60 7
v -61 60 -4
v -61 60 -25
v -61 60 -36
v -61 67 -4
v -61 67 -14
v -61 67 -36
v -61 67 -61
v -61 74 -14
v -61 74 -25
v -61 80 -25
v -61 80 -61
v -23 0 63
v -23 0 -25
v -23 3 63
v -23 3 -25
v -22 3 63
v -22 3 25
v -22 32 63
v -22 32 25
v 24 3 25
v 24 3 4
v 24 8 14
v 24 8 4
v 24 15 25
v 24 15 14
v 61 3 4
v 61 3 -61
v 61 8 14
v 61 8 4
v 61 15 25
v 61 15 14
v 61 22 63
v 61 22 25
v 61 80 63
v 61 80 -61
v -62 0 63
v -62 0 -25
v -62 3 -25
v -62 3 -29
v -62 3 -59
v -62 3 -61
v -62 43 -29
v -62 43 -59
v -62 80 63
v -62 80 -61
v -22 32 25
v -22 32 7
v -22 39 28
v -22 39 25
v -22 39 7
v -22 39 -4
v -22 46 28
v -22 46 17
v -22 46 -4
v -22 46 -14
v -22 53 17
v -22 53 7
v -22 53 -14
v -22 53 -25
v -22 60 7
v -22 60 -4
v -22 60 -25
v -22 60 -36
v -22 67 -4
v -22 67 -14
v -22 67 -36
v -22 67 -61
v -22 74 -14
v -22 74 -25
v -22 80 -25
v -22 80 -61
v 10 32 63
v 10 32 25
v 10 39 63
v 10 39 25
v 21 25 63
v 21 25 25
v 21 32 63
v 21 32 25
v 31 22 63
v 31 22 25
v 31 25 63
v 31 25 25
v 63 0 63
v 63 0 -63
v 63 80 63
v 63 80 -63
v -63 0 63
v -63 80 63
v -62 0 63
v -62 80 63
v -61 32 63
v -61 39 63
v -23 0 63
v -23 3 63
v -22 3 63
v -22 32 63
v 10 32 63
v 10 39 63
v 21 25 63
v 21 32 63
v 31 22 63
v 31 25 63
v 61 3 63
v 61 22 63
v 61 80 63
v 62 0 63
v 62 80 63
v 63 0 63
v 63 80 63
v -61 39 28
v -61 46 28
v -22 39 28
v -22 46 28
v -61 46 17
v -61 53 17
v -22 46 17
v -22 53 17
v -61 53 7
v -61 60 7
v -22 53 7
v -22 60 7
v -61 60 -4
v -61 67 -4
v -22 60 -4
v -22 67 -4
v -61 67 -14
v -61 74 -14
v -22 67 -14
v -22 74 -14
v -62 0 -25
v -62 3 -25
v -61 74 -25
v -61 80 -25
v -23 0 -25
v -23 3 -25
v -22 74 -25
v -22 80 -25
v -63 3 -59
v -63 43 -59
v -62 3 -59
v -62 43 -59
v -62 3 -61
v -62 80 -61
v -61 67 -61
v -61 80 -61
v -22 67 -61
v -22 80 -61
v 61 3 -61
v 61 80 -61
v -22 3 25
v -22 32 25
v -22 39 25
v 10 32 25
v 10 39 25
v 21 25 25
v 21 32 25
v 24 3 25
v 24 15 25
v 31 22 25
v 31 25 25
v 61 15 25
v 61 22 25
v 24 8 14
v 24 15 14
v 61 8 14
v 61 15 14
v -61 32 7
v -61 39 7
v -22 32 7
v -22 39 7
v 24 3 4
v 24 8 4
v 61 3 4
v 61 8 4
v -61 39 -4
v -61 46 -4
v -22 39 -4
v -22 46 -4
v -61 46 -14
v -61 53 -14
v -22 46 -14
v -22 53 -14
v -61 53 -25
v -61 60 -25
v -22 53 -25
v -22 60 -25
v -63 3 -29
v -63 43 -29
v -62 3 -29
v -62 43 -29
v -61 60 -36
v -61 67 -36
v -22 60 -36
v -22 67 -36
v -63 0 -63
v -63 80 -63
v 62 0 -63
v 62 80 -63
v 63 0 -63
v 63 80 -63
v -63 0 63
v -62 0 63
v -23 0 63
v 62 0 63
v 63 0 63
v -22 0 62
v 62 0 62
v -22 0 25
v 24 0 25
v 24 0 4
v 62 0 4
v -62 0 -25
v -23 0 -25
v -63 0 -63
v 62 0 -63
v 63 0 -63
v -61 32 63
v -22 32 63
v -22 32 25
v -61 32 7
v -22 32 7
v -61 39 7
v -22 39 7
v -61 39 -4
v -22 39 -4
v -63 43 -29
v -62 43 -29
v -63 43 -59
v -62 43 -59
v -61 46 -4
v -22 46 -4
v -61 46 -14
v -22 46 -14
v -61 53 -14
v -22 53 -14
v -61 53 -25
v -22 53 -25
v -61 60 -25
v -22 60 -25
v -61 60 -36
v -22 60 -36
v -61 67 -36
v -22 67 -36
v -61 67 -61
v -22 67 -61
v -23 3 63
v -22 3 63
v -22 3 25
v 24 3 25
v 24 3 4
v 61 3 4
v -62 3 -25
v -23 3 -25
v -63 3 -29
v -62 3 -29
v -63 3 -59
v -62 3 -59
v -62 3 -61
v 61 3 -61
v 24 8 14
v 61 8 14
v 24 8 4
v 61 8 4
v 24 15 25
v 61 15 25
v 24 15 14
v 61 15 14
v 31 22 63
v 61 22 63
v 31 22 25
v 61 22 25
v 21 25 63
v 31 25 63
v 21 25 25
v 31 25 25
v 10 32 63
v 21 32 63
v 10 32 25
v 21 32 25
v -61 39 63
v 10 39 63
v -61 39 28
v -22 39 28
v -22 39 25
v 10 39 25
v -61 46 28
v -22 46 28
v -61 46 17
v -22 46 17
v -61 53 17
v -22 53 17
v -61 53 7
v -22 53 7
v -61 60 7
v -22 60 7
v -61 60 -4
v -22 60 -4
v -61 67 -4
v -22 67 -4
v -61 67 -14
v -22 67 -14
v -61 74 -14
v -22 74 -14
v -61 74 -25
v -22 74 -25
v -63 80 63
v -62 80 63
v 61 80 63
v 62 80 63
v 63 80 63
v -61 80 -25
v -22 80 -25
v -62 80 -61
v -61 80 -61
v -22 80 -61
v 61 80 -61
v -63 80 -63
v 62 80 -63
v 63 80 -63

# faces
f 3/2/1 2/2/1 1/2/1
f 4/2/1 2/2/1 3/2/1
f 5/2/1 3/2/1 1/2/1
f 6/2/1 2/2/1 4/2/1
f 7/2/1 5/2/1 1/2/1
f 7/2/1 6/2/1 5/2/1
f 8/2/1 2/2/1 6/2/1
f 8/2/1 6/2/1 7/2/1
f 11/1/1 10/1/1 9/1/1
f 12/1/1 10/1/1 11/1/1
f 13/1/1 10/1/1 12/1/1
f 15/1/1 14/1/1 13/1/1
f 15/1/1 13/1/1 12/1/1
f 16/1/1 14/1/1 15/1/1
f 17/1/1 14/1/1 16/1/1
f 19/1/1 18/1/1 17/1/1
f 19/1/1 17/1/1 16/1/1
f 20/1/1 18/1/1 19/1/1
f 21/1/1 18/1/1 20/1/1
f 23/1/1 22/1/1 21/1/1
f 23/1/1 21/1/1 20/1/1
f 24/1/1 22/1/1 23/1/1
f 25/1/1 22/1/1 24/1/1
f 27/1/1 26/1/1 25/1/1
f 27/1/1 25/1/1 24/1/1
f 28/1/1 26/1/1 27/1/1
f 29/1/1 26/1/1 28/1/1
f 31/1/1 30/1/1 29/1/1
f 31/1/1 29/1/1 28/1/1
f 32/1/1 30/1/1 31/1/1
f 33/1/1 30/1/1 32/1/1
f 34/1/1 30/1/1 33/1/1
f 37/2/1 36/2/1 35/2/1
f 38/2/1 36/2/1 37/2/1
f 41/1/1 40/1/1 39/1/1
f 42/1/1 40/1/1 41/1/1
f 45/1/1 44/1/1 43/1/1
f 46/1/1 44/1/1 45/1/1
f 47/1/1 45/1/1 43/1/1
f 48/1/1 45/1/1 47/1/1
f 52/2/1 50/2/1 49/2/1
f 54/2/1 52/2/1 51/2/1
f 56/2/1 54/2/1 53/2/1
f 57/2/1 56/2/1 55/2/1
f 58/2/1 50/2/1 52/2/1
f 58/2/1 56/2/1 57/2/1
f 58/2/1 52/2/1 54/2/1
f 58/2/1 54/2/1 56/2/1
f 59/2/2 60/2/2 61/2/2
f 61/2/2 62/2/2 65/2/2
f 63/2/2 64/2/2 66/2/2
f 59/2/2 61/2/2 67/2/2
f 65/2/2 66/2/2 67/2/2
f 61/2/2 65/2/2 67/2/2
f 66/2/2 64/2/2 68/2/2
f 67/2/2 66/2/2 68/2/2
f 69/1/2 70/1/2 72/1/2
f 72/1/2 70/1/2 73/1/2
f 71/1/2 72/1/2 75/1/2
f 73/1/2 74/1/2 75/1/2
f 72/1/2 73/1/2 75/1/2
f 75/1/2 74/1/2 76/1/2
f 76/1/2 74/1/2 77/1/2
f 77/1/2 78/1/2 79/1/2
f 76/1/2 77/1/2 79/1/2
f 79/1/2 78/1/2 80/1/2
f 80/1/2 78/1/2 81/1/2
f 81/1/2 82/1/2 83/1/2
f 80/1/2 81/1/2 83/1/2
f 83/1/2 82/1/2 84/1/2
f 84/1/2 82/1/2 85/1/2
f 85/1/2 86/1/2 87/1/2
f 84/1/2 85/1/2 87/1/2
f 87/1/2 86/1/2 88/1/2
f 88/1/2 86/1/2 89/1/2
f 89/1/2 90/1/2 91/1/2
f 88/1/2 89/1/2 91/1/2
f 91/1/2 90/1/2 92/1/2
f 92/1/2 90/1/2 93/1/2
f 93/1/2 90/1/2 94/1/2
f 95/1/2 96/1/2 97/1/2
f 97/1/2 96/1/2 98/1/2
f 99/1/2 100/1/2 101/1/2
f 101/1/2 100/1/2 102/1/2
f 103/1/2 104/1/2 105/1/2
f 105/1/2 104/1/2 106/1/2
f 107/3/2 108/3/2 109/3/2
f 109/3/2 108/3/2 110/3/2
f 113/2/3 112/2/3 111/2/3
f 114/2/3 112/2/3 113/2/3
f 119/2/3 118/2/3 117/2/3
f 120/1/3 116/1/3 115/1/3
f 121/1/3 116/1/3 120/1/3
f 121/1/3 120/1/3 119/1/3
f 122/1/3 116/1/3 121/1/3
f 123/1/3 121/1/3 119/1/3
f 124/1/3 121/1/3 123/1/3
f 125/1/3 123/1/3 119/1/3
f 126/1/3 123/1/3 125/1/3
f 127/2/3 119/2/3 117/2/3
f 127/1/3 125/1/3 119/1/3
f 128/1/3 125/1/3 127/1/3
f 130/2/3 128/2/3 127/2/3
f 130/2/3 129/2/3 128/2/3
f 130/2/3 127/2/3 117/2/3
f 131/2/3 129/2/3 130/2/3
f 132/3/3 131/3/3 130/3/3
f 133/3/3 131/3/3 132/3/3
f 136/1/3 135/1/3 134/1/3
f 137/1/3 135/1/3 136/1/3
f 140/1/3 139/1/3 138/1/3
f 141/1/3 139/1/3 140/1/3
f 144/1/3 143/1/3 142/1/3
f 145/1/3 143/1/3 144/1/3
f 148/1/3 147/1/3 146/1/3
f 149/1/3 147/1/3 148/1/3
f 152/1/3 151/1/3 150/1/3
f 153/1/3 151/1/3 152/1/3
f 158/2/3 155/2/3 154/2/3
f 159/2/3 155/2/3 158/2/3
f 160/1/3 157/1/3 156/1/3
f 161/1/3 157/1/3 160/1/3
f 164/2/3 163/2/3 162/2/3
f 165/2/3 163/2/3 164/2/3
f 168/2/3 167/2/3 166/2/3
f 169/2/3 167/2/3 168/2/3
f 170/2/3 168/2/3 166/2/3
f 172/2/3 170/2/3 166/2/3
f 172/2/3 171/2/3 170/2/3
f 173/2/3 171/2/3 172/2/3
f 174/1/4 175/1/4 177/1/4
f 175/1/4 176/1/4 177/1/4
f 177/1/4 176/1/4 178/1/4
f 174/1/4 177/1/4 179/1/4
f 179/1/4 177/1/4 180/1/4
f 174/1/4 179/1/4 181/1/4
f 181/1/4 179/1/4 182/1/4
f 182/1/4 179/1/4 183/1/4
f 183/1/4 179/1/4 184/1/4
f 182/1/4 183/1/4 185/1/4
f 185/1/4 183/1/4 186/1/4
f 187/1/4 188/1/4 189/1/4
f 189/1/4 188/1/4 190/1/4
f 191/1/4 192/1/4 193/1/4
f 193/1/4 192/1/4 194/1/4
f 195/1/4 196/1/4 197/1/4
f 197/1/4 196/1/4 198/1/4
f 199/1/4 200/1/4 201/1/4
f 201/1/4 200/1/4 202/1/4
f 203/1/4 204/1/4 205/1/4
f 205/1/4 204/1/4 206/1/4
f 207/1/4 208/1/4 209/1/4
f 209/1/4 208/1/4 210/1/4
f 211/2/4 212/2/4 213/2/4
f 213/2/4 212/2/4 214/2/4
f 215/1/4 216/1/4 217/1/4
f 217/1/4 216/1/4 218/1/4
f 219/2/4 220/2/4 221/2/4
f 221/2/4 220/2/4 222/2/4
f 221/3/4 222/3/4 223/3/4
f 223/3/4 222/3/4 224/3/4
f 230/2/5 228/2/5 227/2/5
f 231/3/5 229/3/5 228/3/5
f 231/2/5 228/2/5 230/2/5
f 232/2/5 230/2/5 227/2/5
f 232/1/5 231/1/5 230/1/5
f 233/1/5 231/1/5 232/1/5
f 234/2/5 233/2/5 232/2/5
f 234/1/5 231/1/5 233/1/5
f 235/3/5 229/3/5 231/3/5
f 235/1/5 231/1/5 234/1/5
f 236/2/5 226/2/5 225/2/5
f 237/2/5 234/2/5 232/2/5
f 237/2/5 232/2/5 227/2/5
f 237/2/5 235/2/5 234/2/5
f 238/2/5 236/2/5 225/2/5
f 238/2/5 237/2/5 236/2/5
f 239/3/5 229/3/5 235/3/5
f 239/2/5 237/2/5 238/2/5
f 239/2/5 235/2/5 237/2/5
f 240/3/5 229/3/5 239/3/5
f 243/1/5 242/1/5 241/1/5
f 244/1/5 243/1/5 241/1/5
f 245/1/5 243/1/5 244/1/5
f 248/1/5 247/1/5 246/1/5
f 249/1/5 247/1/5 248/1/5
f 252/2/5 251/2/5 250/2/5
f 253/2/5 251/2/5 252/2/5
f 256/1/5 255/1/5 254/1/5
f 257/1/5 255/1/5 256/1/5
f 260/1/5 259/1/5 258/1/5
f 261/1/5 259/1/5 260/1/5
f 264/1/5 263/1/5 262/1/5
f 265/1/5 263/1/5 264/1/5
f 268/1/5 267/1/5 266/1/5
f 269/1/5 267/1/5 268/1/5
f 270/2/6 271/2/6 272/2/6
f 272/2/6 273/2/6 274/2/6
f 270/2/6 272/2/6 277/2/6
f 274/2/6 275/2/6 277/2/6
f 272/2/6 274/2/6 277/2/6
f 276/2/6 277/2/6 279/2/6
f 278/2/6 279/2/6 280/2/6
f 279/2/6 277/2/6 281/2/6
f 280/2/6 279/2/6 281/2/6
f 281/2/6 277/2/6 282/2/6
f 277/2/6 275/2/6 283/2/6
f 282/2/6 277/2/6 283/2/6
f 284/1/6 285/1/6 286/1/6
f 286/1/6 285/1/6 287/1/6
f 288/1/6 289/1/6 290/1/6
f 290/1/6 289/1/6 291/1/6
f 292/1/6 293/1/6 294/1/6
f 294/1/6 293/1/6 295/1/6
f 296/1/6 297/1/6 298/1/6
f 298/1/6 297/1/6 299/1/6
f 300/1/6 301/1/6 302/1/6
f 302/1/6 301/1/6 303/1/6
f 304/1/6 305/1/6 306/1/6
f 306/1/6 305/1/6 307/1/6
f 307/1/6 305/1/6 308/1/6
f 308/1/6 305/1/6 309/1/6
f 310/1/6 311/1/6 312/1/6
f 312/1/6 311/1/6 313/1/6
f 314/1/6 315/1/6 316/1/6
f 316/1/6 315/1/6 317/1/6
f 318/1/6 319/1/6 320/1/6
f 320/1/6 319/1/6 321/1/6
f 322/1/6 323/1/6 324/1/6
f 324/1/6 323/1/6 325/1/6
f 326/1/6 327/1/6 328/1/6
f 328/1/6 327/1/6 329/1/6
f 330/2/6 331/2/6 337/2/6
f 335/1/6 336/1/6 338/1/6
f 338/1/6 336/1/6 339/1/6
f 332/2/6 333/2/6 340/2/6
f 330/2/6 337/2/6 341/2/6
f 339/2/6 340/2/6 341/2/6
f 338/2/6 339/2/6 341/2/6
f 337/2/6 338/2/6 341/2/6
f 340/2/6 333/2/6 342/2/6
f 341/2/6 340/2/6 342/2/6
f 333/3/6 334/3/6 342/3/6
f 342/3/6 334/3/6 343/3/6
