# MagicaVoxel @ Ephtracy

# group
g 2x2 second-0

# material
mtllib 2x2 second-0.mtl
usemtl palette

# normals
vn -1 0 0
vn 1 0 0
vn 0 0 1
vn 0 0 -1
vn 0 -1 0
vn 0 1 0

# texcoords
vt 0.966797 0.5
vt 0.974609 0.5

# verts
v -63 0 63
v -63 0 -63
v -63 80 63
v -63 80 -63
v -2 1 -30
v -2 1 -32
v -2 34 -30
v -2 34 -32
v 62 1 63
v 62 1 -30
v 62 34 -30
v 62 34 -32
v 62 80 63
v 62 80 -32
v -61 1 63
v -61 1 -61
v -61 80 63
v -61 80 -61
v -2 0 -32
v -2 0 -61
v -2 1 -32
v -2 1 -61
v 63 0 63
v 63 0 -32
v 63 0 -61
v 63 0 -63
v 63 80 63
v 63 80 -32
v 63 80 -61
v 63 80 -63
v -63 0 63
v -63 80 63
v -61 1 63
v -61 80 63
v 62 1 63
v 62 80 63
v 63 0 63
v 63 80 63
v -2 1 -30
v -2 34 -30
v 62 1 -30
v 62 34 -30
v -61 1 -61
v -61 80 -61
v -2 0 -61
v -2 1 -61
v 63 0 -61
v 63 80 -61
v -2 0 -32
v -2 1 -32
v -2 34 -32
v 62 1 -32
v 62 34 -32
v 62 80 -32
v 63 0 -32
v 63 80 -32
v -63 0 -63
v -63 80 -63
v 63 0 -63
v 63 80 -63
v -63 0 63
v 63 0 63
v -2 0 -32
v 63 0 -32
v -2 0 -61
v 63 0 -61
v -63 0 -63
v 63 0 -63
v -61 1 63
v 62 1 63
v -2 1 -30
v 62 1 -30
v -2 1 -32
v -61 1 -61
v -2 1 -61
v -2 34 -30
v 62 34 -30
v -2 34 -32
v 62 34 -32
v -63 80 63
v -61 80 63
v 62 80 63
v 63 80 63
v 62 80 -32
v 63 80 -32
v -61 80 -61
v 63 80 -61
v -63 80 -63
v 63 80 -63

# faces
f 3/1/1 2/1/1 1/1/1
f 4/1/1 2/1/1 3/1/1
f 7/2/1 6/2/1 5/2/1
f 8/2/1 6/2/1 7/2/1
f 11/1/1 10/1/1 9/1/1
f 13/1/1 11/1/1 9/1/1
f 13/1/1 12/1/1 11/1/1
f 14/1/1 12/1/1 13/1/1
f 15/1/2 16/1/2 17/1/2
f 17/1/2 16/1/2 18/1/2
f 19/1/2 20/1/2 21/1/2
f 21/1/2 20/1/2 22/1/2
f 23/1/2 24/1/2 27/1/2
f 27/1/2 24/1/2 28/1/2
f 25/1/2 26/1/2 29/1/2
f 29/1/2 26/1/2 30/1/2
f 33/1/3 32/1/3 31/1/3
f 34/1/3 32/1/3 33/1/3
f 35/1/3 33/1/3 31/1/3
f 37/1/3 35/1/3 31/1/3
f 37/1/3 36/1/3 35/1/3
f 38/1/3 36/1/3 37/1/3
f 41/2/3 40/2/3 39/2/3
f 42/2/3 40/2/3 41/2/3
f 46/1/3 44/1/3 43/1/3
f 47/1/3 46/1/3 45/1/3
f 48/1/3 44/1/3 46/1/3
f 48/1/3 46/1/3 47/1/3
f 49/1/4 50/1/4 52/1/4
f 50/2/4 51/2/4 52/2/4
f 52/2/4 51/2/4 53/2/4
f 49/1/4 52/1/4 55/1/4
f 53/1/4 54/1/4 55/1/4
f 52/1/4 53/1/4 55/1/4
f 55/1/4 54/1/4 56/1/4
f 57/1/4 58/1/4 59/1/4
f 59/1/4 58/1/4 60/1/4
f 63/1/5 62/1/5 61/1/5
f 64/1/5 62/1/5 63/1/5
f 65/1/5 63/1/5 61/1/5
f 67/1/5 65/1/5 61/1/5
f 67/1/5 66/1/5 65/1/5
f 68/1/5 66/1/5 67/1/5
f 69/1/6 70/1/6 71/1/6
f 71/1/6 70/1/6 72/1/6
f 69/1/6 71/1/6 73/1/6
f 69/1/6 73/1/6 74/1/6
f 74/1/6 73/1/6 75/1/6
f 76/2/6 77/2/6 78/2/6
f 78/2/6 77/2/6 79/2/6
f 82/1/6 83/1/6 84/1/6
f 84/1/6 83/1/6 85/1/6
f 80/1/6 81/1/6 86/1/6
f 80/1/6 86/1/6 88/1/6
f 86/1/6 87/1/6 88/1/6
f 88/1/6 87/1/6 89/1/6
