# MagicaVoxel @ Ephtracy

# group
g 2x2 second-1

# material
mtllib 2x2 second-1.mtl
usemtl palette

# normals
vn -1 0 0
vn 1 0 0
vn 0 0 1
vn 0 0 -1
vn 0 -1 0
vn 0 1 0

# texcoords
vt 0.966797 0.5
vt 0.982422 0.5

# verts
v -63 0 63
v -63 0 -63
v -63 1 63
v -63 1 32
v -63 80 32
v -63 80 -63
v 18 27 32
v 18 27 31
v 18 57 32
v 18 57 31
v 38 34 33
v 38 34 32
v 38 61 33
v 38 61 32
v 40 61 33
v 40 61 32
v 40 63 33
v 40 63 32
v 54 50 33
v 54 50 32
v 54 58 33
v 54 58 32
v -61 1 31
v -61 1 -63
v -61 80 31
v -61 80 -63
v -52 27 32
v -52 27 31
v -52 57 32
v -52 57 31
v 43 34 33
v 43 34 32
v 43 45 33
v 43 45 32
v 43 50 33
v 43 50 32
v 43 58 33
v 43 58 32
v 56 45 33
v 56 45 32
v 56 48 33
v 56 48 32
v 57 61 33
v 57 61 32
v 57 63 33
v 57 63 32
v 59 48 33
v 59 48 32
v 59 61 33
v 59 61 32
v 63 0 63
v 63 0 -63
v 63 1 63
v 63 1 32
v 63 1 31
v 63 1 -63
v 63 80 32
v 63 80 31
v -63 0 63
v -63 1 63
v 63 0 63
v 63 1 63
v 38 34 33
v 38 61 33
v 40 61 33
v 40 63 33
v 43 34 33
v 43 45 33
v 43 50 33
v 43 58 33
v 54 50 33
v 54 58 33
v 56 45 33
v 56 48 33
v 57 61 33
v 57 63 33
v 59 48 33
v 59 61 33
v -63 1 32
v -63 80 32
v -52 27 32
v -52 57 32
v 18 27 32
v 18 57 32
v 38 34 32
v 38 61 32
v 40 61 32
v 40 63 32
v 43 34 32
v 43 45 32
v 43 50 32
v 43 58 32
v 54 50 32
v 54 58 32
v 56 45 32
v 56 48 32
v 57 61 32
v 57 63 32
v 59 48 32
v 59 61 32
v 63 1 32
v 63 80 32
v -61 1 31
v -61 80 31
v -52 27 31
v -52 57 31
v 18 27 31
v 18 57 31
v 63 1 31
v 63 80 31
v -63 0 -63
v -63 80 -63
v -61 1 -63
v -61 80 -63
v 63 0 -63
v 63 1 -63
v -63 0 63
v 63 0 63
v -63 0 -63
v 63 0 -63
v 38 34 33
v 43 34 33
v 38 34 32
v 43 34 32
v 43 45 33
v 56 45 33
v 43 45 32
v 56 45 32
v 56 48 33
v 59 48 33
v 56 48 32
v 59 48 32
v -52 57 32
v 18 57 32
v -52 57 31
v 18 57 31
v 43 58 33
v 54 58 33
v 43 58 32
v 54 58 32
v -63 1 63
v 63 1 63
v -63 1 32
v 63 1 32
v -61 1 31
v 63 1 31
v -61 1 -63
v 63 1 -63
v -52 27 32
v 18 27 32
v -52 27 31
v 18 27 31
v 43 50 33
v 54 50 33
v 43 50 32
v 54 50 32
v 38 61 33
v 40 61 33
v 57 61 33
v 59 61 33
v 38 61 32
v 40 61 32
v 57 61 32
v 59 61 32
v 40 63 33
v 57 63 33
v 40 63 32
v 57 63 32
v -63 80 32
v 63 80 32
v -61 80 31
v 63 80 31
v -63 80 -63
v -61 80 -63

# faces
f 3/1/1 2/1/1 1/1/1
f 4/1/1 2/1/1 3/1/1
f 5/1/1 2/1/1 4/1/1
f 6/1/1 2/1/1 5/1/1
f 9/1/1 8/1/1 7/1/1
f 10/1/1 8/1/1 9/1/1
f 13/2/1 12/2/1 11/2/1
f 14/2/1 12/2/1 13/2/1
f 17/2/1 16/2/1 15/2/1
f 18/2/1 16/2/1 17/2/1
f 21/2/1 20/2/1 19/2/1
f 22/2/1 20/2/1 21/2/1
f 23/1/2 24/1/2 25/1/2
f 25/1/2 24/1/2 26/1/2
f 27/1/2 28/1/2 29/1/2
f 29/1/2 28/1/2 30/1/2
f 31/2/2 32/2/2 33/2/2
f 33/2/2 32/2/2 34/2/2
f 35/2/2 36/2/2 37/2/2
f 37/2/2 36/2/2 38/2/2
f 39/2/2 40/2/2 41/2/2
f 41/2/2 40/2/2 42/2/2
f 43/2/2 44/2/2 45/2/2
f 45/2/2 44/2/2 46/2/2
f 47/2/2 48/2/2 49/2/2
f 49/2/2 48/2/2 50/2/2
f 51/1/2 52/1/2 53/1/2
f 53/1/2 52/1/2 54/1/2
f 54/1/2 52/1/2 55/1/2
f 55/1/2 52/1/2 56/1/2
f 54/1/2 55/1/2 57/1/2
f 57/1/2 55/1/2 58/1/2
f 61/1/3 60/1/3 59/1/3
f 62/1/3 60/1/3 61/1/3
f 65/2/3 64/2/3 63/2/3
f 67/2/3 65/2/3 63/2/3
f 67/2/3 66/2/3 65/2/3
f 68/2/3 66/2/3 67/2/3
f 69/2/3 66/2/3 68/2/3
f 70/2/3 66/2/3 69/2/3
f 71/2/3 69/2/3 68/2/3
f 72/2/3 66/2/3 70/2/3
f 73/2/3 71/2/3 68/2/3
f 73/2/3 72/2/3 71/2/3
f 74/2/3 72/2/3 73/2/3
f 75/2/3 66/2/3 72/2/3
f 75/2/3 72/2/3 74/2/3
f 76/2/3 66/2/3 75/2/3
f 77/2/3 75/2/3 74/2/3
f 78/2/3 75/2/3 77/2/3
f 81/1/3 80/1/3 79/1/3
f 82/1/3 80/1/3 81/1/3
f 83/1/3 81/1/3 79/1/3
f 84/1/3 80/1/3 82/1/3
f 85/1/3 84/1/3 83/1/3
f 86/1/3 80/1/3 84/1/3
f 86/1/3 84/1/3 85/1/3
f 87/1/3 80/1/3 86/1/3
f 88/1/3 80/1/3 87/1/3
f 89/1/3 85/1/3 83/1/3
f 93/1/3 92/1/3 91/1/3
f 94/1/3 92/1/3 93/1/3
f 95/1/3 90/1/3 89/1/3
f 98/1/3 80/1/3 88/1/3
f 99/1/3 96/1/3 95/1/3
f 100/1/3 98/1/3 97/1/3
f 101/1/3 83/1/3 79/1/3
f 101/1/3 100/1/3 99/1/3
f 101/1/3 95/1/3 89/1/3
f 101/1/3 89/1/3 83/1/3
f 101/1/3 99/1/3 95/1/3
f 102/1/3 98/1/3 100/1/3
f 102/1/3 100/1/3 101/1/3
f 102/1/3 80/1/3 98/1/3
f 103/1/4 104/1/4 105/1/4
f 105/1/4 104/1/4 106/1/4
f 103/1/4 105/1/4 107/1/4
f 106/1/4 104/1/4 108/1/4
f 103/1/4 107/1/4 109/1/4
f 107/1/4 108/1/4 109/1/4
f 108/1/4 104/1/4 110/1/4
f 109/1/4 108/1/4 110/1/4
f 111/1/4 112/1/4 113/1/4
f 113/1/4 112/1/4 114/1/4
f 111/1/4 113/1/4 115/1/4
f 115/1/4 113/1/4 116/1/4
f 119/1/5 118/1/5 117/1/5
f 120/1/5 118/1/5 119/1/5
f 123/2/5 122/2/5 121/2/5
f 124/2/5 122/2/5 123/2/5
f 127/2/5 126/2/5 125/2/5
f 128/2/5 126/2/5 127/2/5
f 131/2/5 130/2/5 129/2/5
f 132/2/5 130/2/5 131/2/5
f 135/1/5 134/1/5 133/1/5
f 136/1/5 134/1/5 135/1/5
f 139/2/5 138/2/5 137/2/5
f 140/2/5 138/2/5 139/2/5
f 141/1/6 142/1/6 143/1/6
f 143/1/6 142/1/6 144/1/6
f 145/1/6 146/1/6 147/1/6
f 147/1/6 146/1/6 148/1/6
f 149/1/6 150/1/6 151/1/6
f 151/1/6 150/1/6 152/1/6
f 153/2/6 154/2/6 155/2/6
f 155/2/6 154/2/6 156/2/6
f 157/2/6 158/2/6 161/2/6
f 161/2/6 158/2/6 162/2/6
f 159/2/6 160/2/6 163/2/6
f 163/2/6 160/2/6 164/2/6
f 165/2/6 166/2/6 167/2/6
f 167/2/6 166/2/6 168/2/6
f 169/1/6 170/1/6 171/1/6
f 171/1/6 170/1/6 172/1/6
f 169/1/6 171/1/6 173/1/6
f 173/1/6 171/1/6 174/1/6
