# MagicaVoxel @ Ephtracy

# group
g 2x2 first 1(2)-1

# material
mtllib 2x2 first 1(2)-1.mtl
usemtl palette

# normals
vn -1 0 0
vn 1 0 0
vn 0 0 1
vn 0 0 -1
vn 0 -1 0
vn 0 1 0

# texcoords
vt 0.861328 0.5
vt 0.865234 0.5
vt 0.869141 0.5
vt 0.966797 0.5
vt 0.974609 0.5

# verts
v -63 0 63
v -63 0 -63
v -63 80 63
v -63 80 -63
v -1 40 63
v -1 40 61
v -1 70 63
v -1 70 61
v 31 17 61
v 31 17 58
v 31 17 57
v 31 17 22
v 31 80 61
v 31 80 22
v -61 17 61
v -61 17 -63
v -61 80 61
v -61 80 -63
v -36 40 63
v -36 40 61
v -36 70 63
v -36 70 61
v 33 8 63
v 33 8 53
v 33 10 62
v 33 10 61
v 33 11 53
v 33 11 43
v 33 14 43
v 33 14 33
v 33 15 62
v 33 15 61
v 33 17 40
v 33 17 33
v 33 17 22
v 33 18 62
v 33 18 61
v 33 19 49
v 33 19 47
v 33 20 62
v 33 20 61
v 33 20 53
v 33 20 49
v 33 20 48
v 33 20 47
v 33 23 47
v 33 23 44
v 33 28 47
v 33 28 44
v 33 30 40
v 33 30 33
v 33 42 48
v 33 42 40
v 33 45 63
v 33 45 40
v 33 57 24
v 33 57 22
v 33 80 63
v 33 80 24
v 63 0 63
v 63 0 -63
v 63 8 63
v 63 8 53
v 63 11 53
v 63 11 43
v 63 14 43
v 63 14 33
v 63 16 22
v 63 16 -12
v 63 16 -13
v 63 16 -63
v 63 17 33
v 63 17 22
v 63 17 -12
v 63 17 -13
v 63 17 -63
v 63 57 24
v 63 57 22
v 63 80 24
v 63 80 22
v -63 0 63
v -63 80 63
v -36 40 63
v -36 70 63
v -1 7 63
v -1 18 63
v -1 40 63
v -1 70 63
v 4 1 63
v 4 3 63
v 7 1 63
v 7 3 63
v 7 7 63
v 7 12 63
v 7 18 63
v 7 29 63
v 8 8 63
v 8 12 63
v 9 6 63
v 9 8 63
v 11 4 63
v 11 6 63
v 13 35 63
v 13 40 63
v 14 4 63
v 14 6 63
v 14 41 63
v 14 47 63
v 16 6 63
v 16 8 63
v 16 26 63
v 16 29 63
v 16 32 63
v 16 35 63
v 16 40 63
v 17 0 63
v 17 8 63
v 17 26 63
v 17 32 63
v 17 35 63
v 17 36 63
v 17 41 63
v 17 47 63
v 22 45 63
v 22 46 63
v 23 36 63
v 23 44 63
v 24 36 63
v 24 44 63
v 24 45 63
v 24 46 63
v 26 48 63
v 26 52 63
v 29 42 63
v 29 45 63
v 29 48 63
v 29 52 63
v 32 36 63
v 32 42 63
v 33 8 63
v 33 45 63
v 33 80 63
v 45 5 63
v 45 8 63
v 51 0 63
v 51 5 63
v 63 0 63
v 63 8 63
v 33 8 53
v 33 11 53
v 38 8 53
v 63 8 53
v 63 11 53
v 33 11 43
v 33 14 43
v 63 11 43
v 63 14 43
v 33 14 33
v 33 17 33
v 63 14 33
v 63 17 33
v 33 57 24
v 33 80 24
v 63 57 24
v 63 80 24
v -61 17 61
v -61 80 61
v -60 17 61
v -49 17 61
v -48 17 61
v -37 17 61
v -36 17 61
v -36 40 61
v -36 70 61
v -25 17 61
v -24 17 61
v -13 17 61
v -12 17 61
v -1 17 61
v -1 40 61
v -1 70 61
v 0 17 61
v 11 17 61
v 12 17 61
v 23 17 61
v 24 17 61
v 31 17 61
v 31 80 61
v 31 17 22
v 31 80 22
v 33 17 22
v 33 57 22
v 63 57 22
v 63 80 22
v -63 0 -63
v -63 80 -63
v -61 16 -63
v -61 17 -63
v -61 80 -63
v -60 16 -63
v -60 17 -63
v -49 16 -63
v -49 17 -63
v -48 16 -63
v -48 17 -63
v -37 16 -63
v -37 17 -63
v -36 16 -63
v -36 17 -63
v -25 16 -63
v -25 17 -63
v -24 16 -63
v -24 17 -63
v -13 16 -63
v -13 17 -63
v -12 16 -63
v -12 17 -63
v -10 16 -63
v -10 17 -63
v 20 16 -63
v 20 17 -63
v 23 16 -63
v 23 17 -63
v 24 16 -63
v 24 17 -63
v 35 16 -63
v 35 17 -63
v 36 16 -63
v 36 17 -63
v 47 16 -63
v 47 17 -63
v 48 16 -63
v 48 17 -63
v 59 16 -63
v 59 17 -63
v 60 16 -63
v 60 17 -63
v 63 0 -63
v 63 16 -63
v 63 17 -63
v -63 0 63
v 17 0 63
v 51 0 63
v 63 0 63
v 17 0 62
v 51 0 62
v -63 0 -63
v 63 0 -63
v 33 57 24
v 63 57 24
v 33 57 22
v 63 57 22
v -36 70 63
v -1 70 63
v -36 70 61
v -1 70 61
v 33 8 63
v 45 8 63
v 63 8 63
v 42 8 62
v 45 8 62
v 38 8 58
v 42 8 58
v 33 8 53
v 38 8 53
v 63 8 53
v 33 11 53
v 63 11 53
v 33 11 43
v 63 11 43
v 33 14 43
v 63 14 43
v 33 14 33
v 63 14 33
v -61 17 61
v -60 17 61
v -49 17 61
v -48 17 61
v -37 17 61
v -36 17 61
v -25 17 61
v -24 17 61
v -13 17 61
v -12 17 61
v -1 17 61
v 0 17 61
v 11 17 61
v 12 17 61
v 23 17 61
v 24 17 61
v 31 17 61
v -24 17 58
v -13 17 58
v 24 17 58
v 31 17 58
v -24 17 57
v -13 17 57
v 24 17 57
v 31 17 57
v -36 17 45
v -25 17 45
v 12 17 45
v 23 17 45
v -36 17 44
v -25 17 44
v 12 17 44
v 23 17 44
v 33 17 33
v 63 17 33
v -48 17 29
v -37 17 29
v 0 17 29
v 11 17 29
v -48 17 28
v -37 17 28
v 0 17 28
v 11 17 28
v 31 17 22
v 33 17 22
v 35 17 22
v 36 17 22
v 47 17 22
v 48 17 22
v 59 17 22
v 60 17 22
v 63 17 22
v -60 17 17
v -49 17 17
v -12 17 17
v -1 17 17
v 36 17 17
v 47 17 17
v -60 17 16
v -49 17 16
v -12 17 16
v -1 17 16
v 36 17 16
v 47 17 16
v -24 17 1
v -13 17 1
v 24 17 1
v 35 17 1
v -24 17 -0
v -13 17 -0
v 24 17 -0
v 35 17 -0
v -36 17 -12
v -25 17 -12
v 12 17 -12
v 23 17 -12
v 60 17 -12
v 63 17 -12
v -36 17 -13
v -25 17 -13
v 12 17 -13
v 23 17 -13
v 60 17 -13
v 63 17 -13
v -12 17 -20
v -11 17 -20
v -5 17 -20
v -1 17 -20
v -12 17 -21
v -11 17 -21
v 2 17 -24
v 8 17 -24
v -5 17 -25
v -1 17 -25
v -48 17 -28
v -37 17 -28
v -3 17 -28
v -1 17 -28
v 0 17 -28
v 2 17 -28
v 8 17 -28
v 11 17 -28
v 48 17 -28
v 59 17 -28
v -48 17 -29
v -37 17 -29
v 8 17 -29
v 11 17 -29
v 48 17 -29
v 59 17 -29
v 4 17 -30
v 8 17 -30
v -20 17 -33
v -14 17 -33
v -10 17 -34
v -3 17 -34
v 4 17 -34
v 11 17 -34
v 12 17 -34
v 16 17 -34
v -20 17 -39
v -18 17 -39
v -14 17 -39
v -13 17 -39
v -12 17 -39
v -10 17 -39
v -60 17 -40
v -49 17 -40
v 36 17 -40
v 47 17 -40
v -60 17 -41
v -49 17 -41
v 18 17 -41
v 22 17 -41
v 36 17 -41
v 47 17 -41
v 18 17 -49
v 22 17 -49
v -24 17 -56
v -18 17 -56
v 24 17 -56
v 35 17 -56
v -24 17 -57
v -18 17 -57
v -13 17 -57
v -12 17 -57
v -10 17 -57
v 24 17 -57
v 35 17 -57
v 16 17 -58
v 20 17 -58
v -61 17 -63
v -60 17 -63
v -49 17 -63
v -48 17 -63
v -37 17 -63
v -36 17 -63
v -25 17 -63
v -24 17 -63
v -13 17 -63
v -12 17 -63
v -10 17 -63
v 20 17 -63
v 23 17 -63
v 24 17 -63
v 35 17 -63
v 36 17 -63
v 47 17 -63
v 48 17 -63
v 59 17 -63
v 60 17 -63
v 63 17 -63
v -36 40 63
v -1 40 63
v -36 40 61
v -1 40 61
v -63 80 63
v 33 80 63
v -61 80 61
v 31 80 61
v 33 80 24
v 63 80 24
v 31 80 22
v 63 80 22
v -63 80 -63
v -61 80 -63

# faces
f 3/4/1 2/4/1 1/4/1
f 4/4/1 2/4/1 3/4/1
f 7/4/1 6/4/1 5/4/1
f 8/4/1 6/4/1 7/4/1
f 13/4/1 10/4/1 9/4/1
f 13/4/1 12/4/1 11/4/1
f 13/4/1 11/4/1 10/4/1
f 14/4/1 12/4/1 13/4/1
f 15/4/2 16/4/2 17/4/2
f 17/4/2 16/4/2 18/4/2
f 19/4/2 20/4/2 21/4/2
f 21/4/2 20/4/2 22/4/2
f 23/5/2 24/5/2 25/5/2
f 25/5/2 24/5/2 26/5/2
f 26/5/2 24/5/2 27/5/2
f 27/4/2 28/4/2 29/4/2
f 23/5/2 25/5/2 31/5/2
f 25/4/2 26/4/2 31/4/2
f 26/5/2 27/5/2 32/5/2
f 31/4/2 26/4/2 32/4/2
f 29/4/2 30/4/2 33/4/2
f 33/4/2 30/4/2 34/4/2
f 23/5/2 31/5/2 36/5/2
f 31/5/2 32/5/2 36/5/2
f 32/5/2 27/5/2 37/5/2
f 36/5/2 32/5/2 37/5/2
f 27/4/2 29/4/2 38/4/2
f 29/4/2 33/4/2 38/4/2
f 38/4/2 33/4/2 39/4/2
f 23/5/2 36/5/2 40/5/2
f 36/4/2 37/4/2 40/4/2
f 37/5/2 27/5/2 41/5/2
f 40/4/2 37/4/2 41/4/2
f 27/4/2 38/4/2 42/4/2
f 41/5/2 27/5/2 42/5/2
f 38/5/2 39/5/2 43/5/2
f 42/4/2 38/4/2 43/4/2
f 43/5/2 39/5/2 44/5/2
f 39/4/2 33/4/2 45/4/2
f 44/5/2 39/5/2 45/5/2
f 44/4/2 45/4/2 46/4/2
f 45/4/2 33/4/2 46/4/2
f 46/4/2 33/4/2 47/4/2
f 44/4/2 46/4/2 48/4/2
f 46/5/2 47/5/2 48/5/2
f 47/4/2 33/4/2 49/4/2
f 48/5/2 47/5/2 49/5/2
f 33/5/2 34/5/2 50/5/2
f 49/4/2 33/4/2 50/4/2
f 48/4/2 49/4/2 50/4/2
f 34/4/2 35/4/2 51/4/2
f 50/5/2 34/5/2 51/5/2
f 43/5/2 44/5/2 52/5/2
f 48/4/2 50/4/2 52/4/2
f 50/4/2 51/4/2 52/4/2
f 42/5/2 43/5/2 52/5/2
f 40/5/2 41/5/2 52/5/2
f 41/5/2 42/5/2 52/5/2
f 44/4/2 48/4/2 52/4/2
f 52/4/2 51/4/2 53/4/2
f 23/5/2 40/5/2 54/5/2
f 40/5/2 52/5/2 54/5/2
f 52/5/2 53/5/2 54/5/2
f 53/4/2 51/4/2 55/4/2
f 54/5/2 53/5/2 55/5/2
f 51/4/2 35/4/2 56/4/2
f 55/4/2 51/4/2 56/4/2
f 54/4/2 55/4/2 56/4/2
f 56/4/2 35/4/2 57/4/2
f 54/4/2 56/4/2 58/4/2
f 58/4/2 56/4/2 59/4/2
f 60/4/2 61/4/2 62/4/2
f 62/4/2 61/4/2 63/4/2
f 63/4/2 61/4/2 64/4/2
f 64/4/2 61/4/2 65/4/2
f 65/4/2 61/4/2 66/4/2
f 66/4/2 61/4/2 67/4/2
f 67/4/2 61/4/2 68/4/2
f 68/4/2 61/4/2 69/4/2
f 69/4/2 61/4/2 70/4/2
f 70/4/2 61/4/2 71/4/2
f 67/4/2 68/4/2 72/4/2
f 68/3/2 69/3/2 73/3/2
f 72/4/2 68/4/2 73/4/2
f 69/2/2 70/2/2 74/2/2
f 73/3/2 69/3/2 74/3/2
f 70/3/2 71/3/2 75/3/2
f 74/2/2 70/2/2 75/2/2
f 75/3/2 71/3/2 76/3/2
f 77/4/2 78/4/2 79/4/2
f 79/4/2 78/4/2 80/4/2
f 83/4/3 82/4/3 81/4/3
f 84/4/3 82/4/3 83/4/3
f 85/4/3 83/4/3 81/4/3
f 86/4/3 83/4/3 85/4/3
f 87/4/3 83/4/3 86/4/3
f 88/4/3 82/4/3 84/4/3
f 89/4/3 85/4/3 81/4/3
f 90/4/3 85/4/3 89/4/3
f 91/4/3 89/4/3 81/4/3
f 91/5/3 90/5/3 89/5/3
f 92/4/3 85/4/3 90/4/3
f 92/5/3 90/5/3 91/5/3
f 93/5/3 86/5/3 85/5/3
f 93/4/3 85/4/3 92/4/3
f 94/5/3 86/5/3 93/5/3
f 95/4/3 87/4/3 86/4/3
f 95/5/3 86/5/3 94/5/3
f 95/4/3 88/4/3 87/4/3
f 96/4/3 88/4/3 95/4/3
f 97/4/3 94/4/3 93/4/3
f 97/4/3 93/4/3 92/4/3
f 97/4/3 92/4/3 91/4/3
f 98/5/3 96/5/3 95/5/3
f 98/4/3 94/4/3 97/4/3
f 98/5/3 95/5/3 94/5/3
f 99/4/3 97/4/3 91/4/3
f 100/5/3 98/5/3 97/5/3
f 100/4/3 97/4/3 99/4/3
f 101/4/3 99/4/3 91/4/3
f 102/5/3 100/5/3 99/5/3
f 102/4/3 99/4/3 101/4/3
f 103/4/3 88/4/3 96/4/3
f 104/4/3 88/4/3 103/4/3
f 105/4/3 101/4/3 91/4/3
f 105/5/3 102/5/3 101/5/3
f 106/5/3 100/5/3 102/5/3
f 106/5/3 102/5/3 105/5/3
f 107/4/3 88/4/3 104/4/3
f 108/4/3 88/4/3 107/4/3
f 109/5/3 100/5/3 106/5/3
f 109/4/3 106/4/3 105/4/3
f 110/5/3 98/5/3 100/5/3
f 110/5/3 100/5/3 109/5/3
f 111/5/3 96/5/3 98/5/3
f 111/5/3 98/5/3 110/5/3
f 112/4/3 103/4/3 96/4/3
f 112/5/3 96/5/3 111/5/3
f 113/4/3 103/4/3 112/4/3
f 114/5/3 104/5/3 103/5/3
f 114/4/3 103/4/3 113/4/3
f 115/4/3 107/4/3 104/4/3
f 115/5/3 104/5/3 114/5/3
f 116/4/3 105/4/3 91/4/3
f 116/4/3 110/4/3 109/4/3
f 116/4/3 91/4/3 81/4/3
f 116/4/3 109/4/3 105/4/3
f 117/5/3 111/5/3 110/5/3
f 117/4/3 110/4/3 116/4/3
f 118/4/3 112/4/3 111/4/3
f 118/5/3 111/5/3 117/5/3
f 118/4/3 113/4/3 112/4/3
f 119/5/3 114/5/3 113/5/3
f 119/4/3 113/4/3 118/4/3
f 120/4/3 115/4/3 114/4/3
f 120/5/3 114/5/3 119/5/3
f 121/4/3 115/4/3 120/4/3
f 122/4/3 107/4/3 115/4/3
f 122/4/3 115/4/3 121/4/3
f 122/5/3 108/5/3 107/5/3
f 123/4/3 88/4/3 108/4/3
f 123/5/3 108/5/3 122/5/3
f 124/4/3 122/4/3 121/4/3
f 124/4/3 123/4/3 122/4/3
f 125/4/3 123/4/3 124/4/3
f 126/5/3 121/5/3 120/5/3
f 126/5/3 119/5/3 118/5/3
f 126/5/3 117/5/3 116/5/3
f 126/4/3 124/4/3 121/4/3
f 126/5/3 118/5/3 117/5/3
f 126/5/3 120/5/3 119/5/3
f 127/4/3 124/4/3 126/4/3
f 128/5/3 126/5/3 116/5/3
f 128/5/3 127/5/3 126/5/3
f 129/4/3 124/4/3 127/4/3
f 129/5/3 127/5/3 128/5/3
f 130/5/3 125/5/3 124/5/3
f 130/4/3 124/4/3 129/4/3
f 131/4/3 123/4/3 125/4/3
f 131/5/3 125/5/3 130/5/3
f 132/4/3 130/4/3 129/4/3
f 132/4/3 123/4/3 131/4/3
f 132/4/3 131/4/3 130/4/3
f 132/4/3 129/4/3 128/4/3
f 132/4/3 88/4/3 123/4/3
f 133/4/3 88/4/3 132/4/3
f 134/4/3 132/4/3 128/4/3
f 135/4/3 132/4/3 134/4/3
f 136/5/3 133/5/3 132/5/3
f 136/4/3 132/4/3 135/4/3
f 137/4/3 88/4/3 133/4/3
f 137/5/3 133/5/3 136/5/3
f 138/5/3 128/5/3 116/5/3
f 138/4/3 134/4/3 128/4/3
f 139/5/3 135/5/3 134/5/3
f 139/4/3 134/4/3 138/4/3
f 140/5/3 138/5/3 116/5/3
f 140/5/3 139/5/3 138/5/3
f 141/4/3 136/4/3 135/4/3
f 141/5/3 139/5/3 140/5/3
f 141/5/3 135/5/3 139/5/3
f 141/4/3 137/4/3 136/4/3
f 142/4/3 88/4/3 137/4/3
f 142/4/3 137/4/3 141/4/3
f 142/4/3 82/4/3 88/4/3
f 143/5/3 140/5/3 116/5/3
f 144/5/3 140/5/3 143/5/3
f 145/5/3 143/5/3 116/5/3
f 146/4/3 144/4/3 143/4/3
f 146/5/3 143/5/3 145/5/3
f 147/4/3 146/4/3 145/4/3
f 148/4/3 144/4/3 146/4/3
f 148/4/3 146/4/3 147/4/3
f 151/4/3 150/4/3 149/4/3
f 152/4/3 150/4/3 151/4/3
f 153/4/3 150/4/3 152/4/3
f 156/4/3 155/4/3 154/4/3
f 157/4/3 155/4/3 156/4/3
f 160/4/3 159/4/3 158/4/3
f 161/4/3 159/4/3 160/4/3
f 164/4/3 163/4/3 162/4/3
f 165/4/3 163/4/3 164/4/3
f 166/4/4 167/4/4 168/4/4
f 168/4/4 167/4/4 169/4/4
f 169/4/4 167/4/4 170/4/4
f 170/4/4 167/4/4 171/4/4
f 171/4/4 167/4/4 172/4/4
f 172/4/4 167/4/4 173/4/4
f 173/4/4 167/4/4 174/4/4
f 172/4/4 173/4/4 175/4/4
f 175/4/4 173/4/4 176/4/4
f 176/4/4 173/4/4 177/4/4
f 177/4/4 173/4/4 178/4/4
f 178/4/4 173/4/4 179/4/4
f 179/4/4 173/4/4 180/4/4
f 174/4/4 167/4/4 181/4/4
f 179/4/4 180/4/4 182/4/4
f 180/4/4 181/4/4 182/4/4
f 182/4/4 181/4/4 183/4/4
f 183/4/4 181/4/4 184/4/4
f 184/4/4 181/4/4 185/4/4
f 185/4/4 181/4/4 186/4/4
f 186/4/4 181/4/4 187/4/4
f 181/4/4 167/4/4 188/4/4
f 187/4/4 181/4/4 188/4/4
f 189/4/4 190/4/4 191/4/4
f 191/4/4 190/4/4 192/4/4
f 192/4/4 190/4/4 193/4/4
f 193/4/4 190/4/4 194/4/4
f 195/4/4 196/4/4 197/4/4
f 197/4/4 196/4/4 198/4/4
f 198/4/4 196/4/4 199/4/4
f 195/4/4 197/4/4 200/4/4
f 197/2/4 198/2/4 200/2/4
f 200/2/4 198/2/4 201/2/4
f 195/4/4 200/4/4 202/4/4
f 200/3/4 201/3/4 202/3/4
f 202/3/4 201/3/4 203/3/4
f 195/4/4 202/4/4 204/4/4
f 202/2/4 203/2/4 204/2/4
f 204/2/4 203/2/4 205/2/4
f 195/4/4 204/4/4 206/4/4
f 204/3/4 205/3/4 206/3/4
f 206/3/4 205/3/4 207/3/4
f 195/4/4 206/4/4 208/4/4
f 206/2/4 207/2/4 208/2/4
f 208/2/4 207/2/4 209/2/4
f 195/4/4 208/4/4 210/4/4
f 208/3/4 209/3/4 210/3/4
f 210/3/4 209/3/4 211/3/4
f 195/4/4 210/4/4 212/4/4
f 210/2/4 211/2/4 212/2/4
f 212/2/4 211/2/4 213/2/4
f 195/4/4 212/4/4 214/4/4
f 212/3/4 213/3/4 214/3/4
f 214/3/4 213/3/4 215/3/4
f 195/4/4 214/4/4 216/4/4
f 214/2/4 215/2/4 216/2/4
f 216/2/4 215/2/4 217/2/4
f 195/4/4 216/4/4 218/4/4
f 216/3/4 217/3/4 218/3/4
f 218/3/4 217/3/4 219/3/4
f 195/4/4 218/4/4 220/4/4
f 218/1/4 219/1/4 220/1/4
f 220/1/4 219/1/4 221/1/4
f 195/4/4 220/4/4 222/4/4
f 220/3/4 221/3/4 222/3/4
f 222/3/4 221/3/4 223/3/4
f 195/4/4 222/4/4 224/4/4
f 222/2/4 223/2/4 224/2/4
f 224/2/4 223/2/4 225/2/4
f 195/4/4 224/4/4 226/4/4
f 224/3/4 225/3/4 226/3/4
f 226/3/4 225/3/4 227/3/4
f 195/4/4 226/4/4 228/4/4
f 226/2/4 227/2/4 228/2/4
f 228/2/4 227/2/4 229/2/4
f 195/4/4 228/4/4 230/4/4
f 228/3/4 229/3/4 230/3/4
f 230/3/4 229/3/4 231/3/4
f 195/4/4 230/4/4 232/4/4
f 230/2/4 231/2/4 232/2/4
f 232/2/4 231/2/4 233/2/4
f 195/4/4 232/4/4 234/4/4
f 232/3/4 233/3/4 234/3/4
f 234/3/4 233/3/4 235/3/4
f 195/4/4 234/4/4 236/4/4
f 234/2/4 235/2/4 236/2/4
f 236/2/4 235/2/4 237/2/4
f 195/4/4 236/4/4 238/4/4
f 236/3/4 237/3/4 239/3/4
f 238/4/4 236/4/4 239/4/4
f 239/3/4 237/3/4 240/3/4
f 245/4/5 242/4/5 241/4/5
f 245/5/5 243/5/5 242/5/5
f 246/4/5 244/4/5 243/4/5
f 246/5/5 243/5/5 245/5/5
f 247/4/5 245/4/5 241/4/5
f 247/4/5 246/4/5 245/4/5
f 248/4/5 244/4/5 246/4/5
f 248/4/5 246/4/5 247/4/5
f 251/4/5 250/4/5 249/4/5
f 252/4/5 250/4/5 251/4/5
f 255/4/5 254/4/5 253/4/5
f 256/4/5 254/4/5 255/4/5
f 257/5/6 258/5/6 260/5/6
f 258/4/6 259/4/6 261/4/6
f 260/5/6 258/5/6 261/5/6
f 257/5/6 260/5/6 262/5/6
f 260/4/6 261/4/6 263/4/6
f 262/5/6 260/5/6 263/5/6
f 257/5/6 262/5/6 264/5/6
f 262/4/6 263/4/6 265/4/6
f 264/5/6 262/5/6 265/5/6
f 261/4/6 259/4/6 266/4/6
f 265/4/6 263/4/6 266/4/6
f 263/4/6 261/4/6 266/4/6
f 267/4/6 268/4/6 269/4/6
f 269/4/6 268/4/6 270/4/6
f 271/4/6 272/4/6 273/4/6
f 273/4/6 272/4/6 274/4/6
f 281/2/6 282/2/6 292/2/6
f 282/3/6 283/3/6 292/3/6
f 283/2/6 284/2/6 293/2/6
f 292/3/6 283/3/6 293/3/6
f 290/3/6 291/3/6 294/3/6
f 289/2/6 290/2/6 294/2/6
f 294/3/6 291/3/6 295/3/6
f 292/2/6 293/2/6 296/2/6
f 281/2/6 292/2/6 296/2/6
f 293/2/6 284/2/6 297/2/6
f 296/2/6 293/2/6 297/2/6
f 294/2/6 295/2/6 298/2/6
f 289/2/6 294/2/6 298/2/6
f 298/2/6 295/2/6 299/2/6
f 279/2/6 280/2/6 300/2/6
f 280/3/6 281/3/6 300/3/6
f 281/2/6 296/2/6 301/2/6
f 300/3/6 281/3/6 301/3/6
f 287/2/6 288/2/6 302/2/6
f 288/3/6 289/3/6 302/3/6
f 289/2/6 298/2/6 303/2/6
f 302/3/6 289/3/6 303/3/6
f 279/2/6 300/2/6 304/2/6
f 300/2/6 301/2/6 304/2/6
f 301/2/6 296/2/6 305/2/6
f 304/2/6 301/2/6 305/2/6
f 302/2/6 303/2/6 306/2/6
f 287/2/6 302/2/6 306/2/6
f 303/2/6 298/2/6 307/2/6
f 306/2/6 303/2/6 307/2/6
f 277/2/6 278/2/6 310/2/6
f 278/3/6 279/3/6 310/3/6
f 279/2/6 304/2/6 311/2/6
f 310/3/6 279/3/6 311/3/6
f 285/2/6 286/2/6 312/2/6
f 286/3/6 287/3/6 312/3/6
f 287/2/6 306/2/6 313/2/6
f 312/3/6 287/3/6 313/3/6
f 310/2/6 311/2/6 314/2/6
f 277/2/6 310/2/6 314/2/6
f 311/2/6 304/2/6 315/2/6
f 314/2/6 311/2/6 315/2/6
f 285/2/6 312/2/6 316/2/6
f 312/2/6 313/2/6 316/2/6
f 313/2/6 306/2/6 317/2/6
f 316/2/6 313/2/6 317/2/6
f 298/3/6 299/3/6 318/3/6
f 308/4/6 309/4/6 319/4/6
f 319/4/6 309/4/6 320/4/6
f 320/4/6 309/4/6 321/4/6
f 321/4/6 309/4/6 322/4/6
f 322/4/6 309/4/6 323/4/6
f 323/4/6 309/4/6 324/4/6
f 324/4/6 309/4/6 325/4/6
f 325/4/6 309/4/6 326/4/6
f 275/2/6 276/2/6 327/2/6
f 276/3/6 277/3/6 327/3/6
f 277/2/6 314/2/6 328/2/6
f 327/3/6 277/3/6 328/3/6
f 297/2/6 284/2/6 329/2/6
f 284/3/6 285/3/6 329/3/6
f 285/2/6 316/2/6 330/2/6
f 329/3/6 285/3/6 330/3/6
f 320/2/6 321/2/6 331/2/6
f 321/3/6 322/3/6 331/3/6
f 322/2/6 323/2/6 332/2/6
f 331/3/6 322/3/6 332/3/6
f 327/2/6 328/2/6 333/2/6
f 275/2/6 327/2/6 333/2/6
f 328/2/6 314/2/6 334/2/6
f 333/2/6 328/2/6 334/2/6
f 297/2/6 329/2/6 335/2/6
f 329/2/6 330/2/6 335/2/6
f 330/2/6 316/2/6 336/2/6
f 335/2/6 330/2/6 336/2/6
f 331/2/6 332/2/6 337/2/6
f 320/2/6 331/2/6 337/2/6
f 332/2/6 323/2/6 338/2/6
f 337/2/6 332/2/6 338/2/6
f 305/2/6 296/2/6 339/2/6
f 296/3/6 297/3/6 339/3/6
f 297/2/6 335/2/6 340/2/6
f 339/3/6 297/3/6 340/3/6
f 298/3/6 318/3/6 341/3/6
f 307/2/6 298/2/6 341/2/6
f 318/3/6 319/3/6 341/3/6
f 319/3/6 320/3/6 341/3/6
f 320/2/6 337/2/6 342/2/6
f 341/3/6 320/3/6 342/3/6
f 339/2/6 340/2/6 343/2/6
f 305/2/6 339/2/6 343/2/6
f 340/2/6 335/2/6 344/2/6
f 343/2/6 340/2/6 344/2/6
f 307/2/6 341/2/6 345/2/6
f 341/2/6 342/2/6 345/2/6
f 342/2/6 337/2/6 346/2/6
f 345/2/6 342/2/6 346/2/6
f 304/3/6 305/3/6 347/3/6
f 315/2/6 304/2/6 347/2/6
f 305/2/6 343/2/6 348/2/6
f 347/3/6 305/3/6 348/3/6
f 317/2/6 306/2/6 349/2/6
f 306/3/6 307/3/6 349/3/6
f 307/2/6 345/2/6 350/2/6
f 349/3/6 307/3/6 350/3/6
f 325/3/6 326/3/6 351/3/6
f 324/2/6 325/2/6 351/2/6
f 351/3/6 326/3/6 352/3/6
f 315/2/6 347/2/6 353/2/6
f 347/2/6 348/2/6 353/2/6
f 348/2/6 343/2/6 354/2/6
f 353/2/6 348/2/6 354/2/6
f 317/2/6 349/2/6 355/2/6
f 349/2/6 350/2/6 355/2/6
f 350/2/6 345/2/6 356/2/6
f 355/2/6 350/2/6 356/2/6
f 351/2/6 352/2/6 357/2/6
f 324/2/6 351/2/6 357/2/6
f 357/2/6 352/2/6 358/2/6
f 344/2/6 335/2/6 359/2/6
f 335/3/6 336/3/6 359/3/6
f 359/3/6 336/3/6 360/3/6
f 360/3/6 336/3/6 361/3/6
f 336/2/6 316/2/6 362/2/6
f 361/3/6 336/3/6 362/3/6
f 344/2/6 359/2/6 363/2/6
f 359/1/6 360/1/6 363/1/6
f 360/3/6 361/3/6 364/3/6
f 363/1/6 360/1/6 364/1/6
f 316/3/6 317/3/6 365/3/6
f 365/3/6 317/3/6 366/3/6
f 364/3/6 361/3/6 367/3/6
f 361/1/6 362/1/6 367/1/6
f 363/3/6 364/3/6 367/3/6
f 362/2/6 316/2/6 368/2/6
f 367/1/6 362/1/6 368/1/6
f 334/2/6 314/2/6 369/2/6
f 314/3/6 315/3/6 369/3/6
f 315/2/6 353/2/6 370/2/6
f 369/3/6 315/3/6 370/3/6
f 367/3/6 368/3/6 371/3/6
f 368/2/6 316/2/6 372/2/6
f 371/3/6 368/3/6 372/3/6
f 316/3/6 365/3/6 373/3/6
f 372/2/6 316/2/6 373/2/6
f 365/1/6 366/1/6 374/1/6
f 373/3/6 365/3/6 374/3/6
f 366/3/6 317/3/6 375/3/6
f 374/1/6 366/1/6 375/1/6
f 317/2/6 355/2/6 376/2/6
f 375/3/6 317/3/6 376/3/6
f 338/2/6 323/2/6 377/2/6
f 323/3/6 324/3/6 377/3/6
f 324/2/6 357/2/6 378/2/6
f 377/3/6 324/3/6 378/3/6
f 334/2/6 369/2/6 379/2/6
f 369/2/6 370/2/6 379/2/6
f 370/2/6 353/2/6 380/2/6
f 379/2/6 370/2/6 380/2/6
f 374/1/6 375/1/6 381/1/6
f 373/1/6 374/1/6 381/1/6
f 375/2/6 376/2/6 381/2/6
f 372/1/6 373/1/6 381/1/6
f 371/1/6 372/1/6 381/1/6
f 376/2/6 355/2/6 382/2/6
f 381/2/6 376/2/6 382/2/6
f 377/2/6 378/2/6 383/2/6
f 338/2/6 377/2/6 383/2/6
f 378/2/6 357/2/6 384/2/6
f 383/2/6 378/2/6 384/2/6
f 371/1/6 381/1/6 385/1/6
f 381/3/6 382/3/6 386/3/6
f 385/1/6 381/1/6 386/1/6
f 343/3/6 344/3/6 387/3/6
f 387/3/6 344/3/6 388/3/6
f 367/3/6 371/3/6 389/3/6
f 363/3/6 367/3/6 389/3/6
f 371/1/6 385/1/6 390/1/6
f 389/3/6 371/3/6 390/3/6
f 385/3/6 386/3/6 391/3/6
f 390/1/6 385/1/6 391/1/6
f 382/2/6 355/2/6 392/2/6
f 391/3/6 386/3/6 392/3/6
f 386/3/6 382/3/6 392/3/6
f 355/3/6 356/3/6 393/3/6
f 392/2/6 355/2/6 393/2/6
f 393/3/6 356/3/6 394/3/6
f 343/3/6 387/3/6 395/3/6
f 387/1/6 388/1/6 395/1/6
f 395/1/6 388/1/6 396/1/6
f 388/3/6 344/3/6 397/3/6
f 396/1/6 388/1/6 397/1/6
f 344/2/6 363/2/6 398/2/6
f 397/3/6 344/3/6 398/3/6
f 363/3/6 389/3/6 399/3/6
f 398/2/6 363/2/6 399/2/6
f 390/1/6 391/1/6 400/1/6
f 399/3/6 389/3/6 400/3/6
f 391/1/6 392/1/6 400/1/6
f 393/1/6 394/1/6 400/1/6
f 392/1/6 393/1/6 400/1/6
f 389/1/6 390/1/6 400/1/6
f 275/2/6 333/2/6 401/2/6
f 333/3/6 334/3/6 401/3/6
f 334/2/6 379/2/6 402/2/6
f 401/3/6 334/3/6 402/3/6
f 346/2/6 337/2/6 403/2/6
f 337/3/6 338/3/6 403/3/6
f 338/2/6 383/2/6 404/2/6
f 403/3/6 338/3/6 404/3/6
f 275/2/6 401/2/6 405/2/6
f 401/2/6 402/2/6 405/2/6
f 402/2/6 379/2/6 406/2/6
f 405/2/6 402/2/6 406/2/6
f 394/3/6 356/3/6 407/3/6
f 407/3/6 356/3/6 408/3/6
f 346/2/6 403/2/6 409/2/6
f 403/2/6 404/2/6 409/2/6
f 404/2/6 383/2/6 410/2/6
f 409/2/6 404/2/6 410/2/6
f 407/1/6 408/1/6 411/1/6
f 394/3/6 407/3/6 411/3/6
f 408/3/6 356/3/6 412/3/6
f 411/1/6 408/1/6 412/1/6
f 354/2/6 343/2/6 413/2/6
f 395/3/6 396/3/6 413/3/6
f 343/3/6 395/3/6 413/3/6
f 396/1/6 397/1/6 414/1/6
f 413/3/6 396/3/6 414/3/6
f 398/1/6 399/1/6 414/1/6
f 399/1/6 400/1/6 414/1/6
f 397/1/6 398/1/6 414/1/6
f 345/3/6 346/3/6 415/3/6
f 356/2/6 345/2/6 415/2/6
f 346/2/6 409/2/6 416/2/6
f 415/3/6 346/3/6 416/3/6
f 413/2/6 414/2/6 417/2/6
f 354/2/6 413/2/6 417/2/6
f 414/1/6 400/1/6 418/1/6
f 417/2/6 414/2/6 418/2/6
f 418/1/6 400/1/6 419/1/6
f 419/1/6 400/1/6 420/1/6
f 400/1/6 394/1/6 421/1/6
f 420/1/6 400/1/6 421/1/6
f 415/2/6 416/2/6 422/2/6
f 356/2/6 415/2/6 422/2/6
f 416/2/6 409/2/6 423/2/6
f 422/2/6 416/2/6 423/2/6
f 394/3/6 411/3/6 424/3/6
f 421/1/6 394/1/6 424/1/6
f 411/3/6 412/3/6 424/3/6
f 424/3/6 412/3/6 425/3/6
f 275/2/6 405/2/6 426/2/6
f 405/3/6 406/3/6 427/3/6
f 426/2/6 405/2/6 427/2/6
f 406/2/6 379/2/6 428/2/6
f 427/3/6 406/3/6 428/3/6
f 379/3/6 380/3/6 429/3/6
f 428/2/6 379/2/6 429/2/6
f 380/2/6 353/2/6 430/2/6
f 429/3/6 380/3/6 430/3/6
f 353/3/6 354/3/6 431/3/6
f 430/2/6 353/2/6 431/2/6
f 354/2/6 417/2/6 432/2/6
f 431/3/6 354/3/6 432/3/6
f 418/3/6 419/3/6 433/3/6
f 432/2/6 417/2/6 433/2/6
f 417/3/6 418/3/6 433/3/6
f 419/2/6 420/2/6 434/2/6
f 433/3/6 419/3/6 434/3/6
f 420/3/6 421/3/6 435/3/6
f 434/2/6 420/2/6 435/2/6
f 424/1/6 425/1/6 436/1/6
f 435/3/6 421/3/6 436/3/6
f 421/1/6 424/1/6 436/1/6
f 425/3/6 412/3/6 437/3/6
f 436/1/6 425/1/6 437/1/6
f 412/3/6 356/3/6 438/3/6
f 437/3/6 412/3/6 438/3/6
f 356/2/6 422/2/6 438/2/6
f 422/3/6 423/3/6 439/3/6
f 438/2/6 422/2/6 439/2/6
f 423/2/6 409/2/6 440/2/6
f 439/3/6 423/3/6 440/3/6
f 409/3/6 410/3/6 441/3/6
f 440/2/6 409/2/6 441/2/6
f 410/2/6 383/2/6 442/2/6
f 441/3/6 410/3/6 442/3/6
f 383/3/6 384/3/6 443/3/6
f 442/2/6 383/2/6 443/2/6
f 384/2/6 357/2/6 444/2/6
f 443/3/6 384/3/6 444/3/6
f 357/3/6 358/3/6 445/3/6
f 444/2/6 357/2/6 445/2/6
f 445/3/6 358/3/6 446/3/6
f 447/4/6 448/4/6 449/4/6
f 449/4/6 448/4/6 450/4/6
f 451/4/6 452/4/6 453/4/6
f 453/4/6 452/4/6 454/4/6
f 454/4/6 452/4/6 455/4/6
f 454/4/6 455/4/6 457/4/6
f 455/4/6 456/4/6 457/4/6
f 457/4/6 456/4/6 458/4/6
f 451/4/6 453/4/6 459/4/6
f 459/4/6 453/4/6 460/4/6
