# MagicaVoxel @ Ephtracy

# group
g 2x2 first 1(2)-0

# material
mtllib 2x2 first 1(2)-0.mtl
usemtl palette

# normals
vn -1 0 0
vn 1 0 0
vn 0 0 1
vn 0 0 -1
vn 0 -1 0
vn 0 1 0

# texcoords
vt 0.861328 0.5
vt 0.865234 0.5
vt 0.869141 0.5
vt 0.966797 0.5
vt 0.970703 0.5
vt 0.978516 0.5

# verts
v -63 0 63
v -63 0 -63
v -63 80 63
v -63 80 -63
v -61 17 63
v -61 17 23
v -61 18 3
v -61 18 -31
v -61 37 23
v -61 37 3
v -61 80 63
v -61 80 -31
v -2 77 -32
v -2 77 -62
v -2 80 -32
v -2 80 -62
v 8 73 -32
v 8 73 -62
v 8 77 -32
v 8 77 -62
v 18 69 -32
v 18 69 -62
v 18 73 -32
v 18 73 -62
v 21 17 23
v 21 17 3
v 21 17 -1
v 21 17 -2
v 21 17 -31
v 21 18 3
v 21 18 -31
v 21 37 23
v 21 37 3
v 28 65 -32
v 28 65 -62
v 28 69 -32
v 28 69 -62
v 38 61 -32
v 38 61 -62
v 38 65 -32
v 38 65 -62
v 48 57 -32
v 48 57 -62
v 48 61 -32
v 48 61 -62
v 58 53 -32
v 58 53 -62
v 58 57 -32
v 58 57 -62
v 63 0 63
v 63 0 -63
v 63 16 63
v 63 16 56
v 63 16 55
v 63 16 -1
v 63 16 -2
v 63 16 -31
v 63 16 -36
v 63 16 -62
v 63 17 63
v 63 17 56
v 63 17 55
v 63 17 -1
v 63 17 -2
v 63 17 -31
v 63 17 -36
v 63 17 -62
v 63 53 -32
v 63 53 -62
v 63 80 -31
v 63 80 -32
v 63 80 -62
v 63 80 -63
v -63 0 63
v -63 80 63
v -61 16 63
v -61 17 63
v -61 80 63
v -60 16 63
v -60 17 63
v -49 16 63
v -49 17 63
v -48 16 63
v -48 17 63
v -37 16 63
v -37 17 63
v -36 16 63
v -36 17 63
v -25 16 63
v -25 17 63
v -24 16 63
v -24 17 63
v -13 16 63
v -13 17 63
v -12 16 63
v -12 17 63
v -10 16 63
v -10 17 63
v 20 16 63
v 20 17 63
v 23 16 63
v 23 17 63
v 24 16 63
v 24 17 63
v 35 16 63
v 35 17 63
v 36 16 63
v 36 17 63
v 47 16 63
v 47 17 63
v 48 16 63
v 48 17 63
v 59 16 63
v 59 17 63
v 60 16 63
v 60 17 63
v 63 0 63
v 63 16 63
v 63 17 63
v -61 17 23
v -61 37 23
v -60 17 23
v -49 17 23
v -48 17 23
v -37 17 23
v -36 17 23
v -25 17 23
v -24 17 23
v -13 17 23
v -12 17 23
v -1 17 23
v 0 17 23
v 11 17 23
v 12 17 23
v 21 17 23
v 21 37 23
v -61 18 -31
v -61 80 -31
v 21 17 -31
v 21 18 -31
v 23 17 -31
v 24 17 -31
v 35 17 -31
v 36 17 -31
v 47 17 -31
v 48 17 -31
v 59 17 -31
v 60 17 -31
v 63 17 -31
v 63 80 -31
v -2 77 -62
v -2 80 -62
v 8 73 -62
v 8 77 -62
v 18 69 -62
v 18 73 -62
v 28 65 -62
v 28 69 -62
v 38 61 -62
v 38 65 -62
v 48 57 -62
v 48 61 -62
v 58 53 -62
v 58 57 -62
v 63 53 -62
v 63 80 -62
v -61 18 3
v -61 37 3
v 21 18 3
v 21 37 3
v -2 77 -32
v -2 80 -32
v 8 73 -32
v 8 77 -32
v 18 69 -32
v 18 73 -32
v 28 65 -32
v 28 69 -32
v 38 61 -32
v 38 65 -32
v 48 57 -32
v 48 61 -32
v 58 53 -32
v 58 57 -32
v 63 53 -32
v 63 80 -32
v -63 0 -63
v -63 80 -63
v 63 0 -63
v 63 80 -63
v -63 0 63
v 63 0 63
v -63 0 -63
v 63 0 -63
v -61 17 63
v -60 17 63
v -49 17 63
v -48 17 63
v -37 17 63
v -36 17 63
v -25 17 63
v -24 17 63
v -13 17 63
v -12 17 63
v -10 17 63
v 20 17 63
v 23 17 63
v 24 17 63
v 35 17 63
v 36 17 63
v 47 17 63
v 48 17 63
v 59 17 63
v 60 17 63
v 63 17 63
v -14 17 61
v -13 17 61
v -12 17 61
v -10 17 61
v -17 17 60
v -16 17 60
v -3 17 60
v -1 17 60
v 0 17 60
v 11 17 60
v 12 17 60
v 14 17 60
v 20 17 60
v 21 17 60
v -16 17 59
v -14 17 59
v -36 17 56
v -25 17 56
v 12 17 56
v 14 17 56
v 21 17 56
v 23 17 56
v 60 17 56
v 63 17 56
v -36 17 55
v -25 17 55
v 12 17 55
v 23 17 55
v 60 17 55
v 63 17 55
v -17 17 53
v -14 17 53
v 16 17 53
v 20 17 53
v -14 17 51
v -13 17 51
v -12 17 51
v -3 17 51
v 14 17 49
v 16 17 49
v 17 17 48
v 20 17 48
v 14 17 47
v 17 17 47
v -48 17 40
v -37 17 40
v 0 17 40
v 11 17 40
v 48 17 40
v 59 17 40
v -48 17 39
v -37 17 39
v 0 17 39
v 11 17 39
v 48 17 39
v 59 17 39
v -60 17 28
v -49 17 28
v -12 17 28
v -1 17 28
v 36 17 28
v 47 17 28
v -60 17 27
v -49 17 27
v -12 17 27
v -1 17 27
v 36 17 27
v 47 17 27
v -61 17 23
v -60 17 23
v -49 17 23
v -48 17 23
v -37 17 23
v -36 17 23
v -25 17 23
v -24 17 23
v -13 17 23
v -12 17 23
v -1 17 23
v 0 17 23
v 11 17 23
v 12 17 23
v 21 17 23
v 24 17 12
v 35 17 12
v 24 17 11
v 35 17 11
v 21 17 3
v 21 17 -1
v 23 17 -1
v 60 17 -1
v 63 17 -1
v 21 17 -2
v 23 17 -2
v 60 17 -2
v 63 17 -2
v 48 17 -17
v 59 17 -17
v 48 17 -18
v 59 17 -18
v 21 17 -31
v 23 17 -31
v 24 17 -31
v 35 17 -31
v 36 17 -31
v 47 17 -31
v 48 17 -31
v 59 17 -31
v 60 17 -31
v 63 17 -31
v -61 18 3
v 21 18 3
v -61 18 -31
v 21 18 -31
v -61 37 23
v 21 37 23
v -56 37 19
v -27 37 19
v -15 37 19
v 16 37 19
v -56 37 6
v -27 37 6
v -15 37 6
v 16 37 6
v -61 37 3
v 21 37 3
v 58 53 -32
v 63 53 -32
v 58 53 -62
v 63 53 -62
v 48 57 -32
v 58 57 -32
v 48 57 -62
v 58 57 -62
v 38 61 -32
v 48 61 -32
v 38 61 -62
v 48 61 -62
v 28 65 -32
v 38 65 -32
v 28 65 -62
v 38 65 -62
v 18 69 -32
v 28 69 -32
v 18 69 -62
v 28 69 -62
v 8 73 -32
v 18 73 -32
v 8 73 -62
v 18 73 -62
v -2 77 -32
v 8 77 -32
v -2 77 -62
v 8 77 -62
v -63 80 63
v -61 80 63
v -61 80 -31
v 63 80 -31
v -2 80 -32
v 63 80 -32
v -2 80 -62
v 63 80 -62
v -63 80 -63
v 63 80 -63

# faces
f 3/4/1 2/4/1 1/4/1
f 4/4/1 2/4/1 3/4/1
f 5/4/2 6/4/2 9/4/2
f 7/4/2 8/4/2 10/4/2
f 5/4/2 9/4/2 11/4/2
f 9/4/2 10/4/2 11/4/2
f 10/4/2 8/4/2 12/4/2
f 11/4/2 10/4/2 12/4/2
f 13/4/2 14/4/2 15/4/2
f 15/4/2 14/4/2 16/4/2
f 17/4/2 18/4/2 19/4/2
f 19/4/2 18/4/2 20/4/2
f 21/4/2 22/4/2 23/4/2
f 23/4/2 22/4/2 24/4/2
f 25/6/2 26/6/2 30/6/2
f 28/5/2 29/5/2 30/5/2
f 27/5/2 28/5/2 30/5/2
f 26/5/2 27/5/2 30/5/2
f 30/5/2 29/5/2 31/5/2
f 25/6/2 30/6/2 32/6/2
f 32/6/2 30/6/2 33/6/2
f 34/4/2 35/4/2 36/4/2
f 36/4/2 35/4/2 37/4/2
f 38/4/2 39/4/2 40/4/2
f 40/4/2 39/4/2 41/4/2
f 42/4/2 43/4/2 44/4/2
f 44/4/2 43/4/2 45/4/2
f 46/4/2 47/4/2 48/4/2
f 48/4/2 47/4/2 49/4/2
f 50/4/2 51/4/2 52/4/2
f 52/4/2 51/4/2 53/4/2
f 53/4/2 51/4/2 54/4/2
f 54/4/2 51/4/2 55/4/2
f 55/4/2 51/4/2 56/4/2
f 56/4/2 51/4/2 57/4/2
f 57/4/2 51/4/2 58/4/2
f 58/4/2 51/4/2 59/4/2
f 52/3/2 53/3/2 60/3/2
f 53/2/2 54/2/2 61/2/2
f 60/3/2 53/3/2 61/3/2
f 54/3/2 55/3/2 62/3/2
f 61/2/2 54/2/2 62/2/2
f 55/2/2 56/2/2 63/2/2
f 62/3/2 55/3/2 63/3/2
f 56/3/2 57/3/2 64/3/2
f 63/2/2 56/2/2 64/2/2
f 57/4/2 58/4/2 65/4/2
f 64/3/2 57/3/2 65/3/2
f 58/3/2 59/3/2 66/3/2
f 65/4/2 58/4/2 66/4/2
f 59/4/2 51/4/2 67/4/2
f 66/3/2 59/3/2 67/3/2
f 65/4/2 66/4/2 68/4/2
f 66/4/2 67/4/2 68/4/2
f 67/4/2 51/4/2 69/4/2
f 68/4/2 67/4/2 69/4/2
f 65/4/2 68/4/2 70/4/2
f 70/4/2 68/4/2 71/4/2
f 69/4/2 51/4/2 72/4/2
f 72/4/2 51/4/2 73/4/2
f 76/4/3 75/4/3 74/4/3
f 77/4/3 75/4/3 76/4/3
f 78/4/3 75/4/3 77/4/3
f 79/4/3 76/4/3 74/4/3
f 79/2/3 77/2/3 76/2/3
f 80/2/3 77/2/3 79/2/3
f 81/4/3 79/4/3 74/4/3
f 81/3/3 80/3/3 79/3/3
f 82/3/3 80/3/3 81/3/3
f 83/4/3 81/4/3 74/4/3
f 83/2/3 82/2/3 81/2/3
f 84/2/3 82/2/3 83/2/3
f 85/4/3 83/4/3 74/4/3
f 85/3/3 84/3/3 83/3/3
f 86/3/3 84/3/3 85/3/3
f 87/4/3 85/4/3 74/4/3
f 87/2/3 86/2/3 85/2/3
f 88/2/3 86/2/3 87/2/3
f 89/4/3 87/4/3 74/4/3
f 89/3/3 88/3/3 87/3/3
f 90/3/3 88/3/3 89/3/3
f 91/4/3 89/4/3 74/4/3
f 91/2/3 90/2/3 89/2/3
f 92/2/3 90/2/3 91/2/3
f 93/4/3 91/4/3 74/4/3
f 93/3/3 92/3/3 91/3/3
f 94/3/3 92/3/3 93/3/3
f 95/4/3 93/4/3 74/4/3
f 95/2/3 94/2/3 93/2/3
f 96/2/3 94/2/3 95/2/3
f 97/4/3 95/4/3 74/4/3
f 97/3/3 96/3/3 95/3/3
f 98/3/3 96/3/3 97/3/3
f 99/4/3 97/4/3 74/4/3
f 99/1/3 98/1/3 97/1/3
f 100/1/3 98/1/3 99/1/3
f 101/4/3 99/4/3 74/4/3
f 101/3/3 100/3/3 99/3/3
f 102/3/3 100/3/3 101/3/3
f 103/4/3 101/4/3 74/4/3
f 103/2/3 102/2/3 101/2/3
f 104/2/3 102/2/3 103/2/3
f 105/4/3 103/4/3 74/4/3
f 105/3/3 104/3/3 103/3/3
f 106/3/3 104/3/3 105/3/3
f 107/4/3 105/4/3 74/4/3
f 107/2/3 106/2/3 105/2/3
f 108/2/3 106/2/3 107/2/3
f 109/4/3 107/4/3 74/4/3
f 109/3/3 108/3/3 107/3/3
f 110/3/3 108/3/3 109/3/3
f 111/4/3 109/4/3 74/4/3
f 111/2/3 110/2/3 109/2/3
f 112/2/3 110/2/3 111/2/3
f 113/4/3 111/4/3 74/4/3
f 113/3/3 112/3/3 111/3/3
f 114/3/3 112/3/3 113/3/3
f 115/4/3 113/4/3 74/4/3
f 115/2/3 114/2/3 113/2/3
f 116/2/3 114/2/3 115/2/3
f 117/4/3 115/4/3 74/4/3
f 118/3/3 116/3/3 115/3/3
f 118/4/3 115/4/3 117/4/3
f 119/3/3 116/3/3 118/3/3
f 122/6/3 121/6/3 120/6/3
f 123/6/3 121/6/3 122/6/3
f 124/6/3 121/6/3 123/6/3
f 125/6/3 121/6/3 124/6/3
f 126/6/3 121/6/3 125/6/3
f 127/6/3 121/6/3 126/6/3
f 128/6/3 121/6/3 127/6/3
f 129/6/3 121/6/3 128/6/3
f 130/6/3 121/6/3 129/6/3
f 131/6/3 121/6/3 130/6/3
f 132/6/3 121/6/3 131/6/3
f 133/6/3 121/6/3 132/6/3
f 134/6/3 121/6/3 133/6/3
f 135/6/3 121/6/3 134/6/3
f 136/6/3 121/6/3 135/6/3
f 140/4/3 138/4/3 137/4/3
f 141/4/3 140/4/3 139/4/3
f 142/4/3 140/4/3 141/4/3
f 143/4/3 140/4/3 142/4/3
f 144/4/3 140/4/3 143/4/3
f 145/4/3 140/4/3 144/4/3
f 146/4/3 140/4/3 145/4/3
f 147/4/3 140/4/3 146/4/3
f 148/4/3 140/4/3 147/4/3
f 149/4/3 140/4/3 148/4/3
f 150/4/3 138/4/3 140/4/3
f 150/4/3 140/4/3 149/4/3
f 154/4/3 152/4/3 151/4/3
f 156/4/3 154/4/3 153/4/3
f 158/4/3 156/4/3 155/4/3
f 160/4/3 158/4/3 157/4/3
f 162/4/3 160/4/3 159/4/3
f 164/4/3 162/4/3 161/4/3
f 165/4/3 164/4/3 163/4/3
f 166/4/3 152/4/3 154/4/3
f 166/4/3 164/4/3 165/4/3
f 166/4/3 154/4/3 156/4/3
f 166/4/3 162/4/3 164/4/3
f 166/4/3 156/4/3 158/4/3
f 166/4/3 160/4/3 162/4/3
f 166/4/3 158/4/3 160/4/3
f 167/6/4 168/6/4 169/6/4
f 169/6/4 168/6/4 170/6/4
f 171/4/4 172/4/4 174/4/4
f 173/4/4 174/4/4 176/4/4
f 175/4/4 176/4/4 178/4/4
f 177/4/4 178/4/4 180/4/4
f 179/4/4 180/4/4 182/4/4
f 181/4/4 182/4/4 184/4/4
f 183/4/4 184/4/4 185/4/4
f 174/4/4 172/4/4 186/4/4
f 185/4/4 184/4/4 186/4/4
f 176/4/4 174/4/4 186/4/4
f 184/4/4 182/4/4 186/4/4
f 178/4/4 176/4/4 186/4/4
f 182/4/4 180/4/4 186/4/4
f 180/4/4 178/4/4 186/4/4
f 187/4/4 188/4/4 189/4/4
f 189/4/4 188/4/4 190/4/4
f 193/4/5 192/4/5 191/4/5
f 194/4/5 192/4/5 193/4/5
f 202/3/6 203/3/6 216/3/6
f 203/2/6 204/2/6 217/2/6
f 216/3/6 203/3/6 217/3/6
f 204/3/6 205/3/6 218/3/6
f 217/2/6 204/2/6 218/2/6
f 205/1/6 206/1/6 219/1/6
f 218/3/6 205/3/6 219/3/6
f 202/3/6 216/3/6 220/3/6
f 220/3/6 216/3/6 221/3/6
f 219/1/6 206/1/6 222/1/6
f 216/1/6 217/1/6 222/1/6
f 217/1/6 218/1/6 222/1/6
f 218/1/6 219/1/6 222/1/6
f 222/1/6 206/1/6 223/1/6
f 223/1/6 206/1/6 224/1/6
f 224/1/6 206/1/6 225/1/6
f 225/1/6 206/1/6 226/1/6
f 226/1/6 206/1/6 227/1/6
f 206/3/6 207/3/6 228/3/6
f 227/1/6 206/1/6 228/1/6
f 228/3/6 207/3/6 229/3/6
f 221/3/6 216/3/6 230/3/6
f 220/1/6 221/1/6 230/1/6
f 216/1/6 222/1/6 231/1/6
f 230/3/6 216/3/6 231/3/6
f 199/2/6 200/2/6 232/2/6
f 200/3/6 201/3/6 232/3/6
f 201/2/6 202/2/6 233/2/6
f 232/3/6 201/3/6 233/3/6
f 226/3/6 227/3/6 234/3/6
f 225/2/6 226/2/6 234/2/6
f 228/1/6 229/1/6 235/1/6
f 234/3/6 227/3/6 235/3/6
f 227/1/6 228/1/6 235/1/6
f 229/3/6 207/3/6 236/3/6
f 235/1/6 229/1/6 236/1/6
f 207/2/6 208/2/6 237/2/6
f 236/3/6 207/3/6 237/3/6
f 214/3/6 215/3/6 238/3/6
f 213/2/6 214/2/6 238/2/6
f 238/3/6 215/3/6 239/3/6
f 199/2/6 232/2/6 240/2/6
f 232/2/6 233/2/6 240/2/6
f 233/2/6 202/2/6 241/2/6
f 240/2/6 233/2/6 241/2/6
f 234/2/6 235/2/6 242/2/6
f 225/2/6 234/2/6 242/2/6
f 235/2/6 236/2/6 242/2/6
f 236/2/6 237/2/6 242/2/6
f 237/2/6 208/2/6 243/2/6
f 242/2/6 237/2/6 243/2/6
f 213/2/6 238/2/6 244/2/6
f 238/2/6 239/2/6 244/2/6
f 244/2/6 239/2/6 245/2/6
f 230/1/6 231/1/6 246/1/6
f 202/3/6 220/3/6 246/3/6
f 220/1/6 230/1/6 246/1/6
f 231/1/6 222/1/6 247/1/6
f 246/1/6 231/1/6 247/1/6
f 242/3/6 243/3/6 248/3/6
f 248/3/6 243/3/6 249/3/6
f 247/1/6 222/1/6 250/1/6
f 246/3/6 247/3/6 250/3/6
f 250/1/6 222/1/6 251/1/6
f 251/1/6 222/1/6 252/1/6
f 222/3/6 223/3/6 253/3/6
f 252/1/6 222/1/6 253/1/6
f 242/3/6 248/3/6 254/3/6
f 248/1/6 249/1/6 255/1/6
f 254/3/6 248/3/6 255/3/6
f 254/1/6 255/1/6 256/1/6
f 255/1/6 249/1/6 256/1/6
f 249/3/6 243/3/6 257/3/6
f 256/1/6 249/1/6 257/1/6
f 254/1/6 256/1/6 258/1/6
f 242/3/6 254/3/6 258/3/6
f 256/3/6 257/3/6 259/3/6
f 258/1/6 256/1/6 259/1/6
f 197/2/6 198/2/6 260/2/6
f 198/3/6 199/3/6 260/3/6
f 199/2/6 240/2/6 261/2/6
f 260/3/6 199/3/6 261/3/6
f 223/2/6 224/2/6 262/2/6
f 224/3/6 225/3/6 262/3/6
f 225/2/6 242/2/6 263/2/6
f 262/3/6 225/3/6 263/3/6
f 211/2/6 212/2/6 264/2/6
f 212/3/6 213/3/6 264/3/6
f 213/2/6 244/2/6 265/2/6
f 264/3/6 213/3/6 265/3/6
f 197/2/6 260/2/6 266/2/6
f 260/2/6 261/2/6 266/2/6
f 261/2/6 240/2/6 267/2/6
f 266/2/6 261/2/6 267/2/6
f 223/2/6 262/2/6 268/2/6
f 262/2/6 263/2/6 268/2/6
f 263/2/6 242/2/6 269/2/6
f 268/2/6 263/2/6 269/2/6
f 211/2/6 264/2/6 270/2/6
f 264/2/6 265/2/6 270/2/6
f 265/2/6 244/2/6 271/2/6
f 270/2/6 265/2/6 271/2/6
f 195/2/6 196/2/6 272/2/6
f 196/3/6 197/3/6 272/3/6
f 197/2/6 266/2/6 273/2/6
f 272/3/6 197/3/6 273/3/6
f 251/2/6 252/2/6 274/2/6
f 252/3/6 253/3/6 274/3/6
f 223/2/6 268/2/6 275/2/6
f 274/3/6 253/3/6 275/3/6
f 253/3/6 223/3/6 275/3/6
f 209/2/6 210/2/6 276/2/6
f 210/3/6 211/3/6 276/3/6
f 211/2/6 270/2/6 277/2/6
f 276/3/6 211/3/6 277/3/6
f 195/2/6 272/2/6 278/2/6
f 272/2/6 273/2/6 278/2/6
f 273/2/6 266/2/6 279/2/6
f 278/2/6 273/2/6 279/2/6
f 274/2/6 275/2/6 280/2/6
f 251/2/6 274/2/6 280/2/6
f 275/2/6 268/2/6 281/2/6
f 280/2/6 275/2/6 281/2/6
f 209/2/6 276/2/6 282/2/6
f 276/2/6 277/2/6 282/2/6
f 277/2/6 270/2/6 283/2/6
f 282/2/6 277/2/6 283/2/6
f 195/2/6 278/2/6 284/2/6
f 278/3/6 279/3/6 285/3/6
f 284/2/6 278/2/6 285/2/6
f 279/2/6 266/2/6 286/2/6
f 285/3/6 279/3/6 286/3/6
f 266/3/6 267/3/6 287/3/6
f 286/2/6 266/2/6 287/2/6
f 267/2/6 240/2/6 288/2/6
f 287/3/6 267/3/6 288/3/6
f 240/3/6 241/3/6 289/3/6
f 288/2/6 240/2/6 289/2/6
f 241/2/6 202/2/6 290/2/6
f 289/3/6 241/3/6 290/3/6
f 202/3/6 246/3/6 291/3/6
f 290/2/6 202/2/6 291/2/6
f 246/3/6 250/3/6 291/3/6
f 250/3/6 251/3/6 291/3/6
f 251/2/6 280/2/6 292/2/6
f 291/3/6 251/3/6 292/3/6
f 280/3/6 281/3/6 293/3/6
f 292/2/6 280/2/6 293/2/6
f 281/2/6 268/2/6 294/2/6
f 293/3/6 281/3/6 294/3/6
f 268/3/6 269/3/6 295/3/6
f 294/2/6 268/2/6 295/2/6
f 269/2/6 242/2/6 296/2/6
f 295/3/6 269/3/6 296/3/6
f 258/3/6 259/3/6 297/3/6
f 296/2/6 242/2/6 297/2/6
f 242/3/6 258/3/6 297/3/6
f 259/3/6 257/3/6 298/3/6
f 297/3/6 259/3/6 298/3/6
f 257/3/6 243/3/6 298/3/6
f 208/3/6 209/3/6 299/3/6
f 243/2/6 208/2/6 299/2/6
f 209/2/6 282/2/6 300/2/6
f 299/3/6 209/3/6 300/3/6
f 243/2/6 299/2/6 301/2/6
f 299/2/6 300/2/6 301/2/6
f 300/2/6 282/2/6 302/2/6
f 301/2/6 300/2/6 302/2/6
f 298/3/6 243/3/6 303/3/6
f 303/3/6 243/3/6 304/3/6
f 243/2/6 301/2/6 305/2/6
f 304/3/6 243/3/6 305/3/6
f 271/2/6 244/2/6 306/2/6
f 244/3/6 245/3/6 306/3/6
f 306/3/6 245/3/6 307/3/6
f 304/2/6 305/2/6 308/2/6
f 305/2/6 301/2/6 309/2/6
f 308/2/6 305/2/6 309/2/6
f 271/2/6 306/2/6 310/2/6
f 306/2/6 307/2/6 310/2/6
f 310/2/6 307/2/6 311/2/6
f 270/3/6 271/3/6 312/3/6
f 283/2/6 270/2/6 312/2/6
f 271/2/6 310/2/6 313/2/6
f 312/3/6 271/3/6 313/3/6
f 283/2/6 312/2/6 314/2/6
f 312/2/6 313/2/6 314/2/6
f 313/2/6 310/2/6 315/2/6
f 314/2/6 313/2/6 315/2/6
f 308/3/6 309/3/6 316/3/6
f 309/2/6 301/2/6 317/2/6
f 316/3/6 309/3/6 317/3/6
f 301/3/6 302/3/6 318/3/6
f 317/2/6 301/2/6 318/2/6
f 302/2/6 282/2/6 319/2/6
f 318/3/6 302/3/6 319/3/6
f 282/3/6 283/3/6 320/3/6
f 319/2/6 282/2/6 320/2/6
f 283/2/6 314/2/6 321/2/6
f 320/3/6 283/3/6 321/3/6
f 314/3/6 315/3/6 322/3/6
f 321/2/6 314/2/6 322/2/6
f 315/2/6 310/2/6 323/2/6
f 322/3/6 315/3/6 323/3/6
f 310/3/6 311/3/6 324/3/6
f 323/2/6 310/2/6 324/2/6
f 324/3/6 311/3/6 325/3/6
f 326/5/6 327/5/6 328/5/6
f 328/5/6 327/5/6 329/5/6
f 330/6/6 331/6/6 332/6/6
f 332/6/6 331/6/6 333/6/6
f 333/6/6 331/6/6 334/6/6
f 334/6/6 331/6/6 335/6/6
f 330/6/6 332/6/6 336/6/6
f 332/5/6 333/5/6 336/5/6
f 333/6/6 334/6/6 337/6/6
f 336/5/6 333/5/6 337/5/6
f 334/5/6 335/5/6 338/5/6
f 337/6/6 334/6/6 338/6/6
f 335/6/6 331/6/6 339/6/6
f 338/5/6 335/5/6 339/5/6
f 337/6/6 338/6/6 340/6/6
f 336/6/6 337/6/6 340/6/6
f 338/6/6 339/6/6 340/6/6
f 330/6/6 336/6/6 340/6/6
f 339/6/6 331/6/6 341/6/6
f 340/6/6 339/6/6 341/6/6
f 342/4/6 343/4/6 344/4/6
f 344/4/6 343/4/6 345/4/6
f 346/4/6 347/4/6 348/4/6
f 348/4/6 347/4/6 349/4/6
f 350/4/6 351/4/6 352/4/6
f 352/4/6 351/4/6 353/4/6
f 354/4/6 355/4/6 356/4/6
f 356/4/6 355/4/6 357/4/6
f 358/4/6 359/4/6 360/4/6
f 360/4/6 359/4/6 361/4/6
f 362/4/6 363/4/6 364/4/6
f 364/4/6 363/4/6 365/4/6
f 366/4/6 367/4/6 368/4/6
f 368/4/6 367/4/6 369/4/6
f 370/4/6 371/4/6 372/4/6
f 372/4/6 373/4/6 374/4/6
f 374/4/6 373/4/6 375/4/6
f 372/4/6 374/4/6 376/4/6
f 370/4/6 372/4/6 378/4/6
f 376/4/6 377/4/6 378/4/6
f 372/4/6 376/4/6 378/4/6
f 378/4/6 377/4/6 379/4/6
