# MagicaVoxel @ Ephtracy

# group
g 2x2 first 1(1)-2

# material
mtllib 2x2 first 1(1)-2.mtl
usemtl palette

# normals
vn -1 0 0
vn 1 0 0
vn 0 0 1
vn 0 0 -1
vn 0 -1 0
vn 0 1 0

# texcoords
vt 0.861328 0.5
vt 0.865234 0.5
vt 0.869141 0.5
vt 0.947266 0.5
vt 0.966797 0.5
vt 0.974609 0.5
vt 0.990234 0.5

# verts
v -63 0 63
v -63 0 -63
v -63 16 2
v -63 16 -1
v -63 16 -2
v -63 16 -31
v -63 17 2
v -63 17 -1
v -63 17 -2
v -63 17 -31
v -63 53 -32
v -63 53 -61
v -63 80 63
v -63 80 2
v -63 80 -31
v -63 80 -32
v -63 80 -61
v -63 80 -63
v -19 17 63
v -19 17 60
v -19 59 63
v -19 59 60
v 7 37 63
v 7 37 60
v 7 58 63
v 7 58 60
v 32 37 63
v 32 37 60
v 32 58 63
v 32 58 60
v 60 37 63
v 60 37 60
v 60 58 63
v 60 58 60
v 61 17 60
v 61 17 3
v 61 17 2
v 61 17 -18
v 61 17 -29
v 61 17 -30
v 61 17 -61
v 61 59 63
v 61 59 60
v 61 80 63
v 61 80 3
v 61 80 2
v 61 80 -61
v -62 17 63
v -62 17 3
v -62 80 63
v -62 80 3
v -59 49 -32
v -59 49 -61
v -59 53 -32
v -59 53 -61
v -49 45 -32
v -49 45 -61
v -49 49 -32
v -49 49 -61
v -39 41 -32
v -39 41 -61
v -39 45 -32
v -39 45 -61
v -29 37 -32
v -29 37 -61
v -29 41 -32
v -29 41 -61
v -19 33 -32
v -19 33 -61
v -19 37 -32
v -19 37 -61
v -17 37 63
v -17 37 60
v -17 58 63
v -17 58 60
v -9 29 -32
v -9 29 -61
v -9 33 -32
v -9 33 -61
v 1 25 -32
v 1 25 -61
v 1 29 -32
v 1 29 -61
v 9 37 63
v 9 37 60
v 9 58 63
v 9 58 60
v 11 21 -32
v 11 21 -61
v 11 25 -32
v 11 25 -61
v 21 17 -31
v 21 17 -61
v 21 21 -32
v 21 21 -61
v 21 80 -31
v 21 80 -32
v 34 37 63
v 34 37 60
v 34 58 63
v 34 58 60
v 62 21 13
v 62 21 7
v 62 26 5
v 62 26 -9
v 62 29 13
v 62 29 7
v 62 35 16
v 62 35 5
v 62 35 -9
v 62 35 -13
v 62 61 16
v 62 61 -13
v 63 0 63
v 63 0 -21
v 63 0 -63
v 63 2 -17
v 63 2 -21
v 63 8 -13
v 63 8 -14
v 63 9 -13
v 63 9 -14
v 63 10 -17
v 63 10 -21
v 63 11 -6
v 63 11 -9
v 63 14 -21
v 63 14 -30
v 63 16 -6
v 63 16 -9
v 63 21 13
v 63 21 7
v 63 21 -25
v 63 21 -28
v 63 24 -25
v 63 24 -27
v 63 25 -30
v 63 25 -32
v 63 26 5
v 63 26 -9
v 63 26 -27
v 63 26 -28
v 63 29 13
v 63 29 7
v 63 31 -32
v 63 31 -46
v 63 35 16
v 63 35 5
v 63 35 -9
v 63 35 -13
v 63 35 -39
v 63 35 -40
v 63 35 -46
v 63 35 -56
v 63 36 -39
v 63 36 -40
v 63 47 -56
v 63 47 -59
v 63 53 -59
v 63 53 -63
v 63 54 -57
v 63 54 -60
v 63 57 -57
v 63 57 -60
v 63 59 -55
v 63 59 -56
v 63 60 -55
v 63 60 -56
v 63 61 16
v 63 61 -13
v 63 80 63
v 63 80 -63
v -63 0 63
v -63 80 63
v -62 16 63
v -62 17 63
v -62 80 63
v -19 16 63
v -19 17 63
v -19 59 63
v -17 19 63
v -17 37 63
v -17 58 63
v 7 19 63
v 7 37 63
v 7 58 63
v 9 19 63
v 9 37 63
v 9 58 63
v 32 19 63
v 32 37 63
v 32 58 63
v 34 19 63
v 34 37 63
v 34 58 63
v 60 19 63
v 60 37 63
v 60 58 63
v 61 16 63
v 61 17 63
v 61 58 63
v 61 59 63
v 61 80 63
v 62 17 63
v 62 58 63
v 63 0 63
v 63 80 63
v 62 21 7
v 62 29 7
v 63 21 7
v 63 29 7
v -62 17 3
v -62 80 3
v 61 17 3
v 61 80 3
v 62 26 -9
v 62 35 -9
v 63 26 -9
v 63 35 -9
v 62 35 -13
v 62 61 -13
v 63 35 -13
v 63 61 -13
v -63 17 -31
v -63 80 -31
v -55 17 -31
v -54 17 -31
v -43 17 -31
v -42 17 -31
v -31 17 -31
v -30 17 -31
v -19 17 -31
v -18 17 -31
v -7 17 -31
v -6 17 -31
v 5 17 -31
v 6 17 -31
v 17 17 -31
v 18 17 -31
v 21 17 -31
v 21 80 -31
v -63 53 -61
v -63 80 -61
v -59 49 -61
v -59 53 -61
v -49 45 -61
v -49 49 -61
v -39 41 -61
v -39 45 -61
v -29 37 -61
v -29 41 -61
v -19 33 -61
v -19 37 -61
v -9 29 -61
v -9 33 -61
v 1 25 -61
v 1 29 -61
v 11 21 -61
v 11 25 -61
v 21 17 -61
v 21 21 -61
v 29 17 -61
v 30 17 -61
v 41 17 -61
v 42 17 -61
v 53 17 -61
v 54 17 -61
v 61 17 -61
v 61 80 -61
v -19 17 60
v -19 59 60
v -17 19 60
v -17 37 60
v -17 58 60
v 7 19 60
v 7 37 60
v 7 58 60
v 9 19 60
v 9 37 60
v 9 58 60
v 32 19 60
v 32 37 60
v 32 58 60
v 34 19 60
v 34 37 60
v 34 58 60
v 60 19 60
v 60 37 60
v 60 58 60
v 61 17 60
v 61 59 60
v 62 35 16
v 62 61 16
v 63 35 16
v 63 61 16
v 62 21 13
v 62 29 13
v 63 21 13
v 63 29 13
v 62 26 5
v 62 35 5
v 63 26 5
v 63 35 5
v -63 17 2
v -63 80 2
v -55 17 2
v -54 17 2
v -43 17 2
v -42 17 2
v -31 17 2
v -30 17 2
v -19 17 2
v -18 17 2
v -7 17 2
v -6 17 2
v 5 17 2
v 6 17 2
v 17 17 2
v 18 17 2
v 29 17 2
v 30 17 2
v 41 17 2
v 42 17 2
v 47 17 2
v 61 17 2
v 61 80 2
v -63 53 -32
v -63 80 -32
v -59 49 -32
v -59 53 -32
v -49 45 -32
v -49 49 -32
v -39 41 -32
v -39 45 -32
v -29 37 -32
v -29 41 -32
v -19 33 -32
v -19 37 -32
v -9 29 -32
v -9 33 -32
v 1 25 -32
v 1 29 -32
v 11 21 -32
v 11 25 -32
v 21 21 -32
v 21 80 -32
v -63 0 -63
v -63 80 -63
v -18 18 -63
v -18 19 -63
v -17 18 -63
v -17 19 -63
v -16 15 -63
v -16 17 -63
v -14 15 -63
v -14 17 -63
v -12 0 -63
v -12 11 -63
v -8 11 -63
v -8 14 -63
v 1 0 -63
v 1 1 -63
v 3 1 -63
v 3 14 -63
v 15 0 -63
v 15 20 -63
v 16 29 -63
v 16 30 -63
v 20 29 -63
v 20 30 -63
v 21 20 -63
v 21 24 -63
v 38 24 -63
v 38 31 -63
v 39 37 -63
v 39 38 -63
v 40 37 -63
v 40 38 -63
v 40 40 -63
v 40 41 -63
v 42 31 -63
v 42 40 -63
v 47 41 -63
v 47 49 -63
v 50 53 -63
v 50 54 -63
v 52 49 -63
v 52 52 -63
v 52 53 -63
v 52 54 -63
v 57 49 -63
v 57 52 -63
v 62 49 -63
v 62 53 -63
v 63 0 -63
v 63 53 -63
v 63 80 -63
v -63 0 63
v 63 0 63
v 62 0 -21
v 63 0 -21
v -12 0 -62
v 1 0 -62
v 15 0 -62
v 62 0 -62
v -63 0 -63
v -12 0 -63
v 1 0 -63
v 15 0 -63
v 63 0 -63
v 62 29 13
v 63 29 13
v 62 29 7
v 63 29 7
v -17 58 63
v 7 58 63
v 9 58 63
v 32 58 63
v 34 58 63
v 60 58 63
v -17 58 60
v 7 58 60
v 9 58 60
v 32 58 60
v 34 58 60
v 60 58 60
v 62 61 16
v 63 61 16
v 62 61 -13
v 63 61 -13
v -62 17 63
v -19 17 63
v -19 17 60
v 61 17 60
v -62 17 3
v 61 17 3
v -63 17 2
v -55 17 2
v -54 17 2
v -43 17 2
v -42 17 2
v -31 17 2
v -30 17 2
v -19 17 2
v -18 17 2
v -7 17 2
v -6 17 2
v 5 17 2
v 6 17 2
v 17 17 2
v 18 17 2
v 29 17 2
v 30 17 2
v 41 17 2
v 42 17 2
v 47 17 2
v 61 17 2
v -63 17 -1
v -55 17 -1
v -18 17 -1
v -7 17 -1
v 30 17 -1
v 41 17 -1
v -63 17 -2
v -55 17 -2
v -18 17 -2
v -7 17 -2
v 30 17 -2
v 41 17 -2
v 44 17 -4
v 45 17 -4
v 44 17 -5
v 45 17 -5
v 47 17 -15
v 52 17 -15
v -30 17 -17
v -19 17 -17
v 18 17 -17
v 29 17 -17
v -30 17 -18
v -19 17 -18
v 18 17 -18
v 29 17 -18
v 52 17 -18
v 53 17 -18
v 54 17 -18
v 61 17 -18
v 54 17 -22
v 58 17 -22
v 54 17 -23
v 55 17 -23
v 58 17 -23
v 60 17 -23
v 55 17 -24
v 60 17 -24
v 54 17 -29
v 61 17 -29
v 54 17 -30
v 61 17 -30
v -63 17 -31
v -55 17 -31
v -54 17 -31
v -43 17 -31
v -42 17 -31
v -31 17 -31
v -30 17 -31
v -19 17 -31
v -18 17 -31
v -7 17 -31
v -6 17 -31
v 5 17 -31
v 6 17 -31
v 17 17 -31
v 18 17 -31
v 21 17 -31
v 42 17 -43
v 53 17 -43
v 42 17 -44
v 53 17 -44
v 30 17 -58
v 41 17 -58
v 30 17 -59
v 41 17 -59
v 21 17 -61
v 29 17 -61
v 30 17 -61
v 41 17 -61
v 42 17 -61
v 53 17 -61
v 54 17 -61
v 61 17 -61
v 62 21 13
v 63 21 13
v 62 21 7
v 63 21 7
v 11 21 -32
v 21 21 -32
v 11 21 -61
v 21 21 -61
v 1 25 -32
v 11 25 -32
v 1 25 -61
v 11 25 -61
v 62 26 5
v 63 26 5
v 62 26 -9
v 63 26 -9
v -9 29 -32
v 1 29 -32
v -9 29 -61
v 1 29 -61
v -19 33 -32
v -9 33 -32
v -19 33 -61
v -9 33 -61
v 62 35 16
v 63 35 16
v 62 35 5
v 63 35 5
v 62 35 -9
v 63 35 -9
v 62 35 -13
v 63 35 -13
v -17 37 63
v 7 37 63
v 9 37 63
v 32 37 63
v 34 37 63
v 60 37 63
v -17 37 60
v 7 37 60
v 9 37 60
v 32 37 60
v 34 37 60
v 60 37 60
v -29 37 -32
v -19 37 -32
v -29 37 -61
v -19 37 -61
v -39 41 -32
v -29 41 -32
v -39 41 -61
v -29 41 -61
v -49 45 -32
v -39 45 -32
v -49 45 -61
v -39 45 -61
v -59 49 -32
v -49 49 -32
v -59 49 -61
v -49 49 -61
v -63 53 -32
v -59 53 -32
v -63 53 -61
v -59 53 -61
v -19 59 63
v 61 59 63
v -19 59 60
v 61 59 60
v -63 80 63
v -62 80 63
v 61 80 63
v 63 80 63
v -62 80 3
v 61 80 3
v -63 80 2
v 61 80 2
v -63 80 -31
v 21 80 -31
v -63 80 -32
v 21 80 -32
v -63 80 -61
v 61 80 -61
v -63 80 -63
v 63 80 -63

# faces
f 3/5/1 2/5/1 1/5/1
f 4/5/1 2/5/1 3/5/1
f 5/5/1 2/5/1 4/5/1
f 6/5/1 2/5/1 5/5/1
f 7/5/1 3/5/1 1/5/1
f 7/3/1 4/3/1 3/3/1
f 8/2/1 5/2/1 4/2/1
f 8/3/1 4/3/1 7/3/1
f 9/3/1 6/3/1 5/3/1
f 9/2/1 5/2/1 8/2/1
f 10/5/1 2/5/1 6/5/1
f 10/3/1 6/3/1 9/3/1
f 11/5/1 2/5/1 10/5/1
f 12/5/1 2/5/1 11/5/1
f 13/5/1 7/5/1 1/5/1
f 14/5/1 7/5/1 13/5/1
f 15/5/1 11/5/1 10/5/1
f 16/5/1 11/5/1 15/5/1
f 17/5/1 2/5/1 12/5/1
f 18/5/1 2/5/1 17/5/1
f 21/7/1 20/7/1 19/7/1
f 22/7/1 20/7/1 21/7/1
f 25/7/1 24/7/1 23/7/1
f 26/7/1 24/7/1 25/7/1
f 29/7/1 28/7/1 27/7/1
f 30/7/1 28/7/1 29/7/1
f 33/7/1 32/7/1 31/7/1
f 34/7/1 32/7/1 33/7/1
f 43/5/1 36/5/1 35/5/1
f 44/5/1 43/5/1 42/5/1
f 45/5/1 36/5/1 43/5/1
f 45/5/1 43/5/1 44/5/1
f 46/5/1 41/5/1 40/5/1
f 46/5/1 38/5/1 37/5/1
f 46/5/1 39/5/1 38/5/1
f 46/5/1 40/5/1 39/5/1
f 47/5/1 41/5/1 46/5/1
f 48/5/2 49/5/2 50/5/2
f 50/5/2 49/5/2 51/5/2
f 52/5/2 53/5/2 54/5/2
f 54/5/2 53/5/2 55/5/2
f 56/5/2 57/5/2 58/5/2
f 58/5/2 57/5/2 59/5/2
f 60/5/2 61/5/2 62/5/2
f 62/5/2 61/5/2 63/5/2
f 64/5/2 65/5/2 66/5/2
f 66/5/2 65/5/2 67/5/2
f 68/5/2 69/5/2 70/5/2
f 70/5/2 69/5/2 71/5/2
f 72/7/2 73/7/2 74/7/2
f 74/7/2 73/7/2 75/7/2
f 76/5/2 77/5/2 78/5/2
f 78/5/2 77/5/2 79/5/2
f 80/5/2 81/5/2 82/5/2
f 82/5/2 81/5/2 83/5/2
f 84/7/2 85/7/2 86/7/2
f 86/7/2 85/7/2 87/7/2
f 88/5/2 89/5/2 90/5/2
f 90/5/2 89/5/2 91/5/2
f 92/5/2 93/5/2 94/5/2
f 94/5/2 93/5/2 95/5/2
f 92/5/2 94/5/2 96/5/2
f 96/5/2 94/5/2 97/5/2
f 98/7/2 99/7/2 100/7/2
f 100/7/2 99/7/2 101/7/2
f 102/5/2 103/5/2 106/5/2
f 106/5/2 103/5/2 107/5/2
f 104/5/2 105/5/2 109/5/2
f 109/5/2 105/5/2 110/5/2
f 108/5/2 109/5/2 112/5/2
f 110/5/2 111/5/2 112/5/2
f 109/5/2 110/5/2 112/5/2
f 112/5/2 111/5/2 113/5/2
f 114/5/2 115/5/2 117/5/2
f 115/6/2 116/6/2 118/6/2
f 117/5/2 115/5/2 118/5/2
f 114/5/2 117/5/2 119/5/2
f 119/5/2 117/5/2 120/5/2
f 114/5/2 119/5/2 121/5/2
f 119/6/2 120/6/2 121/6/2
f 120/5/2 117/5/2 122/5/2
f 121/6/2 120/6/2 122/6/2
f 117/6/2 118/6/2 123/6/2
f 122/5/2 117/5/2 123/5/2
f 121/5/2 122/5/2 123/5/2
f 118/6/2 116/6/2 124/6/2
f 123/6/2 118/6/2 124/6/2
f 121/5/2 123/5/2 125/5/2
f 114/5/2 121/5/2 125/5/2
f 123/5/2 124/5/2 125/5/2
f 125/5/2 124/5/2 126/5/2
f 124/6/2 116/6/2 127/6/2
f 126/5/2 124/5/2 127/5/2
f 127/6/2 116/6/2 128/6/2
f 125/6/2 126/6/2 129/6/2
f 114/5/2 125/5/2 129/5/2
f 127/5/2 128/5/2 130/5/2
f 129/6/2 126/6/2 130/6/2
f 126/5/2 127/5/2 130/5/2
f 114/5/2 129/5/2 131/5/2
f 129/5/2 130/5/2 131/5/2
f 131/5/2 130/5/2 132/5/2
f 130/5/2 128/5/2 133/5/2
f 132/5/2 130/5/2 133/5/2
f 133/5/2 128/5/2 134/5/2
f 132/5/2 133/5/2 135/5/2
f 133/6/2 134/6/2 135/6/2
f 135/6/2 134/6/2 136/6/2
f 128/6/2 116/6/2 137/6/2
f 134/5/2 128/5/2 137/5/2
f 137/6/2 116/6/2 138/6/2
f 135/5/2 136/5/2 139/5/2
f 132/5/2 135/5/2 139/5/2
f 139/5/2 136/5/2 140/5/2
f 136/6/2 134/6/2 141/6/2
f 140/5/2 136/5/2 141/5/2
f 137/5/2 138/5/2 142/5/2
f 141/6/2 134/6/2 142/6/2
f 134/5/2 137/5/2 142/5/2
f 114/5/2 131/5/2 143/5/2
f 132/5/2 139/5/2 144/5/2
f 142/5/2 138/5/2 145/5/2
f 138/6/2 116/6/2 145/6/2
f 141/5/2 142/5/2 145/5/2
f 140/5/2 141/5/2 145/5/2
f 145/6/2 116/6/2 146/6/2
f 143/5/2 144/5/2 147/5/2
f 114/5/2 143/5/2 147/5/2
f 144/5/2 139/5/2 148/5/2
f 147/5/2 144/5/2 148/5/2
f 145/5/2 146/5/2 149/5/2
f 140/5/2 145/5/2 149/5/2
f 149/5/2 146/5/2 150/5/2
f 150/5/2 146/5/2 151/5/2
f 151/5/2 146/5/2 152/5/2
f 146/6/2 116/6/2 153/6/2
f 152/5/2 146/5/2 153/5/2
f 153/6/2 116/6/2 154/6/2
f 151/6/2 152/6/2 155/6/2
f 150/5/2 151/5/2 155/5/2
f 153/5/2 154/5/2 156/5/2
f 155/6/2 152/6/2 156/6/2
f 152/5/2 153/5/2 156/5/2
f 154/6/2 116/6/2 157/6/2
f 156/5/2 154/5/2 157/5/2
f 155/5/2 156/5/2 157/5/2
f 157/6/2 116/6/2 158/6/2
f 157/5/2 158/5/2 159/5/2
f 158/6/2 116/6/2 159/6/2
f 159/6/2 116/6/2 160/6/2
f 157/5/2 159/5/2 161/5/2
f 159/5/2 160/5/2 161/5/2
f 161/5/2 160/5/2 162/5/2
f 157/5/2 161/5/2 163/5/2
f 161/6/2 162/6/2 163/6/2
f 162/5/2 160/5/2 164/5/2
f 163/6/2 162/6/2 164/6/2
f 155/5/2 157/5/2 165/5/2
f 157/5/2 163/5/2 165/5/2
f 163/5/2 164/5/2 165/5/2
f 165/5/2 164/5/2 166/5/2
f 155/5/2 165/5/2 167/5/2
f 165/6/2 166/6/2 167/6/2
f 166/5/2 164/5/2 168/5/2
f 167/6/2 166/6/2 168/6/2
f 114/5/2 147/5/2 169/5/2
f 150/5/2 155/5/2 170/5/2
f 155/5/2 167/5/2 170/5/2
f 167/5/2 168/5/2 170/5/2
f 114/5/2 169/5/2 171/5/2
f 169/5/2 170/5/2 171/5/2
f 168/5/2 164/5/2 172/5/2
f 171/5/2 170/5/2 172/5/2
f 170/5/2 168/5/2 172/5/2
f 164/5/2 160/5/2 172/5/2
f 175/5/3 174/5/3 173/5/3
f 176/5/3 174/5/3 175/5/3
f 177/5/3 174/5/3 176/5/3
f 178/5/3 175/5/3 173/5/3
f 178/4/3 176/4/3 175/4/3
f 179/4/3 176/4/3 178/4/3
f 181/7/3 179/7/3 178/7/3
f 181/7/3 180/7/3 179/7/3
f 182/7/3 180/7/3 181/7/3
f 183/7/3 180/7/3 182/7/3
f 184/7/3 181/7/3 178/7/3
f 184/5/3 182/5/3 181/5/3
f 185/5/3 182/5/3 184/5/3
f 186/7/3 180/7/3 183/7/3
f 187/7/3 185/7/3 184/7/3
f 187/7/3 186/7/3 185/7/3
f 187/7/3 184/7/3 178/7/3
f 188/7/3 186/7/3 187/7/3
f 189/7/3 180/7/3 186/7/3
f 189/7/3 186/7/3 188/7/3
f 190/5/3 188/5/3 187/5/3
f 190/7/3 187/7/3 178/7/3
f 191/5/3 188/5/3 190/5/3
f 192/7/3 180/7/3 189/7/3
f 193/7/3 191/7/3 190/7/3
f 193/7/3 192/7/3 191/7/3
f 193/7/3 190/7/3 178/7/3
f 194/7/3 192/7/3 193/7/3
f 195/7/3 180/7/3 192/7/3
f 195/7/3 192/7/3 194/7/3
f 196/5/3 194/5/3 193/5/3
f 196/7/3 193/7/3 178/7/3
f 197/5/3 194/5/3 196/5/3
f 198/7/3 180/7/3 195/7/3
f 199/5/3 178/5/3 173/5/3
f 199/7/3 198/7/3 197/7/3
f 199/7/3 197/7/3 196/7/3
f 199/7/3 196/7/3 178/7/3
f 200/7/3 198/7/3 199/7/3
f 201/7/3 180/7/3 198/7/3
f 201/7/3 198/7/3 200/7/3
f 202/7/3 180/7/3 201/7/3
f 204/5/3 200/5/3 199/5/3
f 204/7/3 201/7/3 200/7/3
f 205/5/3 203/5/3 202/5/3
f 205/7/3 201/7/3 204/7/3
f 205/5/3 202/5/3 201/5/3
f 206/5/3 204/5/3 199/5/3
f 206/5/3 199/5/3 173/5/3
f 206/5/3 205/5/3 204/5/3
f 207/5/3 203/5/3 205/5/3
f 207/5/3 205/5/3 206/5/3
f 210/5/3 209/5/3 208/5/3
f 211/5/3 209/5/3 210/5/3
f 214/5/3 213/5/3 212/5/3
f 215/5/3 213/5/3 214/5/3
f 218/5/3 217/5/3 216/5/3
f 219/5/3 217/5/3 218/5/3
f 222/5/3 221/5/3 220/5/3
f 223/5/3 221/5/3 222/5/3
f 226/5/3 225/5/3 224/5/3
f 227/5/3 225/5/3 226/5/3
f 228/5/3 225/5/3 227/5/3
f 229/5/3 225/5/3 228/5/3
f 230/5/3 225/5/3 229/5/3
f 231/5/3 225/5/3 230/5/3
f 232/5/3 225/5/3 231/5/3
f 233/5/3 225/5/3 232/5/3
f 234/5/3 225/5/3 233/5/3
f 235/5/3 225/5/3 234/5/3
f 236/5/3 225/5/3 235/5/3
f 237/5/3 225/5/3 236/5/3
f 238/5/3 225/5/3 237/5/3
f 239/5/3 225/5/3 238/5/3
f 240/5/3 225/5/3 239/5/3
f 241/5/3 225/5/3 240/5/3
f 245/5/3 243/5/3 242/5/3
f 247/5/3 245/5/3 244/5/3
f 249/5/3 247/5/3 246/5/3
f 251/5/3 249/5/3 248/5/3
f 253/5/3 251/5/3 250/5/3
f 255/5/3 253/5/3 252/5/3
f 257/5/3 255/5/3 254/5/3
f 259/5/3 257/5/3 256/5/3
f 261/5/3 259/5/3 258/5/3
f 262/5/3 261/5/3 260/5/3
f 263/5/3 261/5/3 262/5/3
f 264/5/3 261/5/3 263/5/3
f 265/5/3 261/5/3 264/5/3
f 266/5/3 261/5/3 265/5/3
f 267/5/3 261/5/3 266/5/3
f 268/5/3 261/5/3 267/5/3
f 269/5/3 243/5/3 245/5/3
f 269/5/3 261/5/3 268/5/3
f 269/5/3 245/5/3 247/5/3
f 269/5/3 247/5/3 249/5/3
f 269/5/3 249/5/3 251/5/3
f 269/5/3 251/5/3 253/5/3
f 269/5/3 253/5/3 255/5/3
f 269/5/3 255/5/3 257/5/3
f 269/5/3 257/5/3 259/5/3
f 269/5/3 259/5/3 261/5/3
f 270/7/4 271/7/4 272/7/4
f 272/7/4 271/7/4 273/7/4
f 273/7/4 271/7/4 274/7/4
f 270/7/4 272/7/4 275/7/4
f 272/5/4 273/5/4 275/5/4
f 275/5/4 273/5/4 276/5/4
f 274/7/4 271/7/4 277/7/4
f 275/7/4 276/7/4 278/7/4
f 276/7/4 277/7/4 278/7/4
f 270/7/4 275/7/4 278/7/4
f 278/7/4 277/7/4 279/7/4
f 277/7/4 271/7/4 280/7/4
f 279/7/4 277/7/4 280/7/4
f 278/5/4 279/5/4 281/5/4
f 270/7/4 278/7/4 281/7/4
f 281/5/4 279/5/4 282/5/4
f 280/7/4 271/7/4 283/7/4
f 281/7/4 282/7/4 284/7/4
f 282/7/4 283/7/4 284/7/4
f 270/7/4 281/7/4 284/7/4
f 284/7/4 283/7/4 285/7/4
f 283/7/4 271/7/4 286/7/4
f 285/7/4 283/7/4 286/7/4
f 284/5/4 285/5/4 287/5/4
f 270/7/4 284/7/4 287/7/4
f 287/5/4 285/5/4 288/5/4
f 286/7/4 271/7/4 289/7/4
f 287/7/4 288/7/4 290/7/4
f 288/7/4 289/7/4 290/7/4
f 270/7/4 287/7/4 290/7/4
f 289/7/4 271/7/4 291/7/4
f 290/7/4 289/7/4 291/7/4
f 292/5/4 293/5/4 294/5/4
f 294/5/4 293/5/4 295/5/4
f 296/5/4 297/5/4 298/5/4
f 298/5/4 297/5/4 299/5/4
f 300/5/4 301/5/4 302/5/4
f 302/5/4 301/5/4 303/5/4
f 304/5/4 305/5/4 306/5/4
f 306/5/4 305/5/4 307/5/4
f 307/5/4 305/5/4 308/5/4
f 308/5/4 305/5/4 309/5/4
f 309/5/4 305/5/4 310/5/4
f 310/5/4 305/5/4 311/5/4
f 311/5/4 305/5/4 312/5/4
f 312/5/4 305/5/4 313/5/4
f 313/5/4 305/5/4 314/5/4
f 314/5/4 305/5/4 315/5/4
f 315/5/4 305/5/4 316/5/4
f 316/5/4 305/5/4 317/5/4
f 317/5/4 305/5/4 318/5/4
f 318/5/4 305/5/4 319/5/4
f 319/5/4 305/5/4 320/5/4
f 320/5/4 305/5/4 321/5/4
f 321/5/4 305/5/4 322/5/4
f 322/5/4 305/5/4 323/5/4
f 323/5/4 305/5/4 324/5/4
f 324/5/4 305/5/4 325/5/4
f 325/5/4 305/5/4 326/5/4
f 327/5/4 328/5/4 330/5/4
f 329/5/4 330/5/4 332/5/4
f 331/5/4 332/5/4 334/5/4
f 333/5/4 334/5/4 336/5/4
f 335/5/4 336/5/4 338/5/4
f 337/5/4 338/5/4 340/5/4
f 339/5/4 340/5/4 342/5/4
f 341/5/4 342/5/4 344/5/4
f 343/5/4 344/5/4 345/5/4
f 330/5/4 328/5/4 346/5/4
f 345/5/4 344/5/4 346/5/4
f 332/5/4 330/5/4 346/5/4
f 344/5/4 342/5/4 346/5/4
f 334/5/4 332/5/4 346/5/4
f 342/5/4 340/5/4 346/5/4
f 336/5/4 334/5/4 346/5/4
f 340/5/4 338/5/4 346/5/4
f 338/5/4 336/5/4 346/5/4
f 347/5/4 348/5/4 349/5/4
f 349/5/4 348/5/4 350/5/4
f 347/5/4 349/5/4 351/5/4
f 349/6/4 350/6/4 351/6/4
f 350/5/4 348/5/4 352/5/4
f 351/6/4 350/6/4 352/6/4
f 347/5/4 351/5/4 353/5/4
f 351/5/4 352/5/4 353/5/4
f 353/5/4 352/5/4 354/5/4
f 347/5/4 353/5/4 355/5/4
f 353/6/4 354/6/4 355/6/4
f 354/5/4 352/5/4 356/5/4
f 355/6/4 354/6/4 356/6/4
f 347/5/4 355/5/4 357/5/4
f 355/5/4 356/5/4 357/5/4
f 357/5/4 356/5/4 358/5/4
f 357/6/4 358/6/4 359/6/4
f 358/5/4 356/5/4 359/5/4
f 359/5/4 356/5/4 360/5/4
f 357/6/4 359/6/4 361/6/4
f 359/6/4 360/6/4 361/6/4
f 361/6/4 360/6/4 362/6/4
f 361/5/4 362/5/4 363/5/4
f 362/6/4 360/6/4 363/6/4
f 360/5/4 356/5/4 364/5/4
f 363/6/4 360/6/4 364/6/4
f 361/5/4 363/5/4 365/5/4
f 363/5/4 364/5/4 365/5/4
f 352/5/4 348/5/4 366/5/4
f 365/5/4 364/5/4 366/5/4
f 356/5/4 352/5/4 366/5/4
f 364/5/4 356/5/4 366/5/4
f 366/5/4 348/5/4 367/5/4
f 367/5/4 348/5/4 368/5/4
f 366/5/4 367/5/4 369/5/4
f 367/6/4 368/6/4 369/6/4
f 368/5/4 348/5/4 370/5/4
f 369/6/4 368/6/4 370/6/4
f 365/6/4 366/6/4 371/6/4
f 366/5/4 369/5/4 371/5/4
f 369/5/4 370/5/4 371/5/4
f 371/5/4 370/5/4 372/5/4
f 371/6/4 372/6/4 373/6/4
f 372/5/4 370/5/4 373/5/4
f 370/5/4 348/5/4 374/5/4
f 373/5/4 370/5/4 374/5/4
f 374/5/4 348/5/4 375/5/4
f 375/5/4 348/5/4 376/5/4
f 374/5/4 375/5/4 377/5/4
f 375/6/4 376/6/4 377/6/4
f 376/5/4 348/5/4 378/5/4
f 377/6/4 376/6/4 378/6/4
f 378/5/4 348/5/4 379/5/4
f 379/5/4 348/5/4 380/5/4
f 373/6/4 374/6/4 381/6/4
f 374/5/4 377/5/4 381/5/4
f 377/5/4 378/5/4 381/5/4
f 378/5/4 379/5/4 381/5/4
f 379/6/4 380/6/4 382/6/4
f 381/5/4 379/5/4 382/5/4
f 380/5/4 348/5/4 383/5/4
f 382/6/4 380/6/4 383/6/4
f 381/6/4 382/6/4 383/6/4
f 383/5/4 348/5/4 384/5/4
f 384/5/4 348/5/4 385/5/4
f 385/5/4 348/5/4 386/5/4
f 383/6/4 384/6/4 387/6/4
f 384/5/4 385/5/4 387/5/4
f 387/5/4 385/5/4 388/5/4
f 385/6/4 386/6/4 389/6/4
f 388/5/4 385/5/4 389/5/4
f 386/5/4 348/5/4 390/5/4
f 389/6/4 386/6/4 390/6/4
f 387/6/4 388/6/4 391/6/4
f 383/6/4 387/6/4 391/6/4
f 388/5/4 389/5/4 392/5/4
f 391/6/4 388/6/4 392/6/4
f 389/5/4 390/5/4 392/5/4
f 383/6/4 391/6/4 393/6/4
f 391/5/4 392/5/4 393/5/4
f 392/5/4 390/5/4 394/5/4
f 393/5/4 392/5/4 394/5/4
f 371/6/4 373/6/4 395/6/4
f 365/6/4 371/6/4 395/6/4
f 393/6/4 394/6/4 395/6/4
f 373/6/4 381/6/4 395/6/4
f 383/6/4 393/6/4 395/6/4
f 381/6/4 383/6/4 395/6/4
f 394/5/4 390/5/4 396/5/4
f 395/6/4 394/6/4 396/6/4
f 390/5/4 348/5/4 397/5/4
f 396/5/4 390/5/4 397/5/4
f 400/5/5 399/5/5 398/5/5
f 401/5/5 399/5/5 400/5/5
f 402/5/5 400/5/5 398/5/5
f 403/5/5 400/5/5 402/5/5
f 404/5/5 400/5/5 403/5/5
f 405/6/5 401/6/5 400/6/5
f 405/5/5 400/5/5 404/5/5
f 406/5/5 402/5/5 398/5/5
f 407/6/5 403/6/5 402/6/5
f 407/5/5 402/5/5 406/5/5
f 408/5/5 404/5/5 403/5/5
f 408/6/5 403/6/5 407/6/5
f 409/6/5 405/6/5 404/6/5
f 409/5/5 404/5/5 408/5/5
f 410/6/5 401/6/5 405/6/5
f 410/6/5 405/6/5 409/6/5
f 413/5/5 412/5/5 411/5/5
f 414/5/5 412/5/5 413/5/5
f 421/7/5 416/7/5 415/7/5
f 422/7/5 416/7/5 421/7/5
f 423/7/5 418/7/5 417/7/5
f 424/7/5 418/7/5 423/7/5
f 425/7/5 420/7/5 419/7/5
f 426/7/5 420/7/5 425/7/5
f 429/5/5 428/5/5 427/5/5
f 430/5/5 428/5/5 429/5/5
f 431/4/6 432/4/6 433/4/6
f 431/4/6 433/4/6 435/4/6
f 433/4/6 434/4/6 435/4/6
f 435/4/6 434/4/6 436/4/6
f 437/3/6 438/3/6 458/3/6
f 438/2/6 439/2/6 459/2/6
f 458/3/6 438/3/6 459/3/6
f 444/2/6 445/2/6 460/2/6
f 445/3/6 446/3/6 460/3/6
f 446/2/6 447/2/6 461/2/6
f 460/3/6 446/3/6 461/3/6
f 452/2/6 453/2/6 462/2/6
f 453/3/6 454/3/6 462/3/6
f 454/2/6 455/2/6 463/2/6
f 462/3/6 454/3/6 463/3/6
f 458/2/6 459/2/6 464/2/6
f 459/2/6 439/2/6 465/2/6
f 464/2/6 459/2/6 465/2/6
f 444/2/6 460/2/6 466/2/6
f 460/2/6 461/2/6 466/2/6
f 461/2/6 447/2/6 467/2/6
f 466/2/6 461/2/6 467/2/6
f 452/2/6 462/2/6 468/2/6
f 462/2/6 463/2/6 468/2/6
f 463/2/6 455/2/6 469/2/6
f 468/2/6 463/2/6 469/2/6
f 455/3/6 456/3/6 470/3/6
f 470/3/6 456/3/6 471/3/6
f 455/3/6 470/3/6 472/3/6
f 470/1/6 471/1/6 472/1/6
f 471/3/6 456/3/6 473/3/6
f 472/1/6 471/1/6 473/1/6
f 456/1/6 457/1/6 474/1/6
f 473/3/6 456/3/6 474/3/6
f 472/3/6 473/3/6 474/3/6
f 474/1/6 457/1/6 475/1/6
f 442/2/6 443/2/6 476/2/6
f 443/3/6 444/3/6 476/3/6
f 444/2/6 466/2/6 477/2/6
f 476/3/6 444/3/6 477/3/6
f 450/2/6 451/2/6 478/2/6
f 451/3/6 452/3/6 478/3/6
f 452/2/6 468/2/6 479/2/6
f 478/3/6 452/3/6 479/3/6
f 476/2/6 477/2/6 480/2/6
f 442/2/6 476/2/6 480/2/6
f 477/2/6 466/2/6 481/2/6
f 480/2/6 477/2/6 481/2/6
f 450/2/6 478/2/6 482/2/6
f 478/2/6 479/2/6 482/2/6
f 479/2/6 468/2/6 483/2/6
f 482/2/6 479/2/6 483/2/6
f 475/1/6 457/1/6 484/1/6
f 474/3/6 475/3/6 484/3/6
f 484/1/6 457/1/6 485/1/6
f 485/1/6 457/1/6 486/1/6
f 486/1/6 457/1/6 487/1/6
f 485/2/6 486/2/6 488/2/6
f 486/3/6 487/3/6 488/3/6
f 488/3/6 487/3/6 489/3/6
f 485/2/6 488/2/6 490/2/6
f 488/1/6 489/1/6 490/1/6
f 490/1/6 489/1/6 491/1/6
f 489/3/6 487/3/6 492/3/6
f 491/1/6 489/1/6 492/1/6
f 492/3/6 487/3/6 493/3/6
f 490/3/6 491/3/6 494/3/6
f 491/1/6 492/1/6 494/1/6
f 492/1/6 493/1/6 494/1/6
f 493/3/6 487/3/6 495/3/6
f 494/1/6 493/1/6 495/1/6
f 490/3/6 494/3/6 496/3/6
f 485/2/6 490/2/6 496/2/6
f 494/3/6 495/3/6 496/3/6
f 495/3/6 487/3/6 497/3/6
f 496/3/6 495/3/6 497/3/6
f 485/2/6 496/2/6 498/2/6
f 496/2/6 497/2/6 498/2/6
f 498/2/6 497/2/6 499/2/6
f 464/3/6 465/3/6 500/3/6
f 465/2/6 439/2/6 501/2/6
f 500/3/6 465/3/6 501/3/6
f 439/3/6 440/3/6 502/3/6
f 501/2/6 439/2/6 502/2/6
f 440/2/6 441/2/6 503/2/6
f 502/3/6 440/3/6 503/3/6
f 441/3/6 442/3/6 504/3/6
f 503/2/6 441/2/6 504/2/6
f 442/2/6 480/2/6 505/2/6
f 504/3/6 442/3/6 505/3/6
f 480/3/6 481/3/6 506/3/6
f 505/2/6 480/2/6 506/2/6
f 481/2/6 466/2/6 507/2/6
f 506/3/6 481/3/6 507/3/6
f 466/3/6 467/3/6 508/3/6
f 507/2/6 466/2/6 508/2/6
f 467/2/6 447/2/6 509/2/6
f 508/3/6 467/3/6 509/3/6
f 447/3/6 448/3/6 510/3/6
f 509/2/6 447/2/6 510/2/6
f 448/2/6 449/2/6 511/2/6
f 510/3/6 448/3/6 511/3/6
f 449/3/6 450/3/6 512/3/6
f 511/2/6 449/2/6 512/2/6
f 450/2/6 482/2/6 513/2/6
f 512/3/6 450/3/6 513/3/6
f 482/3/6 483/3/6 514/3/6
f 513/2/6 482/2/6 514/2/6
f 514/3/6 483/3/6 515/3/6
f 455/3/6 472/3/6 516/3/6
f 484/3/6 485/3/6 516/3/6
f 474/3/6 484/3/6 516/3/6
f 472/3/6 474/3/6 516/3/6
f 469/2/6 455/2/6 516/2/6
f 485/2/6 498/2/6 517/2/6
f 516/3/6 485/3/6 517/3/6
f 469/2/6 516/2/6 518/2/6
f 516/2/6 517/2/6 518/2/6
f 517/2/6 498/2/6 519/2/6
f 518/2/6 517/2/6 519/2/6
f 483/2/6 468/2/6 520/2/6
f 468/3/6 469/3/6 520/3/6
f 469/2/6 518/2/6 521/2/6
f 520/3/6 469/3/6 521/3/6
f 483/2/6 520/2/6 522/2/6
f 520/2/6 521/2/6 522/2/6
f 521/2/6 518/2/6 523/2/6
f 522/2/6 521/2/6 523/2/6
f 515/3/6 483/3/6 524/3/6
f 483/2/6 522/2/6 525/2/6
f 524/3/6 483/3/6 525/3/6
f 522/3/6 523/3/6 526/3/6
f 525/2/6 522/2/6 526/2/6
f 523/2/6 518/2/6 527/2/6
f 526/3/6 523/3/6 527/3/6
f 518/3/6 519/3/6 528/3/6
f 527/2/6 518/2/6 528/2/6
f 519/2/6 498/2/6 529/2/6
f 528/3/6 519/3/6 529/3/6
f 498/3/6 499/3/6 530/3/6
f 529/2/6 498/2/6 530/2/6
f 530/3/6 499/3/6 531/3/6
f 532/5/6 533/5/6 534/5/6
f 534/5/6 533/5/6 535/5/6
f 536/5/6 537/5/6 538/5/6
f 538/5/6 537/5/6 539/5/6
f 540/5/6 541/5/6 542/5/6
f 542/5/6 541/5/6 543/5/6
f 544/5/6 545/5/6 546/5/6
f 546/5/6 545/5/6 547/5/6
f 548/5/6 549/5/6 550/5/6
f 550/5/6 549/5/6 551/5/6
f 552/5/6 553/5/6 554/5/6
f 554/5/6 553/5/6 555/5/6
f 556/5/6 557/5/6 558/5/6
f 558/5/6 557/5/6 559/5/6
f 560/5/6 561/5/6 562/5/6
f 562/5/6 561/5/6 563/5/6
f 564/5/6 565/5/6 570/5/6
f 570/5/6 565/5/6 571/5/6
f 566/5/6 567/5/6 572/5/6
f 572/5/6 567/5/6 573/5/6
f 568/5/6 569/5/6 574/5/6
f 574/5/6 569/5/6 575/5/6
f 576/5/6 577/5/6 578/5/6
f 578/5/6 577/5/6 579/5/6
f 580/5/6 581/5/6 582/5/6
f 582/5/6 581/5/6 583/5/6
f 584/5/6 585/5/6 586/5/6
f 586/5/6 585/5/6 587/5/6
f 588/5/6 589/5/6 590/5/6
f 590/5/6 589/5/6 591/5/6
f 592/5/6 593/5/6 594/5/6
f 594/5/6 593/5/6 595/5/6
f 596/7/6 597/7/6 598/7/6
f 598/7/6 597/7/6 599/7/6
f 600/5/6 601/5/6 604/5/6
f 602/5/6 603/5/6 605/5/6
f 600/5/6 604/5/6 606/5/6
f 604/5/6 605/5/6 606/5/6
f 605/5/6 603/5/6 607/5/6
f 606/5/6 605/5/6 607/5/6
f 608/5/6 609/5/6 610/5/6
f 610/5/6 609/5/6 611/5/6
f 607/5/6 603/5/6 613/5/6
f 612/5/6 613/5/6 614/5/6
f 613/5/6 603/5/6 615/5/6
f 614/5/6 613/5/6 615/5/6
