# MagicaVoxel @ Ephtracy

# group
g 2x2 first-1

# material
mtllib 2x2 first-1.mtl
usemtl palette

# normals
vn -1 0 0
vn 1 0 0
vn 0 0 1
vn 0 0 -1
vn 0 -1 0
vn 0 1 0

# texcoords
vt 0.966797 0.5

# verts
v -63 0 63
v -63 0 -63
v -63 80 63
v -63 80 -63
v -1 40 63
v -1 40 61
v -1 70 63
v -1 70 61
v 31 17 61
v 31 17 22
v 31 80 61
v 31 80 22
v -61 17 61
v -61 17 -63
v -61 80 61
v -61 80 -63
v -36 40 63
v -36 40 61
v -36 70 63
v -36 70 61
v 33 8 63
v 33 8 53
v 33 11 53
v 33 11 43
v 33 14 43
v 33 14 33
v 33 17 33
v 33 17 22
v 33 57 24
v 33 57 22
v 33 80 63
v 33 80 24
v 63 0 63
v 63 0 -63
v 63 8 63
v 63 8 53
v 63 11 53
v 63 11 43
v 63 14 43
v 63 14 33
v 63 17 33
v 63 17 -63
v 63 57 24
v 63 57 22
v 63 80 24
v 63 80 22
v -63 0 63
v -63 80 63
v -36 40 63
v -36 70 63
v -1 40 63
v -1 70 63
v 33 8 63
v 33 80 63
v 63 0 63
v 63 8 63
v 33 8 53
v 33 11 53
v 63 8 53
v 63 11 53
v 33 11 43
v 33 14 43
v 63 11 43
v 63 14 43
v 33 14 33
v 33 17 33
v 63 14 33
v 63 17 33
v 33 57 24
v 33 80 24
v 63 57 24
v 63 80 24
v -61 17 61
v -61 80 61
v -36 40 61
v -36 70 61
v -1 40 61
v -1 70 61
v 31 17 61
v 31 80 61
v 31 17 22
v 31 80 22
v 33 17 22
v 33 57 22
v 63 57 22
v 63 80 22
v -63 0 -63
v -63 80 -63
v -61 17 -63
v -61 80 -63
v 63 0 -63
v 63 17 -63
v -63 0 63
v 63 0 63
v -63 0 -63
v 63 0 -63
v 33 57 24
v 63 57 24
v 33 57 22
v 63 57 22
v -36 70 63
v -1 70 63
v -36 70 61
v -1 70 61
v 33 8 63
v 63 8 63
v 33 8 53
v 63 8 53
v 33 11 53
v 63 11 53
v 33 11 43
v 63 11 43
v 33 14 43
v 63 14 43
v 33 14 33
v 63 14 33
v -61 17 61
v 31 17 61
v 33 17 33
v 63 17 33
v 31 17 22
v 33 17 22
v -61 17 -63
v 63 17 -63
v -36 40 63
v -1 40 63
v -36 40 61
v -1 40 61
v -63 80 63
v 33 80 63
v -61 80 61
v 31 80 61
v 33 80 24
v 63 80 24
v 31 80 22
v 63 80 22
v -63 80 -63
v -61 80 -63

# faces
f 3/1/1 2/1/1 1/1/1
f 4/1/1 2/1/1 3/1/1
f 7/1/1 6/1/1 5/1/1
f 8/1/1 6/1/1 7/1/1
f 11/1/1 10/1/1 9/1/1
f 12/1/1 10/1/1 11/1/1
f 13/1/2 14/1/2 15/1/2
f 15/1/2 14/1/2 16/1/2
f 17/1/2 18/1/2 19/1/2
f 19/1/2 18/1/2 20/1/2
f 21/1/2 22/1/2 23/1/2
f 23/1/2 24/1/2 25/1/2
f 25/1/2 26/1/2 27/1/2
f 27/1/2 28/1/2 29/1/2
f 29/1/2 28/1/2 30/1/2
f 21/1/2 23/1/2 31/1/2
f 23/1/2 25/1/2 31/1/2
f 27/1/2 29/1/2 31/1/2
f 25/1/2 27/1/2 31/1/2
f 31/1/2 29/1/2 32/1/2
f 33/1/2 34/1/2 35/1/2
f 35/1/2 34/1/2 36/1/2
f 36/1/2 34/1/2 37/1/2
f 37/1/2 34/1/2 38/1/2
f 38/1/2 34/1/2 39/1/2
f 39/1/2 34/1/2 40/1/2
f 40/1/2 34/1/2 41/1/2
f 41/1/2 34/1/2 42/1/2
f 43/1/2 44/1/2 45/1/2
f 45/1/2 44/1/2 46/1/2
f 49/1/3 48/1/3 47/1/3
f 50/1/3 48/1/3 49/1/3
f 51/1/3 49/1/3 47/1/3
f 52/1/3 48/1/3 50/1/3
f 53/1/3 51/1/3 47/1/3
f 53/1/3 52/1/3 51/1/3
f 54/1/3 48/1/3 52/1/3
f 54/1/3 52/1/3 53/1/3
f 55/1/3 53/1/3 47/1/3
f 56/1/3 53/1/3 55/1/3
f 59/1/3 58/1/3 57/1/3
f 60/1/3 58/1/3 59/1/3
f 63/1/3 62/1/3 61/1/3
f 64/1/3 62/1/3 63/1/3
f 67/1/3 66/1/3 65/1/3
f 68/1/3 66/1/3 67/1/3
f 71/1/3 70/1/3 69/1/3
f 72/1/3 70/1/3 71/1/3
f 73/1/4 74/1/4 75/1/4
f 75/1/4 74/1/4 76/1/4
f 73/1/4 75/1/4 77/1/4
f 76/1/4 74/1/4 78/1/4
f 73/1/4 77/1/4 79/1/4
f 77/1/4 78/1/4 79/1/4
f 78/1/4 74/1/4 80/1/4
f 79/1/4 78/1/4 80/1/4
f 81/1/4 82/1/4 83/1/4
f 83/1/4 82/1/4 84/1/4
f 84/1/4 82/1/4 85/1/4
f 85/1/4 82/1/4 86/1/4
f 87/1/4 88/1/4 89/1/4
f 89/1/4 88/1/4 90/1/4
f 87/1/4 89/1/4 91/1/4
f 91/1/4 89/1/4 92/1/4
f 95/1/5 94/1/5 93/1/5
f 96/1/5 94/1/5 95/1/5
f 99/1/5 98/1/5 97/1/5
f 100/1/5 98/1/5 99/1/5
f 103/1/5 102/1/5 101/1/5
f 104/1/5 102/1/5 103/1/5
f 105/1/6 106/1/6 107/1/6
f 107/1/6 106/1/6 108/1/6
f 109/1/6 110/1/6 111/1/6
f 111/1/6 110/1/6 112/1/6
f 113/1/6 114/1/6 115/1/6
f 115/1/6 114/1/6 116/1/6
f 117/1/6 118/1/6 121/1/6
f 119/1/6 120/1/6 122/1/6
f 117/1/6 121/1/6 123/1/6
f 121/1/6 122/1/6 123/1/6
f 122/1/6 120/1/6 124/1/6
f 123/1/6 122/1/6 124/1/6
f 125/1/6 126/1/6 127/1/6
f 127/1/6 126/1/6 128/1/6
f 129/1/6 130/1/6 131/1/6
f 131/1/6 130/1/6 132/1/6
f 132/1/6 130/1/6 133/1/6
f 132/1/6 133/1/6 135/1/6
f 133/1/6 134/1/6 135/1/6
f 135/1/6 134/1/6 136/1/6
f 129/1/6 131/1/6 137/1/6
f 137/1/6 131/1/6 138/1/6
