# MagicaVoxel @ Ephtracy

# group
g 2x2 second (1)-1

# material
mtllib 2x2 second (1)-1.mtl
usemtl palette

# normals
vn -1 0 0
vn 1 0 0
vn 0 0 1
vn 0 0 -1
vn 0 -1 0
vn 0 1 0

# texcoords
vt 0.947266 0.5
vt 0.966797 0.5
vt 0.974609 0.5
vt 0.982422 0.5

# verts
v -63 0 63
v -63 0 -63
v -63 1 63
v -63 1 32
v -63 15 -61
v -63 15 -63
v -63 17 -61
v -63 17 -63
v -63 19 -56
v -63 19 -62
v -63 21 -53
v -63 21 -56
v -63 21 -62
v -63 21 -63
v -63 23 -52
v -63 23 -53
v -63 24 -47
v -63 24 -52
v -63 31 -47
v -63 31 -53
v -63 39 -47
v -63 39 -49
v -63 47 -47
v -63 47 -49
v -63 47 -52
v -63 47 -53
v -63 50 -50
v -63 50 -51
v -63 53 -51
v -63 53 -52
v -63 54 -50
v -63 54 -53
v -63 57 -51
v -63 57 -53
v -63 63 -47
v -63 63 -50
v -63 63 -51
v -63 63 -53
v -63 72 -47
v -63 72 -50
v -63 73 -50
v -63 73 -53
v -63 79 -50
v -63 79 -53
v -63 80 32
v -63 80 -53
v -63 80 -63
v 18 27 32
v 18 27 30
v 18 57 32
v 18 57 30
v 38 34 33
v 38 34 32
v 38 61 33
v 38 61 32
v 40 61 33
v 40 61 32
v 40 63 33
v 40 63 32
v 54 50 33
v 54 50 32
v 54 58 33
v 54 58 32
v -61 1 30
v -61 1 -63
v -61 80 30
v -61 80 -63
v -52 27 32
v -52 27 30
v -52 57 32
v -52 57 30
v 43 34 33
v 43 34 32
v 43 45 33
v 43 45 32
v 43 50 33
v 43 50 32
v 43 58 33
v 43 58 32
v 56 45 33
v 56 45 32
v 56 48 33
v 56 48 32
v 57 61 33
v 57 61 32
v 57 63 33
v 57 63 32
v 59 48 33
v 59 48 32
v 59 61 33
v 59 61 32
v 63 0 63
v 63 0 31
v 63 0 -63
v 63 1 63
v 63 1 32
v 63 1 31
v 63 1 30
v 63 1 -63
v 63 80 32
v 63 80 30
v -63 0 63
v -63 1 63
v 63 0 63
v 63 1 63
v 38 34 33
v 38 61 33
v 40 61 33
v 40 63 33
v 43 34 33
v 43 45 33
v 43 50 33
v 43 58 33
v 54 50 33
v 54 58 33
v 56 45 33
v 56 48 33
v 57 61 33
v 57 63 33
v 59 48 33
v 59 61 33
v -63 1 32
v -63 80 32
v -52 27 32
v -52 57 32
v 18 27 32
v 18 57 32
v 38 34 32
v 38 61 32
v 40 61 32
v 40 63 32
v 43 34 32
v 43 45 32
v 43 50 32
v 43 58 32
v 54 50 32
v 54 58 32
v 56 45 32
v 56 48 32
v 57 61 32
v 57 63 32
v 59 48 32
v 59 61 32
v 63 1 32
v 63 80 32
v -61 1 30
v -61 80 30
v -52 27 30
v -52 57 30
v -40 1 30
v 0 1 30
v 18 27 30
v 18 57 30
v 63 1 30
v 63 80 30
v -63 0 -63
v -63 15 -63
v -63 17 -63
v -63 21 -63
v -63 80 -63
v -62 15 -63
v -62 17 -63
v -62 21 -63
v -62 80 -63
v -61 0 -63
v -61 1 -63
v -61 80 -63
v 63 0 -63
v 63 1 -63
v -63 0 63
v 63 0 63
v -61 0 31
v -40 0 31
v 0 0 31
v 63 0 31
v 0 0 25
v 13 0 25
v -43 0 20
v -40 0 20
v -11 0 18
v 0 0 18
v -46 0 17
v -43 0 17
v 18 0 17
v 24 0 17
v 0 0 14
v 13 0 14
v 18 0 13
v 24 0 13
v -15 0 11
v -11 0 11
v 6 0 10
v 7 0 10
v 6 0 8
v 7 0 8
v 13 0 8
v 17 0 8
v -46 0 5
v -15 0 5
v 13 0 3
v 17 0 3
v -35 0 -10
v -33 0 -10
v -35 0 -11
v -33 0 -11
v -63 0 -63
v -61 0 -63
v 63 0 -63
v 38 34 33
v 43 34 33
v 38 34 32
v 43 34 32
v 43 45 33
v 56 45 33
v 43 45 32
v 56 45 32
v 56 48 33
v 59 48 33
v 56 48 32
v 59 48 32
v -52 57 32
v 18 57 32
v -52 57 30
v 18 57 30
v 43 58 33
v 54 58 33
v 43 58 32
v 54 58 32
v -63 1 63
v 63 1 63
v -63 1 32
v 63 1 32
v -61 1 30
v -40 1 30
v 0 1 30
v 63 1 30
v 0 1 25
v 13 1 25
v -43 1 20
v -40 1 20
v -11 1 18
v 0 1 18
v -46 1 17
v -43 1 17
v 18 1 17
v 24 1 17
v 0 1 14
v 13 1 14
v 18 1 13
v 24 1 13
v -15 1 11
v -11 1 11
v 6 1 10
v 7 1 10
v 6 1 8
v 7 1 8
v 13 1 8
v 17 1 8
v -46 1 5
v -15 1 5
v 13 1 3
v 17 1 3
v -35 1 -10
v -33 1 -10
v -35 1 -11
v -33 1 -11
v -61 1 -63
v 63 1 -63
v -52 27 32
v 18 27 32
v -52 27 30
v 18 27 30
v 43 50 33
v 54 50 33
v 43 50 32
v 54 50 32
v 38 61 33
v 40 61 33
v 57 61 33
v 59 61 33
v 38 61 32
v 40 61 32
v 57 61 32
v 59 61 32
v 40 63 33
v 57 63 33
v 40 63 32
v 57 63 32
v -63 80 32
v 63 80 32
v -61 80 30
v 63 80 30
v -63 80 -53
v -62 80 -53
v -63 80 -63
v -62 80 -63
v -61 80 -63

# faces
f 3/2/1 2/2/1 1/2/1
f 4/2/1 2/2/1 3/2/1
f 5/2/1 2/2/1 4/2/1
f 6/2/1 2/2/1 5/2/1
f 7/2/1 5/2/1 4/2/1
f 7/3/1 6/3/1 5/3/1
f 8/3/1 6/3/1 7/3/1
f 9/2/1 7/2/1 4/2/1
f 9/2/1 8/2/1 7/2/1
f 10/2/1 8/2/1 9/2/1
f 11/2/1 9/2/1 4/2/1
f 12/3/1 10/3/1 9/3/1
f 12/2/1 9/2/1 11/2/1
f 13/2/1 8/2/1 10/2/1
f 13/3/1 10/3/1 12/3/1
f 14/2/1 8/2/1 13/2/1
f 15/2/1 11/2/1 4/2/1
f 16/3/1 12/3/1 11/3/1
f 16/2/1 11/2/1 15/2/1
f 16/3/1 13/3/1 12/3/1
f 16/3/1 14/3/1 13/3/1
f 17/2/1 15/2/1 4/2/1
f 18/3/1 16/3/1 15/3/1
f 18/2/1 15/2/1 17/2/1
f 19/2/1 17/2/1 4/2/1
f 19/3/1 18/3/1 17/3/1
f 20/3/1 14/3/1 16/3/1
f 20/3/1 18/3/1 19/3/1
f 20/3/1 16/3/1 18/3/1
f 21/2/1 19/2/1 4/2/1
f 21/2/1 20/2/1 19/2/1
f 22/2/1 20/2/1 21/2/1
f 23/2/1 21/2/1 4/2/1
f 23/3/1 22/3/1 21/3/1
f 24/2/1 20/2/1 22/2/1
f 24/3/1 22/3/1 23/3/1
f 25/2/1 20/2/1 24/2/1
f 26/3/1 14/3/1 20/3/1
f 26/2/1 20/2/1 25/2/1
f 27/2/1 25/2/1 24/2/1
f 27/2/1 24/2/1 23/2/1
f 28/2/1 25/2/1 27/2/1
f 29/3/1 28/3/1 27/3/1
f 29/2/1 25/2/1 28/2/1
f 30/3/1 26/3/1 25/3/1
f 30/2/1 25/2/1 29/2/1
f 31/3/1 29/3/1 27/3/1
f 31/2/1 27/2/1 23/2/1
f 31/3/1 30/3/1 29/3/1
f 32/3/1 14/3/1 26/3/1
f 32/3/1 30/3/1 31/3/1
f 32/3/1 26/3/1 30/3/1
f 33/2/1 32/2/1 31/2/1
f 34/3/1 14/3/1 32/3/1
f 34/2/1 32/2/1 33/2/1
f 35/2/1 31/2/1 23/2/1
f 35/2/1 23/2/1 4/2/1
f 35/2/1 33/2/1 31/2/1
f 36/2/1 33/2/1 35/2/1
f 37/3/1 34/3/1 33/3/1
f 37/2/1 33/2/1 36/2/1
f 38/3/1 14/3/1 34/3/1
f 38/3/1 34/3/1 37/3/1
f 39/3/1 36/3/1 35/3/1
f 39/2/1 35/2/1 4/2/1
f 40/2/1 37/2/1 36/2/1
f 40/3/1 36/3/1 39/3/1
f 40/2/1 38/2/1 37/2/1
f 41/2/1 40/2/1 39/2/1
f 41/2/1 38/2/1 40/2/1
f 42/3/1 14/3/1 38/3/1
f 42/2/1 38/2/1 41/2/1
f 43/2/1 41/2/1 39/2/1
f 43/3/1 42/3/1 41/3/1
f 44/3/1 14/3/1 42/3/1
f 44/3/1 42/3/1 43/3/1
f 45/2/1 39/2/1 4/2/1
f 45/2/1 43/2/1 39/2/1
f 45/2/1 44/2/1 43/2/1
f 46/3/1 14/3/1 44/3/1
f 46/2/1 44/2/1 45/2/1
f 47/3/1 14/3/1 46/3/1
f 50/2/1 49/2/1 48/2/1
f 51/2/1 49/2/1 50/2/1
f 54/4/1 53/4/1 52/4/1
f 55/4/1 53/4/1 54/4/1
f 58/4/1 57/4/1 56/4/1
f 59/4/1 57/4/1 58/4/1
f 62/4/1 61/4/1 60/4/1
f 63/4/1 61/4/1 62/4/1
f 64/2/2 65/2/2 66/2/2
f 66/2/2 65/2/2 67/2/2
f 68/2/2 69/2/2 70/2/2
f 70/2/2 69/2/2 71/2/2
f 72/4/2 73/4/2 74/4/2
f 74/4/2 73/4/2 75/4/2
f 76/4/2 77/4/2 78/4/2
f 78/4/2 77/4/2 79/4/2
f 80/4/2 81/4/2 82/4/2
f 82/4/2 81/4/2 83/4/2
f 84/4/2 85/4/2 86/4/2
f 86/4/2 85/4/2 87/4/2
f 88/4/2 89/4/2 90/4/2
f 90/4/2 89/4/2 91/4/2
f 92/2/2 93/2/2 95/2/2
f 95/2/2 93/2/2 96/2/2
f 93/1/2 94/1/2 97/1/2
f 96/2/2 93/2/2 97/2/2
f 97/1/2 94/1/2 98/1/2
f 98/1/2 94/1/2 99/1/2
f 96/2/2 97/2/2 100/2/2
f 97/2/2 98/2/2 100/2/2
f 100/2/2 98/2/2 101/2/2
f 104/2/3 103/2/3 102/2/3
f 105/2/3 103/2/3 104/2/3
f 108/4/3 107/4/3 106/4/3
f 110/4/3 108/4/3 106/4/3
f 110/4/3 109/4/3 108/4/3
f 111/4/3 109/4/3 110/4/3
f 112/4/3 109/4/3 111/4/3
f 113/4/3 109/4/3 112/4/3
f 114/4/3 112/4/3 111/4/3
f 115/4/3 109/4/3 113/4/3
f 116/4/3 114/4/3 111/4/3
f 116/4/3 115/4/3 114/4/3
f 117/4/3 115/4/3 116/4/3
f 118/4/3 109/4/3 115/4/3
f 118/4/3 115/4/3 117/4/3
f 119/4/3 109/4/3 118/4/3
f 120/4/3 118/4/3 117/4/3
f 121/4/3 118/4/3 120/4/3
f 124/2/3 123/2/3 122/2/3
f 125/2/3 123/2/3 124/2/3
f 126/2/3 124/2/3 122/2/3
f 127/2/3 123/2/3 125/2/3
f 128/2/3 127/2/3 126/2/3
f 129/2/3 123/2/3 127/2/3
f 129/2/3 127/2/3 128/2/3
f 130/2/3 123/2/3 129/2/3
f 131/2/3 123/2/3 130/2/3
f 132/2/3 128/2/3 126/2/3
f 136/2/3 135/2/3 134/2/3
f 137/2/3 135/2/3 136/2/3
f 138/2/3 133/2/3 132/2/3
f 141/2/3 123/2/3 131/2/3
f 142/2/3 139/2/3 138/2/3
f 143/2/3 141/2/3 140/2/3
f 144/2/3 126/2/3 122/2/3
f 144/2/3 143/2/3 142/2/3
f 144/2/3 138/2/3 132/2/3
f 144/2/3 132/2/3 126/2/3
f 144/2/3 142/2/3 138/2/3
f 145/2/3 141/2/3 143/2/3
f 145/2/3 143/2/3 144/2/3
f 145/2/3 123/2/3 141/2/3
f 146/2/4 147/2/4 148/2/4
f 148/2/4 147/2/4 149/2/4
f 146/2/4 148/2/4 150/2/4
f 150/2/4 148/2/4 151/2/4
f 151/2/4 148/2/4 152/2/4
f 149/2/4 147/2/4 153/2/4
f 151/2/4 152/2/4 154/2/4
f 152/2/4 153/2/4 154/2/4
f 153/2/4 147/2/4 155/2/4
f 154/2/4 153/2/4 155/2/4
f 156/2/4 157/2/4 161/2/4
f 157/3/4 158/3/4 161/3/4
f 158/2/4 159/2/4 162/2/4
f 161/3/4 158/3/4 162/3/4
f 159/3/4 160/3/4 163/3/4
f 162/2/4 159/2/4 163/2/4
f 163/3/4 160/3/4 164/3/4
f 161/2/4 162/2/4 165/2/4
f 156/2/4 161/2/4 165/2/4
f 163/2/4 164/2/4 165/2/4
f 162/2/4 163/2/4 165/2/4
f 165/2/4 164/2/4 166/2/4
f 166/2/4 164/2/4 167/2/4
f 165/1/4 166/1/4 168/1/4
f 168/1/4 166/1/4 169/1/4
f 172/2/5 171/2/5 170/2/5
f 173/2/5 171/2/5 172/2/5
f 174/2/5 171/2/5 173/2/5
f 175/2/5 171/2/5 174/2/5
f 176/2/5 174/2/5 173/2/5
f 176/1/5 175/1/5 174/1/5
f 177/1/5 175/1/5 176/1/5
f 178/1/5 173/1/5 172/1/5
f 179/2/5 176/2/5 173/2/5
f 179/1/5 173/1/5 178/1/5
f 179/2/5 177/2/5 176/2/5
f 180/2/5 179/2/5 178/2/5
f 180/2/5 177/2/5 179/2/5
f 181/2/5 177/2/5 180/2/5
f 182/1/5 178/1/5 172/1/5
f 183/2/5 180/2/5 178/2/5
f 183/1/5 178/1/5 182/1/5
f 184/1/5 175/1/5 177/1/5
f 185/1/5 175/1/5 184/1/5
f 186/2/5 177/2/5 181/2/5
f 186/1/5 181/1/5 180/1/5
f 187/1/5 184/1/5 177/1/5
f 187/2/5 177/2/5 186/2/5
f 188/2/5 185/2/5 184/2/5
f 188/1/5 184/1/5 187/1/5
f 188/1/5 187/1/5 186/1/5
f 189/1/5 175/1/5 185/1/5
f 189/2/5 185/2/5 188/2/5
f 190/2/5 180/2/5 183/2/5
f 190/2/5 183/2/5 182/2/5
f 191/1/5 188/1/5 186/1/5
f 191/2/5 180/2/5 190/2/5
f 191/1/5 186/1/5 180/1/5
f 191/1/5 189/1/5 188/1/5
f 192/1/5 191/1/5 190/1/5
f 192/1/5 189/1/5 191/1/5
f 193/1/5 189/1/5 192/1/5
f 194/1/5 192/1/5 190/1/5
f 194/2/5 193/2/5 192/2/5
f 195/1/5 189/1/5 193/1/5
f 195/2/5 193/2/5 194/2/5
f 196/1/5 189/1/5 195/1/5
f 197/1/5 189/1/5 196/1/5
f 198/2/5 190/2/5 182/2/5
f 198/1/5 182/1/5 172/1/5
f 199/1/5 194/1/5 190/1/5
f 199/2/5 190/2/5 198/2/5
f 199/1/5 195/1/5 194/1/5
f 199/1/5 196/1/5 195/1/5
f 200/2/5 197/2/5 196/2/5
f 200/1/5 196/1/5 199/1/5
f 200/1/5 199/1/5 198/1/5
f 201/1/5 189/1/5 197/1/5
f 201/2/5 197/2/5 200/2/5
f 202/1/5 200/1/5 198/1/5
f 202/1/5 201/1/5 200/1/5
f 203/1/5 201/1/5 202/1/5
f 204/1/5 202/1/5 198/1/5
f 204/2/5 203/2/5 202/2/5
f 205/1/5 201/1/5 203/1/5
f 205/2/5 203/2/5 204/2/5
f 206/2/5 172/2/5 170/2/5
f 207/1/5 198/1/5 172/1/5
f 207/2/5 172/2/5 206/2/5
f 207/1/5 204/1/5 198/1/5
f 207/1/5 205/1/5 204/1/5
f 208/1/5 201/1/5 205/1/5
f 208/1/5 205/1/5 207/1/5
f 208/1/5 175/1/5 189/1/5
f 208/1/5 189/1/5 201/1/5
f 211/4/5 210/4/5 209/4/5
f 212/4/5 210/4/5 211/4/5
f 215/4/5 214/4/5 213/4/5
f 216/4/5 214/4/5 215/4/5
f 219/4/5 218/4/5 217/4/5
f 220/4/5 218/4/5 219/4/5
f 223/2/5 222/2/5 221/2/5
f 224/2/5 222/2/5 223/2/5
f 227/4/5 226/4/5 225/4/5
f 228/4/5 226/4/5 227/4/5
f 229/2/6 230/2/6 231/2/6
f 231/2/6 230/2/6 232/2/6
f 234/2/6 235/2/6 237/2/6
f 235/1/6 236/1/6 237/1/6
f 237/1/6 236/1/6 238/1/6
f 233/1/6 234/1/6 239/1/6
f 234/2/6 237/2/6 240/2/6
f 239/1/6 234/1/6 240/1/6
f 237/2/6 238/2/6 240/2/6
f 239/2/6 240/2/6 241/2/6
f 240/2/6 238/2/6 241/2/6
f 241/2/6 238/2/6 242/2/6
f 233/1/6 239/1/6 243/1/6
f 239/2/6 241/2/6 244/2/6
f 243/1/6 239/1/6 244/1/6
f 238/1/6 236/1/6 245/1/6
f 245/1/6 236/1/6 246/1/6
f 242/2/6 238/2/6 247/2/6
f 241/1/6 242/1/6 247/1/6
f 238/1/6 245/1/6 248/1/6
f 247/2/6 238/2/6 248/2/6
f 245/2/6 246/2/6 249/2/6
f 248/1/6 245/1/6 249/1/6
f 247/1/6 248/1/6 249/1/6
f 246/1/6 236/1/6 250/1/6
f 249/2/6 246/2/6 250/2/6
f 244/2/6 241/2/6 251/2/6
f 243/2/6 244/2/6 251/2/6
f 247/1/6 249/1/6 252/1/6
f 251/2/6 241/2/6 252/2/6
f 241/1/6 247/1/6 252/1/6
f 249/1/6 250/1/6 252/1/6
f 251/1/6 252/1/6 253/1/6
f 252/1/6 250/1/6 253/1/6
f 253/1/6 250/1/6 254/1/6
f 251/1/6 253/1/6 255/1/6
f 253/2/6 254/2/6 255/2/6
f 254/1/6 250/1/6 256/1/6
f 255/2/6 254/2/6 256/2/6
f 256/1/6 250/1/6 257/1/6
f 257/1/6 250/1/6 258/1/6
f 243/2/6 251/2/6 259/2/6
f 233/1/6 243/1/6 259/1/6
f 251/1/6 255/1/6 260/1/6
f 259/2/6 251/2/6 260/2/6
f 255/1/6 256/1/6 260/1/6
f 256/1/6 257/1/6 260/1/6
f 257/2/6 258/2/6 261/2/6
f 260/1/6 257/1/6 261/1/6
f 259/1/6 260/1/6 261/1/6
f 258/1/6 250/1/6 262/1/6
f 261/2/6 258/2/6 262/2/6
f 259/1/6 261/1/6 263/1/6
f 261/1/6 262/1/6 263/1/6
f 263/1/6 262/1/6 264/1/6
f 259/1/6 263/1/6 265/1/6
f 263/2/6 264/2/6 265/2/6
f 264/1/6 262/1/6 266/1/6
f 265/2/6 264/2/6 266/2/6
f 233/1/6 259/1/6 267/1/6
f 259/1/6 265/1/6 267/1/6
f 265/1/6 266/1/6 267/1/6
f 250/1/6 236/1/6 268/1/6
f 267/1/6 266/1/6 268/1/6
f 262/1/6 250/1/6 268/1/6
f 266/1/6 262/1/6 268/1/6
f 269/2/6 270/2/6 271/2/6
f 271/2/6 270/2/6 272/2/6
f 273/4/6 274/4/6 275/4/6
f 275/4/6 274/4/6 276/4/6
f 277/4/6 278/4/6 281/4/6
f 281/4/6 278/4/6 282/4/6
f 279/4/6 280/4/6 283/4/6
f 283/4/6 280/4/6 284/4/6
f 285/4/6 286/4/6 287/4/6
f 287/4/6 286/4/6 288/4/6
f 289/2/6 290/2/6 291/2/6
f 291/2/6 290/2/6 292/2/6
f 289/2/6 291/2/6 293/2/6
f 293/2/6 291/2/6 294/2/6
f 293/3/6 294/3/6 295/3/6
f 294/2/6 291/2/6 296/2/6
f 295/3/6 294/3/6 296/3/6
f 296/2/6 291/2/6 297/2/6
