# MagicaVoxel @ Ephtracy

# group
g route bande point (croisement)

# material
mtllib route bande point (croisement).mtl
usemtl palette

# normals
vn -1 0 0
vn 1 0 0
vn 0 0 1
vn 0 0 -1
vn 0 -1 0
vn 0 1 0

# texcoords
vt 0.958984 0.5
vt 0.974609 0.5
vt 0.990234 0.5

# verts
v -63 0 63
v -63 0 41
v -63 0 -41
v -63 0 -63
v -63 3 41
v -63 3 39
v -63 3 -39
v -63 3 -41
v -63 5 63
v -63 5 39
v -63 5 -39
v -63 5 -63
v 39 3 63
v 39 3 39
v 39 3 -39
v 39 3 -63
v 39 5 63
v 39 5 39
v 39 5 -39
v 39 5 -63
v -39 3 63
v -39 3 39
v -39 3 -39
v -39 3 -63
v -39 5 63
v -39 5 39
v -39 5 -39
v -39 5 -63
v 63 0 63
v 63 0 41
v 63 0 -41
v 63 0 -63
v 63 3 41
v 63 3 39
v 63 3 -39
v 63 3 -41
v 63 5 63
v 63 5 39
v 63 5 -39
v 63 5 -63
v -63 0 63
v -63 5 63
v -41 0 63
v -41 3 63
v -39 3 63
v -39 5 63
v 39 3 63
v 39 5 63
v 41 0 63
v 41 3 63
v 63 0 63
v 63 5 63
v -63 3 -39
v -63 5 -39
v -39 3 -39
v -39 5 -39
v 39 3 -39
v 39 5 -39
v 63 3 -39
v 63 5 -39
v -63 3 39
v -63 5 39
v -39 3 39
v -39 5 39
v 39 3 39
v 39 5 39
v 63 3 39
v 63 5 39
v -63 0 -63
v -63 5 -63
v -41 0 -63
v -41 3 -63
v -39 3 -63
v -39 5 -63
v 39 3 -63
v 39 5 -63
v 41 0 -63
v 41 3 -63
v 63 0 -63
v 63 5 -63
v -63 0 63
v -41 0 63
v 41 0 63
v 63 0 63
v -63 0 41
v -41 0 41
v 41 0 41
v 63 0 41
v -63 0 -41
v -41 0 -41
v 41 0 -41
v 63 0 -41
v -63 0 -63
v -41 0 -63
v 41 0 -63
v 63 0 -63
v -39 3 63
v 39 3 63
v -3 3 61
v 3 3 61
v -63 3 39
v -39 3 39
v 39 3 39
v 63 3 39
v -3 3 32
v 3 3 32
v -3 3 18
v 3 3 18
v -54 3 3
v -24 3 3
v -11 3 3
v -3 3 3
v 3 3 3
v 11 3 3
v 24 3 3
v 54 3 3
v -54 3 -3
v -24 3 -3
v -11 3 -3
v -3 3 -3
v 3 3 -3
v 11 3 -3
v 24 3 -3
v 54 3 -3
v -3 3 -18
v 3 3 -18
v -3 3 -32
v 3 3 -32
v -63 3 -39
v -39 3 -39
v 39 3 -39
v 63 3 -39
v -3 3 -61
v 3 3 -61
v -39 3 -63
v 39 3 -63
v -63 5 63
v -39 5 63
v 39 5 63
v 63 5 63
v -63 5 39
v -39 5 39
v 39 5 39
v 63 5 39
v -63 5 -39
v -39 5 -39
v 39 5 -39
v 63 5 -39
v -63 5 -63
v -39 5 -63
v 39 5 -63
v 63 5 -63

# faces
f 5/2/1 2/2/1 1/2/1
f 5/3/1 3/3/1 2/3/1
f 6/3/1 3/3/1 5/3/1
f 7/3/1 3/3/1 6/3/1
f 8/2/1 4/2/1 3/2/1
f 8/3/1 3/3/1 7/3/1
f 9/2/1 5/2/1 1/2/1
f 9/2/1 6/2/1 5/2/1
f 10/2/1 6/2/1 9/2/1
f 11/2/1 8/2/1 7/2/1
f 12/2/1 4/2/1 8/2/1
f 12/2/1 8/2/1 11/2/1
f 17/2/1 14/2/1 13/2/1
f 18/2/1 14/2/1 17/2/1
f 19/2/1 16/2/1 15/2/1
f 20/2/1 16/2/1 19/2/1
f 21/2/2 22/2/2 25/2/2
f 25/2/2 22/2/2 26/2/2
f 23/2/2 24/2/2 27/2/2
f 27/2/2 24/2/2 28/2/2
f 29/2/2 30/2/2 33/2/2
f 30/3/2 31/3/2 33/3/2
f 33/3/2 31/3/2 34/3/2
f 34/3/2 31/3/2 35/3/2
f 31/2/2 32/2/2 36/2/2
f 35/3/2 31/3/2 36/3/2
f 29/2/2 33/2/2 37/2/2
f 33/2/2 34/2/2 37/2/2
f 37/2/2 34/2/2 38/2/2
f 35/2/2 36/2/2 39/2/2
f 36/2/2 32/2/2 40/2/2
f 39/2/2 36/2/2 40/2/2
f 43/2/3 42/2/3 41/2/3
f 44/2/3 42/2/3 43/2/3
f 45/3/3 44/3/3 43/3/3
f 45/2/3 42/2/3 44/2/3
f 46/2/3 42/2/3 45/2/3
f 47/3/3 45/3/3 43/3/3
f 49/3/3 47/3/3 43/3/3
f 50/2/3 48/2/3 47/2/3
f 50/3/3 47/3/3 49/3/3
f 51/2/3 50/2/3 49/2/3
f 52/2/3 48/2/3 50/2/3
f 52/2/3 50/2/3 51/2/3
f 55/2/3 54/2/3 53/2/3
f 56/2/3 54/2/3 55/2/3
f 59/2/3 58/2/3 57/2/3
f 60/2/3 58/2/3 59/2/3
f 61/2/4 62/2/4 63/2/4
f 63/2/4 62/2/4 64/2/4
f 65/2/4 66/2/4 67/2/4
f 67/2/4 66/2/4 68/2/4
f 69/2/4 70/2/4 71/2/4
f 71/2/4 70/2/4 72/2/4
f 71/3/4 72/3/4 73/3/4
f 72/2/4 70/2/4 73/2/4
f 73/2/4 70/2/4 74/2/4
f 71/3/4 73/3/4 75/3/4
f 71/3/4 75/3/4 77/3/4
f 75/2/4 76/2/4 78/2/4
f 77/3/4 75/3/4 78/3/4
f 77/2/4 78/2/4 79/2/4
f 78/2/4 76/2/4 80/2/4
f 79/2/4 78/2/4 80/2/4
f 85/2/5 82/2/5 81/2/5
f 86/3/5 83/3/5 82/3/5
f 86/2/5 82/2/5 85/2/5
f 87/2/5 84/2/5 83/2/5
f 87/3/5 83/3/5 86/3/5
f 88/2/5 84/2/5 87/2/5
f 89/3/5 86/3/5 85/3/5
f 89/3/5 87/3/5 86/3/5
f 89/3/5 88/3/5 87/3/5
f 90/3/5 88/3/5 89/3/5
f 91/3/5 88/3/5 90/3/5
f 92/3/5 88/3/5 91/3/5
f 93/2/5 90/2/5 89/2/5
f 94/3/5 91/3/5 90/3/5
f 94/2/5 90/2/5 93/2/5
f 95/2/5 92/2/5 91/2/5
f 95/3/5 91/3/5 94/3/5
f 96/2/5 92/2/5 95/2/5
f 97/3/6 98/3/6 99/3/6
f 99/3/6 98/3/6 100/3/6
f 97/3/6 99/3/6 102/3/6
f 100/3/6 98/3/6 103/3/6
f 101/3/6 102/3/6 105/3/6
f 99/1/6 100/1/6 105/1/6
f 102/3/6 99/3/6 105/3/6
f 103/3/6 104/3/6 106/3/6
f 105/1/6 100/1/6 106/1/6
f 100/3/6 103/3/6 106/3/6
f 101/3/6 105/3/6 107/3/6
f 105/3/6 106/3/6 107/3/6
f 106/3/6 104/3/6 108/3/6
f 107/3/6 106/3/6 108/3/6
f 101/3/6 107/3/6 109/3/6
f 109/3/6 107/3/6 110/3/6
f 110/3/6 107/3/6 111/3/6
f 107/1/6 108/1/6 112/1/6
f 111/3/6 107/3/6 112/3/6
f 108/3/6 104/3/6 113/3/6
f 112/1/6 108/1/6 113/1/6
f 113/3/6 104/3/6 114/3/6
f 114/3/6 104/3/6 115/3/6
f 115/3/6 104/3/6 116/3/6
f 101/3/6 109/3/6 117/3/6
f 109/1/6 110/1/6 117/1/6
f 110/3/6 111/3/6 118/3/6
f 117/1/6 110/1/6 118/1/6
f 111/1/6 112/1/6 119/1/6
f 118/3/6 111/3/6 119/3/6
f 112/1/6 113/1/6 119/1/6
f 113/1/6 114/1/6 119/1/6
f 119/1/6 114/1/6 120/1/6
f 120/1/6 114/1/6 121/1/6
f 114/3/6 115/3/6 122/3/6
f 121/1/6 114/1/6 122/1/6
f 115/1/6 116/1/6 123/1/6
f 122/3/6 115/3/6 123/3/6
f 116/3/6 104/3/6 124/3/6
f 123/1/6 116/1/6 124/1/6
f 117/3/6 118/3/6 125/3/6
f 120/1/6 121/1/6 125/1/6
f 118/3/6 119/3/6 125/3/6
f 119/3/6 120/3/6 125/3/6
f 122/3/6 123/3/6 126/3/6
f 125/1/6 121/1/6 126/1/6
f 121/3/6 122/3/6 126/3/6
f 123/3/6 124/3/6 126/3/6
f 117/3/6 125/3/6 127/3/6
f 125/3/6 126/3/6 127/3/6
f 126/3/6 124/3/6 128/3/6
f 127/3/6 126/3/6 128/3/6
f 101/3/6 117/3/6 129/3/6
f 117/3/6 127/3/6 129/3/6
f 129/3/6 127/3/6 130/3/6
f 128/3/6 124/3/6 131/3/6
f 124/3/6 104/3/6 132/3/6
f 131/3/6 124/3/6 132/3/6
f 130/3/6 127/3/6 133/3/6
f 127/1/6 128/1/6 133/1/6
f 128/3/6 131/3/6 134/3/6
f 133/1/6 128/1/6 134/1/6
f 130/3/6 133/3/6 135/3/6
f 133/3/6 134/3/6 135/3/6
f 134/3/6 131/3/6 136/3/6
f 135/3/6 134/3/6 136/3/6
f 137/2/6 138/2/6 141/2/6
f 141/2/6 138/2/6 142/2/6
f 139/2/6 140/2/6 143/2/6
f 143/2/6 140/2/6 144/2/6
f 145/2/6 146/2/6 149/2/6
f 149/2/6 146/2/6 150/2/6
f 147/2/6 148/2/6 151/2/6
f 151/2/6 148/2/6 152/2/6
