# MagicaVoxel @ Ephtracy

# group
g route bande point (straight)

# material
mtllib route bande point (straight).mtl
usemtl palette

# normals
vn -1 0 0
vn 1 0 0
vn 0 0 1
vn 0 0 -1
vn 0 -1 0
vn 0 1 0

# texcoords
vt 0.958984 0.5
vt 0.974609 0.5
vt 0.990234 0.5

# verts
v -63 0 63
v -63 0 41
v -63 0 -41
v -63 0 -63
v -63 3 41
v -63 3 39
v -63 3 -39
v -63 3 -41
v -63 5 63
v -63 5 39
v -63 5 -39
v -63 5 -63
v 28 3 39
v 28 3 -39
v 28 5 39
v 28 5 -39
v 63 0 63
v 63 0 -63
v 63 5 63
v 63 5 -63
v -63 0 63
v -63 5 63
v 63 0 63
v 63 5 63
v -63 3 -39
v -63 5 -39
v 28 3 -39
v 28 5 -39
v -63 3 39
v -63 5 39
v 28 3 39
v 28 5 39
v -63 0 -63
v -63 5 -63
v 63 0 -63
v 63 5 -63
v -63 0 63
v 63 0 63
v -63 0 41
v 28 0 41
v -63 0 -41
v 28 0 -41
v -63 0 -63
v 63 0 -63
v -63 3 39
v 28 3 39
v -43 3 3
v -12 3 3
v -43 3 -3
v -12 3 -3
v -63 3 -39
v 28 3 -39
v -63 5 63
v 63 5 63
v -63 5 39
v 28 5 39
v -63 5 -39
v 28 5 -39
v -63 5 -63
v 63 5 -63

# faces
f 5/2/1 2/2/1 1/2/1
f 5/3/1 3/3/1 2/3/1
f 6/3/1 3/3/1 5/3/1
f 7/3/1 3/3/1 6/3/1
f 8/2/1 4/2/1 3/2/1
f 8/3/1 3/3/1 7/3/1
f 9/2/1 5/2/1 1/2/1
f 9/2/1 6/2/1 5/2/1
f 10/2/1 6/2/1 9/2/1
f 11/2/1 8/2/1 7/2/1
f 12/2/1 4/2/1 8/2/1
f 12/2/1 8/2/1 11/2/1
f 15/2/1 14/2/1 13/2/1
f 16/2/1 14/2/1 15/2/1
f 17/2/2 18/2/2 19/2/2
f 19/2/2 18/2/2 20/2/2
f 23/2/3 22/2/3 21/2/3
f 24/2/3 22/2/3 23/2/3
f 27/2/3 26/2/3 25/2/3
f 28/2/3 26/2/3 27/2/3
f 29/2/4 30/2/4 31/2/4
f 31/2/4 30/2/4 32/2/4
f 33/2/4 34/2/4 35/2/4
f 35/2/4 34/2/4 36/2/4
f 39/2/5 38/2/5 37/2/5
f 40/2/5 38/2/5 39/2/5
f 41/3/5 40/3/5 39/3/5
f 42/2/5 38/2/5 40/2/5
f 42/3/5 40/3/5 41/3/5
f 43/2/5 42/2/5 41/2/5
f 44/2/5 38/2/5 42/2/5
f 44/2/5 42/2/5 43/2/5
f 45/3/6 46/3/6 47/3/6
f 47/3/6 46/3/6 48/3/6
f 45/3/6 47/3/6 49/3/6
f 47/1/6 48/1/6 49/1/6
f 48/3/6 46/3/6 50/3/6
f 49/1/6 48/1/6 50/1/6
f 45/3/6 49/3/6 51/3/6
f 49/3/6 50/3/6 51/3/6
f 50/3/6 46/3/6 52/3/6
f 51/3/6 50/3/6 52/3/6
f 53/2/6 54/2/6 55/2/6
f 55/2/6 54/2/6 56/2/6
f 56/2/6 54/2/6 58/2/6
f 57/2/6 58/2/6 59/2/6
f 58/2/6 54/2/6 60/2/6
f 59/2/6 58/2/6 60/2/6
