# MagicaVoxel @ Ephtracy

# group
g route pedestrian point (straight)

# material
mtllib route pedestrian point (straight).mtl
usemtl palette

# normals
vn -1 0 0
vn 1 0 0
vn 0 0 1
vn 0 0 -1
vn 0 -1 0
vn 0 1 0

# texcoords
vt 0.958984 0.5
vt 0.974609 0.5
vt 0.990234 0.5

# verts
v -63 0 63
v -63 0 41
v -63 0 -41
v -63 0 -63
v -63 3 41
v -63 3 39
v -63 3 -39
v -63 3 -41
v -63 5 63
v -63 5 39
v -63 5 -39
v -63 5 -63
v 63 0 63
v 63 0 41
v 63 0 -41
v 63 0 -63
v 63 3 41
v 63 3 39
v 63 3 -39
v 63 3 -41
v 63 5 63
v 63 5 39
v 63 5 -39
v 63 5 -63
v -63 0 63
v -63 5 63
v 63 0 63
v 63 5 63
v -63 3 -39
v -63 5 -39
v 63 3 -39
v 63 5 -39
v -63 3 39
v -63 5 39
v 63 3 39
v 63 5 39
v -63 0 -63
v -63 5 -63
v 63 0 -63
v 63 5 -63
v -63 0 63
v 63 0 63
v -63 0 41
v 63 0 41
v -63 0 -41
v 63 0 -41
v -63 0 -63
v 63 0 -63
v -63 3 39
v 63 3 39
v -55 3 33
v -19 3 33
v -55 3 25
v -19 3 25
v -55 3 14
v -19 3 14
v -55 3 6
v -19 3 6
v 12 3 3
v 43 3 3
v 12 3 -3
v 43 3 -3
v -55 3 -5
v -19 3 -5
v -55 3 -13
v -19 3 -13
v -55 3 -25
v -19 3 -25
v -55 3 -33
v -19 3 -33
v -63 3 -39
v 63 3 -39
v -63 5 63
v 63 5 63
v -63 5 39
v 63 5 39
v -63 5 -39
v 63 5 -39
v -63 5 -63
v 63 5 -63

# faces
f 5/2/1 2/2/1 1/2/1
f 5/3/1 3/3/1 2/3/1
f 6/3/1 3/3/1 5/3/1
f 7/3/1 3/3/1 6/3/1
f 8/2/1 4/2/1 3/2/1
f 8/3/1 3/3/1 7/3/1
f 9/2/1 5/2/1 1/2/1
f 9/2/1 6/2/1 5/2/1
f 10/2/1 6/2/1 9/2/1
f 11/2/1 8/2/1 7/2/1
f 12/2/1 4/2/1 8/2/1
f 12/2/1 8/2/1 11/2/1
f 13/2/2 14/2/2 17/2/2
f 14/3/2 15/3/2 17/3/2
f 17/3/2 15/3/2 18/3/2
f 18/3/2 15/3/2 19/3/2
f 15/2/2 16/2/2 20/2/2
f 19/3/2 15/3/2 20/3/2
f 13/2/2 17/2/2 21/2/2
f 17/2/2 18/2/2 21/2/2
f 21/2/2 18/2/2 22/2/2
f 19/2/2 20/2/2 23/2/2
f 20/2/2 16/2/2 24/2/2
f 23/2/2 20/2/2 24/2/2
f 27/2/3 26/2/3 25/2/3
f 28/2/3 26/2/3 27/2/3
f 31/2/3 30/2/3 29/2/3
f 32/2/3 30/2/3 31/2/3
f 33/2/4 34/2/4 35/2/4
f 35/2/4 34/2/4 36/2/4
f 37/2/4 38/2/4 39/2/4
f 39/2/4 38/2/4 40/2/4
f 43/2/5 42/2/5 41/2/5
f 44/2/5 42/2/5 43/2/5
f 45/3/5 44/3/5 43/3/5
f 46/3/5 44/3/5 45/3/5
f 47/2/5 46/2/5 45/2/5
f 48/2/5 46/2/5 47/2/5
f 49/3/6 50/3/6 51/3/6
f 51/3/6 50/3/6 52/3/6
f 49/3/6 51/3/6 53/3/6
f 51/1/6 52/1/6 53/1/6
f 52/3/6 50/3/6 54/3/6
f 53/1/6 52/1/6 54/1/6
f 49/3/6 53/3/6 55/3/6
f 53/3/6 54/3/6 55/3/6
f 54/3/6 50/3/6 56/3/6
f 55/3/6 54/3/6 56/3/6
f 49/3/6 55/3/6 57/3/6
f 55/1/6 56/1/6 57/1/6
f 56/3/6 50/3/6 58/3/6
f 57/1/6 56/1/6 58/1/6
f 57/3/6 58/3/6 59/3/6
f 58/3/6 50/3/6 59/3/6
f 59/3/6 50/3/6 60/3/6
f 57/3/6 59/3/6 61/3/6
f 59/1/6 60/1/6 61/1/6
f 60/3/6 50/3/6 62/3/6
f 61/1/6 60/1/6 62/1/6
f 49/3/6 57/3/6 63/3/6
f 57/3/6 61/3/6 63/3/6
f 61/3/6 62/3/6 63/3/6
f 63/3/6 62/3/6 64/3/6
f 49/3/6 63/3/6 65/3/6
f 63/1/6 64/1/6 65/1/6
f 64/3/6 62/3/6 66/3/6
f 65/1/6 64/1/6 66/1/6
f 49/3/6 65/3/6 67/3/6
f 65/3/6 66/3/6 67/3/6
f 66/3/6 62/3/6 68/3/6
f 67/3/6 66/3/6 68/3/6
f 49/3/6 67/3/6 69/3/6
f 67/1/6 68/1/6 69/1/6
f 68/3/6 62/3/6 70/3/6
f 69/1/6 68/1/6 70/1/6
f 49/3/6 69/3/6 71/3/6
f 69/3/6 70/3/6 71/3/6
f 62/3/6 50/3/6 72/3/6
f 71/3/6 70/3/6 72/3/6
f 70/3/6 62/3/6 72/3/6
f 73/2/6 74/2/6 75/2/6
f 75/2/6 74/2/6 76/2/6
f 77/2/6 78/2/6 79/2/6
f 79/2/6 78/2/6 80/2/6
