# MagicaVoxel @ Ephtracy

# group
g route bande point (croisement)

# material
mtllib route bande point (croisement).mtl
usemtl palette

# normals
vn -1 0 0
vn 1 0 0
vn 0 0 1
vn 0 0 -1
vn 0 -1 0
vn 0 1 0

# texcoords
vt 0.958984 0.5
vt 0.974609 0.5
vt 0.990234 0.5

# verts
v -63 0 63
v -63 0 41
v -63 0 -41
v -63 0 -63
v -63 3 41
v -63 3 39
v -63 3 -39
v -63 3 -41
v -63 5 63
v -63 5 39
v -63 5 -39
v -63 5 -63
v 39 3 63
v 39 3 39
v 39 3 -39
v 39 3 -63
v 39 5 63
v 39 5 39
v 39 5 -39
v 39 5 -63
v -39 3 63
v -39 3 39
v -39 3 -39
v -39 3 -63
v -39 5 63
v -39 5 39
v -39 5 -39
v -39 5 -63
v 63 0 63
v 63 0 41
v 63 0 -41
v 63 0 -63
v 63 3 41
v 63 3 39
v 63 3 -39
v 63 3 -41
v 63 5 63
v 63 5 39
v 63 5 -39
v 63 5 -63
v -63 0 63
v -63 5 63
v -41 0 63
v -41 3 63
v -39 3 63
v -39 5 63
v 39 3 63
v 39 5 63
v 41 0 63
v 41 3 63
v 63 0 63
v 63 5 63
v -63 3 -39
v -63 5 -39
v -39 3 -39
v -39 5 -39
v 39 3 -39
v 39 5 -39
v 63 3 -39
v 63 5 -39
v -63 3 39
v -63 5 39
v -39 3 39
v -39 5 39
v 39 3 39
v 39 5 39
v 63 3 39
v 63 5 39
v -63 0 -63
v -63 5 -63
v -41 0 -63
v -41 3 -63
v -39 3 -63
v -39 5 -63
v 39 3 -63
v 39 5 -63
v 41 0 -63
v 41 3 -63
v 63 0 -63
v 63 5 -63
v -63 0 63
v -41 0 63
v 41 0 63
v 63 0 63
v -63 0 41
v -41 0 41
v 41 0 41
v 63 0 41
v -63 0 -41
v -41 0 -41
v 41 0 -41
v 63 0 -41
v -63 0 -63
v -41 0 -63
v 41 0 -63
v 63 0 -63
v -39 3 63
v 39 3 63
v -63 3 39
v -39 3 39
v 39 3 39
v 63 3 39
v -63 3 -39
v -39 3 -39
v 39 3 -39
v 63 3 -39
v -39 3 -63
v 39 3 -63
v -63 5 63
v -39 5 63
v 39 5 63
v 63 5 63
v -63 5 39
v -39 5 39
v 39 5 39
v 63 5 39
v -63 5 -39
v -39 5 -39
v 39 5 -39
v 63 5 -39
v -63 5 -63
v -39 5 -63
v 39 5 -63
v 63 5 -63

# faces
f 5/2/1 2/2/1 1/2/1
f 5/3/1 3/3/1 2/3/1
f 6/3/1 3/3/1 5/3/1
f 7/3/1 3/3/1 6/3/1
f 8/2/1 4/2/1 3/2/1
f 8/3/1 3/3/1 7/3/1
f 9/2/1 5/2/1 1/2/1
f 9/2/1 6/2/1 5/2/1
f 10/2/1 6/2/1 9/2/1
f 11/2/1 8/2/1 7/2/1
f 12/2/1 4/2/1 8/2/1
f 12/2/1 8/2/1 11/2/1
f 17/2/1 14/2/1 13/2/1
f 18/2/1 14/2/1 17/2/1
f 19/2/1 16/2/1 15/2/1
f 20/2/1 16/2/1 19/2/1
f 21/2/2 22/2/2 25/2/2
f 25/2/2 22/2/2 26/2/2
f 23/2/2 24/2/2 27/2/2
f 27/2/2 24/2/2 28/2/2
f 29/2/2 30/2/2 33/2/2
f 30/3/2 31/3/2 33/3/2
f 33/3/2 31/3/2 34/3/2
f 34/3/2 31/3/2 35/3/2
f 31/2/2 32/2/2 36/2/2
f 35/3/2 31/3/2 36/3/2
f 29/2/2 33/2/2 37/2/2
f 33/2/2 34/2/2 37/2/2
f 37/2/2 34/2/2 38/2/2
f 35/2/2 36/2/2 39/2/2
f 36/2/2 32/2/2 40/2/2
f 39/2/2 36/2/2 40/2/2
f 43/2/3 42/2/3 41/2/3
f 44/2/3 42/2/3 43/2/3
f 45/3/3 44/3/3 43/3/3
f 45/2/3 42/2/3 44/2/3
f 46/2/3 42/2/3 45/2/3
f 47/3/3 45/3/3 43/3/3
f 49/3/3 47/3/3 43/3/3
f 50/2/3 48/2/3 47/2/3
f 50/3/3 47/3/3 49/3/3
f 51/2/3 50/2/3 49/2/3
f 52/2/3 48/2/3 50/2/3
f 52/2/3 50/2/3 51/2/3
f 55/2/3 54/2/3 53/2/3
f 56/2/3 54/2/3 55/2/3
f 59/2/3 58/2/3 57/2/3
f 60/2/3 58/2/3 59/2/3
f 61/2/4 62/2/4 63/2/4
f 63/2/4 62/2/4 64/2/4
f 65/2/4 66/2/4 67/2/4
f 67/2/4 66/2/4 68/2/4
f 69/2/4 70/2/4 71/2/4
f 71/2/4 70/2/4 72/2/4
f 71/3/4 72/3/4 73/3/4
f 72/2/4 70/2/4 73/2/4
f 73/2/4 70/2/4 74/2/4
f 71/3/4 73/3/4 75/3/4
f 71/3/4 75/3/4 77/3/4
f 75/2/4 76/2/4 78/2/4
f 77/3/4 75/3/4 78/3/4
f 77/2/4 78/2/4 79/2/4
f 78/2/4 76/2/4 80/2/4
f 79/2/4 78/2/4 80/2/4
f 85/2/5 82/2/5 81/2/5
f 86/3/5 83/3/5 82/3/5
f 86/2/5 82/2/5 85/2/5
f 87/2/5 84/2/5 83/2/5
f 87/3/5 83/3/5 86/3/5
f 88/2/5 84/2/5 87/2/5
f 89/3/5 86/3/5 85/3/5
f 89/3/5 87/3/5 86/3/5
f 89/3/5 88/3/5 87/3/5
f 90/3/5 88/3/5 89/3/5
f 91/3/5 88/3/5 90/3/5
f 92/3/5 88/3/5 91/3/5
f 93/2/5 90/2/5 89/2/5
f 94/3/5 91/3/5 90/3/5
f 94/2/5 90/2/5 93/2/5
f 95/2/5 92/2/5 91/2/5
f 95/3/5 91/3/5 94/3/5
f 96/2/5 92/2/5 95/2/5
f 97/3/6 98/3/6 100/3/6
f 100/3/6 98/3/6 101/3/6
f 99/3/6 100/3/6 103/3/6
f 101/3/6 102/3/6 103/3/6
f 100/3/6 101/3/6 103/3/6
f 103/3/6 102/3/6 104/3/6
f 104/3/6 102/3/6 105/3/6
f 105/3/6 102/3/6 106/3/6
f 104/3/6 105/3/6 107/3/6
f 107/3/6 105/3/6 108/3/6
f 109/2/6 110/2/6 113/2/6
f 113/2/6 110/2/6 114/2/6
f 111/2/6 112/2/6 115/2/6
f 115/2/6 112/2/6 116/2/6
f 117/2/6 118/2/6 121/2/6
f 121/2/6 118/2/6 122/2/6
f 119/2/6 120/2/6 123/2/6
f 123/2/6 120/2/6 124/2/6
